<?xml version="1.0" encoding="UTF-8" standalone="no"?>
<?xml-stylesheet href="spot.css" type="text/css"?>
<!DOCTYPE svg PUBLIC "-//W3C//DTD SVG 1.1//EN"
 "http://www.w3.org/Graphics/SVG/1.1/DTD/svg11.dtd">
<!-- Generated by graphviz version 2.43.0 (0)
 -->
<!-- Title: F(GFb | G!a) Pages: 1 -->
<svg width="416pt" height="272pt"
 viewBox="0.00 0.00 416.00 272.00" xmlns="http://www.w3.org/2000/svg" xmlns:xlink="http://www.w3.org/1999/xlink">
<g id="graph0" class="graph" transform="scale(1 1) rotate(0) translate(4 268)">
<title>F(GFb | G!a)</title>
<polygon fill="white" stroke="transparent" points="-4,4 -4,-268 412,-268 412,4 -4,4"/>
<text text-anchor="start" x="185" y="-250.4" font-family="Lato" font-size="12.00">[Büchi]</text>
<!-- I -->
<!-- 0 -->
<g id="node2" class="node">
<title>0</title>
<ellipse fill="#ffffa0" stroke="black" cx="56" cy="-68" rx="18" ry="18"/>
<text text-anchor="middle" x="56" y="-64.9" font-family="Lato" font-size="12.00">0</text>
</g>
<!-- I&#45;&gt;0 -->
<g id="edge1" class="edge">
<title>I&#45;&gt;0</title>
<path fill="none" stroke="black" d="M1.15,-68C2.79,-68 17.15,-68 30.63,-68"/>
<polygon fill="black" stroke="black" points="37.94,-68 30.94,-71.15 34.44,-68 30.94,-68 30.94,-68 30.94,-68 34.44,-68 30.94,-64.85 37.94,-68 37.94,-68"/>
</g>
<!-- 1 -->
<g id="node3" class="node">
<title>1</title>
<ellipse fill="#ffffa0" stroke="black" cx="166" cy="-190" rx="18" ry="18"/>
<ellipse fill="none" stroke="black" cx="166" cy="-190" rx="22" ry="22"/>
<text text-anchor="middle" x="166" y="-186.9" font-family="Lato" font-size="12.00">1</text>
</g>
<!-- 0&#45;&gt;1 -->
<g id="edge2" class="edge">
<title>0&#45;&gt;1</title>
<path fill="none" stroke="black" d="M68.56,-81.06C87.07,-101.97 123.57,-143.2 145.98,-168.51"/>
<polygon fill="black" stroke="black" points="150.8,-173.96 143.81,-170.81 148.48,-171.34 146.16,-168.72 146.16,-168.72 146.16,-168.72 148.48,-171.34 148.52,-166.64 150.8,-173.96 150.8,-173.96"/>
<text text-anchor="middle" x="109" y="-146.4" font-family="Lato" font-size="12.00">1</text>
</g>
<!-- 2 -->
<g id="node4" class="node">
<title>2</title>
<ellipse fill="#ffffa0" stroke="black" cx="166" cy="-101" rx="18" ry="18"/>
<text text-anchor="middle" x="166" y="-97.9" font-family="Lato" font-size="12.00">2</text>
</g>
<!-- 0&#45;&gt;2 -->
<g id="edge3" class="edge">
<title>0&#45;&gt;2</title>
<path fill="none" stroke="black" d="M73.4,-73.01C91.56,-78.56 120.98,-87.55 141.56,-93.84"/>
<polygon fill="black" stroke="black" points="148.44,-95.94 140.83,-96.91 145.1,-94.92 141.75,-93.9 141.75,-93.9 141.75,-93.9 145.1,-94.92 142.67,-90.88 148.44,-95.94 148.44,-95.94"/>
<text text-anchor="start" x="92" y="-91.4" font-family="Lato" font-size="12.00">!a &amp; !b</text>
</g>
<!-- 3 -->
<g id="node5" class="node">
<title>3</title>
<ellipse fill="#ffffa0" stroke="black" cx="386" cy="-22" rx="18" ry="18"/>
<ellipse fill="none" stroke="black" cx="386" cy="-22" rx="22" ry="22"/>
<text text-anchor="middle" x="386" y="-18.9" font-family="Lato" font-size="12.00">3</text>
</g>
<!-- 0&#45;&gt;3 -->
<g id="edge4" class="edge">
<title>0&#45;&gt;3</title>
<path fill="none" stroke="black" d="M73.17,-61.64C79.02,-59.56 85.74,-57.42 92,-56 187.64,-34.32 304.14,-26.05 356.78,-23.26"/>
<polygon fill="black" stroke="black" points="363.78,-22.9 356.95,-26.4 360.28,-23.08 356.79,-23.26 356.79,-23.26 356.79,-23.26 360.28,-23.08 356.62,-20.11 363.78,-22.9 363.78,-22.9"/>
<text text-anchor="start" x="206" y="-39.4" font-family="Lato" font-size="12.00">!a &amp; !b</text>
</g>
<!-- 4 -->
<g id="node6" class="node">
<title>4</title>
<ellipse fill="#ffffa0" stroke="black" cx="276" cy="-76" rx="18" ry="18"/>
<text text-anchor="middle" x="276" y="-72.9" font-family="Lato" font-size="12.00">4</text>
</g>
<!-- 0&#45;&gt;4 -->
<g id="edge5" class="edge">
<title>0&#45;&gt;4</title>
<path fill="none" stroke="black" d="M73.98,-65.59C98.98,-62.39 147.15,-57.5 188,-61 209.51,-62.84 233.69,-67.2 251.09,-70.74"/>
<polygon fill="black" stroke="black" points="258.11,-72.21 250.61,-73.86 254.68,-71.49 251.25,-70.78 251.25,-70.78 251.25,-70.78 254.68,-71.49 251.9,-67.69 258.11,-72.21 258.11,-72.21"/>
<text text-anchor="start" x="155" y="-64.4" font-family="Lato" font-size="12.00">a | b</text>
</g>
<!-- 1&#45;&gt;1 -->
<g id="edge6" class="edge">
<title>1&#45;&gt;1</title>
<path fill="none" stroke="black" d="M155.93,-209.76C154.22,-220.35 157.58,-230 166,-230 172.45,-230 175.93,-224.34 176.43,-216.94"/>
<polygon fill="black" stroke="black" points="176.07,-209.76 179.57,-216.59 176.25,-213.25 176.43,-216.75 176.43,-216.75 176.43,-216.75 176.25,-213.25 173.28,-216.91 176.07,-209.76 176.07,-209.76"/>
<text text-anchor="start" x="162.5" y="-233.4" font-family="Lato" font-size="12.00">b</text>
</g>
<!-- 5 -->
<g id="node7" class="node">
<title>5</title>
<ellipse fill="#ffffa0" stroke="black" cx="276" cy="-172" rx="18" ry="18"/>
<text text-anchor="middle" x="276" y="-168.9" font-family="Lato" font-size="12.00">5</text>
</g>
<!-- 1&#45;&gt;5 -->
<g id="edge7" class="edge">
<title>1&#45;&gt;5</title>
<path fill="none" stroke="black" d="M187.82,-186.53C205.9,-183.52 232.07,-179.16 251.01,-176"/>
<polygon fill="black" stroke="black" points="258.14,-174.81 251.75,-179.07 254.69,-175.39 251.24,-175.96 251.24,-175.96 251.24,-175.96 254.69,-175.39 250.72,-172.85 258.14,-174.81 258.14,-174.81"/>
<text text-anchor="start" x="218" y="-186.4" font-family="Lato" font-size="12.00">!b</text>
</g>
<!-- 2&#45;&gt;2 -->
<g id="edge8" class="edge">
<title>2&#45;&gt;2</title>
<path fill="none" stroke="black" d="M156.43,-116.54C153.73,-126.91 156.92,-137 166,-137 172.95,-137 176.45,-131.08 176.5,-123.66"/>
<polygon fill="black" stroke="black" points="175.57,-116.54 179.6,-123.08 176.03,-120.01 176.48,-123.48 176.48,-123.48 176.48,-123.48 176.03,-120.01 173.35,-123.89 175.57,-116.54 175.57,-116.54"/>
<text text-anchor="start" x="149" y="-140.4" font-family="Lato" font-size="12.00">!a &amp; !b</text>
</g>
<!-- 2&#45;&gt;4 -->
<g id="edge9" class="edge">
<title>2&#45;&gt;4</title>
<path fill="none" stroke="black" d="M183.96,-103.11C199.03,-104.39 221.49,-104.81 240,-99 245.46,-97.28 250.88,-94.45 255.75,-91.34"/>
<polygon fill="black" stroke="black" points="261.61,-87.33 257.62,-93.88 258.72,-89.31 255.84,-91.29 255.84,-91.29 255.84,-91.29 258.72,-89.31 254.06,-88.69 261.61,-87.33 261.61,-87.33"/>
<text text-anchor="start" x="212" y="-106.4" font-family="Lato" font-size="12.00">a | b</text>
</g>
<!-- 3&#45;&gt;3 -->
<g id="edge10" class="edge">
<title>3&#45;&gt;3</title>
<path fill="none" stroke="black" d="M375.93,-41.76C374.22,-52.35 377.58,-62 386,-62 392.45,-62 395.93,-56.34 396.43,-48.94"/>
<polygon fill="black" stroke="black" points="396.07,-41.76 399.57,-48.59 396.25,-45.25 396.43,-48.75 396.43,-48.75 396.43,-48.75 396.25,-45.25 393.28,-48.91 396.07,-41.76 396.07,-41.76"/>
<text text-anchor="start" x="369" y="-65.4" font-family="Lato" font-size="12.00">!a &amp; !b</text>
</g>
<!-- 4&#45;&gt;2 -->
<g id="edge11" class="edge">
<title>4&#45;&gt;2</title>
<path fill="none" stroke="black" d="M257.96,-75.76C243.81,-75.97 223.27,-77.22 206,-82 200.05,-83.65 193.92,-86.19 188.32,-88.88"/>
<polygon fill="black" stroke="black" points="182.05,-92.06 186.86,-86.08 185.17,-90.48 188.29,-88.89 188.29,-88.89 188.29,-88.89 185.17,-90.48 189.72,-91.7 182.05,-92.06 182.05,-92.06"/>
<text text-anchor="start" x="206" y="-85.4" font-family="Lato" font-size="12.00">!a &amp; !b</text>
</g>
<!-- 4&#45;&gt;3 -->
<g id="edge12" class="edge">
<title>4&#45;&gt;3</title>
<path fill="none" stroke="black" d="M292.47,-68.26C309.95,-59.53 338.65,-45.18 359.46,-34.77"/>
<polygon fill="black" stroke="black" points="365.91,-31.54 361.06,-37.49 362.78,-33.11 359.65,-34.67 359.65,-34.67 359.65,-34.67 362.78,-33.11 358.24,-31.86 365.91,-31.54 365.91,-31.54"/>
<text text-anchor="start" x="312" y="-59.4" font-family="Lato" font-size="12.00">!a &amp; !b</text>
</g>
<!-- 4&#45;&gt;4 -->
<g id="edge13" class="edge">
<title>4&#45;&gt;4</title>
<path fill="none" stroke="black" d="M267.02,-91.92C264.68,-102.15 267.67,-112 276,-112 282.38,-112 285.63,-106.23 285.75,-98.93"/>
<polygon fill="black" stroke="black" points="284.98,-91.92 288.87,-98.53 285.36,-95.4 285.74,-98.87 285.74,-98.87 285.74,-98.87 285.36,-95.4 282.61,-99.22 284.98,-91.92 284.98,-91.92"/>
<text text-anchor="start" x="265" y="-115.4" font-family="Lato" font-size="12.00">a | b</text>
</g>
<!-- 5&#45;&gt;1 -->
<g id="edge14" class="edge">
<title>5&#45;&gt;1</title>
<path fill="none" stroke="black" d="M259.04,-165.26C244.82,-160.24 223.62,-155.17 206,-161 199.65,-163.1 193.49,-166.69 188.01,-170.63"/>
<polygon fill="black" stroke="black" points="182.36,-175 185.97,-168.23 185.13,-172.86 187.9,-170.72 187.9,-170.72 187.9,-170.72 185.13,-172.86 189.82,-173.21 182.36,-175 182.36,-175"/>
<text text-anchor="start" x="219.5" y="-164.4" font-family="Lato" font-size="12.00">b</text>
</g>
<!-- 5&#45;&gt;5 -->
<g id="edge15" class="edge">
<title>5&#45;&gt;5</title>
<path fill="none" stroke="black" d="M267.02,-187.92C264.68,-198.15 267.67,-208 276,-208 282.38,-208 285.63,-202.23 285.75,-194.93"/>
<polygon fill="black" stroke="black" points="284.98,-187.92 288.87,-194.53 285.36,-191.4 285.74,-194.87 285.74,-194.87 285.74,-194.87 285.36,-191.4 282.61,-195.22 284.98,-187.92 284.98,-187.92"/>
<text text-anchor="start" x="271" y="-211.4" font-family="Lato" font-size="12.00">!b</text>
</g>
</g>
</svg>
