<?xml version="1.0" encoding="UTF-8" standalone="no"?>
<?xml-stylesheet href="spot.css" type="text/css"?>
<!DOCTYPE svg PUBLIC "-//W3C//DTD SVG 1.1//EN"
 "http://www.w3.org/Graphics/SVG/1.1/DTD/svg11.dtd">
<!-- Generated by graphviz version 2.43.0 (0)
 -->
<!-- Title: F(GFb | G!a) Pages: 1 -->
<svg width="254pt" height="197pt"
 viewBox="0.00 0.00 254.00 197.00" xmlns="http://www.w3.org/2000/svg" xmlns:xlink="http://www.w3.org/1999/xlink">
<g id="graph0" class="graph" transform="scale(1 1) rotate(0) translate(4 193)">
<title>F(GFb | G!a)</title>
<polygon fill="white" stroke="transparent" points="-4,4 -4,-193 250,-193 250,4 -4,4"/>
<text text-anchor="start" x="104" y="-175.4" font-family="Lato" font-size="12.00">[Büchi]</text>
<!-- I -->
<!-- 0 -->
<g id="node2" class="node">
<title>0</title>
<ellipse fill="#ffffa0" stroke="black" cx="56" cy="-68" rx="18" ry="18"/>
<text text-anchor="middle" x="56" y="-64.9" font-family="Lato" font-size="12.00">0</text>
</g>
<!-- I&#45;&gt;0 -->
<g id="edge1" class="edge">
<title>I&#45;&gt;0</title>
<path fill="none" stroke="black" d="M1.15,-68C2.79,-68 17.15,-68 30.63,-68"/>
<polygon fill="black" stroke="black" points="37.94,-68 30.94,-71.15 34.44,-68 30.94,-68 30.94,-68 30.94,-68 34.44,-68 30.94,-64.85 37.94,-68 37.94,-68"/>
</g>
<!-- 0&#45;&gt;0 -->
<g id="edge2" class="edge">
<title>0&#45;&gt;0</title>
<path fill="none" stroke="black" d="M49.62,-85.04C48.32,-94.86 50.45,-104 56,-104 60.17,-104 62.4,-98.86 62.71,-92.14"/>
<polygon fill="black" stroke="black" points="62.38,-85.04 65.85,-91.88 62.54,-88.53 62.71,-92.03 62.71,-92.03 62.71,-92.03 62.54,-88.53 59.56,-92.18 62.38,-85.04 62.38,-85.04"/>
<text text-anchor="start" x="52.5" y="-107.4" font-family="Lato" font-size="12.00">1</text>
</g>
<!-- 1 -->
<g id="node3" class="node">
<title>1</title>
<ellipse fill="#ffffa0" stroke="black" cx="142" cy="-115" rx="18" ry="18"/>
<ellipse fill="none" stroke="black" cx="142" cy="-115" rx="22" ry="22"/>
<text text-anchor="start" x="138.5" y="-111.9" font-family="Lato" font-size="12.00">1</text>
</g>
<!-- 0&#45;&gt;1 -->
<g id="edge3" class="edge">
<title>0&#45;&gt;1</title>
<path fill="none" stroke="black" d="M72.02,-76.4C84.21,-83.23 101.67,-92.99 115.97,-101"/>
<polygon fill="black" stroke="black" points="122.29,-104.53 114.64,-103.86 119.24,-102.82 116.18,-101.11 116.18,-101.11 116.18,-101.11 119.24,-102.82 117.72,-98.36 122.29,-104.53 122.29,-104.53"/>
<text text-anchor="start" x="93.5" y="-95.4" font-family="Lato" font-size="12.00">b</text>
</g>
<!-- 2 -->
<g id="node4" class="node">
<title>2</title>
<ellipse fill="#ffffa0" stroke="black" cx="142" cy="-22" rx="18" ry="18"/>
<ellipse fill="none" stroke="black" cx="142" cy="-22" rx="22" ry="22"/>
<text text-anchor="middle" x="142" y="-18.9" font-family="Lato" font-size="12.00">2</text>
</g>
<!-- 0&#45;&gt;2 -->
<g id="edge4" class="edge">
<title>0&#45;&gt;2</title>
<path fill="none" stroke="black" d="M72.02,-59.78C84.21,-53.1 101.67,-43.54 115.97,-35.71"/>
<polygon fill="black" stroke="black" points="122.29,-32.25 117.66,-38.37 119.22,-33.93 116.15,-35.61 116.15,-35.61 116.15,-35.61 119.22,-33.93 114.64,-32.84 122.29,-32.25 122.29,-32.25"/>
<text text-anchor="start" x="92" y="-51.4" font-family="Lato" font-size="12.00">!a</text>
</g>
<!-- 1&#45;&gt;1 -->
<g id="edge5" class="edge">
<title>1&#45;&gt;1</title>
<path fill="none" stroke="black" d="M133.99,-135.58C132.89,-145.84 135.55,-155 142,-155 146.83,-155 149.54,-149.85 150.13,-142.95"/>
<polygon fill="black" stroke="black" points="150.01,-135.58 153.27,-142.53 150.06,-139.08 150.12,-142.58 150.12,-142.58 150.12,-142.58 150.06,-139.08 146.97,-142.63 150.01,-135.58 150.01,-135.58"/>
<text text-anchor="start" x="138.5" y="-158.4" font-family="Lato" font-size="12.00">b</text>
</g>
<!-- 3 -->
<g id="node5" class="node">
<title>3</title>
<ellipse fill="#ffffa0" stroke="black" cx="228" cy="-115" rx="18" ry="18"/>
<text text-anchor="middle" x="228" y="-111.9" font-family="Lato" font-size="12.00">3</text>
</g>
<!-- 1&#45;&gt;3 -->
<g id="edge6" class="edge">
<title>1&#45;&gt;3</title>
<path fill="none" stroke="black" d="M164.2,-115C175.87,-115 190.41,-115 202.56,-115"/>
<polygon fill="black" stroke="black" points="209.77,-115 202.77,-118.15 206.27,-115 202.77,-115 202.77,-115 202.77,-115 206.27,-115 202.77,-111.85 209.77,-115 209.77,-115"/>
<text text-anchor="start" x="182" y="-118.4" font-family="Lato" font-size="12.00">!b</text>
</g>
<!-- 2&#45;&gt;2 -->
<g id="edge7" class="edge">
<title>2&#45;&gt;2</title>
<path fill="none" stroke="black" d="M133.99,-42.58C132.89,-52.84 135.55,-62 142,-62 146.83,-62 149.54,-56.85 150.13,-49.95"/>
<polygon fill="black" stroke="black" points="150.01,-42.58 153.27,-49.53 150.06,-46.08 150.12,-49.58 150.12,-49.58 150.12,-49.58 150.06,-46.08 146.97,-49.63 150.01,-42.58 150.01,-42.58"/>
<text text-anchor="start" x="137" y="-65.4" font-family="Lato" font-size="12.00">!a</text>
</g>
<!-- 3&#45;&gt;1 -->
<g id="edge8" class="edge">
<title>3&#45;&gt;1</title>
<path fill="none" stroke="black" d="M212.22,-105.98C206.18,-102.8 198.98,-99.61 192,-98 183.94,-96.15 175.35,-97.81 167.66,-100.71"/>
<polygon fill="black" stroke="black" points="160.88,-103.65 166.04,-97.98 164.09,-102.26 167.3,-100.87 167.3,-100.87 167.3,-100.87 164.09,-102.26 168.55,-103.75 160.88,-103.65 160.88,-103.65"/>
<text text-anchor="start" x="183.5" y="-101.4" font-family="Lato" font-size="12.00">b</text>
</g>
<!-- 3&#45;&gt;3 -->
<g id="edge9" class="edge">
<title>3&#45;&gt;3</title>
<path fill="none" stroke="black" d="M220.97,-131.66C219.41,-141.62 221.75,-151 228,-151 232.69,-151 235.18,-145.73 235.47,-138.89"/>
<polygon fill="black" stroke="black" points="235.03,-131.66 238.6,-138.46 235.24,-135.16 235.46,-138.65 235.46,-138.65 235.46,-138.65 235.24,-135.16 232.31,-138.84 235.03,-131.66 235.03,-131.66"/>
<text text-anchor="start" x="223" y="-154.4" font-family="Lato" font-size="12.00">!b</text>
</g>
</g>
</svg>
