<?xml version="1.0" encoding="UTF-8" standalone="no"?>
<?xml-stylesheet href="spot.css" type="text/css"?>
<!DOCTYPE svg PUBLIC "-//W3C//DTD SVG 1.1//EN"
 "http://www.w3.org/Graphics/SVG/1.1/DTD/svg11.dtd">
<!-- Generated by graphviz version 2.43.0 (0)
 -->
<!-- Title: G Pages: 1 -->
<svg width="545pt" height="192pt"
 viewBox="0.00 0.00 545.47 191.50" xmlns="http://www.w3.org/2000/svg" xmlns:xlink="http://www.w3.org/1999/xlink">
<g id="graph0" class="graph" transform="scale(1 1) rotate(0) translate(4 187.5)">
<title>G</title>
<polygon fill="white" stroke="transparent" points="-4,4 -4,-187.5 541.47,-187.5 541.47,4 -4,4"/>
<!-- &#45;1 -->
<!-- 1 -->
<g id="node2" class="node">
<title>1</title>
<polygon fill="#ffffa0" stroke="black" points="426.47,-101 372.47,-101 372.47,-65 426.47,-65 426.47,-101"/>
<text text-anchor="middle" x="399.47" y="-86.4" font-family="Lato" font-size="12.00">2</text>
<text text-anchor="middle" x="399.47" y="-73.4" font-family="Lato" font-size="12.00">!a &amp; b</text>
</g>
<!-- &#45;1&#45;&gt;1 -->
<g id="edge1" class="edge">
<title>&#45;1&#45;&gt;1</title>
<path fill="none" stroke="black" d="M276.96,-162.46C289.12,-160.57 328.31,-153.3 354.47,-135 365.06,-127.59 374.63,-117.03 382.12,-107.36"/>
<polygon fill="black" stroke="black" points="386.5,-101.48 384.84,-108.98 384.41,-104.29 382.31,-107.09 382.31,-107.09 382.31,-107.09 384.41,-104.29 379.79,-105.21 386.5,-101.48 386.5,-101.48"/>
<text text-anchor="middle" x="338.97" y="-152.4" font-family="Lato" font-size="12.00">!a &amp; b</text>
</g>
<!-- 4 -->
<g id="node7" class="node">
<title>4</title>
<polygon fill="#ffffa0" stroke="black" points="533.47,-40 479.47,-40 479.47,-4 533.47,-4 533.47,-40"/>
<polygon fill="none" stroke="black" points="537.47,-44 475.47,-44 475.47,0 537.47,0 537.47,-44"/>
<text text-anchor="middle" x="506.47" y="-18.9" font-family="Lato" font-size="12.00">3</text>
</g>
<!-- 1&#45;&gt;4 -->
<g id="edge4" class="edge">
<title>1&#45;&gt;4</title>
<path fill="none" stroke="black" d="M426.69,-67.76C439.44,-60.36 454.97,-51.34 468.86,-43.26"/>
<polygon fill="black" stroke="black" points="475.12,-39.63 470.65,-45.87 472.09,-41.39 469.06,-43.15 469.06,-43.15 469.06,-43.15 472.09,-41.39 467.48,-40.43 475.12,-39.63 475.12,-39.63"/>
<text text-anchor="middle" x="450.97" y="-73.4" font-family="Lato" font-size="12.00">{a}</text>
<text text-anchor="middle" x="450.97" y="-60.4" font-family="Lato" font-size="12.00">{}</text>
</g>
<!-- &#45;2 -->
<!-- 2 -->
<g id="node4" class="node">
<title>2</title>
<ellipse fill="#ffffa0" stroke="black" cx="272.23" cy="-120" rx="33.47" ry="24.08"/>
<text text-anchor="middle" x="272.23" y="-123.4" font-family="Lato" font-size="12.00">1</text>
<text text-anchor="middle" x="272.23" y="-110.4" font-family="Lato" font-size="12.00">a &amp; !b</text>
</g>
<!-- &#45;2&#45;&gt;2 -->
<g id="edge2" class="edge">
<title>&#45;2&#45;&gt;2</title>
<path fill="none" stroke="black" d="M147.46,-182.44C155.2,-179.43 192.18,-164.87 221,-150 227.36,-146.72 234.03,-142.97 240.36,-139.25"/>
<polygon fill="black" stroke="black" points="246.54,-135.58 242.13,-141.86 243.53,-137.36 240.52,-139.15 240.52,-139.15 240.52,-139.15 243.53,-137.36 238.91,-136.45 246.54,-135.58 246.54,-135.58"/>
<text text-anchor="middle" x="205.5" y="-167.4" font-family="Lato" font-size="12.00">a &amp; !b</text>
</g>
<!-- 2&#45;&gt;1 -->
<g id="edge5" class="edge">
<title>2&#45;&gt;1</title>
<path fill="none" stroke="black" d="M303.23,-111.14C321.92,-105.62 345.99,-98.5 365.25,-92.81"/>
<polygon fill="black" stroke="black" points="372.12,-90.79 366.3,-95.79 368.76,-91.78 365.4,-92.77 365.4,-92.77 365.4,-92.77 368.76,-91.78 364.51,-89.75 372.12,-90.79 372.12,-90.79"/>
<text text-anchor="middle" x="338.97" y="-121.4" font-family="Lato" font-size="12.00">{a, b}</text>
<text text-anchor="middle" x="338.97" y="-108.4" font-family="Lato" font-size="12.00">{}</text>
</g>
<!-- 3 -->
<g id="node6" class="node">
<title>3</title>
<polygon fill="#ffffa0" stroke="black" points="172,-87 118,-87 118,-51 172,-51 172,-87"/>
<text text-anchor="middle" x="145" y="-72.4" font-family="Lato" font-size="12.00">0</text>
<text text-anchor="middle" x="145" y="-59.4" font-family="Lato" font-size="12.00">a &amp; b</text>
</g>
<!-- 2&#45;&gt;3 -->
<g id="edge6" class="edge">
<title>2&#45;&gt;3</title>
<path fill="none" stroke="black" d="M249.27,-102.53C240.83,-96.54 230.86,-90.27 221,-86 207.87,-80.31 192.59,-76.41 179.27,-73.79"/>
<polygon fill="black" stroke="black" points="172.09,-72.46 179.54,-70.64 175.53,-73.1 178.97,-73.73 178.97,-73.73 178.97,-73.73 175.53,-73.1 178.4,-76.83 172.09,-72.46 172.09,-72.46"/>
<text text-anchor="middle" x="205.5" y="-102.4" font-family="Lato" font-size="12.00">{b}</text>
<text text-anchor="middle" x="205.5" y="-89.4" font-family="Lato" font-size="12.00">{}</text>
</g>
<!-- &#45;3 -->
<!-- &#45;3&#45;&gt;3 -->
<g id="edge3" class="edge">
<title>&#45;3&#45;&gt;3</title>
<path fill="none" stroke="black" d="M54.03,-69C70.63,-69 92.31,-69 110.23,-69"/>
<polygon fill="black" stroke="black" points="117.65,-69 110.65,-72.15 114.15,-69 110.65,-69 110.65,-69 110.65,-69 114.15,-69 110.65,-65.85 117.65,-69 117.65,-69"/>
<text text-anchor="middle" x="86" y="-72.4" font-family="Lato" font-size="12.00">a &amp; b</text>
</g>
<!-- 3&#45;&gt;1 -->
<g id="edge7" class="edge">
<title>3&#45;&gt;1</title>
<path fill="none" stroke="black" d="M172.05,-65.05C203.7,-60.86 258.66,-55.54 305.47,-61 325.69,-63.36 347.89,-68.51 365.53,-73.24"/>
<polygon fill="black" stroke="black" points="372.3,-75.09 364.72,-76.28 368.93,-74.17 365.55,-73.24 365.55,-73.24 365.55,-73.24 368.93,-74.17 366.38,-70.2 372.3,-75.09 372.3,-75.09"/>
<text text-anchor="middle" x="272.23" y="-77.4" font-family="Lato" font-size="12.00">{a}</text>
<text text-anchor="middle" x="272.23" y="-64.4" font-family="Lato" font-size="12.00">{}</text>
</g>
<!-- 3&#45;&gt;2 -->
<g id="edge8" class="edge">
<title>3&#45;&gt;2</title>
<path fill="none" stroke="black" d="M159.46,-87.05C167.3,-96.14 177.99,-106.41 190,-112 202.91,-118.01 218.2,-120.54 232.01,-121.39"/>
<polygon fill="black" stroke="black" points="239.08,-121.69 231.95,-124.54 235.58,-121.54 232.09,-121.39 232.09,-121.39 232.09,-121.39 235.58,-121.54 232.22,-118.24 239.08,-121.69 239.08,-121.69"/>
<text text-anchor="middle" x="205.5" y="-136.4" font-family="Lato" font-size="12.00">{b}</text>
<text text-anchor="middle" x="205.5" y="-123.4" font-family="Lato" font-size="12.00">{}</text>
</g>
<!-- 3&#45;&gt;4 -->
<g id="edge9" class="edge">
<title>3&#45;&gt;4</title>
<path fill="none" stroke="black" d="M172.42,-61.35C178.19,-59.81 184.28,-58.27 190,-57 248.76,-43.96 263.69,-41.1 323.47,-34 373.44,-28.06 431.5,-24.87 468.35,-23.31"/>
<polygon fill="black" stroke="black" points="475.43,-23.02 468.56,-26.45 471.93,-23.16 468.43,-23.3 468.43,-23.3 468.43,-23.3 471.93,-23.16 468.3,-20.16 475.43,-23.02 475.43,-23.02"/>
<text text-anchor="middle" x="338.97" y="-50.4" font-family="Lato" font-size="12.00">{a}</text>
<text text-anchor="middle" x="338.97" y="-37.4" font-family="Lato" font-size="12.00">{}</text>
</g>
<!-- 4&#45;&gt;4 -->
<g id="edge10" class="edge">
<title>4&#45;&gt;4</title>
<path fill="none" stroke="black" d="M496.46,-44.21C495.65,-53.8 498.98,-62 506.47,-62 511.97,-62 515.23,-57.58 516.25,-51.43"/>
<polygon fill="black" stroke="black" points="516.47,-44.21 519.4,-51.31 516.36,-47.71 516.25,-51.21 516.25,-51.21 516.25,-51.21 516.36,-47.71 513.1,-51.11 516.47,-44.21 516.47,-44.21"/>
<text text-anchor="middle" x="506.47" y="-78.4" font-family="Lato" font-size="12.00">{a}</text>
<text text-anchor="middle" x="506.47" y="-65.4" font-family="Lato" font-size="12.00">{0}</text>
</g>
</g>
</svg>
