<?xml version="1.0" encoding="UTF-8" standalone="no"?>
<?xml-stylesheet href="spot.css" type="text/css"?>
<!DOCTYPE svg PUBLIC "-//W3C//DTD SVG 1.1//EN"
 "http://www.w3.org/Graphics/SVG/1.1/DTD/svg11.dtd">
<!-- Generated by graphviz version 2.43.0 (0)
 -->
<!-- Title: G Pages: 1 -->
<svg width="609pt" height="167pt"
 viewBox="0.00 0.00 609.00 167.39" xmlns="http://www.w3.org/2000/svg" xmlns:xlink="http://www.w3.org/1999/xlink">
<g id="graph0" class="graph" transform="scale(1 1) rotate(0) translate(4 163.39)">
<title>G</title>
<polygon fill="white" stroke="transparent" points="-4,4 -4,-163.39 605,-163.39 605,4 -4,4"/>
<!-- 0 -->
<!-- 1 -->
<g id="node2" class="node">
<title>1</title>
<ellipse fill="#ffffa0" stroke="black" cx="118" cy="-65.39" rx="27" ry="18"/>
<text text-anchor="middle" x="118" y="-62.29" font-family="Lato" font-size="12.00">init</text>
</g>
<!-- 0&#45;&gt;1 -->
<g id="edge1" class="edge">
<title>0&#45;&gt;1</title>
<path fill="none" stroke="black" d="M54.22,-65.39C63.46,-65.39 73.96,-65.39 83.7,-65.39"/>
<polygon fill="black" stroke="black" points="90.97,-65.39 83.97,-68.54 87.47,-65.39 83.97,-65.39 83.97,-65.39 83.97,-65.39 87.47,-65.39 83.97,-62.24 90.97,-65.39 90.97,-65.39"/>
</g>
<!-- 2 -->
<g id="node3" class="node">
<title>2</title>
<polygon fill="#ffffa0" stroke="black" points="490,-118.39 436,-118.39 436,-82.39 490,-82.39 490,-118.39"/>
<text text-anchor="middle" x="463" y="-97.29" font-family="Lato" font-size="12.00">2</text>
</g>
<!-- 1&#45;&gt;2 -->
<g id="edge2" class="edge">
<title>1&#45;&gt;2</title>
<path fill="none" stroke="black" d="M135.59,-79.15C143.46,-85.01 153.25,-91.39 163,-95.39 255.98,-133.55 287.89,-143.09 387,-126.39 401.23,-124 416.38,-119.21 429.3,-114.39"/>
<polygon fill="black" stroke="black" points="435.84,-111.88 430.43,-117.33 432.57,-113.13 429.3,-114.39 429.3,-114.39 429.3,-114.39 432.57,-113.13 428.17,-111.44 435.84,-111.88 435.84,-111.88"/>
<text text-anchor="middle" x="299.5" y="-149.79" font-family="Lato" font-size="12.00">!a &amp; b</text>
<text text-anchor="middle" x="299.5" y="-136.79" font-family="Lato" font-size="12.00">{}</text>
</g>
<!-- 3 -->
<g id="node4" class="node">
<title>3</title>
<ellipse fill="#ffffa0" stroke="black" cx="239" cy="-65.39" rx="27" ry="18"/>
<text text-anchor="middle" x="239" y="-62.29" font-family="Lato" font-size="12.00">1</text>
</g>
<!-- 1&#45;&gt;3 -->
<g id="edge3" class="edge">
<title>1&#45;&gt;3</title>
<path fill="none" stroke="black" d="M145.12,-65.39C162.63,-65.39 185.85,-65.39 204.7,-65.39"/>
<polygon fill="black" stroke="black" points="211.95,-65.39 204.95,-68.54 208.45,-65.39 204.95,-65.39 204.95,-65.39 204.95,-65.39 208.45,-65.39 204.95,-62.24 211.95,-65.39 211.95,-65.39"/>
<text text-anchor="middle" x="178.5" y="-81.79" font-family="Lato" font-size="12.00">a &amp; !b</text>
<text text-anchor="middle" x="178.5" y="-68.79" font-family="Lato" font-size="12.00">{}</text>
</g>
<!-- 4 -->
<g id="node5" class="node">
<title>4</title>
<polygon fill="#ffffa0" stroke="black" points="387,-50.39 333,-50.39 333,-14.39 387,-14.39 387,-50.39"/>
<text text-anchor="middle" x="360" y="-29.29" font-family="Lato" font-size="12.00">3</text>
</g>
<!-- 1&#45;&gt;4 -->
<g id="edge4" class="edge">
<title>1&#45;&gt;4</title>
<path fill="none" stroke="black" d="M136.76,-52.02C154.69,-39.32 183.72,-20.95 212,-12.39 255.87,0.87 270.69,4.32 315,-7.39 318.92,-8.43 322.85,-9.9 326.67,-11.62"/>
<polygon fill="black" stroke="black" points="332.96,-14.72 325.29,-14.46 329.82,-13.17 326.68,-11.63 326.68,-11.63 326.68,-11.63 329.82,-13.17 328.07,-8.8 332.96,-14.72 332.96,-14.72"/>
<text text-anchor="middle" x="239" y="-28.79" font-family="Lato" font-size="12.00">a &amp; b</text>
<text text-anchor="middle" x="239" y="-15.79" font-family="Lato" font-size="12.00">{}</text>
</g>
<!-- 5 -->
<g id="node6" class="node">
<title>5</title>
<polygon fill="#ffffa0" stroke="black" points="597,-66.39 543,-66.39 543,-30.39 597,-30.39 597,-66.39"/>
<polygon fill="none" stroke="black" points="601,-70.39 539,-70.39 539,-26.39 601,-26.39 601,-70.39"/>
<text text-anchor="middle" x="570" y="-45.29" font-family="Lato" font-size="12.00">4</text>
</g>
<!-- 2&#45;&gt;5 -->
<g id="edge5" class="edge">
<title>2&#45;&gt;5</title>
<path fill="none" stroke="black" d="M490.23,-87.41C502.86,-81.15 518.22,-73.54 532.02,-66.71"/>
<polygon fill="black" stroke="black" points="538.65,-63.42 533.77,-69.35 535.51,-64.98 532.38,-66.53 532.38,-66.53 532.38,-66.53 535.51,-64.98 530.98,-63.71 538.65,-63.42 538.65,-63.42"/>
<text text-anchor="middle" x="514.5" y="-93.79" font-family="Lato" font-size="12.00">{a}</text>
<text text-anchor="middle" x="514.5" y="-80.79" font-family="Lato" font-size="12.00">{}</text>
</g>
<!-- 3&#45;&gt;2 -->
<g id="edge6" class="edge">
<title>3&#45;&gt;2</title>
<path fill="none" stroke="black" d="M262.01,-75.23C268.93,-77.95 276.67,-80.64 284,-82.39 333.5,-94.23 392.55,-98.29 428.65,-99.68"/>
<polygon fill="black" stroke="black" points="435.99,-99.93 428.89,-102.84 432.5,-99.81 429,-99.69 429,-99.69 429,-99.69 432.5,-99.81 429.11,-96.54 435.99,-99.93 435.99,-99.93"/>
<text text-anchor="middle" x="360" y="-112.79" font-family="Lato" font-size="12.00">{a, b}</text>
<text text-anchor="middle" x="360" y="-99.79" font-family="Lato" font-size="12.00">{}</text>
</g>
<!-- 3&#45;&gt;4 -->
<g id="edge7" class="edge">
<title>3&#45;&gt;4</title>
<path fill="none" stroke="black" d="M264.08,-58.72C281.86,-53.78 306.28,-47.01 325.9,-41.57"/>
<polygon fill="black" stroke="black" points="332.89,-39.63 326.99,-44.54 329.52,-40.57 326.14,-41.5 326.14,-41.5 326.14,-41.5 329.52,-40.57 325.3,-38.47 332.89,-39.63 332.89,-39.63"/>
<text text-anchor="middle" x="299.5" y="-68.79" font-family="Lato" font-size="12.00">{b}</text>
<text text-anchor="middle" x="299.5" y="-55.79" font-family="Lato" font-size="12.00">{}</text>
</g>
<!-- 4&#45;&gt;2 -->
<g id="edge8" class="edge">
<title>4&#45;&gt;2</title>
<path fill="none" stroke="black" d="M387.23,-47.15C397.05,-52.9 408.19,-59.71 418,-66.39 423.27,-69.98 428.76,-73.99 433.99,-77.95"/>
<polygon fill="black" stroke="black" points="439.55,-82.21 432.08,-80.45 436.77,-80.08 433.99,-77.95 433.99,-77.95 433.99,-77.95 436.77,-80.08 435.91,-75.46 439.55,-82.21 439.55,-82.21"/>
<text text-anchor="middle" x="411.5" y="-82.79" font-family="Lato" font-size="12.00">{a}</text>
<text text-anchor="middle" x="411.5" y="-69.79" font-family="Lato" font-size="12.00">{}</text>
</g>
<!-- 4&#45;&gt;3 -->
<g id="edge9" class="edge">
<title>4&#45;&gt;3</title>
<path fill="none" stroke="black" d="M332.84,-17.89C318.04,-11.69 299.46,-7.31 284,-14.39 271.2,-20.25 260.71,-31.88 253.19,-42.55"/>
<polygon fill="black" stroke="black" points="249.11,-48.68 250.37,-41.1 251.05,-45.76 252.99,-42.85 252.99,-42.85 252.99,-42.85 251.05,-45.76 255.61,-44.6 249.11,-48.68 249.11,-48.68"/>
<text text-anchor="middle" x="299.5" y="-30.79" font-family="Lato" font-size="12.00">{b}</text>
<text text-anchor="middle" x="299.5" y="-17.79" font-family="Lato" font-size="12.00">{}</text>
</g>
<!-- 4&#45;&gt;5 -->
<g id="edge10" class="edge">
<title>4&#45;&gt;5</title>
<path fill="none" stroke="black" d="M387.34,-34.42C423.85,-37.23 490.01,-42.32 531.62,-45.52"/>
<polygon fill="black" stroke="black" points="538.83,-46.07 531.61,-48.68 535.35,-45.8 531.86,-45.54 531.86,-45.54 531.86,-45.54 535.35,-45.8 532.1,-42.4 538.83,-46.07 538.83,-46.07"/>
<text text-anchor="middle" x="463" y="-57.79" font-family="Lato" font-size="12.00">{a}</text>
<text text-anchor="middle" x="463" y="-44.79" font-family="Lato" font-size="12.00">{}</text>
</g>
<!-- 5&#45;&gt;5 -->
<g id="edge11" class="edge">
<title>5&#45;&gt;5</title>
<path fill="none" stroke="black" d="M560,-70.61C559.18,-80.19 562.51,-88.39 570,-88.39 575.5,-88.39 578.76,-83.97 579.78,-77.82"/>
<polygon fill="black" stroke="black" points="580,-70.61 582.93,-77.7 579.89,-74.1 579.78,-77.6 579.78,-77.6 579.78,-77.6 579.89,-74.1 576.64,-77.5 580,-70.61 580,-70.61"/>
<text text-anchor="middle" x="570" y="-104.79" font-family="Lato" font-size="12.00">{a}</text>
<text text-anchor="middle" x="570" y="-91.79" font-family="Lato" font-size="12.00">{0}</text>
</g>
</g>
</svg>
