<?xml version="1.0" encoding="UTF-8" standalone="no"?>
<?xml-stylesheet href="spot.css" type="text/css"?>
<!DOCTYPE svg PUBLIC "-//W3C//DTD SVG 1.1//EN"
 "http://www.w3.org/Graphics/SVG/1.1/DTD/svg11.dtd">
<!-- Generated by graphviz version 2.43.0 (0)
 -->
<!-- Title: G(Fa &amp; Fb) Pages: 1 -->
<svg width="103pt" height="237pt"
 viewBox="0.00 0.00 103.00 237.00" xmlns="http://www.w3.org/2000/svg" xmlns:xlink="http://www.w3.org/1999/xlink">
<g id="graph0" class="graph" transform="scale(1 1) rotate(0) translate(4 233)">
<title>G(Fa &amp; Fb)</title>
<polygon fill="white" stroke="transparent" points="-4,4 -4,-233 99,-233 99,4 -4,4"/>
<text text-anchor="start" x="8" y="-216.4" font-family="Lato" font-size="12.00">Inf(</text>
<text text-anchor="start" x="26" y="-216.4" font-family="Lato" font-size="12.00" fill="#1f78b4">⓿</text>
<text text-anchor="start" x="40" y="-216.4" font-family="Lato" font-size="12.00">)&amp;Inf(</text>
<text text-anchor="start" x="69" y="-216.4" font-family="Lato" font-size="12.00" fill="#ff4da0">❶</text>
<text text-anchor="start" x="83" y="-216.4" font-family="Lato" font-size="12.00">)</text>
<text text-anchor="start" x="11" y="-204.4" font-family="Lato" font-size="12.00">[gen. Büchi 2]</text>
<!-- I -->
<!-- 0 -->
<g id="node2" class="node">
<title>0</title>
<ellipse fill="#ffffa0" stroke="black" cx="66.5" cy="-18" rx="18" ry="18"/>
<text text-anchor="middle" x="66.5" y="-14.9" font-family="Lato" font-size="12.00">0</text>
</g>
<!-- I&#45;&gt;0 -->
<g id="edge1" class="edge">
<title>I&#45;&gt;0</title>
<path fill="none" stroke="black" d="M11.65,-18C13.29,-18 27.65,-18 41.13,-18"/>
<polygon fill="black" stroke="black" points="48.44,-18 41.44,-21.15 44.94,-18 41.44,-18 41.44,-18 41.44,-18 44.94,-18 41.44,-14.85 48.44,-18 48.44,-18"/>
</g>
<!-- 0&#45;&gt;0 -->
<g id="edge2" class="edge">
<title>0&#45;&gt;0</title>
<path fill="none" stroke="black" d="M64.87,-36.15C64.62,-45.54 65.16,-54 66.5,-54 67.48,-54 68.03,-49.44 68.16,-43.3"/>
<polygon fill="black" stroke="black" points="68.13,-36.15 71.31,-43.14 68.14,-39.65 68.16,-43.15 68.16,-43.15 68.16,-43.15 68.14,-39.65 65.01,-43.17 68.13,-36.15 68.13,-36.15"/>
<text text-anchor="start" x="49.5" y="-57.4" font-family="Lato" font-size="12.00">!a &amp; !b</text>
</g>
<!-- 0&#45;&gt;0 -->
<g id="edge3" class="edge">
<title>0&#45;&gt;0</title>
<path fill="none" stroke="black" d="M63.79,-35.98C62.35,-53.2 63.25,-72 66.5,-72 69.29,-72 70.35,-58.12 69.68,-43.28"/>
<polygon fill="black" stroke="black" points="69.21,-35.98 72.8,-42.76 69.43,-39.47 69.66,-42.96 69.66,-42.96 69.66,-42.96 69.43,-39.47 66.51,-43.17 69.21,-35.98 69.21,-35.98"/>
<text text-anchor="start" x="51" y="-88.4" font-family="Lato" font-size="12.00">a &amp; !b</text>
<text text-anchor="start" x="59.5" y="-75.4" font-family="Lato" font-size="12.00" fill="#1f78b4">⓿</text>
</g>
<!-- 0&#45;&gt;0 -->
<g id="edge4" class="edge">
<title>0&#45;&gt;0</title>
<path fill="none" stroke="black" d="M63.22,-35.85C60.03,-62.44 61.12,-98 66.5,-98 71.42,-98 72.75,-68.29 70.51,-42.87"/>
<polygon fill="black" stroke="black" points="69.78,-35.85 73.63,-42.49 70.14,-39.33 70.5,-42.81 70.5,-42.81 70.5,-42.81 70.14,-39.33 67.37,-43.14 69.78,-35.85 69.78,-35.85"/>
<text text-anchor="start" x="51" y="-114.4" font-family="Lato" font-size="12.00">!a &amp; b</text>
<text text-anchor="start" x="59.5" y="-101.4" font-family="Lato" font-size="12.00" fill="#ff4da0">❶</text>
</g>
<!-- 0&#45;&gt;0 -->
<g id="edge5" class="edge">
<title>0&#45;&gt;0</title>
<path fill="none" stroke="black" d="M62.8,-35.94C57.74,-70.89 58.98,-124 66.5,-124 73.52,-124 75.07,-77.71 71.13,-43.12"/>
<polygon fill="black" stroke="black" points="70.2,-35.94 74.22,-42.48 70.65,-39.41 71.1,-42.88 71.1,-42.88 71.1,-42.88 70.65,-39.41 67.97,-43.29 70.2,-35.94 70.2,-35.94"/>
<text text-anchor="start" x="52.5" y="-139.4" font-family="Lato" font-size="12.00">a &amp; b</text>
<text text-anchor="start" x="52.5" y="-127.4" font-family="Lato" font-size="12.00" fill="#1f78b4">⓿</text>
<text text-anchor="start" x="66.5" y="-127.4" font-family="Lato" font-size="12.00" fill="#ff4da0">❶</text>
</g>
</g>
</svg>
