<?xml version="1.0" encoding="UTF-8" standalone="no"?>
<?xml-stylesheet href="spot.css" type="text/css"?>
<!DOCTYPE svg PUBLIC "-//W3C//DTD SVG 1.1//EN"
 "http://www.w3.org/Graphics/SVG/1.1/DTD/svg11.dtd">
<!-- Generated by graphviz version 2.43.0 (0)
 -->
<!-- Pages: 1 -->
<svg width="185pt" height="163pt"
 viewBox="0.00 0.00 185.00 163.33" xmlns="http://www.w3.org/2000/svg" xmlns:xlink="http://www.w3.org/1999/xlink">
<g id="graph0" class="graph" transform="scale(1 1) rotate(0) translate(4 159.33)">
<polygon fill="white" stroke="transparent" points="-4,4 -4,-159.33 181,-159.33 181,4 -4,4"/>
<text text-anchor="start" x="70.5" y="-142.73" font-family="Lato" font-size="12.00">Inf(</text>
<text text-anchor="start" x="88.5" y="-142.73" font-family="Lato" font-size="12.00" fill="#1f78b4">⓿</text>
<text text-anchor="start" x="102.5" y="-142.73" font-family="Lato" font-size="12.00">)</text>
<text text-anchor="start" x="69.5" y="-130.73" font-family="Lato" font-size="12.00">[Büchi]</text>
<!-- I -->
<!-- 0 -->
<g id="node2" class="node">
<title>0</title>
<ellipse fill="#ffffa0" stroke="black" cx="56" cy="-30.33" rx="18" ry="18"/>
<text text-anchor="middle" x="56" y="-27.23" font-family="Lato" font-size="12.00">0</text>
</g>
<!-- I&#45;&gt;0 -->
<g id="edge1" class="edge">
<title>I&#45;&gt;0</title>
<path fill="none" stroke="black" d="M1.15,-30.33C2.79,-30.33 17.15,-30.33 30.63,-30.33"/>
<polygon fill="black" stroke="black" points="37.94,-30.33 30.94,-33.48 34.44,-30.33 30.94,-30.33 30.94,-30.33 30.94,-30.33 34.44,-30.33 30.94,-27.18 37.94,-30.33 37.94,-30.33"/>
</g>
<!-- 0&#45;&gt;0 -->
<g id="edge2" class="edge">
<title>0&#45;&gt;0</title>
<path fill="none" stroke="black" d="M49.62,-47.37C48.32,-57.19 50.45,-66.33 56,-66.33 60.17,-66.33 62.4,-61.19 62.71,-54.48"/>
<polygon fill="black" stroke="black" points="62.38,-47.37 65.85,-54.22 62.54,-50.87 62.71,-54.36 62.71,-54.36 62.71,-54.36 62.54,-50.87 59.56,-54.51 62.38,-47.37 62.38,-47.37"/>
<text text-anchor="start" x="51" y="-69.73" font-family="Lato" font-size="12.00">!a</text>
</g>
<!-- 1 -->
<g id="node3" class="node">
<title>1</title>
<ellipse fill="#ffffa0" stroke="black" cx="159" cy="-30.33" rx="18" ry="18"/>
<text text-anchor="middle" x="159" y="-27.23" font-family="Lato" font-size="12.00">1</text>
</g>
<!-- 0&#45;&gt;1 -->
<g id="edge3" class="edge">
<title>0&#45;&gt;1</title>
<path fill="none" stroke="black" d="M74.07,-32.09C79.77,-32.6 86.15,-33.08 92,-33.33 105.77,-33.92 109.23,-33.92 123,-33.33 126.47,-33.19 130.13,-32.95 133.73,-32.68"/>
<polygon fill="black" stroke="black" points="140.93,-32.09 134.21,-35.81 137.44,-32.38 133.95,-32.67 133.95,-32.67 133.95,-32.67 137.44,-32.38 133.69,-29.53 140.93,-32.09 140.93,-32.09"/>
<text text-anchor="start" x="104" y="-49.73" font-family="Lato" font-size="12.00">a</text>
<text text-anchor="start" x="100.5" y="-36.73" font-family="Lato" font-size="12.00" fill="#1f78b4">⓿</text>
</g>
<!-- 1&#45;&gt;0 -->
<g id="edge4" class="edge">
<title>1&#45;&gt;0</title>
<path fill="none" stroke="black" d="M145.93,-17.8C139.68,-12.22 131.57,-6.26 123,-3.33 109.96,1.11 105.04,1.11 92,-3.33 85.84,-5.43 79.92,-9.11 74.76,-13.08"/>
<polygon fill="black" stroke="black" points="69.07,-17.8 72.44,-10.91 71.77,-15.56 74.46,-13.33 74.46,-13.33 74.46,-13.33 71.77,-15.56 76.47,-15.75 69.07,-17.8 69.07,-17.8"/>
<text text-anchor="start" x="92" y="-19.73" font-family="Lato" font-size="12.00">!a &amp; b</text>
<text text-anchor="start" x="100.5" y="-6.73" font-family="Lato" font-size="12.00" fill="#1f78b4">⓿</text>
</g>
<!-- 1&#45;&gt;1 -->
<g id="edge5" class="edge">
<title>1&#45;&gt;1</title>
<path fill="none" stroke="black" d="M154.51,-48.12C153.74,-57.65 155.24,-66.33 159,-66.33 161.76,-66.33 163.3,-61.65 163.62,-55.39"/>
<polygon fill="black" stroke="black" points="163.49,-48.12 166.77,-55.06 163.56,-51.62 163.62,-55.11 163.62,-55.11 163.62,-55.11 163.56,-51.62 160.47,-55.17 163.49,-48.12 163.49,-48.12"/>
<text text-anchor="start" x="154" y="-69.73" font-family="Lato" font-size="12.00">!b</text>
</g>
<!-- 1&#45;&gt;1 -->
<g id="edge6" class="edge">
<title>1&#45;&gt;1</title>
<path fill="none" stroke="black" d="M151.82,-46.92C147.33,-64.5 149.72,-84.33 159,-84.33 167.05,-84.33 169.91,-69.42 167.6,-53.99"/>
<polygon fill="black" stroke="black" points="166.18,-46.92 170.65,-53.16 166.87,-50.35 167.56,-53.78 167.56,-53.78 167.56,-53.78 166.87,-50.35 164.47,-54.4 166.18,-46.92 166.18,-46.92"/>
<text text-anchor="start" x="145" y="-100.73" font-family="Lato" font-size="12.00">a &amp; b</text>
<text text-anchor="start" x="152" y="-87.73" font-family="Lato" font-size="12.00" fill="#1f78b4">⓿</text>
</g>
</g>
</svg>
