<?xml version="1.0" encoding="UTF-8" standalone="no"?>
<?xml-stylesheet href="spot.css" type="text/css"?>
<!DOCTYPE svg PUBLIC "-//W3C//DTD SVG 1.1//EN"
 "http://www.w3.org/Graphics/SVG/1.1/DTD/svg11.dtd">
<!-- Generated by graphviz version 2.43.0 (0)
 -->
<!-- Title: F((b R a) W Gb) Pages: 1 -->
<svg width="301pt" height="210pt"
 viewBox="0.00 0.00 301.00 210.36" xmlns="http://www.w3.org/2000/svg" xmlns:xlink="http://www.w3.org/1999/xlink">
<g id="graph0" class="graph" transform="scale(1 1) rotate(0) translate(4 206.36)">
<title>F((b R a) W Gb)</title>
<polygon fill="white" stroke="transparent" points="-4,4 -4,-206.36 297,-206.36 297,4 -4,4"/>
<text text-anchor="start" x="127.5" y="-188.76" font-family="Lato" font-size="12.00">[Büchi]</text>
<!-- I -->
<!-- 0 -->
<g id="node2" class="node">
<title>0</title>
<ellipse fill="#ffffa0" stroke="#e31a1c" stroke-width="2" cx="56" cy="-47.36" rx="18" ry="18"/>
<text text-anchor="middle" x="56" y="-44.26" font-family="Lato" font-size="12.00">0</text>
</g>
<!-- I&#45;&gt;0 -->
<g id="edge1" class="edge">
<title>I&#45;&gt;0</title>
<path fill="none" stroke="black" d="M1.15,-47.36C2.79,-47.36 17.15,-47.36 30.63,-47.36"/>
<polygon fill="black" stroke="black" points="37.94,-47.36 30.94,-50.51 34.44,-47.36 30.94,-47.36 30.94,-47.36 30.94,-47.36 34.44,-47.36 30.94,-44.21 37.94,-47.36 37.94,-47.36"/>
</g>
<!-- 0&#45;&gt;0 -->
<g id="edge2" class="edge">
<title>0&#45;&gt;0</title>
<path fill="none" stroke="#ff4da0" stroke-width="2" d="M49.62,-64.4C48.32,-74.22 50.45,-83.36 56,-83.36 60.17,-83.36 62.4,-78.22 62.71,-71.5"/>
<polygon fill="#ff4da0" stroke="#ff4da0" stroke-width="2" points="62.38,-64.4 65.85,-71.24 63.04,-67.87 63.21,-71.36 62.71,-71.39 62.21,-71.41 62.04,-67.91 59.56,-71.54 62.38,-64.4 62.38,-64.4"/>
<text text-anchor="start" x="52.5" y="-86.76" font-family="Lato" font-size="12.00">1</text>
</g>
<!-- 1 -->
<g id="node3" class="node">
<title>1</title>
<ellipse fill="#ffffa0" stroke="black" cx="271" cy="-128.36" rx="18" ry="18"/>
<ellipse fill="none" stroke="black" cx="271" cy="-128.36" rx="22" ry="22"/>
<text text-anchor="start" x="267.5" y="-125.26" font-family="Lato" font-size="12.00">1</text>
</g>
<!-- 0&#45;&gt;1 -->
<g id="edge3" class="edge">
<title>0&#45;&gt;1</title>
<path fill="none" stroke="#ff4da0" stroke-width="2" d="M69.15,-59.95C83.95,-74.45 110.41,-97.75 138,-109.36 171.7,-123.53 214.04,-127.45 241.55,-128.37"/>
<polygon fill="#ff4da0" stroke="#ff4da0" stroke-width="2" points="248.55,-128.55 241.47,-131.52 245.04,-128.96 241.54,-128.87 241.55,-128.37 241.56,-127.87 245.06,-127.96 241.63,-125.22 248.55,-128.55 248.55,-128.55"/>
<text text-anchor="start" x="144.5" y="-124.76" font-family="Lato" font-size="12.00">!a &amp; b</text>
</g>
<!-- 2 -->
<g id="node4" class="node">
<title>2</title>
<ellipse fill="#ffffa0" stroke="black" cx="160" cy="-47.36" rx="18" ry="18"/>
<ellipse fill="none" stroke="black" cx="160" cy="-47.36" rx="22" ry="22"/>
<text text-anchor="middle" x="160" y="-44.26" font-family="Lato" font-size="12.00">2</text>
</g>
<!-- 0&#45;&gt;2 -->
<g id="edge4" class="edge">
<title>0&#45;&gt;2</title>
<path fill="none" stroke="#ff4da0" stroke-width="2" d="M74.3,-47.36C89.62,-47.36 112.28,-47.36 130.31,-47.36"/>
<polygon fill="#ff4da0" stroke="#ff4da0" stroke-width="2" points="137.71,-47.36 130.71,-50.51 134.21,-47.86 130.71,-47.86 130.71,-47.36 130.71,-46.86 134.21,-46.86 130.71,-44.21 137.71,-47.36 137.71,-47.36"/>
<text text-anchor="start" x="92" y="-50.76" font-family="Lato" font-size="12.00">a &amp; b</text>
</g>
<!-- 3 -->
<g id="node5" class="node">
<title>3</title>
<ellipse fill="#ffffa0" stroke="black" cx="271" cy="-27.36" rx="18" ry="18"/>
<ellipse fill="none" stroke="black" cx="271" cy="-27.36" rx="22" ry="22"/>
<text text-anchor="middle" x="271" y="-24.26" font-family="Lato" font-size="12.00">3</text>
</g>
<!-- 0&#45;&gt;3 -->
<g id="edge5" class="edge">
<title>0&#45;&gt;3</title>
<path fill="none" stroke="#ff4da0" stroke-width="2" d="M71.01,-36.9C86.47,-26.06 112.56,-9.82 138,-3.36 174.27,5.86 217,-5.94 243.8,-16.01"/>
<polygon fill="#ff4da0" stroke="#ff4da0" stroke-width="2" points="250.58,-18.66 242.92,-19.05 247.14,-17.85 243.88,-16.58 244.06,-16.12 244.24,-15.65 247.5,-16.92 245.2,-13.18 250.58,-18.66 250.58,-18.66"/>
<text text-anchor="start" x="144.5" y="-6.76" font-family="Lato" font-size="12.00">a &amp; !b</text>
</g>
<!-- 1&#45;&gt;1 -->
<g id="edge6" class="edge">
<title>1&#45;&gt;1</title>
<path fill="none" stroke="black" d="M261.29,-148.12C259.64,-158.71 262.88,-168.36 271,-168.36 277.22,-168.36 280.57,-162.7 281.06,-155.3"/>
<polygon fill="black" stroke="black" points="280.71,-148.12 284.2,-154.95 280.88,-151.61 281.05,-155.11 281.05,-155.11 281.05,-155.11 280.88,-151.61 277.91,-155.26 280.71,-148.12 280.71,-148.12"/>
<text text-anchor="start" x="267.5" y="-171.76" font-family="Lato" font-size="12.00">b</text>
</g>
<!-- 2&#45;&gt;1 -->
<g id="edge7" class="edge">
<title>2&#45;&gt;1</title>
<path fill="none" stroke="black" d="M178.03,-60.01C196.56,-73.78 226.29,-95.87 246.91,-111.2"/>
<polygon fill="black" stroke="black" points="252.73,-115.52 245.23,-113.88 249.92,-113.44 247.11,-111.35 247.11,-111.35 247.11,-111.35 249.92,-113.44 248.99,-108.82 252.73,-115.52 252.73,-115.52"/>
<text text-anchor="start" x="200" y="-100.76" font-family="Lato" font-size="12.00">!a &amp; b</text>
</g>
<!-- 2&#45;&gt;2 -->
<g id="edge8" class="edge">
<title>2&#45;&gt;2</title>
<path fill="none" stroke="black" d="M150.29,-67.12C148.64,-77.71 151.88,-87.36 160,-87.36 166.22,-87.36 169.57,-81.7 170.06,-74.3"/>
<polygon fill="black" stroke="black" points="169.71,-67.12 173.2,-73.95 169.88,-70.61 170.05,-74.11 170.05,-74.11 170.05,-74.11 169.88,-70.61 166.91,-74.26 169.71,-67.12 169.71,-67.12"/>
<text text-anchor="start" x="146" y="-90.76" font-family="Lato" font-size="12.00">a &amp; b</text>
</g>
<!-- 2&#45;&gt;3 -->
<g id="edge9" class="edge">
<title>2&#45;&gt;3</title>
<path fill="none" stroke="black" d="M182.04,-46.97C196.05,-46.37 214.79,-44.9 231,-41.36 235.14,-40.45 239.44,-39.22 243.61,-37.86"/>
<polygon fill="black" stroke="black" points="250.45,-35.49 244.87,-40.76 247.14,-36.64 243.84,-37.79 243.84,-37.79 243.84,-37.79 247.14,-36.64 242.81,-34.81 250.45,-35.49 250.45,-35.49"/>
<text text-anchor="start" x="200" y="-48.76" font-family="Lato" font-size="12.00">a &amp; !b</text>
</g>
<!-- 3&#45;&gt;2 -->
<g id="edge10" class="edge">
<title>3&#45;&gt;2</title>
<path fill="none" stroke="black" d="M249.11,-23.17C234.99,-21.14 216.08,-19.97 200,-24.36 194.79,-25.78 189.56,-28.1 184.7,-30.73"/>
<polygon fill="black" stroke="black" points="178.35,-34.45 182.8,-28.19 181.37,-32.68 184.39,-30.91 184.39,-30.91 184.39,-30.91 181.37,-32.68 185.98,-33.63 178.35,-34.45 178.35,-34.45"/>
<text text-anchor="start" x="201.5" y="-27.76" font-family="Lato" font-size="12.00">a &amp; b</text>
</g>
<!-- 3&#45;&gt;3 -->
<g id="edge11" class="edge">
<title>3&#45;&gt;3</title>
<path fill="none" stroke="black" d="M261.29,-47.12C259.64,-57.71 262.88,-67.36 271,-67.36 277.22,-67.36 280.57,-61.7 281.06,-54.3"/>
<polygon fill="black" stroke="black" points="280.71,-47.12 284.2,-53.95 280.88,-50.61 281.05,-54.11 281.05,-54.11 281.05,-54.11 280.88,-50.61 277.91,-54.26 280.71,-47.12 280.71,-47.12"/>
<text text-anchor="start" x="255.5" y="-70.76" font-family="Lato" font-size="12.00">a &amp; !b</text>
</g>
</g>
</svg>
