<?xml version="1.0" encoding="UTF-8" standalone="no"?>
<?xml-stylesheet href="spot.css" type="text/css"?>
<!DOCTYPE svg PUBLIC "-//W3C//DTD SVG 1.1//EN"
 "http://www.w3.org/Graphics/SVG/1.1/DTD/svg11.dtd">
<!-- Generated by graphviz version 2.43.0 (0)
 -->
<!-- Title: a U (b U c) Pages: 1 -->
<svg width="295pt" height="143pt"
 viewBox="0.00 0.00 295.00 143.00" xmlns="http://www.w3.org/2000/svg" xmlns:xlink="http://www.w3.org/1999/xlink">
<g id="graph0" class="graph" transform="scale(1 1) rotate(0) translate(4 139)">
<title>a U (b U c)</title>
<polygon fill="white" stroke="transparent" points="-4,4 -4,-139 291,-139 291,4 -4,4"/>
<text text-anchor="start" x="124.5" y="-121.4" font-family="Lato" font-size="12.00">[Büchi]</text>
<!-- I -->
<!-- 2 -->
<g id="node2" class="node">
<title>2</title>
<ellipse fill="#ffffa0" stroke="black" cx="56" cy="-61" rx="18" ry="18"/>
<text text-anchor="middle" x="56" y="-57.9" font-family="Lato" font-size="12.00">2</text>
</g>
<!-- I&#45;&gt;2 -->
<g id="edge1" class="edge">
<title>I&#45;&gt;2</title>
<path fill="none" stroke="black" d="M1.15,-61C2.79,-61 17.15,-61 30.63,-61"/>
<polygon fill="black" stroke="black" points="37.94,-61 30.94,-64.15 34.44,-61 30.94,-61 30.94,-61 30.94,-61 34.44,-61 30.94,-57.85 37.94,-61 37.94,-61"/>
</g>
<!-- 2&#45;&gt;2 -->
<g id="edge7" class="edge">
<title>2&#45;&gt;2</title>
<path fill="none" stroke="#e31a1c" stroke-width="2" d="M49.62,-78.04C48.32,-87.86 50.45,-97 56,-97 60.17,-97 62.4,-91.86 62.71,-85.14"/>
<polygon fill="#e31a1c" stroke="#e31a1c" stroke-width="2" points="62.38,-78.04 65.85,-84.88 63.04,-81.51 63.21,-85.01 62.71,-85.03 62.21,-85.05 62.04,-81.56 59.56,-85.18 62.38,-78.04 62.38,-78.04"/>
<text text-anchor="start" x="41" y="-100.4" font-family="Lato" font-size="12.00">a &amp; !c</text>
</g>
<!-- 0 -->
<g id="node3" class="node">
<title>0</title>
<ellipse fill="#ffffa0" stroke="black" cx="265" cy="-61" rx="18" ry="18"/>
<ellipse fill="none" stroke="black" cx="265" cy="-61" rx="22" ry="22"/>
<text text-anchor="middle" x="265" y="-57.9" font-family="Lato" font-size="12.00">0</text>
</g>
<!-- 2&#45;&gt;0 -->
<g id="edge5" class="edge">
<title>2&#45;&gt;0</title>
<path fill="none" stroke="#e31a1c" stroke-width="2" d="M73.74,-65.14C100.46,-71.22 154.37,-81.28 200,-76 212.18,-74.59 225.41,-71.72 236.67,-68.87"/>
<polygon fill="#e31a1c" stroke="#e31a1c" stroke-width="2" points="243.75,-67.01 237.78,-71.83 240.49,-68.38 237.1,-69.27 236.98,-68.79 236.85,-68.3 240.23,-67.41 236.18,-65.74 243.75,-67.01 243.75,-67.01"/>
<text text-anchor="start" x="178.5" y="-80.4" font-family="Lato" font-size="12.00">c</text>
</g>
<!-- 1 -->
<g id="node4" class="node">
<title>1</title>
<ellipse fill="#ffffa0" stroke="black" cx="182" cy="-18" rx="18" ry="18"/>
<text text-anchor="start" x="178.5" y="-14.9" font-family="Lato" font-size="12.00">1</text>
</g>
<!-- 2&#45;&gt;1 -->
<g id="edge6" class="edge">
<title>2&#45;&gt;1</title>
<path fill="none" stroke="#33a02c" stroke-width="2" d="M73.21,-55.38C94.84,-47.88 133.27,-34.55 157.92,-26"/>
<polygon fill="#33a02c" stroke="#33a02c" stroke-width="2" points="164.79,-23.62 159.2,-28.89 161.64,-25.24 158.34,-26.39 158.17,-25.92 158.01,-25.44 161.31,-24.3 157.14,-22.94 164.79,-23.62 164.79,-23.62"/>
<text text-anchor="start" x="92" y="-51.4" font-family="Lato" font-size="12.00">!a &amp; b &amp; !c</text>
</g>
<!-- 0&#45;&gt;0 -->
<g id="edge2" class="edge">
<title>0&#45;&gt;0</title>
<path fill="none" stroke="#33a02c" stroke-width="2" d="M257.32,-81.99C256.37,-92.09 258.93,-101 265,-101 269.55,-101 272.13,-95.99 272.74,-89.22"/>
<polygon fill="#33a02c" stroke="#33a02c" stroke-width="2" points="272.68,-81.99 275.88,-88.97 273.21,-85.49 273.23,-88.99 272.73,-88.99 272.23,-88.99 272.21,-85.49 269.58,-89.01 272.68,-81.99 272.68,-81.99"/>
<text text-anchor="start" x="261.5" y="-104.4" font-family="Lato" font-size="12.00">1</text>
</g>
<!-- 1&#45;&gt;0 -->
<g id="edge3" class="edge">
<title>1&#45;&gt;0</title>
<path fill="none" stroke="#33a02c" stroke-width="2" d="M198.24,-26.09C209.66,-32.15 225.54,-40.58 238.84,-47.64"/>
<polygon fill="#33a02c" stroke="#33a02c" stroke-width="2" points="245.13,-50.98 237.47,-50.48 241.8,-49.78 238.71,-48.14 238.94,-47.7 239.18,-47.26 242.27,-48.9 240.42,-44.92 245.13,-50.98 245.13,-50.98"/>
<text text-anchor="start" x="218" y="-42.4" font-family="Lato" font-size="12.00">c</text>
</g>
<!-- 1&#45;&gt;1 -->
<g id="edge4" class="edge">
<title>1&#45;&gt;1</title>
<path fill="none" stroke="black" d="M175.27,-35.04C173.89,-44.86 176.14,-54 182,-54 186.4,-54 188.76,-48.86 189.09,-42.14"/>
<polygon fill="black" stroke="black" points="188.73,-35.04 192.23,-41.87 188.91,-38.53 189.08,-42.03 189.08,-42.03 189.08,-42.03 188.91,-38.53 185.93,-42.18 188.73,-35.04 188.73,-35.04"/>
<text text-anchor="start" x="166.5" y="-57.4" font-family="Lato" font-size="12.00">b &amp; !c</text>
</g>
</g>
</svg>
