<?xml version="1.0" encoding="UTF-8" standalone="no"?>
<?xml-stylesheet href="spot.css" type="text/css"?>
<!DOCTYPE svg PUBLIC "-//W3C//DTD SVG 1.1//EN"
 "http://www.w3.org/Graphics/SVG/1.1/DTD/svg11.dtd">
<!-- Generated by graphviz version 2.43.0 (0)
 -->
<!-- Pages: 1 -->
<svg width="243pt" height="157pt"
 viewBox="0.00 0.00 243.00 156.63" xmlns="http://www.w3.org/2000/svg" xmlns:xlink="http://www.w3.org/1999/xlink">
<g id="graph0" class="graph" transform="scale(1 1) rotate(0) translate(4 152.63)">
<polygon fill="white" stroke="transparent" points="-4,4 -4,-152.63 239,-152.63 239,4 -4,4"/>
<text text-anchor="start" x="49" y="-136.03" font-family="Lato" font-size="12.00">Inf(</text>
<text text-anchor="start" x="67" y="-136.03" font-family="Lato" font-size="12.00" fill="#ff7f00">❷</text>
<text text-anchor="start" x="81" y="-136.03" font-family="Lato" font-size="12.00">) | (Fin(</text>
<text text-anchor="start" x="116" y="-136.03" font-family="Lato" font-size="12.00" fill="#ff4da0">❶</text>
<text text-anchor="start" x="130" y="-136.03" font-family="Lato" font-size="12.00">) &amp; Inf(</text>
<text text-anchor="start" x="165" y="-136.03" font-family="Lato" font-size="12.00" fill="#1f78b4">⓿</text>
<text text-anchor="start" x="179" y="-136.03" font-family="Lato" font-size="12.00">))</text>
<text text-anchor="start" x="67.5" y="-124.03" font-family="Lato" font-size="12.00">[parity max even 3]</text>
<!-- I -->
<!-- 0 -->
<g id="node2" class="node">
<title>0</title>
<path fill="#ffffa0" stroke="black" d="M62,-36.63C62,-36.63 50,-36.63 50,-36.63 44,-36.63 38,-30.63 38,-24.63 38,-24.63 38,-12.63 38,-12.63 38,-6.63 44,-0.63 50,-0.63 50,-0.63 62,-0.63 62,-0.63 68,-0.63 74,-6.63 74,-12.63 74,-12.63 74,-24.63 74,-24.63 74,-30.63 68,-36.63 62,-36.63"/>
<text text-anchor="start" x="52.5" y="-22.03" font-family="Lato" font-size="12.00">0</text>
<text text-anchor="start" x="49" y="-9.03" font-family="Lato" font-size="12.00" fill="#ff7f00">❷</text>
</g>
<!-- I&#45;&gt;0 -->
<g id="edge1" class="edge">
<title>I&#45;&gt;0</title>
<path fill="none" stroke="black" d="M1.15,-18.63C2.79,-18.63 17.15,-18.63 30.63,-18.63"/>
<polygon fill="black" stroke="black" points="37.94,-18.63 30.94,-21.78 34.44,-18.63 30.94,-18.63 30.94,-18.63 30.94,-18.63 34.44,-18.63 30.94,-15.48 37.94,-18.63 37.94,-18.63"/>
</g>
<!-- 1 -->
<g id="node3" class="node">
<title>1</title>
<path fill="#ffffa0" stroke="black" d="M144,-85.63C144,-85.63 132,-85.63 132,-85.63 126,-85.63 120,-79.63 120,-73.63 120,-73.63 120,-61.63 120,-61.63 120,-55.63 126,-49.63 132,-49.63 132,-49.63 144,-49.63 144,-49.63 150,-49.63 156,-55.63 156,-61.63 156,-61.63 156,-73.63 156,-73.63 156,-79.63 150,-85.63 144,-85.63"/>
<text text-anchor="start" x="134.5" y="-71.03" font-family="Lato" font-size="12.00">1</text>
<text text-anchor="start" x="131" y="-58.03" font-family="Lato" font-size="12.00" fill="#ff4da0">❶</text>
</g>
<!-- 0&#45;&gt;1 -->
<g id="edge2" class="edge">
<title>0&#45;&gt;1</title>
<path fill="none" stroke="black" d="M74.36,-29.26C85.86,-36.31 101.1,-45.63 113.66,-53.33"/>
<polygon fill="black" stroke="black" points="119.95,-57.18 112.34,-56.21 116.97,-55.36 113.98,-53.53 113.98,-53.53 113.98,-53.53 116.97,-55.36 115.63,-50.84 119.95,-57.18 119.95,-57.18"/>
<text text-anchor="start" x="92" y="-49.03" font-family="Lato" font-size="12.00">!b</text>
</g>
<!-- 2 -->
<g id="node4" class="node">
<title>2</title>
<path fill="#ffffa0" stroke="black" d="M223,-36.63C223,-36.63 211,-36.63 211,-36.63 205,-36.63 199,-30.63 199,-24.63 199,-24.63 199,-12.63 199,-12.63 199,-6.63 205,-0.63 211,-0.63 211,-0.63 223,-0.63 223,-0.63 229,-0.63 235,-6.63 235,-12.63 235,-12.63 235,-24.63 235,-24.63 235,-30.63 229,-36.63 223,-36.63"/>
<text text-anchor="start" x="213.5" y="-22.03" font-family="Lato" font-size="12.00">2</text>
<text text-anchor="start" x="210" y="-9.03" font-family="Lato" font-size="12.00" fill="#ff4da0">❶</text>
</g>
<!-- 0&#45;&gt;2 -->
<g id="edge3" class="edge">
<title>0&#45;&gt;2</title>
<path fill="none" stroke="black" d="M74.02,-18.63C102.2,-18.63 158.69,-18.63 191.27,-18.63"/>
<polygon fill="black" stroke="black" points="198.62,-18.63 191.62,-21.78 195.12,-18.63 191.62,-18.63 191.62,-18.63 191.62,-18.63 195.12,-18.63 191.62,-15.48 198.62,-18.63 198.62,-18.63"/>
<text text-anchor="start" x="134.5" y="-22.03" font-family="Lato" font-size="12.00">b</text>
</g>
<!-- 1&#45;&gt;1 -->
<g id="edge4" class="edge">
<title>1&#45;&gt;1</title>
<path fill="none" stroke="black" d="M131.13,-85.78C130.07,-95.17 132.36,-103.63 138,-103.63 142.14,-103.63 144.48,-99.06 145.01,-92.92"/>
<polygon fill="black" stroke="black" points="144.87,-85.78 148.16,-92.72 144.94,-89.28 145.01,-92.78 145.01,-92.78 145.01,-92.78 144.94,-89.28 141.86,-92.84 144.87,-85.78 144.87,-85.78"/>
<text text-anchor="start" x="133" y="-107.03" font-family="Lato" font-size="12.00">!b</text>
</g>
<!-- 1&#45;&gt;2 -->
<g id="edge5" class="edge">
<title>1&#45;&gt;2</title>
<path fill="none" stroke="black" d="M156.09,-56.75C166.95,-49.84 181.16,-40.8 193.01,-33.26"/>
<polygon fill="black" stroke="black" points="198.96,-29.47 194.74,-35.89 196.01,-31.35 193.05,-33.23 193.05,-33.23 193.05,-33.23 196.01,-31.35 191.36,-30.57 198.96,-29.47 198.96,-29.47"/>
<text text-anchor="start" x="174" y="-47.03" font-family="Lato" font-size="12.00">b</text>
</g>
<!-- 2&#45;&gt;0 -->
<g id="edge6" class="edge">
<title>2&#45;&gt;0</title>
<path fill="none" stroke="black" d="M198.94,-12.43C187.08,-8.46 170.8,-3.68 156,-1.63 140.15,0.58 135.86,0.48 120,-1.63 106.89,-3.36 92.63,-7.05 81,-10.55"/>
<polygon fill="black" stroke="black" points="74.13,-12.69 79.88,-7.6 77.47,-11.65 80.82,-10.61 80.82,-10.61 80.82,-10.61 77.47,-11.65 81.75,-13.62 74.13,-12.69 74.13,-12.69"/>
<text text-anchor="start" x="134.5" y="-5.03" font-family="Lato" font-size="12.00">a</text>
</g>
<!-- 2&#45;&gt;2 -->
<g id="edge7" class="edge">
<title>2&#45;&gt;2</title>
<path fill="none" stroke="black" d="M210.13,-36.78C209.07,-46.17 211.36,-54.63 217,-54.63 221.14,-54.63 223.48,-50.06 224.01,-43.92"/>
<polygon fill="black" stroke="black" points="223.87,-36.78 227.16,-43.72 223.94,-40.28 224.01,-43.78 224.01,-43.78 224.01,-43.78 223.94,-40.28 220.86,-43.84 223.87,-36.78 223.87,-36.78"/>
<text text-anchor="start" x="212" y="-58.03" font-family="Lato" font-size="12.00">!a</text>
</g>
</g>
</svg>
