<?xml version="1.0" encoding="UTF-8" standalone="no"?>
<?xml-stylesheet href="spot.css" type="text/css"?>
<!DOCTYPE svg PUBLIC "-//W3C//DTD SVG 1.1//EN"
 "http://www.w3.org/Graphics/SVG/1.1/DTD/svg11.dtd">
<!-- Generated by graphviz version 2.43.0 (0)
 -->
<!-- Pages: 1 -->
<svg width="288pt" height="156pt"
 viewBox="0.00 0.00 288.00 156.00" xmlns="http://www.w3.org/2000/svg" xmlns:xlink="http://www.w3.org/1999/xlink">
<g id="graph0" class="graph" transform="scale(1 1) rotate(0) translate(4 152)">
<polygon fill="white" stroke="transparent" points="-4,4 -4,-152 284,-152 284,4 -4,4"/>
<text text-anchor="start" x="71.5" y="-135.4" font-family="Lato" font-size="12.00">Inf(</text>
<text text-anchor="start" x="89.5" y="-135.4" font-family="Lato" font-size="12.00" fill="#ff7f00">❷</text>
<text text-anchor="start" x="103.5" y="-135.4" font-family="Lato" font-size="12.00">) | (Fin(</text>
<text text-anchor="start" x="138.5" y="-135.4" font-family="Lato" font-size="12.00" fill="#ff4da0">❶</text>
<text text-anchor="start" x="152.5" y="-135.4" font-family="Lato" font-size="12.00">) &amp; Inf(</text>
<text text-anchor="start" x="187.5" y="-135.4" font-family="Lato" font-size="12.00" fill="#1f78b4">⓿</text>
<text text-anchor="start" x="201.5" y="-135.4" font-family="Lato" font-size="12.00">))</text>
<text text-anchor="start" x="90" y="-123.4" font-family="Lato" font-size="12.00">[parity max even 3]</text>
<!-- I -->
<!-- 0 -->
<g id="node2" class="node">
<title>0</title>
<path fill="#ffffa0" stroke="black" d="M62,-36C62,-36 50,-36 50,-36 44,-36 38,-30 38,-24 38,-24 38,-12 38,-12 38,-6 44,0 50,0 50,0 62,0 62,0 68,0 74,-6 74,-12 74,-12 74,-24 74,-24 74,-30 68,-36 62,-36"/>
<text text-anchor="middle" x="56" y="-14.9" font-family="Lato" font-size="12.00">0</text>
</g>
<!-- I&#45;&gt;0 -->
<g id="edge1" class="edge">
<title>I&#45;&gt;0</title>
<path fill="none" stroke="black" d="M1.15,-18C2.79,-18 17.15,-18 30.63,-18"/>
<polygon fill="black" stroke="black" points="37.94,-18 30.94,-21.15 34.44,-18 30.94,-18 30.94,-18 30.94,-18 34.44,-18 30.94,-14.85 37.94,-18 37.94,-18"/>
</g>
<!-- 0&#45;&gt;0 -->
<g id="edge2" class="edge">
<title>0&#45;&gt;0</title>
<path fill="none" stroke="black" d="M49.49,-36.15C48.49,-45.54 50.66,-54 56,-54 59.92,-54 62.14,-49.44 62.64,-43.3"/>
<polygon fill="black" stroke="black" points="62.51,-36.15 65.79,-43.1 62.57,-39.65 62.64,-43.15 62.64,-43.15 62.64,-43.15 62.57,-39.65 59.49,-43.21 62.51,-36.15 62.51,-36.15"/>
<text text-anchor="start" x="51" y="-57.4" font-family="Lato" font-size="12.00">!a</text>
</g>
<!-- 1 -->
<g id="node3" class="node">
<title>1</title>
<path fill="#ffffa0" stroke="black" d="M165,-85C165,-85 153,-85 153,-85 147,-85 141,-79 141,-73 141,-73 141,-61 141,-61 141,-55 147,-49 153,-49 153,-49 165,-49 165,-49 171,-49 177,-55 177,-61 177,-61 177,-73 177,-73 177,-79 171,-85 165,-85"/>
<text text-anchor="middle" x="159" y="-63.9" font-family="Lato" font-size="12.00">1</text>
</g>
<!-- 0&#45;&gt;1 -->
<g id="edge3" class="edge">
<title>0&#45;&gt;1</title>
<path fill="none" stroke="black" d="M74.13,-26.31C90.67,-34.34 115.86,-46.56 134.32,-55.51"/>
<polygon fill="black" stroke="black" points="140.78,-58.65 133.11,-58.43 137.63,-57.12 134.48,-55.59 134.48,-55.59 134.48,-55.59 137.63,-57.12 135.86,-52.76 140.78,-58.65 140.78,-58.65"/>
<text text-anchor="start" x="92" y="-52.4" font-family="Lato" font-size="12.00">a &amp; !b</text>
</g>
<!-- 2 -->
<g id="node4" class="node">
<title>2</title>
<path fill="#ffffa0" stroke="black" d="M268,-52C268,-52 256,-52 256,-52 250,-52 244,-46 244,-40 244,-40 244,-28 244,-28 244,-22 250,-16 256,-16 256,-16 268,-16 268,-16 274,-16 280,-22 280,-28 280,-28 280,-40 280,-40 280,-46 274,-52 268,-52"/>
<text text-anchor="start" x="258.5" y="-37.4" font-family="Lato" font-size="12.00">2</text>
<text text-anchor="start" x="255" y="-24.4" font-family="Lato" font-size="12.00" fill="#1f78b4">⓿</text>
</g>
<!-- 0&#45;&gt;2 -->
<g id="edge4" class="edge">
<title>0&#45;&gt;2</title>
<path fill="none" stroke="black" d="M74.09,-19.24C97.37,-20.93 140.35,-24.1 177,-27 197.11,-28.59 219.93,-30.5 236.7,-31.92"/>
<polygon fill="black" stroke="black" points="243.95,-32.54 236.71,-35.08 240.46,-32.24 236.98,-31.94 236.98,-31.94 236.98,-31.94 240.46,-32.24 237.24,-28.81 243.95,-32.54 243.95,-32.54"/>
<text text-anchor="start" x="145" y="-30.4" font-family="Lato" font-size="12.00">a &amp; b</text>
</g>
<!-- 1&#45;&gt;1 -->
<g id="edge5" class="edge">
<title>1&#45;&gt;1</title>
<path fill="none" stroke="black" d="M149.95,-85.15C148.56,-94.54 151.58,-103 159,-103 164.45,-103 167.52,-98.44 168.22,-92.3"/>
<polygon fill="black" stroke="black" points="168.05,-85.15 171.37,-92.07 168.13,-88.65 168.22,-92.15 168.22,-92.15 168.22,-92.15 168.13,-88.65 165.07,-92.23 168.05,-85.15 168.05,-85.15"/>
<text text-anchor="start" x="154" y="-106.4" font-family="Lato" font-size="12.00">!b</text>
</g>
<!-- 1&#45;&gt;2 -->
<g id="edge6" class="edge">
<title>1&#45;&gt;2</title>
<path fill="none" stroke="black" d="M177.19,-69.6C190.9,-70.95 210.34,-71.21 226,-65 230.88,-63.07 235.52,-60.13 239.74,-56.83"/>
<polygon fill="black" stroke="black" points="245.21,-52.15 241.94,-59.09 242.55,-54.43 239.89,-56.7 239.89,-56.7 239.89,-56.7 242.55,-54.43 237.84,-54.31 245.21,-52.15 245.21,-52.15"/>
<text text-anchor="start" x="207" y="-73.4" font-family="Lato" font-size="12.00">b</text>
</g>
<!-- 2&#45;&gt;0 -->
<g id="edge7" class="edge">
<title>2&#45;&gt;0</title>
<path fill="none" stroke="black" d="M243.98,-27.07C227.26,-20.67 200.85,-11.61 177,-8 144.03,-3.01 105.56,-8.12 81.24,-12.68"/>
<polygon fill="black" stroke="black" points="74.17,-14.07 80.44,-9.63 77.61,-13.4 81.04,-12.72 81.04,-12.72 81.04,-12.72 77.61,-13.4 81.65,-15.81 74.17,-14.07 74.17,-14.07"/>
<text text-anchor="start" x="146.5" y="-11.4" font-family="Lato" font-size="12.00">!a | b</text>
</g>
<!-- 2&#45;&gt;1 -->
<g id="edge8" class="edge">
<title>2&#45;&gt;1</title>
<path fill="none" stroke="black" d="M243.8,-36.26C230.26,-38.36 211.05,-42.08 195,-48 191.27,-49.38 187.45,-51.09 183.77,-52.93"/>
<polygon fill="black" stroke="black" points="177.34,-56.31 182.07,-50.26 180.44,-54.68 183.54,-53.05 183.54,-53.05 183.54,-53.05 180.44,-54.68 185,-55.84 177.34,-56.31 177.34,-56.31"/>
<text text-anchor="start" x="195" y="-51.4" font-family="Lato" font-size="12.00">a &amp; !b</text>
</g>
</g>
</svg>
