<?xml version="1.0" encoding="UTF-8" standalone="no"?>
<?xml-stylesheet href="spot.css" type="text/css"?>
<!DOCTYPE svg PUBLIC "-//W3C//DTD SVG 1.1//EN"
 "http://www.w3.org/Graphics/SVG/1.1/DTD/svg11.dtd">
<!-- Generated by graphviz version 2.43.0 (0)
 -->
<!-- Title: G((a &amp; Xb) | (!a &amp; X!b)) Pages: 1 -->
<svg width="280pt" height="137pt"
 viewBox="0.00 0.00 280.00 137.00" xmlns="http://www.w3.org/2000/svg" xmlns:xlink="http://www.w3.org/1999/xlink">
<g id="graph0" class="graph" transform="scale(1 1) rotate(0) translate(4 133)">
<title>G((a &amp; Xb) | (!a &amp; X!b))</title>
<polygon fill="white" stroke="transparent" points="-4,4 -4,-133 276,-133 276,4 -4,4"/>
<text text-anchor="start" x="117" y="-115.4" font-family="Lato" font-size="12.00">[Büchi]</text>
<!-- I -->
<!-- 0 -->
<g id="node2" class="node">
<title>0</title>
<ellipse fill="#ffffa0" stroke="black" cx="56" cy="-18" rx="18" ry="18"/>
<text text-anchor="middle" x="56" y="-14.9" font-family="Lato" font-size="12.00">0</text>
</g>
<!-- I&#45;&gt;0 -->
<g id="edge1" class="edge">
<title>I&#45;&gt;0</title>
<path fill="none" stroke="black" d="M1.15,-18C2.79,-18 17.15,-18 30.63,-18"/>
<polygon fill="black" stroke="black" points="37.94,-18 30.94,-21.15 34.44,-18 30.94,-18 30.94,-18 30.94,-18 34.44,-18 30.94,-14.85 37.94,-18 37.94,-18"/>
</g>
<!-- 1 -->
<g id="node3" class="node">
<title>1</title>
<ellipse fill="#ffffa0" stroke="black" cx="139" cy="-55" rx="18" ry="18"/>
<ellipse fill="none" stroke="black" cx="139" cy="-55" rx="22" ry="22"/>
<text text-anchor="middle" x="139" y="-51.9" font-family="Lato" font-size="12.00">1</text>
</g>
<!-- 0&#45;&gt;1 -->
<g id="edge2" class="edge">
<title>0&#45;&gt;1</title>
<path fill="none" stroke="black" d="M72.62,-25.13C83.81,-30.25 99.15,-37.25 112.16,-43.2"/>
<polygon fill="black" stroke="black" points="118.71,-46.19 111.04,-46.15 115.53,-44.74 112.35,-43.28 112.35,-43.28 112.35,-43.28 115.53,-44.74 113.66,-40.42 118.71,-46.19 118.71,-46.19"/>
<text text-anchor="start" x="92" y="-39.4" font-family="Lato" font-size="12.00">a</text>
</g>
<!-- 2 -->
<g id="node4" class="node">
<title>2</title>
<ellipse fill="#ffffa0" stroke="black" cx="250" cy="-35" rx="18" ry="18"/>
<ellipse fill="none" stroke="black" cx="250" cy="-35" rx="22" ry="22"/>
<text text-anchor="middle" x="250" y="-31.9" font-family="Lato" font-size="12.00">2</text>
</g>
<!-- 0&#45;&gt;2 -->
<g id="edge3" class="edge">
<title>0&#45;&gt;2</title>
<path fill="none" stroke="black" d="M74.02,-15.48C86.01,-13.84 102.45,-11.85 117,-11 136.52,-9.87 141.62,-8.4 161,-11 181.88,-13.8 204.81,-20.16 222.03,-25.64"/>
<polygon fill="black" stroke="black" points="229.04,-27.92 221.41,-28.75 225.71,-26.84 222.39,-25.75 222.39,-25.75 222.39,-25.75 225.71,-26.84 223.36,-22.76 229.04,-27.92 229.04,-27.92"/>
<text text-anchor="start" x="134" y="-14.4" font-family="Lato" font-size="12.00">!a</text>
</g>
<!-- 1&#45;&gt;1 -->
<g id="edge4" class="edge">
<title>1&#45;&gt;1</title>
<path fill="none" stroke="black" d="M131.32,-75.99C130.37,-86.09 132.93,-95 139,-95 143.55,-95 146.13,-89.99 146.74,-83.22"/>
<polygon fill="black" stroke="black" points="146.68,-75.99 149.88,-82.97 146.71,-79.49 146.73,-82.99 146.73,-82.99 146.73,-82.99 146.71,-79.49 143.58,-83.01 146.68,-75.99 146.68,-75.99"/>
<text text-anchor="start" x="125" y="-98.4" font-family="Lato" font-size="12.00">a &amp; b</text>
</g>
<!-- 1&#45;&gt;2 -->
<g id="edge5" class="edge">
<title>1&#45;&gt;2</title>
<path fill="none" stroke="black" d="M161.04,-54.61C175.05,-54.01 193.79,-52.54 210,-49 214.14,-48.1 218.44,-46.86 222.61,-45.51"/>
<polygon fill="black" stroke="black" points="229.45,-43.14 223.87,-48.41 226.14,-44.28 222.84,-45.43 222.84,-45.43 222.84,-45.43 226.14,-44.28 221.81,-42.45 229.45,-43.14 229.45,-43.14"/>
<text text-anchor="start" x="179" y="-56.4" font-family="Lato" font-size="12.00">!a &amp; b</text>
</g>
<!-- 2&#45;&gt;1 -->
<g id="edge6" class="edge">
<title>2&#45;&gt;1</title>
<path fill="none" stroke="black" d="M228.11,-30.81C213.99,-28.78 195.08,-27.61 179,-32 173.79,-33.42 168.56,-35.74 163.7,-38.37"/>
<polygon fill="black" stroke="black" points="157.35,-42.09 161.8,-35.84 160.37,-40.32 163.39,-38.55 163.39,-38.55 163.39,-38.55 160.37,-40.32 164.98,-41.27 157.35,-42.09 157.35,-42.09"/>
<text text-anchor="start" x="179" y="-35.4" font-family="Lato" font-size="12.00">a &amp; !b</text>
</g>
<!-- 2&#45;&gt;2 -->
<g id="edge7" class="edge">
<title>2&#45;&gt;2</title>
<path fill="none" stroke="black" d="M240.29,-54.76C238.64,-65.35 241.88,-75 250,-75 256.22,-75 259.57,-69.34 260.06,-61.94"/>
<polygon fill="black" stroke="black" points="259.71,-54.76 263.2,-61.59 259.88,-58.25 260.05,-61.75 260.05,-61.75 260.05,-61.75 259.88,-58.25 256.91,-61.9 259.71,-54.76 259.71,-54.76"/>
<text text-anchor="start" x="233" y="-78.4" font-family="Lato" font-size="12.00">!a &amp; !b</text>
</g>
</g>
</svg>
