<?xml version="1.0" encoding="UTF-8" standalone="no"?>
<?xml-stylesheet href="spot.css" type="text/css"?>
<!DOCTYPE svg PUBLIC "-//W3C//DTD SVG 1.1//EN"
 "http://www.w3.org/Graphics/SVG/1.1/DTD/svg11.dtd">
<!-- Generated by graphviz version 2.43.0 (0)
 -->
<!-- Title: G(a &amp; Fb) Pages: 1 -->
<svg width="193pt" height="104pt"
 viewBox="0.00 0.00 193.00 104.00" xmlns="http://www.w3.org/2000/svg" xmlns:xlink="http://www.w3.org/1999/xlink">
<g id="graph0" class="graph" transform="scale(1 1) rotate(0) translate(4 100)">
<title>G(a &amp; Fb)</title>
<polygon fill="white" stroke="transparent" points="-4,4 -4,-100 189,-100 189,4 -4,4"/>
<text text-anchor="start" x="73.5" y="-82.4" font-family="Lato" font-size="12.00">[Büchi]</text>
<!-- I -->
<!-- 0 -->
<g id="node2" class="node">
<title>0</title>
<ellipse fill="#ffffa0" stroke="black" cx="60" cy="-22" rx="18" ry="18"/>
<ellipse fill="none" stroke="black" cx="60" cy="-22" rx="22" ry="22"/>
<text text-anchor="middle" x="60" y="-18.9" font-family="Lato" font-size="12.00">0</text>
</g>
<!-- I&#45;&gt;0 -->
<g id="edge1" class="edge">
<title>I&#45;&gt;0</title>
<path fill="none" stroke="black" d="M1.17,-22C2.84,-22 16.88,-22 30.71,-22"/>
<polygon fill="black" stroke="black" points="37.86,-22 30.86,-25.15 34.36,-22 30.86,-22 30.86,-22 30.86,-22 34.36,-22 30.86,-18.85 37.86,-22 37.86,-22"/>
</g>
<!-- 0&#45;&gt;0 -->
<g id="edge2" class="edge">
<title>0&#45;&gt;0</title>
<path fill="none" stroke="black" d="M52.68,-42.99C51.78,-53.09 54.22,-62 60,-62 64.34,-62 66.79,-56.99 67.37,-50.22"/>
<polygon fill="black" stroke="black" points="67.32,-42.99 70.52,-49.97 67.34,-46.49 67.37,-49.99 67.37,-49.99 67.37,-49.99 67.34,-46.49 64.22,-50.01 67.32,-42.99 67.32,-42.99"/>
<text text-anchor="start" x="46" y="-65.4" font-family="Lato" font-size="12.00">a &amp; b</text>
</g>
<!-- 1 -->
<g id="node3" class="node">
<title>1</title>
<ellipse fill="#ffffa0" stroke="black" cx="167" cy="-22" rx="18" ry="18"/>
<text text-anchor="middle" x="167" y="-18.9" font-family="Lato" font-size="12.00">1</text>
</g>
<!-- 0&#45;&gt;1 -->
<g id="edge3" class="edge">
<title>0&#45;&gt;1</title>
<path fill="none" stroke="black" d="M82.25,-22C99.45,-22 123.68,-22 141.66,-22"/>
<polygon fill="black" stroke="black" points="148.94,-22 141.94,-25.15 145.44,-22 141.94,-22 141.94,-22 141.94,-22 145.44,-22 141.94,-18.85 148.94,-22 148.94,-22"/>
<text text-anchor="start" x="100" y="-25.4" font-family="Lato" font-size="12.00">a &amp; !b</text>
</g>
<!-- 1&#45;&gt;0 -->
<g id="edge4" class="edge">
<title>1&#45;&gt;0</title>
<path fill="none" stroke="black" d="M151.22,-12.98C145.18,-9.8 137.98,-6.61 131,-5 117.57,-1.91 113.49,-2.19 100,-5 95.54,-5.93 90.96,-7.4 86.59,-9.09"/>
<polygon fill="black" stroke="black" points="79.92,-11.9 85.15,-6.28 83.15,-10.54 86.37,-9.18 86.37,-9.18 86.37,-9.18 83.15,-10.54 87.6,-12.09 79.92,-11.9 79.92,-11.9"/>
<text text-anchor="start" x="101.5" y="-8.4" font-family="Lato" font-size="12.00">a &amp; b</text>
</g>
<!-- 1&#45;&gt;1 -->
<g id="edge5" class="edge">
<title>1&#45;&gt;1</title>
<path fill="none" stroke="black" d="M158.37,-37.92C156.11,-48.15 158.99,-58 167,-58 173.13,-58 176.25,-52.23 176.37,-44.93"/>
<polygon fill="black" stroke="black" points="175.63,-37.92 179.5,-44.55 176,-41.4 176.37,-44.88 176.37,-44.88 176.37,-44.88 176,-41.4 173.23,-45.21 175.63,-37.92 175.63,-37.92"/>
<text text-anchor="start" x="151.5" y="-61.4" font-family="Lato" font-size="12.00">a &amp; !b</text>
</g>
</g>
</svg>
