<?xml version="1.0" encoding="UTF-8" standalone="no"?>
<?xml-stylesheet href="spot.css" type="text/css"?>
<!DOCTYPE svg PUBLIC "-//W3C//DTD SVG 1.1//EN"
 "http://www.w3.org/Graphics/SVG/1.1/DTD/svg11.dtd">
<!-- Generated by graphviz version 2.43.0 (0)
 -->
<!-- Pages: 1 -->
<svg width="452pt" height="169pt"
 viewBox="0.00 0.00 451.60 168.80" xmlns="http://www.w3.org/2000/svg" xmlns:xlink="http://www.w3.org/1999/xlink">
<g id="graph0" class="graph" transform="scale(1 1) rotate(0) translate(4 164.8)">
<polygon fill="white" stroke="transparent" points="-4,4 -4,-164.8 447.6,-164.8 447.6,4 -4,4"/>
<text text-anchor="start" x="202.8" y="-148.2" font-family="Lato" font-size="12.00">Fin(</text>
<text text-anchor="start" x="222.8" y="-148.2" font-family="Lato" font-size="12.00" fill="#1f78b4">⓿</text>
<text text-anchor="start" x="236.8" y="-148.2" font-family="Lato" font-size="12.00">)</text>
<text text-anchor="start" x="194.8" y="-136.2" font-family="Lato" font-size="12.00">[co&#45;Büchi]</text>
<!-- I -->
<!-- 0 -->
<g id="node2" class="node">
<title>0</title>
<path fill="#ffffa0" stroke="black" d="M108,-72.8C108,-72.8 50,-72.8 50,-72.8 44,-72.8 38,-66.8 38,-60.8 38,-60.8 38,-48.8 38,-48.8 38,-42.8 44,-36.8 50,-36.8 50,-36.8 108,-36.8 108,-36.8 114,-36.8 120,-42.8 120,-48.8 120,-48.8 120,-60.8 120,-60.8 120,-66.8 114,-72.8 108,-72.8"/>
<text text-anchor="start" x="46" y="-51.7" font-family="Lato" font-size="12.00">GF(a &lt;&#45;&gt; Xb)</text>
</g>
<!-- I&#45;&gt;0 -->
<g id="edge1" class="edge">
<title>I&#45;&gt;0</title>
<path fill="none" stroke="black" d="M1.06,-54.8C2.02,-54.8 15.33,-54.8 30.61,-54.8"/>
<polygon fill="black" stroke="black" points="37.74,-54.8 30.74,-57.95 34.24,-54.8 30.74,-54.8 30.74,-54.8 30.74,-54.8 34.24,-54.8 30.74,-51.65 37.74,-54.8 37.74,-54.8"/>
</g>
<!-- &#45;1 -->
<g id="node3" class="node">
<title>&#45;1</title>
<ellipse fill="#ffffa0" stroke="black" cx="167.8" cy="-124.8" rx="1.8" ry="1.8"/>
</g>
<!-- 0&#45;&gt;&#45;1 -->
<g id="edge2" class="edge">
<title>0&#45;&gt;&#45;1</title>
<path fill="none" stroke="black" d="M96,-72.99C107,-84.77 122.4,-99.89 138,-110.8 144.61,-115.42 152.98,-119.3 158.99,-121.8"/>
<polygon fill="none" stroke="black" points="158.22,-124.13 165.63,-124.39 160,-119.56 158.22,-124.13"/>
<text text-anchor="start" x="138" y="-119.2" font-family="Lato" font-size="12.00">!a</text>
</g>
<!-- &#45;4 -->
<g id="node5" class="node">
<title>&#45;4</title>
<ellipse fill="#ffffa0" stroke="black" cx="167.8" cy="-1.8" rx="1.8" ry="1.8"/>
</g>
<!-- 0&#45;&gt;&#45;4 -->
<g id="edge5" class="edge">
<title>0&#45;&gt;&#45;4</title>
<path fill="none" stroke="black" d="M109.87,-36.56C127.83,-25.6 149.21,-12.54 159.94,-5.99"/>
<polygon fill="none" stroke="black" points="161.3,-8.03 165.99,-2.29 158.74,-3.85 161.3,-8.03"/>
<text text-anchor="start" x="139.5" y="-23.2" font-family="Lato" font-size="12.00">a</text>
</g>
<!-- &#45;7 -->
<g id="node7" class="node">
<title>&#45;7</title>
<ellipse fill="#ffffa0" stroke="black" cx="167.8" cy="-47.8" rx="1.8" ry="1.8"/>
</g>
<!-- 0&#45;&gt;&#45;7 -->
<g id="edge8" class="edge">
<title>0&#45;&gt;&#45;7</title>
<path fill="none" stroke="black" d="M120.29,-52.06C129.41,-51.37 139.04,-50.61 148,-49.8 151.51,-49.48 155.37,-49.08 158.69,-48.72"/>
<polygon fill="none" stroke="black" points="159.1,-51.14 165.78,-47.92 158.55,-46.27 159.1,-51.14"/>
<text text-anchor="start" x="139.5" y="-54.2" font-family="Lato" font-size="12.00">1</text>
</g>
<!-- &#45;1&#45;&gt;0 -->
<g id="edge3" class="edge">
<title>&#45;1&#45;&gt;0</title>
<path fill="none" stroke="black" d="M165.82,-124.01C160.13,-119.42 130.8,-95.77 107.99,-77.38"/>
<polygon fill="black" stroke="black" points="102.35,-72.83 109.78,-74.77 105.08,-75.02 107.8,-77.22 107.8,-77.22 107.8,-77.22 105.08,-75.02 105.82,-79.67 102.35,-72.83 102.35,-72.83"/>
</g>
<!-- 3 -->
<g id="node4" class="node">
<title>3</title>
<path fill="#ffffa0" stroke="black" d="M349.6,-107.8C349.6,-107.8 337.6,-107.8 337.6,-107.8 331.6,-107.8 325.6,-101.8 325.6,-95.8 325.6,-95.8 325.6,-83.8 325.6,-83.8 325.6,-77.8 331.6,-71.8 337.6,-71.8 337.6,-71.8 349.6,-71.8 349.6,-71.8 355.6,-71.8 361.6,-77.8 361.6,-83.8 361.6,-83.8 361.6,-95.8 361.6,-95.8 361.6,-101.8 355.6,-107.8 349.6,-107.8"/>
<text text-anchor="start" x="338.6" y="-86.7" font-family="Lato" font-size="12.00">!b</text>
</g>
<!-- &#45;1&#45;&gt;3 -->
<g id="edge4" class="edge">
<title>&#45;1&#45;&gt;3</title>
<path fill="none" stroke="black" d="M169.9,-124.65C178.4,-123.44 234.55,-115.37 279.6,-105.8 292.58,-103.04 306.93,-99.44 318.65,-96.36"/>
<polygon fill="black" stroke="black" points="325.57,-94.51 319.62,-99.36 322.19,-95.41 318.81,-96.31 318.81,-96.31 318.81,-96.31 322.19,-95.41 318,-93.27 325.57,-94.51 325.57,-94.51"/>
</g>
<!-- 4 -->
<g id="node9" class="node">
<title>4</title>
<path fill="#ffffa0" stroke="black" d="M431.6,-80.8C431.6,-80.8 419.6,-80.8 419.6,-80.8 413.6,-80.8 407.6,-74.8 407.6,-68.8 407.6,-68.8 407.6,-56.8 407.6,-56.8 407.6,-50.8 413.6,-44.8 419.6,-44.8 419.6,-44.8 431.6,-44.8 431.6,-44.8 437.6,-44.8 443.6,-50.8 443.6,-56.8 443.6,-56.8 443.6,-68.8 443.6,-68.8 443.6,-74.8 437.6,-80.8 431.6,-80.8"/>
<text text-anchor="middle" x="425.6" y="-59.7" font-family="Lato" font-size="12.00">t</text>
</g>
<!-- 3&#45;&gt;4 -->
<g id="edge15" class="edge">
<title>3&#45;&gt;4</title>
<path fill="none" stroke="black" d="M361.96,-83.94C373.36,-80.09 388.42,-75.01 400.91,-70.79"/>
<polygon fill="black" stroke="black" points="407.55,-68.55 401.92,-73.78 404.23,-69.67 400.92,-70.79 400.92,-70.79 400.92,-70.79 404.23,-69.67 399.91,-67.81 407.55,-68.55 407.55,-68.55"/>
<text text-anchor="start" x="379.6" y="-81.2" font-family="Lato" font-size="12.00">!b</text>
</g>
<!-- &#45;4&#45;&gt;0 -->
<g id="edge6" class="edge">
<title>&#45;4&#45;&gt;0</title>
<path fill="none" stroke="black" d="M165.65,-2.01C161.65,-2.77 148.06,-5.62 138,-10.8 126.73,-16.61 115.39,-24.62 105.76,-32.22"/>
<polygon fill="black" stroke="black" points="100.3,-36.62 103.77,-29.78 103.02,-34.43 105.75,-32.23 105.75,-32.23 105.75,-32.23 103.02,-34.43 107.73,-34.68 100.3,-36.62 100.3,-36.62"/>
</g>
<!-- 2 -->
<g id="node6" class="node">
<title>2</title>
<path fill="#ffffa0" stroke="black" d="M349.6,-53.8C349.6,-53.8 337.6,-53.8 337.6,-53.8 331.6,-53.8 325.6,-47.8 325.6,-41.8 325.6,-41.8 325.6,-29.8 325.6,-29.8 325.6,-23.8 331.6,-17.8 337.6,-17.8 337.6,-17.8 349.6,-17.8 349.6,-17.8 355.6,-17.8 361.6,-23.8 361.6,-29.8 361.6,-29.8 361.6,-41.8 361.6,-41.8 361.6,-47.8 355.6,-53.8 349.6,-53.8"/>
<text text-anchor="start" x="340.1" y="-32.7" font-family="Lato" font-size="12.00">b</text>
</g>
<!-- &#45;4&#45;&gt;2 -->
<g id="edge7" class="edge">
<title>&#45;4&#45;&gt;2</title>
<path fill="none" stroke="black" d="M169.9,-1.96C178.39,-3.21 234.47,-11.57 279.6,-20.8 292.55,-23.45 306.9,-26.83 318.63,-29.71"/>
<polygon fill="black" stroke="black" points="325.55,-31.43 318,-32.8 322.16,-30.59 318.76,-29.74 318.76,-29.74 318.76,-29.74 322.16,-30.59 319.52,-26.69 325.55,-31.43 325.55,-31.43"/>
</g>
<!-- 2&#45;&gt;4 -->
<g id="edge14" class="edge">
<title>2&#45;&gt;4</title>
<path fill="none" stroke="black" d="M361.77,-40.9C370.19,-43.47 380.46,-46.68 389.6,-49.8 393.28,-51.06 397.16,-52.44 400.94,-53.81"/>
<polygon fill="black" stroke="black" points="407.58,-56.27 399.92,-56.8 404.29,-55.05 401.01,-53.84 401.01,-53.84 401.01,-53.84 404.29,-55.05 402.1,-50.89 407.58,-56.27 407.58,-56.27"/>
<text text-anchor="start" x="381.1" y="-53.2" font-family="Lato" font-size="12.00">b</text>
</g>
<!-- &#45;7&#45;&gt;0 -->
<g id="edge9" class="edge">
<title>&#45;7&#45;&gt;0</title>
<path fill="none" stroke="black" d="M165.73,-47.89C161.4,-48.24 144.66,-49.59 127.1,-51"/>
<polygon fill="black" stroke="black" points="120.1,-51.57 126.82,-47.86 123.59,-51.28 127.07,-51 127.07,-51 127.07,-51 123.59,-51.28 127.33,-54.14 120.1,-51.57 120.1,-51.57"/>
</g>
<!-- 1 -->
<g id="node8" class="node">
<title>1</title>
<path fill="#ffffa0" stroke="black" d="M267.6,-65.8C267.6,-65.8 218.6,-65.8 218.6,-65.8 212.6,-65.8 206.6,-59.8 206.6,-53.8 206.6,-53.8 206.6,-41.8 206.6,-41.8 206.6,-35.8 212.6,-29.8 218.6,-29.8 218.6,-29.8 267.6,-29.8 267.6,-29.8 273.6,-29.8 279.6,-35.8 279.6,-41.8 279.6,-41.8 279.6,-53.8 279.6,-53.8 279.6,-59.8 273.6,-65.8 267.6,-65.8"/>
<text text-anchor="start" x="214.6" y="-51.2" font-family="Lato" font-size="12.00">F(a &lt;&#45;&gt; Xb)</text>
<text text-anchor="start" x="236.1" y="-38.2" font-family="Lato" font-size="12.00" fill="#1f78b4">⓿</text>
</g>
<!-- &#45;7&#45;&gt;1 -->
<g id="edge10" class="edge">
<title>&#45;7&#45;&gt;1</title>
<path fill="none" stroke="black" d="M169.62,-47.8C172.89,-47.8 185.44,-47.8 199.21,-47.8"/>
<polygon fill="black" stroke="black" points="206.47,-47.8 199.47,-50.95 202.97,-47.8 199.47,-47.8 199.47,-47.8 199.47,-47.8 202.97,-47.8 199.47,-44.65 206.47,-47.8 206.47,-47.8"/>
</g>
<!-- 1&#45;&gt;3 -->
<g id="edge11" class="edge">
<title>1&#45;&gt;3</title>
<path fill="none" stroke="black" d="M279.66,-62.96C292.74,-68.54 307.23,-74.72 319,-79.74"/>
<polygon fill="black" stroke="black" points="325.58,-82.54 317.91,-82.7 322.36,-81.17 319.14,-79.8 319.14,-79.8 319.14,-79.8 322.36,-81.17 320.38,-76.9 325.58,-82.54 325.58,-82.54"/>
<text text-anchor="start" x="297.6" y="-77.2" font-family="Lato" font-size="12.00">!a</text>
</g>
<!-- 1&#45;&gt;2 -->
<g id="edge12" class="edge">
<title>1&#45;&gt;2</title>
<path fill="none" stroke="black" d="M279.66,-43.47C292.5,-41.9 306.68,-40.18 318.33,-38.76"/>
<polygon fill="black" stroke="black" points="325.58,-37.87 319.02,-41.85 322.11,-38.3 318.63,-38.72 318.63,-38.72 318.63,-38.72 322.11,-38.3 318.25,-35.59 325.58,-37.87 325.58,-37.87"/>
<text text-anchor="start" x="299.1" y="-45.2" font-family="Lato" font-size="12.00">a</text>
</g>
<!-- 1&#45;&gt;1 -->
<g id="edge13" class="edge">
<title>1&#45;&gt;1</title>
<path fill="none" stroke="black" d="M233.33,-65.95C231.83,-75.34 235.08,-83.8 243.1,-83.8 248.99,-83.8 252.31,-79.24 253.06,-73.1"/>
<polygon fill="black" stroke="black" points="252.87,-65.95 256.2,-72.87 252.96,-69.45 253.06,-72.95 253.06,-72.95 253.06,-72.95 252.96,-69.45 249.91,-73.03 252.87,-65.95 252.87,-65.95"/>
<text text-anchor="start" x="239.6" y="-87.2" font-family="Lato" font-size="12.00">1</text>
</g>
<!-- 4&#45;&gt;4 -->
<g id="edge16" class="edge">
<title>4&#45;&gt;4</title>
<path fill="none" stroke="black" d="M418.36,-80.95C417.25,-90.34 419.66,-98.8 425.6,-98.8 429.96,-98.8 432.42,-94.24 432.98,-88.1"/>
<polygon fill="black" stroke="black" points="432.84,-80.95 436.12,-87.89 432.91,-84.45 432.97,-87.95 432.97,-87.95 432.97,-87.95 432.91,-84.45 429.83,-88.01 432.84,-80.95 432.84,-80.95"/>
<text text-anchor="start" x="422.1" y="-102.2" font-family="Lato" font-size="12.00">1</text>
</g>
</g>
</svg>
