<?xml version="1.0" encoding="UTF-8" standalone="no"?>
<?xml-stylesheet href="spot.css" type="text/css"?>
<!DOCTYPE svg PUBLIC "-//W3C//DTD SVG 1.1//EN"
 "http://www.w3.org/Graphics/SVG/1.1/DTD/svg11.dtd">
<!-- Generated by graphviz version 2.43.0 (0)
 -->
<!-- Pages: 1 -->
<svg width="161pt" height="107pt"
 viewBox="0.00 0.00 161.00 107.00" xmlns="http://www.w3.org/2000/svg" xmlns:xlink="http://www.w3.org/1999/xlink">
<g id="graph0" class="graph" transform="scale(1 1) rotate(0) translate(4 103)">
<polygon fill="white" stroke="transparent" points="-4,4 -4,-103 157,-103 157,4 -4,4"/>
<text text-anchor="start" x="37" y="-86.4" font-family="Lato" font-size="12.00">Inf(</text>
<text text-anchor="start" x="55" y="-86.4" font-family="Lato" font-size="12.00" fill="#1f78b4">⓿</text>
<text text-anchor="start" x="69" y="-86.4" font-family="Lato" font-size="12.00">)&amp;Inf(</text>
<text text-anchor="start" x="98" y="-86.4" font-family="Lato" font-size="12.00" fill="#ff4da0">❶</text>
<text text-anchor="start" x="112" y="-86.4" font-family="Lato" font-size="12.00">)</text>
<text text-anchor="start" x="40" y="-74.4" font-family="Lato" font-size="12.00">[gen. Büchi 2]</text>
<!-- I -->
<!-- 0 -->
<g id="node2" class="node">
<title>0</title>
<path fill="#ffffa0" stroke="black" d="M62,-36C62,-36 50,-36 50,-36 44,-36 38,-30 38,-24 38,-24 38,-12 38,-12 38,-6 44,0 50,0 50,0 62,0 62,0 68,0 74,-6 74,-12 74,-12 74,-24 74,-24 74,-30 68,-36 62,-36"/>
<text text-anchor="start" x="52.5" y="-21.4" font-family="Lato" font-size="12.00">0</text>
<text text-anchor="start" x="49" y="-8.4" font-family="Lato" font-size="12.00" fill="#ff4da0">❶</text>
</g>
<!-- I&#45;&gt;0 -->
<g id="edge1" class="edge">
<title>I&#45;&gt;0</title>
<path fill="none" stroke="black" d="M1.15,-18C2.79,-18 17.15,-18 30.63,-18"/>
<polygon fill="black" stroke="black" points="37.94,-18 30.94,-21.15 34.44,-18 30.94,-18 30.94,-18 30.94,-18 34.44,-18 30.94,-14.85 37.94,-18 37.94,-18"/>
</g>
<!-- 0&#45;&gt;0 -->
<g id="edge2" class="edge">
<title>0&#45;&gt;0</title>
<path fill="none" stroke="black" d="M49.49,-36.15C48.49,-45.54 50.66,-54 56,-54 59.92,-54 62.14,-49.44 62.64,-43.3"/>
<polygon fill="black" stroke="black" points="62.51,-36.15 65.79,-43.1 62.57,-39.65 62.64,-43.15 62.64,-43.15 62.64,-43.15 62.57,-39.65 59.49,-43.21 62.51,-36.15 62.51,-36.15"/>
<text text-anchor="start" x="51" y="-57.4" font-family="Lato" font-size="12.00">!a</text>
</g>
<!-- 1 -->
<g id="node3" class="node">
<title>1</title>
<path fill="#ffffa0" stroke="black" d="M141,-36C141,-36 129,-36 129,-36 123,-36 117,-30 117,-24 117,-24 117,-12 117,-12 117,-6 123,0 129,0 129,0 141,0 141,0 147,0 153,-6 153,-12 153,-12 153,-24 153,-24 153,-30 147,-36 141,-36"/>
<text text-anchor="start" x="131.5" y="-21.4" font-family="Lato" font-size="12.00">1</text>
<text text-anchor="start" x="128" y="-8.4" font-family="Lato" font-size="12.00" fill="#1f78b4">⓿</text>
</g>
<!-- 0&#45;&gt;1 -->
<g id="edge3" class="edge">
<title>0&#45;&gt;1</title>
<path fill="none" stroke="black" d="M74.09,-18C84.56,-18 98.12,-18 109.69,-18"/>
<polygon fill="black" stroke="black" points="116.96,-18 109.96,-21.15 113.46,-18 109.96,-18 109.96,-18 109.96,-18 113.46,-18 109.96,-14.85 116.96,-18 116.96,-18"/>
<text text-anchor="start" x="92" y="-21.4" font-family="Lato" font-size="12.00">a</text>
</g>
<!-- 1&#45;&gt;0 -->
<g id="edge4" class="edge">
<title>1&#45;&gt;0</title>
<path fill="none" stroke="black" d="M116.77,-7.72C111.28,-4.98 105.06,-2.39 99,-1 92.94,0.39 86.62,-0.69 80.77,-2.86"/>
<polygon fill="black" stroke="black" points="74.17,-5.83 79.27,-0.09 77.37,-4.39 80.56,-2.96 80.56,-2.96 80.56,-2.96 77.37,-4.39 81.85,-5.83 74.17,-5.83 74.17,-5.83"/>
<text text-anchor="start" x="92" y="-4.4" font-family="Lato" font-size="12.00">b</text>
</g>
<!-- 1&#45;&gt;1 -->
<g id="edge5" class="edge">
<title>1&#45;&gt;1</title>
<path fill="none" stroke="black" d="M128.13,-36.15C127.07,-45.54 129.36,-54 135,-54 139.14,-54 141.48,-49.44 142.01,-43.3"/>
<polygon fill="black" stroke="black" points="141.87,-36.15 145.16,-43.09 141.94,-39.65 142.01,-43.15 142.01,-43.15 142.01,-43.15 141.94,-39.65 138.86,-43.21 141.87,-36.15 141.87,-36.15"/>
<text text-anchor="start" x="130" y="-57.4" font-family="Lato" font-size="12.00">!b</text>
</g>
</g>
</svg>
