<?xml version="1.0" encoding="UTF-8" standalone="no"?>
<?xml-stylesheet href="spot.css" type="text/css"?>
<!DOCTYPE svg PUBLIC "-//W3C//DTD SVG 1.1//EN"
 "http://www.w3.org/Graphics/SVG/1.1/DTD/svg11.dtd">
<!-- Generated by graphviz version 2.43.0 (0)
 -->
<!-- Pages: 1 -->
<svg width="185pt" height="133pt"
 viewBox="0.00 0.00 185.00 133.33" xmlns="http://www.w3.org/2000/svg" xmlns:xlink="http://www.w3.org/1999/xlink">
<g id="graph0" class="graph" transform="scale(1 1) rotate(0) translate(4 129.33)">
<polygon fill="white" stroke="transparent" points="-4,4 -4,-129.33 181,-129.33 181,4 -4,4"/>
<!-- I -->
<!-- 0 -->
<g id="node2" class="node">
<title>0</title>
<ellipse fill="#ffffa0" stroke="black" cx="56" cy="-45.33" rx="18" ry="18"/>
<text text-anchor="middle" x="56" y="-42.23" font-family="Lato" font-size="12.00">0</text>
</g>
<!-- I&#45;&gt;0 -->
<g id="edge1" class="edge">
<title>I&#45;&gt;0</title>
<path fill="none" stroke="black" d="M1.15,-45.33C2.79,-45.33 17.15,-45.33 30.63,-45.33"/>
<polygon fill="black" stroke="black" points="37.94,-45.33 30.94,-48.48 34.44,-45.33 30.94,-45.33 30.94,-45.33 30.94,-45.33 34.44,-45.33 30.94,-42.18 37.94,-45.33 37.94,-45.33"/>
</g>
<!-- 0&#45;&gt;0 -->
<g id="edge2" class="edge">
<title>0&#45;&gt;0</title>
<path fill="none" stroke="black" d="M52.76,-63.11C52.21,-72.64 53.29,-81.33 56,-81.33 57.99,-81.33 59.1,-76.64 59.33,-70.38"/>
<polygon fill="black" stroke="black" points="59.24,-63.11 62.48,-70.07 59.28,-66.61 59.33,-70.11 59.33,-70.11 59.33,-70.11 59.28,-66.61 56.18,-70.15 59.24,-63.11 59.24,-63.11"/>
<text text-anchor="start" x="39" y="-84.73" font-family="Lato" font-size="12.00">!a &amp; !b</text>
</g>
<!-- 0&#45;&gt;0 -->
<g id="edge3" class="edge">
<title>0&#45;&gt;0</title>
<path fill="none" stroke="black" d="M50.68,-62.75C47.65,-80.12 49.43,-99.33 56,-99.33 61.7,-99.33 63.79,-84.88 62.27,-69.72"/>
<polygon fill="black" stroke="black" points="61.32,-62.75 65.39,-69.26 61.79,-66.22 62.26,-69.68 62.26,-69.68 62.26,-69.68 61.79,-66.22 59.14,-70.11 61.32,-62.75 61.32,-62.75"/>
<text text-anchor="start" x="40.5" y="-102.73" font-family="Lato" font-size="12.00">a &amp; !b</text>
</g>
<!-- 1 -->
<g id="node3" class="node">
<title>1</title>
<ellipse fill="#ffffa0" stroke="black" cx="159" cy="-45.33" rx="18" ry="18"/>
<text text-anchor="middle" x="159" y="-42.23" font-family="Lato" font-size="12.00">1</text>
</g>
<!-- 0&#45;&gt;1 -->
<g id="edge4" class="edge">
<title>0&#45;&gt;1</title>
<path fill="none" stroke="black" d="M63.7,-62.11C69.35,-73.75 78.65,-88.38 92,-95.33 104.22,-101.69 110.78,-101.69 123,-95.33 134.05,-89.57 142.34,-78.56 148.06,-68.32"/>
<polygon fill="black" stroke="black" points="151.3,-62.11 150.86,-69.77 149.68,-65.21 148.07,-68.32 148.07,-68.32 148.07,-68.32 149.68,-65.21 145.27,-66.86 151.3,-62.11 151.3,-62.11"/>
<text text-anchor="start" x="92" y="-102.73" font-family="Lato" font-size="12.00">!a &amp; b</text>
</g>
<!-- 0&#45;&gt;1 -->
<g id="edge5" class="edge">
<title>0&#45;&gt;1</title>
<path fill="none" stroke="black" d="M72.64,-53.06C78.56,-55.59 85.45,-58.06 92,-59.33 105.53,-61.93 109.47,-61.93 123,-59.33 127.2,-58.52 131.54,-57.21 135.66,-55.71"/>
<polygon fill="black" stroke="black" points="142.36,-53.06 137.01,-58.57 139.1,-54.35 135.85,-55.64 135.85,-55.64 135.85,-55.64 139.1,-54.35 134.69,-52.71 142.36,-53.06 142.36,-53.06"/>
<text text-anchor="start" x="93.5" y="-63.73" font-family="Lato" font-size="12.00">a &amp; b</text>
</g>
<!-- 1&#45;&gt;0 -->
<g id="edge7" class="edge">
<title>1&#45;&gt;0</title>
<path fill="none" stroke="black" d="M140.93,-43.57C135.23,-43.06 128.85,-42.58 123,-42.33 109.23,-41.74 105.77,-41.74 92,-42.33 88.53,-42.48 84.87,-42.71 81.27,-42.98"/>
<polygon fill="black" stroke="black" points="74.07,-43.57 80.79,-39.86 77.56,-43.28 81.05,-42.99 81.05,-42.99 81.05,-42.99 77.56,-43.28 81.31,-46.13 74.07,-43.57 74.07,-43.57"/>
<text text-anchor="start" x="92" y="-45.73" font-family="Lato" font-size="12.00">a &amp; !b</text>
</g>
<!-- 1&#45;&gt;0 -->
<g id="edge8" class="edge">
<title>1&#45;&gt;0</title>
<path fill="none" stroke="black" d="M144.16,-34.66C138.03,-30.58 130.51,-26.41 123,-24.33 109.72,-20.65 105.28,-20.65 92,-24.33 86.84,-25.76 81.67,-28.18 76.95,-30.87"/>
<polygon fill="black" stroke="black" points="70.84,-34.66 75.13,-28.29 73.81,-32.81 76.79,-30.97 76.79,-30.97 76.79,-30.97 73.81,-32.81 78.45,-33.65 70.84,-34.66 70.84,-34.66"/>
<text text-anchor="start" x="92" y="-27.73" font-family="Lato" font-size="12.00">!a &amp; b</text>
</g>
<!-- 1&#45;&gt;0 -->
<g id="edge9" class="edge">
<title>1&#45;&gt;0</title>
<path fill="none" stroke="black" d="M149.49,-29.85C143.44,-20.57 134.39,-9.58 123,-4.33 110.49,1.44 104.51,1.44 92,-4.33 82.92,-8.51 75.33,-16.34 69.56,-24.04"/>
<polygon fill="black" stroke="black" points="65.51,-29.85 66.93,-22.3 67.51,-26.98 69.52,-24.11 69.52,-24.11 69.52,-24.11 67.51,-26.98 72.1,-25.91 65.51,-29.85 65.51,-29.85"/>
<text text-anchor="start" x="93.5" y="-7.73" font-family="Lato" font-size="12.00">a &amp; b</text>
</g>
<!-- 1&#45;&gt;1 -->
<g id="edge6" class="edge">
<title>1&#45;&gt;1</title>
<path fill="none" stroke="black" d="M150.37,-61.24C148.11,-71.48 150.99,-81.33 159,-81.33 165.13,-81.33 168.25,-75.55 168.37,-68.25"/>
<polygon fill="black" stroke="black" points="167.63,-61.24 171.5,-67.87 168,-64.72 168.37,-68.2 168.37,-68.2 168.37,-68.2 168,-64.72 165.23,-68.53 167.63,-61.24 167.63,-61.24"/>
<text text-anchor="start" x="142" y="-84.73" font-family="Lato" font-size="12.00">!a &amp; !b</text>
</g>
</g>
</svg>
