<?xml version="1.0" encoding="UTF-8" standalone="no"?>
<?xml-stylesheet href="spot.css" type="text/css"?>
<!DOCTYPE svg PUBLIC "-//W3C//DTD SVG 1.1//EN"
 "http://www.w3.org/Graphics/SVG/1.1/DTD/svg11.dtd">
<!-- Generated by graphviz version 2.43.0 (0)
 -->
<!-- Title: p0 | GFp1 Pages: 1 -->
<svg width="171pt" height="249pt"
 viewBox="0.00 0.00 171.00 249.00" xmlns="http://www.w3.org/2000/svg" xmlns:xlink="http://www.w3.org/1999/xlink">
<g id="graph0" class="graph" transform="scale(1 1) rotate(0) translate(4 245)">
<title>p0 | GFp1</title>
<polygon fill="white" stroke="transparent" points="-4,4 -4,-245 167,-245 167,4 -4,4"/>
<text text-anchor="start" x="63.5" y="-228.4" font-family="Lato" font-size="12.00">Inf(</text>
<text text-anchor="start" x="81.5" y="-228.4" font-family="Lato" font-size="12.00" fill="#1f78b4">⓿</text>
<text text-anchor="start" x="95.5" y="-228.4" font-family="Lato" font-size="12.00">)</text>
<text text-anchor="start" x="62.5" y="-216.4" font-family="Lato" font-size="12.00">[Büchi]</text>
<!-- I -->
<!-- 0 -->
<g id="node2" class="node">
<title>0</title>
<ellipse fill="#ffffa0" stroke="black" cx="56" cy="-82" rx="18" ry="18"/>
<text text-anchor="middle" x="56" y="-78.9" font-family="Lato" font-size="12.00">0</text>
</g>
<!-- I&#45;&gt;0 -->
<g id="edge1" class="edge">
<title>I&#45;&gt;0</title>
<path fill="none" stroke="black" d="M1.15,-82C2.79,-82 17.15,-82 30.63,-82"/>
<polygon fill="black" stroke="black" points="37.94,-82 30.94,-85.15 34.44,-82 30.94,-82 30.94,-82 30.94,-82 34.44,-82 30.94,-78.85 37.94,-82 37.94,-82"/>
</g>
<!-- 1 -->
<g id="node3" class="node">
<title>1</title>
<ellipse fill="#ffffa0" stroke="black" cx="145" cy="-147" rx="18" ry="18"/>
<text text-anchor="middle" x="145" y="-143.9" font-family="Lato" font-size="12.00">1</text>
</g>
<!-- 0&#45;&gt;1 -->
<g id="edge2" class="edge">
<title>0&#45;&gt;1</title>
<path fill="none" stroke="black" d="M70.98,-92.44C85.44,-103.25 108.14,-120.21 124.39,-132.35"/>
<polygon fill="black" stroke="black" points="130.06,-136.58 122.56,-134.92 127.25,-134.49 124.45,-132.39 124.45,-132.39 124.45,-132.39 127.25,-134.49 126.33,-129.87 130.06,-136.58 130.06,-136.58"/>
<text text-anchor="start" x="93.5" y="-123.4" font-family="Lato" font-size="12.00">p0</text>
</g>
<!-- 2 -->
<g id="node4" class="node">
<title>2</title>
<ellipse fill="#ffffa0" stroke="black" cx="145" cy="-18" rx="18" ry="18"/>
<text text-anchor="middle" x="145" y="-14.9" font-family="Lato" font-size="12.00">2</text>
</g>
<!-- 0&#45;&gt;2 -->
<g id="edge3" class="edge">
<title>0&#45;&gt;2</title>
<path fill="none" stroke="black" d="M70.98,-71.72C85.44,-61.08 108.14,-44.38 124.39,-32.43"/>
<polygon fill="black" stroke="black" points="130.06,-28.26 126.28,-34.94 127.24,-30.33 124.42,-32.41 124.42,-32.41 124.42,-32.41 127.24,-30.33 122.55,-29.87 130.06,-28.26 130.06,-28.26"/>
<text text-anchor="start" x="92" y="-58.4" font-family="Lato" font-size="12.00">!p0</text>
</g>
<!-- 1&#45;&gt;1 -->
<g id="edge4" class="edge">
<title>1&#45;&gt;1</title>
<path fill="none" stroke="black" d="M137.33,-163.29C135.48,-173.39 138.04,-183 145,-183 150.22,-183 152.96,-177.59 153.23,-170.63"/>
<polygon fill="black" stroke="black" points="152.67,-163.29 156.34,-170.03 152.93,-166.78 153.2,-170.27 153.2,-170.27 153.2,-170.27 152.93,-166.78 150.06,-170.51 152.67,-163.29 152.67,-163.29"/>
<text text-anchor="start" x="141.5" y="-199.4" font-family="Lato" font-size="12.00">1</text>
<text text-anchor="start" x="138" y="-186.4" font-family="Lato" font-size="12.00" fill="#1f78b4">⓿</text>
</g>
<!-- 2&#45;&gt;2 -->
<g id="edge5" class="edge">
<title>2&#45;&gt;2</title>
<path fill="none" stroke="black" d="M141.05,-35.78C140.37,-45.31 141.69,-54 145,-54 147.43,-54 148.79,-49.32 149.07,-43.05"/>
<polygon fill="black" stroke="black" points="148.95,-35.78 152.21,-42.73 149.01,-39.28 149.06,-42.78 149.06,-42.78 149.06,-42.78 149.01,-39.28 145.92,-42.83 148.95,-35.78 148.95,-35.78"/>
<text text-anchor="start" x="136.5" y="-57.4" font-family="Lato" font-size="12.00">!p1</text>
</g>
<!-- 2&#45;&gt;2 -->
<g id="edge6" class="edge">
<title>2&#45;&gt;2</title>
<path fill="none" stroke="black" d="M138.62,-34.86C134.75,-52.38 136.88,-72 145,-72 152.04,-72 154.58,-57.24 152.6,-41.9"/>
<polygon fill="black" stroke="black" points="151.38,-34.86 155.68,-41.22 151.98,-38.31 152.58,-41.76 152.58,-41.76 152.58,-41.76 151.98,-38.31 149.47,-42.3 151.38,-34.86 151.38,-34.86"/>
<text text-anchor="start" x="138" y="-88.4" font-family="Lato" font-size="12.00">p1</text>
<text text-anchor="start" x="138" y="-75.4" font-family="Lato" font-size="12.00" fill="#1f78b4">⓿</text>
</g>
</g>
</svg>
