<?xml version="1.0" encoding="UTF-8" standalone="no"?>
<?xml-stylesheet href="spot.css" type="text/css"?>
<!DOCTYPE svg PUBLIC "-//W3C//DTD SVG 1.1//EN"
 "http://www.w3.org/Graphics/SVG/1.1/DTD/svg11.dtd">
<!-- Generated by graphviz version 2.43.0 (0)
 -->
<!-- Title: p0 | GFp1 Pages: 1 -->
<svg width="268pt" height="197pt"
 viewBox="0.00 0.00 268.00 197.00" xmlns="http://www.w3.org/2000/svg" xmlns:xlink="http://www.w3.org/1999/xlink">
<g id="graph0" class="graph" transform="scale(1 1) rotate(0) translate(4 193)">
<title>p0 | GFp1</title>
<polygon fill="white" stroke="transparent" points="-4,4 -4,-193 264,-193 264,4 -4,4"/>
<text text-anchor="start" x="111" y="-175.4" font-family="Lato" font-size="12.00">[Büchi]</text>
<!-- I -->
<!-- 0 -->
<g id="node2" class="node">
<title>0</title>
<ellipse fill="#ffffa0" stroke="black" cx="56" cy="-68" rx="18" ry="18"/>
<text text-anchor="middle" x="56" y="-64.9" font-family="Lato" font-size="12.00">0</text>
</g>
<!-- I&#45;&gt;0 -->
<g id="edge1" class="edge">
<title>I&#45;&gt;0</title>
<path fill="none" stroke="black" d="M1.15,-68C2.79,-68 17.15,-68 30.63,-68"/>
<polygon fill="black" stroke="black" points="37.94,-68 30.94,-71.15 34.44,-68 30.94,-68 30.94,-68 30.94,-68 34.44,-68 30.94,-64.85 37.94,-68 37.94,-68"/>
</g>
<!-- 1 -->
<g id="node3" class="node">
<title>1</title>
<ellipse fill="#ffffa0" stroke="black" cx="149" cy="-115" rx="18" ry="18"/>
<ellipse fill="none" stroke="black" cx="149" cy="-115" rx="22" ry="22"/>
<text text-anchor="middle" x="149" y="-111.9" font-family="Lato" font-size="12.00">1</text>
</g>
<!-- 0&#45;&gt;1 -->
<g id="edge2" class="edge">
<title>0&#45;&gt;1</title>
<path fill="none" stroke="black" d="M72.44,-75.97C86.1,-83.03 106.32,-93.47 122.4,-101.78"/>
<polygon fill="black" stroke="black" points="129.01,-105.19 121.34,-104.78 125.9,-103.59 122.79,-101.98 122.79,-101.98 122.79,-101.98 125.9,-103.59 124.24,-99.18 129.01,-105.19 129.01,-105.19"/>
<text text-anchor="start" x="93.5" y="-97.4" font-family="Lato" font-size="12.00">p0</text>
</g>
<!-- 2 -->
<g id="node4" class="node">
<title>2</title>
<ellipse fill="#ffffa0" stroke="black" cx="149" cy="-22" rx="18" ry="18"/>
<ellipse fill="none" stroke="black" cx="149" cy="-22" rx="22" ry="22"/>
<text text-anchor="middle" x="149" y="-18.9" font-family="Lato" font-size="12.00">2</text>
</g>
<!-- 0&#45;&gt;2 -->
<g id="edge3" class="edge">
<title>0&#45;&gt;2</title>
<path fill="none" stroke="black" d="M72.44,-60.2C86.1,-53.29 106.32,-43.07 122.4,-34.94"/>
<polygon fill="black" stroke="black" points="129.01,-31.6 124.18,-37.57 125.89,-33.18 122.76,-34.76 122.76,-34.76 122.76,-34.76 125.89,-33.18 121.34,-31.95 129.01,-31.6 129.01,-31.6"/>
<text text-anchor="start" x="92" y="-52.4" font-family="Lato" font-size="12.00">!p0</text>
</g>
<!-- 1&#45;&gt;1 -->
<g id="edge4" class="edge">
<title>1&#45;&gt;1</title>
<path fill="none" stroke="black" d="M140.27,-135.58C139.06,-145.84 141.97,-155 149,-155 154.27,-155 157.23,-149.85 157.87,-142.95"/>
<polygon fill="black" stroke="black" points="157.73,-135.58 161.01,-142.52 157.8,-139.08 157.86,-142.58 157.86,-142.58 157.86,-142.58 157.8,-139.08 154.71,-142.64 157.73,-135.58 157.73,-135.58"/>
<text text-anchor="middle" x="149" y="-158.4" font-family="Lato" font-size="12.00">1</text>
</g>
<!-- 2&#45;&gt;2 -->
<g id="edge5" class="edge">
<title>2&#45;&gt;2</title>
<path fill="none" stroke="black" d="M140.27,-42.58C139.06,-52.84 141.97,-62 149,-62 154.27,-62 157.23,-56.85 157.87,-49.95"/>
<polygon fill="black" stroke="black" points="157.73,-42.58 161.01,-49.52 157.8,-46.08 157.86,-49.58 157.86,-49.58 157.86,-49.58 157.8,-46.08 154.71,-49.64 157.73,-42.58 157.73,-42.58"/>
<text text-anchor="start" x="142" y="-65.4" font-family="Lato" font-size="12.00">p1</text>
</g>
<!-- 3 -->
<g id="node5" class="node">
<title>3</title>
<ellipse fill="#ffffa0" stroke="black" cx="242" cy="-22" rx="18" ry="18"/>
<text text-anchor="middle" x="242" y="-18.9" font-family="Lato" font-size="12.00">3</text>
</g>
<!-- 2&#45;&gt;3 -->
<g id="edge6" class="edge">
<title>2&#45;&gt;3</title>
<path fill="none" stroke="black" d="M171.11,-22C184.79,-22 202.65,-22 216.89,-22"/>
<polygon fill="black" stroke="black" points="223.96,-22 216.96,-25.15 220.46,-22 216.96,-22 216.96,-22 216.96,-22 220.46,-22 216.96,-18.85 223.96,-22 223.96,-22"/>
<text text-anchor="start" x="189" y="-25.4" font-family="Lato" font-size="12.00">!p1</text>
</g>
<!-- 3&#45;&gt;2 -->
<g id="edge7" class="edge">
<title>3&#45;&gt;2</title>
<path fill="none" stroke="black" d="M226.22,-12.98C220.18,-9.8 212.98,-6.61 206,-5 195.8,-2.65 184.74,-4.95 175.17,-8.53"/>
<polygon fill="black" stroke="black" points="168.49,-11.31 173.74,-5.71 171.72,-9.97 174.95,-8.62 174.95,-8.62 174.95,-8.62 171.72,-9.97 176.17,-11.52 168.49,-11.31 168.49,-11.31"/>
<text text-anchor="start" x="190.5" y="-8.4" font-family="Lato" font-size="12.00">p1</text>
</g>
<!-- 3&#45;&gt;3 -->
<g id="edge8" class="edge">
<title>3&#45;&gt;3</title>
<path fill="none" stroke="black" d="M234.33,-38.29C232.48,-48.39 235.04,-58 242,-58 247.22,-58 249.96,-52.59 250.23,-45.63"/>
<polygon fill="black" stroke="black" points="249.67,-38.29 253.34,-45.03 249.93,-41.78 250.2,-45.27 250.2,-45.27 250.2,-45.27 249.93,-41.78 247.06,-45.51 249.67,-38.29 249.67,-38.29"/>
<text text-anchor="start" x="233.5" y="-61.4" font-family="Lato" font-size="12.00">!p1</text>
</g>
</g>
</svg>
