<?xml version="1.0" encoding="UTF-8" standalone="no"?>
<?xml-stylesheet href="spot.css" type="text/css"?>
<!DOCTYPE svg PUBLIC "-//W3C//DTD SVG 1.1//EN"
 "http://www.w3.org/Graphics/SVG/1.1/DTD/svg11.dtd">
<!-- Generated by graphviz version 2.43.0 (0)
 -->
<!-- Title: G(Fa &amp; Fb) Pages: 1 -->
<svg width="405pt" height="255pt"
 viewBox="0.00 0.00 405.00 255.09" xmlns="http://www.w3.org/2000/svg" xmlns:xlink="http://www.w3.org/1999/xlink">
<g id="graph0" class="graph" transform="scale(1 1) rotate(0) translate(4 251.09)">
<title>G(Fa &amp; Fb)</title>
<polygon fill="white" stroke="transparent" points="-4,4 -4,-251.09 401,-251.09 401,4 -4,4"/>
<text text-anchor="start" x="159" y="-234.49" font-family="Lato" font-size="12.00">Inf(</text>
<text text-anchor="start" x="177" y="-234.49" font-family="Lato" font-size="12.00" fill="#1f78b4">⓿</text>
<text text-anchor="start" x="191" y="-234.49" font-family="Lato" font-size="12.00">)&amp;Inf(</text>
<text text-anchor="start" x="220" y="-234.49" font-family="Lato" font-size="12.00" fill="#ff4da0">❶</text>
<text text-anchor="start" x="234" y="-234.49" font-family="Lato" font-size="12.00">)</text>
<text text-anchor="start" x="162" y="-222.49" font-family="Lato" font-size="12.00">[gen. Büchi 2]</text>
<!-- I -->
<!-- 0 -->
<g id="node2" class="node">
<title>0</title>
<path fill="#ffffa0" stroke="black" d="M70,-60.09C70,-60.09 50,-60.09 50,-60.09 44,-60.09 38,-54.09 38,-48.09 38,-48.09 38,-36.09 38,-36.09 38,-30.09 44,-24.09 50,-24.09 50,-24.09 70,-24.09 70,-24.09 76,-24.09 82,-30.09 82,-36.09 82,-36.09 82,-48.09 82,-48.09 82,-54.09 76,-60.09 70,-60.09"/>
<text text-anchor="start" x="56.5" y="-45.49" font-family="Lato" font-size="12.00">0</text>
<text text-anchor="start" x="46" y="-33.49" font-family="Lato" font-size="12.00" fill="#1f78b4">⓿</text>
<text text-anchor="start" x="60" y="-33.49" font-family="Lato" font-size="12.00" fill="#ff4da0">❶</text>
</g>
<!-- I&#45;&gt;0 -->
<g id="edge1" class="edge">
<title>I&#45;&gt;0</title>
<path fill="none" stroke="black" d="M1.17,-42.09C2.84,-42.09 16.88,-42.09 30.71,-42.09"/>
<polygon fill="black" stroke="black" points="37.86,-42.09 30.86,-45.24 34.36,-42.09 30.86,-42.09 30.86,-42.09 30.86,-42.09 34.36,-42.09 30.86,-38.94 37.86,-42.09 37.86,-42.09"/>
</g>
<!-- 0&#45;&gt;0 -->
<g id="edge2" class="edge">
<title>0&#45;&gt;0</title>
<path fill="none" stroke="black" d="M52.76,-60.25C51.65,-69.63 54.06,-78.09 60,-78.09 64.36,-78.09 66.82,-73.53 67.38,-67.39"/>
<polygon fill="black" stroke="black" points="67.24,-60.25 70.52,-67.18 67.31,-63.75 67.37,-67.25 67.37,-67.25 67.37,-67.25 67.31,-63.75 64.23,-67.31 67.24,-60.25 67.24,-60.25"/>
<text text-anchor="start" x="46" y="-81.49" font-family="Lato" font-size="12.00">a &amp; b</text>
</g>
<!-- 1 -->
<g id="node3" class="node">
<title>1</title>
<path fill="#ffffa0" stroke="black" d="M173,-154.09C173,-154.09 161,-154.09 161,-154.09 155,-154.09 149,-148.09 149,-142.09 149,-142.09 149,-130.09 149,-130.09 149,-124.09 155,-118.09 161,-118.09 161,-118.09 173,-118.09 173,-118.09 179,-118.09 185,-124.09 185,-130.09 185,-130.09 185,-142.09 185,-142.09 185,-148.09 179,-154.09 173,-154.09"/>
<text text-anchor="start" x="163.5" y="-139.49" font-family="Lato" font-size="12.00">1</text>
<text text-anchor="start" x="160" y="-126.49" font-family="Lato" font-size="12.00" fill="#1f78b4">⓿</text>
</g>
<!-- 0&#45;&gt;1 -->
<g id="edge3" class="edge">
<title>0&#45;&gt;1</title>
<path fill="none" stroke="black" d="M66.54,-60.26C72.38,-76.52 83.12,-99.93 100,-114.09 111.79,-123.99 128.19,-129.48 141.69,-132.5"/>
<polygon fill="black" stroke="black" points="148.85,-133.94 141.37,-135.65 145.42,-133.25 141.99,-132.56 141.99,-132.56 141.99,-132.56 145.42,-133.25 142.61,-129.48 148.85,-133.94 148.85,-133.94"/>
<text text-anchor="start" x="100" y="-132.49" font-family="Lato" font-size="12.00">a &amp; !b</text>
</g>
<!-- 2 -->
<g id="node4" class="node">
<title>2</title>
<path fill="#ffffa0" stroke="black" d="M385,-91.09C385,-91.09 373,-91.09 373,-91.09 367,-91.09 361,-85.09 361,-79.09 361,-79.09 361,-67.09 361,-67.09 361,-61.09 367,-55.09 373,-55.09 373,-55.09 385,-55.09 385,-55.09 391,-55.09 397,-61.09 397,-67.09 397,-67.09 397,-79.09 397,-79.09 397,-85.09 391,-91.09 385,-91.09"/>
<text text-anchor="start" x="375.5" y="-76.49" font-family="Lato" font-size="12.00">2</text>
<text text-anchor="start" x="372" y="-63.49" font-family="Lato" font-size="12.00" fill="#ff4da0">❶</text>
</g>
<!-- 0&#45;&gt;2 -->
<g id="edge4" class="edge">
<title>0&#45;&gt;2</title>
<path fill="none" stroke="black" d="M82.22,-34.51C87.92,-32.77 94.14,-31.12 100,-30.09 160.01,-19.58 176.45,-18.33 237,-25.09 285,-30.46 298.74,-29.76 343,-49.09 347.08,-50.88 351.18,-53.15 355.06,-55.59"/>
<polygon fill="black" stroke="black" points="360.96,-59.51 353.39,-58.26 358.04,-57.57 355.13,-55.63 355.13,-55.63 355.13,-55.63 358.04,-57.57 356.87,-53.01 360.96,-59.51 360.96,-59.51"/>
<text text-anchor="start" x="204.5" y="-28.49" font-family="Lato" font-size="12.00">!a &amp; b</text>
</g>
<!-- 3 -->
<g id="node5" class="node">
<title>3</title>
<path fill="#ffffa0" stroke="black" d="M279,-91.09C279,-91.09 267,-91.09 267,-91.09 261,-91.09 255,-85.09 255,-79.09 255,-79.09 255,-67.09 255,-67.09 255,-61.09 261,-55.09 267,-55.09 267,-55.09 279,-55.09 279,-55.09 285,-55.09 291,-61.09 291,-67.09 291,-67.09 291,-79.09 291,-79.09 291,-85.09 285,-91.09 279,-91.09"/>
<text text-anchor="middle" x="273" y="-69.99" font-family="Lato" font-size="12.00">3</text>
</g>
<!-- 0&#45;&gt;3 -->
<g id="edge5" class="edge">
<title>0&#45;&gt;3</title>
<path fill="none" stroke="black" d="M82,-45.18C121.43,-50.97 206.32,-63.44 247.96,-69.56"/>
<polygon fill="black" stroke="black" points="254.98,-70.59 247.59,-72.69 251.51,-70.08 248.05,-69.58 248.05,-69.58 248.05,-69.58 251.51,-70.08 248.51,-66.46 254.98,-70.59 254.98,-70.59"/>
<text text-anchor="start" x="150" y="-63.49" font-family="Lato" font-size="12.00">!a &amp; !b</text>
</g>
<!-- 1&#45;&gt;0 -->
<g id="edge6" class="edge">
<title>1&#45;&gt;0</title>
<path fill="none" stroke="black" d="M151.66,-117.97C145.68,-111.01 138.41,-103.27 131,-97.09 118.58,-86.75 112.89,-87.84 100,-78.09 94.82,-74.18 89.53,-69.68 84.6,-65.23"/>
<polygon fill="black" stroke="black" points="79.39,-60.45 86.68,-62.87 81.97,-62.82 84.55,-65.19 84.55,-65.19 84.55,-65.19 81.97,-62.82 82.41,-67.51 79.39,-60.45 79.39,-60.45"/>
<text text-anchor="start" x="101.5" y="-100.49" font-family="Lato" font-size="12.00">a &amp; b</text>
</g>
<!-- 1&#45;&gt;1 -->
<g id="edge7" class="edge">
<title>1&#45;&gt;1</title>
<path fill="none" stroke="black" d="M157.95,-154.25C156.56,-163.63 159.58,-172.09 167,-172.09 172.45,-172.09 175.52,-167.53 176.22,-161.39"/>
<polygon fill="black" stroke="black" points="176.05,-154.25 179.37,-161.17 176.13,-157.75 176.22,-161.25 176.22,-161.25 176.22,-161.25 176.13,-157.75 173.07,-161.32 176.05,-154.25 176.05,-154.25"/>
<text text-anchor="start" x="151.5" y="-175.49" font-family="Lato" font-size="12.00">a &amp; !b</text>
</g>
<!-- 1&#45;&gt;2 -->
<g id="edge8" class="edge">
<title>1&#45;&gt;2</title>
<path fill="none" stroke="black" d="M178.23,-154.29C184.23,-163.1 192.66,-172.88 203,-178.09 258.56,-206.1 293.59,-215.92 343,-178.09 367.34,-159.47 374.93,-123.29 377.2,-98.66"/>
<polygon fill="black" stroke="black" points="377.75,-91.43 380.36,-98.64 377.49,-94.92 377.22,-98.41 377.22,-98.41 377.22,-98.41 377.49,-94.92 374.08,-98.17 377.75,-91.43 377.75,-91.43"/>
<text text-anchor="start" x="257.5" y="-205.49" font-family="Lato" font-size="12.00">!a &amp; b</text>
</g>
<!-- 1&#45;&gt;3 -->
<g id="edge9" class="edge">
<title>1&#45;&gt;3</title>
<path fill="none" stroke="black" d="M185.03,-133.39C199.74,-130.44 221.08,-124.67 237,-114.09 243.8,-109.57 250.04,-103.37 255.3,-97.16"/>
<polygon fill="black" stroke="black" points="259.84,-91.49 257.92,-98.93 257.65,-94.22 255.46,-96.95 255.46,-96.95 255.46,-96.95 257.65,-94.22 253,-94.98 259.84,-91.49 259.84,-91.49"/>
<text text-anchor="start" x="203" y="-131.49" font-family="Lato" font-size="12.00">!a &amp; !b</text>
</g>
<!-- 2&#45;&gt;0 -->
<g id="edge10" class="edge">
<title>2&#45;&gt;0</title>
<path fill="none" stroke="black" d="M366.29,-54.9C360.24,-46.83 352.19,-37.87 343,-32.09 301.75,-6.16 285.32,-10.37 237,-4.09 176.21,3.8 157.92,-0.01 100,-20.09 96.14,-21.43 92.22,-23.15 88.44,-25.03"/>
<polygon fill="black" stroke="black" points="82.21,-28.32 86.93,-22.26 85.31,-26.68 88.4,-25.05 88.4,-25.05 88.4,-25.05 85.31,-26.68 89.87,-27.83 82.21,-28.32 82.21,-28.32"/>
<text text-anchor="start" x="206" y="-7.49" font-family="Lato" font-size="12.00">a &amp; b</text>
</g>
<!-- 2&#45;&gt;1 -->
<g id="edge11" class="edge">
<title>2&#45;&gt;1</title>
<path fill="none" stroke="black" d="M360.7,-87.18C343.84,-100.27 317.01,-119.45 291,-131.09 268.37,-141.22 261.59,-141.96 237,-145.09 222.01,-147.01 217.99,-146.99 203,-145.09 199.43,-144.64 195.71,-143.94 192.08,-143.13"/>
<polygon fill="black" stroke="black" points="185.28,-141.46 192.83,-140.07 188.68,-142.29 192.08,-143.13 192.08,-143.13 192.08,-143.13 188.68,-142.29 191.32,-146.19 185.28,-141.46 185.28,-141.46"/>
<text text-anchor="start" x="257.5" y="-145.49" font-family="Lato" font-size="12.00">a &amp; !b</text>
</g>
<!-- 2&#45;&gt;2 -->
<g id="edge12" class="edge">
<title>2&#45;&gt;2</title>
<path fill="none" stroke="black" d="M369.59,-91.25C368.15,-100.63 371.28,-109.09 379,-109.09 384.67,-109.09 387.87,-104.53 388.59,-98.39"/>
<polygon fill="black" stroke="black" points="388.41,-91.25 391.74,-98.16 388.5,-94.75 388.59,-98.24 388.59,-98.24 388.59,-98.24 388.5,-94.75 385.44,-98.33 388.41,-91.25 388.41,-91.25"/>
<text text-anchor="start" x="363.5" y="-112.49" font-family="Lato" font-size="12.00">!a &amp; b</text>
</g>
<!-- 2&#45;&gt;3 -->
<g id="edge13" class="edge">
<title>2&#45;&gt;3</title>
<path fill="none" stroke="black" d="M360.8,-73.09C343.78,-73.09 317.56,-73.09 298.4,-73.09"/>
<polygon fill="black" stroke="black" points="291.17,-73.09 298.17,-69.94 294.67,-73.09 298.17,-73.09 298.17,-73.09 298.17,-73.09 294.67,-73.09 298.17,-76.24 291.17,-73.09 291.17,-73.09"/>
<text text-anchor="start" x="309" y="-76.49" font-family="Lato" font-size="12.00">!a &amp; !b</text>
</g>
<!-- 3&#45;&gt;0 -->
<g id="edge14" class="edge">
<title>3&#45;&gt;0</title>
<path fill="none" stroke="black" d="M254.94,-63.95C237.82,-55.32 210.41,-43.01 185,-38.09 152.67,-31.83 114.72,-34.48 89.4,-37.63"/>
<polygon fill="black" stroke="black" points="82.29,-38.56 88.82,-34.52 85.76,-38.11 89.23,-37.65 89.23,-37.65 89.23,-37.65 85.76,-38.11 89.64,-40.77 82.29,-38.56 82.29,-38.56"/>
<text text-anchor="start" x="153" y="-41.49" font-family="Lato" font-size="12.00">a &amp; b</text>
</g>
<!-- 3&#45;&gt;1 -->
<g id="edge15" class="edge">
<title>3&#45;&gt;1</title>
<path fill="none" stroke="black" d="M254.75,-76.54C240.09,-80.04 218.94,-86.49 203,-97.09 196.75,-101.25 190.89,-106.78 185.83,-112.36"/>
<polygon fill="black" stroke="black" points="181.04,-117.92 183.22,-110.56 183.32,-115.27 185.61,-112.62 185.61,-112.62 185.61,-112.62 183.32,-115.27 187.99,-114.67 181.04,-117.92 181.04,-117.92"/>
<text text-anchor="start" x="204.5" y="-100.49" font-family="Lato" font-size="12.00">a &amp; !b</text>
</g>
<!-- 3&#45;&gt;2 -->
<g id="edge16" class="edge">
<title>3&#45;&gt;2</title>
<path fill="none" stroke="black" d="M291.23,-62.82C296.72,-60.07 302.94,-57.49 309,-56.09 323.73,-52.71 328.27,-52.71 343,-56.09 346.79,-56.97 350.64,-58.3 354.33,-59.85"/>
<polygon fill="black" stroke="black" points="360.77,-62.82 353.09,-62.75 357.59,-61.35 354.41,-59.89 354.41,-59.89 354.41,-59.89 357.59,-61.35 355.73,-57.03 360.77,-62.82 360.77,-62.82"/>
<text text-anchor="start" x="310.5" y="-59.49" font-family="Lato" font-size="12.00">!a &amp; b</text>
</g>
<!-- 3&#45;&gt;3 -->
<g id="edge17" class="edge">
<title>3&#45;&gt;3</title>
<path fill="none" stroke="black" d="M263.59,-91.25C262.15,-100.63 265.28,-109.09 273,-109.09 278.67,-109.09 281.87,-104.53 282.59,-98.39"/>
<polygon fill="black" stroke="black" points="282.41,-91.25 285.74,-98.16 282.5,-94.75 282.59,-98.24 282.59,-98.24 282.59,-98.24 282.5,-94.75 279.44,-98.33 282.41,-91.25 282.41,-91.25"/>
<text text-anchor="start" x="256" y="-112.49" font-family="Lato" font-size="12.00">!a &amp; !b</text>
</g>
</g>
</svg>
