<?xml version="1.0" encoding="UTF-8" standalone="no"?>
<?xml-stylesheet href="spot.css" type="text/css"?>
<!DOCTYPE svg PUBLIC "-//W3C//DTD SVG 1.1//EN"
 "http://www.w3.org/Graphics/SVG/1.1/DTD/svg11.dtd">
<!-- Generated by graphviz version 2.43.0 (0)
 -->
<!-- Title: {[*2][+]}[]&#45;&gt; a Pages: 1 -->
<svg width="177pt" height="73pt"
 viewBox="0.00 0.00 177.00 73.00" xmlns="http://www.w3.org/2000/svg" xmlns:xlink="http://www.w3.org/1999/xlink">
<g id="graph0" class="graph" transform="scale(1 1) rotate(0) translate(4 69)">
<title>{[*2][+]}[]&#45;&gt; a</title>
<polygon fill="white" stroke="transparent" points="-4,4 -4,-69 173,-69 173,4 -4,4"/>
<text text-anchor="start" x="65.5" y="-51.4" font-family="Lato" font-size="12.00">[Büchi]</text>
<!-- I -->
<!-- 0 -->
<g id="node2" class="node">
<title>0</title>
<ellipse fill="#ffffa0" stroke="black" cx="60" cy="-22" rx="18" ry="18"/>
<ellipse fill="none" stroke="black" cx="60" cy="-22" rx="22" ry="22"/>
<text text-anchor="middle" x="60" y="-18.9" font-family="Lato" font-size="12.00">0</text>
</g>
<!-- I&#45;&gt;0 -->
<g id="edge1" class="edge">
<title>I&#45;&gt;0</title>
<path fill="none" stroke="black" d="M1.17,-22C2.84,-22 16.88,-22 30.71,-22"/>
<polygon fill="black" stroke="black" points="37.86,-22 30.86,-25.15 34.36,-22 30.86,-22 30.86,-22 30.86,-22 34.36,-22 30.86,-18.85 37.86,-22 37.86,-22"/>
</g>
<!-- 1 -->
<g id="node3" class="node">
<title>1</title>
<ellipse fill="#ffffa0" stroke="black" cx="147" cy="-22" rx="18" ry="18"/>
<ellipse fill="none" stroke="black" cx="147" cy="-22" rx="22" ry="22"/>
<text text-anchor="middle" x="147" y="-18.9" font-family="Lato" font-size="12.00">1</text>
</g>
<!-- 0&#45;&gt;1 -->
<g id="edge2" class="edge">
<title>0&#45;&gt;1</title>
<path fill="none" stroke="black" d="M82.01,-22C92.84,-22 106.2,-22 117.9,-22"/>
<polygon fill="black" stroke="black" points="124.94,-22 117.94,-25.15 121.44,-22 117.94,-22 117.94,-22 117.94,-22 121.44,-22 117.94,-18.85 124.94,-22 124.94,-22"/>
<text text-anchor="middle" x="103.5" y="-25.4" font-family="Lato" font-size="12.00">1</text>
</g>
<!-- 1&#45;&gt;0 -->
<g id="edge3" class="edge">
<title>1&#45;&gt;0</title>
<path fill="none" stroke="black" d="M128.01,-10.28C119.66,-6.17 109.5,-3.02 100,-5 95.54,-5.93 90.96,-7.4 86.59,-9.09"/>
<polygon fill="black" stroke="black" points="79.92,-11.9 85.15,-6.28 83.15,-10.54 86.37,-9.18 86.37,-9.18 86.37,-9.18 83.15,-10.54 87.6,-12.09 79.92,-11.9 79.92,-11.9"/>
<text text-anchor="start" x="100" y="-8.4" font-family="Lato" font-size="12.00">a</text>
</g>
</g>
</svg>
