<?xml version="1.0" encoding="UTF-8" standalone="no"?>
<?xml-stylesheet href="spot.css" type="text/css"?>
<!DOCTYPE svg PUBLIC "-//W3C//DTD SVG 1.1//EN"
 "http://www.w3.org/Graphics/SVG/1.1/DTD/svg11.dtd">
<!-- Generated by graphviz version 2.43.0 (0)
 -->
<!-- Title: G(Fa &amp; Fb) Pages: 1 -->
<svg width="285pt" height="156pt"
 viewBox="0.00 0.00 285.00 156.00" xmlns="http://www.w3.org/2000/svg" xmlns:xlink="http://www.w3.org/1999/xlink">
<g id="graph0" class="graph" transform="scale(1 1) rotate(0) translate(4 152)">
<title>G(Fa &amp; Fb)</title>
<polygon fill="white" stroke="transparent" points="-4,4 -4,-152 281,-152 281,4 -4,4"/>
<text text-anchor="start" x="120.5" y="-135.4" font-family="Lato" font-size="12.00">Inf(</text>
<text text-anchor="start" x="138.5" y="-135.4" font-family="Lato" font-size="12.00" fill="#1f78b4">⓿</text>
<text text-anchor="start" x="152.5" y="-135.4" font-family="Lato" font-size="12.00">)</text>
<text text-anchor="start" x="119.5" y="-123.4" font-family="Lato" font-size="12.00">[Büchi]</text>
<!-- I -->
<!-- 0 -->
<g id="node2" class="node">
<title>0</title>
<path fill="#ffffa0" stroke="black" d="M62,-52C62,-52 50,-52 50,-52 44,-52 38,-46 38,-40 38,-40 38,-28 38,-28 38,-22 44,-16 50,-16 50,-16 62,-16 62,-16 68,-16 74,-22 74,-28 74,-28 74,-40 74,-40 74,-46 68,-52 62,-52"/>
<text text-anchor="start" x="52.5" y="-37.4" font-family="Lato" font-size="12.00">0</text>
<text text-anchor="start" x="49" y="-24.4" font-family="Lato" font-size="12.00" fill="#1f78b4">⓿</text>
</g>
<!-- I&#45;&gt;0 -->
<g id="edge1" class="edge">
<title>I&#45;&gt;0</title>
<path fill="none" stroke="black" d="M1.15,-34C2.79,-34 17.15,-34 30.63,-34"/>
<polygon fill="black" stroke="black" points="37.94,-34 30.94,-37.15 34.44,-34 30.94,-34 30.94,-34 30.94,-34 34.44,-34 30.94,-30.85 37.94,-34 37.94,-34"/>
</g>
<!-- 0&#45;&gt;0 -->
<g id="edge2" class="edge">
<title>0&#45;&gt;0</title>
<path fill="none" stroke="black" d="M49.49,-52.15C48.49,-61.54 50.66,-70 56,-70 59.92,-70 62.14,-65.44 62.64,-59.3"/>
<polygon fill="black" stroke="black" points="62.51,-52.15 65.79,-59.1 62.57,-55.65 62.64,-59.15 62.64,-59.15 62.64,-59.15 62.57,-55.65 59.49,-59.21 62.51,-52.15 62.51,-52.15"/>
<text text-anchor="start" x="42" y="-73.4" font-family="Lato" font-size="12.00">a &amp; b</text>
</g>
<!-- 1 -->
<g id="node3" class="node">
<title>1</title>
<path fill="#ffffa0" stroke="black" d="M162,-85C162,-85 150,-85 150,-85 144,-85 138,-79 138,-73 138,-73 138,-61 138,-61 138,-55 144,-49 150,-49 150,-49 162,-49 162,-49 168,-49 174,-55 174,-61 174,-61 174,-73 174,-73 174,-79 168,-85 162,-85"/>
<text text-anchor="middle" x="156" y="-63.9" font-family="Lato" font-size="12.00">1</text>
</g>
<!-- 0&#45;&gt;1 -->
<g id="edge3" class="edge">
<title>0&#45;&gt;1</title>
<path fill="none" stroke="black" d="M72.79,-52.14C78.31,-57.25 84.91,-62.18 92,-65 104.13,-69.82 118.63,-70.58 130.66,-70.02"/>
<polygon fill="black" stroke="black" points="137.78,-69.53 131.02,-73.16 134.29,-69.77 130.8,-70.01 130.8,-70.01 130.8,-70.01 134.29,-69.77 130.58,-66.87 137.78,-69.53 137.78,-69.53"/>
<text text-anchor="start" x="101" y="-73.4" font-family="Lato" font-size="12.00">!b</text>
</g>
<!-- 2 -->
<g id="node4" class="node">
<title>2</title>
<path fill="#ffffa0" stroke="black" d="M265,-36C265,-36 253,-36 253,-36 247,-36 241,-30 241,-24 241,-24 241,-12 241,-12 241,-6 247,0 253,0 253,0 265,0 265,0 271,0 277,-6 277,-12 277,-12 277,-24 277,-24 277,-30 271,-36 265,-36"/>
<text text-anchor="middle" x="259" y="-14.9" font-family="Lato" font-size="12.00">2</text>
</g>
<!-- 0&#45;&gt;2 -->
<g id="edge4" class="edge">
<title>0&#45;&gt;2</title>
<path fill="none" stroke="black" d="M74.06,-32.47C90.45,-31.01 115.91,-28.78 138,-27 171.21,-24.32 209.62,-21.49 233.86,-19.73"/>
<polygon fill="black" stroke="black" points="240.91,-19.22 234.15,-22.87 237.41,-19.47 233.92,-19.73 233.92,-19.73 233.92,-19.73 237.41,-19.47 233.7,-16.58 240.91,-19.22 240.91,-19.22"/>
<text text-anchor="start" x="140.5" y="-30.4" font-family="Lato" font-size="12.00">!a &amp; b</text>
</g>
<!-- 1&#45;&gt;0 -->
<g id="edge5" class="edge">
<title>1&#45;&gt;0</title>
<path fill="none" stroke="black" d="M137.65,-56.34C132.15,-53.31 125.96,-50.23 120,-48 107.57,-43.35 93.16,-40.01 81.26,-37.76"/>
<polygon fill="black" stroke="black" points="74.22,-36.49 81.66,-34.63 77.66,-37.11 81.11,-37.73 81.11,-37.73 81.11,-37.73 77.66,-37.11 80.55,-40.83 74.22,-36.49 74.22,-36.49"/>
<text text-anchor="start" x="92" y="-51.4" font-family="Lato" font-size="12.00">a &amp; b</text>
</g>
<!-- 1&#45;&gt;1 -->
<g id="edge6" class="edge">
<title>1&#45;&gt;1</title>
<path fill="none" stroke="black" d="M146.95,-85.15C145.56,-94.54 148.58,-103 156,-103 161.45,-103 164.52,-98.44 165.22,-92.3"/>
<polygon fill="black" stroke="black" points="165.05,-85.15 168.37,-92.07 165.13,-88.65 165.22,-92.15 165.22,-92.15 165.22,-92.15 165.13,-88.65 162.07,-92.23 165.05,-85.15 165.05,-85.15"/>
<text text-anchor="start" x="151" y="-106.4" font-family="Lato" font-size="12.00">!b</text>
</g>
<!-- 1&#45;&gt;2 -->
<g id="edge7" class="edge">
<title>1&#45;&gt;2</title>
<path fill="none" stroke="black" d="M174.13,-58.69C190.67,-50.66 215.86,-38.44 234.32,-29.49"/>
<polygon fill="black" stroke="black" points="240.78,-26.35 235.86,-32.24 237.63,-27.88 234.48,-29.41 234.48,-29.41 234.48,-29.41 237.63,-27.88 233.11,-26.57 240.78,-26.35 240.78,-26.35"/>
<text text-anchor="start" x="192" y="-52.4" font-family="Lato" font-size="12.00">!a &amp; b</text>
</g>
<!-- 2&#45;&gt;0 -->
<g id="edge8" class="edge">
<title>2&#45;&gt;0</title>
<path fill="none" stroke="black" d="M240.82,-13.72C217.43,-8.51 174.34,-1.1 138,-7 118.33,-10.19 96.99,-17.48 81.15,-23.67"/>
<polygon fill="black" stroke="black" points="74.29,-26.43 79.61,-20.9 77.53,-25.12 80.78,-23.82 80.78,-23.82 80.78,-23.82 77.53,-25.12 81.95,-26.74 74.29,-26.43 74.29,-26.43"/>
<text text-anchor="start" x="152.5" y="-10.4" font-family="Lato" font-size="12.00">a</text>
</g>
<!-- 2&#45;&gt;2 -->
<g id="edge9" class="edge">
<title>2&#45;&gt;2</title>
<path fill="none" stroke="black" d="M249.95,-36.15C248.56,-45.54 251.58,-54 259,-54 264.45,-54 267.52,-49.44 268.22,-43.3"/>
<polygon fill="black" stroke="black" points="268.05,-36.15 271.37,-43.07 268.13,-39.65 268.22,-43.15 268.22,-43.15 268.22,-43.15 268.13,-39.65 265.07,-43.23 268.05,-36.15 268.05,-36.15"/>
<text text-anchor="start" x="254" y="-57.4" font-family="Lato" font-size="12.00">!a</text>
</g>
</g>
</svg>
