<?xml version="1.0" encoding="UTF-8" standalone="no"?>
<?xml-stylesheet href="spot.css" type="text/css"?>
<!DOCTYPE svg PUBLIC "-//W3C//DTD SVG 1.1//EN"
 "http://www.w3.org/Graphics/SVG/1.1/DTD/svg11.dtd">
<!-- Generated by graphviz version 2.43.0 (0)
 -->
<!-- Title: GF(a &amp; X(a U b)) Pages: 1 -->
<svg width="188pt" height="172pt"
 viewBox="0.00 0.00 188.00 172.34" xmlns="http://www.w3.org/2000/svg" xmlns:xlink="http://www.w3.org/1999/xlink">
<g id="graph0" class="graph" transform="scale(1 1) rotate(0) translate(4 168.34)">
<title>GF(a &amp; X(a U b))</title>
<polygon fill="white" stroke="transparent" points="-4,4 -4,-168.34 184,-168.34 184,4 -4,4"/>
<text text-anchor="start" x="72" y="-151.74" font-family="Lato" font-size="12.00">Inf(</text>
<text text-anchor="start" x="90" y="-151.74" font-family="Lato" font-size="12.00" fill="#1f78b4">⓿</text>
<text text-anchor="start" x="104" y="-151.74" font-family="Lato" font-size="12.00">)</text>
<text text-anchor="start" x="71" y="-139.74" font-family="Lato" font-size="12.00">[Büchi]</text>
<!-- I -->
<!-- 1 -->
<g id="node2" class="node">
<title>1</title>
<ellipse fill="#ffffa0" stroke="black" cx="56" cy="-39.34" rx="18" ry="18"/>
<text text-anchor="middle" x="56" y="-36.24" font-family="Lato" font-size="12.00">1</text>
</g>
<!-- I&#45;&gt;1 -->
<g id="edge1" class="edge">
<title>I&#45;&gt;1</title>
<path fill="none" stroke="black" d="M1.15,-39.34C2.79,-39.34 17.15,-39.34 30.63,-39.34"/>
<polygon fill="black" stroke="black" points="37.94,-39.34 30.94,-42.49 34.44,-39.34 30.94,-39.34 30.94,-39.34 30.94,-39.34 34.44,-39.34 30.94,-36.19 37.94,-39.34 37.94,-39.34"/>
</g>
<!-- 1&#45;&gt;1 -->
<g id="edge6" class="edge">
<title>1&#45;&gt;1</title>
<path fill="none" stroke="black" d="M52.76,-57.12C52.21,-66.65 53.29,-75.34 56,-75.34 57.99,-75.34 59.1,-70.65 59.33,-64.39"/>
<polygon fill="black" stroke="black" points="59.24,-57.12 62.48,-64.08 59.28,-60.62 59.33,-64.12 59.33,-64.12 59.33,-64.12 59.28,-60.62 56.18,-64.16 59.24,-57.12 59.24,-57.12"/>
<text text-anchor="start" x="40.5" y="-78.74" font-family="Lato" font-size="12.00">a &amp; !b</text>
</g>
<!-- 1&#45;&gt;1 -->
<g id="edge7" class="edge">
<title>1&#45;&gt;1</title>
<path fill="none" stroke="black" d="M50.68,-56.76C47.65,-74.13 49.43,-93.34 56,-93.34 61.7,-93.34 63.79,-78.89 62.27,-63.73"/>
<polygon fill="black" stroke="black" points="61.32,-56.76 65.39,-63.27 61.79,-60.23 62.26,-63.69 62.26,-63.69 62.26,-63.69 61.79,-60.23 59.14,-64.12 61.32,-56.76 61.32,-56.76"/>
<text text-anchor="start" x="42" y="-109.74" font-family="Lato" font-size="12.00">a &amp; b</text>
<text text-anchor="start" x="49" y="-96.74" font-family="Lato" font-size="12.00" fill="#1f78b4">⓿</text>
</g>
<!-- 0 -->
<g id="node3" class="node">
<title>0</title>
<ellipse fill="#ffffa0" stroke="black" cx="162" cy="-39.34" rx="18" ry="18"/>
<text text-anchor="middle" x="162" y="-36.24" font-family="Lato" font-size="12.00">0</text>
</g>
<!-- 1&#45;&gt;0 -->
<g id="edge4" class="edge">
<title>1&#45;&gt;0</title>
<path fill="none" stroke="black" d="M69.07,-51.87C75.32,-57.45 83.43,-63.42 92,-66.34 106.3,-71.21 111.7,-71.21 126,-66.34 132.16,-64.24 138.08,-60.56 143.24,-56.59"/>
<polygon fill="black" stroke="black" points="148.93,-51.87 145.56,-58.77 146.23,-54.11 143.54,-56.34 143.54,-56.34 143.54,-56.34 146.23,-54.11 141.53,-53.92 148.93,-51.87 148.93,-51.87"/>
<text text-anchor="start" x="92" y="-72.74" font-family="Lato" font-size="12.00">!a &amp; !b</text>
</g>
<!-- 1&#45;&gt;0 -->
<g id="edge5" class="edge">
<title>1&#45;&gt;0</title>
<path fill="none" stroke="black" d="M74.07,-37.58C79.77,-37.07 86.15,-36.59 92,-36.34 107.1,-35.69 110.9,-35.69 126,-36.34 129.47,-36.49 133.13,-36.72 136.73,-36.99"/>
<polygon fill="black" stroke="black" points="143.93,-37.58 136.69,-40.14 140.44,-37.29 136.95,-37 136.95,-37 136.95,-37 140.44,-37.29 137.21,-33.87 143.93,-37.58 143.93,-37.58"/>
<text text-anchor="start" x="93.5" y="-52.74" font-family="Lato" font-size="12.00">!a &amp; b</text>
<text text-anchor="start" x="102" y="-39.74" font-family="Lato" font-size="12.00" fill="#1f78b4">⓿</text>
</g>
<!-- 0&#45;&gt;1 -->
<g id="edge3" class="edge">
<title>0&#45;&gt;1</title>
<path fill="none" stroke="black" d="M151.12,-24.99C144.91,-17.3 136.16,-8.55 126,-4.34 112.04,1.45 105.96,1.45 92,-4.34 84.22,-7.56 77.27,-13.44 71.65,-19.48"/>
<polygon fill="black" stroke="black" points="66.88,-24.99 69.08,-17.64 69.17,-22.35 71.46,-19.7 71.46,-19.7 71.46,-19.7 69.17,-22.35 73.84,-21.76 66.88,-24.99 66.88,-24.99"/>
<text text-anchor="start" x="105.5" y="-7.74" font-family="Lato" font-size="12.00">a</text>
</g>
<!-- 0&#45;&gt;0 -->
<g id="edge2" class="edge">
<title>0&#45;&gt;0</title>
<path fill="none" stroke="black" d="M153.02,-55.25C150.68,-65.49 153.67,-75.34 162,-75.34 168.38,-75.34 171.63,-69.56 171.75,-62.26"/>
<polygon fill="black" stroke="black" points="170.98,-55.25 174.87,-61.87 171.36,-58.73 171.74,-62.21 171.74,-62.21 171.74,-62.21 171.36,-58.73 168.61,-62.55 170.98,-55.25 170.98,-55.25"/>
<text text-anchor="start" x="157" y="-78.74" font-family="Lato" font-size="12.00">!a</text>
</g>
</g>
</svg>
