<?xml version="1.0" encoding="UTF-8" standalone="no"?>
<?xml-stylesheet href="spot.css" type="text/css"?>
<!DOCTYPE svg PUBLIC "-//W3C//DTD SVG 1.1//EN"
 "http://www.w3.org/Graphics/SVG/1.1/DTD/svg11.dtd">
<!-- Generated by graphviz version 2.43.0 (0)
 -->
<!-- Title: G(!door_open | light_on) Pages: 1 -->
<svg width="278pt" height="104pt"
 viewBox="0.00 0.00 278.00 104.00" xmlns="http://www.w3.org/2000/svg" xmlns:xlink="http://www.w3.org/1999/xlink">
<g id="graph0" class="graph" transform="scale(1 1) rotate(0) translate(4 100)">
<title>G(!door_open | light_on)</title>
<polygon fill="white" stroke="transparent" points="-4,4 -4,-100 274,-100 274,4 -4,4"/>
<text text-anchor="start" x="116" y="-82.4" font-family="Lato" font-size="12.00">[Büchi]</text>
<!-- I -->
<!-- 0 -->
<g id="node2" class="node">
<title>0</title>
<ellipse fill="#ffffa0" stroke="black" cx="60" cy="-22" rx="18" ry="18"/>
<ellipse fill="none" stroke="black" cx="60" cy="-22" rx="22" ry="22"/>
<text text-anchor="middle" x="60" y="-18.9" font-family="Lato" font-size="12.00">0</text>
</g>
<!-- I&#45;&gt;0 -->
<g id="edge1" class="edge">
<title>I&#45;&gt;0</title>
<path fill="none" stroke="black" d="M1.17,-22C2.84,-22 16.88,-22 30.71,-22"/>
<polygon fill="black" stroke="black" points="37.86,-22 30.86,-25.15 34.36,-22 30.86,-22 30.86,-22 30.86,-22 34.36,-22 30.86,-18.85 37.86,-22 37.86,-22"/>
</g>
<!-- 0&#45;&gt;0 -->
<g id="edge2" class="edge">
<title>0&#45;&gt;0</title>
<path fill="none" stroke="black" d="M52.68,-42.99C51.78,-53.09 54.22,-62 60,-62 64.34,-62 66.79,-56.99 67.37,-50.22"/>
<polygon fill="black" stroke="black" points="67.32,-42.99 70.52,-49.97 67.34,-46.49 67.37,-49.99 67.37,-49.99 67.37,-49.99 67.34,-46.49 64.22,-50.01 67.32,-42.99 67.32,-42.99"/>
<text text-anchor="start" x="4.5" y="-65.4" font-family="Lato" font-size="12.00">!door_open | light_on</text>
</g>
<!-- 1 -->
<g id="node3" class="node">
<title>1</title>
<ellipse fill="#ffffa0" stroke="black" cx="252" cy="-22" rx="18" ry="18"/>
<text text-anchor="middle" x="252" y="-18.9" font-family="Lato" font-size="12.00">1</text>
</g>
<!-- 0&#45;&gt;1 -->
<g id="edge3" class="edge">
<title>0&#45;&gt;1</title>
<path fill="none" stroke="black" d="M82.06,-22C117.57,-22 189.14,-22 226.71,-22"/>
<polygon fill="black" stroke="black" points="233.75,-22 226.75,-25.15 230.25,-22 226.75,-22 226.75,-22 226.75,-22 230.25,-22 226.75,-18.85 233.75,-22 233.75,-22"/>
<text text-anchor="start" x="100" y="-25.4" font-family="Lato" font-size="12.00">door_open &amp; !light_on</text>
</g>
<!-- 1&#45;&gt;1 -->
<g id="edge4" class="edge">
<title>1&#45;&gt;1</title>
<path fill="none" stroke="black" d="M237.99,-33.8C230.26,-45.33 234.93,-58 252,-58 265.87,-58 271.56,-49.64 269.05,-40.31"/>
<polygon fill="black" stroke="black" points="266.01,-33.8 271.82,-38.81 267.49,-36.97 268.97,-40.14 268.97,-40.14 268.97,-40.14 267.49,-36.97 266.11,-41.47 266.01,-33.8 266.01,-33.8"/>
<text text-anchor="middle" x="252" y="-61.4" font-family="Lato" font-size="12.00">1</text>
</g>
</g>
</svg>
