<?xml version="1.0" encoding="UTF-8" standalone="no"?>
<?xml-stylesheet href="spot.css" type="text/css"?>
<!DOCTYPE svg PUBLIC "-//W3C//DTD SVG 1.1//EN"
 "http://www.w3.org/Graphics/SVG/1.1/DTD/svg11.dtd">
<!-- Generated by graphviz version 2.43.0 (0)
 -->
<!-- Pages: 1 -->
<svg width="176pt" height="76pt"
 viewBox="0.00 0.00 176.00 75.64" xmlns="http://www.w3.org/2000/svg" xmlns:xlink="http://www.w3.org/1999/xlink">
<g id="graph0" class="graph" transform="scale(1 1) rotate(0) translate(4 71.64)">
<polygon fill="white" stroke="transparent" points="-4,4 -4,-71.64 172,-71.64 172,4 -4,4"/>
<!-- I -->
<!-- 0 -->
<g id="node2" class="node">
<title>0</title>
<ellipse fill="#ffffa0" stroke="black" cx="56" cy="-18.64" rx="18" ry="18"/>
<text text-anchor="middle" x="56" y="-15.54" font-family="Lato" font-size="12.00">0</text>
</g>
<!-- I&#45;&gt;0 -->
<g id="edge1" class="edge">
<title>I&#45;&gt;0</title>
<path fill="none" stroke="black" d="M1.15,-18.64C2.79,-18.64 17.15,-18.64 30.63,-18.64"/>
<polygon fill="black" stroke="black" points="37.94,-18.64 30.94,-21.79 34.44,-18.64 30.94,-18.64 30.94,-18.64 30.94,-18.64 34.44,-18.64 30.94,-15.49 37.94,-18.64 37.94,-18.64"/>
</g>
<!-- 0&#45;&gt;0 -->
<g id="edge2" class="edge">
<title>0&#45;&gt;0</title>
<path fill="none" stroke="black" d="M49.62,-35.68C48.32,-45.5 50.45,-54.64 56,-54.64 60.17,-54.64 62.4,-49.5 62.71,-42.79"/>
<polygon fill="black" stroke="black" points="62.38,-35.68 65.85,-42.53 62.54,-39.18 62.71,-42.67 62.71,-42.67 62.71,-42.67 62.54,-39.18 59.56,-42.82 62.38,-35.68 62.38,-35.68"/>
<text text-anchor="start" x="51" y="-58.04" font-family="Lato" font-size="12.00">!b</text>
</g>
<!-- 1 -->
<g id="node3" class="node">
<title>1</title>
<ellipse fill="#ffffa0" stroke="black" cx="150" cy="-18.64" rx="18" ry="18"/>
<text text-anchor="middle" x="150" y="-15.54" font-family="Lato" font-size="12.00">1</text>
</g>
<!-- 0&#45;&gt;1 -->
<g id="edge3" class="edge">
<title>0&#45;&gt;1</title>
<path fill="none" stroke="black" d="M74.3,-18.64C88.44,-18.64 108.59,-18.64 124.41,-18.64"/>
<polygon fill="black" stroke="black" points="131.77,-18.64 124.77,-21.79 128.27,-18.64 124.77,-18.64 124.77,-18.64 124.77,-18.64 128.27,-18.64 124.77,-15.49 131.77,-18.64 131.77,-18.64"/>
<text text-anchor="start" x="99.5" y="-22.04" font-family="Lato" font-size="12.00">b</text>
</g>
<!-- 1&#45;&gt;0 -->
<g id="edge4" class="edge">
<title>1&#45;&gt;0</title>
<path fill="none" stroke="black" d="M134.22,-9.63C128.18,-6.44 120.98,-3.25 114,-1.64 104.47,0.55 101.53,0.55 92,-1.64 87.42,-2.7 82.75,-4.43 78.36,-6.4"/>
<polygon fill="black" stroke="black" points="71.78,-9.63 76.68,-3.72 74.92,-8.09 78.07,-6.55 78.07,-6.55 78.07,-6.55 74.92,-8.09 79.45,-9.38 71.78,-9.63 71.78,-9.63"/>
<text text-anchor="start" x="92" y="-5.04" font-family="Lato" font-size="12.00">a | b</text>
</g>
<!-- 1&#45;&gt;1 -->
<g id="edge5" class="edge">
<title>1&#45;&gt;1</title>
<path fill="none" stroke="black" d="M141.98,-34.93C140.05,-45.03 142.72,-54.64 150,-54.64 155.46,-54.64 158.33,-49.24 158.6,-42.27"/>
<polygon fill="black" stroke="black" points="158.02,-34.93 161.71,-41.66 158.3,-38.42 158.57,-41.91 158.57,-41.91 158.57,-41.91 158.3,-38.42 155.43,-42.16 158.02,-34.93 158.02,-34.93"/>
<text text-anchor="start" x="133" y="-58.04" font-family="Lato" font-size="12.00">!a &amp; !b</text>
</g>
</g>
</svg>
