<?xml version="1.0" encoding="UTF-8" standalone="no"?>
<?xml-stylesheet href="spot.css" type="text/css"?>
<!DOCTYPE svg PUBLIC "-//W3C//DTD SVG 1.1//EN"
 "http://www.w3.org/Graphics/SVG/1.1/DTD/svg11.dtd">
<!-- Generated by graphviz version 2.43.0 (0)
 -->
<!-- Pages: 1 -->
<svg width="240pt" height="109pt"
 viewBox="0.00 0.00 240.00 109.00" xmlns="http://www.w3.org/2000/svg" xmlns:xlink="http://www.w3.org/1999/xlink">
<g id="graph0" class="graph" transform="scale(1 1) rotate(0) translate(4 105)">
<polygon fill="white" stroke="transparent" points="-4,4 -4,-105 236,-105 236,4 -4,4"/>
<text text-anchor="start" x="113.5" y="-87.4" font-family="Lato" font-size="12.00">t</text>
<text text-anchor="start" x="106.5" y="-74.4" font-family="Lato" font-size="12.00">[all]</text>
<!-- I -->
<!-- 1 -->
<g id="node2" class="node">
<title>1</title>
<ellipse fill="#ffffa0" stroke="#1f78b4" stroke-width="2" cx="56" cy="-18" rx="18" ry="18"/>
<text text-anchor="middle" x="56" y="-14.9" font-family="Lato" font-size="12.00">1</text>
</g>
<!-- I&#45;&gt;1 -->
<g id="edge1" class="edge">
<title>I&#45;&gt;1</title>
<path fill="none" stroke="black" d="M1.15,-18C2.79,-18 17.15,-18 30.63,-18"/>
<polygon fill="black" stroke="black" points="37.94,-18 30.94,-21.15 34.44,-18 30.94,-18 30.94,-18 30.94,-18 34.44,-18 30.94,-14.85 37.94,-18 37.94,-18"/>
</g>
<!-- 2 -->
<g id="node4" class="node">
<title>2</title>
<ellipse fill="#ffffa0" stroke="#6a3d9a" stroke-width="2" cx="135" cy="-18" rx="18" ry="18"/>
<text text-anchor="middle" x="135" y="-14.9" font-family="Lato" font-size="12.00">2</text>
</g>
<!-- 1&#45;&gt;2 -->
<g id="edge3" class="edge">
<title>1&#45;&gt;2</title>
<path fill="none" stroke="#ff7f00" stroke-width="2" d="M74.09,-18C84.56,-18 98.12,-18 109.69,-18"/>
<polygon fill="#ff7f00" stroke="#ff7f00" stroke-width="2" points="116.96,-18 109.96,-21.15 113.46,-18.5 109.96,-18.5 109.96,-18 109.96,-17.5 113.46,-17.5 109.96,-14.85 116.96,-18 116.96,-18"/>
<text text-anchor="middle" x="95.5" y="-21.4" font-family="Lato" font-size="12.00">1</text>
<text text-anchor="middle" x="81.09" y="-8.4" font-family="Lato" font-size="12.00">#2</text>
</g>
<!-- 0 -->
<g id="node3" class="node">
<title>0</title>
<ellipse fill="#ffffa0" stroke="black" cx="214" cy="-18" rx="18" ry="18"/>
<text text-anchor="middle" x="214" y="-14.9" font-family="Lato" font-size="12.00">0</text>
</g>
<!-- 0&#45;&gt;0 -->
<g id="edge2" class="edge">
<title>0&#45;&gt;0</title>
<path fill="none" stroke="#ff4da0" stroke-width="2" d="M207.27,-35.04C205.89,-44.86 208.14,-54 214,-54 218.4,-54 220.76,-48.86 221.09,-42.14"/>
<polygon fill="#ff4da0" stroke="#ff4da0" stroke-width="2" points="220.73,-35.04 224.23,-41.87 221.41,-38.51 221.58,-42 221.08,-42.03 220.58,-42.05 220.41,-38.56 217.93,-42.18 220.73,-35.04 220.73,-35.04"/>
<text text-anchor="middle" x="214" y="-57.4" font-family="Lato" font-size="12.00">1</text>
<text text-anchor="middle" x="200.27" y="-38.44" font-family="Lato" font-size="12.00">#1</text>
</g>
<!-- 2&#45;&gt;0 -->
<g id="edge4" class="edge">
<title>2&#45;&gt;0</title>
<path fill="none" stroke="black" d="M153.09,-18C163.56,-18 177.12,-18 188.69,-18"/>
<polygon fill="black" stroke="black" points="195.96,-18 188.96,-21.15 192.46,-18 188.96,-18 188.96,-18 188.96,-18 192.46,-18 188.96,-14.85 195.96,-18 195.96,-18"/>
<text text-anchor="start" x="171" y="-21.4" font-family="Lato" font-size="12.00">b</text>
<text text-anchor="middle" x="160.09" y="-8.4" font-family="Lato" font-size="12.00">#3</text>
</g>
<!-- 2&#45;&gt;2 -->
<g id="edge5" class="edge">
<title>2&#45;&gt;2</title>
<path fill="none" stroke="black" d="M128.27,-35.04C126.89,-44.86 129.14,-54 135,-54 139.4,-54 141.76,-48.86 142.09,-42.14"/>
<polygon fill="black" stroke="black" points="141.73,-35.04 145.23,-41.87 141.91,-38.53 142.08,-42.03 142.08,-42.03 142.08,-42.03 141.91,-38.53 138.93,-42.18 141.73,-35.04 141.73,-35.04"/>
<text text-anchor="start" x="119.5" y="-57.4" font-family="Lato" font-size="12.00">a &amp; !b</text>
<text text-anchor="middle" x="121.27" y="-38.44" font-family="Lato" font-size="12.00">#4</text>
</g>
</g>
</svg>
