<?xml version="1.0" encoding="UTF-8" standalone="no"?>
<?xml-stylesheet href="spot.css" type="text/css"?>
<!DOCTYPE svg PUBLIC "-//W3C//DTD SVG 1.1//EN"
 "http://www.w3.org/Graphics/SVG/1.1/DTD/svg11.dtd">
<!-- Generated by graphviz version 2.43.0 (0)
 -->
<!-- Title: G(Fa &amp; Fb) Pages: 1 -->
<svg width="285pt" height="169pt"
 viewBox="0.00 0.00 285.00 169.00" xmlns="http://www.w3.org/2000/svg" xmlns:xlink="http://www.w3.org/1999/xlink">
<g id="graph0" class="graph" transform="scale(1 1) rotate(0) translate(4 165)">
<title>G(Fa &amp; Fb)</title>
<polygon fill="white" stroke="transparent" points="-4,4 -4,-165 281,-165 281,4 -4,4"/>
<text text-anchor="start" x="120.5" y="-148.4" font-family="Lato" font-size="12.00">Inf(</text>
<text text-anchor="start" x="138.5" y="-148.4" font-family="Lato" font-size="12.00" fill="#1f78b4">⓿</text>
<text text-anchor="start" x="152.5" y="-148.4" font-family="Lato" font-size="12.00">)</text>
<text text-anchor="start" x="119.5" y="-136.4" font-family="Lato" font-size="12.00">[Büchi]</text>
<!-- I -->
<!-- 0 -->
<g id="node2" class="node">
<title>0</title>
<ellipse fill="#ffffa0" stroke="black" cx="56" cy="-34" rx="18" ry="18"/>
<text text-anchor="middle" x="56" y="-30.9" font-family="Lato" font-size="12.00">0</text>
</g>
<!-- I&#45;&gt;0 -->
<g id="edge1" class="edge">
<title>I&#45;&gt;0</title>
<path fill="none" stroke="black" d="M1.15,-34C2.79,-34 17.15,-34 30.63,-34"/>
<polygon fill="black" stroke="black" points="37.94,-34 30.94,-37.15 34.44,-34 30.94,-34 30.94,-34 30.94,-34 34.44,-34 30.94,-30.85 37.94,-34 37.94,-34"/>
</g>
<!-- 0&#45;&gt;0 -->
<g id="edge2" class="edge">
<title>0&#45;&gt;0</title>
<path fill="none" stroke="black" d="M49.62,-51.04C48.32,-60.86 50.45,-70 56,-70 60.17,-70 62.4,-64.86 62.71,-58.14"/>
<polygon fill="black" stroke="black" points="62.38,-51.04 65.85,-57.88 62.54,-54.53 62.71,-58.03 62.71,-58.03 62.71,-58.03 62.54,-54.53 59.56,-58.18 62.38,-51.04 62.38,-51.04"/>
<text text-anchor="start" x="42" y="-86.4" font-family="Lato" font-size="12.00">a &amp; b</text>
<text text-anchor="start" x="49" y="-73.4" font-family="Lato" font-size="12.00" fill="#1f78b4">⓿</text>
</g>
<!-- 1 -->
<g id="node3" class="node">
<title>1</title>
<ellipse fill="#ffffa0" stroke="black" cx="156" cy="-80" rx="18" ry="18"/>
<text text-anchor="middle" x="156" y="-76.9" font-family="Lato" font-size="12.00">1</text>
</g>
<!-- 0&#45;&gt;1 -->
<g id="edge3" class="edge">
<title>0&#45;&gt;1</title>
<path fill="none" stroke="black" d="M68.82,-47.15C75.13,-53.42 83.36,-60.51 92,-65 103.98,-71.23 118.58,-74.91 130.71,-77.07"/>
<polygon fill="black" stroke="black" points="137.9,-78.23 130.49,-80.22 134.44,-77.67 130.99,-77.11 130.99,-77.11 130.99,-77.11 134.44,-77.67 131.49,-74 137.9,-78.23 137.9,-78.23"/>
<text text-anchor="start" x="101" y="-90.4" font-family="Lato" font-size="12.00">!b</text>
<text text-anchor="start" x="99" y="-77.4" font-family="Lato" font-size="12.00" fill="#1f78b4">⓿</text>
</g>
<!-- 2 -->
<g id="node4" class="node">
<title>2</title>
<ellipse fill="#ffffa0" stroke="black" cx="259" cy="-18" rx="18" ry="18"/>
<text text-anchor="middle" x="259" y="-14.9" font-family="Lato" font-size="12.00">2</text>
</g>
<!-- 0&#45;&gt;2 -->
<g id="edge4" class="edge">
<title>0&#45;&gt;2</title>
<path fill="none" stroke="black" d="M74.06,-32.47C90.45,-31.01 115.91,-28.78 138,-27 171.21,-24.32 209.62,-21.49 233.86,-19.73"/>
<polygon fill="black" stroke="black" points="240.91,-19.22 234.15,-22.87 237.41,-19.47 233.92,-19.73 233.92,-19.73 233.92,-19.73 237.41,-19.47 233.7,-16.58 240.91,-19.22 240.91,-19.22"/>
<text text-anchor="start" x="140.5" y="-43.4" font-family="Lato" font-size="12.00">!a &amp; b</text>
<text text-anchor="start" x="149" y="-30.4" font-family="Lato" font-size="12.00" fill="#1f78b4">⓿</text>
</g>
<!-- 1&#45;&gt;0 -->
<g id="edge5" class="edge">
<title>1&#45;&gt;0</title>
<path fill="none" stroke="black" d="M143.59,-66.69C137.28,-60.12 128.91,-52.64 120,-48 108.06,-41.79 93.46,-38.33 81.33,-36.4"/>
<polygon fill="black" stroke="black" points="74.13,-35.39 81.5,-33.24 77.6,-35.87 81.06,-36.36 81.06,-36.36 81.06,-36.36 77.6,-35.87 80.62,-39.48 74.13,-35.39 74.13,-35.39"/>
<text text-anchor="start" x="92" y="-51.4" font-family="Lato" font-size="12.00">a &amp; b</text>
</g>
<!-- 1&#45;&gt;1 -->
<g id="edge6" class="edge">
<title>1&#45;&gt;1</title>
<path fill="none" stroke="black" d="M147.37,-95.92C145.11,-106.15 147.99,-116 156,-116 162.13,-116 165.25,-110.23 165.37,-102.93"/>
<polygon fill="black" stroke="black" points="164.63,-95.92 168.5,-102.55 165,-99.4 165.37,-102.88 165.37,-102.88 165.37,-102.88 165,-99.4 162.23,-103.21 164.63,-95.92 164.63,-95.92"/>
<text text-anchor="start" x="151" y="-119.4" font-family="Lato" font-size="12.00">!b</text>
</g>
<!-- 1&#45;&gt;2 -->
<g id="edge7" class="edge">
<title>1&#45;&gt;2</title>
<path fill="none" stroke="black" d="M171.9,-70.85C189.23,-60.21 217.94,-42.59 237.4,-30.65"/>
<polygon fill="black" stroke="black" points="243.36,-26.98 239.05,-33.33 240.38,-28.82 237.4,-30.65 237.4,-30.65 237.4,-30.65 240.38,-28.82 235.75,-27.96 243.36,-26.98 243.36,-26.98"/>
<text text-anchor="start" x="192" y="-61.4" font-family="Lato" font-size="12.00">!a &amp; b</text>
</g>
<!-- 2&#45;&gt;0 -->
<g id="edge8" class="edge">
<title>2&#45;&gt;0</title>
<path fill="none" stroke="black" d="M241.21,-13.81C217.92,-8.6 174.55,-1.07 138,-7 117.7,-10.29 95.61,-17.95 79.63,-24.27"/>
<polygon fill="black" stroke="black" points="72.75,-27.06 78.06,-21.51 76,-25.74 79.24,-24.43 79.24,-24.43 79.24,-24.43 76,-25.74 80.42,-27.35 72.75,-27.06 72.75,-27.06"/>
<text text-anchor="start" x="152.5" y="-10.4" font-family="Lato" font-size="12.00">a</text>
</g>
<!-- 2&#45;&gt;2 -->
<g id="edge9" class="edge">
<title>2&#45;&gt;2</title>
<path fill="none" stroke="black" d="M250.37,-33.92C248.11,-44.15 250.99,-54 259,-54 265.13,-54 268.25,-48.23 268.37,-40.93"/>
<polygon fill="black" stroke="black" points="267.63,-33.92 271.5,-40.55 268,-37.4 268.37,-40.88 268.37,-40.88 268.37,-40.88 268,-37.4 265.23,-41.21 267.63,-33.92 267.63,-33.92"/>
<text text-anchor="start" x="254" y="-57.4" font-family="Lato" font-size="12.00">!a</text>
</g>
</g>
</svg>
