<?xml version="1.0" encoding="UTF-8" standalone="no"?>
<?xml-stylesheet href="spot.css" type="text/css"?>
<!DOCTYPE svg PUBLIC "-//W3C//DTD SVG 1.1//EN"
 "http://www.w3.org/Graphics/SVG/1.1/DTD/svg11.dtd">
<!-- Generated by graphviz version 2.43.0 (0)
 -->
<!-- Title: G(Fa &amp; Fb) Pages: 1 -->
<svg width="293pt" height="145pt"
 viewBox="0.00 0.00 293.00 145.00" xmlns="http://www.w3.org/2000/svg" xmlns:xlink="http://www.w3.org/1999/xlink">
<g id="graph0" class="graph" transform="scale(1 1) rotate(0) translate(4 141)">
<title>G(Fa &amp; Fb)</title>
<polygon fill="white" stroke="transparent" points="-4,4 -4,-141 289,-141 289,4 -4,4"/>
<text text-anchor="start" x="123.5" y="-123.4" font-family="Lato" font-size="12.00">[Büchi]</text>
<!-- I -->
<!-- 0 -->
<g id="node2" class="node">
<title>0</title>
<ellipse fill="#ffffa0" stroke="black" cx="60" cy="-34" rx="18" ry="18"/>
<ellipse fill="none" stroke="black" cx="60" cy="-34" rx="22" ry="22"/>
<text text-anchor="middle" x="60" y="-30.9" font-family="Lato" font-size="12.00">0</text>
</g>
<!-- I&#45;&gt;0 -->
<g id="edge1" class="edge">
<title>I&#45;&gt;0</title>
<path fill="none" stroke="black" d="M1.17,-34C2.84,-34 16.88,-34 30.71,-34"/>
<polygon fill="black" stroke="black" points="37.86,-34 30.86,-37.15 34.36,-34 30.86,-34 30.86,-34 30.86,-34 34.36,-34 30.86,-30.85 37.86,-34 37.86,-34"/>
</g>
<!-- 0&#45;&gt;0 -->
<g id="edge2" class="edge">
<title>0&#45;&gt;0</title>
<path fill="none" stroke="black" d="M52.68,-54.99C51.78,-65.09 54.22,-74 60,-74 64.34,-74 66.79,-68.99 67.37,-62.22"/>
<polygon fill="black" stroke="black" points="67.32,-54.99 70.52,-61.97 67.34,-58.49 67.37,-61.99 67.37,-61.99 67.37,-61.99 67.34,-58.49 64.22,-62.01 67.32,-54.99 67.32,-54.99"/>
<text text-anchor="start" x="46" y="-77.4" font-family="Lato" font-size="12.00">a &amp; b</text>
</g>
<!-- 1 -->
<g id="node3" class="node">
<title>1</title>
<ellipse fill="#ffffa0" stroke="black" cx="164" cy="-67" rx="18" ry="18"/>
<text text-anchor="middle" x="164" y="-63.9" font-family="Lato" font-size="12.00">1</text>
</g>
<!-- 0&#45;&gt;1 -->
<g id="edge3" class="edge">
<title>0&#45;&gt;1</title>
<path fill="none" stroke="black" d="M75.87,-49.55C82.61,-55.54 91.07,-61.72 100,-65 112.34,-69.53 126.96,-70.25 139.01,-69.74"/>
<polygon fill="black" stroke="black" points="146.14,-69.28 139.35,-72.87 142.65,-69.5 139.15,-69.73 139.15,-69.73 139.15,-69.73 142.65,-69.5 138.95,-66.58 146.14,-69.28 146.14,-69.28"/>
<text text-anchor="start" x="109" y="-72.4" font-family="Lato" font-size="12.00">!b</text>
</g>
<!-- 2 -->
<g id="node4" class="node">
<title>2</title>
<ellipse fill="#ffffa0" stroke="black" cx="267" cy="-18" rx="18" ry="18"/>
<text text-anchor="middle" x="267" y="-14.9" font-family="Lato" font-size="12.00">2</text>
</g>
<!-- 0&#45;&gt;2 -->
<g id="edge4" class="edge">
<title>0&#45;&gt;2</title>
<path fill="none" stroke="black" d="M81.96,-32.23C99.16,-30.79 124.15,-28.72 146,-27 179.22,-24.39 217.63,-21.54 241.86,-19.76"/>
<polygon fill="black" stroke="black" points="248.91,-19.24 242.16,-22.9 245.42,-19.5 241.93,-19.75 241.93,-19.75 241.93,-19.75 245.42,-19.5 241.7,-16.61 248.91,-19.24 248.91,-19.24"/>
<text text-anchor="start" x="148.5" y="-30.4" font-family="Lato" font-size="12.00">!a &amp; b</text>
</g>
<!-- 1&#45;&gt;0 -->
<g id="edge5" class="edge">
<title>1&#45;&gt;0</title>
<path fill="none" stroke="black" d="M148.46,-57.87C142.33,-54.36 135.01,-50.57 128,-48 115.5,-43.41 101.12,-40.16 88.88,-37.95"/>
<polygon fill="black" stroke="black" points="81.96,-36.77 89.39,-34.84 85.41,-37.36 88.86,-37.95 88.86,-37.95 88.86,-37.95 85.41,-37.36 88.33,-41.05 81.96,-36.77 81.96,-36.77"/>
<text text-anchor="start" x="100" y="-51.4" font-family="Lato" font-size="12.00">a &amp; b</text>
</g>
<!-- 1&#45;&gt;1 -->
<g id="edge6" class="edge">
<title>1&#45;&gt;1</title>
<path fill="none" stroke="black" d="M155.37,-82.92C153.11,-93.15 155.99,-103 164,-103 170.13,-103 173.25,-97.23 173.37,-89.93"/>
<polygon fill="black" stroke="black" points="172.63,-82.92 176.5,-89.55 173,-86.4 173.37,-89.88 173.37,-89.88 173.37,-89.88 173,-86.4 170.23,-90.21 172.63,-82.92 172.63,-82.92"/>
<text text-anchor="start" x="159" y="-106.4" font-family="Lato" font-size="12.00">!b</text>
</g>
<!-- 1&#45;&gt;2 -->
<g id="edge7" class="edge">
<title>1&#45;&gt;2</title>
<path fill="none" stroke="black" d="M180.78,-59.34C197.68,-51.15 224.63,-38.07 243.7,-28.82"/>
<polygon fill="black" stroke="black" points="250.33,-25.6 245.41,-31.49 247.18,-27.13 244.03,-28.66 244.03,-28.66 244.03,-28.66 247.18,-27.13 242.66,-25.82 250.33,-25.6 250.33,-25.6"/>
<text text-anchor="start" x="200" y="-52.4" font-family="Lato" font-size="12.00">!a &amp; b</text>
</g>
<!-- 2&#45;&gt;0 -->
<g id="edge8" class="edge">
<title>2&#45;&gt;0</title>
<path fill="none" stroke="black" d="M249.22,-13.88C225.95,-8.76 182.59,-1.33 146,-7 125.78,-10.13 103.79,-17.22 87.25,-23.35"/>
<polygon fill="black" stroke="black" points="80.51,-25.91 85.94,-20.48 83.78,-24.67 87.05,-23.43 87.05,-23.43 87.05,-23.43 83.78,-24.67 88.17,-26.37 80.51,-25.91 80.51,-25.91"/>
<text text-anchor="start" x="160.5" y="-10.4" font-family="Lato" font-size="12.00">a</text>
</g>
<!-- 2&#45;&gt;2 -->
<g id="edge9" class="edge">
<title>2&#45;&gt;2</title>
<path fill="none" stroke="black" d="M258.37,-33.92C256.11,-44.15 258.99,-54 267,-54 273.13,-54 276.25,-48.23 276.37,-40.93"/>
<polygon fill="black" stroke="black" points="275.63,-33.92 279.5,-40.55 276,-37.4 276.37,-40.88 276.37,-40.88 276.37,-40.88 276,-37.4 273.23,-41.21 275.63,-33.92 275.63,-33.92"/>
<text text-anchor="start" x="262" y="-57.4" font-family="Lato" font-size="12.00">!a</text>
</g>
</g>
</svg>
