<?xml version="1.0" encoding="UTF-8" standalone="no"?>
<?xml-stylesheet href="spot.css" type="text/css"?>
<!DOCTYPE svg PUBLIC "-//W3C//DTD SVG 1.1//EN"
 "http://www.w3.org/Graphics/SVG/1.1/DTD/svg11.dtd">
<!-- Generated by graphviz version 2.43.0 (0)
 -->
<!-- Title: Fa &amp; GFb Pages: 1 -->
<svg width="161pt" height="151pt"
 viewBox="0.00 0.00 161.00 151.00" xmlns="http://www.w3.org/2000/svg" xmlns:xlink="http://www.w3.org/1999/xlink">
<g id="graph0" class="graph" transform="scale(1 1) rotate(0) translate(4 147)">
<title>Fa &amp; GFb</title>
<polygon fill="white" stroke="transparent" points="-4,4 -4,-147 157,-147 157,4 -4,4"/>
<text text-anchor="start" x="58.5" y="-130.4" font-family="Lato" font-size="12.00">Inf(</text>
<text text-anchor="start" x="76.5" y="-130.4" font-family="Lato" font-size="12.00" fill="#1f78b4">⓿</text>
<text text-anchor="start" x="90.5" y="-130.4" font-family="Lato" font-size="12.00">)</text>
<text text-anchor="start" x="57.5" y="-118.4" font-family="Lato" font-size="12.00">[Büchi]</text>
<!-- I -->
<!-- 0 -->
<g id="node2" class="node">
<title>0</title>
<ellipse fill="#ffffa0" stroke="black" cx="56" cy="-18" rx="18" ry="18"/>
<text text-anchor="middle" x="56" y="-14.9" font-family="Lato" font-size="12.00">0</text>
</g>
<!-- I&#45;&gt;0 -->
<g id="edge1" class="edge">
<title>I&#45;&gt;0</title>
<path fill="none" stroke="black" d="M1.15,-18C2.79,-18 17.15,-18 30.63,-18"/>
<polygon fill="black" stroke="black" points="37.94,-18 30.94,-21.15 34.44,-18 30.94,-18 30.94,-18 30.94,-18 34.44,-18 30.94,-14.85 37.94,-18 37.94,-18"/>
</g>
<!-- 0&#45;&gt;0 -->
<g id="edge2" class="edge">
<title>0&#45;&gt;0</title>
<path fill="none" stroke="black" d="M49.62,-35.04C48.32,-44.86 50.45,-54 56,-54 60.17,-54 62.4,-48.86 62.71,-42.14"/>
<polygon fill="black" stroke="black" points="62.38,-35.04 65.85,-41.88 62.54,-38.53 62.71,-42.03 62.71,-42.03 62.71,-42.03 62.54,-38.53 59.56,-42.18 62.38,-35.04 62.38,-35.04"/>
<text text-anchor="start" x="51" y="-57.4" font-family="Lato" font-size="12.00">!a</text>
</g>
<!-- 1 -->
<g id="node3" class="node">
<title>1</title>
<ellipse fill="#ffffa0" stroke="black" cx="135" cy="-18" rx="18" ry="18"/>
<text text-anchor="middle" x="135" y="-14.9" font-family="Lato" font-size="12.00">1</text>
</g>
<!-- 0&#45;&gt;1 -->
<g id="edge3" class="edge">
<title>0&#45;&gt;1</title>
<path fill="none" stroke="black" d="M74.09,-18C84.56,-18 98.12,-18 109.69,-18"/>
<polygon fill="black" stroke="black" points="116.96,-18 109.96,-21.15 113.46,-18 109.96,-18 109.96,-18 109.96,-18 113.46,-18 109.96,-14.85 116.96,-18 116.96,-18"/>
<text text-anchor="start" x="92" y="-21.4" font-family="Lato" font-size="12.00">a</text>
</g>
<!-- 1&#45;&gt;1 -->
<g id="edge4" class="edge">
<title>1&#45;&gt;1</title>
<path fill="none" stroke="black" d="M131.58,-35.78C131,-45.31 132.14,-54 135,-54 137.1,-54 138.27,-49.32 138.51,-43.05"/>
<polygon fill="black" stroke="black" points="138.42,-35.78 141.66,-42.74 138.46,-39.28 138.51,-42.78 138.51,-42.78 138.51,-42.78 138.46,-39.28 135.36,-42.82 138.42,-35.78 138.42,-35.78"/>
<text text-anchor="start" x="130" y="-57.4" font-family="Lato" font-size="12.00">!b</text>
</g>
<!-- 1&#45;&gt;1 -->
<g id="edge5" class="edge">
<title>1&#45;&gt;1</title>
<path fill="none" stroke="black" d="M129.44,-35.14C126.17,-52.58 128.02,-72 135,-72 141.05,-72 143.25,-57.4 141.59,-42.15"/>
<polygon fill="black" stroke="black" points="140.56,-35.14 144.7,-41.61 141.07,-38.6 141.58,-42.07 141.58,-42.07 141.58,-42.07 141.07,-38.6 138.46,-42.53 140.56,-35.14 140.56,-35.14"/>
<text text-anchor="start" x="131.5" y="-88.4" font-family="Lato" font-size="12.00">b</text>
<text text-anchor="start" x="128" y="-75.4" font-family="Lato" font-size="12.00" fill="#1f78b4">⓿</text>
</g>
</g>
</svg>
