<?xml version="1.0" encoding="UTF-8" standalone="no"?>
<?xml-stylesheet href="spot.css" type="text/css"?>
<!DOCTYPE svg PUBLIC "-//W3C//DTD SVG 1.1//EN"
 "http://www.w3.org/Graphics/SVG/1.1/DTD/svg11.dtd">
<!-- Generated by graphviz version 2.43.0 (0)
 -->
<!-- Title: G(Fa &amp; Fb) Pages: 1 -->
<svg width="185pt" height="163pt"
 viewBox="0.00 0.00 185.00 163.33" xmlns="http://www.w3.org/2000/svg" xmlns:xlink="http://www.w3.org/1999/xlink">
<g id="graph0" class="graph" transform="scale(1 1) rotate(0) translate(4 159.33)">
<title>G(Fa &amp; Fb)</title>
<polygon fill="white" stroke="transparent" points="-4,4 -4,-159.33 181,-159.33 181,4 -4,4"/>
<text text-anchor="start" x="70.5" y="-142.73" font-family="Lato" font-size="12.00">Inf(</text>
<text text-anchor="start" x="88.5" y="-142.73" font-family="Lato" font-size="12.00" fill="#1f78b4">⓿</text>
<text text-anchor="start" x="102.5" y="-142.73" font-family="Lato" font-size="12.00">)</text>
<text text-anchor="start" x="69.5" y="-130.73" font-family="Lato" font-size="12.00">[Büchi]</text>
<!-- I -->
<!-- 0 -->
<g id="node2" class="node">
<title>0</title>
<ellipse fill="#ffffa0" stroke="black" cx="56" cy="-30.33" rx="18" ry="18"/>
<text text-anchor="middle" x="56" y="-27.23" font-family="Lato" font-size="12.00">0</text>
</g>
<!-- I&#45;&gt;0 -->
<g id="edge1" class="edge">
<title>I&#45;&gt;0</title>
<path fill="none" stroke="black" d="M1.15,-30.33C2.79,-30.33 17.15,-30.33 30.63,-30.33"/>
<polygon fill="black" stroke="black" points="37.94,-30.33 30.94,-33.48 34.44,-30.33 30.94,-30.33 30.94,-30.33 30.94,-30.33 34.44,-30.33 30.94,-27.18 37.94,-30.33 37.94,-30.33"/>
</g>
<!-- 0&#45;&gt;0 -->
<g id="edge2" class="edge">
<title>0&#45;&gt;0</title>
<path fill="none" stroke="black" d="M52.76,-48.12C52.21,-57.65 53.29,-66.33 56,-66.33 57.99,-66.33 59.1,-61.65 59.33,-55.39"/>
<polygon fill="black" stroke="black" points="59.24,-48.12 62.48,-55.07 59.28,-51.62 59.33,-55.12 59.33,-55.12 59.33,-55.12 59.28,-51.62 56.18,-55.16 59.24,-48.12 59.24,-48.12"/>
<text text-anchor="start" x="51" y="-69.73" font-family="Lato" font-size="12.00">!b</text>
</g>
<!-- 0&#45;&gt;0 -->
<g id="edge3" class="edge">
<title>0&#45;&gt;0</title>
<path fill="none" stroke="black" d="M50.68,-47.75C47.65,-65.13 49.43,-84.33 56,-84.33 61.7,-84.33 63.79,-69.89 62.27,-54.72"/>
<polygon fill="black" stroke="black" points="61.32,-47.75 65.39,-54.26 61.79,-51.22 62.26,-54.69 62.26,-54.69 62.26,-54.69 61.79,-51.22 59.14,-55.12 61.32,-47.75 61.32,-47.75"/>
<text text-anchor="start" x="42" y="-100.73" font-family="Lato" font-size="12.00">a &amp; b</text>
<text text-anchor="start" x="49" y="-87.73" font-family="Lato" font-size="12.00" fill="#1f78b4">⓿</text>
</g>
<!-- 1 -->
<g id="node3" class="node">
<title>1</title>
<ellipse fill="#ffffa0" stroke="black" cx="159" cy="-30.33" rx="18" ry="18"/>
<text text-anchor="middle" x="159" y="-27.23" font-family="Lato" font-size="12.00">1</text>
</g>
<!-- 0&#45;&gt;1 -->
<g id="edge4" class="edge">
<title>0&#45;&gt;1</title>
<path fill="none" stroke="black" d="M74.07,-32.09C79.77,-32.6 86.15,-33.08 92,-33.33 105.77,-33.92 109.23,-33.92 123,-33.33 126.47,-33.19 130.13,-32.95 133.73,-32.68"/>
<polygon fill="black" stroke="black" points="140.93,-32.09 134.21,-35.81 137.44,-32.38 133.95,-32.67 133.95,-32.67 133.95,-32.67 137.44,-32.38 133.69,-29.53 140.93,-32.09 140.93,-32.09"/>
<text text-anchor="start" x="92" y="-36.73" font-family="Lato" font-size="12.00">!a &amp; b</text>
</g>
<!-- 1&#45;&gt;0 -->
<g id="edge5" class="edge">
<title>1&#45;&gt;0</title>
<path fill="none" stroke="black" d="M145.93,-17.8C139.68,-12.22 131.57,-6.26 123,-3.33 109.96,1.11 105.04,1.11 92,-3.33 85.84,-5.43 79.92,-9.11 74.76,-13.08"/>
<polygon fill="black" stroke="black" points="69.07,-17.8 72.44,-10.91 71.77,-15.56 74.46,-13.33 74.46,-13.33 74.46,-13.33 71.77,-15.56 76.47,-15.75 69.07,-17.8 69.07,-17.8"/>
<text text-anchor="start" x="104" y="-19.73" font-family="Lato" font-size="12.00">a</text>
<text text-anchor="start" x="100.5" y="-6.73" font-family="Lato" font-size="12.00" fill="#1f78b4">⓿</text>
</g>
<!-- 1&#45;&gt;1 -->
<g id="edge6" class="edge">
<title>1&#45;&gt;1</title>
<path fill="none" stroke="black" d="M150.37,-46.25C148.11,-56.48 150.99,-66.33 159,-66.33 165.13,-66.33 168.25,-60.56 168.37,-53.26"/>
<polygon fill="black" stroke="black" points="167.63,-46.25 171.5,-52.88 168,-49.73 168.37,-53.21 168.37,-53.21 168.37,-53.21 168,-49.73 165.23,-53.54 167.63,-46.25 167.63,-46.25"/>
<text text-anchor="start" x="154" y="-69.73" font-family="Lato" font-size="12.00">!a</text>
</g>
</g>
</svg>
