<?xml version="1.0" encoding="UTF-8" standalone="no"?>
<?xml-stylesheet href="spot.css" type="text/css"?>
<!DOCTYPE svg PUBLIC "-//W3C//DTD SVG 1.1//EN"
 "http://www.w3.org/Graphics/SVG/1.1/DTD/svg11.dtd">
<!-- Generated by graphviz version 2.43.0 (0)
 -->
<!-- Pages: 1 -->
<svg width="566pt" height="272pt"
 viewBox="0.00 0.00 566.00 272.01" xmlns="http://www.w3.org/2000/svg" xmlns:xlink="http://www.w3.org/1999/xlink">
<g id="graph0" class="graph" transform="scale(1 1) rotate(0) translate(4 268.01)">
<polygon fill="white" stroke="transparent" points="-4,4 -4,-268.01 562,-268.01 562,4 -4,4"/>
<text text-anchor="start" x="131" y="-251.41" font-family="Lato" font-size="12.00">Inf(</text>
<text text-anchor="start" x="149" y="-251.41" font-family="Lato" font-size="12.00" fill="#e31a1c">❺</text>
<text text-anchor="start" x="163" y="-251.41" font-family="Lato" font-size="12.00">) | (Fin(</text>
<text text-anchor="start" x="198" y="-251.41" font-family="Lato" font-size="12.00" fill="#33a02c">❹</text>
<text text-anchor="start" x="212" y="-251.41" font-family="Lato" font-size="12.00">) &amp; (Inf(</text>
<text text-anchor="start" x="250" y="-251.41" font-family="Lato" font-size="12.00" fill="#6a3d9a">❸</text>
<text text-anchor="start" x="264" y="-251.41" font-family="Lato" font-size="12.00">) | (Fin(</text>
<text text-anchor="start" x="299" y="-251.41" font-family="Lato" font-size="12.00" fill="#ff7f00">❷</text>
<text text-anchor="start" x="313" y="-251.41" font-family="Lato" font-size="12.00">) &amp; (Inf(</text>
<text text-anchor="start" x="351" y="-251.41" font-family="Lato" font-size="12.00" fill="#ff4da0">❶</text>
<text text-anchor="start" x="365" y="-251.41" font-family="Lato" font-size="12.00">) | Fin(</text>
<text text-anchor="start" x="397" y="-251.41" font-family="Lato" font-size="12.00" fill="#1f78b4">⓿</text>
<text text-anchor="start" x="411" y="-251.41" font-family="Lato" font-size="12.00">)))))</text>
<text text-anchor="start" x="231" y="-239.41" font-family="Lato" font-size="12.00">[parity max odd 6]</text>
<!-- I -->
<!-- 3 -->
<g id="node2" class="node">
<title>3</title>
<ellipse fill="#ffffa0" stroke="black" cx="56" cy="-108.01" rx="18" ry="18"/>
<text text-anchor="middle" x="56" y="-104.91" font-family="Lato" font-size="12.00">3</text>
</g>
<!-- I&#45;&gt;3 -->
<g id="edge1" class="edge">
<title>I&#45;&gt;3</title>
<path fill="none" stroke="black" d="M1.15,-108.01C2.79,-108.01 17.15,-108.01 30.63,-108.01"/>
<polygon fill="black" stroke="black" points="37.94,-108.01 30.94,-111.16 34.44,-108.01 30.94,-108.01 30.94,-108.01 30.94,-108.01 34.44,-108.01 30.94,-104.86 37.94,-108.01 37.94,-108.01"/>
</g>
<!-- 5 -->
<g id="node6" class="node">
<title>5</title>
<polygon fill="#ffffa0" stroke="black" points="151,-192.01 124,-174.01 151,-156.01 178,-174.01 151,-192.01"/>
<text text-anchor="middle" x="151" y="-170.91" font-family="Lato" font-size="12.00">5</text>
</g>
<!-- 3&#45;&gt;5 -->
<g id="edge6" class="edge">
<title>3&#45;&gt;5</title>
<path fill="none" stroke="black" d="M71.12,-118.03C87.15,-129.4 113.34,-147.99 131.11,-160.6"/>
<polygon fill="black" stroke="black" points="137.24,-164.95 129.71,-163.47 134.39,-162.93 131.53,-160.9 131.53,-160.9 131.53,-160.9 134.39,-162.93 133.36,-158.33 137.24,-164.95 137.24,-164.95"/>
<text text-anchor="start" x="94" y="-157.41" font-family="Lato" font-size="12.00">!a</text>
<text text-anchor="start" x="92" y="-144.41" font-family="Lato" font-size="12.00" fill="#ff4da0">❶</text>
</g>
<!-- 8 -->
<g id="node10" class="node">
<title>8</title>
<polygon fill="#ffffa0" stroke="black" points="151,-77.01 124,-59.01 151,-41.01 178,-59.01 151,-77.01"/>
<text text-anchor="middle" x="151" y="-55.91" font-family="Lato" font-size="12.00">8</text>
</g>
<!-- 3&#45;&gt;8 -->
<g id="edge7" class="edge">
<title>3&#45;&gt;8</title>
<path fill="none" stroke="black" d="M73.14,-101.38C82.81,-97.26 95.28,-91.67 106,-86.01 114.3,-81.62 123.16,-76.31 130.75,-71.56"/>
<polygon fill="black" stroke="black" points="136.78,-67.73 132.56,-74.14 133.82,-69.61 130.87,-71.48 130.87,-71.48 130.87,-71.48 133.82,-69.61 129.18,-68.82 136.78,-67.73 136.78,-67.73"/>
<text text-anchor="start" x="95.5" y="-109.41" font-family="Lato" font-size="12.00">a</text>
<text text-anchor="start" x="92" y="-96.41" font-family="Lato" font-size="12.00" fill="#ff4da0">❶</text>
</g>
<!-- 0 -->
<g id="node3" class="node">
<title>0</title>
<ellipse fill="#ffffa0" stroke="black" cx="436" cy="-119.01" rx="18" ry="18"/>
<text text-anchor="middle" x="436" y="-115.91" font-family="Lato" font-size="12.00">0</text>
</g>
<!-- 4 -->
<g id="node4" class="node">
<title>4</title>
<polygon fill="#ffffa0" stroke="black" points="531,-137.01 504,-119.01 531,-101.01 558,-119.01 531,-137.01"/>
<text text-anchor="middle" x="531" y="-115.91" font-family="Lato" font-size="12.00">4</text>
</g>
<!-- 0&#45;&gt;4 -->
<g id="edge2" class="edge">
<title>0&#45;&gt;4</title>
<path fill="none" stroke="black" d="M454.07,-120.76C459.77,-121.27 466.15,-121.76 472,-122.01 481.14,-122.4 491.09,-122.13 500.12,-121.63"/>
<polygon fill="black" stroke="black" points="507.14,-121.19 500.35,-124.77 503.65,-121.41 500.15,-121.63 500.15,-121.63 500.15,-121.63 503.65,-121.41 499.95,-118.49 507.14,-121.19 507.14,-121.19"/>
<text text-anchor="start" x="475.5" y="-138.41" font-family="Lato" font-size="12.00">1</text>
<text text-anchor="start" x="472" y="-125.41" font-family="Lato" font-size="12.00" fill="#ff4da0">❶</text>
</g>
<!-- 4&#45;&gt;0 -->
<g id="edge8" class="edge">
<title>4&#45;&gt;0</title>
<path fill="none" stroke="black" d="M519.17,-108.41C507.73,-98.55 489.03,-86.2 472,-92.01 465.84,-94.11 459.92,-97.78 454.76,-101.75"/>
<polygon fill="black" stroke="black" points="449.07,-106.47 452.44,-99.58 451.77,-104.24 454.46,-102 454.46,-102 454.46,-102 451.77,-104.24 456.47,-104.42 449.07,-106.47 449.07,-106.47"/>
<text text-anchor="start" x="475.5" y="-108.41" font-family="Lato" font-size="12.00">1</text>
<text text-anchor="start" x="472" y="-95.41" font-family="Lato" font-size="12.00" fill="#e31a1c">❺</text>
</g>
<!-- 1 -->
<g id="node5" class="node">
<title>1</title>
<ellipse fill="#ffffa0" stroke="black" cx="246" cy="-207.01" rx="18" ry="18"/>
<text text-anchor="middle" x="246" y="-203.91" font-family="Lato" font-size="12.00">1</text>
</g>
<!-- 1&#45;&gt;5 -->
<g id="edge3" class="edge">
<title>1&#45;&gt;5</title>
<path fill="none" stroke="black" d="M233.41,-193.62C227.17,-187.38 218.92,-180.57 210,-177.01 201.28,-173.52 191.23,-172.18 181.97,-171.87"/>
<polygon fill="black" stroke="black" points="174.76,-171.83 181.78,-168.72 178.26,-171.85 181.76,-171.87 181.76,-171.87 181.76,-171.87 178.26,-171.85 181.74,-175.02 174.76,-171.83 174.76,-171.83"/>
<text text-anchor="start" x="199.5" y="-193.41" font-family="Lato" font-size="12.00">1</text>
<text text-anchor="start" x="196" y="-180.41" font-family="Lato" font-size="12.00" fill="#ff4da0">❶</text>
</g>
<!-- 5&#45;&gt;0 -->
<g id="edge9" class="edge">
<title>5&#45;&gt;0</title>
<path fill="none" stroke="black" d="M173.38,-170.86C216.5,-164.34 316.9,-148.37 400,-129.01 403.85,-128.11 407.9,-127.06 411.83,-125.97"/>
<polygon fill="black" stroke="black" points="418.71,-124.02 412.83,-128.96 415.34,-124.98 411.97,-125.93 411.97,-125.93 411.97,-125.93 415.34,-124.98 411.11,-122.9 418.71,-124.02 418.71,-124.02"/>
<text text-anchor="start" x="284" y="-168.41" font-family="Lato" font-size="12.00">!b</text>
<text text-anchor="start" x="282" y="-155.41" font-family="Lato" font-size="12.00" fill="#33a02c">❹</text>
</g>
<!-- 5&#45;&gt;1 -->
<g id="edge10" class="edge">
<title>5&#45;&gt;1</title>
<path fill="none" stroke="black" d="M163.46,-183.9C171.87,-190.55 183.89,-198.83 196,-203.01 203.78,-205.69 212.66,-206.92 220.7,-207.41"/>
<polygon fill="black" stroke="black" points="227.79,-207.67 220.68,-210.56 224.29,-207.54 220.8,-207.41 220.8,-207.41 220.8,-207.41 224.29,-207.54 220.91,-204.27 227.79,-207.67 227.79,-207.67"/>
<text text-anchor="start" x="199.5" y="-222.41" font-family="Lato" font-size="12.00">b</text>
<text text-anchor="start" x="196" y="-209.41" font-family="Lato" font-size="12.00" fill="#33a02c">❹</text>
</g>
<!-- 2 -->
<g id="node7" class="node">
<title>2</title>
<ellipse fill="#ffffa0" stroke="black" cx="246" cy="-47.01" rx="18" ry="18"/>
<text text-anchor="middle" x="246" y="-43.91" font-family="Lato" font-size="12.00">2</text>
</g>
<!-- 6 -->
<g id="node8" class="node">
<title>6</title>
<polygon fill="#ffffa0" stroke="black" points="341,-114.01 314,-96.01 341,-78.01 368,-96.01 341,-114.01"/>
<text text-anchor="middle" x="341" y="-92.91" font-family="Lato" font-size="12.00">6</text>
</g>
<!-- 2&#45;&gt;6 -->
<g id="edge4" class="edge">
<title>2&#45;&gt;6</title>
<path fill="none" stroke="black" d="M261.89,-55.75C268.07,-59.32 275.34,-63.44 282,-67.01 293.84,-73.34 307.23,-80.07 318.16,-85.44"/>
<polygon fill="black" stroke="black" points="324.62,-88.6 316.94,-88.36 321.47,-87.06 318.33,-85.53 318.33,-85.53 318.33,-85.53 321.47,-87.06 319.71,-82.7 324.62,-88.6 324.62,-88.6"/>
<text text-anchor="start" x="284" y="-90.41" font-family="Lato" font-size="12.00">!a</text>
<text text-anchor="start" x="282" y="-77.41" font-family="Lato" font-size="12.00" fill="#ff4da0">❶</text>
</g>
<!-- 7 -->
<g id="node9" class="node">
<title>7</title>
<polygon fill="#ffffa0" stroke="black" points="341,-37.01 314,-19.01 341,-1.01 368,-19.01 341,-37.01"/>
<text text-anchor="middle" x="341" y="-15.91" font-family="Lato" font-size="12.00">7</text>
</g>
<!-- 2&#45;&gt;7 -->
<g id="edge5" class="edge">
<title>2&#45;&gt;7</title>
<path fill="none" stroke="black" d="M263.63,-42C277.85,-37.72 298.55,-31.49 314.81,-26.59"/>
<polygon fill="black" stroke="black" points="321.93,-24.45 316.13,-29.48 318.58,-25.46 315.23,-26.47 315.23,-26.47 315.23,-26.47 318.58,-25.46 314.32,-23.45 321.93,-24.45 321.93,-24.45"/>
<text text-anchor="start" x="285.5" y="-53.41" font-family="Lato" font-size="12.00">a</text>
<text text-anchor="start" x="282" y="-40.41" font-family="Lato" font-size="12.00" fill="#ff4da0">❶</text>
</g>
<!-- 6&#45;&gt;0 -->
<g id="edge11" class="edge">
<title>6&#45;&gt;0</title>
<path fill="none" stroke="black" d="M366.31,-97.26C376.82,-98.23 389.16,-99.96 400,-103.01 404.39,-104.24 408.93,-105.96 413.22,-107.81"/>
<polygon fill="black" stroke="black" points="419.71,-110.77 412.03,-110.73 416.53,-109.32 413.34,-107.86 413.34,-107.86 413.34,-107.86 416.53,-109.32 414.65,-105 419.71,-110.77 419.71,-110.77"/>
<text text-anchor="start" x="389.5" y="-119.41" font-family="Lato" font-size="12.00">1</text>
<text text-anchor="start" x="386" y="-106.41" font-family="Lato" font-size="12.00" fill="#33a02c">❹</text>
</g>
<!-- 7&#45;&gt;2 -->
<g id="edge12" class="edge">
<title>7&#45;&gt;2</title>
<path fill="none" stroke="black" d="M326.61,-10.08C314.53,-3.23 296.49,3.98 282,-3.01 272.47,-7.6 264.74,-16.19 258.99,-24.57"/>
<polygon fill="black" stroke="black" points="254.98,-30.87 256.08,-23.27 256.86,-27.92 258.74,-24.96 258.74,-24.96 258.74,-24.96 256.86,-27.92 261.4,-26.65 254.98,-30.87 254.98,-30.87"/>
<text text-anchor="start" x="285.5" y="-19.41" font-family="Lato" font-size="12.00">1</text>
<text text-anchor="start" x="282" y="-6.41" font-family="Lato" font-size="12.00" fill="#33a02c">❹</text>
</g>
<!-- 8&#45;&gt;3 -->
<g id="edge14" class="edge">
<title>8&#45;&gt;3</title>
<path fill="none" stroke="black" d="M132.22,-53.51C120.18,-50.85 104.28,-49.47 92,-56.01 80.47,-62.15 72.05,-73.97 66.37,-84.79"/>
<polygon fill="black" stroke="black" points="63.18,-91.34 63.41,-83.67 64.71,-88.19 66.24,-85.04 66.24,-85.04 66.24,-85.04 64.71,-88.19 69.08,-86.42 63.18,-91.34 63.18,-91.34"/>
<text text-anchor="start" x="95.5" y="-72.41" font-family="Lato" font-size="12.00">b</text>
<text text-anchor="start" x="92" y="-59.41" font-family="Lato" font-size="12.00" fill="#e31a1c">❺</text>
</g>
<!-- 8&#45;&gt;2 -->
<g id="edge13" class="edge">
<title>8&#45;&gt;2</title>
<path fill="none" stroke="black" d="M174.04,-56.16C188.13,-54.34 206.4,-51.99 220.88,-50.12"/>
<polygon fill="black" stroke="black" points="228.06,-49.19 221.52,-53.21 224.59,-49.64 221.12,-50.09 221.12,-50.09 221.12,-50.09 224.59,-49.64 220.72,-46.96 228.06,-49.19 228.06,-49.19"/>
<text text-anchor="start" x="198" y="-69.41" font-family="Lato" font-size="12.00">!b</text>
<text text-anchor="start" x="196" y="-56.41" font-family="Lato" font-size="12.00" fill="#33a02c">❹</text>
</g>
</g>
</svg>
