<?xml version="1.0" encoding="UTF-8" standalone="no"?>
<?xml-stylesheet href="spot.css" type="text/css"?>
<!DOCTYPE svg PUBLIC "-//W3C//DTD SVG 1.1//EN"
 "http://www.w3.org/Graphics/SVG/1.1/DTD/svg11.dtd">
<!-- Generated by graphviz version 2.43.0 (0)
 -->
<!-- Title: Ga | Gb | Gc Pages: 1 -->
<svg width="161pt" height="279pt"
 viewBox="0.00 0.00 161.00 279.00" xmlns="http://www.w3.org/2000/svg" xmlns:xlink="http://www.w3.org/1999/xlink">
<g id="graph0" class="graph" transform="scale(1 1) rotate(0) translate(4 275)">
<title>Ga | Gb | Gc</title>
<polygon fill="white" stroke="transparent" points="-4,4 -4,-275 157,-275 157,4 -4,4"/>
<text text-anchor="start" x="74" y="-257.4" font-family="Lato" font-size="12.00">t</text>
<text text-anchor="start" x="67" y="-244.4" font-family="Lato" font-size="12.00">[all]</text>
<!-- I -->
<!-- 0 -->
<g id="node2" class="node">
<title>0</title>
<ellipse fill="#ffffa0" stroke="black" cx="56" cy="-103" rx="18" ry="18"/>
<text text-anchor="middle" x="56" y="-99.9" font-family="Lato" font-size="12.00">0</text>
</g>
<!-- I&#45;&gt;0 -->
<g id="edge1" class="edge">
<title>I&#45;&gt;0</title>
<path fill="none" stroke="black" d="M1.15,-103C2.79,-103 17.15,-103 30.63,-103"/>
<polygon fill="black" stroke="black" points="37.94,-103 30.94,-106.15 34.44,-103 30.94,-103 30.94,-103 30.94,-103 34.44,-103 30.94,-99.85 37.94,-103 37.94,-103"/>
</g>
<!-- 1 -->
<g id="node3" class="node">
<title>1</title>
<ellipse fill="#ffffa0" stroke="black" cx="135" cy="-188" rx="18" ry="18"/>
<text text-anchor="middle" x="135" y="-184.9" font-family="Lato" font-size="12.00">1</text>
</g>
<!-- 0&#45;&gt;1 -->
<g id="edge2" class="edge">
<title>0&#45;&gt;1</title>
<path fill="none" stroke="black" d="M68.69,-115.91C81.7,-130.26 102.8,-153.56 117.48,-169.77"/>
<polygon fill="black" stroke="black" points="122.2,-174.97 115.16,-171.9 119.85,-172.37 117.5,-169.78 117.5,-169.78 117.5,-169.78 119.85,-172.37 119.83,-167.67 122.2,-174.97 122.2,-174.97"/>
<text text-anchor="start" x="92" y="-151.4" font-family="Lato" font-size="12.00">a</text>
</g>
<!-- 2 -->
<g id="node4" class="node">
<title>2</title>
<ellipse fill="#ffffa0" stroke="black" cx="135" cy="-103" rx="18" ry="18"/>
<text text-anchor="middle" x="135" y="-99.9" font-family="Lato" font-size="12.00">2</text>
</g>
<!-- 0&#45;&gt;2 -->
<g id="edge3" class="edge">
<title>0&#45;&gt;2</title>
<path fill="none" stroke="black" d="M74.09,-103C84.56,-103 98.12,-103 109.69,-103"/>
<polygon fill="black" stroke="black" points="116.96,-103 109.96,-106.15 113.46,-103 109.96,-103 109.96,-103 109.96,-103 113.46,-103 109.96,-99.85 116.96,-103 116.96,-103"/>
<text text-anchor="start" x="92" y="-106.4" font-family="Lato" font-size="12.00">b</text>
</g>
<!-- 3 -->
<g id="node5" class="node">
<title>3</title>
<ellipse fill="#ffffa0" stroke="black" cx="135" cy="-18" rx="18" ry="18"/>
<text text-anchor="middle" x="135" y="-14.9" font-family="Lato" font-size="12.00">3</text>
</g>
<!-- 0&#45;&gt;3 -->
<g id="edge4" class="edge">
<title>0&#45;&gt;3</title>
<path fill="none" stroke="black" d="M68.69,-90.09C81.7,-75.74 102.8,-52.44 117.48,-36.23"/>
<polygon fill="black" stroke="black" points="122.2,-31.03 119.83,-38.33 119.85,-33.63 117.5,-36.22 117.5,-36.22 117.5,-36.22 119.85,-33.63 115.16,-34.1 122.2,-31.03 122.2,-31.03"/>
<text text-anchor="start" x="92" y="-66.4" font-family="Lato" font-size="12.00">c</text>
</g>
<!-- 1&#45;&gt;1 -->
<g id="edge5" class="edge">
<title>1&#45;&gt;1</title>
<path fill="none" stroke="black" d="M128.27,-205.04C126.89,-214.86 129.14,-224 135,-224 139.4,-224 141.76,-218.86 142.09,-212.14"/>
<polygon fill="black" stroke="black" points="141.73,-205.04 145.23,-211.87 141.91,-208.53 142.08,-212.03 142.08,-212.03 142.08,-212.03 141.91,-208.53 138.93,-212.18 141.73,-205.04 141.73,-205.04"/>
<text text-anchor="start" x="131.5" y="-227.4" font-family="Lato" font-size="12.00">a</text>
</g>
<!-- 2&#45;&gt;2 -->
<g id="edge6" class="edge">
<title>2&#45;&gt;2</title>
<path fill="none" stroke="black" d="M128.27,-120.04C126.89,-129.86 129.14,-139 135,-139 139.4,-139 141.76,-133.86 142.09,-127.14"/>
<polygon fill="black" stroke="black" points="141.73,-120.04 145.23,-126.87 141.91,-123.53 142.08,-127.03 142.08,-127.03 142.08,-127.03 141.91,-123.53 138.93,-127.18 141.73,-120.04 141.73,-120.04"/>
<text text-anchor="start" x="131.5" y="-142.4" font-family="Lato" font-size="12.00">b</text>
</g>
<!-- 3&#45;&gt;3 -->
<g id="edge7" class="edge">
<title>3&#45;&gt;3</title>
<path fill="none" stroke="black" d="M128.27,-35.04C126.89,-44.86 129.14,-54 135,-54 139.4,-54 141.76,-48.86 142.09,-42.14"/>
<polygon fill="black" stroke="black" points="141.73,-35.04 145.23,-41.87 141.91,-38.53 142.08,-42.03 142.08,-42.03 142.08,-42.03 141.91,-38.53 138.93,-42.18 141.73,-35.04 141.73,-35.04"/>
<text text-anchor="start" x="131.5" y="-57.4" font-family="Lato" font-size="12.00">c</text>
</g>
</g>
</svg>
