<?xml version="1.0" encoding="UTF-8" standalone="no"?>
<?xml-stylesheet href="spot.css" type="text/css"?>
<!DOCTYPE svg PUBLIC "-//W3C//DTD SVG 1.1//EN"
 "http://www.w3.org/Graphics/SVG/1.1/DTD/svg11.dtd">
<!-- Generated by graphviz version 2.43.0 (0)
 -->
<!-- Title: Ga | Gb | Gc Pages: 1 -->
<svg width="342pt" height="420pt"
 viewBox="0.00 0.00 342.00 419.59" xmlns="http://www.w3.org/2000/svg" xmlns:xlink="http://www.w3.org/1999/xlink">
<g id="graph0" class="graph" transform="scale(1 1) rotate(0) translate(4 415.59)">
<title>Ga | Gb | Gc</title>
<polygon fill="white" stroke="transparent" points="-4,4 -4,-415.59 338,-415.59 338,4 -4,4"/>
<text text-anchor="start" x="148" y="-397.99" font-family="Lato" font-size="12.00">[Büchi]</text>
<!-- I -->
<!-- 6 -->
<g id="node2" class="node">
<title>6</title>
<ellipse fill="#ffffa0" stroke="black" cx="60" cy="-209.59" rx="18" ry="18"/>
<ellipse fill="none" stroke="black" cx="60" cy="-209.59" rx="22" ry="22"/>
<text text-anchor="middle" x="60" y="-206.49" font-family="Lato" font-size="12.00">6</text>
</g>
<!-- I&#45;&gt;6 -->
<g id="edge1" class="edge">
<title>I&#45;&gt;6</title>
<path fill="none" stroke="black" d="M1.17,-209.59C2.84,-209.59 16.88,-209.59 30.71,-209.59"/>
<polygon fill="black" stroke="black" points="37.86,-209.59 30.86,-212.74 34.36,-209.59 30.86,-209.59 30.86,-209.59 30.86,-209.59 34.36,-209.59 30.86,-206.44 37.86,-209.59 37.86,-209.59"/>
</g>
<!-- 6&#45;&gt;6 -->
<g id="edge20" class="edge">
<title>6&#45;&gt;6</title>
<path fill="none" stroke="black" d="M52.68,-230.59C51.78,-240.68 54.22,-249.59 60,-249.59 64.34,-249.59 66.79,-244.58 67.37,-237.81"/>
<polygon fill="black" stroke="black" points="67.32,-230.59 70.52,-237.56 67.34,-234.09 67.37,-237.59 67.37,-237.59 67.37,-237.59 67.34,-234.09 64.22,-237.61 67.32,-230.59 67.32,-230.59"/>
<text text-anchor="start" x="36" y="-252.99" font-family="Lato" font-size="12.00">a &amp; b &amp; c</text>
</g>
<!-- 0 -->
<g id="node3" class="node">
<title>0</title>
<ellipse fill="#ffffa0" stroke="black" cx="312" cy="-337.59" rx="18" ry="18"/>
<ellipse fill="none" stroke="black" cx="312" cy="-337.59" rx="22" ry="22"/>
<text text-anchor="middle" x="312" y="-334.49" font-family="Lato" font-size="12.00">0</text>
</g>
<!-- 6&#45;&gt;0 -->
<g id="edge14" class="edge">
<title>6&#45;&gt;0</title>
<path fill="none" stroke="black" d="M68.69,-229.92C82.65,-263.22 115.71,-327.67 169,-347.59 206.98,-361.8 254.62,-353.69 283.92,-346.03"/>
<polygon fill="black" stroke="black" points="290.96,-344.11 285.04,-348.99 287.58,-345.03 284.21,-345.95 284.21,-345.95 284.21,-345.95 287.58,-345.03 283.38,-342.91 290.96,-344.11 290.96,-344.11"/>
<text text-anchor="start" x="169" y="-357.99" font-family="Lato" font-size="12.00">!a &amp; !b &amp; c</text>
</g>
<!-- 1 -->
<g id="node4" class="node">
<title>1</title>
<ellipse fill="#ffffa0" stroke="black" cx="196" cy="-285.59" rx="18" ry="18"/>
<ellipse fill="none" stroke="black" cx="196" cy="-285.59" rx="22" ry="22"/>
<text text-anchor="middle" x="196" y="-282.49" font-family="Lato" font-size="12.00">1</text>
</g>
<!-- 6&#45;&gt;1 -->
<g id="edge15" class="edge">
<title>6&#45;&gt;1</title>
<path fill="none" stroke="black" d="M75.44,-225.78C82.36,-232.84 91.07,-240.81 100,-246.59 121.29,-260.37 148.25,-270.88 168,-277.5"/>
<polygon fill="black" stroke="black" points="174.67,-279.67 167.04,-280.49 171.34,-278.59 168.02,-277.5 168.02,-277.5 168.02,-277.5 171.34,-278.59 168.99,-274.51 174.67,-279.67 174.67,-279.67"/>
<text text-anchor="start" x="100" y="-273.99" font-family="Lato" font-size="12.00">!a &amp; b &amp; c</text>
</g>
<!-- 2 -->
<g id="node5" class="node">
<title>2</title>
<ellipse fill="#ffffa0" stroke="black" cx="312" cy="-232.59" rx="18" ry="18"/>
<ellipse fill="none" stroke="black" cx="312" cy="-232.59" rx="22" ry="22"/>
<text text-anchor="middle" x="312" y="-229.49" font-family="Lato" font-size="12.00">2</text>
</g>
<!-- 6&#45;&gt;2 -->
<g id="edge16" class="edge">
<title>6&#45;&gt;2</title>
<path fill="none" stroke="black" d="M82.31,-211.56C127.33,-215.7 232.11,-225.34 282.68,-229.99"/>
<polygon fill="black" stroke="black" points="289.74,-230.64 282.48,-233.13 286.25,-230.32 282.77,-230 282.77,-230 282.77,-230 286.25,-230.32 283.06,-226.86 289.74,-230.64 289.74,-230.64"/>
<text text-anchor="start" x="169" y="-226.99" font-family="Lato" font-size="12.00">!a &amp; b &amp; !c</text>
</g>
<!-- 3 -->
<g id="node6" class="node">
<title>3</title>
<ellipse fill="#ffffa0" stroke="black" cx="312" cy="-50.59" rx="18" ry="18"/>
<ellipse fill="none" stroke="black" cx="312" cy="-50.59" rx="22" ry="22"/>
<text text-anchor="middle" x="312" y="-47.49" font-family="Lato" font-size="12.00">3</text>
</g>
<!-- 6&#45;&gt;3 -->
<g id="edge17" class="edge">
<title>6&#45;&gt;3</title>
<path fill="none" stroke="black" d="M64.17,-187.92C72.14,-142.82 97.72,-40.29 169,-6.59 209.08,12.35 259.31,-13.94 288.02,-33.29"/>
<polygon fill="black" stroke="black" points="293.81,-37.29 286.26,-35.9 290.93,-35.3 288.05,-33.31 288.05,-33.31 288.05,-33.31 290.93,-35.3 289.85,-30.72 293.81,-37.29 293.81,-37.29"/>
<text text-anchor="start" x="169" y="-9.99" font-family="Lato" font-size="12.00">a &amp; !b &amp; !c</text>
</g>
<!-- 4 -->
<g id="node7" class="node">
<title>4</title>
<ellipse fill="#ffffa0" stroke="black" cx="196" cy="-143.59" rx="18" ry="18"/>
<ellipse fill="none" stroke="black" cx="196" cy="-143.59" rx="22" ry="22"/>
<text text-anchor="middle" x="196" y="-140.49" font-family="Lato" font-size="12.00">4</text>
</g>
<!-- 6&#45;&gt;4 -->
<g id="edge18" class="edge">
<title>6&#45;&gt;4</title>
<path fill="none" stroke="black" d="M80.2,-200.14C103.68,-188.57 143.51,-168.95 169.54,-156.14"/>
<polygon fill="black" stroke="black" points="175.84,-153.03 170.95,-158.95 172.7,-154.58 169.56,-156.13 169.56,-156.13 169.56,-156.13 172.7,-154.58 168.17,-153.3 175.84,-153.03 175.84,-153.03"/>
<text text-anchor="start" x="100" y="-192.99" font-family="Lato" font-size="12.00">a &amp; !b &amp; c</text>
</g>
<!-- 5 -->
<g id="node8" class="node">
<title>5</title>
<ellipse fill="#ffffa0" stroke="black" cx="196" cy="-50.59" rx="18" ry="18"/>
<ellipse fill="none" stroke="black" cx="196" cy="-50.59" rx="22" ry="22"/>
<text text-anchor="middle" x="196" y="-47.49" font-family="Lato" font-size="12.00">5</text>
</g>
<!-- 6&#45;&gt;5 -->
<g id="edge19" class="edge">
<title>6&#45;&gt;5</title>
<path fill="none" stroke="black" d="M71.92,-190.86C79.3,-178.7 89.58,-162.73 100,-149.59 123.37,-120.13 154.05,-89.35 174.13,-70.09"/>
<polygon fill="black" stroke="black" points="179.25,-65.21 176.36,-72.32 176.72,-67.62 174.19,-70.04 174.19,-70.04 174.19,-70.04 176.72,-67.62 172.01,-67.76 179.25,-65.21 179.25,-65.21"/>
<text text-anchor="start" x="100" y="-152.99" font-family="Lato" font-size="12.00">a &amp; b &amp; !c</text>
</g>
<!-- 0&#45;&gt;0 -->
<g id="edge2" class="edge">
<title>0&#45;&gt;0</title>
<path fill="none" stroke="black" d="M302.29,-357.35C300.64,-367.94 303.88,-377.59 312,-377.59 318.22,-377.59 321.57,-371.94 322.06,-364.53"/>
<polygon fill="black" stroke="black" points="321.71,-357.35 325.2,-364.19 321.88,-360.85 322.05,-364.34 322.05,-364.34 322.05,-364.34 321.88,-360.85 318.91,-364.5 321.71,-357.35 321.71,-357.35"/>
<text text-anchor="start" x="308.5" y="-380.99" font-family="Lato" font-size="12.00">c</text>
</g>
<!-- 1&#45;&gt;0 -->
<g id="edge3" class="edge">
<title>1&#45;&gt;0</title>
<path fill="none" stroke="black" d="M213.84,-298.8C221.75,-304.54 231.52,-311 241,-315.59 254.44,-322.11 270.26,-327.28 283.46,-330.96"/>
<polygon fill="black" stroke="black" points="290.48,-332.85 282.91,-334.07 287.11,-331.94 283.73,-331.03 283.73,-331.03 283.73,-331.03 287.11,-331.94 284.54,-327.99 290.48,-332.85 290.48,-332.85"/>
<text text-anchor="start" x="241" y="-329.99" font-family="Lato" font-size="12.00">!b &amp; c</text>
</g>
<!-- 1&#45;&gt;1 -->
<g id="edge4" class="edge">
<title>1&#45;&gt;1</title>
<path fill="none" stroke="black" d="M185.29,-304.94C183.29,-315.69 186.86,-325.59 196,-325.59 203,-325.59 206.73,-319.79 207.2,-312.24"/>
<polygon fill="black" stroke="black" points="206.71,-304.94 210.32,-311.71 206.95,-308.43 207.18,-311.92 207.18,-311.92 207.18,-311.92 206.95,-308.43 204.04,-312.13 206.71,-304.94 206.71,-304.94"/>
<text text-anchor="start" x="182" y="-328.99" font-family="Lato" font-size="12.00">b &amp; c</text>
</g>
<!-- 1&#45;&gt;2 -->
<g id="edge5" class="edge">
<title>1&#45;&gt;2</title>
<path fill="none" stroke="black" d="M217.92,-288.13C233.66,-289.08 255.31,-288.26 272,-279.59 281.79,-274.51 290.06,-265.8 296.43,-257.25"/>
<polygon fill="black" stroke="black" points="300.53,-251.4 299.09,-258.94 298.52,-254.27 296.51,-257.13 296.51,-257.13 296.51,-257.13 298.52,-254.27 293.93,-255.32 300.53,-251.4 300.53,-251.4"/>
<text text-anchor="start" x="241" y="-290.99" font-family="Lato" font-size="12.00">b &amp; !c</text>
</g>
<!-- 2&#45;&gt;2 -->
<g id="edge6" class="edge">
<title>2&#45;&gt;2</title>
<path fill="none" stroke="black" d="M302.29,-252.35C300.64,-262.94 303.88,-272.59 312,-272.59 318.22,-272.59 321.57,-266.94 322.06,-259.53"/>
<polygon fill="black" stroke="black" points="321.71,-252.35 325.2,-259.19 321.88,-255.85 322.05,-259.34 322.05,-259.34 322.05,-259.34 321.88,-255.85 318.91,-259.5 321.71,-252.35 321.71,-252.35"/>
<text text-anchor="start" x="308.5" y="-275.99" font-family="Lato" font-size="12.00">b</text>
</g>
<!-- 3&#45;&gt;3 -->
<g id="edge7" class="edge">
<title>3&#45;&gt;3</title>
<path fill="none" stroke="black" d="M302.29,-70.35C300.64,-80.94 303.88,-90.59 312,-90.59 318.22,-90.59 321.57,-84.94 322.06,-77.53"/>
<polygon fill="black" stroke="black" points="321.71,-70.35 325.2,-77.19 321.88,-73.85 322.05,-77.34 322.05,-77.34 322.05,-77.34 321.88,-73.85 318.91,-77.5 321.71,-70.35 321.71,-70.35"/>
<text text-anchor="start" x="308.5" y="-93.99" font-family="Lato" font-size="12.00">a</text>
</g>
<!-- 4&#45;&gt;0 -->
<g id="edge8" class="edge">
<title>4&#45;&gt;0</title>
<path fill="none" stroke="black" d="M208.91,-161.45C224.11,-184.49 250.97,-225.95 272,-262.59 281.25,-278.71 290.89,-297.23 298.27,-311.83"/>
<polygon fill="black" stroke="black" points="301.49,-318.25 295.53,-313.41 299.92,-315.12 298.35,-311.99 298.35,-311.99 298.35,-311.99 299.92,-315.12 301.16,-310.58 301.49,-318.25 301.49,-318.25"/>
<text text-anchor="start" x="241.5" y="-265.99" font-family="Lato" font-size="12.00">!a &amp; c</text>
</g>
<!-- 4&#45;&gt;3 -->
<g id="edge9" class="edge">
<title>4&#45;&gt;3</title>
<path fill="none" stroke="black" d="M217.52,-137.77C233.65,-132.42 256.01,-123.23 272,-109.59 282.72,-100.45 291.67,-87.65 298.27,-76.31"/>
<polygon fill="black" stroke="black" points="301.7,-70.19 301.03,-77.84 299.99,-73.24 298.28,-76.3 298.28,-76.3 298.28,-76.3 299.99,-73.24 295.53,-74.76 301.7,-70.19 301.7,-70.19"/>
<text text-anchor="start" x="241.5" y="-131.99" font-family="Lato" font-size="12.00">a &amp; !c</text>
</g>
<!-- 4&#45;&gt;4 -->
<g id="edge10" class="edge">
<title>4&#45;&gt;4</title>
<path fill="none" stroke="black" d="M185.29,-162.94C183.29,-173.69 186.86,-183.59 196,-183.59 203,-183.59 206.73,-177.79 207.2,-170.24"/>
<polygon fill="black" stroke="black" points="206.71,-162.94 210.32,-169.71 206.95,-166.43 207.18,-169.92 207.18,-169.92 207.18,-169.92 206.95,-166.43 204.04,-170.13 206.71,-162.94 206.71,-162.94"/>
<text text-anchor="start" x="182.5" y="-186.99" font-family="Lato" font-size="12.00">a &amp; c</text>
</g>
<!-- 5&#45;&gt;2 -->
<g id="edge11" class="edge">
<title>5&#45;&gt;2</title>
<path fill="none" stroke="black" d="M217.14,-56.93C234.17,-63.3 257.99,-74.76 272,-92.59 297.47,-125.01 306.32,-173.08 309.38,-203.62"/>
<polygon fill="black" stroke="black" points="310.01,-210.61 306.25,-203.92 309.7,-207.12 309.38,-203.63 309.38,-203.63 309.38,-203.63 309.7,-207.12 312.52,-203.35 310.01,-210.61 310.01,-210.61"/>
<text text-anchor="start" x="241" y="-95.99" font-family="Lato" font-size="12.00">!a &amp; b</text>
</g>
<!-- 5&#45;&gt;3 -->
<g id="edge12" class="edge">
<title>5&#45;&gt;3</title>
<path fill="none" stroke="black" d="M218.18,-50.59C236.41,-50.59 262.88,-50.59 282.89,-50.59"/>
<polygon fill="black" stroke="black" points="289.94,-50.59 282.94,-53.74 286.44,-50.59 282.94,-50.59 282.94,-50.59 282.94,-50.59 286.44,-50.59 282.94,-47.44 289.94,-50.59 289.94,-50.59"/>
<text text-anchor="start" x="241" y="-53.99" font-family="Lato" font-size="12.00">a &amp; !b</text>
</g>
<!-- 5&#45;&gt;5 -->
<g id="edge13" class="edge">
<title>5&#45;&gt;5</title>
<path fill="none" stroke="black" d="M185.29,-69.94C183.29,-80.69 186.86,-90.59 196,-90.59 203,-90.59 206.73,-84.79 207.2,-77.24"/>
<polygon fill="black" stroke="black" points="206.71,-69.94 210.32,-76.71 206.95,-73.43 207.18,-76.92 207.18,-76.92 207.18,-76.92 206.95,-73.43 204.04,-77.13 206.71,-69.94 206.71,-69.94"/>
<text text-anchor="start" x="182" y="-93.99" font-family="Lato" font-size="12.00">a &amp; b</text>
</g>
</g>
</svg>
