<?xml version="1.0" encoding="UTF-8" standalone="no"?>
<?xml-stylesheet href="spot.css" type="text/css"?>
<!DOCTYPE svg PUBLIC "-//W3C//DTD SVG 1.1//EN"
 "http://www.w3.org/Graphics/SVG/1.1/DTD/svg11.dtd">
<!-- Generated by graphviz version 2.43.0 (0)
 -->
<!-- Title: a U X(b | GF!b) Pages: 1 -->
<svg width="447pt" height="197pt"
 viewBox="0.00 0.00 447.00 197.00" xmlns="http://www.w3.org/2000/svg" xmlns:xlink="http://www.w3.org/1999/xlink">
<g id="graph0" class="graph" transform="scale(1 1) rotate(0) translate(4 193)">
<title>a U X(b | GF!b)</title>
<polygon fill="white" stroke="transparent" points="-4,4 -4,-193 443,-193 443,4 -4,4"/>
<text text-anchor="start" x="200.5" y="-175.4" font-family="Lato" font-size="12.00">[Büchi]</text>
<!-- I -->
<!-- 0 -->
<g id="node2" class="node">
<title>0</title>
<ellipse fill="#ffffa0" stroke="black" cx="56" cy="-67" rx="18" ry="18"/>
<text text-anchor="middle" x="56" y="-63.9" font-family="Lato" font-size="12.00">0</text>
</g>
<!-- I&#45;&gt;0 -->
<g id="edge1" class="edge">
<title>I&#45;&gt;0</title>
<path fill="none" stroke="black" d="M1.15,-67C2.79,-67 17.15,-67 30.63,-67"/>
<polygon fill="black" stroke="black" points="37.94,-67 30.94,-70.15 34.44,-67 30.94,-67 30.94,-67 30.94,-67 34.44,-67 30.94,-63.85 37.94,-67 37.94,-67"/>
</g>
<!-- 1 -->
<g id="node3" class="node">
<title>1</title>
<ellipse fill="#ffffa0" stroke="black" cx="249" cy="-84" rx="18" ry="18"/>
<text text-anchor="middle" x="249" y="-80.9" font-family="Lato" font-size="12.00">1</text>
</g>
<!-- 0&#45;&gt;1 -->
<g id="edge2" class="edge">
<title>0&#45;&gt;1</title>
<path fill="none" stroke="black" d="M73.04,-72.85C84.98,-76.89 101.77,-81.88 117,-84 153.91,-89.13 197.22,-87.69 223.64,-85.99"/>
<polygon fill="black" stroke="black" points="230.94,-85.49 224.17,-89.11 227.45,-85.73 223.96,-85.97 223.96,-85.97 223.96,-85.97 227.45,-85.73 223.74,-82.83 230.94,-85.49 230.94,-85.49"/>
<text text-anchor="start" x="134" y="-90.4" font-family="Lato" font-size="12.00">!a</text>
</g>
<!-- 2 -->
<g id="node4" class="node">
<title>2</title>
<ellipse fill="#ffffa0" stroke="black" cx="139" cy="-22" rx="18" ry="18"/>
<ellipse fill="none" stroke="black" cx="139" cy="-22" rx="22" ry="22"/>
<text text-anchor="middle" x="139" y="-18.9" font-family="Lato" font-size="12.00">2</text>
</g>
<!-- 0&#45;&gt;2 -->
<g id="edge3" class="edge">
<title>0&#45;&gt;2</title>
<path fill="none" stroke="black" d="M72.24,-58.54C83.74,-52.15 99.76,-43.24 113.11,-35.83"/>
<polygon fill="black" stroke="black" points="119.42,-32.32 114.83,-38.48 116.36,-34.02 113.3,-35.72 113.3,-35.72 113.3,-35.72 116.36,-34.02 111.77,-32.97 119.42,-32.32 119.42,-32.32"/>
<text text-anchor="start" x="92" y="-51.4" font-family="Lato" font-size="12.00">a</text>
</g>
<!-- 4 -->
<g id="node5" class="node">
<title>4</title>
<ellipse fill="#ffffa0" stroke="black" cx="335" cy="-115" rx="18" ry="18"/>
<ellipse fill="none" stroke="black" cx="335" cy="-115" rx="22" ry="22"/>
<text text-anchor="middle" x="335" y="-111.9" font-family="Lato" font-size="12.00">4</text>
</g>
<!-- 1&#45;&gt;4 -->
<g id="edge4" class="edge">
<title>1&#45;&gt;4</title>
<path fill="none" stroke="black" d="M266.2,-89.98C277.81,-94.26 293.71,-100.13 307.2,-105.11"/>
<polygon fill="black" stroke="black" points="314,-107.62 306.34,-108.15 310.72,-106.41 307.43,-105.2 307.43,-105.2 307.43,-105.2 310.72,-106.41 308.52,-102.24 314,-107.62 314,-107.62"/>
<text text-anchor="start" x="285" y="-103.4" font-family="Lato" font-size="12.00">!b</text>
</g>
<!-- 5 -->
<g id="node6" class="node">
<title>5</title>
<ellipse fill="#ffffa0" stroke="black" cx="335" cy="-22" rx="18" ry="18"/>
<ellipse fill="none" stroke="black" cx="335" cy="-22" rx="22" ry="22"/>
<text text-anchor="middle" x="335" y="-18.9" font-family="Lato" font-size="12.00">5</text>
</g>
<!-- 1&#45;&gt;5 -->
<g id="edge5" class="edge">
<title>1&#45;&gt;5</title>
<path fill="none" stroke="black" d="M263.87,-73.76C276.71,-64.29 296.03,-50.03 311.14,-38.87"/>
<polygon fill="black" stroke="black" points="316.91,-34.61 313.15,-41.3 314.1,-36.69 311.28,-38.77 311.28,-38.77 311.28,-38.77 314.1,-36.69 309.41,-36.23 316.91,-34.61 316.91,-34.61"/>
<text text-anchor="start" x="286.5" y="-60.4" font-family="Lato" font-size="12.00">b</text>
</g>
<!-- 2&#45;&gt;1 -->
<g id="edge6" class="edge">
<title>2&#45;&gt;1</title>
<path fill="none" stroke="black" d="M158.81,-32.8C177.71,-43.65 206.78,-60.34 226.56,-71.69"/>
<polygon fill="black" stroke="black" points="232.88,-75.32 225.24,-74.57 229.85,-73.58 226.81,-71.84 226.81,-71.84 226.81,-71.84 229.85,-73.58 228.38,-69.11 232.88,-75.32 232.88,-75.32"/>
<text text-anchor="start" x="179" y="-66.4" font-family="Lato" font-size="12.00">!a &amp; !b</text>
</g>
<!-- 2&#45;&gt;2 -->
<g id="edge7" class="edge">
<title>2&#45;&gt;2</title>
<path fill="none" stroke="black" d="M131.32,-42.99C130.37,-53.09 132.93,-62 139,-62 143.55,-62 146.13,-56.99 146.74,-50.22"/>
<polygon fill="black" stroke="black" points="146.68,-42.99 149.88,-49.97 146.71,-46.49 146.73,-49.99 146.73,-49.99 146.73,-49.99 146.71,-46.49 143.58,-50.01 146.68,-42.99 146.68,-42.99"/>
<text text-anchor="start" x="123.5" y="-65.4" font-family="Lato" font-size="12.00">a &amp; !b</text>
</g>
<!-- 2&#45;&gt;5 -->
<g id="edge8" class="edge">
<title>2&#45;&gt;5</title>
<path fill="none" stroke="black" d="M161.13,-22C196.12,-22 266.11,-22 305.45,-22"/>
<polygon fill="black" stroke="black" points="312.9,-22 305.9,-25.15 309.4,-22 305.9,-22 305.9,-22 305.9,-22 309.4,-22 305.9,-18.85 312.9,-22 312.9,-22"/>
<text text-anchor="start" x="245.5" y="-25.4" font-family="Lato" font-size="12.00">b</text>
</g>
<!-- 4&#45;&gt;4 -->
<g id="edge12" class="edge">
<title>4&#45;&gt;4</title>
<path fill="none" stroke="black" d="M326.99,-135.58C325.89,-145.84 328.55,-155 335,-155 339.83,-155 342.54,-149.85 343.13,-142.95"/>
<polygon fill="black" stroke="black" points="343.01,-135.58 346.27,-142.53 343.06,-139.08 343.12,-142.58 343.12,-142.58 343.12,-142.58 343.06,-139.08 339.97,-142.63 343.01,-135.58 343.01,-135.58"/>
<text text-anchor="start" x="330" y="-158.4" font-family="Lato" font-size="12.00">!b</text>
</g>
<!-- 3 -->
<g id="node7" class="node">
<title>3</title>
<ellipse fill="#ffffa0" stroke="black" cx="421" cy="-115" rx="18" ry="18"/>
<text text-anchor="middle" x="421" y="-111.9" font-family="Lato" font-size="12.00">3</text>
</g>
<!-- 4&#45;&gt;3 -->
<g id="edge11" class="edge">
<title>4&#45;&gt;3</title>
<path fill="none" stroke="black" d="M357.2,-115C368.87,-115 383.41,-115 395.56,-115"/>
<polygon fill="black" stroke="black" points="402.77,-115 395.77,-118.15 399.27,-115 395.77,-115 395.77,-115 395.77,-115 399.27,-115 395.77,-111.85 402.77,-115 402.77,-115"/>
<text text-anchor="start" x="376.5" y="-118.4" font-family="Lato" font-size="12.00">b</text>
</g>
<!-- 5&#45;&gt;5 -->
<g id="edge13" class="edge">
<title>5&#45;&gt;5</title>
<path fill="none" stroke="black" d="M326.99,-42.58C325.89,-52.84 328.55,-62 335,-62 339.83,-62 342.54,-56.85 343.13,-49.95"/>
<polygon fill="black" stroke="black" points="343.01,-42.58 346.27,-49.53 343.06,-46.08 343.12,-49.58 343.12,-49.58 343.12,-49.58 343.06,-46.08 339.97,-49.63 343.01,-42.58 343.01,-42.58"/>
<text text-anchor="middle" x="335" y="-65.4" font-family="Lato" font-size="12.00">1</text>
</g>
<!-- 3&#45;&gt;4 -->
<g id="edge10" class="edge">
<title>3&#45;&gt;4</title>
<path fill="none" stroke="black" d="M405.22,-105.98C399.18,-102.8 391.98,-99.61 385,-98 376.94,-96.15 368.35,-97.81 360.66,-100.71"/>
<polygon fill="black" stroke="black" points="353.88,-103.65 359.04,-97.98 357.09,-102.26 360.3,-100.87 360.3,-100.87 360.3,-100.87 357.09,-102.26 361.55,-103.75 353.88,-103.65 353.88,-103.65"/>
<text text-anchor="start" x="375" y="-101.4" font-family="Lato" font-size="12.00">!b</text>
</g>
<!-- 3&#45;&gt;3 -->
<g id="edge9" class="edge">
<title>3&#45;&gt;3</title>
<path fill="none" stroke="black" d="M413.97,-131.66C412.41,-141.62 414.75,-151 421,-151 425.69,-151 428.18,-145.73 428.47,-138.89"/>
<polygon fill="black" stroke="black" points="428.03,-131.66 431.6,-138.46 428.24,-135.16 428.46,-138.65 428.46,-138.65 428.46,-138.65 428.24,-135.16 425.31,-138.84 428.03,-131.66 428.03,-131.66"/>
<text text-anchor="start" x="417.5" y="-154.4" font-family="Lato" font-size="12.00">b</text>
</g>
</g>
</svg>
