<?xml version="1.0" encoding="UTF-8" standalone="no"?>
<?xml-stylesheet href="spot.css" type="text/css"?>
<!DOCTYPE svg PUBLIC "-//W3C//DTD SVG 1.1//EN"
 "http://www.w3.org/Graphics/SVG/1.1/DTD/svg11.dtd">
<!-- Generated by graphviz version 2.43.0 (0)
 -->
<!-- Title: a U X(b | GF!b) Pages: 1 -->
<svg width="349pt" height="249pt"
 viewBox="0.00 0.00 349.00 249.00" xmlns="http://www.w3.org/2000/svg" xmlns:xlink="http://www.w3.org/1999/xlink">
<g id="graph0" class="graph" transform="scale(1 1) rotate(0) translate(4 245)">
<title>a U X(b | GF!b)</title>
<polygon fill="white" stroke="transparent" points="-4,4 -4,-245 345,-245 345,4 -4,4"/>
<text text-anchor="start" x="152.5" y="-228.4" font-family="Lato" font-size="12.00">Inf(</text>
<text text-anchor="start" x="170.5" y="-228.4" font-family="Lato" font-size="12.00" fill="#1f78b4">⓿</text>
<text text-anchor="start" x="184.5" y="-228.4" font-family="Lato" font-size="12.00">)</text>
<text text-anchor="start" x="151.5" y="-216.4" font-family="Lato" font-size="12.00">[Büchi]</text>
<!-- I -->
<!-- 0 -->
<g id="node2" class="node">
<title>0</title>
<ellipse fill="#ffffa0" stroke="black" cx="56" cy="-67" rx="18" ry="18"/>
<text text-anchor="middle" x="56" y="-63.9" font-family="Lato" font-size="12.00">0</text>
</g>
<!-- I&#45;&gt;0 -->
<g id="edge1" class="edge">
<title>I&#45;&gt;0</title>
<path fill="none" stroke="black" d="M1.15,-67C2.79,-67 17.15,-67 30.63,-67"/>
<polygon fill="black" stroke="black" points="37.94,-67 30.94,-70.15 34.44,-67 30.94,-67 30.94,-67 30.94,-67 34.44,-67 30.94,-63.85 37.94,-67 37.94,-67"/>
</g>
<!-- 1 -->
<g id="node3" class="node">
<title>1</title>
<ellipse fill="#ffffa0" stroke="black" cx="241" cy="-84" rx="18" ry="18"/>
<text text-anchor="middle" x="241" y="-80.9" font-family="Lato" font-size="12.00">1</text>
</g>
<!-- 0&#45;&gt;1 -->
<g id="edge2" class="edge">
<title>0&#45;&gt;1</title>
<path fill="none" stroke="black" d="M72.62,-74.45C84.49,-79.69 101.38,-86.23 117,-89 150.94,-95.03 190.95,-91.47 215.9,-88.02"/>
<polygon fill="black" stroke="black" points="223.13,-86.96 216.66,-91.09 219.67,-87.47 216.21,-87.97 216.21,-87.97 216.21,-87.97 219.67,-87.47 215.75,-84.86 223.13,-86.96 223.13,-86.96"/>
<text text-anchor="start" x="130" y="-95.4" font-family="Lato" font-size="12.00">!a</text>
</g>
<!-- 3 -->
<g id="node4" class="node">
<title>3</title>
<ellipse fill="#ffffa0" stroke="black" cx="135" cy="-18" rx="18" ry="18"/>
<text text-anchor="middle" x="135" y="-14.9" font-family="Lato" font-size="12.00">3</text>
</g>
<!-- 0&#45;&gt;3 -->
<g id="edge3" class="edge">
<title>0&#45;&gt;3</title>
<path fill="none" stroke="black" d="M71.48,-57.78C83.24,-50.3 99.97,-39.66 113.16,-31.26"/>
<polygon fill="black" stroke="black" points="119.32,-27.34 115.11,-33.76 116.37,-29.22 113.41,-31.1 113.41,-31.1 113.41,-31.1 116.37,-29.22 111.72,-28.44 119.32,-27.34 119.32,-27.34"/>
<text text-anchor="start" x="92" y="-46.4" font-family="Lato" font-size="12.00">a</text>
</g>
<!-- 2 -->
<g id="node5" class="node">
<title>2</title>
<ellipse fill="#ffffa0" stroke="black" cx="323" cy="-116" rx="18" ry="18"/>
<text text-anchor="middle" x="323" y="-112.9" font-family="Lato" font-size="12.00">2</text>
</g>
<!-- 1&#45;&gt;2 -->
<g id="edge4" class="edge">
<title>1&#45;&gt;2</title>
<path fill="none" stroke="black" d="M258.19,-90.48C270.09,-95.23 286.4,-101.76 299.56,-107.02"/>
<polygon fill="black" stroke="black" points="306.11,-109.64 298.44,-109.97 302.86,-108.34 299.61,-107.04 299.61,-107.04 299.61,-107.04 302.86,-108.34 300.78,-104.12 306.11,-109.64 306.11,-109.64"/>
<text text-anchor="start" x="277" y="-104.4" font-family="Lato" font-size="12.00">!b</text>
</g>
<!-- 4 -->
<g id="node6" class="node">
<title>4</title>
<ellipse fill="#ffffa0" stroke="black" cx="323" cy="-18" rx="18" ry="18"/>
<text text-anchor="middle" x="323" y="-14.9" font-family="Lato" font-size="12.00">4</text>
</g>
<!-- 1&#45;&gt;4 -->
<g id="edge5" class="edge">
<title>1&#45;&gt;4</title>
<path fill="none" stroke="black" d="M255.57,-72.8C268.64,-62.02 288.51,-45.63 303.12,-33.58"/>
<polygon fill="black" stroke="black" points="308.63,-29.03 305.23,-35.92 305.93,-31.26 303.23,-33.49 303.23,-33.49 303.23,-33.49 305.93,-31.26 301.23,-31.06 308.63,-29.03 308.63,-29.03"/>
<text text-anchor="start" x="278.5" y="-57.4" font-family="Lato" font-size="12.00">b</text>
</g>
<!-- 3&#45;&gt;1 -->
<g id="edge8" class="edge">
<title>3&#45;&gt;1</title>
<path fill="none" stroke="black" d="M150.9,-27.46C168.92,-38.89 199.34,-58.2 219.54,-71.02"/>
<polygon fill="black" stroke="black" points="225.46,-74.77 217.86,-73.68 222.51,-72.9 219.55,-71.02 219.55,-71.02 219.55,-71.02 222.51,-72.9 221.24,-68.36 225.46,-74.77 225.46,-74.77"/>
<text text-anchor="start" x="171" y="-63.4" font-family="Lato" font-size="12.00">!a &amp; !b</text>
</g>
<!-- 3&#45;&gt;3 -->
<g id="edge9" class="edge">
<title>3&#45;&gt;3</title>
<path fill="none" stroke="black" d="M128.27,-35.04C126.89,-44.86 129.14,-54 135,-54 139.4,-54 141.76,-48.86 142.09,-42.14"/>
<polygon fill="black" stroke="black" points="141.73,-35.04 145.23,-41.87 141.91,-38.53 142.08,-42.03 142.08,-42.03 142.08,-42.03 141.91,-38.53 138.93,-42.18 141.73,-35.04 141.73,-35.04"/>
<text text-anchor="start" x="119.5" y="-70.4" font-family="Lato" font-size="12.00">a &amp; !b</text>
<text text-anchor="start" x="128" y="-57.4" font-family="Lato" font-size="12.00" fill="#1f78b4">⓿</text>
</g>
<!-- 3&#45;&gt;4 -->
<g id="edge10" class="edge">
<title>3&#45;&gt;4</title>
<path fill="none" stroke="black" d="M153.17,-18C186.38,-18 259.55,-18 297.73,-18"/>
<polygon fill="black" stroke="black" points="304.88,-18 297.88,-21.15 301.38,-18 297.88,-18 297.88,-18 297.88,-18 301.38,-18 297.88,-14.85 304.88,-18 304.88,-18"/>
<text text-anchor="start" x="237.5" y="-21.4" font-family="Lato" font-size="12.00">b</text>
</g>
<!-- 2&#45;&gt;2 -->
<g id="edge6" class="edge">
<title>2&#45;&gt;2</title>
<path fill="none" stroke="black" d="M319.4,-133.78C318.79,-143.31 319.99,-152 323,-152 325.21,-152 326.44,-147.32 326.7,-141.05"/>
<polygon fill="black" stroke="black" points="326.6,-133.78 329.85,-140.74 326.65,-137.28 326.7,-140.78 326.7,-140.78 326.7,-140.78 326.65,-137.28 323.55,-140.83 326.6,-133.78 326.6,-133.78"/>
<text text-anchor="start" x="319.5" y="-155.4" font-family="Lato" font-size="12.00">b</text>
</g>
<!-- 2&#45;&gt;2 -->
<g id="edge7" class="edge">
<title>2&#45;&gt;2</title>
<path fill="none" stroke="black" d="M317.15,-133.14C313.71,-150.58 315.66,-170 323,-170 329.37,-170 331.68,-155.4 329.94,-140.15"/>
<polygon fill="black" stroke="black" points="328.85,-133.14 333.04,-139.58 329.39,-136.6 329.92,-140.06 329.92,-140.06 329.92,-140.06 329.39,-136.6 326.81,-140.54 328.85,-133.14 328.85,-133.14"/>
<text text-anchor="start" x="318" y="-186.4" font-family="Lato" font-size="12.00">!b</text>
<text text-anchor="start" x="316" y="-173.4" font-family="Lato" font-size="12.00" fill="#1f78b4">⓿</text>
</g>
<!-- 4&#45;&gt;4 -->
<g id="edge11" class="edge">
<title>4&#45;&gt;4</title>
<path fill="none" stroke="black" d="M315.97,-34.66C314.41,-44.62 316.75,-54 323,-54 327.69,-54 330.18,-48.73 330.47,-41.89"/>
<polygon fill="black" stroke="black" points="330.03,-34.66 333.6,-41.46 330.24,-38.16 330.46,-41.65 330.46,-41.65 330.46,-41.65 330.24,-38.16 327.31,-41.84 330.03,-34.66 330.03,-34.66"/>
<text text-anchor="start" x="319.5" y="-70.4" font-family="Lato" font-size="12.00">1</text>
<text text-anchor="start" x="316" y="-57.4" font-family="Lato" font-size="12.00" fill="#1f78b4">⓿</text>
</g>
</g>
</svg>
