<?xml version="1.0" encoding="UTF-8" standalone="no"?>
<?xml-stylesheet href="spot.css" type="text/css"?>
<!DOCTYPE svg PUBLIC "-//W3C//DTD SVG 1.1//EN"
 "http://www.w3.org/Graphics/SVG/1.1/DTD/svg11.dtd">
<!-- Generated by graphviz version 2.43.0 (0)
 -->
<!-- Title: G Pages: 1 -->
<svg width="625pt" height="419pt"
 viewBox="0.00 0.00 625.00 418.65" xmlns="http://www.w3.org/2000/svg" xmlns:xlink="http://www.w3.org/1999/xlink">
<g id="graph0" class="graph" transform="scale(1 1) rotate(0) translate(4 414.65)">
<title>G</title>
<polygon fill="white" stroke="transparent" points="-4,4 -4,-414.65 621,-414.65 621,4 -4,4"/>
<!-- 0 -->
<!-- 1 -->
<g id="node2" class="node">
<title>1</title>
<ellipse fill="#ffffa0" stroke="black" cx="118" cy="-311.65" rx="27" ry="18"/>
<text text-anchor="middle" x="118" y="-308.55" font-family="Lato" font-size="12.00">init</text>
</g>
<!-- 0&#45;&gt;1 -->
<g id="edge1" class="edge">
<title>0&#45;&gt;1</title>
<path fill="none" stroke="black" d="M54.22,-311.65C63.46,-311.65 73.96,-311.65 83.7,-311.65"/>
<polygon fill="black" stroke="black" points="90.97,-311.65 83.97,-314.8 87.47,-311.65 83.97,-311.65 83.97,-311.65 83.97,-311.65 87.47,-311.65 83.97,-308.5 90.97,-311.65 90.97,-311.65"/>
</g>
<!-- 2 -->
<g id="node3" class="node">
<title>2</title>
<ellipse fill="#ffffa0" stroke="black" cx="242" cy="-161.65" rx="27" ry="18"/>
<text text-anchor="middle" x="242" y="-158.55" font-family="Lato" font-size="12.00">2</text>
</g>
<!-- 1&#45;&gt;2 -->
<g id="edge2" class="edge">
<title>1&#45;&gt;2</title>
<path fill="none" stroke="black" d="M128.74,-295.14C137.19,-281.23 150.07,-261.05 163,-244.65 181.04,-221.78 204.15,-197.74 220.52,-181.45"/>
<polygon fill="black" stroke="black" points="225.8,-176.24 223.03,-183.4 223.31,-178.7 220.82,-181.16 220.82,-181.16 220.82,-181.16 223.31,-178.7 218.61,-178.92 225.8,-176.24 225.8,-176.24"/>
<text text-anchor="middle" x="180" y="-261.05" font-family="Lato" font-size="12.00">!a &amp; !b</text>
<text text-anchor="middle" x="180" y="-248.05" font-family="Lato" font-size="12.00">{}</text>
</g>
<!-- 3 -->
<g id="node4" class="node">
<title>3</title>
<ellipse fill="#ffffa0" stroke="black" cx="360" cy="-243.65" rx="27" ry="18"/>
<text text-anchor="middle" x="360" y="-240.55" font-family="Lato" font-size="12.00">3</text>
</g>
<!-- 1&#45;&gt;3 -->
<g id="edge3" class="edge">
<title>1&#45;&gt;3</title>
<path fill="none" stroke="black" d="M144.24,-307.36C182.04,-300.54 255.3,-285.8 315,-264.65 320.62,-262.66 326.48,-260.18 332.02,-257.62"/>
<polygon fill="black" stroke="black" points="338.34,-254.61 333.38,-260.47 335.18,-256.12 332.02,-257.62 332.02,-257.62 332.02,-257.62 335.18,-256.12 330.67,-254.78 338.34,-254.61 338.34,-254.61"/>
<text text-anchor="middle" x="242" y="-309.05" font-family="Lato" font-size="12.00">!a &amp; b</text>
<text text-anchor="middle" x="242" y="-296.05" font-family="Lato" font-size="12.00">{}</text>
</g>
<!-- 4 -->
<g id="node5" class="node">
<title>4</title>
<ellipse fill="#ffffa0" stroke="black" cx="590" cy="-210.65" rx="27" ry="18"/>
<text text-anchor="middle" x="590" y="-207.55" font-family="Lato" font-size="12.00">4</text>
</g>
<!-- 1&#45;&gt;4 -->
<g id="edge4" class="edge">
<title>1&#45;&gt;4</title>
<path fill="none" stroke="black" d="M132.77,-326.78C153.84,-348.16 196.32,-384.65 241,-384.65 241,-384.65 241,-384.65 476,-384.65 546.23,-384.65 575.03,-283.71 584.77,-235.59"/>
<polygon fill="black" stroke="black" points="586.12,-228.62 587.88,-236.09 585.46,-232.06 584.79,-235.49 584.79,-235.49 584.79,-235.49 585.46,-232.06 581.7,-234.89 586.12,-228.62 586.12,-228.62"/>
<text text-anchor="middle" x="360" y="-401.05" font-family="Lato" font-size="12.00">a &amp; !b</text>
<text text-anchor="middle" x="360" y="-388.05" font-family="Lato" font-size="12.00">{}</text>
</g>
<!-- 5 -->
<g id="node6" class="node">
<title>5</title>
<ellipse fill="#ffffa0" stroke="black" cx="475" cy="-161.65" rx="27" ry="18"/>
<text text-anchor="middle" x="475" y="-158.55" font-family="Lato" font-size="12.00">1</text>
</g>
<!-- 1&#45;&gt;5 -->
<g id="edge5" class="edge">
<title>1&#45;&gt;5</title>
<path fill="none" stroke="black" d="M142.81,-319.38C192.13,-333.86 307.47,-359.77 387,-314.65 411.94,-300.51 447.06,-224.9 464.04,-185.53"/>
<polygon fill="black" stroke="black" points="466.8,-179.08 466.94,-186.75 465.42,-182.3 464.04,-185.51 464.04,-185.51 464.04,-185.51 465.42,-182.3 461.15,-184.28 466.8,-179.08 466.8,-179.08"/>
<text text-anchor="middle" x="301" y="-356.05" font-family="Lato" font-size="12.00">a &amp; b</text>
<text text-anchor="middle" x="301" y="-343.05" font-family="Lato" font-size="12.00">{}</text>
</g>
<!-- 2&#45;&gt;2 -->
<g id="edge9" class="edge">
<title>2&#45;&gt;2</title>
<path fill="none" stroke="black" d="M231.72,-178.69C229.62,-188.51 233.05,-197.65 242,-197.65 248.71,-197.65 252.32,-192.51 252.82,-185.8"/>
<polygon fill="black" stroke="black" points="252.28,-178.69 255.95,-185.43 252.54,-182.18 252.81,-185.67 252.81,-185.67 252.81,-185.67 252.54,-182.18 249.66,-185.91 252.28,-178.69 252.28,-178.69"/>
<text text-anchor="middle" x="242" y="-214.05" font-family="Lato" font-size="12.00">{}</text>
<text text-anchor="middle" x="242" y="-201.05" font-family="Lato" font-size="12.00">{}</text>
</g>
<!-- 2&#45;&gt;3 -->
<g id="edge6" class="edge">
<title>2&#45;&gt;3</title>
<path fill="none" stroke="black" d="M266.31,-169.97C281.06,-175.87 300.09,-184.67 315,-195.65 325.1,-203.1 334.71,-213.1 342.36,-222.06"/>
<polygon fill="black" stroke="black" points="346.85,-227.46 339.96,-224.1 344.62,-224.77 342.38,-222.08 342.38,-222.08 342.38,-222.08 344.62,-224.77 344.8,-220.07 346.85,-227.46 346.85,-227.46"/>
<text text-anchor="middle" x="301" y="-212.05" font-family="Lato" font-size="12.00">{b}</text>
<text text-anchor="middle" x="301" y="-199.05" font-family="Lato" font-size="12.00">{}</text>
</g>
<!-- 2&#45;&gt;4 -->
<g id="edge7" class="edge">
<title>2&#45;&gt;4</title>
<path fill="none" stroke="black" d="M244.46,-143.55C247.57,-116.96 257.25,-67.51 287,-39.65 334.68,5 365.35,3.7 430,-5.65 482.75,-13.29 507.99,-1.3 545,-39.65 583.35,-79.4 589.52,-147.91 589.8,-185"/>
<polygon fill="black" stroke="black" points="589.78,-192.42 586.65,-185.41 589.79,-188.92 589.8,-185.42 589.8,-185.42 589.8,-185.42 589.79,-188.92 592.95,-185.43 589.78,-192.42 589.78,-192.42"/>
<text text-anchor="middle" x="417.5" y="-22.05" font-family="Lato" font-size="12.00">{a}</text>
<text text-anchor="middle" x="417.5" y="-9.05" font-family="Lato" font-size="12.00">{}</text>
</g>
<!-- 2&#45;&gt;5 -->
<g id="edge8" class="edge">
<title>2&#45;&gt;5</title>
<path fill="none" stroke="black" d="M260.87,-148.7C278.29,-136.92 306.03,-120.4 333,-113.65 356.28,-107.83 363.62,-108.25 387,-113.65 410.35,-119.05 433.98,-132.73 450.71,-144.11"/>
<polygon fill="black" stroke="black" points="456.55,-148.18 449,-146.76 453.68,-146.18 450.81,-144.17 450.81,-144.17 450.81,-144.17 453.68,-146.18 452.61,-141.59 456.55,-148.18 456.55,-148.18"/>
<text text-anchor="middle" x="360" y="-130.05" font-family="Lato" font-size="12.00">{a, b}</text>
<text text-anchor="middle" x="360" y="-117.05" font-family="Lato" font-size="12.00">{}</text>
</g>
<!-- 3&#45;&gt;2 -->
<g id="edge10" class="edge">
<title>3&#45;&gt;2</title>
<path fill="none" stroke="black" d="M333.23,-239.92C318.64,-236.84 300.64,-231.34 287,-221.65 273.72,-212.23 262.86,-197.54 255.24,-185.06"/>
<polygon fill="black" stroke="black" points="251.56,-178.77 257.82,-183.22 253.33,-181.79 255.1,-184.81 255.1,-184.81 255.1,-184.81 253.33,-181.79 252.38,-186.4 251.56,-178.77 251.56,-178.77"/>
<text text-anchor="middle" x="301" y="-251.05" font-family="Lato" font-size="12.00">{b}</text>
<text text-anchor="middle" x="301" y="-238.05" font-family="Lato" font-size="12.00">{1}</text>
</g>
<!-- 3&#45;&gt;3 -->
<g id="edge13" class="edge">
<title>3&#45;&gt;3</title>
<path fill="none" stroke="black" d="M350.08,-260.69C348.05,-270.51 351.36,-279.65 360,-279.65 366.48,-279.65 369.96,-274.51 370.44,-267.8"/>
<polygon fill="black" stroke="black" points="369.92,-260.69 373.57,-267.44 370.18,-264.18 370.43,-267.67 370.43,-267.67 370.43,-267.67 370.18,-264.18 367.29,-267.9 369.92,-260.69 369.92,-260.69"/>
<text text-anchor="middle" x="360" y="-296.05" font-family="Lato" font-size="12.00">{}</text>
<text text-anchor="middle" x="360" y="-283.05" font-family="Lato" font-size="12.00">{}</text>
</g>
<!-- 3&#45;&gt;4 -->
<g id="edge11" class="edge">
<title>3&#45;&gt;4</title>
<path fill="none" stroke="black" d="M385.53,-249.58C391.84,-250.86 398.64,-252.01 405,-252.65 416.05,-253.77 418.95,-253.84 430,-252.65 482.01,-247.07 494.9,-242.68 545,-227.65 549.96,-226.17 555.16,-224.38 560.17,-222.52"/>
<polygon fill="black" stroke="black" points="566.85,-219.98 561.43,-225.41 563.58,-221.23 560.31,-222.47 560.31,-222.47 560.31,-222.47 563.58,-221.23 559.19,-219.53 566.85,-219.98 566.85,-219.98"/>
<text text-anchor="middle" x="475" y="-266.05" font-family="Lato" font-size="12.00">{a, b}</text>
<text text-anchor="middle" x="475" y="-253.05" font-family="Lato" font-size="12.00">{1}</text>
</g>
<!-- 3&#45;&gt;5 -->
<g id="edge12" class="edge">
<title>3&#45;&gt;5</title>
<path fill="none" stroke="black" d="M383.58,-234.61C397.65,-228.41 415.71,-219.38 430,-208.65 439.73,-201.35 449.15,-191.76 456.75,-183.14"/>
<polygon fill="black" stroke="black" points="461.71,-177.38 459.53,-184.74 459.43,-180.03 457.14,-182.69 457.14,-182.69 457.14,-182.69 459.43,-180.03 454.76,-180.63 461.71,-177.38 461.71,-177.38"/>
<text text-anchor="middle" x="417.5" y="-239.05" font-family="Lato" font-size="12.00">{a}</text>
<text text-anchor="middle" x="417.5" y="-226.05" font-family="Lato" font-size="12.00">{1}</text>
</g>
<!-- 4&#45;&gt;2 -->
<g id="edge14" class="edge">
<title>4&#45;&gt;2</title>
<path fill="none" stroke="black" d="M579,-193.91C570.95,-181.44 558.75,-164.58 545,-152.65 500.83,-114.31 486.62,-103.35 430,-88.65 367.4,-72.41 343.09,-83.45 287,-115.65 276.57,-121.64 267.05,-130.86 259.55,-139.47"/>
<polygon fill="black" stroke="black" points="254.7,-145.29 256.77,-137.9 256.94,-142.61 259.19,-139.92 259.19,-139.92 259.19,-139.92 256.94,-142.61 261.61,-141.93 254.7,-145.29 254.7,-145.29"/>
<text text-anchor="middle" x="417.5" y="-105.05" font-family="Lato" font-size="12.00">{a}</text>
<text text-anchor="middle" x="417.5" y="-92.05" font-family="Lato" font-size="12.00">{0}</text>
</g>
<!-- 4&#45;&gt;3 -->
<g id="edge15" class="edge">
<title>4&#45;&gt;3</title>
<path fill="none" stroke="black" d="M575.79,-226.03C560.16,-242.93 532.4,-269.06 502,-279.65 462.52,-293.41 415.16,-274.34 386.61,-259.13"/>
<polygon fill="black" stroke="black" points="380.47,-255.76 388.12,-256.37 383.53,-257.45 386.6,-259.13 386.6,-259.13 386.6,-259.13 383.53,-257.45 385.09,-261.89 380.47,-255.76 380.47,-255.76"/>
<text text-anchor="middle" x="475" y="-300.05" font-family="Lato" font-size="12.00">{a, b}</text>
<text text-anchor="middle" x="475" y="-287.05" font-family="Lato" font-size="12.00">{0}</text>
</g>
<!-- 4&#45;&gt;4 -->
<g id="edge17" class="edge">
<title>4&#45;&gt;4</title>
<path fill="none" stroke="black" d="M580.08,-227.69C578.05,-237.51 581.36,-246.65 590,-246.65 596.48,-246.65 599.96,-241.51 600.44,-234.8"/>
<polygon fill="black" stroke="black" points="599.92,-227.69 603.57,-234.44 600.18,-231.18 600.43,-234.67 600.43,-234.67 600.43,-234.67 600.18,-231.18 597.29,-234.9 599.92,-227.69 599.92,-227.69"/>
<text text-anchor="middle" x="590" y="-263.05" font-family="Lato" font-size="12.00">{}</text>
<text text-anchor="middle" x="590" y="-250.05" font-family="Lato" font-size="12.00">{}</text>
</g>
<!-- 4&#45;&gt;5 -->
<g id="edge16" class="edge">
<title>4&#45;&gt;5</title>
<path fill="none" stroke="black" d="M578.98,-194.01C571.25,-182.88 559.44,-169.13 545,-162.65 533.78,-157.62 520.45,-156.46 508.52,-156.88"/>
<polygon fill="black" stroke="black" points="501.31,-157.33 508.1,-153.75 504.8,-157.11 508.29,-156.9 508.29,-156.9 508.29,-156.9 504.8,-157.11 508.49,-160.04 501.31,-157.33 501.31,-157.33"/>
<text text-anchor="middle" x="532.5" y="-179.05" font-family="Lato" font-size="12.00">{b}</text>
<text text-anchor="middle" x="532.5" y="-166.05" font-family="Lato" font-size="12.00">{0}</text>
</g>
<!-- 5&#45;&gt;2 -->
<g id="edge18" class="edge">
<title>5&#45;&gt;2</title>
<path fill="none" stroke="black" d="M447.69,-161.65C405.41,-161.65 322.41,-161.65 276.15,-161.65"/>
<polygon fill="black" stroke="black" points="269.05,-161.65 276.05,-158.5 272.55,-161.65 276.05,-161.65 276.05,-161.65 276.05,-161.65 272.55,-161.65 276.05,-164.8 269.05,-161.65 269.05,-161.65"/>
<text text-anchor="middle" x="360" y="-178.05" font-family="Lato" font-size="12.00">{a, b}</text>
<text text-anchor="middle" x="360" y="-165.05" font-family="Lato" font-size="12.00">{0,1}</text>
</g>
<!-- 5&#45;&gt;3 -->
<g id="edge19" class="edge">
<title>5&#45;&gt;3</title>
<path fill="none" stroke="black" d="M447.89,-163.58C434.13,-165.65 417.55,-169.91 405,-178.65 390.3,-188.9 379.09,-205.77 371.67,-219.75"/>
<polygon fill="black" stroke="black" points="368.33,-226.34 368.68,-218.68 369.91,-223.22 371.49,-220.1 371.49,-220.1 371.49,-220.1 369.91,-223.22 374.3,-221.52 368.33,-226.34 368.33,-226.34"/>
<text text-anchor="middle" x="417.5" y="-195.05" font-family="Lato" font-size="12.00">{a}</text>
<text text-anchor="middle" x="417.5" y="-182.05" font-family="Lato" font-size="12.00">{0,1}</text>
</g>
<!-- 5&#45;&gt;4 -->
<g id="edge20" class="edge">
<title>5&#45;&gt;4</title>
<path fill="none" stroke="black" d="M494.29,-174.25C501.99,-179.19 511.2,-184.62 520,-188.65 531.94,-194.13 545.63,-198.8 557.65,-202.41"/>
<polygon fill="black" stroke="black" points="564.51,-204.41 556.91,-205.47 561.15,-203.43 557.79,-202.45 557.79,-202.45 557.79,-202.45 561.15,-203.43 558.68,-199.42 564.51,-204.41 564.51,-204.41"/>
<text text-anchor="middle" x="532.5" y="-214.05" font-family="Lato" font-size="12.00">{b}</text>
<text text-anchor="middle" x="532.5" y="-201.05" font-family="Lato" font-size="12.00">{0,1}</text>
</g>
<!-- 5&#45;&gt;5 -->
<g id="edge21" class="edge">
<title>5&#45;&gt;5</title>
<path fill="none" stroke="black" d="M465.08,-178.69C463.05,-188.51 466.36,-197.65 475,-197.65 481.48,-197.65 484.96,-192.51 485.44,-185.8"/>
<polygon fill="black" stroke="black" points="484.92,-178.69 488.57,-185.44 485.18,-182.18 485.43,-185.67 485.43,-185.67 485.43,-185.67 485.18,-182.18 482.29,-185.9 484.92,-178.69 484.92,-178.69"/>
<text text-anchor="middle" x="475" y="-214.05" font-family="Lato" font-size="12.00">{}</text>
<text text-anchor="middle" x="475" y="-201.05" font-family="Lato" font-size="12.00">{0,1}</text>
</g>
</g>
</svg>
