<?xml version="1.0" encoding="UTF-8" standalone="no"?>
<?xml-stylesheet href="spot.css" type="text/css"?>
<!DOCTYPE svg PUBLIC "-//W3C//DTD SVG 1.1//EN"
 "http://www.w3.org/Graphics/SVG/1.1/DTD/svg11.dtd">
<!-- Generated by graphviz version 2.43.0 (0)
 -->
<!-- Title: G Pages: 1 -->
<svg width="625pt" height="419pt"
 viewBox="0.00 0.00 625.00 418.65" xmlns="http://www.w3.org/2000/svg" xmlns:xlink="http://www.w3.org/1999/xlink">
<g id="graph0" class="graph" transform="scale(1 1) rotate(0) translate(4 414.65)">
<title>G</title>
<polygon fill="white" stroke="transparent" points="-4,4 -4,-414.65 621,-414.65 621,4 -4,4"/>
<!-- 0 -->
<!-- 1 -->
<g id="node2" class="node">
<title>1</title>
<ellipse fill="#ffffa0" stroke="black" cx="118" cy="-311.65" rx="27" ry="18"/>
<text text-anchor="middle" x="118" y="-308.55" font-family="Lato" font-size="12.00">init</text>
</g>
<!-- 0&#45;&gt;1 -->
<g id="edge1" class="edge">
<title>0&#45;&gt;1</title>
<path fill="none" stroke="black" d="M54.22,-311.65C63.46,-311.65 73.96,-311.65 83.7,-311.65"/>
<polygon fill="black" stroke="black" points="90.97,-311.65 83.97,-314.8 87.47,-311.65 83.97,-311.65 83.97,-311.65 83.97,-311.65 87.47,-311.65 83.97,-308.5 90.97,-311.65 90.97,-311.65"/>
</g>
<!-- 2 -->
<g id="node3" class="node">
<title>2</title>
<ellipse fill="#ffffa0" stroke="black" cx="242" cy="-161.65" rx="27" ry="18"/>
<text text-anchor="middle" x="242" y="-158.55" font-family="Lato" font-size="12.00">2</text>
</g>
<!-- 1&#45;&gt;2 -->
<g id="edge2" class="edge">
<title>1&#45;&gt;2</title>
<path fill="none" stroke="black" d="M128.74,-295.14C137.19,-281.23 150.07,-261.05 163,-244.65 181.04,-221.78 204.15,-197.74 220.52,-181.45"/>
<polygon fill="black" stroke="black" points="225.8,-176.24 223.03,-183.4 223.31,-178.7 220.82,-181.16 220.82,-181.16 220.82,-181.16 223.31,-178.7 218.61,-178.92 225.8,-176.24 225.8,-176.24"/>
<text text-anchor="middle" x="180" y="-261.05" font-family="Lato" font-size="12.00">!a &amp; !b</text>
<text text-anchor="middle" x="180" y="-248.05" font-family="Lato" font-size="12.00">{}</text>
</g>
<!-- 3 -->
<g id="node4" class="node">
<title>3</title>
<ellipse fill="#ffffa0" stroke="black" cx="360" cy="-243.65" rx="27" ry="18"/>
<text text-anchor="middle" x="360" y="-240.55" font-family="Lato" font-size="12.00">3</text>
</g>
<!-- 1&#45;&gt;3 -->
<g id="edge3" class="edge">
<title>1&#45;&gt;3</title>
<path fill="none" stroke="black" d="M144.24,-307.36C182.04,-300.54 255.3,-285.8 315,-264.65 320.62,-262.66 326.48,-260.18 332.02,-257.62"/>
<polygon fill="black" stroke="black" points="338.34,-254.61 333.38,-260.47 335.18,-256.12 332.02,-257.62 332.02,-257.62 332.02,-257.62 335.18,-256.12 330.67,-254.78 338.34,-254.61 338.34,-254.61"/>
<text text-anchor="middle" x="242" y="-309.05" font-family="Lato" font-size="12.00">!a &amp; b</text>
<text text-anchor="middle" x="242" y="-296.05" font-family="Lato" font-size="12.00">{}</text>
</g>
<!-- 4 -->
<g id="node5" class="node">
<title>4</title>
<ellipse fill="#ffffa0" stroke="black" cx="590" cy="-210.65" rx="27" ry="18"/>
<text text-anchor="middle" x="590" y="-207.55" font-family="Lato" font-size="12.00">4</text>
</g>
<!-- 1&#45;&gt;4 -->
<g id="edge4" class="edge">
<title>1&#45;&gt;4</title>
<path fill="none" stroke="black" d="M132.77,-326.78C153.84,-348.16 196.32,-384.65 241,-384.65 241,-384.65 241,-384.65 476,-384.65 546.23,-384.65 575.03,-283.71 584.77,-235.59"/>
<polygon fill="black" stroke="black" points="586.12,-228.62 587.88,-236.09 585.46,-232.06 584.79,-235.49 584.79,-235.49 584.79,-235.49 585.46,-232.06 581.7,-234.89 586.12,-228.62 586.12,-228.62"/>
<text text-anchor="middle" x="360" y="-401.05" font-family="Lato" font-size="12.00">a &amp; !b</text>
<text text-anchor="middle" x="360" y="-388.05" font-family="Lato" font-size="12.00">{}</text>
</g>
<!-- 5 -->
<g id="node6" class="node">
<title>5</title>
<polygon fill="#ffffa0" stroke="black" points="502,-212.65 448,-212.65 448,-176.65 502,-176.65 502,-212.65"/>
<text text-anchor="middle" x="475" y="-191.55" font-family="Lato" font-size="12.00">1</text>
</g>
<!-- 1&#45;&gt;5 -->
<g id="edge5" class="edge">
<title>1&#45;&gt;5</title>
<path fill="none" stroke="black" d="M143.9,-317.34C173.84,-323.3 225.49,-330.74 269,-322.65 344.39,-308.64 370.15,-308.58 430,-260.65 443.76,-249.63 454.77,-233.12 462.33,-219.38"/>
<polygon fill="black" stroke="black" points="465.76,-212.88 465.27,-220.54 464.12,-215.98 462.49,-219.07 462.49,-219.07 462.49,-219.07 464.12,-215.98 459.7,-217.6 465.76,-212.88 465.76,-212.88"/>
<text text-anchor="middle" x="301" y="-335.05" font-family="Lato" font-size="12.00">a &amp; b</text>
<text text-anchor="middle" x="301" y="-322.05" font-family="Lato" font-size="12.00">{}</text>
</g>
<!-- 2&#45;&gt;3 -->
<g id="edge6" class="edge">
<title>2&#45;&gt;3</title>
<path fill="none" stroke="black" d="M266.31,-169.97C281.06,-175.87 300.09,-184.67 315,-195.65 325.1,-203.1 334.71,-213.1 342.36,-222.06"/>
<polygon fill="black" stroke="black" points="346.85,-227.46 339.96,-224.1 344.62,-224.77 342.38,-222.08 342.38,-222.08 342.38,-222.08 344.62,-224.77 344.8,-220.07 346.85,-227.46 346.85,-227.46"/>
<text text-anchor="middle" x="301" y="-212.05" font-family="Lato" font-size="12.00">{b}</text>
<text text-anchor="middle" x="301" y="-199.05" font-family="Lato" font-size="12.00">{}</text>
</g>
<!-- 2&#45;&gt;4 -->
<g id="edge7" class="edge">
<title>2&#45;&gt;4</title>
<path fill="none" stroke="black" d="M244.46,-143.55C247.57,-116.96 257.25,-67.51 287,-39.65 334.68,5 365.35,3.7 430,-5.65 482.75,-13.29 507.99,-1.3 545,-39.65 583.35,-79.4 589.52,-147.91 589.8,-185"/>
<polygon fill="black" stroke="black" points="589.78,-192.42 586.65,-185.41 589.79,-188.92 589.8,-185.42 589.8,-185.42 589.8,-185.42 589.79,-188.92 592.95,-185.43 589.78,-192.42 589.78,-192.42"/>
<text text-anchor="middle" x="417.5" y="-22.05" font-family="Lato" font-size="12.00">{a}</text>
<text text-anchor="middle" x="417.5" y="-9.05" font-family="Lato" font-size="12.00">{}</text>
</g>
<!-- 2&#45;&gt;5 -->
<g id="edge8" class="edge">
<title>2&#45;&gt;5</title>
<path fill="none" stroke="black" d="M260.34,-148.31C287.44,-129.15 341.45,-97.82 387,-113.65 416.81,-124.01 442.04,-150.9 457.54,-170.87"/>
<polygon fill="black" stroke="black" points="461.84,-176.56 455.1,-172.87 459.73,-173.76 457.62,-170.97 457.62,-170.97 457.62,-170.97 459.73,-173.76 460.13,-169.07 461.84,-176.56 461.84,-176.56"/>
<text text-anchor="middle" x="360" y="-130.05" font-family="Lato" font-size="12.00">{a, b}</text>
<text text-anchor="middle" x="360" y="-117.05" font-family="Lato" font-size="12.00">{}</text>
</g>
<!-- 3&#45;&gt;2 -->
<g id="edge9" class="edge">
<title>3&#45;&gt;2</title>
<path fill="none" stroke="black" d="M333.23,-239.92C318.64,-236.84 300.64,-231.34 287,-221.65 273.72,-212.23 262.86,-197.54 255.24,-185.06"/>
<polygon fill="black" stroke="black" points="251.56,-178.77 257.82,-183.22 253.33,-181.79 255.1,-184.81 255.1,-184.81 255.1,-184.81 253.33,-181.79 252.38,-186.4 251.56,-178.77 251.56,-178.77"/>
<text text-anchor="middle" x="301" y="-251.05" font-family="Lato" font-size="12.00">{b}</text>
<text text-anchor="middle" x="301" y="-238.05" font-family="Lato" font-size="12.00">{1}</text>
</g>
<!-- 3&#45;&gt;4 -->
<g id="edge10" class="edge">
<title>3&#45;&gt;4</title>
<path fill="none" stroke="black" d="M382.47,-253.77C389.49,-256.58 397.43,-259.24 405,-260.65 415.92,-262.69 418.96,-261.93 430,-260.65 482.15,-254.61 495.79,-251.96 545,-233.65 550.92,-231.45 557.06,-228.62 562.81,-225.71"/>
<polygon fill="black" stroke="black" points="569.33,-222.28 564.6,-228.33 566.24,-223.91 563.14,-225.54 563.14,-225.54 563.14,-225.54 566.24,-223.91 561.67,-222.75 569.33,-222.28 569.33,-222.28"/>
<text text-anchor="middle" x="475" y="-274.05" font-family="Lato" font-size="12.00">{a, b}</text>
<text text-anchor="middle" x="475" y="-261.05" font-family="Lato" font-size="12.00">{1}</text>
</g>
<!-- 3&#45;&gt;5 -->
<g id="edge11" class="edge">
<title>3&#45;&gt;5</title>
<path fill="none" stroke="black" d="M385.49,-237.41C398.93,-233.6 415.71,-228.2 430,-221.65 433.76,-219.93 437.59,-217.96 441.35,-215.87"/>
<polygon fill="black" stroke="black" points="447.58,-212.28 443.08,-218.51 444.54,-214.03 441.51,-215.78 441.51,-215.78 441.51,-215.78 444.54,-214.03 439.94,-213.05 447.58,-212.28 447.58,-212.28"/>
<text text-anchor="middle" x="417.5" y="-247.05" font-family="Lato" font-size="12.00">{a}</text>
<text text-anchor="middle" x="417.5" y="-234.05" font-family="Lato" font-size="12.00">{1}</text>
</g>
<!-- 4&#45;&gt;2 -->
<g id="edge12" class="edge">
<title>4&#45;&gt;2</title>
<path fill="none" stroke="black" d="M578.51,-194.29C570.38,-182.52 558.3,-166.82 545,-155.65 500.37,-118.17 486.46,-107.11 430,-92.65 367.71,-76.71 342.92,-82.92 287,-114.65 276.05,-120.87 266.22,-130.71 258.64,-139.79"/>
<polygon fill="black" stroke="black" points="254.23,-145.3 256.14,-137.87 256.41,-142.57 258.6,-139.84 258.6,-139.84 258.6,-139.84 256.41,-142.57 261.06,-141.81 254.23,-145.3 254.23,-145.3"/>
<text text-anchor="middle" x="417.5" y="-109.05" font-family="Lato" font-size="12.00">{a}</text>
<text text-anchor="middle" x="417.5" y="-96.05" font-family="Lato" font-size="12.00">{0}</text>
</g>
<!-- 4&#45;&gt;3 -->
<g id="edge13" class="edge">
<title>4&#45;&gt;3</title>
<path fill="none" stroke="black" d="M577.32,-226.59C562.35,-245.48 534.42,-275.88 502,-287.65 461.12,-302.51 444.1,-293.72 405,-274.65 397.67,-271.08 390.22,-266.34 383.59,-261.64"/>
<polygon fill="black" stroke="black" points="377.76,-257.38 385.27,-258.97 380.58,-259.44 383.41,-261.51 383.41,-261.51 383.41,-261.51 380.58,-259.44 381.55,-264.05 377.76,-257.38 377.76,-257.38"/>
<text text-anchor="middle" x="475" y="-311.05" font-family="Lato" font-size="12.00">{a, b}</text>
<text text-anchor="middle" x="475" y="-298.05" font-family="Lato" font-size="12.00">{0}</text>
</g>
<!-- 4&#45;&gt;5 -->
<g id="edge14" class="edge">
<title>4&#45;&gt;5</title>
<path fill="none" stroke="black" d="M579.01,-193.94C571.29,-182.79 559.49,-169.03 545,-162.65 530.22,-156.15 513.82,-163.16 500.72,-172.26"/>
<polygon fill="black" stroke="black" points="494.94,-176.54 498.69,-169.84 497.75,-174.46 500.56,-172.37 500.56,-172.37 500.56,-172.37 497.75,-174.46 502.44,-174.9 494.94,-176.54 494.94,-176.54"/>
<text text-anchor="middle" x="532.5" y="-179.05" font-family="Lato" font-size="12.00">{b}</text>
<text text-anchor="middle" x="532.5" y="-166.05" font-family="Lato" font-size="12.00">{0}</text>
</g>
<!-- 5&#45;&gt;2 -->
<g id="edge15" class="edge">
<title>5&#45;&gt;2</title>
<path fill="none" stroke="black" d="M447.67,-186.03C441.9,-184.38 435.78,-182.81 430,-181.65 376.72,-171.02 313.69,-165.76 276.1,-163.38"/>
<polygon fill="black" stroke="black" points="268.93,-162.94 276.11,-160.23 272.43,-163.16 275.92,-163.37 275.92,-163.37 275.92,-163.37 272.43,-163.16 275.73,-166.52 268.93,-162.94 268.93,-162.94"/>
<text text-anchor="middle" x="360" y="-190.05" font-family="Lato" font-size="12.00">{a, b}</text>
<text text-anchor="middle" x="360" y="-177.05" font-family="Lato" font-size="12.00">{0,1}</text>
</g>
<!-- 5&#45;&gt;3 -->
<g id="edge16" class="edge">
<title>5&#45;&gt;3</title>
<path fill="none" stroke="black" d="M447.98,-187.99C434.56,-185.89 418.27,-185.5 405,-191.65 391.87,-197.74 381.25,-209.89 373.72,-220.91"/>
<polygon fill="black" stroke="black" points="369.87,-226.87 371.02,-219.28 371.77,-223.93 373.67,-220.99 373.67,-220.99 373.67,-220.99 371.77,-223.93 376.32,-222.7 369.87,-226.87 369.87,-226.87"/>
<text text-anchor="middle" x="417.5" y="-208.05" font-family="Lato" font-size="12.00">{a}</text>
<text text-anchor="middle" x="417.5" y="-195.05" font-family="Lato" font-size="12.00">{0,1}</text>
</g>
<!-- 5&#45;&gt;4 -->
<g id="edge17" class="edge">
<title>5&#45;&gt;4</title>
<path fill="none" stroke="black" d="M502.21,-198.37C518.3,-200.64 539.04,-203.58 556.21,-206.01"/>
<polygon fill="black" stroke="black" points="563.32,-207.02 555.95,-209.16 559.86,-206.53 556.39,-206.04 556.39,-206.04 556.39,-206.04 559.86,-206.53 556.83,-202.92 563.32,-207.02 563.32,-207.02"/>
<text text-anchor="middle" x="532.5" y="-220.05" font-family="Lato" font-size="12.00">{b}</text>
<text text-anchor="middle" x="532.5" y="-207.05" font-family="Lato" font-size="12.00">{0,1}</text>
</g>
</g>
</svg>
