<?xml version="1.0" encoding="UTF-8" standalone="no"?>
<?xml-stylesheet href="spot.css" type="text/css"?>
<!DOCTYPE svg PUBLIC "-//W3C//DTD SVG 1.1//EN"
 "http://www.w3.org/Graphics/SVG/1.1/DTD/svg11.dtd">
<!-- Generated by graphviz version 2.43.0 (0)
 -->
<!-- Title: a U Xb Pages: 1 -->
<svg width="354pt" height="119pt"
 viewBox="0.00 0.00 354.00 119.00" xmlns="http://www.w3.org/2000/svg" xmlns:xlink="http://www.w3.org/1999/xlink">
<g id="graph0" class="graph" transform="scale(1 1) rotate(0) translate(4 115)">
<title>a U Xb</title>
<polygon fill="white" stroke="transparent" points="-4,4 -4,-115 350,-115 350,4 -4,4"/>
<text text-anchor="start" x="154" y="-97.4" font-family="Lato" font-size="12.00">[Büchi]</text>
<!-- I -->
<!-- 2 -->
<g id="node2" class="node">
<title>2</title>
<ellipse fill="#ffffa0" stroke="black" cx="56" cy="-61" rx="18" ry="18"/>
<text text-anchor="middle" x="56" y="-57.9" font-family="Lato" font-size="12.00">2</text>
</g>
<!-- I&#45;&gt;2 -->
<g id="edge1" class="edge">
<title>I&#45;&gt;2</title>
<path fill="none" stroke="black" d="M1.15,-61C2.79,-61 17.15,-61 30.63,-61"/>
<polygon fill="black" stroke="black" points="37.94,-61 30.94,-64.15 34.44,-61 30.94,-61 30.94,-61 30.94,-61 34.44,-61 30.94,-57.85 37.94,-61 37.94,-61"/>
</g>
<!-- 1 -->
<g id="node4" class="node">
<title>1</title>
<ellipse fill="#ffffa0" stroke="black" cx="241" cy="-67" rx="18" ry="18"/>
<text text-anchor="start" x="237.5" y="-63.9" font-family="Lato" font-size="12.00">1</text>
</g>
<!-- 2&#45;&gt;1 -->
<g id="edge4" class="edge">
<title>2&#45;&gt;1</title>
<path fill="none" stroke="black" d="M73.35,-66.24C85.3,-69.79 101.97,-74.15 117,-76 151.28,-80.22 191.2,-75.55 216.04,-71.51"/>
<polygon fill="black" stroke="black" points="223.24,-70.29 216.86,-74.57 219.79,-70.88 216.34,-71.46 216.34,-71.46 216.34,-71.46 219.79,-70.88 215.81,-68.36 223.24,-70.29 223.24,-70.29"/>
<text text-anchor="start" x="130" y="-80.4" font-family="Lato" font-size="12.00">!a</text>
</g>
<!-- 3 -->
<g id="node5" class="node">
<title>3</title>
<ellipse fill="#ffffa0" stroke="black" cx="135" cy="-18" rx="18" ry="18"/>
<text text-anchor="middle" x="135" y="-14.9" font-family="Lato" font-size="12.00">3</text>
</g>
<!-- 2&#45;&gt;3 -->
<g id="edge5" class="edge">
<title>2&#45;&gt;3</title>
<path fill="none" stroke="black" d="M72.21,-52.5C83.71,-46.09 99.64,-37.19 112.45,-30.04"/>
<polygon fill="black" stroke="black" points="118.82,-26.48 114.24,-32.64 115.76,-28.18 112.71,-29.89 112.71,-29.89 112.71,-29.89 115.76,-28.18 111.17,-27.14 118.82,-26.48 118.82,-26.48"/>
<text text-anchor="start" x="92" y="-43.4" font-family="Lato" font-size="12.00">a</text>
</g>
<!-- 0 -->
<g id="node3" class="node">
<title>0</title>
<ellipse fill="#ffffa0" stroke="black" cx="324" cy="-34" rx="18" ry="18"/>
<ellipse fill="none" stroke="black" cx="324" cy="-34" rx="22" ry="22"/>
<text text-anchor="middle" x="324" y="-30.9" font-family="Lato" font-size="12.00">0</text>
</g>
<!-- 0&#45;&gt;0 -->
<g id="edge2" class="edge">
<title>0&#45;&gt;0</title>
<path fill="none" stroke="black" d="M316.32,-54.99C315.37,-65.09 317.93,-74 324,-74 328.55,-74 331.13,-68.99 331.74,-62.22"/>
<polygon fill="black" stroke="black" points="331.68,-54.99 334.88,-61.97 331.71,-58.49 331.73,-61.99 331.73,-61.99 331.73,-61.99 331.71,-58.49 328.58,-62.01 331.68,-54.99 331.68,-54.99"/>
<text text-anchor="start" x="320.5" y="-77.4" font-family="Lato" font-size="12.00">1</text>
</g>
<!-- 1&#45;&gt;0 -->
<g id="edge3" class="edge">
<title>1&#45;&gt;0</title>
<path fill="none" stroke="black" d="M258,-60.48C268.97,-56.01 283.78,-49.98 296.5,-44.8"/>
<polygon fill="black" stroke="black" points="303.31,-42.02 298.01,-47.58 300.07,-43.34 296.82,-44.66 296.82,-44.66 296.82,-44.66 300.07,-43.34 295.64,-41.75 303.31,-42.02 303.31,-42.02"/>
<text text-anchor="start" x="277" y="-55.4" font-family="Lato" font-size="12.00">b</text>
</g>
<!-- 3&#45;&gt;0 -->
<g id="edge6" class="edge">
<title>3&#45;&gt;0</title>
<path fill="none" stroke="black" d="M153.13,-19.06C176.91,-20.57 221.26,-23.56 259,-27 270.78,-28.07 283.76,-29.46 294.93,-30.71"/>
<polygon fill="black" stroke="black" points="301.98,-31.51 294.67,-33.85 298.5,-31.11 295.02,-30.72 295.02,-30.72 295.02,-30.72 298.5,-31.11 295.38,-27.59 301.98,-31.51 301.98,-31.51"/>
<text text-anchor="start" x="237.5" y="-30.4" font-family="Lato" font-size="12.00">b</text>
</g>
<!-- 3&#45;&gt;1 -->
<g id="edge7" class="edge">
<title>3&#45;&gt;1</title>
<path fill="none" stroke="black" d="M151.8,-25.44C169.46,-33.76 198.19,-47.3 218.04,-56.65"/>
<polygon fill="black" stroke="black" points="224.4,-59.65 216.72,-59.51 221.23,-58.16 218.06,-56.66 218.06,-56.66 218.06,-56.66 221.23,-58.16 219.41,-53.82 224.4,-59.65 224.4,-59.65"/>
<text text-anchor="start" x="171" y="-52.4" font-family="Lato" font-size="12.00">!a &amp; !b</text>
</g>
<!-- 3&#45;&gt;3 -->
<g id="edge8" class="edge">
<title>3&#45;&gt;3</title>
<path fill="none" stroke="black" d="M128.27,-35.04C126.89,-44.86 129.14,-54 135,-54 139.4,-54 141.76,-48.86 142.09,-42.14"/>
<polygon fill="black" stroke="black" points="141.73,-35.04 145.23,-41.87 141.91,-38.53 142.08,-42.03 142.08,-42.03 142.08,-42.03 141.91,-38.53 138.93,-42.18 141.73,-35.04 141.73,-35.04"/>
<text text-anchor="start" x="119.5" y="-57.4" font-family="Lato" font-size="12.00">a &amp; !b</text>
</g>
</g>
</svg>
