<?xml version="1.0" encoding="UTF-8" standalone="no"?>
<?xml-stylesheet href="spot.css" type="text/css"?>
<!DOCTYPE svg PUBLIC "-//W3C//DTD SVG 1.1//EN"
 "http://www.w3.org/Graphics/SVG/1.1/DTD/svg11.dtd">
<!-- Generated by graphviz version 2.43.0 (0)
 -->
<!-- Title: GFa Pages: 1 -->
<svg width="172pt" height="104pt"
 viewBox="0.00 0.00 172.00 104.00" xmlns="http://www.w3.org/2000/svg" xmlns:xlink="http://www.w3.org/1999/xlink">
<g id="graph0" class="graph" transform="scale(1 1) rotate(0) translate(4 100)">
<title>GFa</title>
<polygon fill="white" stroke="transparent" points="-4,4 -4,-100 168,-100 168,4 -4,4"/>
<text text-anchor="start" x="63" y="-82.4" font-family="Lato" font-size="12.00">[Büchi]</text>
<!-- I -->
<!-- 0 -->
<g id="node2" class="node">
<title>0</title>
<ellipse fill="#ffffa0" stroke="black" cx="60" cy="-22" rx="18" ry="18"/>
<ellipse fill="none" stroke="black" cx="60" cy="-22" rx="22" ry="22"/>
<text text-anchor="middle" x="60" y="-18.9" font-family="Lato" font-size="12.00">0</text>
</g>
<!-- I&#45;&gt;0 -->
<g id="edge1" class="edge">
<title>I&#45;&gt;0</title>
<path fill="none" stroke="black" d="M1.17,-22C2.84,-22 16.88,-22 30.71,-22"/>
<polygon fill="black" stroke="black" points="37.86,-22 30.86,-25.15 34.36,-22 30.86,-22 30.86,-22 30.86,-22 34.36,-22 30.86,-18.85 37.86,-22 37.86,-22"/>
</g>
<!-- 0&#45;&gt;0 -->
<g id="edge2" class="edge">
<title>0&#45;&gt;0</title>
<path fill="none" stroke="black" d="M52.68,-42.99C51.78,-53.09 54.22,-62 60,-62 64.34,-62 66.79,-56.99 67.37,-50.22"/>
<polygon fill="black" stroke="black" points="67.32,-42.99 70.52,-49.97 67.34,-46.49 67.37,-49.99 67.37,-49.99 67.37,-49.99 67.34,-46.49 64.22,-50.01 67.32,-42.99 67.32,-42.99"/>
<text text-anchor="start" x="56.5" y="-65.4" font-family="Lato" font-size="12.00">a</text>
</g>
<!-- 1 -->
<g id="node3" class="node">
<title>1</title>
<ellipse fill="#ffffa0" stroke="black" cx="146" cy="-22" rx="18" ry="18"/>
<text text-anchor="middle" x="146" y="-18.9" font-family="Lato" font-size="12.00">1</text>
</g>
<!-- 0&#45;&gt;1 -->
<g id="edge3" class="edge">
<title>0&#45;&gt;1</title>
<path fill="none" stroke="black" d="M82.2,-22C93.87,-22 108.41,-22 120.56,-22"/>
<polygon fill="black" stroke="black" points="127.77,-22 120.77,-25.15 124.27,-22 120.77,-22 120.77,-22 120.77,-22 124.27,-22 120.77,-18.85 127.77,-22 127.77,-22"/>
<text text-anchor="start" x="100" y="-25.4" font-family="Lato" font-size="12.00">!a</text>
</g>
<!-- 1&#45;&gt;0 -->
<g id="edge4" class="edge">
<title>1&#45;&gt;0</title>
<path fill="none" stroke="black" d="M130.22,-12.98C124.18,-9.8 116.98,-6.61 110,-5 101.94,-3.15 93.35,-4.81 85.66,-7.71"/>
<polygon fill="black" stroke="black" points="78.88,-10.65 84.04,-4.98 82.09,-9.26 85.3,-7.87 85.3,-7.87 85.3,-7.87 82.09,-9.26 86.55,-10.75 78.88,-10.65 78.88,-10.65"/>
<text text-anchor="start" x="101.5" y="-8.4" font-family="Lato" font-size="12.00">a</text>
</g>
<!-- 1&#45;&gt;1 -->
<g id="edge5" class="edge">
<title>1&#45;&gt;1</title>
<path fill="none" stroke="black" d="M138.97,-38.66C137.41,-48.62 139.75,-58 146,-58 150.69,-58 153.18,-52.73 153.47,-45.89"/>
<polygon fill="black" stroke="black" points="153.03,-38.66 156.6,-45.46 153.24,-42.16 153.46,-45.65 153.46,-45.65 153.46,-45.65 153.24,-42.16 150.31,-45.84 153.03,-38.66 153.03,-38.66"/>
<text text-anchor="start" x="141" y="-61.4" font-family="Lato" font-size="12.00">!a</text>
</g>
</g>
</svg>
