<?xml version="1.0" encoding="UTF-8" standalone="no"?>
<?xml-stylesheet href="spot.css" type="text/css"?>
<!DOCTYPE svg PUBLIC "-//W3C//DTD SVG 1.1//EN"
 "http://www.w3.org/Graphics/SVG/1.1/DTD/svg11.dtd">
<!-- Generated by graphviz version 2.43.0 (0)
 -->
<!-- Title: a U Xb Pages: 1 -->
<svg width="248pt" height="104pt"
 viewBox="0.00 0.00 248.00 104.00" xmlns="http://www.w3.org/2000/svg" xmlns:xlink="http://www.w3.org/1999/xlink">
<g id="graph0" class="graph" transform="scale(1 1) rotate(0) translate(4 100)">
<title>a U Xb</title>
<polygon fill="white" stroke="transparent" points="-4,4 -4,-100 244,-100 244,4 -4,4"/>
<text text-anchor="start" x="101" y="-82.4" font-family="Lato" font-size="12.00">[Büchi]</text>
<!-- I -->
<!-- 0 -->
<g id="node2" class="node">
<title>0</title>
<ellipse fill="#ffffa0" stroke="#ff4da0" stroke-width="2" cx="56" cy="-22" rx="18" ry="18"/>
<text text-anchor="middle" x="56" y="-18.9" font-family="Lato" font-size="12.00">0</text>
</g>
<!-- I&#45;&gt;0 -->
<g id="edge1" class="edge">
<title>I&#45;&gt;0</title>
<path fill="none" stroke="black" d="M1.15,-22C2.79,-22 17.15,-22 30.63,-22"/>
<polygon fill="black" stroke="black" points="37.94,-22 30.94,-25.15 34.44,-22 30.94,-22 30.94,-22 30.94,-22 34.44,-22 30.94,-18.85 37.94,-22 37.94,-22"/>
</g>
<!-- 0&#45;&gt;0 -->
<g id="edge2" class="edge">
<title>0&#45;&gt;0</title>
<path fill="none" stroke="#ff4da0" stroke-width="2" d="M49.62,-39.04C48.32,-48.86 50.45,-58 56,-58 60.17,-58 62.4,-52.86 62.71,-46.14"/>
<polygon fill="#ff4da0" stroke="#ff4da0" stroke-width="2" points="62.38,-39.04 65.85,-45.88 63.04,-42.51 63.21,-46.01 62.71,-46.03 62.21,-46.05 62.04,-42.56 59.56,-46.18 62.38,-39.04 62.38,-39.04"/>
<text text-anchor="start" x="52.5" y="-61.4" font-family="Lato" font-size="12.00">a</text>
</g>
<!-- 1 -->
<g id="node3" class="node">
<title>1</title>
<ellipse fill="#ffffa0" stroke="black" cx="135" cy="-22" rx="18" ry="18"/>
<text text-anchor="middle" x="135" y="-18.9" font-family="Lato" font-size="12.00">1</text>
</g>
<!-- 0&#45;&gt;1 -->
<g id="edge3" class="edge">
<title>0&#45;&gt;1</title>
<path fill="none" stroke="#ff4da0" stroke-width="2" d="M74.09,-22C84.56,-22 98.12,-22 109.69,-22"/>
<polygon fill="#ff4da0" stroke="#ff4da0" stroke-width="2" points="116.96,-22 109.96,-25.15 113.46,-22.5 109.96,-22.5 109.96,-22 109.96,-21.5 113.46,-21.5 109.96,-18.85 116.96,-22 116.96,-22"/>
<text text-anchor="middle" x="95.5" y="-25.4" font-family="Lato" font-size="12.00">1</text>
</g>
<!-- 2 -->
<g id="node4" class="node">
<title>2</title>
<ellipse fill="#ffffa0" stroke="black" cx="218" cy="-22" rx="18" ry="18"/>
<ellipse fill="none" stroke="black" cx="218" cy="-22" rx="22" ry="22"/>
<text text-anchor="middle" x="218" y="-18.9" font-family="Lato" font-size="12.00">2</text>
</g>
<!-- 1&#45;&gt;2 -->
<g id="edge4" class="edge">
<title>1&#45;&gt;2</title>
<path fill="none" stroke="black" d="M153.18,-22C163.48,-22 176.85,-22 188.68,-22"/>
<polygon fill="black" stroke="black" points="195.81,-22 188.81,-25.15 192.31,-22 188.81,-22 188.81,-22 188.81,-22 192.31,-22 188.81,-18.85 195.81,-22 195.81,-22"/>
<text text-anchor="start" x="171" y="-25.4" font-family="Lato" font-size="12.00">b</text>
</g>
<!-- 2&#45;&gt;2 -->
<g id="edge5" class="edge">
<title>2&#45;&gt;2</title>
<path fill="none" stroke="black" d="M210.32,-42.99C209.37,-53.09 211.93,-62 218,-62 222.55,-62 225.13,-56.99 225.74,-50.22"/>
<polygon fill="black" stroke="black" points="225.68,-42.99 228.88,-49.97 225.71,-46.49 225.73,-49.99 225.73,-49.99 225.73,-49.99 225.71,-46.49 222.58,-50.01 225.68,-42.99 225.68,-42.99"/>
<text text-anchor="middle" x="218" y="-65.4" font-family="Lato" font-size="12.00">1</text>
</g>
</g>
</svg>
