<?xml version="1.0" encoding="UTF-8" standalone="no"?>
<?xml-stylesheet href="spot.css" type="text/css"?>
<!DOCTYPE svg PUBLIC "-//W3C//DTD SVG 1.1//EN"
 "http://www.w3.org/Graphics/SVG/1.1/DTD/svg11.dtd">
<!-- Generated by graphviz version 2.43.0 (0)
 -->
<!-- Title: (a W Gb) M b Pages: 1 -->
<svg width="391pt" height="110pt"
 viewBox="0.00 0.00 391.00 110.32" xmlns="http://www.w3.org/2000/svg" xmlns:xlink="http://www.w3.org/1999/xlink">
<g id="graph0" class="graph" transform="scale(1 1) rotate(0) translate(4 106.32)">
<title>(a W Gb) M b</title>
<polygon fill="white" stroke="transparent" points="-4,4 -4,-106.32 387,-106.32 387,4 -4,4"/>
<text text-anchor="start" x="189" y="-88.72" font-family="Lato" font-size="12.00">t</text>
<text text-anchor="start" x="182" y="-75.72" font-family="Lato" font-size="12.00">[all]</text>
<!-- I -->
<!-- 2 -->
<g id="node2" class="node">
<title>2</title>
<ellipse fill="#ffffa0" stroke="black" cx="56" cy="-19.32" rx="18" ry="18"/>
<text text-anchor="middle" x="56" y="-16.22" font-family="Lato" font-size="12.00">2</text>
</g>
<!-- I&#45;&gt;2 -->
<g id="edge1" class="edge">
<title>I&#45;&gt;2</title>
<path fill="none" stroke="black" d="M1.15,-19.32C2.79,-19.32 17.15,-19.32 30.63,-19.32"/>
<polygon fill="black" stroke="black" points="37.94,-19.32 30.94,-22.47 34.44,-19.32 30.94,-19.32 30.94,-19.32 30.94,-19.32 34.44,-19.32 30.94,-16.17 37.94,-19.32 37.94,-19.32"/>
</g>
<!-- 2&#45;&gt;2 -->
<g id="edge7" class="edge">
<title>2&#45;&gt;2</title>
<path fill="none" stroke="black" d="M49.62,-36.35C48.32,-46.17 50.45,-55.32 56,-55.32 60.17,-55.32 62.4,-50.17 62.71,-43.46"/>
<polygon fill="black" stroke="black" points="62.38,-36.35 65.85,-43.2 62.54,-39.85 62.71,-43.35 62.71,-43.35 62.71,-43.35 62.54,-39.85 59.56,-43.49 62.38,-36.35 62.38,-36.35"/>
<text text-anchor="start" x="40.5" y="-58.72" font-family="Lato" font-size="12.00">!a &amp; b</text>
</g>
<!-- 1 -->
<g id="node4" class="node">
<title>1</title>
<ellipse fill="#ffffa0" stroke="black" cx="159" cy="-19.32" rx="18" ry="18"/>
<text text-anchor="middle" x="159" y="-16.22" font-family="Lato" font-size="12.00">1</text>
</g>
<!-- 2&#45;&gt;1 -->
<g id="edge6" class="edge">
<title>2&#45;&gt;1</title>
<path fill="none" stroke="black" d="M74.13,-19.32C90.38,-19.32 114.98,-19.32 133.34,-19.32"/>
<polygon fill="black" stroke="black" points="140.78,-19.32 133.78,-22.47 137.28,-19.32 133.78,-19.32 133.78,-19.32 133.78,-19.32 137.28,-19.32 133.78,-16.17 140.78,-19.32 140.78,-19.32"/>
<text text-anchor="start" x="93.5" y="-22.72" font-family="Lato" font-size="12.00">a &amp; b</text>
</g>
<!-- 0 -->
<g id="node3" class="node">
<title>0</title>
<ellipse fill="#ffffa0" stroke="black" cx="365" cy="-19.32" rx="18" ry="18"/>
<text text-anchor="middle" x="365" y="-16.22" font-family="Lato" font-size="12.00">0</text>
</g>
<!-- 0&#45;&gt;0 -->
<g id="edge2" class="edge">
<title>0&#45;&gt;0</title>
<path fill="none" stroke="black" d="M356.37,-35.23C354.11,-45.47 356.99,-55.32 365,-55.32 371.13,-55.32 374.25,-49.54 374.37,-42.24"/>
<polygon fill="black" stroke="black" points="373.63,-35.23 377.5,-41.86 374,-38.71 374.37,-42.19 374.37,-42.19 374.37,-42.19 374,-38.71 371.23,-42.52 373.63,-35.23 373.63,-35.23"/>
<text text-anchor="start" x="361.5" y="-58.72" font-family="Lato" font-size="12.00">b</text>
</g>
<!-- 1&#45;&gt;2 -->
<g id="edge4" class="edge">
<title>1&#45;&gt;2</title>
<path fill="none" stroke="black" d="M143.22,-10.3C137.18,-7.11 129.98,-3.92 123,-2.32 109.57,0.77 105.43,0.77 92,-2.32 87.42,-3.37 82.75,-5.11 78.36,-7.08"/>
<polygon fill="black" stroke="black" points="71.78,-10.3 76.68,-4.39 74.92,-8.76 78.07,-7.22 78.07,-7.22 78.07,-7.22 74.92,-8.76 79.45,-10.05 71.78,-10.3 71.78,-10.3"/>
<text text-anchor="start" x="92" y="-5.72" font-family="Lato" font-size="12.00">!a &amp; b</text>
</g>
<!-- 1&#45;&gt;1 -->
<g id="edge3" class="edge">
<title>1&#45;&gt;1</title>
<path fill="none" stroke="black" d="M150.37,-35.23C148.11,-45.47 150.99,-55.32 159,-55.32 165.13,-55.32 168.25,-49.54 168.37,-42.24"/>
<polygon fill="black" stroke="black" points="167.63,-35.23 171.5,-41.86 168,-38.71 168.37,-42.19 168.37,-42.19 168.37,-42.19 168,-38.71 165.23,-42.52 167.63,-35.23 167.63,-35.23"/>
<text text-anchor="start" x="145" y="-58.72" font-family="Lato" font-size="12.00">a &amp; b</text>
</g>
<!-- 3 -->
<g id="node5" class="node">
<title>3</title>
<ellipse fill="#ffffa0" stroke="black" cx="262" cy="-19.32" rx="18" ry="18"/>
<text text-anchor="middle" x="262" y="-16.22" font-family="Lato" font-size="12.00">3</text>
</g>
<!-- 1&#45;&gt;3 -->
<g id="edge5" class="edge">
<title>1&#45;&gt;3</title>
<path fill="none" stroke="black" d="M177.13,-19.32C193.38,-19.32 217.98,-19.32 236.34,-19.32"/>
<polygon fill="black" stroke="black" points="243.78,-19.32 236.78,-22.47 240.28,-19.32 236.78,-19.32 236.78,-19.32 236.78,-19.32 240.28,-19.32 236.78,-16.17 243.78,-19.32 243.78,-19.32"/>
<text text-anchor="start" x="195" y="-22.72" font-family="Lato" font-size="12.00">a &amp; !b</text>
</g>
<!-- 3&#45;&gt;0 -->
<g id="edge8" class="edge">
<title>3&#45;&gt;0</title>
<path fill="none" stroke="black" d="M280.13,-19.32C296.38,-19.32 320.98,-19.32 339.34,-19.32"/>
<polygon fill="black" stroke="black" points="346.78,-19.32 339.78,-22.47 343.28,-19.32 339.78,-19.32 339.78,-19.32 339.78,-19.32 343.28,-19.32 339.78,-16.17 346.78,-19.32 346.78,-19.32"/>
<text text-anchor="start" x="298" y="-22.72" font-family="Lato" font-size="12.00">!a &amp; b</text>
</g>
<!-- 3&#45;&gt;3 -->
<g id="edge9" class="edge">
<title>3&#45;&gt;3</title>
<path fill="none" stroke="black" d="M253.37,-35.23C251.11,-45.47 253.99,-55.32 262,-55.32 268.13,-55.32 271.25,-49.54 271.37,-42.24"/>
<polygon fill="black" stroke="black" points="270.63,-35.23 274.5,-41.86 271,-38.71 271.37,-42.19 271.37,-42.19 271.37,-42.19 271,-38.71 268.23,-42.52 270.63,-35.23 270.63,-35.23"/>
<text text-anchor="start" x="258.5" y="-58.72" font-family="Lato" font-size="12.00">a</text>
</g>
</g>
</svg>
