<?xml version="1.0" encoding="UTF-8" standalone="no"?>
<?xml-stylesheet href="spot.css" type="text/css"?>
<!DOCTYPE svg PUBLIC "-//W3C//DTD SVG 1.1//EN"
 "http://www.w3.org/Graphics/SVG/1.1/DTD/svg11.dtd">
<!-- Generated by graphviz version 2.43.0 (0)
 -->
<!-- Pages: 1 -->
<svg width="413pt" height="185pt"
 viewBox="0.00 0.00 413.00 185.08" xmlns="http://www.w3.org/2000/svg" xmlns:xlink="http://www.w3.org/1999/xlink">
<g id="graph0" class="graph" transform="scale(1 1) rotate(0) translate(4 181.08)">
<polygon fill="white" stroke="transparent" points="-4,4 -4,-181.08 409,-181.08 409,4 -4,4"/>
<text text-anchor="start" x="183.5" y="-163.48" font-family="Lato" font-size="12.00">[Büchi]</text>
<!-- I -->
<!-- 0 -->
<g id="node2" class="node">
<title>0</title>
<ellipse fill="#ffffa0" stroke="black" cx="60" cy="-74.08" rx="18" ry="18"/>
<ellipse fill="none" stroke="black" cx="60" cy="-74.08" rx="22" ry="22"/>
<text text-anchor="middle" x="60" y="-70.98" font-family="Lato" font-size="12.00">0</text>
</g>
<!-- I&#45;&gt;0 -->
<g id="edge1" class="edge">
<title>I&#45;&gt;0</title>
<path fill="none" stroke="black" d="M1.17,-74.08C2.84,-74.08 16.88,-74.08 30.71,-74.08"/>
<polygon fill="black" stroke="black" points="37.86,-74.08 30.86,-77.23 34.36,-74.08 30.86,-74.08 30.86,-74.08 30.86,-74.08 34.36,-74.08 30.86,-70.93 37.86,-74.08 37.86,-74.08"/>
</g>
<!-- 0&#45;&gt;0 -->
<g id="edge2" class="edge">
<title>0&#45;&gt;0</title>
<path fill="none" stroke="black" d="M52.68,-95.07C51.78,-105.17 54.22,-114.08 60,-114.08 64.34,-114.08 66.79,-109.07 67.37,-102.3"/>
<polygon fill="black" stroke="black" points="67.32,-95.07 70.52,-102.05 67.34,-98.57 67.37,-102.07 67.37,-102.07 67.37,-102.07 67.34,-98.57 64.22,-102.1 67.32,-95.07 67.32,-95.07"/>
<text text-anchor="start" x="56.5" y="-117.48" font-family="Lato" font-size="12.00">a</text>
</g>
<!-- 1 -->
<g id="node3" class="node">
<title>1</title>
<ellipse fill="#ffffa0" stroke="black" cx="387" cy="-107.08" rx="18" ry="18"/>
<text text-anchor="middle" x="387" y="-103.98" font-family="Lato" font-size="12.00">1</text>
</g>
<!-- 0&#45;&gt;1 -->
<g id="edge3" class="edge">
<title>0&#45;&gt;1</title>
<path fill="none" stroke="black" d="M74.93,-90.8C81.87,-98.35 90.75,-106.94 100,-113.08 119.59,-126.1 125.92,-128.55 149,-133.08 196.04,-142.31 241.58,-144.2 351,-120.08 355.14,-119.17 359.44,-117.88 363.56,-116.46"/>
<polygon fill="black" stroke="black" points="370.25,-113.99 364.77,-119.37 366.97,-115.2 363.68,-116.41 363.68,-116.41 363.68,-116.41 366.97,-115.2 362.59,-113.46 370.25,-113.99 370.25,-113.99"/>
<text text-anchor="start" x="203" y="-142.48" font-family="Lato" font-size="12.00">!a &amp; !b</text>
</g>
<!-- 2 -->
<g id="node4" class="node">
<title>2</title>
<ellipse fill="#ffffa0" stroke="black" cx="167" cy="-106.08" rx="18" ry="18"/>
<text text-anchor="middle" x="167" y="-102.98" font-family="Lato" font-size="12.00">2</text>
</g>
<!-- 0&#45;&gt;2 -->
<g id="edge4" class="edge">
<title>0&#45;&gt;2</title>
<path fill="none" stroke="black" d="M81.94,-70.66C96.24,-69.21 115.36,-69.03 131,-75.08 137.93,-77.77 144.37,-82.49 149.8,-87.46"/>
<polygon fill="black" stroke="black" points="154.86,-92.44 147.66,-89.77 152.36,-89.98 149.87,-87.53 149.87,-87.53 149.87,-87.53 152.36,-89.98 152.08,-85.28 154.86,-92.44 154.86,-92.44"/>
<text text-anchor="start" x="100" y="-78.48" font-family="Lato" font-size="12.00">!a &amp; b</text>
</g>
<!-- 1&#45;&gt;0 -->
<g id="edge5" class="edge">
<title>1&#45;&gt;0</title>
<path fill="none" stroke="black" d="M377.93,-91.4C364.96,-68.22 337.04,-25.84 299,-10.08 223.46,21.21 128.07,-29.88 84.57,-57.8"/>
<polygon fill="black" stroke="black" points="78.53,-61.73 82.67,-55.27 81.46,-59.82 84.39,-57.91 84.39,-57.91 84.39,-57.91 81.46,-59.82 86.12,-60.55 78.53,-61.73 78.53,-61.73"/>
<text text-anchor="start" x="216.5" y="-8.48" font-family="Lato" font-size="12.00">a</text>
</g>
<!-- 1&#45;&gt;1 -->
<g id="edge6" class="edge">
<title>1&#45;&gt;1</title>
<path fill="none" stroke="black" d="M378.02,-123C375.68,-133.23 378.67,-143.08 387,-143.08 393.38,-143.08 396.63,-137.31 396.75,-130.01"/>
<polygon fill="black" stroke="black" points="395.98,-123 399.87,-129.62 396.36,-126.48 396.74,-129.96 396.74,-129.96 396.74,-129.96 396.36,-126.48 393.61,-130.3 395.98,-123 395.98,-123"/>
<text text-anchor="start" x="382" y="-146.48" font-family="Lato" font-size="12.00">!a</text>
</g>
<!-- 2&#45;&gt;0 -->
<g id="edge7" class="edge">
<title>2&#45;&gt;0</title>
<path fill="none" stroke="black" d="M149.35,-101.93C135.94,-98.49 116.65,-93.33 100,-88.08 95.96,-86.81 91.71,-85.38 87.56,-83.93"/>
<polygon fill="black" stroke="black" points="80.74,-81.51 88.39,-80.88 84.04,-82.68 87.33,-83.85 87.33,-83.85 87.33,-83.85 84.04,-82.68 86.28,-86.82 80.74,-81.51 80.74,-81.51"/>
<text text-anchor="start" x="112" y="-99.48" font-family="Lato" font-size="12.00">a</text>
</g>
<!-- 2&#45;&gt;1 -->
<g id="edge8" class="edge">
<title>2&#45;&gt;1</title>
<path fill="none" stroke="black" d="M185.11,-106.16C223.63,-106.34 317.28,-106.77 361.77,-106.97"/>
<polygon fill="black" stroke="black" points="368.97,-107.01 361.96,-110.12 365.47,-106.99 361.97,-106.97 361.97,-106.97 361.97,-106.97 365.47,-106.99 361.99,-103.82 368.97,-107.01 368.97,-107.01"/>
<text text-anchor="start" x="260" y="-109.48" font-family="Lato" font-size="12.00">!a &amp; !b</text>
</g>
<!-- 3 -->
<g id="node5" class="node">
<title>3</title>
<ellipse fill="#ffffa0" stroke="black" cx="277" cy="-41.08" rx="18" ry="18"/>
<ellipse fill="none" stroke="black" cx="277" cy="-41.08" rx="22" ry="22"/>
<text text-anchor="middle" x="277" y="-37.98" font-family="Lato" font-size="12.00">3</text>
</g>
<!-- 2&#45;&gt;3 -->
<g id="edge9" class="edge">
<title>2&#45;&gt;3</title>
<path fill="none" stroke="black" d="M183.02,-97.05C200.77,-86.36 230.56,-68.43 251.63,-55.75"/>
<polygon fill="black" stroke="black" points="257.87,-52 253.5,-58.3 254.87,-53.8 251.87,-55.61 251.87,-55.61 251.87,-55.61 254.87,-53.8 250.25,-52.91 257.87,-52 257.87,-52"/>
<text text-anchor="start" x="204.5" y="-86.48" font-family="Lato" font-size="12.00">!a &amp; b</text>
</g>
<!-- 3&#45;&gt;0 -->
<g id="edge10" class="edge">
<title>3&#45;&gt;0</title>
<path fill="none" stroke="black" d="M255.04,-43.32C221.96,-46.98 155.66,-54.89 100,-65.08 96.24,-65.77 92.3,-66.58 88.42,-67.43"/>
<polygon fill="black" stroke="black" points="81.57,-68.97 87.71,-64.36 84.99,-68.2 88.4,-67.43 88.4,-67.43 88.4,-67.43 84.99,-68.2 89.09,-70.5 81.57,-68.97 81.57,-68.97"/>
<text text-anchor="start" x="163.5" y="-59.48" font-family="Lato" font-size="12.00">a</text>
</g>
<!-- 3&#45;&gt;1 -->
<g id="edge11" class="edge">
<title>3&#45;&gt;1</title>
<path fill="none" stroke="black" d="M296.32,-52.28C315.33,-63.9 345.01,-82.03 364.96,-94.23"/>
<polygon fill="black" stroke="black" points="371.07,-97.96 363.46,-97 368.09,-96.14 365.1,-94.31 365.1,-94.31 365.1,-94.31 368.09,-96.14 366.74,-91.62 371.07,-97.96 371.07,-97.96"/>
<text text-anchor="start" x="317" y="-86.48" font-family="Lato" font-size="12.00">!a &amp; !b</text>
</g>
<!-- 3&#45;&gt;3 -->
<g id="edge12" class="edge">
<title>3&#45;&gt;3</title>
<path fill="none" stroke="black" d="M266.93,-60.84C265.22,-71.43 268.58,-81.08 277,-81.08 283.45,-81.08 286.93,-75.43 287.43,-68.02"/>
<polygon fill="black" stroke="black" points="287.07,-60.84 290.57,-67.67 287.25,-64.34 287.43,-67.83 287.43,-67.83 287.43,-67.83 287.25,-64.34 284.28,-67.99 287.07,-60.84 287.07,-60.84"/>
<text text-anchor="start" x="261.5" y="-84.48" font-family="Lato" font-size="12.00">!a &amp; b</text>
</g>
</g>
</svg>
