<?xml version="1.0" encoding="UTF-8" standalone="no"?>
<?xml-stylesheet href="spot.css" type="text/css"?>
<!DOCTYPE svg PUBLIC "-//W3C//DTD SVG 1.1//EN"
 "http://www.w3.org/Graphics/SVG/1.1/DTD/svg11.dtd">
<!-- Generated by graphviz version 2.43.0 (0)
 -->
<!-- Title: F(G!a | G(b U a)) Pages: 1 -->
<svg width="164pt" height="249pt"
 viewBox="0.00 0.00 164.00 249.00" xmlns="http://www.w3.org/2000/svg" xmlns:xlink="http://www.w3.org/1999/xlink">
<g id="graph0" class="graph" transform="scale(1 1) rotate(0) translate(4 245)">
<title>F(G!a | G(b U a))</title>
<polygon fill="white" stroke="transparent" points="-4,4 -4,-245 160,-245 160,4 -4,4"/>
<text text-anchor="start" x="60" y="-228.4" font-family="Lato" font-size="12.00">Inf(</text>
<text text-anchor="start" x="78" y="-228.4" font-family="Lato" font-size="12.00" fill="#1f78b4">⓿</text>
<text text-anchor="start" x="92" y="-228.4" font-family="Lato" font-size="12.00">)</text>
<text text-anchor="start" x="59" y="-216.4" font-family="Lato" font-size="12.00">[Büchi]</text>
<!-- I -->
<!-- 0 -->
<g id="node2" class="node">
<title>0</title>
<ellipse fill="#ffffa0" stroke="black" cx="56" cy="-82" rx="18" ry="18"/>
<text text-anchor="middle" x="56" y="-78.9" font-family="Lato" font-size="12.00">0</text>
</g>
<!-- I&#45;&gt;0 -->
<g id="edge1" class="edge">
<title>I&#45;&gt;0</title>
<path fill="none" stroke="black" d="M1.15,-82C2.79,-82 17.15,-82 30.63,-82"/>
<polygon fill="black" stroke="black" points="37.94,-82 30.94,-85.15 34.44,-82 30.94,-82 30.94,-82 30.94,-82 34.44,-82 30.94,-78.85 37.94,-82 37.94,-82"/>
</g>
<!-- 0&#45;&gt;0 -->
<g id="edge2" class="edge">
<title>0&#45;&gt;0</title>
<path fill="none" stroke="black" d="M49.62,-99.04C48.32,-108.86 50.45,-118 56,-118 60.17,-118 62.4,-112.86 62.71,-106.14"/>
<polygon fill="black" stroke="black" points="62.38,-99.04 65.85,-105.88 62.54,-102.53 62.71,-106.03 62.71,-106.03 62.71,-106.03 62.54,-102.53 59.56,-106.18 62.38,-99.04 62.38,-99.04"/>
<text text-anchor="start" x="52.5" y="-121.4" font-family="Lato" font-size="12.00">1</text>
</g>
<!-- 1 -->
<g id="node3" class="node">
<title>1</title>
<ellipse fill="#ffffa0" stroke="black" cx="138" cy="-147" rx="18" ry="18"/>
<text text-anchor="start" x="134.5" y="-143.9" font-family="Lato" font-size="12.00">1</text>
</g>
<!-- 0&#45;&gt;1 -->
<g id="edge3" class="edge">
<title>0&#45;&gt;1</title>
<path fill="none" stroke="black" d="M70.57,-93.03C83.64,-103.64 103.51,-119.79 118.12,-131.66"/>
<polygon fill="black" stroke="black" points="123.63,-136.14 116.21,-134.17 120.91,-133.93 118.2,-131.72 118.2,-131.72 118.2,-131.72 120.91,-133.93 120.18,-129.28 123.63,-136.14 123.63,-136.14"/>
<text text-anchor="start" x="92" y="-121.4" font-family="Lato" font-size="12.00">!a</text>
</g>
<!-- 2 -->
<g id="node4" class="node">
<title>2</title>
<ellipse fill="#ffffa0" stroke="black" cx="138" cy="-18" rx="18" ry="18"/>
<text text-anchor="middle" x="138" y="-14.9" font-family="Lato" font-size="12.00">2</text>
</g>
<!-- 0&#45;&gt;2 -->
<g id="edge4" class="edge">
<title>0&#45;&gt;2</title>
<path fill="none" stroke="black" d="M70.57,-71.14C83.56,-60.75 103.27,-44.98 117.85,-33.32"/>
<polygon fill="black" stroke="black" points="123.36,-28.91 119.86,-35.74 120.63,-31.1 117.9,-33.28 117.9,-33.28 117.9,-33.28 120.63,-31.1 115.93,-30.82 123.36,-28.91 123.36,-28.91"/>
<text text-anchor="start" x="93.5" y="-56.4" font-family="Lato" font-size="12.00">a</text>
</g>
<!-- 1&#45;&gt;1 -->
<g id="edge5" class="edge">
<title>1&#45;&gt;1</title>
<path fill="none" stroke="black" d="M130.97,-163.66C129.41,-173.62 131.75,-183 138,-183 142.69,-183 145.18,-177.73 145.47,-170.89"/>
<polygon fill="black" stroke="black" points="145.03,-163.66 148.6,-170.46 145.24,-167.16 145.46,-170.65 145.46,-170.65 145.46,-170.65 145.24,-167.16 142.31,-170.84 145.03,-163.66 145.03,-163.66"/>
<text text-anchor="start" x="133" y="-199.4" font-family="Lato" font-size="12.00">!a</text>
<text text-anchor="start" x="131" y="-186.4" font-family="Lato" font-size="12.00" fill="#1f78b4">⓿</text>
</g>
<!-- 2&#45;&gt;2 -->
<g id="edge6" class="edge">
<title>2&#45;&gt;2</title>
<path fill="none" stroke="black" d="M134.4,-35.78C133.79,-45.31 134.99,-54 138,-54 140.21,-54 141.44,-49.32 141.7,-43.05"/>
<polygon fill="black" stroke="black" points="141.6,-35.78 144.85,-42.74 141.65,-39.28 141.7,-42.78 141.7,-42.78 141.7,-42.78 141.65,-39.28 138.55,-42.83 141.6,-35.78 141.6,-35.78"/>
<text text-anchor="start" x="122.5" y="-57.4" font-family="Lato" font-size="12.00">!a &amp; b</text>
</g>
<!-- 2&#45;&gt;2 -->
<g id="edge7" class="edge">
<title>2&#45;&gt;2</title>
<path fill="none" stroke="black" d="M132.15,-35.14C128.71,-52.58 130.66,-72 138,-72 144.37,-72 146.68,-57.4 144.94,-42.15"/>
<polygon fill="black" stroke="black" points="143.85,-35.14 148.04,-41.58 144.39,-38.6 144.92,-42.06 144.92,-42.06 144.92,-42.06 144.39,-38.6 141.81,-42.54 143.85,-35.14 143.85,-35.14"/>
<text text-anchor="start" x="134.5" y="-88.4" font-family="Lato" font-size="12.00">a</text>
<text text-anchor="start" x="131" y="-75.4" font-family="Lato" font-size="12.00" fill="#1f78b4">⓿</text>
</g>
</g>
</svg>
