<?xml version="1.0" encoding="UTF-8" standalone="no"?>
<?xml-stylesheet href="spot.css" type="text/css"?>
<!DOCTYPE svg PUBLIC "-//W3C//DTD SVG 1.1//EN"
 "http://www.w3.org/Graphics/SVG/1.1/DTD/svg11.dtd">
<!-- Generated by graphviz version 2.43.0 (0)
 -->
<!-- Title: F(G!a | G(b U a)) Pages: 1 -->
<svg width="188pt" height="120pt"
 viewBox="0.00 0.00 188.00 119.66" xmlns="http://www.w3.org/2000/svg" xmlns:xlink="http://www.w3.org/1999/xlink">
<g id="graph0" class="graph" transform="scale(1 1) rotate(0) translate(4 115.66)">
<title>F(G!a | G(b U a))</title>
<polygon fill="white" stroke="transparent" points="-4,4 -4,-115.66 184,-115.66 184,4 -4,4"/>
<text text-anchor="start" x="71" y="-99.06" font-family="Lato" font-size="12.00">Fin(</text>
<text text-anchor="start" x="91" y="-99.06" font-family="Lato" font-size="12.00" fill="#1f78b4">⓿</text>
<text text-anchor="start" x="105" y="-99.06" font-family="Lato" font-size="12.00">)</text>
<text text-anchor="start" x="63" y="-87.06" font-family="Lato" font-size="12.00">[co&#45;Büchi]</text>
<!-- I -->
<!-- 0 -->
<g id="node2" class="node">
<title>0</title>
<ellipse fill="#ffffa0" stroke="black" cx="56" cy="-30.66" rx="18" ry="18"/>
<text text-anchor="middle" x="56" y="-27.56" font-family="Lato" font-size="12.00">0</text>
</g>
<!-- I&#45;&gt;0 -->
<g id="edge1" class="edge">
<title>I&#45;&gt;0</title>
<path fill="none" stroke="black" d="M1.15,-30.66C2.79,-30.66 17.15,-30.66 30.63,-30.66"/>
<polygon fill="black" stroke="black" points="37.94,-30.66 30.94,-33.81 34.44,-30.66 30.94,-30.66 30.94,-30.66 30.94,-30.66 34.44,-30.66 30.94,-27.51 37.94,-30.66 37.94,-30.66"/>
</g>
<!-- 0&#45;&gt;0 -->
<g id="edge2" class="edge">
<title>0&#45;&gt;0</title>
<path fill="none" stroke="black" d="M49.62,-47.69C48.32,-57.51 50.45,-66.66 56,-66.66 60.17,-66.66 62.4,-61.51 62.71,-54.8"/>
<polygon fill="black" stroke="black" points="62.38,-47.69 65.85,-54.54 62.54,-51.19 62.71,-54.69 62.71,-54.69 62.71,-54.69 62.54,-51.19 59.56,-54.83 62.38,-47.69 62.38,-47.69"/>
<text text-anchor="start" x="51" y="-70.06" font-family="Lato" font-size="12.00">!a</text>
</g>
<!-- 1 -->
<g id="node3" class="node">
<title>1</title>
<ellipse fill="#ffffa0" stroke="black" cx="162" cy="-30.66" rx="18" ry="18"/>
<text text-anchor="middle" x="162" y="-27.56" font-family="Lato" font-size="12.00">1</text>
</g>
<!-- 0&#45;&gt;1 -->
<g id="edge3" class="edge">
<title>0&#45;&gt;1</title>
<path fill="none" stroke="black" d="M74.07,-32.41C79.77,-32.92 86.15,-33.41 92,-33.66 107.1,-34.3 110.9,-34.3 126,-33.66 129.47,-33.51 133.13,-33.28 136.73,-33.01"/>
<polygon fill="black" stroke="black" points="143.93,-32.41 137.21,-36.13 140.44,-32.7 136.95,-32.99 136.95,-32.99 136.95,-32.99 140.44,-32.7 136.69,-29.85 143.93,-32.41 143.93,-32.41"/>
<text text-anchor="start" x="105.5" y="-50.06" font-family="Lato" font-size="12.00">a</text>
<text text-anchor="start" x="102" y="-37.06" font-family="Lato" font-size="12.00" fill="#1f78b4">⓿</text>
</g>
<!-- 1&#45;&gt;0 -->
<g id="edge4" class="edge">
<title>1&#45;&gt;0</title>
<path fill="none" stroke="black" d="M148.93,-18.13C142.68,-12.54 134.57,-6.58 126,-3.66 111.7,1.22 106.3,1.22 92,-3.66 85.84,-5.76 79.92,-9.43 74.76,-13.4"/>
<polygon fill="black" stroke="black" points="69.07,-18.13 72.44,-11.23 71.77,-15.89 74.46,-13.65 74.46,-13.65 74.46,-13.65 71.77,-15.89 76.47,-16.07 69.07,-18.13 69.07,-18.13"/>
<text text-anchor="start" x="92" y="-20.06" font-family="Lato" font-size="12.00">!a &amp; !b</text>
<text text-anchor="start" x="102" y="-7.06" font-family="Lato" font-size="12.00" fill="#1f78b4">⓿</text>
</g>
<!-- 1&#45;&gt;1 -->
<g id="edge5" class="edge">
<title>1&#45;&gt;1</title>
<path fill="none" stroke="black" d="M153.02,-46.57C150.68,-56.81 153.67,-66.66 162,-66.66 168.38,-66.66 171.63,-60.88 171.75,-53.58"/>
<polygon fill="black" stroke="black" points="170.98,-46.57 174.87,-53.19 171.36,-50.05 171.74,-53.53 171.74,-53.53 171.74,-53.53 171.36,-50.05 168.61,-53.87 170.98,-46.57 170.98,-46.57"/>
<text text-anchor="start" x="151" y="-70.06" font-family="Lato" font-size="12.00">a | b</text>
</g>
</g>
</svg>
