<?xml version="1.0" encoding="UTF-8" standalone="no"?>
<?xml-stylesheet href="spot.css" type="text/css"?>
<!DOCTYPE svg PUBLIC "-//W3C//DTD SVG 1.1//EN"
 "http://www.w3.org/Graphics/SVG/1.1/DTD/svg11.dtd">
<!-- Generated by graphviz version 2.43.0 (0)
 -->
<!-- Title: G(Gb | Fa) Pages: 1 -->
<svg width="185pt" height="205pt"
 viewBox="0.00 0.00 185.00 205.00" xmlns="http://www.w3.org/2000/svg" xmlns:xlink="http://www.w3.org/1999/xlink">
<g id="graph0" class="graph" transform="scale(1 1) rotate(0) translate(4 201)">
<title>G(Gb | Fa)</title>
<polygon fill="white" stroke="transparent" points="-4,4 -4,-201 181,-201 181,4 -4,4"/>
<text text-anchor="start" x="70.5" y="-184.4" font-family="Lato" font-size="12.00">Inf(</text>
<text text-anchor="start" x="88.5" y="-184.4" font-family="Lato" font-size="12.00" fill="#1f78b4">⓿</text>
<text text-anchor="start" x="102.5" y="-184.4" font-family="Lato" font-size="12.00">)</text>
<text text-anchor="start" x="69.5" y="-172.4" font-family="Lato" font-size="12.00">[Büchi]</text>
<!-- I -->
<!-- 0 -->
<g id="node2" class="node">
<title>0</title>
<ellipse fill="#ffffa0" stroke="#ff4da0" stroke-width="2" cx="56" cy="-67" rx="18" ry="18"/>
<text text-anchor="middle" x="56" y="-63.9" font-family="Lato" font-size="12.00">0</text>
</g>
<!-- I&#45;&gt;0 -->
<g id="edge1" class="edge">
<title>I&#45;&gt;0</title>
<path fill="none" stroke="black" d="M1.15,-67C2.79,-67 17.15,-67 30.63,-67"/>
<polygon fill="black" stroke="black" points="37.94,-67 30.94,-70.15 34.44,-67 30.94,-67 30.94,-67 30.94,-67 34.44,-67 30.94,-63.85 37.94,-67 37.94,-67"/>
</g>
<!-- 0&#45;&gt;0 -->
<g id="edge2" class="edge">
<title>0&#45;&gt;0</title>
<path fill="none" stroke="black" d="M49.62,-84.04C48.32,-93.86 50.45,-103 56,-103 60.17,-103 62.4,-97.86 62.71,-91.14"/>
<polygon fill="black" stroke="black" points="62.38,-84.04 65.85,-90.88 62.54,-87.53 62.71,-91.03 62.71,-91.03 62.71,-91.03 62.54,-87.53 59.56,-91.18 62.38,-84.04 62.38,-84.04"/>
<text text-anchor="start" x="52.5" y="-119.4" font-family="Lato" font-size="12.00">a</text>
<text text-anchor="start" x="49" y="-106.4" font-family="Lato" font-size="12.00" fill="#1f78b4">⓿</text>
</g>
<!-- 1 -->
<g id="node3" class="node">
<title>1</title>
<ellipse fill="#ffffa0" stroke="black" cx="159" cy="-116" rx="18" ry="18"/>
<text text-anchor="middle" x="159" y="-112.9" font-family="Lato" font-size="12.00">1</text>
</g>
<!-- 0&#45;&gt;1 -->
<g id="edge3" class="edge">
<title>0&#45;&gt;1</title>
<path fill="none" stroke="#ff4da0" stroke-width="2" d="M69.9,-78.64C76.22,-83.88 84.14,-89.82 92,-94 105.4,-101.14 121.56,-106.57 134.53,-110.25"/>
<polygon fill="#ff4da0" stroke="#ff4da0" stroke-width="2" points="141.37,-112.12 133.79,-113.32 137.86,-111.68 134.49,-110.76 134.62,-110.28 134.75,-109.79 138.13,-110.71 135.45,-107.24 141.37,-112.12 141.37,-112.12"/>
<text text-anchor="start" x="102.5" y="-109.4" font-family="Lato" font-size="12.00">!a</text>
</g>
<!-- 2 -->
<g id="node4" class="node">
<title>2</title>
<ellipse fill="#ffffa0" stroke="black" cx="159" cy="-18" rx="18" ry="18"/>
<text text-anchor="middle" x="159" y="-14.9" font-family="Lato" font-size="12.00">2</text>
</g>
<!-- 0&#45;&gt;2 -->
<g id="edge4" class="edge">
<title>0&#45;&gt;2</title>
<path fill="none" stroke="#ff4da0" stroke-width="2" d="M67.55,-53.09C73.86,-45.72 82.48,-37.16 92,-32 104.74,-25.09 120.58,-21.59 133.55,-19.81"/>
<polygon fill="#ff4da0" stroke="#ff4da0" stroke-width="2" points="140.81,-18.96 134.22,-22.91 137.39,-19.86 133.91,-20.27 133.86,-19.78 133.8,-19.28 137.27,-18.87 133.49,-16.65 140.81,-18.96 140.81,-18.96"/>
<text text-anchor="start" x="92" y="-35.4" font-family="Lato" font-size="12.00">!a &amp; b</text>
</g>
<!-- 1&#45;&gt;0 -->
<g id="edge5" class="edge">
<title>1&#45;&gt;0</title>
<path fill="none" stroke="black" d="M148.45,-101.09C138.78,-86.09 124.97,-65.05 123,-64 110.1,-57.13 93.69,-57.84 80.46,-60.29"/>
<polygon fill="black" stroke="black" points="73.49,-61.79 79.67,-57.24 76.91,-61.06 80.33,-60.32 80.33,-60.32 80.33,-60.32 76.91,-61.06 80.99,-63.4 73.49,-61.79 73.49,-61.79"/>
<text text-anchor="start" x="104" y="-80.4" font-family="Lato" font-size="12.00">a</text>
<text text-anchor="start" x="100.5" y="-67.4" font-family="Lato" font-size="12.00" fill="#1f78b4">⓿</text>
</g>
<!-- 1&#45;&gt;1 -->
<g id="edge6" class="edge">
<title>1&#45;&gt;1</title>
<path fill="none" stroke="black" d="M150.37,-131.92C148.11,-142.15 150.99,-152 159,-152 165.13,-152 168.25,-146.23 168.37,-138.93"/>
<polygon fill="black" stroke="black" points="167.63,-131.92 171.5,-138.55 168,-135.4 168.37,-138.88 168.37,-138.88 168.37,-138.88 168,-135.4 165.23,-139.21 167.63,-131.92 167.63,-131.92"/>
<text text-anchor="start" x="154" y="-155.4" font-family="Lato" font-size="12.00">!a</text>
</g>
<!-- 2&#45;&gt;2 -->
<g id="edge7" class="edge">
<title>2&#45;&gt;2</title>
<path fill="none" stroke="black" d="M150.37,-33.92C148.11,-44.15 150.99,-54 159,-54 165.13,-54 168.25,-48.23 168.37,-40.93"/>
<polygon fill="black" stroke="black" points="167.63,-33.92 171.5,-40.55 168,-37.4 168.37,-40.88 168.37,-40.88 168.37,-40.88 168,-37.4 165.23,-41.21 167.63,-33.92 167.63,-33.92"/>
<text text-anchor="start" x="155.5" y="-70.4" font-family="Lato" font-size="12.00">b</text>
<text text-anchor="start" x="152" y="-57.4" font-family="Lato" font-size="12.00" fill="#1f78b4">⓿</text>
</g>
</g>
</svg>
