<?xml version="1.0" encoding="UTF-8" standalone="no"?>
<?xml-stylesheet href="spot.css" type="text/css"?>
<!DOCTYPE svg PUBLIC "-//W3C//DTD SVG 1.1//EN"
 "http://www.w3.org/Graphics/SVG/1.1/DTD/svg11.dtd">
<!-- Generated by graphviz version 2.43.0 (0)
 -->
<!-- Title: (a W Gb) M b Pages: 1 -->
<svg width="423pt" height="104pt"
 viewBox="0.00 0.00 423.00 104.00" xmlns="http://www.w3.org/2000/svg" xmlns:xlink="http://www.w3.org/1999/xlink">
<g id="graph0" class="graph" transform="scale(1 1) rotate(0) translate(4 100)">
<title>(a W Gb) M b</title>
<polygon fill="white" stroke="transparent" points="-4,4 -4,-100 419,-100 419,4 -4,4"/>
<text text-anchor="start" x="188.5" y="-82.4" font-family="Lato" font-size="12.00">[Büchi]</text>
<!-- I -->
<!-- 2 -->
<g id="node2" class="node">
<title>2</title>
<ellipse fill="#ffffa0" stroke="black" cx="60" cy="-22" rx="18" ry="18"/>
<ellipse fill="none" stroke="black" cx="60" cy="-22" rx="22" ry="22"/>
<text text-anchor="middle" x="60" y="-18.9" font-family="Lato" font-size="12.00">2</text>
</g>
<!-- I&#45;&gt;2 -->
<g id="edge1" class="edge">
<title>I&#45;&gt;2</title>
<path fill="none" stroke="black" d="M1.17,-22C2.84,-22 16.88,-22 30.71,-22"/>
<polygon fill="black" stroke="black" points="37.86,-22 30.86,-25.15 34.36,-22 30.86,-22 30.86,-22 30.86,-22 34.36,-22 30.86,-18.85 37.86,-22 37.86,-22"/>
</g>
<!-- 2&#45;&gt;2 -->
<g id="edge7" class="edge">
<title>2&#45;&gt;2</title>
<path fill="none" stroke="black" d="M52.68,-42.99C51.78,-53.09 54.22,-62 60,-62 64.34,-62 66.79,-56.99 67.37,-50.22"/>
<polygon fill="black" stroke="black" points="67.32,-42.99 70.52,-49.97 67.34,-46.49 67.37,-49.99 67.37,-49.99 67.37,-49.99 67.34,-46.49 64.22,-50.01 67.32,-42.99 67.32,-42.99"/>
<text text-anchor="start" x="44.5" y="-65.4" font-family="Lato" font-size="12.00">!a &amp; b</text>
</g>
<!-- 1 -->
<g id="node4" class="node">
<title>1</title>
<ellipse fill="#ffffa0" stroke="black" cx="171" cy="-22" rx="18" ry="18"/>
<ellipse fill="none" stroke="black" cx="171" cy="-22" rx="22" ry="22"/>
<text text-anchor="middle" x="171" y="-18.9" font-family="Lato" font-size="12.00">1</text>
</g>
<!-- 2&#45;&gt;1 -->
<g id="edge6" class="edge">
<title>2&#45;&gt;1</title>
<path fill="none" stroke="black" d="M82.02,-22C98.95,-22 122.92,-22 141.56,-22"/>
<polygon fill="black" stroke="black" points="148.68,-22 141.68,-25.15 145.18,-22 141.68,-22 141.68,-22 141.68,-22 145.18,-22 141.68,-18.85 148.68,-22 148.68,-22"/>
<text text-anchor="start" x="101.5" y="-25.4" font-family="Lato" font-size="12.00">a &amp; b</text>
</g>
<!-- 0 -->
<g id="node3" class="node">
<title>0</title>
<ellipse fill="#ffffa0" stroke="black" cx="393" cy="-22" rx="18" ry="18"/>
<ellipse fill="none" stroke="black" cx="393" cy="-22" rx="22" ry="22"/>
<text text-anchor="middle" x="393" y="-18.9" font-family="Lato" font-size="12.00">0</text>
</g>
<!-- 0&#45;&gt;0 -->
<g id="edge2" class="edge">
<title>0&#45;&gt;0</title>
<path fill="none" stroke="black" d="M383.29,-41.76C381.64,-52.35 384.88,-62 393,-62 399.22,-62 402.57,-56.34 403.06,-48.94"/>
<polygon fill="black" stroke="black" points="402.71,-41.76 406.2,-48.59 402.88,-45.25 403.05,-48.75 403.05,-48.75 403.05,-48.75 402.88,-45.25 399.91,-48.9 402.71,-41.76 402.71,-41.76"/>
<text text-anchor="start" x="389.5" y="-65.4" font-family="Lato" font-size="12.00">b</text>
</g>
<!-- 1&#45;&gt;2 -->
<g id="edge4" class="edge">
<title>1&#45;&gt;2</title>
<path fill="none" stroke="black" d="M151.08,-11.9C144.86,-9.09 137.8,-6.42 131,-5 117.51,-2.19 113.49,-2.19 100,-5 95.54,-5.93 90.96,-7.4 86.59,-9.09"/>
<polygon fill="black" stroke="black" points="79.92,-11.9 85.15,-6.28 83.15,-10.54 86.37,-9.18 86.37,-9.18 86.37,-9.18 83.15,-10.54 87.6,-12.09 79.92,-11.9 79.92,-11.9"/>
<text text-anchor="start" x="100" y="-8.4" font-family="Lato" font-size="12.00">!a &amp; b</text>
</g>
<!-- 1&#45;&gt;1 -->
<g id="edge3" class="edge">
<title>1&#45;&gt;1</title>
<path fill="none" stroke="black" d="M161.29,-41.76C159.64,-52.35 162.88,-62 171,-62 177.22,-62 180.57,-56.34 181.06,-48.94"/>
<polygon fill="black" stroke="black" points="180.71,-41.76 184.2,-48.59 180.88,-45.25 181.05,-48.75 181.05,-48.75 181.05,-48.75 180.88,-45.25 177.91,-48.9 180.71,-41.76 180.71,-41.76"/>
<text text-anchor="start" x="157" y="-65.4" font-family="Lato" font-size="12.00">a &amp; b</text>
</g>
<!-- 3 -->
<g id="node5" class="node">
<title>3</title>
<ellipse fill="#ffffa0" stroke="black" cx="282" cy="-22" rx="18" ry="18"/>
<ellipse fill="none" stroke="black" cx="282" cy="-22" rx="22" ry="22"/>
<text text-anchor="middle" x="282" y="-18.9" font-family="Lato" font-size="12.00">3</text>
</g>
<!-- 1&#45;&gt;3 -->
<g id="edge5" class="edge">
<title>1&#45;&gt;3</title>
<path fill="none" stroke="black" d="M193.02,-22C209.95,-22 233.92,-22 252.56,-22"/>
<polygon fill="black" stroke="black" points="259.68,-22 252.68,-25.15 256.18,-22 252.68,-22 252.68,-22 252.68,-22 256.18,-22 252.68,-18.85 259.68,-22 259.68,-22"/>
<text text-anchor="start" x="211" y="-25.4" font-family="Lato" font-size="12.00">a &amp; !b</text>
</g>
<!-- 3&#45;&gt;0 -->
<g id="edge8" class="edge">
<title>3&#45;&gt;0</title>
<path fill="none" stroke="black" d="M304.02,-22C320.95,-22 344.92,-22 363.56,-22"/>
<polygon fill="black" stroke="black" points="370.68,-22 363.68,-25.15 367.18,-22 363.68,-22 363.68,-22 363.68,-22 367.18,-22 363.68,-18.85 370.68,-22 370.68,-22"/>
<text text-anchor="start" x="322" y="-25.4" font-family="Lato" font-size="12.00">!a &amp; b</text>
</g>
<!-- 3&#45;&gt;3 -->
<g id="edge9" class="edge">
<title>3&#45;&gt;3</title>
<path fill="none" stroke="black" d="M272.29,-41.76C270.64,-52.35 273.88,-62 282,-62 288.22,-62 291.57,-56.34 292.06,-48.94"/>
<polygon fill="black" stroke="black" points="291.71,-41.76 295.2,-48.59 291.88,-45.25 292.05,-48.75 292.05,-48.75 292.05,-48.75 291.88,-45.25 288.91,-48.9 291.71,-41.76 291.71,-41.76"/>
<text text-anchor="start" x="278.5" y="-65.4" font-family="Lato" font-size="12.00">a</text>
</g>
</g>
</svg>
