<?xml version="1.0" encoding="UTF-8" standalone="no"?>
<?xml-stylesheet href="spot.css" type="text/css"?>
<!DOCTYPE svg PUBLIC "-//W3C//DTD SVG 1.1//EN"
 "http://www.w3.org/Graphics/SVG/1.1/DTD/svg11.dtd">
<!-- Generated by graphviz version 2.43.0 (0)
 -->
<!-- Pages: 1 -->
<svg width="298pt" height="193pt"
 viewBox="0.00 0.00 298.00 193.00" xmlns="http://www.w3.org/2000/svg" xmlns:xlink="http://www.w3.org/1999/xlink">
<g id="graph0" class="graph" transform="scale(1 1) rotate(0) translate(4 189)">
<polygon fill="white" stroke="transparent" points="-4,4 -4,-189 294,-189 294,4 -4,4"/>
<text text-anchor="start" x="126" y="-171.4" font-family="Lato" font-size="12.00">[Büchi]</text>
<!-- I -->
<!-- 0 -->
<g id="node2" class="node">
<title>0</title>
<ellipse fill="#ffffa0" stroke="#ff4da0" stroke-width="2" cx="56" cy="-75" rx="18" ry="18"/>
<text text-anchor="middle" x="56" y="-71.9" font-family="Lato" font-size="12.00">0</text>
</g>
<!-- I&#45;&gt;0 -->
<g id="edge1" class="edge">
<title>I&#45;&gt;0</title>
<path fill="none" stroke="black" d="M1.15,-75C2.79,-75 17.15,-75 30.63,-75"/>
<polygon fill="black" stroke="black" points="37.94,-75 30.94,-78.15 34.44,-75 30.94,-75 30.94,-75 30.94,-75 34.44,-75 30.94,-71.85 37.94,-75 37.94,-75"/>
</g>
<!-- 0&#45;&gt;0 -->
<g id="edge2" class="edge">
<title>0&#45;&gt;0</title>
<path fill="none" stroke="#ff4da0" stroke-width="2" d="M49.62,-92.04C48.32,-101.86 50.45,-111 56,-111 60.17,-111 62.4,-105.86 62.71,-99.14"/>
<polygon fill="#ff4da0" stroke="#ff4da0" stroke-width="2" points="62.38,-92.04 65.85,-98.88 63.04,-95.51 63.21,-99.01 62.71,-99.03 62.21,-99.05 62.04,-95.56 59.56,-99.18 62.38,-92.04 62.38,-92.04"/>
<text text-anchor="start" x="51" y="-114.4" font-family="Lato" font-size="12.00">!a</text>
</g>
<!-- 1 -->
<g id="node3" class="node">
<title>1</title>
<ellipse fill="#ffffa0" stroke="#ff4da0" stroke-width="2" cx="166" cy="-111" rx="18" ry="18"/>
<text text-anchor="middle" x="166" y="-107.9" font-family="Lato" font-size="12.00">1</text>
</g>
<!-- 0&#45;&gt;1 -->
<g id="edge3" class="edge">
<title>0&#45;&gt;1</title>
<path fill="none" stroke="black" d="M72.92,-81.71C78.86,-84.12 85.7,-86.8 92,-89 108.28,-94.7 126.9,-100.29 141.25,-104.42"/>
<polygon fill="black" stroke="black" points="148.34,-106.43 140.75,-107.55 144.97,-105.47 141.61,-104.52 141.61,-104.52 141.61,-104.52 144.97,-105.47 142.47,-101.49 148.34,-106.43 148.34,-106.43"/>
<text text-anchor="start" x="105.5" y="-103.4" font-family="Lato" font-size="12.00">a</text>
</g>
<!-- 2 -->
<g id="node4" class="node">
<title>2</title>
<ellipse fill="#ffffa0" stroke="black" cx="166" cy="-22" rx="18" ry="18"/>
<ellipse fill="none" stroke="black" cx="166" cy="-22" rx="22" ry="22"/>
<text text-anchor="middle" x="166" y="-18.9" font-family="Lato" font-size="12.00">2</text>
</g>
<!-- 0&#45;&gt;2 -->
<g id="edge4" class="edge">
<title>0&#45;&gt;2</title>
<path fill="none" stroke="#ff4da0" stroke-width="2" d="M70.85,-64.45C77.11,-59.96 84.72,-54.88 92,-51 106.79,-43.12 124.2,-36.12 138.31,-30.98"/>
<polygon fill="#ff4da0" stroke="#ff4da0" stroke-width="2" points="144.95,-28.6 139.42,-33.93 141.82,-30.25 138.52,-31.43 138.36,-30.96 138.19,-30.49 141.48,-29.31 137.29,-27.99 144.95,-28.6 144.95,-28.6"/>
<text text-anchor="start" x="104" y="-54.4" font-family="Lato" font-size="12.00">!a</text>
</g>
<!-- 1&#45;&gt;0 -->
<g id="edge5" class="edge">
<title>1&#45;&gt;0</title>
<path fill="none" stroke="black" d="M154.95,-96.22C147.98,-87.37 137.85,-76.91 126,-72 111.79,-66.12 94.5,-66.88 80.79,-69.11"/>
<polygon fill="black" stroke="black" points="73.57,-70.46 79.87,-66.07 77.01,-69.82 80.45,-69.17 80.45,-69.17 80.45,-69.17 77.01,-69.82 81.04,-72.27 73.57,-70.46 73.57,-70.46"/>
<text text-anchor="start" x="92" y="-75.4" font-family="Lato" font-size="12.00">!a &amp; !b</text>
</g>
<!-- 1&#45;&gt;1 -->
<g id="edge6" class="edge">
<title>1&#45;&gt;1</title>
<path fill="none" stroke="#ff4da0" stroke-width="2" d="M157.37,-126.92C155.11,-137.15 157.99,-147 166,-147 172.13,-147 175.25,-141.23 175.37,-133.93"/>
<polygon fill="#ff4da0" stroke="#ff4da0" stroke-width="2" points="174.63,-126.92 178.5,-133.55 175.5,-130.34 175.86,-133.83 175.37,-133.88 174.87,-133.93 174.5,-130.45 172.23,-134.21 174.63,-126.92 174.63,-126.92"/>
<text text-anchor="start" x="155" y="-150.4" font-family="Lato" font-size="12.00">a | b</text>
</g>
<!-- 3 -->
<g id="node5" class="node">
<title>3</title>
<ellipse fill="#ffffa0" stroke="black" cx="268" cy="-111" rx="18" ry="18"/>
<ellipse fill="none" stroke="black" cx="268" cy="-111" rx="22" ry="22"/>
<text text-anchor="middle" x="268" y="-107.9" font-family="Lato" font-size="12.00">3</text>
</g>
<!-- 1&#45;&gt;3 -->
<g id="edge7" class="edge">
<title>1&#45;&gt;3</title>
<path fill="none" stroke="#ff4da0" stroke-width="2" d="M184.42,-111C199.4,-111 221.3,-111 238.78,-111"/>
<polygon fill="#ff4da0" stroke="#ff4da0" stroke-width="2" points="245.97,-111 238.97,-114.15 242.47,-111.5 238.97,-111.5 238.97,-111 238.97,-110.5 242.47,-110.5 238.97,-107.85 245.97,-111 245.97,-111"/>
<text text-anchor="start" x="206" y="-114.4" font-family="Lato" font-size="12.00">a | b</text>
</g>
<!-- 2&#45;&gt;2 -->
<g id="edge8" class="edge">
<title>2&#45;&gt;2</title>
<path fill="none" stroke="black" d="M156.95,-42.17C155.56,-52.6 158.58,-62 166,-62 171.68,-62 174.78,-56.49 175.3,-49.23"/>
<polygon fill="black" stroke="black" points="175.05,-42.17 178.44,-49.05 175.17,-45.67 175.3,-49.17 175.3,-49.17 175.3,-49.17 175.17,-45.67 172.15,-49.28 175.05,-42.17 175.05,-42.17"/>
<text text-anchor="start" x="161" y="-65.4" font-family="Lato" font-size="12.00">!a</text>
</g>
<!-- 3&#45;&gt;3 -->
<g id="edge9" class="edge">
<title>3&#45;&gt;3</title>
<path fill="none" stroke="black" d="M258.95,-131.17C257.56,-141.6 260.58,-151 268,-151 273.68,-151 276.78,-145.49 277.3,-138.23"/>
<polygon fill="black" stroke="black" points="277.05,-131.17 280.44,-138.05 277.17,-134.67 277.3,-138.17 277.3,-138.17 277.3,-138.17 277.17,-134.67 274.15,-138.28 277.05,-131.17 277.05,-131.17"/>
<text text-anchor="start" x="257" y="-154.4" font-family="Lato" font-size="12.00">a | b</text>
</g>
</g>
</svg>
