<?xml version="1.0" encoding="UTF-8" standalone="no"?>
<?xml-stylesheet href="spot.css" type="text/css"?>
<!DOCTYPE svg PUBLIC "-//W3C//DTD SVG 1.1//EN"
 "http://www.w3.org/Graphics/SVG/1.1/DTD/svg11.dtd">
<!-- Generated by graphviz version 2.43.0 (0)
 -->
<!-- Title: Fa R b Pages: 1 -->
<svg width="386pt" height="156pt"
 viewBox="0.00 0.00 386.00 155.54" xmlns="http://www.w3.org/2000/svg" xmlns:xlink="http://www.w3.org/1999/xlink">
<g id="graph0" class="graph" transform="scale(1 1) rotate(0) translate(4 151.54)">
<title>Fa R b</title>
<polygon fill="white" stroke="transparent" points="-4,4 -4,-151.54 382,-151.54 382,4 -4,4"/>
<text text-anchor="start" x="170" y="-133.94" font-family="Lato" font-size="12.00">[Büchi]</text>
<!-- I -->
<!-- 2 -->
<g id="node2" class="node">
<title>2</title>
<ellipse fill="#ffffa0" stroke="black" cx="56" cy="-80.54" rx="18" ry="18"/>
<text text-anchor="middle" x="56" y="-77.44" font-family="Lato" font-size="12.00">2</text>
</g>
<!-- I&#45;&gt;2 -->
<g id="edge1" class="edge">
<title>I&#45;&gt;2</title>
<path fill="none" stroke="black" d="M1.15,-80.54C2.79,-80.54 17.15,-80.54 30.63,-80.54"/>
<polygon fill="black" stroke="black" points="37.94,-80.54 30.94,-83.69 34.44,-80.54 30.94,-80.54 30.94,-80.54 30.94,-80.54 34.44,-80.54 30.94,-77.39 37.94,-80.54 37.94,-80.54"/>
</g>
<!-- 1 -->
<g id="node4" class="node">
<title>1</title>
<ellipse fill="#ffffa0" stroke="black" cx="356" cy="-43.54" rx="18" ry="18"/>
<ellipse fill="none" stroke="black" cx="356" cy="-43.54" rx="22" ry="22"/>
<text text-anchor="middle" x="356" y="-40.44" font-family="Lato" font-size="12.00">1</text>
</g>
<!-- 2&#45;&gt;1 -->
<g id="edge5" class="edge">
<title>2&#45;&gt;1</title>
<path fill="none" stroke="black" d="M73,-86.7C111.87,-100.67 213.75,-131.34 291,-101.54 309.48,-94.41 325.94,-79.19 337.53,-66.13"/>
<polygon fill="black" stroke="black" points="342.19,-60.7 340.03,-68.06 339.91,-63.35 337.64,-66.01 337.64,-66.01 337.64,-66.01 339.91,-63.35 335.25,-63.96 342.19,-60.7 342.19,-60.7"/>
<text text-anchor="start" x="206" y="-116.94" font-family="Lato" font-size="12.00">a &amp; b</text>
</g>
<!-- 3 -->
<g id="node5" class="node">
<title>3</title>
<ellipse fill="#ffffa0" stroke="black" cx="163" cy="-39.54" rx="18" ry="18"/>
<ellipse fill="none" stroke="black" cx="163" cy="-39.54" rx="22" ry="22"/>
<text text-anchor="middle" x="163" y="-36.44" font-family="Lato" font-size="12.00">3</text>
</g>
<!-- 2&#45;&gt;3 -->
<g id="edge6" class="edge">
<title>2&#45;&gt;3</title>
<path fill="none" stroke="black" d="M72.95,-74.31C89.57,-67.82 115.91,-57.54 135.64,-49.83"/>
<polygon fill="black" stroke="black" points="142.32,-47.23 136.94,-52.71 139.06,-48.5 135.8,-49.77 135.8,-49.77 135.8,-49.77 139.06,-48.5 134.65,-46.84 142.32,-47.23 142.32,-47.23"/>
<text text-anchor="start" x="92" y="-68.94" font-family="Lato" font-size="12.00">!a &amp; b</text>
</g>
<!-- 0 -->
<g id="node3" class="node">
<title>0</title>
<ellipse fill="#ffffa0" stroke="black" cx="273" cy="-43.54" rx="18" ry="18"/>
<text text-anchor="middle" x="273" y="-40.44" font-family="Lato" font-size="12.00">0</text>
</g>
<!-- 0&#45;&gt;0 -->
<g id="edge2" class="edge">
<title>0&#45;&gt;0</title>
<path fill="none" stroke="black" d="M266.27,-60.58C264.89,-70.4 267.14,-79.54 273,-79.54 277.4,-79.54 279.76,-74.4 280.09,-67.68"/>
<polygon fill="black" stroke="black" points="279.73,-60.58 283.23,-67.41 279.91,-64.07 280.08,-67.57 280.08,-67.57 280.08,-67.57 279.91,-64.07 276.93,-67.73 279.73,-60.58 279.73,-60.58"/>
<text text-anchor="start" x="268" y="-82.94" font-family="Lato" font-size="12.00">!a</text>
</g>
<!-- 0&#45;&gt;1 -->
<g id="edge3" class="edge">
<title>0&#45;&gt;1</title>
<path fill="none" stroke="black" d="M291.18,-43.54C301.48,-43.54 314.85,-43.54 326.68,-43.54"/>
<polygon fill="black" stroke="black" points="333.81,-43.54 326.81,-46.69 330.31,-43.54 326.81,-43.54 326.81,-43.54 326.81,-43.54 330.31,-43.54 326.81,-40.39 333.81,-43.54 333.81,-43.54"/>
<text text-anchor="start" x="309" y="-46.94" font-family="Lato" font-size="12.00">a</text>
</g>
<!-- 1&#45;&gt;1 -->
<g id="edge4" class="edge">
<title>1&#45;&gt;1</title>
<path fill="none" stroke="black" d="M348.32,-64.53C347.37,-74.63 349.93,-83.54 356,-83.54 360.55,-83.54 363.13,-78.53 363.74,-71.76"/>
<polygon fill="black" stroke="black" points="363.68,-64.53 366.88,-71.51 363.71,-68.03 363.73,-71.53 363.73,-71.53 363.73,-71.53 363.71,-68.03 360.58,-71.55 363.68,-64.53 363.68,-64.53"/>
<text text-anchor="middle" x="356" y="-86.94" font-family="Lato" font-size="12.00">1</text>
</g>
<!-- 3&#45;&gt;0 -->
<g id="edge7" class="edge">
<title>3&#45;&gt;0</title>
<path fill="none" stroke="black" d="M185.08,-40.32C203.07,-40.99 228.95,-41.95 247.79,-42.64"/>
<polygon fill="black" stroke="black" points="254.88,-42.91 247.77,-45.8 251.38,-42.78 247.89,-42.65 247.89,-42.65 247.89,-42.65 251.38,-42.78 248,-39.5 254.88,-42.91 254.88,-42.91"/>
<text text-anchor="start" x="203" y="-44.94" font-family="Lato" font-size="12.00">!a &amp; !b</text>
</g>
<!-- 3&#45;&gt;1 -->
<g id="edge8" class="edge">
<title>3&#45;&gt;1</title>
<path fill="none" stroke="black" d="M182.1,-27.93C206.74,-13.61 252.23,7.58 291,-3.54 306.12,-7.88 321.14,-16.95 332.82,-25.35"/>
<polygon fill="black" stroke="black" points="338.61,-29.66 331.11,-28.01 335.8,-27.57 332.99,-25.48 332.99,-25.48 332.99,-25.48 335.8,-27.57 334.87,-22.95 338.61,-29.66 338.61,-29.66"/>
<text text-anchor="start" x="269.5" y="-6.94" font-family="Lato" font-size="12.00">a</text>
</g>
<!-- 3&#45;&gt;3 -->
<g id="edge9" class="edge">
<title>3&#45;&gt;3</title>
<path fill="none" stroke="black" d="M153.29,-59.3C151.64,-69.89 154.88,-79.54 163,-79.54 169.22,-79.54 172.57,-73.88 173.06,-66.48"/>
<polygon fill="black" stroke="black" points="172.71,-59.3 176.2,-66.13 172.88,-62.79 173.05,-66.29 173.05,-66.29 173.05,-66.29 172.88,-62.79 169.91,-66.45 172.71,-59.3 172.71,-59.3"/>
<text text-anchor="start" x="147.5" y="-82.94" font-family="Lato" font-size="12.00">!a &amp; b</text>
</g>
</g>
</svg>
