<?xml version="1.0" encoding="UTF-8" standalone="no"?>
<?xml-stylesheet href="spot.css" type="text/css"?>
<!DOCTYPE svg PUBLIC "-//W3C//DTD SVG 1.1//EN"
 "http://www.w3.org/Graphics/SVG/1.1/DTD/svg11.dtd">
<!-- Generated by graphviz version 2.43.0 (0)
 -->
<!-- Title: G(Gb | Fa) Pages: 1 -->
<svg width="291pt" height="182pt"
 viewBox="0.00 0.00 291.00 182.33" xmlns="http://www.w3.org/2000/svg" xmlns:xlink="http://www.w3.org/1999/xlink">
<g id="graph0" class="graph" transform="scale(1 1) rotate(0) translate(4 178.33)">
<title>G(Gb | Fa)</title>
<polygon fill="white" stroke="transparent" points="-4,4 -4,-178.33 287,-178.33 287,4 -4,4"/>
<text text-anchor="start" x="123.5" y="-161.73" font-family="Lato" font-size="12.00">Inf(</text>
<text text-anchor="start" x="141.5" y="-161.73" font-family="Lato" font-size="12.00" fill="#1f78b4">⓿</text>
<text text-anchor="start" x="155.5" y="-161.73" font-family="Lato" font-size="12.00">)</text>
<text text-anchor="start" x="122.5" y="-149.73" font-family="Lato" font-size="12.00">[Büchi]</text>
<!-- I -->
<!-- 0 -->
<g id="node2" class="node">
<title>0</title>
<ellipse fill="#ffffa0" stroke="black" cx="56" cy="-64.33" rx="18" ry="18"/>
<text text-anchor="middle" x="56" y="-61.23" font-family="Lato" font-size="12.00">0</text>
</g>
<!-- I&#45;&gt;0 -->
<g id="edge1" class="edge">
<title>I&#45;&gt;0</title>
<path fill="none" stroke="black" d="M1.15,-64.33C2.79,-64.33 17.15,-64.33 30.63,-64.33"/>
<polygon fill="black" stroke="black" points="37.94,-64.33 30.94,-67.48 34.44,-64.33 30.94,-64.33 30.94,-64.33 30.94,-64.33 34.44,-64.33 30.94,-61.18 37.94,-64.33 37.94,-64.33"/>
</g>
<!-- 0&#45;&gt;0 -->
<g id="edge2" class="edge">
<title>0&#45;&gt;0</title>
<path fill="none" stroke="black" d="M49.62,-81.37C48.32,-91.19 50.45,-100.33 56,-100.33 60.17,-100.33 62.4,-95.19 62.71,-88.47"/>
<polygon fill="black" stroke="black" points="62.38,-81.37 65.85,-88.21 62.54,-84.86 62.71,-88.36 62.71,-88.36 62.71,-88.36 62.54,-84.86 59.56,-88.51 62.38,-81.37 62.38,-81.37"/>
<text text-anchor="start" x="52.5" y="-116.73" font-family="Lato" font-size="12.00">a</text>
<text text-anchor="start" x="49" y="-103.73" font-family="Lato" font-size="12.00" fill="#1f78b4">⓿</text>
</g>
<!-- 1 -->
<g id="node3" class="node">
<title>1</title>
<ellipse fill="#ffffa0" stroke="black" cx="265" cy="-55.33" rx="18" ry="18"/>
<text text-anchor="middle" x="265" y="-52.23" font-family="Lato" font-size="12.00">1</text>
</g>
<!-- 0&#45;&gt;1 -->
<g id="edge3" class="edge">
<title>0&#45;&gt;1</title>
<path fill="none" stroke="black" d="M68.45,-77.55C89.26,-99.89 135.03,-141.28 177,-126.33 205.71,-116.1 231.8,-91.89 247.76,-74.58"/>
<polygon fill="black" stroke="black" points="252.78,-69.01 250.44,-76.32 250.43,-71.61 248.09,-74.21 248.09,-74.21 248.09,-74.21 250.43,-71.61 245.75,-72.11 252.78,-69.01 252.78,-69.01"/>
<text text-anchor="start" x="142" y="-132.73" font-family="Lato" font-size="12.00">!a &amp; !b</text>
</g>
<!-- 2 -->
<g id="node4" class="node">
<title>2</title>
<ellipse fill="#ffffa0" stroke="black" cx="159" cy="-55.33" rx="18" ry="18"/>
<text text-anchor="middle" x="159" y="-52.23" font-family="Lato" font-size="12.00">2</text>
</g>
<!-- 0&#45;&gt;2 -->
<g id="edge4" class="edge">
<title>0&#45;&gt;2</title>
<path fill="none" stroke="black" d="M73.94,-67.04C87.34,-68.72 106.48,-70.08 123,-67.33 127.14,-66.64 131.45,-65.52 135.57,-64.23"/>
<polygon fill="black" stroke="black" points="142.26,-61.96 136.64,-67.2 138.94,-63.09 135.63,-64.21 135.63,-64.21 135.63,-64.21 138.94,-63.09 134.62,-61.23 142.26,-61.96 142.26,-61.96"/>
<text text-anchor="start" x="92" y="-71.73" font-family="Lato" font-size="12.00">!a &amp; b</text>
</g>
<!-- 1&#45;&gt;0 -->
<g id="edge5" class="edge">
<title>1&#45;&gt;0</title>
<path fill="none" stroke="black" d="M251.17,-43.42C229.29,-24.59 183.03,8.83 141,-2.33 113.93,-9.52 88.93,-30.62 73.37,-46.22"/>
<polygon fill="black" stroke="black" points="68.46,-51.27 71.08,-44.05 70.9,-48.76 73.34,-46.25 73.34,-46.25 73.34,-46.25 70.9,-48.76 75.6,-48.44 68.46,-51.27 68.46,-51.27"/>
<text text-anchor="start" x="155.5" y="-18.73" font-family="Lato" font-size="12.00">a</text>
<text text-anchor="start" x="152" y="-5.73" font-family="Lato" font-size="12.00" fill="#1f78b4">⓿</text>
</g>
<!-- 1&#45;&gt;1 -->
<g id="edge6" class="edge">
<title>1&#45;&gt;1</title>
<path fill="none" stroke="black" d="M256.02,-71.24C253.68,-81.48 256.67,-91.33 265,-91.33 271.38,-91.33 274.63,-85.55 274.75,-78.25"/>
<polygon fill="black" stroke="black" points="273.98,-71.24 277.87,-77.86 274.36,-74.72 274.74,-78.2 274.74,-78.2 274.74,-78.2 274.36,-74.72 271.61,-78.55 273.98,-71.24 273.98,-71.24"/>
<text text-anchor="start" x="260" y="-94.73" font-family="Lato" font-size="12.00">!a</text>
</g>
<!-- 2&#45;&gt;0 -->
<g id="edge7" class="edge">
<title>2&#45;&gt;0</title>
<path fill="none" stroke="black" d="M143.28,-45.79C137.25,-42.41 130.04,-39.03 123,-37.33 109.61,-34.09 105.04,-32.88 92,-37.33 85.84,-39.43 79.92,-43.1 74.76,-47.07"/>
<polygon fill="black" stroke="black" points="69.07,-51.8 72.44,-44.9 71.77,-49.56 74.46,-47.32 74.46,-47.32 74.46,-47.32 71.77,-49.56 76.47,-49.74 69.07,-51.8 69.07,-51.8"/>
<text text-anchor="start" x="104" y="-53.73" font-family="Lato" font-size="12.00">a</text>
<text text-anchor="start" x="100.5" y="-40.73" font-family="Lato" font-size="12.00" fill="#1f78b4">⓿</text>
</g>
<!-- 2&#45;&gt;1 -->
<g id="edge8" class="edge">
<title>2&#45;&gt;1</title>
<path fill="none" stroke="black" d="M177.17,-55.33C194.18,-55.33 220.4,-55.33 239.57,-55.33"/>
<polygon fill="black" stroke="black" points="246.8,-55.33 239.8,-58.48 243.3,-55.33 239.8,-55.33 239.8,-55.33 239.8,-55.33 243.3,-55.33 239.8,-52.18 246.8,-55.33 246.8,-55.33"/>
<text text-anchor="start" x="195" y="-58.73" font-family="Lato" font-size="12.00">!a &amp; !b</text>
</g>
<!-- 2&#45;&gt;2 -->
<g id="edge9" class="edge">
<title>2&#45;&gt;2</title>
<path fill="none" stroke="black" d="M150.37,-71.24C148.11,-81.48 150.99,-91.33 159,-91.33 165.13,-91.33 168.25,-85.55 168.37,-78.25"/>
<polygon fill="black" stroke="black" points="167.63,-71.24 171.5,-77.88 168,-74.72 168.37,-78.21 168.37,-78.21 168.37,-78.21 168,-74.72 165.23,-78.54 167.63,-71.24 167.63,-71.24"/>
<text text-anchor="start" x="143.5" y="-107.73" font-family="Lato" font-size="12.00">!a &amp; b</text>
<text text-anchor="start" x="152" y="-94.73" font-family="Lato" font-size="12.00" fill="#1f78b4">⓿</text>
</g>
</g>
</svg>
