<?xml version="1.0" encoding="UTF-8" standalone="no"?>
<?xml-stylesheet href="spot.css" type="text/css"?>
<!DOCTYPE svg PUBLIC "-//W3C//DTD SVG 1.1//EN"
 "http://www.w3.org/Graphics/SVG/1.1/DTD/svg11.dtd">
<!-- Generated by graphviz version 2.43.0 (0)
 -->
<!-- Title: (a W Gb) M b Pages: 1 -->
<svg width="301pt" height="149pt"
 viewBox="0.00 0.00 301.00 149.00" xmlns="http://www.w3.org/2000/svg" xmlns:xlink="http://www.w3.org/1999/xlink">
<g id="graph0" class="graph" transform="scale(1 1) rotate(0) translate(4 145)">
<title>(a W Gb) M b</title>
<polygon fill="white" stroke="transparent" points="-4,4 -4,-145 297,-145 297,4 -4,4"/>
<text text-anchor="start" x="127.5" y="-127.4" font-family="Lato" font-size="12.00">[Büchi]</text>
<!-- I -->
<!-- 0 -->
<g id="node2" class="node">
<title>0</title>
<ellipse fill="#ffffa0" stroke="#ff4da0" stroke-width="2" cx="56" cy="-67" rx="18" ry="18"/>
<text text-anchor="middle" x="56" y="-63.9" font-family="Lato" font-size="12.00">0</text>
</g>
<!-- I&#45;&gt;0 -->
<g id="edge1" class="edge">
<title>I&#45;&gt;0</title>
<path fill="none" stroke="black" d="M1.15,-67C2.79,-67 17.15,-67 30.63,-67"/>
<polygon fill="black" stroke="black" points="37.94,-67 30.94,-70.15 34.44,-67 30.94,-67 30.94,-67 30.94,-67 34.44,-67 30.94,-63.85 37.94,-67 37.94,-67"/>
</g>
<!-- 0&#45;&gt;0 -->
<g id="edge2" class="edge">
<title>0&#45;&gt;0</title>
<path fill="none" stroke="#ff4da0" stroke-width="2" d="M49.62,-84.04C48.32,-93.86 50.45,-103 56,-103 60.17,-103 62.4,-97.86 62.71,-91.14"/>
<polygon fill="#ff4da0" stroke="#ff4da0" stroke-width="2" points="62.38,-84.04 65.85,-90.88 63.04,-87.51 63.21,-91.01 62.71,-91.03 62.21,-91.05 62.04,-87.56 59.56,-91.18 62.38,-84.04 62.38,-84.04"/>
<text text-anchor="start" x="52.5" y="-106.4" font-family="Lato" font-size="12.00">b</text>
</g>
<!-- 1 -->
<g id="node3" class="node">
<title>1</title>
<ellipse fill="#ffffa0" stroke="black" cx="271" cy="-67" rx="18" ry="18"/>
<ellipse fill="none" stroke="black" cx="271" cy="-67" rx="22" ry="22"/>
<text text-anchor="middle" x="271" y="-63.9" font-family="Lato" font-size="12.00">1</text>
</g>
<!-- 0&#45;&gt;1 -->
<g id="edge3" class="edge">
<title>0&#45;&gt;1</title>
<path fill="none" stroke="#ff4da0" stroke-width="2" d="M73.59,-71.54C89.86,-75.73 115.42,-81.66 138,-84 174.13,-87.75 215.67,-80.48 242.35,-74.32"/>
<polygon fill="#ff4da0" stroke="#ff4da0" stroke-width="2" points="249.46,-72.62 243.38,-77.31 246.17,-73.92 242.77,-74.73 242.65,-74.24 242.53,-73.76 245.94,-72.94 241.92,-71.18 249.46,-72.62 249.46,-72.62"/>
<text text-anchor="start" x="144.5" y="-88.4" font-family="Lato" font-size="12.00">!a &amp; b</text>
</g>
<!-- 2 -->
<g id="node4" class="node">
<title>2</title>
<ellipse fill="#ffffa0" stroke="black" cx="160" cy="-22" rx="18" ry="18"/>
<ellipse fill="none" stroke="black" cx="160" cy="-22" rx="22" ry="22"/>
<text text-anchor="middle" x="160" y="-18.9" font-family="Lato" font-size="12.00">2</text>
</g>
<!-- 0&#45;&gt;2 -->
<g id="edge4" class="edge">
<title>0&#45;&gt;2</title>
<path fill="none" stroke="#ff4da0" stroke-width="2" d="M72.94,-59.97C89.01,-52.88 114.07,-41.82 133.02,-33.46"/>
<polygon fill="#ff4da0" stroke="#ff4da0" stroke-width="2" points="139.69,-30.52 134.56,-36.22 136.69,-32.39 133.49,-33.8 133.29,-33.34 133.09,-32.89 136.29,-31.47 132.02,-30.46 139.69,-30.52 139.69,-30.52"/>
<text text-anchor="start" x="92" y="-54.4" font-family="Lato" font-size="12.00">a &amp; b</text>
</g>
<!-- 1&#45;&gt;1 -->
<g id="edge5" class="edge">
<title>1&#45;&gt;1</title>
<path fill="none" stroke="black" d="M261.29,-86.76C259.64,-97.35 262.88,-107 271,-107 277.22,-107 280.57,-101.34 281.06,-93.94"/>
<polygon fill="black" stroke="black" points="280.71,-86.76 284.2,-93.59 280.88,-90.25 281.05,-93.75 281.05,-93.75 281.05,-93.75 280.88,-90.25 277.91,-93.9 280.71,-86.76 280.71,-86.76"/>
<text text-anchor="start" x="267.5" y="-110.4" font-family="Lato" font-size="12.00">b</text>
</g>
<!-- 2&#45;&gt;1 -->
<g id="edge6" class="edge">
<title>2&#45;&gt;1</title>
<path fill="none" stroke="black" d="M180.49,-30.05C198.13,-37.33 224.25,-48.11 243.73,-56.15"/>
<polygon fill="black" stroke="black" points="250.31,-58.87 242.64,-59.11 247.08,-57.54 243.84,-56.2 243.84,-56.2 243.84,-56.2 247.08,-57.54 245.05,-53.29 250.31,-58.87 250.31,-58.87"/>
<text text-anchor="start" x="200" y="-52.4" font-family="Lato" font-size="12.00">!a &amp; b</text>
</g>
<!-- 2&#45;&gt;2 -->
<g id="edge7" class="edge">
<title>2&#45;&gt;2</title>
<path fill="none" stroke="black" d="M150.29,-41.76C148.64,-52.35 151.88,-62 160,-62 166.22,-62 169.57,-56.34 170.06,-48.94"/>
<polygon fill="black" stroke="black" points="169.71,-41.76 173.2,-48.59 169.88,-45.25 170.05,-48.75 170.05,-48.75 170.05,-48.75 169.88,-45.25 166.91,-48.9 169.71,-41.76 169.71,-41.76"/>
<text text-anchor="start" x="156.5" y="-65.4" font-family="Lato" font-size="12.00">a</text>
</g>
</g>
</svg>
