<?xml version="1.0" encoding="UTF-8" standalone="no"?>
<?xml-stylesheet href="spot.css" type="text/css"?>
<!DOCTYPE svg PUBLIC "-//W3C//DTD SVG 1.1//EN"
 "http://www.w3.org/Graphics/SVG/1.1/DTD/svg11.dtd">
<!-- Generated by graphviz version 2.43.0 (0)
 -->
<!-- Title: (a W Gb) M b Pages: 1 -->
<svg width="285pt" height="109pt"
 viewBox="0.00 0.00 285.00 109.00" xmlns="http://www.w3.org/2000/svg" xmlns:xlink="http://www.w3.org/1999/xlink">
<g id="graph0" class="graph" transform="scale(1 1) rotate(0) translate(4 105)">
<title>(a W Gb) M b</title>
<polygon fill="white" stroke="transparent" points="-4,4 -4,-105 281,-105 281,4 -4,4"/>
<text text-anchor="start" x="136" y="-87.4" font-family="Lato" font-size="12.00">t</text>
<text text-anchor="start" x="129" y="-74.4" font-family="Lato" font-size="12.00">[all]</text>
<!-- I -->
<!-- 0 -->
<g id="node2" class="node">
<title>0</title>
<ellipse fill="#ffffa0" stroke="#ff4da0" stroke-width="2" cx="56" cy="-18" rx="18" ry="18"/>
<text text-anchor="middle" x="56" y="-14.9" font-family="Lato" font-size="12.00">0</text>
</g>
<!-- I&#45;&gt;0 -->
<g id="edge1" class="edge">
<title>I&#45;&gt;0</title>
<path fill="none" stroke="black" d="M1.15,-18C2.79,-18 17.15,-18 30.63,-18"/>
<polygon fill="black" stroke="black" points="37.94,-18 30.94,-21.15 34.44,-18 30.94,-18 30.94,-18 30.94,-18 34.44,-18 30.94,-14.85 37.94,-18 37.94,-18"/>
</g>
<!-- 0&#45;&gt;0 -->
<g id="edge2" class="edge">
<title>0&#45;&gt;0</title>
<path fill="none" stroke="#ff4da0" stroke-width="2" d="M49.62,-35.04C48.32,-44.86 50.45,-54 56,-54 60.17,-54 62.4,-48.86 62.71,-42.14"/>
<polygon fill="#ff4da0" stroke="#ff4da0" stroke-width="2" points="62.38,-35.04 65.85,-41.88 63.04,-38.51 63.21,-42.01 62.71,-42.03 62.21,-42.05 62.04,-38.56 59.56,-42.18 62.38,-35.04 62.38,-35.04"/>
<text text-anchor="start" x="52.5" y="-57.4" font-family="Lato" font-size="12.00">b</text>
</g>
<!-- 2 -->
<g id="node3" class="node">
<title>2</title>
<ellipse fill="#ffffa0" stroke="black" cx="156" cy="-18" rx="18" ry="18"/>
<text text-anchor="middle" x="156" y="-14.9" font-family="Lato" font-size="12.00">2</text>
</g>
<!-- 0&#45;&gt;2 -->
<g id="edge3" class="edge">
<title>0&#45;&gt;2</title>
<path fill="none" stroke="#ff4da0" stroke-width="2" d="M74.07,-18C89.71,-18 113.05,-18 130.64,-18"/>
<polygon fill="#ff4da0" stroke="#ff4da0" stroke-width="2" points="137.8,-18 130.8,-21.15 134.3,-18.5 130.8,-18.5 130.8,-18 130.8,-17.5 134.3,-17.5 130.8,-14.85 137.8,-18 137.8,-18"/>
<text text-anchor="start" x="92" y="-21.4" font-family="Lato" font-size="12.00">a &amp; b</text>
</g>
<!-- 2&#45;&gt;2 -->
<g id="edge6" class="edge">
<title>2&#45;&gt;2</title>
<path fill="none" stroke="black" d="M147.37,-33.92C145.11,-44.15 147.99,-54 156,-54 162.13,-54 165.25,-48.23 165.37,-40.93"/>
<polygon fill="black" stroke="black" points="164.63,-33.92 168.5,-40.55 165,-37.4 165.37,-40.88 165.37,-40.88 165.37,-40.88 165,-37.4 162.23,-41.21 164.63,-33.92 164.63,-33.92"/>
<text text-anchor="start" x="152.5" y="-57.4" font-family="Lato" font-size="12.00">a</text>
</g>
<!-- 1 -->
<g id="node4" class="node">
<title>1</title>
<ellipse fill="#ffffa0" stroke="black" cx="259" cy="-18" rx="18" ry="18"/>
<text text-anchor="middle" x="259" y="-14.9" font-family="Lato" font-size="12.00">1</text>
</g>
<!-- 2&#45;&gt;1 -->
<g id="edge5" class="edge">
<title>2&#45;&gt;1</title>
<path fill="none" stroke="black" d="M174.13,-18C190.38,-18 214.98,-18 233.34,-18"/>
<polygon fill="black" stroke="black" points="240.78,-18 233.78,-21.15 237.28,-18 233.78,-18 233.78,-18 233.78,-18 237.28,-18 233.78,-14.85 240.78,-18 240.78,-18"/>
<text text-anchor="start" x="192" y="-21.4" font-family="Lato" font-size="12.00">!a &amp; b</text>
</g>
<!-- 1&#45;&gt;1 -->
<g id="edge4" class="edge">
<title>1&#45;&gt;1</title>
<path fill="none" stroke="black" d="M250.37,-33.92C248.11,-44.15 250.99,-54 259,-54 265.13,-54 268.25,-48.23 268.37,-40.93"/>
<polygon fill="black" stroke="black" points="267.63,-33.92 271.5,-40.55 268,-37.4 268.37,-40.88 268.37,-40.88 268.37,-40.88 268,-37.4 265.23,-41.21 267.63,-33.92 267.63,-33.92"/>
<text text-anchor="start" x="255.5" y="-57.4" font-family="Lato" font-size="12.00">b</text>
</g>
</g>
</svg>
