<?xml version="1.0" encoding="UTF-8" standalone="no"?>
<?xml-stylesheet href="spot.css" type="text/css"?>
<!DOCTYPE svg PUBLIC "-//W3C//DTD SVG 1.1//EN"
 "http://www.w3.org/Graphics/SVG/1.1/DTD/svg11.dtd">
<!-- Generated by graphviz version 2.43.0 (0)
 -->
<!-- Title: Fa R b Pages: 1 -->
<svg width="280pt" height="143pt"
 viewBox="0.00 0.00 280.00 143.00" xmlns="http://www.w3.org/2000/svg" xmlns:xlink="http://www.w3.org/1999/xlink">
<g id="graph0" class="graph" transform="scale(1 1) rotate(0) translate(4 139)">
<title>Fa R b</title>
<polygon fill="white" stroke="transparent" points="-4,4 -4,-139 276,-139 276,4 -4,4"/>
<text text-anchor="start" x="117" y="-121.4" font-family="Lato" font-size="12.00">[Büchi]</text>
<!-- I -->
<!-- 0 -->
<g id="node2" class="node">
<title>0</title>
<ellipse fill="#ffffa0" stroke="#ff4da0" stroke-width="2" cx="60" cy="-61" rx="18" ry="18"/>
<ellipse fill="none" stroke="#ff4da0" stroke-width="2" cx="60" cy="-61" rx="22" ry="22"/>
<text text-anchor="middle" x="60" y="-57.9" font-family="Lato" font-size="12.00">0</text>
</g>
<!-- I&#45;&gt;0 -->
<g id="edge1" class="edge">
<title>I&#45;&gt;0</title>
<path fill="none" stroke="black" d="M1.17,-61C2.84,-61 16.88,-61 30.71,-61"/>
<polygon fill="black" stroke="black" points="37.86,-61 30.86,-64.15 34.36,-61 30.86,-61 30.86,-61 30.86,-61 34.36,-61 30.86,-57.85 37.86,-61 37.86,-61"/>
</g>
<!-- 0&#45;&gt;0 -->
<g id="edge2" class="edge">
<title>0&#45;&gt;0</title>
<path fill="none" stroke="#ff4da0" stroke-width="2" d="M52.68,-81.99C51.78,-92.09 54.22,-101 60,-101 64.34,-101 66.79,-95.99 67.37,-89.22"/>
<polygon fill="#ff4da0" stroke="#ff4da0" stroke-width="2" points="67.32,-81.99 70.52,-88.97 67.84,-85.49 67.87,-88.99 67.37,-88.99 66.87,-88.99 66.84,-85.49 64.22,-89.01 67.32,-81.99 67.32,-81.99"/>
<text text-anchor="start" x="44.5" y="-104.4" font-family="Lato" font-size="12.00">!a &amp; b</text>
</g>
<!-- 1 -->
<g id="node3" class="node">
<title>1</title>
<ellipse fill="#ffffa0" stroke="black" cx="250" cy="-61" rx="18" ry="18"/>
<ellipse fill="none" stroke="black" cx="250" cy="-61" rx="22" ry="22"/>
<text text-anchor="middle" x="250" y="-57.9" font-family="Lato" font-size="12.00">1</text>
</g>
<!-- 0&#45;&gt;1 -->
<g id="edge3" class="edge">
<title>0&#45;&gt;1</title>
<path fill="none" stroke="black" d="M81.62,-66.48C106.22,-72.32 148.6,-80.21 185,-76 197.18,-74.59 210.41,-71.72 221.67,-68.87"/>
<polygon fill="black" stroke="black" points="228.75,-67.01 222.78,-71.83 225.36,-67.9 221.98,-68.79 221.98,-68.79 221.98,-68.79 225.36,-67.9 221.18,-65.74 228.75,-67.01 228.75,-67.01"/>
<text text-anchor="start" x="153" y="-80.4" font-family="Lato" font-size="12.00">a &amp; b</text>
</g>
<!-- 2 -->
<g id="node4" class="node">
<title>2</title>
<ellipse fill="#ffffa0" stroke="black" cx="167" cy="-18" rx="18" ry="18"/>
<text text-anchor="middle" x="167" y="-14.9" font-family="Lato" font-size="12.00">2</text>
</g>
<!-- 0&#45;&gt;2 -->
<g id="edge4" class="edge">
<title>0&#45;&gt;2</title>
<path fill="none" stroke="#ff4da0" stroke-width="2" d="M80.75,-52.91C98.63,-45.59 124.96,-34.81 143.61,-27.17"/>
<polygon fill="#ff4da0" stroke="#ff4da0" stroke-width="2" points="150.11,-24.51 144.83,-30.07 147.06,-26.3 143.82,-27.62 143.63,-27.16 143.44,-26.7 146.68,-25.37 142.44,-24.24 150.11,-24.51 150.11,-24.51"/>
<text text-anchor="start" x="100" y="-47.4" font-family="Lato" font-size="12.00">!a &amp; b</text>
</g>
<!-- 1&#45;&gt;1 -->
<g id="edge5" class="edge">
<title>1&#45;&gt;1</title>
<path fill="none" stroke="black" d="M242.32,-81.99C241.37,-92.09 243.93,-101 250,-101 254.55,-101 257.13,-95.99 257.74,-89.22"/>
<polygon fill="black" stroke="black" points="257.68,-81.99 260.88,-88.97 257.71,-85.49 257.73,-88.99 257.73,-88.99 257.73,-88.99 257.71,-85.49 254.58,-89.01 257.68,-81.99 257.68,-81.99"/>
<text text-anchor="middle" x="250" y="-104.4" font-family="Lato" font-size="12.00">1</text>
</g>
<!-- 2&#45;&gt;1 -->
<g id="edge6" class="edge">
<title>2&#45;&gt;1</title>
<path fill="none" stroke="black" d="M183.24,-26.09C194.66,-32.15 210.54,-40.58 223.84,-47.64"/>
<polygon fill="black" stroke="black" points="230.13,-50.98 222.47,-50.48 227.03,-49.34 223.94,-47.7 223.94,-47.7 223.94,-47.7 227.03,-49.34 225.42,-44.92 230.13,-50.98 230.13,-50.98"/>
<text text-anchor="start" x="203" y="-42.4" font-family="Lato" font-size="12.00">a</text>
</g>
<!-- 2&#45;&gt;2 -->
<g id="edge7" class="edge">
<title>2&#45;&gt;2</title>
<path fill="none" stroke="black" d="M160.27,-35.04C158.89,-44.86 161.14,-54 167,-54 171.4,-54 173.76,-48.86 174.09,-42.14"/>
<polygon fill="black" stroke="black" points="173.73,-35.04 177.23,-41.87 173.91,-38.53 174.08,-42.03 174.08,-42.03 174.08,-42.03 173.91,-38.53 170.93,-42.18 173.73,-35.04 173.73,-35.04"/>
<text text-anchor="start" x="162" y="-57.4" font-family="Lato" font-size="12.00">!a</text>
</g>
</g>
</svg>
