<?xml version="1.0" encoding="UTF-8" standalone="no"?>
<?xml-stylesheet href="spot.css" type="text/css"?>
<!DOCTYPE svg PUBLIC "-//W3C//DTD SVG 1.1//EN"
 "http://www.w3.org/Graphics/SVG/1.1/DTD/svg11.dtd">
<!-- Generated by graphviz version 2.43.0 (0)
 -->
<!-- Title: root Pages: 1 -->
<svg width="410pt" height="335pt"
 viewBox="0.00 0.00 410.00 335.00" xmlns="http://www.w3.org/2000/svg" xmlns:xlink="http://www.w3.org/1999/xlink">
<g id="graph0" class="graph" transform="scale(1 1) rotate(0) translate(4 331)">
<title>root</title>
<polygon fill="white" stroke="transparent" points="-4,4 -4,-331 406,-331 406,4 -4,4"/>
<!-- I -->
<!-- 0 -->
<g id="node2" class="node">
<title>0</title>
<ellipse fill="#ffffa0" stroke="black" cx="56" cy="-150" rx="18" ry="18"/>
<text text-anchor="middle" x="56" y="-146.9" font-family="Lato" font-size="12.00">0</text>
</g>
<!-- I&#45;&gt;0 -->
<g id="edge1" class="edge">
<title>I&#45;&gt;0</title>
<path fill="none" stroke="black" d="M1.15,-150C2.79,-150 17.15,-150 30.63,-150"/>
<polygon fill="black" stroke="black" points="37.94,-150 30.94,-153.15 34.44,-150 30.94,-150 30.94,-150 30.94,-150 34.44,-150 30.94,-146.85 37.94,-150 37.94,-150"/>
</g>
<!-- 0&#45;&gt;0 -->
<g id="edge2" class="edge">
<title>0&#45;&gt;0</title>
<path fill="none" stroke="black" d="M49.62,-167.04C48.32,-176.86 50.45,-186 56,-186 60.17,-186 62.4,-180.86 62.71,-174.14"/>
<polygon fill="black" stroke="black" points="62.38,-167.04 65.85,-173.88 62.54,-170.53 62.71,-174.03 62.71,-174.03 62.71,-174.03 62.54,-170.53 59.56,-174.18 62.38,-167.04 62.38,-167.04"/>
<text text-anchor="start" x="39.5" y="-202.4" font-family="Lato" font-size="12.00">!a &amp; !c</text>
<text text-anchor="start" x="49" y="-189.4" font-family="Lato" font-size="12.00" fill="#1f78b4">⓿</text>
</g>
<!-- 1 -->
<g id="node3" class="node">
<title>1</title>
<ellipse fill="#ffffa0" stroke="black" cx="384" cy="-152" rx="18" ry="18"/>
<text text-anchor="middle" x="384" y="-148.9" font-family="Lato" font-size="12.00">1</text>
</g>
<!-- 0&#45;&gt;1 -->
<g id="edge3" class="edge">
<title>0&#45;&gt;1</title>
<path fill="none" stroke="black" d="M72.76,-157.22C78.69,-159.7 85.55,-162.27 92,-164 121.93,-172.03 130.09,-171.77 161,-174 233.37,-179.22 318.71,-165.02 359.28,-157.02"/>
<polygon fill="black" stroke="black" points="366.32,-155.61 360.07,-160.08 362.89,-156.3 359.45,-156.99 359.45,-156.99 359.45,-156.99 362.89,-156.3 358.83,-153.9 366.32,-155.61 366.32,-155.61"/>
<text text-anchor="start" x="249" y="-177.4" font-family="Lato" font-size="12.00">c</text>
</g>
<!-- 2 -->
<g id="node4" class="node">
<title>2</title>
<ellipse fill="#ffffa0" stroke="black" cx="191" cy="-116" rx="18" ry="18"/>
<text text-anchor="middle" x="191" y="-112.9" font-family="Lato" font-size="12.00">2</text>
</g>
<!-- 0&#45;&gt;2 -->
<g id="edge4" class="edge">
<title>0&#45;&gt;2</title>
<path fill="none" stroke="black" d="M74.07,-148.45C91.62,-146.56 119.61,-142.77 143,-136 151.35,-133.58 160.19,-130.09 167.93,-126.69"/>
<polygon fill="black" stroke="black" points="174.68,-123.63 169.6,-129.39 171.49,-125.08 168.3,-126.52 168.3,-126.52 168.3,-126.52 171.49,-125.08 167,-123.65 174.68,-123.63 174.68,-123.63"/>
<text text-anchor="start" x="102.5" y="-150.4" font-family="Lato" font-size="12.00">a &amp; !c</text>
</g>
<!-- 3 -->
<g id="node5" class="node">
<title>3</title>
<ellipse fill="#ffffa0" stroke="black" cx="191" cy="-18" rx="18" ry="18"/>
<text text-anchor="middle" x="191" y="-14.9" font-family="Lato" font-size="12.00">3</text>
</g>
<!-- 0&#45;&gt;3 -->
<g id="edge5" class="edge">
<title>0&#45;&gt;3</title>
<path fill="none" stroke="black" d="M63.03,-133.15C68.81,-118.66 78.65,-97.82 92,-83 113.8,-58.81 146.47,-39.53 168.01,-28.43"/>
<polygon fill="black" stroke="black" points="174.32,-25.25 169.48,-31.22 171.19,-26.83 168.07,-28.41 168.07,-28.41 168.07,-28.41 171.19,-26.83 166.65,-25.59 174.32,-25.25 174.32,-25.25"/>
<text text-anchor="start" x="92" y="-86.4" font-family="Lato" font-size="12.00">a &amp; b &amp; !c</text>
</g>
<!-- 1&#45;&gt;1 -->
<g id="edge6" class="edge">
<title>1&#45;&gt;1</title>
<path fill="none" stroke="black" d="M376.97,-168.66C375.41,-178.62 377.75,-188 384,-188 388.69,-188 391.18,-182.73 391.47,-175.89"/>
<polygon fill="black" stroke="black" points="391.03,-168.66 394.6,-175.46 391.24,-172.16 391.46,-175.65 391.46,-175.65 391.46,-175.65 391.24,-172.16 388.31,-175.84 391.03,-168.66 391.03,-168.66"/>
<text text-anchor="start" x="380.5" y="-204.4" font-family="Lato" font-size="12.00">1</text>
<text text-anchor="start" x="377" y="-191.4" font-family="Lato" font-size="12.00" fill="#1f78b4">⓿</text>
</g>
<!-- 2&#45;&gt;0 -->
<g id="edge7" class="edge">
<title>2&#45;&gt;0</title>
<path fill="none" stroke="black" d="M174.18,-109.47C154.03,-102.23 118.65,-93.15 92,-106 82.47,-110.6 74.74,-119.19 68.99,-127.56"/>
<polygon fill="black" stroke="black" points="64.98,-133.86 66.08,-126.26 66.86,-130.91 68.74,-127.96 68.74,-127.96 68.74,-127.96 66.86,-130.91 71.4,-129.65 64.98,-133.86 64.98,-133.86"/>
<text text-anchor="start" x="101" y="-122.4" font-family="Lato" font-size="12.00">!a &amp; !c</text>
<text text-anchor="start" x="110.5" y="-109.4" font-family="Lato" font-size="12.00" fill="#1f78b4">⓿</text>
</g>
<!-- 2&#45;&gt;1 -->
<g id="edge8" class="edge">
<title>2&#45;&gt;1</title>
<path fill="none" stroke="black" d="M208.95,-119.19C242.93,-125.6 319.48,-140.03 358.75,-147.43"/>
<polygon fill="black" stroke="black" points="366.09,-148.81 358.63,-150.61 362.65,-148.16 359.21,-147.52 359.21,-147.52 359.21,-147.52 362.65,-148.16 359.79,-144.42 366.09,-148.81 366.09,-148.81"/>
<text text-anchor="start" x="287" y="-143.4" font-family="Lato" font-size="12.00">!a &amp; c</text>
</g>
<!-- 2&#45;&gt;2 -->
<g id="edge9" class="edge">
<title>2&#45;&gt;2</title>
<path fill="none" stroke="black" d="M180.85,-131.17C177.77,-141.66 181.16,-152 191,-152 198.54,-152 202.29,-145.94 202.25,-138.39"/>
<polygon fill="black" stroke="black" points="201.15,-131.17 205.32,-137.61 201.68,-134.63 202.2,-138.09 202.2,-138.09 202.2,-138.09 201.68,-134.63 199.09,-138.56 201.15,-131.17 201.15,-131.17"/>
<text text-anchor="start" x="176" y="-155.4" font-family="Lato" font-size="12.00">a &amp; !c</text>
</g>
<!-- 4 -->
<g id="node6" class="node">
<title>4</title>
<ellipse fill="#ffffa0" stroke="black" cx="302" cy="-67" rx="18" ry="18"/>
<text text-anchor="middle" x="302" y="-63.9" font-family="Lato" font-size="12.00">4</text>
</g>
<!-- 2&#45;&gt;4 -->
<g id="edge10" class="edge">
<title>2&#45;&gt;4</title>
<path fill="none" stroke="black" d="M207.62,-108.98C226.31,-100.57 257.75,-86.44 278.93,-76.92"/>
<polygon fill="black" stroke="black" points="285.41,-74.01 280.32,-79.75 282.22,-75.44 279.03,-76.88 279.03,-76.88 279.03,-76.88 282.22,-75.44 277.74,-74 285.41,-74.01 285.41,-74.01"/>
<text text-anchor="start" x="239" y="-98.4" font-family="Lato" font-size="12.00">a &amp; c</text>
</g>
<!-- 3&#45;&gt;3 -->
<g id="edge11" class="edge">
<title>3&#45;&gt;3</title>
<path fill="none" stroke="black" d="M180.85,-33.17C177.77,-43.66 181.16,-54 191,-54 198.54,-54 202.29,-47.94 202.25,-40.39"/>
<polygon fill="black" stroke="black" points="201.15,-33.17 205.32,-39.61 201.68,-36.63 202.2,-40.09 202.2,-40.09 202.2,-40.09 201.68,-36.63 199.09,-40.56 201.15,-33.17 201.15,-33.17"/>
<text text-anchor="start" x="187.5" y="-70.4" font-family="Lato" font-size="12.00">b</text>
<text text-anchor="start" x="184" y="-57.4" font-family="Lato" font-size="12.00" fill="#1f78b4">⓿</text>
</g>
<!-- 4&#45;&gt;1 -->
<g id="edge12" class="edge">
<title>4&#45;&gt;1</title>
<path fill="none" stroke="black" d="M315.15,-79.91C328.74,-94.35 350.84,-117.83 366.1,-134.05"/>
<polygon fill="black" stroke="black" points="371,-139.25 363.91,-136.31 368.6,-136.7 366.2,-134.15 366.2,-134.15 366.2,-134.15 368.6,-136.7 368.49,-131.99 371,-139.25 371,-139.25"/>
<text text-anchor="start" x="338" y="-118.4" font-family="Lato" font-size="12.00">!a</text>
</g>
<!-- 4&#45;&gt;4 -->
<g id="edge13" class="edge">
<title>4&#45;&gt;4</title>
<path fill="none" stroke="black" d="M294.97,-83.66C293.41,-93.62 295.75,-103 302,-103 306.69,-103 309.18,-97.73 309.47,-90.89"/>
<polygon fill="black" stroke="black" points="309.03,-83.66 312.6,-90.46 309.24,-87.16 309.46,-90.65 309.46,-90.65 309.46,-90.65 309.24,-87.16 306.31,-90.84 309.03,-83.66 309.03,-83.66"/>
<text text-anchor="start" x="298.5" y="-106.4" font-family="Lato" font-size="12.00">a</text>
</g>
<!-- I_gv1 -->
<!-- 1_gv1 -->
<g id="node8" class="node">
<title>1_gv1</title>
<ellipse fill="#ffffa0" stroke="black" cx="56" cy="-266" rx="18" ry="18"/>
<text text-anchor="middle" x="56" y="-262.9" font-family="Lato" font-size="12.00">1</text>
</g>
<!-- I_gv1&#45;&gt;1_gv1 -->
<g id="edge14" class="edge">
<title>I_gv1&#45;&gt;1_gv1</title>
<path fill="none" stroke="black" d="M1.15,-266C2.79,-266 17.15,-266 30.63,-266"/>
<polygon fill="black" stroke="black" points="37.94,-266 30.94,-269.15 34.44,-266 30.94,-266 30.94,-266 30.94,-266 34.44,-266 30.94,-262.85 37.94,-266 37.94,-266"/>
</g>
<!-- 1_gv1&#45;&gt;1_gv1 -->
<g id="edge15" class="edge">
<title>1_gv1&#45;&gt;1_gv1</title>
<path fill="none" stroke="black" d="M49.62,-283.04C48.32,-292.86 50.45,-302 56,-302 60.17,-302 62.4,-296.86 62.71,-290.14"/>
<polygon fill="black" stroke="black" points="62.38,-283.04 65.85,-289.88 62.54,-286.53 62.71,-290.03 62.71,-290.03 62.71,-290.03 62.54,-286.53 59.56,-290.18 62.38,-283.04 62.38,-283.04"/>
<text text-anchor="start" x="40.5" y="-305.4" font-family="Lato" font-size="12.00">a &amp; !b</text>
</g>
<!-- 0_gv1 -->
<g id="node9" class="node">
<title>0_gv1</title>
<ellipse fill="#ffffa0" stroke="black" cx="191" cy="-266" rx="26" ry="26"/>
<ellipse fill="none" stroke="black" cx="191" cy="-266" rx="30" ry="30"/>
<text text-anchor="middle" x="191" y="-262.9" font-family="Lato" font-size="12.00">0</text>
</g>
<!-- 1_gv1&#45;&gt;0_gv1 -->
<g id="edge16" class="edge">
<title>1_gv1&#45;&gt;0_gv1</title>
<path fill="none" stroke="black" d="M74.12,-266C94.12,-266 127.8,-266 153.7,-266"/>
<polygon fill="black" stroke="black" points="160.79,-266 153.79,-269.15 157.29,-266 153.79,-266 153.79,-266 153.79,-266 157.29,-266 153.79,-262.85 160.79,-266 160.79,-266"/>
<text text-anchor="start" x="114" y="-269.4" font-family="Lato" font-size="12.00">b</text>
</g>
<!-- 0_gv1&#45;&gt;0_gv1 -->
<g id="edge17" class="edge">
<title>0_gv1&#45;&gt;0_gv1</title>
<path fill="none" stroke="black" d="M179.79,-294.1C179.3,-304.97 183.03,-314 191,-314 197.1,-314 200.72,-308.71 201.86,-301.35"/>
<polygon fill="black" stroke="black" points="202.21,-294.1 205.02,-301.25 202.04,-297.6 201.87,-301.09 201.87,-301.09 201.87,-301.09 202.04,-297.6 198.72,-300.94 202.21,-294.1 202.21,-294.1"/>
<text text-anchor="middle" x="191" y="-317.4" font-family="Lato" font-size="12.00">1</text>
</g>
</g>
</svg>
