<?xml version="1.0" encoding="UTF-8" standalone="no"?>
<?xml-stylesheet href="spot.css" type="text/css"?>
<!DOCTYPE svg PUBLIC "-//W3C//DTD SVG 1.1//EN"
 "http://www.w3.org/Graphics/SVG/1.1/DTD/svg11.dtd">
<!-- Generated by graphviz version 2.43.0 (0)
 -->
<!-- Pages: 1 -->
<svg width="399pt" height="349pt"
 viewBox="0.00 0.00 399.07 348.70" xmlns="http://www.w3.org/2000/svg" xmlns:xlink="http://www.w3.org/1999/xlink">
<g id="graph0" class="graph" transform="scale(1 1) rotate(0) translate(4 344.7)">
<polygon fill="white" stroke="transparent" points="-4,4 -4,-344.7 395.07,-344.7 395.07,4 -4,4"/>
<!-- I -->
<!-- 0 -->
<g id="node2" class="node">
<title>0</title>
<g id="a_node2"><a xlink:title="(x = 0, y = 0)&#10;!odd_x &amp; !odd_y">
<ellipse fill="#ffffa0" stroke="black" cx="73" cy="-170.35" rx="18" ry="18"/>
<text text-anchor="middle" x="73" y="-167.25" font-family="Lato" font-size="12.00">0</text>
</a>
</g>
</g>
<!-- I&#45;&gt;0 -->
<g id="edge1" class="edge">
<title>I&#45;&gt;0</title>
<path fill="none" stroke="black" d="M1.31,-170.35C5.9,-170.35 28.98,-170.35 47.73,-170.35"/>
<polygon fill="black" stroke="black" points="54.92,-170.35 47.92,-173.5 51.42,-170.35 47.92,-170.35 47.92,-170.35 47.92,-170.35 51.42,-170.35 47.92,-167.2 54.92,-170.35 54.92,-170.35"/>
</g>
<!-- 1 -->
<g id="node3" class="node">
<title>1</title>
<g id="a_node3"><a xlink:title="(x = 1, y = 0)&#10;odd_x &amp; !odd_y">
<ellipse fill="#ffffa0" stroke="black" cx="373.07" cy="-223.26" rx="18" ry="18"/>
<text text-anchor="middle" x="373.07" y="-220.16" font-family="Lato" font-size="12.00">1</text>
</a>
</g>
</g>
<!-- 0&#45;&gt;1 -->
<g id="edge2" class="edge">
<title>0&#45;&gt;1</title>
<path fill="none" stroke="#e31a1c" stroke-width="2" d="M90.87,-173.5C142.05,-182.52 289.27,-208.48 348.22,-218.88"/>
<polygon fill="#e31a1c" stroke="#e31a1c" stroke-width="2" points="355.29,-220.12 347.85,-222.01 351.76,-220.01 348.31,-219.4 348.4,-218.91 348.48,-218.42 351.93,-219.02 348.94,-215.81 355.29,-220.12 355.29,-220.12"/>
</g>
<!-- 2 -->
<g id="node4" class="node">
<title>2</title>
<g id="a_node4"><a xlink:title="(x = 0, y = 1)&#10;!odd_x &amp; odd_y">
<ellipse fill="#ffffa0" stroke="black" cx="200.84" cy="-322.7" rx="18" ry="18"/>
<text text-anchor="middle" x="200.84" y="-319.6" font-family="Lato" font-size="12.00">2</text>
</a>
</g>
</g>
<!-- 0&#45;&gt;2 -->
<g id="edge3" class="edge">
<title>0&#45;&gt;2</title>
<path fill="none" stroke="black" d="M84.8,-184.41C107.72,-211.73 158.33,-272.04 184.48,-303.21"/>
<polygon fill="black" stroke="black" points="189.07,-308.67 182.15,-305.33 186.82,-305.99 184.57,-303.31 184.57,-303.31 184.57,-303.31 186.82,-305.99 186.98,-301.28 189.07,-308.67 189.07,-308.67"/>
</g>
<!-- 3 -->
<g id="node5" class="node">
<title>3</title>
<g id="a_node5"><a xlink:title="(x = 2, y = 0)&#10;!odd_x &amp; !odd_y">
<ellipse fill="#ffffa0" stroke="black" cx="109.19" cy="-70.91" rx="18" ry="18"/>
<text text-anchor="middle" x="109.19" y="-67.81" font-family="Lato" font-size="12.00">3</text>
</a>
</g>
</g>
<!-- 1&#45;&gt;3 -->
<g id="edge4" class="edge">
<title>1&#45;&gt;3</title>
<path fill="none" stroke="black" d="M357.35,-214.18C312.34,-188.2 182.88,-113.45 131.04,-83.52"/>
<polygon fill="black" stroke="black" points="124.83,-79.94 132.46,-80.71 127.86,-81.69 130.89,-83.44 130.89,-83.44 130.89,-83.44 127.86,-81.69 129.31,-86.16 124.83,-79.94 124.83,-79.94"/>
</g>
<!-- 4 -->
<g id="node6" class="node">
<title>4</title>
<g id="a_node6"><a xlink:title="(x = 1, y = 1)&#10;odd_x &amp; odd_y">
<ellipse fill="#ffffa0" stroke="black" cx="305.05" cy="-304.32" rx="18" ry="18"/>
<text text-anchor="middle" x="305.05" y="-301.22" font-family="Lato" font-size="12.00">4</text>
</a>
</g>
</g>
<!-- 1&#45;&gt;4 -->
<g id="edge5" class="edge">
<title>1&#45;&gt;4</title>
<path fill="none" stroke="#e31a1c" stroke-width="2" d="M361.22,-237.38C350.2,-250.51 333.68,-270.2 321.4,-284.83"/>
<polygon fill="#e31a1c" stroke="#e31a1c" stroke-width="2" points="316.76,-290.36 318.85,-282.98 318.63,-287.36 320.88,-284.68 321.26,-285 321.64,-285.32 319.39,-288 323.67,-287.03 316.76,-290.36 316.76,-290.36"/>
</g>
<!-- 2&#45;&gt;4 -->
<g id="edge6" class="edge">
<title>2&#45;&gt;4</title>
<path fill="none" stroke="black" d="M218.99,-319.5C235.87,-316.52 261.19,-312.06 279.99,-308.74"/>
<polygon fill="black" stroke="black" points="287.1,-307.49 280.76,-311.8 283.66,-308.09 280.21,-308.7 280.21,-308.7 280.21,-308.7 283.66,-308.09 279.66,-305.6 287.1,-307.49 287.1,-307.49"/>
</g>
<!-- 5 -->
<g id="node7" class="node">
<title>5</title>
<g id="a_node7"><a xlink:title="(x = 0, y = 2)&#10;!odd_x &amp; !odd_y">
<ellipse fill="#ffffa0" stroke="black" cx="109.19" cy="-269.79" rx="18" ry="18"/>
<text text-anchor="middle" x="109.19" y="-266.69" font-family="Lato" font-size="12.00">5</text>
</a>
</g>
</g>
<!-- 2&#45;&gt;5 -->
<g id="edge7" class="edge">
<title>2&#45;&gt;5</title>
<path fill="none" stroke="black" d="M184.87,-313.48C170.02,-304.91 147.76,-292.06 131.23,-282.51"/>
<polygon fill="black" stroke="black" points="124.97,-278.9 132.61,-279.67 128,-280.65 131.03,-282.4 131.03,-282.4 131.03,-282.4 128,-280.65 129.46,-285.13 124.97,-278.9 124.97,-278.9"/>
</g>
<!-- 3&#45;&gt;0 -->
<g id="edge8" class="edge">
<title>3&#45;&gt;0</title>
<path fill="none" stroke="black" d="M102.89,-88.23C97.02,-104.34 88.23,-128.5 81.7,-146.44"/>
<polygon fill="black" stroke="black" points="79.23,-153.23 78.67,-145.57 80.43,-149.94 81.63,-146.65 81.63,-146.65 81.63,-146.65 80.43,-149.94 84.59,-147.73 79.23,-153.23 79.23,-153.23"/>
</g>
<!-- 6 -->
<g id="node8" class="node">
<title>6</title>
<g id="a_node8"><a xlink:title="(x = 2, y = 1)&#10;!odd_x &amp; odd_y">
<ellipse fill="#ffffa0" stroke="black" cx="200.84" cy="-18" rx="18" ry="18"/>
<text text-anchor="middle" x="200.84" y="-14.9" font-family="Lato" font-size="12.00">6</text>
</a>
</g>
</g>
<!-- 3&#45;&gt;6 -->
<g id="edge9" class="edge">
<title>3&#45;&gt;6</title>
<path fill="none" stroke="black" d="M125.16,-61.69C140,-53.12 162.26,-40.27 178.8,-30.72"/>
<polygon fill="black" stroke="black" points="185.06,-27.11 180.57,-33.34 182.02,-28.86 178.99,-30.61 178.99,-30.61 178.99,-30.61 182.02,-28.86 177.42,-27.88 185.06,-27.11 185.06,-27.11"/>
</g>
<!-- 4&#45;&gt;6 -->
<g id="edge10" class="edge">
<title>4&#45;&gt;6</title>
<path fill="none" stroke="black" d="M298.84,-287.27C281.07,-238.43 229.94,-97.96 209.46,-41.71"/>
<polygon fill="black" stroke="black" points="207.01,-34.96 212.36,-40.46 208.21,-38.25 209.4,-41.54 209.4,-41.54 209.4,-41.54 208.21,-38.25 206.44,-42.62 207.01,-34.96 207.01,-34.96"/>
</g>
<!-- 7 -->
<g id="node9" class="node">
<title>7</title>
<g id="a_node9"><a xlink:title="(x = 1, y = 2)&#10;odd_x &amp; !odd_y">
<ellipse fill="#ffffa0" stroke="black" cx="373.07" cy="-117.44" rx="18" ry="18"/>
<text text-anchor="middle" x="373.07" y="-114.34" font-family="Lato" font-size="12.00">7</text>
</a>
</g>
</g>
<!-- 4&#45;&gt;7 -->
<g id="edge11" class="edge">
<title>4&#45;&gt;7</title>
<path fill="none" stroke="#e31a1c" stroke-width="2" d="M311.33,-287.07C323.55,-253.47 350.59,-179.2 364.47,-141.06"/>
<polygon fill="#e31a1c" stroke="#e31a1c" stroke-width="2" points="366.9,-134.37 367.47,-142.03 366.18,-137.83 364.98,-141.12 364.51,-140.95 364.04,-140.78 365.24,-137.49 361.55,-139.87 366.9,-134.37 366.9,-134.37"/>
</g>
<!-- 5&#45;&gt;0 -->
<g id="edge13" class="edge">
<title>5&#45;&gt;0</title>
<path fill="none" stroke="black" d="M102.89,-252.47C97.02,-236.35 88.23,-212.2 81.7,-194.26"/>
<polygon fill="black" stroke="black" points="79.23,-187.47 84.59,-192.97 80.43,-190.76 81.63,-194.05 81.63,-194.05 81.63,-194.05 80.43,-190.76 78.67,-195.13 79.23,-187.47 79.23,-187.47"/>
</g>
<!-- 5&#45;&gt;7 -->
<g id="edge12" class="edge">
<title>5&#45;&gt;7</title>
<path fill="none" stroke="#e31a1c" stroke-width="2" d="M124.91,-260.71C169.92,-234.73 299.38,-159.98 351.22,-130.05"/>
<polygon fill="#e31a1c" stroke="#e31a1c" stroke-width="2" points="357.43,-126.46 352.95,-132.69 354.65,-128.65 351.62,-130.4 351.37,-129.96 351.12,-129.53 354.15,-127.78 349.8,-127.24 357.43,-126.46 357.43,-126.46"/>
</g>
<!-- 6&#45;&gt;2 -->
<g id="edge14" class="edge">
<title>6&#45;&gt;2</title>
<path fill="none" stroke="black" d="M200.84,-36.15C200.84,-88.12 200.84,-237.61 200.84,-297.47"/>
<polygon fill="black" stroke="black" points="200.84,-304.64 197.69,-297.64 200.84,-301.14 200.84,-297.64 200.84,-297.64 200.84,-297.64 200.84,-301.14 203.99,-297.64 200.84,-304.64 200.84,-304.64"/>
</g>
<!-- 8 -->
<g id="node10" class="node">
<title>8</title>
<g id="a_node10"><a xlink:title="(x = 2, y = 2)&#10;!odd_x &amp; !odd_y">
<ellipse fill="#ffffa0" stroke="black" cx="305.05" cy="-36.38" rx="18" ry="18"/>
<text text-anchor="middle" x="305.05" y="-33.28" font-family="Lato" font-size="12.00">8</text>
</a>
</g>
</g>
<!-- 6&#45;&gt;8 -->
<g id="edge15" class="edge">
<title>6&#45;&gt;8</title>
<path fill="none" stroke="black" d="M218.99,-21.2C235.87,-24.18 261.19,-28.64 279.99,-31.96"/>
<polygon fill="black" stroke="black" points="287.1,-33.21 279.66,-35.1 283.66,-32.6 280.21,-32 280.21,-32 280.21,-32 283.66,-32.6 280.76,-28.89 287.1,-33.21 287.1,-33.21"/>
</g>
<!-- 7&#45;&gt;1 -->
<g id="edge17" class="edge">
<title>7&#45;&gt;1</title>
<path fill="none" stroke="black" d="M373.07,-135.87C373.07,-153.02 373.07,-178.72 373.07,-197.82"/>
<polygon fill="black" stroke="black" points="373.07,-205.04 369.92,-198.04 373.07,-201.54 373.07,-198.04 373.07,-198.04 373.07,-198.04 373.07,-201.54 376.22,-198.04 373.07,-205.04 373.07,-205.04"/>
</g>
<!-- 7&#45;&gt;8 -->
<g id="edge16" class="edge">
<title>7&#45;&gt;8</title>
<path fill="none" stroke="#e31a1c" stroke-width="2" d="M361.22,-103.32C350.2,-90.18 333.68,-70.49 321.4,-55.86"/>
<polygon fill="#e31a1c" stroke="#e31a1c" stroke-width="2" points="316.76,-50.33 323.67,-53.67 319.39,-52.69 321.64,-55.37 321.26,-55.7 320.88,-56.02 318.63,-53.34 318.85,-57.72 316.76,-50.33 316.76,-50.33"/>
</g>
<!-- 8&#45;&gt;3 -->
<g id="edge19" class="edge">
<title>8&#45;&gt;3</title>
<path fill="none" stroke="black" d="M286.97,-39.56C251.76,-45.77 173.92,-59.5 133.95,-66.55"/>
<polygon fill="black" stroke="black" points="126.94,-67.78 133.29,-63.46 130.39,-67.17 133.83,-66.56 133.83,-66.56 133.83,-66.56 130.39,-67.17 134.38,-69.67 126.94,-67.78 126.94,-67.78"/>
</g>
<!-- 8&#45;&gt;5 -->
<g id="edge18" class="edge">
<title>8&#45;&gt;5</title>
<path fill="none" stroke="#e31a1c" stroke-width="2" d="M293.38,-50.28C259.98,-90.09 163.89,-204.61 125.41,-250.46"/>
<polygon fill="#e31a1c" stroke="#e31a1c" stroke-width="2" points="120.8,-255.96 122.88,-248.57 122.66,-252.96 124.91,-250.27 125.3,-250.6 125.68,-250.92 123.43,-253.6 127.71,-252.62 120.8,-255.96 120.8,-255.96"/>
</g>
</g>
</svg>
