<?xml version="1.0" encoding="UTF-8" standalone="no"?>
<?xml-stylesheet href="spot.css" type="text/css"?>
<!DOCTYPE svg PUBLIC "-//W3C//DTD SVG 1.1//EN"
 "http://www.w3.org/Graphics/SVG/1.1/DTD/svg11.dtd">
<!-- Generated by graphviz version 2.43.0 (0)
 -->
<!-- Pages: 1 -->
<svg width="625pt" height="563pt"
 viewBox="0.00 0.00 624.89 563.26" xmlns="http://www.w3.org/2000/svg" xmlns:xlink="http://www.w3.org/1999/xlink">
<g id="graph0" class="graph" transform="scale(1 1) rotate(0) translate(4 559.26)">
<polygon fill="white" stroke="transparent" points="-4,4 -4,-559.26 620.89,-559.26 620.89,4 -4,4"/>
<text text-anchor="start" x="305.94" y="-541.66" font-family="Lato" font-size="12.00">t</text>
<text text-anchor="start" x="298.94" y="-528.66" font-family="Lato" font-size="12.00">[all]</text>
<!-- I -->
<!-- 0 -->
<g id="node2" class="node">
<title>0</title>
<path fill="#ffffa0" stroke="black" d="M128.5,-278.63C128.5,-278.63 52.5,-278.63 52.5,-278.63 46.5,-278.63 40.5,-272.63 40.5,-266.63 40.5,-266.63 40.5,-254.63 40.5,-254.63 40.5,-248.63 46.5,-242.63 52.5,-242.63 52.5,-242.63 128.5,-242.63 128.5,-242.63 134.5,-242.63 140.5,-248.63 140.5,-254.63 140.5,-254.63 140.5,-266.63 140.5,-266.63 140.5,-272.63 134.5,-278.63 128.5,-278.63"/>
<text text-anchor="start" x="58.5" y="-264.03" font-family="Lato" font-size="12.00">(x = 0, y = 0)</text>
<text text-anchor="start" x="48.5" y="-251.03" font-family="Lato" font-size="12.00">!odd_x &amp; !odd_y</text>
</g>
<!-- I&#45;&gt;0 -->
<g id="edge1" class="edge">
<title>I&#45;&gt;0</title>
<path fill="none" stroke="black" d="M1.07,-260.63C3.96,-260.63 17.31,-260.63 32.86,-260.63"/>
<polygon fill="black" stroke="black" points="40.13,-260.63 33.13,-263.78 36.63,-260.63 33.13,-260.63 33.13,-260.63 33.13,-260.63 36.63,-260.63 33.13,-257.48 40.13,-260.63 40.13,-260.63"/>
</g>
<!-- 1 -->
<g id="node3" class="node">
<title>1</title>
<path fill="#ffffa0" stroke="black" d="M604.89,-362.89C604.89,-362.89 531.89,-362.89 531.89,-362.89 525.89,-362.89 519.89,-356.89 519.89,-350.89 519.89,-350.89 519.89,-338.89 519.89,-338.89 519.89,-332.89 525.89,-326.89 531.89,-326.89 531.89,-326.89 604.89,-326.89 604.89,-326.89 610.89,-326.89 616.89,-332.89 616.89,-338.89 616.89,-338.89 616.89,-350.89 616.89,-350.89 616.89,-356.89 610.89,-362.89 604.89,-362.89"/>
<text text-anchor="start" x="536.39" y="-348.29" font-family="Lato" font-size="12.00">(x = 1, y = 0)</text>
<text text-anchor="start" x="527.89" y="-335.29" font-family="Lato" font-size="12.00">odd_x &amp; !odd_y</text>
</g>
<!-- 0&#45;&gt;1 -->
<g id="edge2" class="edge">
<title>0&#45;&gt;1</title>
<path fill="none" stroke="black" d="M140.74,-269.49C230.66,-285.34 418.46,-318.46 512.39,-335.02"/>
<polygon fill="black" stroke="black" points="519.53,-336.28 512.09,-338.17 516.09,-335.67 512.64,-335.06 512.64,-335.06 512.64,-335.06 516.09,-335.67 513.19,-331.96 519.53,-336.28 519.53,-336.28"/>
</g>
<!-- 2 -->
<g id="node4" class="node">
<title>2</title>
<path fill="#ffffa0" stroke="black" d="M330.59,-521.26C330.59,-521.26 257.59,-521.26 257.59,-521.26 251.59,-521.26 245.59,-515.26 245.59,-509.26 245.59,-509.26 245.59,-497.26 245.59,-497.26 245.59,-491.26 251.59,-485.26 257.59,-485.26 257.59,-485.26 330.59,-485.26 330.59,-485.26 336.59,-485.26 342.59,-491.26 342.59,-497.26 342.59,-497.26 342.59,-509.26 342.59,-509.26 342.59,-515.26 336.59,-521.26 330.59,-521.26"/>
<text text-anchor="start" x="262.09" y="-506.66" font-family="Lato" font-size="12.00">(x = 0, y = 1)</text>
<text text-anchor="start" x="253.59" y="-493.66" font-family="Lato" font-size="12.00">!odd_x &amp; odd_y</text>
</g>
<!-- 0&#45;&gt;2 -->
<g id="edge3" class="edge">
<title>0&#45;&gt;2</title>
<path fill="none" stroke="black" d="M105.8,-278.87C142.15,-322.18 233.64,-431.22 274.2,-479.56"/>
<polygon fill="black" stroke="black" points="278.89,-485.14 271.98,-481.8 276.64,-482.46 274.39,-479.78 274.39,-479.78 274.39,-479.78 276.64,-482.46 276.8,-477.75 278.89,-485.14 278.89,-485.14"/>
</g>
<!-- 3 -->
<g id="node5" class="node">
<title>3</title>
<path fill="#ffffa0" stroke="black" d="M186.14,-120.26C186.14,-120.26 110.14,-120.26 110.14,-120.26 104.14,-120.26 98.14,-114.26 98.14,-108.26 98.14,-108.26 98.14,-96.26 98.14,-96.26 98.14,-90.26 104.14,-84.26 110.14,-84.26 110.14,-84.26 186.14,-84.26 186.14,-84.26 192.14,-84.26 198.14,-90.26 198.14,-96.26 198.14,-96.26 198.14,-108.26 198.14,-108.26 198.14,-114.26 192.14,-120.26 186.14,-120.26"/>
<text text-anchor="start" x="116.14" y="-105.66" font-family="Lato" font-size="12.00">(x = 2, y = 0)</text>
<text text-anchor="start" x="106.14" y="-92.66" font-family="Lato" font-size="12.00">!odd_x &amp; !odd_y</text>
</g>
<!-- 1&#45;&gt;3 -->
<g id="edge4" class="edge">
<title>1&#45;&gt;3</title>
<path fill="none" stroke="black" d="M537.14,-326.85C461.32,-283.08 267.77,-171.33 185.77,-123.99"/>
<polygon fill="black" stroke="black" points="179.59,-120.42 187.23,-121.19 182.62,-122.17 185.65,-123.92 185.65,-123.92 185.65,-123.92 182.62,-122.17 184.08,-126.65 179.59,-120.42 179.59,-120.42"/>
</g>
<!-- 4 -->
<g id="node6" class="node">
<title>4</title>
<path fill="#ffffa0" stroke="black" d="M495.06,-491.99C495.06,-491.99 425.06,-491.99 425.06,-491.99 419.06,-491.99 413.06,-485.99 413.06,-479.99 413.06,-479.99 413.06,-467.99 413.06,-467.99 413.06,-461.99 419.06,-455.99 425.06,-455.99 425.06,-455.99 495.06,-455.99 495.06,-455.99 501.06,-455.99 507.06,-461.99 507.06,-467.99 507.06,-467.99 507.06,-479.99 507.06,-479.99 507.06,-485.99 501.06,-491.99 495.06,-491.99"/>
<text text-anchor="start" x="428.06" y="-477.39" font-family="Lato" font-size="12.00">(x = 1, y = 1)</text>
<text text-anchor="start" x="421.06" y="-464.39" font-family="Lato" font-size="12.00">odd_x &amp; odd_y</text>
</g>
<!-- 1&#45;&gt;4 -->
<g id="edge5" class="edge">
<title>1&#45;&gt;4</title>
<path fill="none" stroke="black" d="M553.09,-363.12C533.9,-385.99 500.94,-425.27 479.84,-450.41"/>
<polygon fill="black" stroke="black" points="475.27,-455.86 477.36,-448.48 477.52,-453.18 479.77,-450.5 479.77,-450.5 479.77,-450.5 477.52,-453.18 482.18,-452.53 475.27,-455.86 475.27,-455.86"/>
</g>
<!-- 2&#45;&gt;4 -->
<g id="edge6" class="edge">
<title>2&#45;&gt;4</title>
<path fill="none" stroke="black" d="M342.99,-494.64C362.75,-491.15 385.62,-487.12 405.89,-483.55"/>
<polygon fill="black" stroke="black" points="412.94,-482.3 406.59,-486.62 409.49,-482.91 406.04,-483.52 406.04,-483.52 406.04,-483.52 409.49,-482.91 405.49,-480.42 412.94,-482.3 412.94,-482.3"/>
</g>
<!-- 5 -->
<g id="node7" class="node">
<title>5</title>
<path fill="#ffffa0" stroke="black" d="M186.14,-436.99C186.14,-436.99 110.14,-436.99 110.14,-436.99 104.14,-436.99 98.14,-430.99 98.14,-424.99 98.14,-424.99 98.14,-412.99 98.14,-412.99 98.14,-406.99 104.14,-400.99 110.14,-400.99 110.14,-400.99 186.14,-400.99 186.14,-400.99 192.14,-400.99 198.14,-406.99 198.14,-412.99 198.14,-412.99 198.14,-424.99 198.14,-424.99 198.14,-430.99 192.14,-436.99 186.14,-436.99"/>
<text text-anchor="start" x="116.14" y="-422.39" font-family="Lato" font-size="12.00">(x = 0, y = 2)</text>
<text text-anchor="start" x="106.14" y="-409.39" font-family="Lato" font-size="12.00">!odd_x &amp; !odd_y</text>
</g>
<!-- 2&#45;&gt;5 -->
<g id="edge7" class="edge">
<title>2&#45;&gt;5</title>
<path fill="none" stroke="black" d="M262.78,-485.18C240.17,-472.13 209.55,-454.45 185.64,-440.64"/>
<polygon fill="black" stroke="black" points="179.4,-437.04 187.04,-437.81 182.43,-438.79 185.46,-440.54 185.46,-440.54 185.46,-440.54 182.43,-438.79 183.89,-443.27 179.4,-437.04 179.4,-437.04"/>
</g>
<!-- 3&#45;&gt;0 -->
<g id="edge8" class="edge">
<title>3&#45;&gt;0</title>
<path fill="none" stroke="black" d="M141.53,-120.43C131.25,-148.68 111.4,-203.22 99.71,-235.31"/>
<polygon fill="black" stroke="black" points="97.21,-242.19 96.65,-234.53 98.41,-238.9 99.61,-235.61 99.61,-235.61 99.61,-235.61 98.41,-238.9 102.57,-236.69 97.21,-242.19 97.21,-242.19"/>
</g>
<!-- 6 -->
<g id="node8" class="node">
<title>6</title>
<path fill="#ffffa0" stroke="black" d="M330.59,-36C330.59,-36 257.59,-36 257.59,-36 251.59,-36 245.59,-30 245.59,-24 245.59,-24 245.59,-12 245.59,-12 245.59,-6 251.59,0 257.59,0 257.59,0 330.59,0 330.59,0 336.59,0 342.59,-6 342.59,-12 342.59,-12 342.59,-24 342.59,-24 342.59,-30 336.59,-36 330.59,-36"/>
<text text-anchor="start" x="262.09" y="-21.4" font-family="Lato" font-size="12.00">(x = 2, y = 1)</text>
<text text-anchor="start" x="253.59" y="-8.4" font-family="Lato" font-size="12.00">!odd_x &amp; odd_y</text>
</g>
<!-- 3&#45;&gt;6 -->
<g id="edge9" class="edge">
<title>3&#45;&gt;6</title>
<path fill="none" stroke="black" d="M179.45,-84.19C202.06,-71.14 232.68,-53.45 256.59,-39.65"/>
<polygon fill="black" stroke="black" points="262.83,-36.05 258.34,-42.27 259.8,-37.8 256.77,-39.55 256.77,-39.55 256.77,-39.55 259.8,-37.8 255.19,-36.82 262.83,-36.05 262.83,-36.05"/>
</g>
<!-- 4&#45;&gt;6 -->
<g id="edge10" class="edge">
<title>4&#45;&gt;6</title>
<path fill="none" stroke="black" d="M453.45,-455.84C427.58,-384.77 333.16,-125.35 303.25,-43.16"/>
<polygon fill="black" stroke="black" points="300.72,-36.21 306.07,-41.71 301.91,-39.5 303.11,-42.79 303.11,-42.79 303.11,-42.79 301.91,-39.5 300.15,-43.86 300.72,-36.21 300.72,-36.21"/>
</g>
<!-- 7 -->
<g id="node9" class="node">
<title>7</title>
<path fill="#ffffa0" stroke="black" d="M604.89,-194.36C604.89,-194.36 531.89,-194.36 531.89,-194.36 525.89,-194.36 519.89,-188.36 519.89,-182.36 519.89,-182.36 519.89,-170.36 519.89,-170.36 519.89,-164.36 525.89,-158.36 531.89,-158.36 531.89,-158.36 604.89,-158.36 604.89,-158.36 610.89,-158.36 616.89,-164.36 616.89,-170.36 616.89,-170.36 616.89,-182.36 616.89,-182.36 616.89,-188.36 610.89,-194.36 604.89,-194.36"/>
<text text-anchor="start" x="536.39" y="-179.76" font-family="Lato" font-size="12.00">(x = 1, y = 2)</text>
<text text-anchor="start" x="527.89" y="-166.76" font-family="Lato" font-size="12.00">odd_x &amp; !odd_y</text>
</g>
<!-- 4&#45;&gt;7 -->
<g id="edge11" class="edge">
<title>4&#45;&gt;7</title>
<path fill="none" stroke="black" d="M466.67,-455.82C485.26,-404.76 537.97,-259.92 559.28,-201.37"/>
<polygon fill="black" stroke="black" points="561.72,-194.68 562.29,-202.33 560.52,-197.96 559.33,-201.25 559.33,-201.25 559.33,-201.25 560.52,-197.96 556.37,-200.18 561.72,-194.68 561.72,-194.68"/>
</g>
<!-- 5&#45;&gt;0 -->
<g id="edge13" class="edge">
<title>5&#45;&gt;0</title>
<path fill="none" stroke="black" d="M141.53,-400.83C131.25,-372.58 111.4,-318.04 99.71,-285.95"/>
<polygon fill="black" stroke="black" points="97.21,-279.07 102.57,-284.57 98.41,-282.36 99.61,-285.65 99.61,-285.65 99.61,-285.65 98.41,-282.36 96.65,-286.73 97.21,-279.07 97.21,-279.07"/>
</g>
<!-- 5&#45;&gt;7 -->
<g id="edge12" class="edge">
<title>5&#45;&gt;7</title>
<path fill="none" stroke="black" d="M179.38,-400.96C255.21,-357.18 448.75,-245.43 530.76,-198.09"/>
<polygon fill="black" stroke="black" points="536.94,-194.52 532.45,-200.75 533.91,-196.27 530.87,-198.02 530.87,-198.02 530.87,-198.02 533.91,-196.27 529.3,-195.29 536.94,-194.52 536.94,-194.52"/>
</g>
<!-- 6&#45;&gt;2 -->
<g id="edge14" class="edge">
<title>6&#45;&gt;2</title>
<path fill="none" stroke="black" d="M294.09,-36.14C294.09,-110.45 294.09,-391.8 294.09,-478"/>
<polygon fill="black" stroke="black" points="294.09,-485.03 290.94,-478.03 294.09,-481.53 294.09,-478.03 294.09,-478.03 294.09,-478.03 294.09,-481.53 297.24,-478.03 294.09,-485.03 294.09,-485.03"/>
</g>
<!-- 8 -->
<g id="node10" class="node">
<title>8</title>
<path fill="#ffffa0" stroke="black" d="M498.06,-65.26C498.06,-65.26 422.06,-65.26 422.06,-65.26 416.06,-65.26 410.06,-59.26 410.06,-53.26 410.06,-53.26 410.06,-41.26 410.06,-41.26 410.06,-35.26 416.06,-29.26 422.06,-29.26 422.06,-29.26 498.06,-29.26 498.06,-29.26 504.06,-29.26 510.06,-35.26 510.06,-41.26 510.06,-41.26 510.06,-53.26 510.06,-53.26 510.06,-59.26 504.06,-65.26 498.06,-65.26"/>
<text text-anchor="start" x="428.06" y="-50.66" font-family="Lato" font-size="12.00">(x = 2, y = 2)</text>
<text text-anchor="start" x="418.06" y="-37.66" font-family="Lato" font-size="12.00">!odd_x &amp; !odd_y</text>
</g>
<!-- 6&#45;&gt;8 -->
<g id="edge15" class="edge">
<title>6&#45;&gt;8</title>
<path fill="none" stroke="black" d="M342.99,-26.62C361.72,-29.93 383.26,-33.72 402.72,-37.15"/>
<polygon fill="black" stroke="black" points="409.78,-38.4 402.34,-40.29 406.34,-37.79 402.89,-37.18 402.89,-37.18 402.89,-37.18 406.34,-37.79 403.44,-34.08 409.78,-38.4 409.78,-38.4"/>
</g>
<!-- 7&#45;&gt;1 -->
<g id="edge17" class="edge">
<title>7&#45;&gt;1</title>
<path fill="none" stroke="black" d="M568.39,-194.4C568.39,-224.48 568.39,-284.97 568.39,-319.39"/>
<polygon fill="black" stroke="black" points="568.39,-326.73 565.24,-319.73 568.39,-323.23 568.39,-319.73 568.39,-319.73 568.39,-319.73 568.39,-323.23 571.54,-319.73 568.39,-326.73 568.39,-326.73"/>
</g>
<!-- 7&#45;&gt;8 -->
<g id="edge16" class="edge">
<title>7&#45;&gt;8</title>
<path fill="none" stroke="black" d="M553.09,-158.14C533.9,-135.27 500.94,-95.99 479.84,-70.84"/>
<polygon fill="black" stroke="black" points="475.27,-65.4 482.18,-68.73 477.52,-68.08 479.77,-70.76 479.77,-70.76 479.77,-70.76 477.52,-68.08 477.36,-72.78 475.27,-65.4 475.27,-65.4"/>
</g>
<!-- 8&#45;&gt;3 -->
<g id="edge19" class="edge">
<title>8&#45;&gt;3</title>
<path fill="none" stroke="black" d="M409.94,-56.1C354.09,-65.95 263.95,-81.84 205.37,-92.17"/>
<polygon fill="black" stroke="black" points="198.39,-93.4 204.74,-89.09 201.84,-92.8 205.28,-92.19 205.28,-92.19 205.28,-92.19 201.84,-92.8 205.83,-95.29 198.39,-93.4 198.39,-93.4"/>
</g>
<!-- 8&#45;&gt;5 -->
<g id="edge18" class="edge">
<title>8&#45;&gt;5</title>
<path fill="none" stroke="black" d="M444.8,-65.45C393.29,-126.84 225.79,-326.45 167.98,-395.35"/>
<polygon fill="black" stroke="black" points="163.37,-400.85 165.45,-393.46 165.62,-398.17 167.87,-395.49 167.87,-395.49 167.87,-395.49 165.62,-398.17 170.28,-397.51 163.37,-400.85 163.37,-400.85"/>
</g>
</g>
</svg>
