<?xml version="1.0" encoding="UTF-8" standalone="no"?>
<?xml-stylesheet href="spot.css" type="text/css"?>
<!DOCTYPE svg PUBLIC "-//W3C//DTD SVG 1.1//EN"
 "http://www.w3.org/Graphics/SVG/1.1/DTD/svg11.dtd">
<!-- Generated by graphviz version 2.43.0 (0)
 -->
<!-- Pages: 1 -->
<svg width="554pt" height="232pt"
 viewBox="0.00 0.00 554.00 232.00" xmlns="http://www.w3.org/2000/svg" xmlns:xlink="http://www.w3.org/1999/xlink">
<g id="graph0" class="graph" transform="scale(1 1) rotate(0) translate(4 228)">
<polygon fill="white" stroke="transparent" points="-4,4 -4,-228 550,-228 550,4 -4,4"/>
<text text-anchor="start" x="246" y="-210.4" font-family="Lato" font-size="12.00">[co&#45;Büchi]</text>
<!-- I -->
<!-- 0 -->
<g id="node2" class="node">
<title>0</title>
<ellipse fill="#ffffa0" stroke="black" cx="60" cy="-103" rx="18" ry="18"/>
<ellipse fill="none" stroke="black" cx="60" cy="-103" rx="22" ry="22"/>
<text text-anchor="middle" x="60" y="-99.9" font-family="Lato" font-size="12.00">0</text>
</g>
<!-- I&#45;&gt;0 -->
<g id="edge1" class="edge">
<title>I&#45;&gt;0</title>
<path fill="none" stroke="black" d="M1.17,-103C2.84,-103 16.88,-103 30.71,-103"/>
<polygon fill="black" stroke="black" points="37.86,-103 30.86,-106.15 34.36,-103 30.86,-103 30.86,-103 30.86,-103 34.36,-103 30.86,-99.85 37.86,-103 37.86,-103"/>
</g>
<!-- 1 -->
<g id="node3" class="node">
<title>1</title>
<ellipse fill="#ffffa0" stroke="black" cx="170" cy="-18" rx="18" ry="18"/>
<text text-anchor="middle" x="170" y="-14.9" font-family="Lato" font-size="12.00">1</text>
</g>
<!-- 0&#45;&gt;1 -->
<g id="edge2" class="edge">
<title>0&#45;&gt;1</title>
<path fill="none" stroke="black" d="M77.88,-89.72C97.31,-74.42 129.19,-49.33 149.63,-33.25"/>
<polygon fill="black" stroke="black" points="155.32,-28.77 151.77,-35.57 152.57,-30.93 149.82,-33.09 149.82,-33.09 149.82,-33.09 152.57,-30.93 147.87,-30.62 155.32,-28.77 155.32,-28.77"/>
<text text-anchor="middle" x="117" y="-73.4" font-family="Lato" font-size="12.00">1</text>
</g>
<!-- 2 -->
<g id="node4" class="node">
<title>2</title>
<ellipse fill="#ffffa0" stroke="black" cx="322" cy="-67" rx="18" ry="18"/>
<text text-anchor="middle" x="322" y="-63.9" font-family="Lato" font-size="12.00">2</text>
</g>
<!-- 0&#45;&gt;2 -->
<g id="edge3" class="edge">
<title>0&#45;&gt;2</title>
<path fill="none" stroke="black" d="M82.19,-103.48C122.57,-103.89 213.02,-102.31 286,-83 290.41,-81.83 294.95,-80.15 299.25,-78.31"/>
<polygon fill="black" stroke="black" points="305.74,-75.34 300.68,-81.12 302.56,-76.8 299.37,-78.26 299.37,-78.26 299.37,-78.26 302.56,-76.8 298.06,-75.39 305.74,-75.34 305.74,-75.34"/>
<text text-anchor="middle" x="170" y="-104.4" font-family="Lato" font-size="12.00">1</text>
</g>
<!-- 3 -->
<g id="node5" class="node">
<title>3</title>
<ellipse fill="#ffffa0" stroke="black" cx="425" cy="-101" rx="18" ry="18"/>
<text text-anchor="middle" x="425" y="-97.9" font-family="Lato" font-size="12.00">3</text>
</g>
<!-- 0&#45;&gt;3 -->
<g id="edge4" class="edge">
<title>0&#45;&gt;3</title>
<path fill="none" stroke="black" d="M80.51,-111.32C86.64,-113.57 93.5,-115.74 100,-117 204.77,-137.36 234.31,-139.8 340,-125 361.16,-122.04 384.47,-115.07 401.15,-109.4"/>
<polygon fill="black" stroke="black" points="407.87,-107.06 402.29,-112.34 404.57,-108.21 401.26,-109.36 401.26,-109.36 401.26,-109.36 404.57,-108.21 400.23,-106.38 407.87,-107.06 407.87,-107.06"/>
<text text-anchor="middle" x="246" y="-137.4" font-family="Lato" font-size="12.00">1</text>
</g>
<!-- 4 -->
<g id="node6" class="node">
<title>4</title>
<ellipse fill="#ffffa0" stroke="black" cx="528" cy="-101" rx="18" ry="18"/>
<text text-anchor="middle" x="528" y="-97.9" font-family="Lato" font-size="12.00">4</text>
</g>
<!-- 0&#45;&gt;4 -->
<g id="edge5" class="edge">
<title>0&#45;&gt;4</title>
<path fill="none" stroke="black" d="M72.45,-121.45C89.87,-146.99 125.66,-190 169,-190 169,-190 169,-190 426,-190 466.68,-190 498.73,-148.86 515.08,-122.52"/>
<polygon fill="black" stroke="black" points="518.71,-116.5 517.79,-124.12 516.9,-119.5 515.1,-122.5 515.1,-122.5 515.1,-122.5 516.9,-119.5 512.4,-120.87 518.71,-116.5 518.71,-116.5"/>
<text text-anchor="middle" x="322" y="-193.4" font-family="Lato" font-size="12.00">1</text>
</g>
<!-- 1&#45;&gt;0 -->
<g id="edge6" class="edge">
<title>1&#45;&gt;0</title>
<path fill="none" stroke="black" d="M151.8,-16.97C136.78,-16.94 115.07,-19.1 100,-30 84.96,-40.88 75.16,-59.37 69.15,-75.02"/>
<polygon fill="black" stroke="black" points="66.65,-81.98 66.06,-74.32 67.84,-78.68 69.02,-75.39 69.02,-75.39 69.02,-75.39 67.84,-78.68 71.99,-76.46 66.65,-81.98 66.65,-81.98"/>
<text text-anchor="start" x="100" y="-33.4" font-family="Lato" font-size="12.00">!a &amp; !b</text>
</g>
<!-- 1&#45;&gt;1 -->
<g id="edge7" class="edge">
<title>1&#45;&gt;1</title>
<path fill="none" stroke="black" d="M161.02,-33.92C158.68,-44.15 161.67,-54 170,-54 176.38,-54 179.63,-48.23 179.75,-40.93"/>
<polygon fill="black" stroke="black" points="178.98,-33.92 182.87,-40.53 179.36,-37.4 179.74,-40.87 179.74,-40.87 179.74,-40.87 179.36,-37.4 176.61,-41.22 178.98,-33.92 178.98,-33.92"/>
<text text-anchor="start" x="156" y="-57.4" font-family="Lato" font-size="12.00">a &amp; b</text>
</g>
<!-- 1&#45;&gt;2 -->
<g id="edge8" class="edge">
<title>1&#45;&gt;2</title>
<path fill="none" stroke="black" d="M182.37,-31.12C188.67,-37.54 197.04,-44.78 206,-49 235.16,-62.73 272.63,-66.34 296.73,-67.11"/>
<polygon fill="black" stroke="black" points="303.75,-67.26 296.69,-70.26 300.26,-67.19 296.76,-67.11 296.76,-67.11 296.76,-67.11 300.26,-67.19 296.83,-63.96 303.75,-67.26 303.75,-67.26"/>
<text text-anchor="start" x="206" y="-69.4" font-family="Lato" font-size="12.00">(!a &amp; b) | (a &amp; !b)</text>
</g>
<!-- 2&#45;&gt;1 -->
<g id="edge9" class="edge">
<title>2&#45;&gt;1</title>
<path fill="none" stroke="black" d="M310.62,-52.76C304.36,-45.29 295.73,-36.74 286,-32 257.16,-17.95 219.62,-15.97 195.41,-16.48"/>
<polygon fill="black" stroke="black" points="188.35,-16.71 195.24,-13.33 191.85,-16.59 195.35,-16.48 195.35,-16.48 195.35,-16.48 191.85,-16.59 195.45,-19.63 188.35,-16.71 188.35,-16.71"/>
<text text-anchor="start" x="230.5" y="-35.4" font-family="Lato" font-size="12.00">!a &amp; b</text>
</g>
<!-- 2&#45;&gt;2 -->
<g id="edge10" class="edge">
<title>2&#45;&gt;2</title>
<path fill="none" stroke="black" d="M313.37,-82.92C311.11,-93.15 313.99,-103 322,-103 328.13,-103 331.25,-97.23 331.37,-89.93"/>
<polygon fill="black" stroke="black" points="330.63,-82.92 334.5,-89.55 331,-86.4 331.37,-89.88 331.37,-89.88 331.37,-89.88 331,-86.4 328.23,-90.21 330.63,-82.92 330.63,-82.92"/>
<text text-anchor="start" x="282" y="-106.4" font-family="Lato" font-size="12.00">(!a &amp; !b) | (a &amp; b)</text>
</g>
<!-- 2&#45;&gt;3 -->
<g id="edge11" class="edge">
<title>2&#45;&gt;3</title>
<path fill="none" stroke="black" d="M339.23,-72.46C355.87,-78.06 381.9,-86.83 400.73,-93.17"/>
<polygon fill="black" stroke="black" points="407.81,-95.55 400.17,-96.3 404.5,-94.43 401.18,-93.32 401.18,-93.32 401.18,-93.32 404.5,-94.43 402.18,-90.33 407.81,-95.55 407.81,-95.55"/>
<text text-anchor="start" x="358" y="-92.4" font-family="Lato" font-size="12.00">a &amp; !b</text>
</g>
<!-- 3&#45;&gt;3 -->
<g id="edge12" class="edge">
<title>3&#45;&gt;3</title>
<path fill="none" stroke="black" d="M416.37,-116.92C414.11,-127.15 416.99,-137 425,-137 431.13,-137 434.25,-131.23 434.37,-123.93"/>
<polygon fill="black" stroke="black" points="433.63,-116.92 437.5,-123.55 434,-120.4 434.37,-123.88 434.37,-123.88 434.37,-123.88 434,-120.4 431.23,-124.21 433.63,-116.92 433.63,-116.92"/>
<text text-anchor="start" x="412.5" y="-140.4" font-family="Lato" font-size="12.00">!a | b</text>
</g>
<!-- 3&#45;&gt;4 -->
<g id="edge13" class="edge">
<title>3&#45;&gt;4</title>
<path fill="none" stroke="black" d="M443.13,-101C459.38,-101 483.98,-101 502.34,-101"/>
<polygon fill="black" stroke="black" points="509.78,-101 502.78,-104.15 506.28,-101 502.78,-101 502.78,-101 502.78,-101 506.28,-101 502.78,-97.85 509.78,-101 509.78,-101"/>
<text text-anchor="start" x="461" y="-104.4" font-family="Lato" font-size="12.00">a &amp; !b</text>
</g>
<!-- 4&#45;&gt;1 -->
<g id="edge14" class="edge">
<title>4&#45;&gt;1</title>
<path fill="none" stroke="black" d="M511.43,-93.4C473.81,-75.52 374.55,-31.16 286,-16 254.92,-10.68 218.43,-12.68 195.02,-15"/>
<polygon fill="black" stroke="black" points="187.91,-15.76 194.54,-11.88 191.39,-15.39 194.87,-15.02 194.87,-15.02 194.87,-15.02 191.39,-15.39 195.2,-18.15 187.91,-15.76 187.91,-15.76"/>
<text text-anchor="start" x="358" y="-45.4" font-family="Lato" font-size="12.00">a &amp; !b</text>
</g>
<!-- 4&#45;&gt;4 -->
<g id="edge15" class="edge">
<title>4&#45;&gt;4</title>
<path fill="none" stroke="black" d="M519.37,-116.92C517.11,-127.15 519.99,-137 528,-137 534.13,-137 537.25,-131.23 537.37,-123.93"/>
<polygon fill="black" stroke="black" points="536.63,-116.92 540.5,-123.55 537,-120.4 537.37,-123.88 537.37,-123.88 537.37,-123.88 537,-120.4 534.23,-124.21 536.63,-116.92 536.63,-116.92"/>
<text text-anchor="start" x="515.5" y="-140.4" font-family="Lato" font-size="12.00">!a | b</text>
</g>
</g>
</svg>
