<?xml version="1.0" encoding="UTF-8" standalone="no"?>
<?xml-stylesheet href="spot.css" type="text/css"?>
<!DOCTYPE svg PUBLIC "-//W3C//DTD SVG 1.1//EN"
 "http://www.w3.org/Graphics/SVG/1.1/DTD/svg11.dtd">
<!-- Generated by graphviz version 2.43.0 (0)
 -->
<!-- Title: G(Fa &amp; Fb) Pages: 1 -->
<svg width="185pt" height="172pt"
 viewBox="0.00 0.00 185.00 171.96" xmlns="http://www.w3.org/2000/svg" xmlns:xlink="http://www.w3.org/1999/xlink">
<g id="graph0" class="graph" transform="scale(1 1) rotate(0) translate(4 167.96)">
<title>G(Fa &amp; Fb)</title>
<polygon fill="white" stroke="transparent" points="-4,4 -4,-167.96 181,-167.96 181,4 -4,4"/>
<text text-anchor="start" x="19" y="-151.36" font-family="Lato" font-size="12.00">Fin(</text>
<text text-anchor="start" x="39" y="-151.36" font-family="Lato" font-size="12.00" fill="#1f78b4">⓿</text>
<text text-anchor="start" x="53" y="-151.36" font-family="Lato" font-size="12.00">) &amp; (Inf(</text>
<text text-anchor="start" x="91" y="-151.36" font-family="Lato" font-size="12.00" fill="#ff4da0">❶</text>
<text text-anchor="start" x="105" y="-151.36" font-family="Lato" font-size="12.00">) | Fin(</text>
<text text-anchor="start" x="137" y="-151.36" font-family="Lato" font-size="12.00" fill="#ff7f00">❷</text>
<text text-anchor="start" x="151" y="-151.36" font-family="Lato" font-size="12.00">))</text>
<text text-anchor="start" x="41.5" y="-139.36" font-family="Lato" font-size="12.00">[parity min odd 3]</text>
<!-- I -->
<!-- 1 -->
<g id="node2" class="node">
<title>1</title>
<ellipse fill="#ffffa0" stroke="black" cx="56" cy="-25.96" rx="18" ry="18"/>
<text text-anchor="middle" x="56" y="-22.86" font-family="Lato" font-size="12.00">1</text>
</g>
<!-- I&#45;&gt;1 -->
<g id="edge1" class="edge">
<title>I&#45;&gt;1</title>
<path fill="none" stroke="black" d="M1.15,-25.96C2.79,-25.96 17.15,-25.96 30.63,-25.96"/>
<polygon fill="black" stroke="black" points="37.94,-25.96 30.94,-29.11 34.44,-25.96 30.94,-25.96 30.94,-25.96 30.94,-25.96 34.44,-25.96 30.94,-22.81 37.94,-25.96 37.94,-25.96"/>
</g>
<!-- 1&#45;&gt;1 -->
<g id="edge5" class="edge">
<title>1&#45;&gt;1</title>
<path fill="none" stroke="black" d="M52.76,-43.74C52.21,-53.28 53.29,-61.96 56,-61.96 57.99,-61.96 59.1,-57.28 59.33,-51.01"/>
<polygon fill="black" stroke="black" points="59.24,-43.74 62.48,-50.7 59.28,-47.24 59.33,-50.74 59.33,-50.74 59.33,-50.74 59.28,-47.24 56.18,-50.78 59.24,-43.74 59.24,-43.74"/>
<text text-anchor="start" x="51" y="-78.36" font-family="Lato" font-size="12.00">!a</text>
<text text-anchor="start" x="49" y="-65.36" font-family="Lato" font-size="12.00" fill="#ff7f00">❷</text>
</g>
<!-- 1&#45;&gt;1 -->
<g id="edge6" class="edge">
<title>1&#45;&gt;1</title>
<path fill="none" stroke="black" d="M50.94,-43.24C47.56,-63.21 49.25,-87.96 56,-87.96 61.96,-87.96 63.97,-68.67 62.04,-50.41"/>
<polygon fill="black" stroke="black" points="61.06,-43.24 65.13,-49.75 61.54,-46.71 62.01,-50.18 62.01,-50.18 62.01,-50.18 61.54,-46.71 58.89,-50.6 61.06,-43.24 61.06,-43.24"/>
<text text-anchor="start" x="42" y="-104.36" font-family="Lato" font-size="12.00">a &amp; b</text>
<text text-anchor="start" x="49" y="-91.36" font-family="Lato" font-size="12.00" fill="#ff4da0">❶</text>
</g>
<!-- 0 -->
<g id="node3" class="node">
<title>0</title>
<ellipse fill="#ffffa0" stroke="black" cx="159" cy="-25.96" rx="18" ry="18"/>
<text text-anchor="middle" x="159" y="-22.86" font-family="Lato" font-size="12.00">0</text>
</g>
<!-- 1&#45;&gt;0 -->
<g id="edge4" class="edge">
<title>1&#45;&gt;0</title>
<path fill="none" stroke="black" d="M74.07,-27.72C79.77,-28.23 86.15,-28.71 92,-28.96 105.77,-29.55 109.23,-29.55 123,-28.96 126.47,-28.81 130.13,-28.58 133.73,-28.31"/>
<polygon fill="black" stroke="black" points="140.93,-27.72 134.21,-31.43 137.44,-28.01 133.95,-28.29 133.95,-28.29 133.95,-28.29 137.44,-28.01 133.69,-25.15 140.93,-27.72 140.93,-27.72"/>
<text text-anchor="start" x="92" y="-45.36" font-family="Lato" font-size="12.00">a &amp; !b</text>
<text text-anchor="start" x="100.5" y="-32.36" font-family="Lato" font-size="12.00" fill="#ff7f00">❷</text>
</g>
<!-- 0&#45;&gt;1 -->
<g id="edge3" class="edge">
<title>0&#45;&gt;1</title>
<path fill="none" stroke="black" d="M144.64,-14.53C138.48,-9.99 130.8,-5.3 123,-2.96 109.8,0.99 105.2,0.99 92,-2.96 86.51,-4.6 81.09,-7.41 76.21,-10.51"/>
<polygon fill="black" stroke="black" points="70.36,-14.53 74.35,-7.97 73.24,-12.55 76.13,-10.57 76.13,-10.57 76.13,-10.57 73.24,-12.55 77.91,-13.17 70.36,-14.53 70.36,-14.53"/>
<text text-anchor="start" x="104" y="-19.36" font-family="Lato" font-size="12.00">b</text>
<text text-anchor="start" x="100.5" y="-6.36" font-family="Lato" font-size="12.00" fill="#ff4da0">❶</text>
</g>
<!-- 0&#45;&gt;0 -->
<g id="edge2" class="edge">
<title>0&#45;&gt;0</title>
<path fill="none" stroke="black" d="M150.37,-41.88C148.11,-52.11 150.99,-61.96 159,-61.96 165.13,-61.96 168.25,-56.19 168.37,-48.89"/>
<polygon fill="black" stroke="black" points="167.63,-41.88 171.5,-48.51 168,-45.36 168.37,-48.84 168.37,-48.84 168.37,-48.84 168,-45.36 165.23,-49.17 167.63,-41.88 167.63,-41.88"/>
<text text-anchor="start" x="154" y="-78.36" font-family="Lato" font-size="12.00">!b</text>
<text text-anchor="start" x="152" y="-65.36" font-family="Lato" font-size="12.00" fill="#ff7f00">❷</text>
</g>
</g>
</svg>
