<?xml version="1.0" encoding="UTF-8" standalone="no"?>
<?xml-stylesheet href="spot.css" type="text/css"?>
<!DOCTYPE svg PUBLIC "-//W3C//DTD SVG 1.1//EN"
 "http://www.w3.org/Graphics/SVG/1.1/DTD/svg11.dtd">
<!-- Generated by graphviz version 2.43.0 (0)
 -->
<!-- Title: (Fb | Gc) &amp; FGa Pages: 1 -->
<svg width="267pt" height="153pt"
 viewBox="0.00 0.00 267.00 153.00" xmlns="http://www.w3.org/2000/svg" xmlns:xlink="http://www.w3.org/1999/xlink">
<g id="graph0" class="graph" transform="scale(1 1) rotate(0) translate(4 149)">
<title>(Fb | Gc) &amp; FGa</title>
<polygon fill="white" stroke="transparent" points="-4,4 -4,-149 263,-149 263,4 -4,4"/>
<text text-anchor="start" x="110.5" y="-132.4" font-family="Lato" font-size="12.00">Fin(</text>
<text text-anchor="start" x="130.5" y="-132.4" font-family="Lato" font-size="12.00" fill="#1f78b4">⓿</text>
<text text-anchor="start" x="144.5" y="-132.4" font-family="Lato" font-size="12.00">)</text>
<text text-anchor="start" x="102.5" y="-120.4" font-family="Lato" font-size="12.00">[co&#45;Büchi]</text>
<!-- I -->
<!-- 1 -->
<g id="node2" class="node">
<title>1</title>
<ellipse fill="#ffffa0" stroke="black" cx="56" cy="-18" rx="18" ry="18"/>
<text text-anchor="middle" x="56" y="-14.9" font-family="Lato" font-size="12.00">1</text>
</g>
<!-- I&#45;&gt;1 -->
<g id="edge1" class="edge">
<title>I&#45;&gt;1</title>
<path fill="none" stroke="black" d="M1.15,-18C2.79,-18 17.15,-18 30.63,-18"/>
<polygon fill="black" stroke="black" points="37.94,-18 30.94,-21.15 34.44,-18 30.94,-18 30.94,-18 30.94,-18 34.44,-18 30.94,-14.85 37.94,-18 37.94,-18"/>
</g>
<!-- 1&#45;&gt;1 -->
<g id="edge5" class="edge">
<title>1&#45;&gt;1</title>
<path fill="none" stroke="black" d="M52.76,-35.78C52.21,-45.31 53.29,-54 56,-54 57.99,-54 59.1,-49.32 59.33,-43.05"/>
<polygon fill="black" stroke="black" points="59.24,-35.78 62.48,-42.74 59.28,-39.28 59.33,-42.78 59.33,-42.78 59.33,-42.78 59.28,-39.28 56.18,-42.82 59.24,-35.78 59.24,-35.78"/>
<text text-anchor="start" x="30.5" y="-57.4" font-family="Lato" font-size="12.00">a &amp; !b &amp; c</text>
</g>
<!-- 1&#45;&gt;1 -->
<g id="edge6" class="edge">
<title>1&#45;&gt;1</title>
<path fill="none" stroke="black" d="M50.68,-35.42C47.65,-52.79 49.43,-72 56,-72 61.7,-72 63.79,-57.55 62.27,-42.39"/>
<polygon fill="black" stroke="black" points="61.32,-35.42 65.39,-41.93 61.79,-38.89 62.26,-42.36 62.26,-42.36 62.26,-42.36 61.79,-38.89 59.14,-42.78 61.32,-35.42 61.32,-35.42"/>
<text text-anchor="start" x="29" y="-88.4" font-family="Lato" font-size="12.00">!a &amp; !b &amp; c</text>
<text text-anchor="start" x="49" y="-75.4" font-family="Lato" font-size="12.00" fill="#1f78b4">⓿</text>
</g>
<!-- 0 -->
<g id="node3" class="node">
<title>0</title>
<ellipse fill="#ffffa0" stroke="black" cx="162" cy="-51" rx="18" ry="18"/>
<text text-anchor="middle" x="162" y="-47.9" font-family="Lato" font-size="12.00">0</text>
</g>
<!-- 1&#45;&gt;0 -->
<g id="edge4" class="edge">
<title>1&#45;&gt;0</title>
<path fill="none" stroke="black" d="M73.25,-23.16C90.55,-28.65 118.08,-37.38 137.69,-43.6"/>
<polygon fill="black" stroke="black" points="144.52,-45.77 136.9,-46.66 141.18,-44.71 137.85,-43.65 137.85,-43.65 137.85,-43.65 141.18,-44.71 138.8,-40.65 144.52,-45.77 144.52,-45.77"/>
<text text-anchor="start" x="92" y="-42.4" font-family="Lato" font-size="12.00">!b &amp; !c</text>
</g>
<!-- 2 -->
<g id="node4" class="node">
<title>2</title>
<ellipse fill="#ffffa0" stroke="black" cx="241" cy="-18" rx="18" ry="18"/>
<text text-anchor="middle" x="241" y="-14.9" font-family="Lato" font-size="12.00">2</text>
</g>
<!-- 1&#45;&gt;2 -->
<g id="edge7" class="edge">
<title>1&#45;&gt;2</title>
<path fill="none" stroke="black" d="M74.11,-15.78C97.87,-12.99 142.21,-8.8 180,-11 191.82,-11.69 204.89,-13.13 215.81,-14.53"/>
<polygon fill="black" stroke="black" points="222.98,-15.48 215.62,-17.68 219.51,-15.02 216.04,-14.56 216.04,-14.56 216.04,-14.56 219.51,-15.02 216.45,-11.44 222.98,-15.48 222.98,-15.48"/>
<text text-anchor="start" x="158.5" y="-14.4" font-family="Lato" font-size="12.00">b</text>
</g>
<!-- 0&#45;&gt;0 -->
<g id="edge2" class="edge">
<title>0&#45;&gt;0</title>
<path fill="none" stroke="black" d="M155.27,-68.04C153.89,-77.86 156.14,-87 162,-87 166.4,-87 168.76,-81.86 169.09,-75.14"/>
<polygon fill="black" stroke="black" points="168.73,-68.04 172.23,-74.87 168.91,-71.53 169.08,-75.03 169.08,-75.03 169.08,-75.03 168.91,-71.53 165.93,-75.18 168.73,-68.04 168.73,-68.04"/>
<text text-anchor="start" x="157" y="-103.4" font-family="Lato" font-size="12.00">!b</text>
<text text-anchor="start" x="155" y="-90.4" font-family="Lato" font-size="12.00" fill="#1f78b4">⓿</text>
</g>
<!-- 0&#45;&gt;2 -->
<g id="edge3" class="edge">
<title>0&#45;&gt;2</title>
<path fill="none" stroke="black" d="M178.95,-44.16C190.1,-39.38 205.15,-32.94 217.51,-27.64"/>
<polygon fill="black" stroke="black" points="224.07,-24.83 218.87,-30.48 220.85,-26.21 217.63,-27.59 217.63,-27.59 217.63,-27.59 220.85,-26.21 216.39,-24.69 224.07,-24.83 224.07,-24.83"/>
<text text-anchor="start" x="198" y="-38.4" font-family="Lato" font-size="12.00">b</text>
</g>
<!-- 2&#45;&gt;2 -->
<g id="edge8" class="edge">
<title>2&#45;&gt;2</title>
<path fill="none" stroke="black" d="M237.58,-35.78C237,-45.31 238.14,-54 241,-54 243.1,-54 244.27,-49.32 244.51,-43.05"/>
<polygon fill="black" stroke="black" points="244.42,-35.78 247.66,-42.74 244.46,-39.28 244.51,-42.78 244.51,-42.78 244.51,-42.78 244.46,-39.28 241.36,-42.82 244.42,-35.78 244.42,-35.78"/>
<text text-anchor="start" x="237.5" y="-57.4" font-family="Lato" font-size="12.00">a</text>
</g>
<!-- 2&#45;&gt;2 -->
<g id="edge9" class="edge">
<title>2&#45;&gt;2</title>
<path fill="none" stroke="black" d="M235.44,-35.14C232.17,-52.58 234.02,-72 241,-72 247.05,-72 249.25,-57.4 247.59,-42.15"/>
<polygon fill="black" stroke="black" points="246.56,-35.14 250.7,-41.61 247.07,-38.6 247.58,-42.07 247.58,-42.07 247.58,-42.07 247.07,-38.6 244.46,-42.53 246.56,-35.14 246.56,-35.14"/>
<text text-anchor="start" x="236" y="-88.4" font-family="Lato" font-size="12.00">!a</text>
<text text-anchor="start" x="234" y="-75.4" font-family="Lato" font-size="12.00" fill="#1f78b4">⓿</text>
</g>
</g>
</svg>
