<?xml version="1.0" encoding="UTF-8" standalone="no"?>
<?xml-stylesheet href="spot.css" type="text/css"?>
<!DOCTYPE svg PUBLIC "-//W3C//DTD SVG 1.1//EN"
 "http://www.w3.org/Graphics/SVG/1.1/DTD/svg11.dtd">
<!-- Generated by graphviz version 2.43.0 (0)
 -->
<!-- Title: FGa Pages: 1 -->
<svg width="82pt" height="151pt"
 viewBox="0.00 0.00 82.00 151.00" xmlns="http://www.w3.org/2000/svg" xmlns:xlink="http://www.w3.org/1999/xlink">
<g id="graph0" class="graph" transform="scale(1 1) rotate(0) translate(4 147)">
<title>FGa</title>
<polygon fill="white" stroke="transparent" points="-4,4 -4,-147 78,-147 78,4 -4,4"/>
<text text-anchor="start" x="18" y="-130.4" font-family="Lato" font-size="12.00">Fin(</text>
<text text-anchor="start" x="38" y="-130.4" font-family="Lato" font-size="12.00" fill="#1f78b4">⓿</text>
<text text-anchor="start" x="52" y="-130.4" font-family="Lato" font-size="12.00">)</text>
<text text-anchor="start" x="10" y="-118.4" font-family="Lato" font-size="12.00">[co&#45;Büchi]</text>
<!-- I -->
<!-- 0 -->
<g id="node2" class="node">
<title>0</title>
<ellipse fill="#ffffa0" stroke="black" cx="56" cy="-18" rx="18" ry="18"/>
<text text-anchor="middle" x="56" y="-14.9" font-family="Lato" font-size="12.00">0</text>
</g>
<!-- I&#45;&gt;0 -->
<g id="edge1" class="edge">
<title>I&#45;&gt;0</title>
<path fill="none" stroke="black" d="M1.15,-18C2.79,-18 17.15,-18 30.63,-18"/>
<polygon fill="black" stroke="black" points="37.94,-18 30.94,-21.15 34.44,-18 30.94,-18 30.94,-18 30.94,-18 34.44,-18 30.94,-14.85 37.94,-18 37.94,-18"/>
</g>
<!-- 0&#45;&gt;0 -->
<g id="edge2" class="edge">
<title>0&#45;&gt;0</title>
<path fill="none" stroke="black" d="M52.76,-35.78C52.21,-45.31 53.29,-54 56,-54 57.99,-54 59.1,-49.32 59.33,-43.05"/>
<polygon fill="black" stroke="black" points="59.24,-35.78 62.48,-42.74 59.28,-39.28 59.33,-42.78 59.33,-42.78 59.33,-42.78 59.28,-39.28 56.18,-42.82 59.24,-35.78 59.24,-35.78"/>
<text text-anchor="start" x="51" y="-70.4" font-family="Lato" font-size="12.00">!a</text>
<text text-anchor="start" x="49" y="-57.4" font-family="Lato" font-size="12.00" fill="#1f78b4">⓿</text>
</g>
<!-- 0&#45;&gt;0 -->
<g id="edge3" class="edge">
<title>0&#45;&gt;0</title>
<path fill="none" stroke="black" d="M50.94,-35.28C47.56,-55.25 49.25,-80 56,-80 61.96,-80 63.97,-60.71 62.04,-42.45"/>
<polygon fill="black" stroke="black" points="61.06,-35.28 65.13,-41.79 61.54,-38.75 62.01,-42.22 62.01,-42.22 62.01,-42.22 61.54,-38.75 58.89,-42.64 61.06,-35.28 61.06,-35.28"/>
<text text-anchor="start" x="52.5" y="-83.4" font-family="Lato" font-size="12.00">a</text>
</g>
</g>
</svg>
