<?xml version="1.0" encoding="UTF-8" standalone="no"?>
<?xml-stylesheet href="spot.css" type="text/css"?>
<!DOCTYPE svg PUBLIC "-//W3C//DTD SVG 1.1//EN"
 "http://www.w3.org/Graphics/SVG/1.1/DTD/svg11.dtd">
<!-- Generated by graphviz version 2.43.0 (0)
 -->
<!-- Title: F(a W FGb) Pages: 1 -->
<svg width="706pt" height="296pt"
 viewBox="0.00 0.00 706.00 296.00" xmlns="http://www.w3.org/2000/svg" xmlns:xlink="http://www.w3.org/1999/xlink">
<g id="graph0" class="graph" transform="scale(1 1) rotate(0) translate(4 292)">
<title>F(a W FGb)</title>
<polygon fill="white" stroke="transparent" points="-4,4 -4,-292 702,-292 702,4 -4,4"/>
<text text-anchor="start" x="330" y="-275.4" font-family="Lato" font-size="12.00">Fin(</text>
<text text-anchor="start" x="350" y="-275.4" font-family="Lato" font-size="12.00" fill="#1f78b4">⓿</text>
<text text-anchor="start" x="364" y="-275.4" font-family="Lato" font-size="12.00">)</text>
<text text-anchor="start" x="322" y="-263.4" font-family="Lato" font-size="12.00">[co&#45;Büchi]</text>
<!-- I -->
<!-- 0 -->
<g id="node2" class="node">
<title>0</title>
<ellipse fill="#ffffa0" stroke="black" cx="56" cy="-194" rx="18" ry="18"/>
<text text-anchor="middle" x="56" y="-190.9" font-family="Lato" font-size="12.00">0</text>
</g>
<!-- I&#45;&gt;0 -->
<g id="edge1" class="edge">
<title>I&#45;&gt;0</title>
<path fill="none" stroke="black" d="M1.15,-194C2.79,-194 17.15,-194 30.63,-194"/>
<polygon fill="black" stroke="black" points="37.94,-194 30.94,-197.15 34.44,-194 30.94,-194 30.94,-194 30.94,-194 34.44,-194 30.94,-190.85 37.94,-194 37.94,-194"/>
</g>
<!-- 0&#45;&gt;0 -->
<g id="edge2" class="edge">
<title>0&#45;&gt;0</title>
<path fill="none" stroke="black" d="M49.62,-211.04C48.32,-220.86 50.45,-230 56,-230 60.17,-230 62.4,-224.86 62.71,-218.14"/>
<polygon fill="black" stroke="black" points="62.38,-211.04 65.85,-217.88 62.54,-214.53 62.71,-218.03 62.71,-218.03 62.71,-218.03 62.54,-214.53 59.56,-218.18 62.38,-211.04 62.38,-211.04"/>
<text text-anchor="start" x="39" y="-246.4" font-family="Lato" font-size="12.00">!a &amp; !b</text>
<text text-anchor="start" x="49" y="-233.4" font-family="Lato" font-size="12.00" fill="#1f78b4">⓿</text>
</g>
<!-- 1 -->
<g id="node3" class="node">
<title>1</title>
<ellipse fill="#ffffa0" stroke="black" cx="162" cy="-145" rx="18" ry="18"/>
<text text-anchor="middle" x="162" y="-141.9" font-family="Lato" font-size="12.00">1</text>
</g>
<!-- 0&#45;&gt;1 -->
<g id="edge3" class="edge">
<title>0&#45;&gt;1</title>
<path fill="none" stroke="black" d="M73.81,-190.38C88.2,-186.89 109.18,-180.82 126,-172 131.67,-169.03 137.36,-165.13 142.45,-161.22"/>
<polygon fill="black" stroke="black" points="148.12,-156.68 144.62,-163.52 145.39,-158.87 142.65,-161.06 142.65,-161.06 142.65,-161.06 145.39,-158.87 140.69,-158.6 148.12,-156.68 148.12,-156.68"/>
<text text-anchor="start" x="93.5" y="-188.4" font-family="Lato" font-size="12.00">!a &amp; b</text>
</g>
<!-- 2 -->
<g id="node4" class="node">
<title>2</title>
<ellipse fill="#ffffa0" stroke="black" cx="365" cy="-181" rx="18" ry="18"/>
<text text-anchor="middle" x="365" y="-177.9" font-family="Lato" font-size="12.00">2</text>
</g>
<!-- 0&#45;&gt;2 -->
<g id="edge4" class="edge">
<title>0&#45;&gt;2</title>
<path fill="none" stroke="black" d="M73.61,-198.53C79.39,-199.91 85.94,-201.26 92,-202 114.94,-204.81 120.89,-202.78 144,-203 160,-203.15 164.03,-203.91 180,-203 246.54,-199.22 262.89,-194.49 329,-186 332.47,-185.55 336.13,-185.06 339.72,-184.56"/>
<polygon fill="black" stroke="black" points="346.92,-183.54 340.43,-187.64 343.46,-184.03 339.99,-184.52 339.99,-184.52 339.99,-184.52 343.46,-184.03 339.55,-181.4 346.92,-183.54 346.92,-183.54"/>
<text text-anchor="start" x="208.5" y="-204.4" font-family="Lato" font-size="12.00">a</text>
</g>
<!-- 1&#45;&gt;0 -->
<g id="edge5" class="edge">
<title>1&#45;&gt;0</title>
<path fill="none" stroke="black" d="M144.63,-139.82C129.96,-136.17 108.3,-133.32 92,-142 80.47,-148.14 72.05,-159.96 66.37,-170.78"/>
<polygon fill="black" stroke="black" points="63.18,-177.33 63.41,-169.66 64.71,-174.18 66.24,-171.04 66.24,-171.04 66.24,-171.04 64.71,-174.18 69.08,-172.42 63.18,-177.33 63.18,-177.33"/>
<text text-anchor="start" x="92" y="-158.4" font-family="Lato" font-size="12.00">!a &amp; !b</text>
<text text-anchor="start" x="102" y="-145.4" font-family="Lato" font-size="12.00" fill="#1f78b4">⓿</text>
</g>
<!-- 1&#45;&gt;1 -->
<g id="edge6" class="edge">
<title>1&#45;&gt;1</title>
<path fill="none" stroke="black" d="M153.37,-160.92C151.11,-171.15 153.99,-181 162,-181 168.13,-181 171.25,-175.23 171.37,-167.93"/>
<polygon fill="black" stroke="black" points="170.63,-160.92 174.5,-167.55 171,-164.4 171.37,-167.88 171.37,-167.88 171.37,-167.88 171,-164.4 168.23,-168.21 170.63,-160.92 170.63,-160.92"/>
<text text-anchor="start" x="146.5" y="-184.4" font-family="Lato" font-size="12.00">!a &amp; b</text>
</g>
<!-- 1&#45;&gt;2 -->
<g id="edge7" class="edge">
<title>1&#45;&gt;2</title>
<path fill="none" stroke="black" d="M179.79,-148.01C215.48,-154.4 298.99,-169.36 340.17,-176.73"/>
<polygon fill="black" stroke="black" points="347.12,-177.98 339.67,-179.84 343.67,-177.36 340.22,-176.74 340.22,-176.74 340.22,-176.74 343.67,-177.36 340.78,-173.64 347.12,-177.98 347.12,-177.98"/>
<text text-anchor="start" x="246.5" y="-168.4" font-family="Lato" font-size="12.00">a &amp; !b</text>
</g>
<!-- 3 -->
<g id="node5" class="node">
<title>3</title>
<ellipse fill="#ffffa0" stroke="black" cx="262" cy="-96" rx="18" ry="18"/>
<text text-anchor="middle" x="262" y="-92.9" font-family="Lato" font-size="12.00">3</text>
</g>
<!-- 1&#45;&gt;3 -->
<g id="edge8" class="edge">
<title>1&#45;&gt;3</title>
<path fill="none" stroke="black" d="M178.31,-137.34C194.61,-129.19 220.56,-116.22 239.03,-106.98"/>
<polygon fill="black" stroke="black" points="245.47,-103.76 240.62,-109.71 242.34,-105.33 239.21,-106.89 239.21,-106.89 239.21,-106.89 242.34,-105.33 237.8,-104.08 245.47,-103.76 245.47,-103.76"/>
<text text-anchor="start" x="198" y="-130.4" font-family="Lato" font-size="12.00">a &amp; b</text>
</g>
<!-- 2&#45;&gt;2 -->
<g id="edge9" class="edge">
<title>2&#45;&gt;2</title>
<path fill="none" stroke="black" d="M356.37,-196.92C354.11,-207.15 356.99,-217 365,-217 371.13,-217 374.25,-211.23 374.37,-203.93"/>
<polygon fill="black" stroke="black" points="373.63,-196.92 377.5,-203.55 374,-200.4 374.37,-203.88 374.37,-203.88 374.37,-203.88 374,-200.4 371.23,-204.21 373.63,-196.92 373.63,-196.92"/>
<text text-anchor="start" x="361.5" y="-220.4" font-family="Lato" font-size="12.00">a</text>
</g>
<!-- 4 -->
<g id="node6" class="node">
<title>4</title>
<ellipse fill="#ffffa0" stroke="black" cx="471" cy="-103" rx="18" ry="18"/>
<text text-anchor="middle" x="471" y="-99.9" font-family="Lato" font-size="12.00">4</text>
</g>
<!-- 2&#45;&gt;4 -->
<g id="edge10" class="edge">
<title>2&#45;&gt;4</title>
<path fill="none" stroke="black" d="M380.03,-170.48C398.19,-156.86 429.96,-133.03 450.47,-117.65"/>
<polygon fill="black" stroke="black" points="456.2,-113.35 452.49,-120.07 453.4,-115.45 450.6,-117.55 450.6,-117.55 450.6,-117.55 453.4,-115.45 448.71,-115.03 456.2,-113.35 456.2,-113.35"/>
<text text-anchor="start" x="401" y="-156.4" font-family="Lato" font-size="12.00">!a &amp; !b</text>
</g>
<!-- 5 -->
<g id="node7" class="node">
<title>5</title>
<ellipse fill="#ffffa0" stroke="black" cx="577" cy="-166" rx="18" ry="18"/>
<text text-anchor="middle" x="577" y="-162.9" font-family="Lato" font-size="12.00">5</text>
</g>
<!-- 2&#45;&gt;5 -->
<g id="edge11" class="edge">
<title>2&#45;&gt;5</title>
<path fill="none" stroke="black" d="M382.83,-185.12C414.51,-192.15 484.9,-204.17 541,-188 546.43,-186.43 551.83,-183.75 556.71,-180.78"/>
<polygon fill="black" stroke="black" points="562.57,-176.94 558.44,-183.41 559.64,-178.86 556.72,-180.78 556.72,-180.78 556.72,-180.78 559.64,-178.86 554.99,-178.15 562.57,-176.94 562.57,-176.94"/>
<text text-anchor="start" x="455.5" y="-199.4" font-family="Lato" font-size="12.00">!a &amp; b</text>
</g>
<!-- 3&#45;&gt;2 -->
<g id="edge12" class="edge">
<title>3&#45;&gt;2</title>
<path fill="none" stroke="black" d="M276.2,-107.11C293.82,-121.94 325.12,-148.28 345.2,-165.18"/>
<polygon fill="black" stroke="black" points="350.79,-169.89 343.41,-167.79 348.11,-167.63 345.44,-165.38 345.44,-165.38 345.44,-165.38 348.11,-167.63 347.47,-162.97 350.79,-169.89 350.79,-169.89"/>
<text text-anchor="start" x="298" y="-154.4" font-family="Lato" font-size="12.00">a &amp; !b</text>
</g>
<!-- 3&#45;&gt;3 -->
<g id="edge13" class="edge">
<title>3&#45;&gt;3</title>
<path fill="none" stroke="black" d="M253.37,-111.92C251.11,-122.15 253.99,-132 262,-132 268.13,-132 271.25,-126.23 271.37,-118.93"/>
<polygon fill="black" stroke="black" points="270.63,-111.92 274.5,-118.55 271,-115.4 271.37,-118.88 271.37,-118.88 271.37,-118.88 271,-115.4 268.23,-119.21 270.63,-111.92 270.63,-111.92"/>
<text text-anchor="start" x="248" y="-135.4" font-family="Lato" font-size="12.00">a &amp; b</text>
</g>
<!-- 3&#45;&gt;4 -->
<g id="edge14" class="edge">
<title>3&#45;&gt;4</title>
<path fill="none" stroke="black" d="M280.29,-96.58C317.14,-97.83 403.48,-100.75 445.78,-102.18"/>
<polygon fill="black" stroke="black" points="452.9,-102.42 445.8,-105.33 449.4,-102.3 445.91,-102.19 445.91,-102.19 445.91,-102.19 449.4,-102.3 446.01,-99.04 452.9,-102.42 452.9,-102.42"/>
<text text-anchor="start" x="348" y="-103.4" font-family="Lato" font-size="12.00">!a &amp; !b</text>
</g>
<!-- 6 -->
<g id="node8" class="node">
<title>6</title>
<ellipse fill="#ffffa0" stroke="black" cx="365" cy="-18" rx="18" ry="18"/>
<text text-anchor="middle" x="365" y="-14.9" font-family="Lato" font-size="12.00">6</text>
</g>
<!-- 3&#45;&gt;6 -->
<g id="edge15" class="edge">
<title>3&#45;&gt;6</title>
<path fill="none" stroke="black" d="M276.62,-85.48C294.17,-71.93 324.77,-48.3 344.7,-32.9"/>
<polygon fill="black" stroke="black" points="350.27,-28.6 346.66,-35.37 347.5,-30.74 344.73,-32.88 344.73,-32.88 344.73,-32.88 347.5,-30.74 342.81,-30.39 350.27,-28.6 350.27,-28.6"/>
<text text-anchor="start" x="298" y="-72.4" font-family="Lato" font-size="12.00">!a &amp; b</text>
</g>
<!-- 4&#45;&gt;4 -->
<g id="edge16" class="edge">
<title>4&#45;&gt;4</title>
<path fill="none" stroke="black" d="M462.02,-118.92C459.68,-129.15 462.67,-139 471,-139 477.38,-139 480.63,-133.23 480.75,-125.93"/>
<polygon fill="black" stroke="black" points="479.98,-118.92 483.87,-125.53 480.36,-122.4 480.74,-125.87 480.74,-125.87 480.74,-125.87 480.36,-122.4 477.61,-126.22 479.98,-118.92 479.98,-118.92"/>
<text text-anchor="start" x="454" y="-155.4" font-family="Lato" font-size="12.00">!a &amp; !b</text>
<text text-anchor="start" x="464" y="-142.4" font-family="Lato" font-size="12.00" fill="#1f78b4">⓿</text>
</g>
<!-- 4&#45;&gt;5 -->
<g id="edge17" class="edge">
<title>4&#45;&gt;5</title>
<path fill="none" stroke="black" d="M488.51,-107.64C503.09,-112.2 524.51,-120.07 541,-131 547.8,-135.51 554.37,-141.49 559.94,-147.22"/>
<polygon fill="black" stroke="black" points="564.76,-152.38 557.68,-149.42 562.37,-149.82 559.98,-147.26 559.98,-147.26 559.98,-147.26 562.37,-149.82 562.28,-145.11 564.76,-152.38 564.76,-152.38"/>
<text text-anchor="start" x="520.5" y="-134.4" font-family="Lato" font-size="12.00">b</text>
</g>
<!-- 7 -->
<g id="node9" class="node">
<title>7</title>
<ellipse fill="#ffffa0" stroke="black" cx="680" cy="-97" rx="18" ry="18"/>
<text text-anchor="middle" x="680" y="-93.9" font-family="Lato" font-size="12.00">7</text>
</g>
<!-- 4&#45;&gt;7 -->
<g id="edge18" class="edge">
<title>4&#45;&gt;7</title>
<path fill="none" stroke="black" d="M486.31,-93.51C502.94,-83.15 531.63,-67.32 559,-62 594.24,-55.15 634.05,-71.77 657.81,-84.39"/>
<polygon fill="black" stroke="black" points="664.06,-87.82 656.41,-87.22 661,-86.14 657.93,-84.45 657.93,-84.45 657.93,-84.45 661,-86.14 659.44,-81.69 664.06,-87.82 664.06,-87.82"/>
<text text-anchor="start" x="561.5" y="-65.4" font-family="Lato" font-size="12.00">a &amp; !b</text>
</g>
<!-- 5&#45;&gt;4 -->
<g id="edge19" class="edge">
<title>5&#45;&gt;4</title>
<path fill="none" stroke="black" d="M558.97,-163.29C544.26,-160.35 522.92,-154.58 507,-144 498.96,-138.66 491.72,-130.97 485.94,-123.69"/>
<polygon fill="black" stroke="black" points="481.44,-117.73 488.17,-121.42 483.55,-120.52 485.66,-123.31 485.66,-123.31 485.66,-123.31 483.55,-120.52 483.14,-125.21 481.44,-117.73 481.44,-117.73"/>
<text text-anchor="start" x="507" y="-174.4" font-family="Lato" font-size="12.00">!a &amp; !b</text>
<text text-anchor="start" x="517" y="-161.4" font-family="Lato" font-size="12.00" fill="#1f78b4">⓿</text>
</g>
<!-- 5&#45;&gt;5 -->
<g id="edge20" class="edge">
<title>5&#45;&gt;5</title>
<path fill="none" stroke="black" d="M568.37,-181.92C566.11,-192.15 568.99,-202 577,-202 583.13,-202 586.25,-196.23 586.37,-188.93"/>
<polygon fill="black" stroke="black" points="585.63,-181.92 589.5,-188.55 586,-185.4 586.37,-188.88 586.37,-188.88 586.37,-188.88 586,-185.4 583.23,-189.21 585.63,-181.92 585.63,-181.92"/>
<text text-anchor="start" x="573.5" y="-205.4" font-family="Lato" font-size="12.00">b</text>
</g>
<!-- 5&#45;&gt;7 -->
<g id="edge21" class="edge">
<title>5&#45;&gt;7</title>
<path fill="none" stroke="black" d="M595.16,-167.61C609.4,-168.07 629.58,-166.64 644,-157 656.69,-148.52 665.39,-133.76 670.94,-121"/>
<polygon fill="black" stroke="black" points="673.7,-114.17 674,-121.84 672.39,-117.42 671.08,-120.66 671.08,-120.66 671.08,-120.66 672.39,-117.42 668.16,-119.48 673.7,-114.17 673.7,-114.17"/>
<text text-anchor="start" x="613" y="-182.4" font-family="Lato" font-size="12.00">a &amp; !b</text>
<text text-anchor="start" x="621.5" y="-169.4" font-family="Lato" font-size="12.00" fill="#1f78b4">⓿</text>
</g>
<!-- 6&#45;&gt;4 -->
<g id="edge22" class="edge">
<title>6&#45;&gt;4</title>
<path fill="none" stroke="black" d="M379.6,-29.11C397.81,-44 430.24,-70.51 450.91,-87.39"/>
<polygon fill="black" stroke="black" points="456.4,-91.89 448.99,-89.89 453.69,-89.67 450.98,-87.46 450.98,-87.46 450.98,-87.46 453.69,-89.67 452.97,-85.02 456.4,-91.89 456.4,-91.89"/>
<text text-anchor="start" x="401" y="-77.4" font-family="Lato" font-size="12.00">!a &amp; !b</text>
</g>
<!-- 6&#45;&gt;6 -->
<g id="edge23" class="edge">
<title>6&#45;&gt;6</title>
<path fill="none" stroke="black" d="M356.37,-33.92C354.11,-44.15 356.99,-54 365,-54 371.13,-54 374.25,-48.23 374.37,-40.93"/>
<polygon fill="black" stroke="black" points="373.63,-33.92 377.5,-40.55 374,-37.4 374.37,-40.88 374.37,-40.88 374.37,-40.88 374,-37.4 371.23,-41.21 373.63,-33.92 373.63,-33.92"/>
<text text-anchor="start" x="361.5" y="-57.4" font-family="Lato" font-size="12.00">b</text>
</g>
<!-- 6&#45;&gt;7 -->
<g id="edge24" class="edge">
<title>6&#45;&gt;7</title>
<path fill="none" stroke="black" d="M383.04,-17.31C428.23,-16.19 553.79,-17.66 644,-63 651.04,-66.54 657.58,-71.99 663.06,-77.5"/>
<polygon fill="black" stroke="black" points="668.17,-82.97 661.09,-80 665.78,-80.41 663.39,-77.85 663.39,-77.85 663.39,-77.85 665.78,-80.41 665.69,-75.7 668.17,-82.97 668.17,-82.97"/>
<text text-anchor="start" x="508.5" y="-33.4" font-family="Lato" font-size="12.00">a &amp; !b</text>
</g>
<!-- 7&#45;&gt;4 -->
<g id="edge25" class="edge">
<title>7&#45;&gt;4</title>
<path fill="none" stroke="black" d="M661.9,-97.5C625.23,-98.56 538.9,-101.06 496.45,-102.29"/>
<polygon fill="black" stroke="black" points="489.29,-102.5 496.2,-99.15 492.79,-102.4 496.29,-102.3 496.29,-102.3 496.29,-102.3 492.79,-102.4 496.38,-105.44 489.29,-102.5 489.29,-102.5"/>
<text text-anchor="start" x="560" y="-117.4" font-family="Lato" font-size="12.00">!a &amp; !b</text>
<text text-anchor="start" x="570" y="-104.4" font-family="Lato" font-size="12.00" fill="#1f78b4">⓿</text>
</g>
<!-- 7&#45;&gt;5 -->
<g id="edge26" class="edge">
<title>7&#45;&gt;5</title>
<path fill="none" stroke="black" d="M662.53,-102.33C648.53,-107.34 628.32,-115.76 613,-127 605.67,-132.38 598.72,-139.51 592.98,-146.2"/>
<polygon fill="black" stroke="black" points="588.46,-151.67 590.49,-144.26 590.69,-148.97 592.92,-146.27 592.92,-146.27 592.92,-146.27 590.69,-148.97 595.35,-148.28 588.46,-151.67 588.46,-151.67"/>
<text text-anchor="start" x="613" y="-143.4" font-family="Lato" font-size="12.00">!a &amp; b</text>
<text text-anchor="start" x="621.5" y="-130.4" font-family="Lato" font-size="12.00" fill="#1f78b4">⓿</text>
</g>
<!-- 7&#45;&gt;7 -->
<g id="edge27" class="edge">
<title>7&#45;&gt;7</title>
<path fill="none" stroke="black" d="M671.37,-112.92C669.11,-123.15 671.99,-133 680,-133 686.13,-133 689.25,-127.23 689.37,-119.93"/>
<polygon fill="black" stroke="black" points="688.63,-112.92 692.5,-119.55 689,-116.4 689.37,-119.88 689.37,-119.88 689.37,-119.88 689,-116.4 686.23,-120.21 688.63,-112.92 688.63,-112.92"/>
<text text-anchor="start" x="676.5" y="-136.4" font-family="Lato" font-size="12.00">a</text>
</g>
</g>
</svg>
