<?xml version="1.0" encoding="UTF-8" standalone="no"?>
<?xml-stylesheet href="spot.css" type="text/css"?>
<!DOCTYPE svg PUBLIC "-//W3C//DTD SVG 1.1//EN"
 "http://www.w3.org/Graphics/SVG/1.1/DTD/svg11.dtd">
<!-- Generated by graphviz version 2.43.0 (0)
 -->
<!-- Title: FGa Pages: 1 -->
<svg width="169pt" height="104pt"
 viewBox="0.00 0.00 169.00 104.00" xmlns="http://www.w3.org/2000/svg" xmlns:xlink="http://www.w3.org/1999/xlink">
<g id="graph0" class="graph" transform="scale(1 1) rotate(0) translate(4 100)">
<title>FGa</title>
<polygon fill="white" stroke="transparent" points="-4,4 -4,-100 165,-100 165,4 -4,4"/>
<text text-anchor="start" x="61.5" y="-82.4" font-family="Lato" font-size="12.00">[Büchi]</text>
<!-- I -->
<!-- 0 -->
<g id="node2" class="node">
<title>0</title>
<ellipse fill="#ffffa0" stroke="black" cx="56" cy="-22" rx="18" ry="18"/>
<text text-anchor="middle" x="56" y="-18.9" font-family="Lato" font-size="12.00">0</text>
</g>
<!-- I&#45;&gt;0 -->
<g id="edge1" class="edge">
<title>I&#45;&gt;0</title>
<path fill="none" stroke="black" d="M1.15,-22C2.79,-22 17.15,-22 30.63,-22"/>
<polygon fill="black" stroke="black" points="37.94,-22 30.94,-25.15 34.44,-22 30.94,-22 30.94,-22 30.94,-22 34.44,-22 30.94,-18.85 37.94,-22 37.94,-22"/>
</g>
<!-- 0&#45;&gt;0 -->
<g id="edge2" class="edge">
<title>0&#45;&gt;0</title>
<path fill="none" stroke="black" d="M49.62,-39.04C48.32,-48.86 50.45,-58 56,-58 60.17,-58 62.4,-52.86 62.71,-46.14"/>
<polygon fill="black" stroke="black" points="62.38,-39.04 65.85,-45.88 62.54,-42.53 62.71,-46.03 62.71,-46.03 62.71,-46.03 62.54,-42.53 59.56,-46.18 62.38,-39.04 62.38,-39.04"/>
<text text-anchor="start" x="52.5" y="-61.4" font-family="Lato" font-size="12.00">1</text>
</g>
<!-- 1 -->
<g id="node3" class="node">
<title>1</title>
<ellipse fill="#ffffa0" stroke="black" cx="139" cy="-22" rx="18" ry="18"/>
<ellipse fill="none" stroke="black" cx="139" cy="-22" rx="22" ry="22"/>
<text text-anchor="start" x="135.5" y="-18.9" font-family="Lato" font-size="12.00">1</text>
</g>
<!-- 0&#45;&gt;1 -->
<g id="edge3" class="edge">
<title>0&#45;&gt;1</title>
<path fill="none" stroke="black" d="M74.18,-22C84.48,-22 97.85,-22 109.68,-22"/>
<polygon fill="black" stroke="black" points="116.81,-22 109.81,-25.15 113.31,-22 109.81,-22 109.81,-22 109.81,-22 113.31,-22 109.81,-18.85 116.81,-22 116.81,-22"/>
<text text-anchor="start" x="92" y="-25.4" font-family="Lato" font-size="12.00">a</text>
</g>
<!-- 1&#45;&gt;1 -->
<g id="edge4" class="edge">
<title>1&#45;&gt;1</title>
<path fill="none" stroke="black" d="M131.32,-42.99C130.37,-53.09 132.93,-62 139,-62 143.55,-62 146.13,-56.99 146.74,-50.22"/>
<polygon fill="black" stroke="black" points="146.68,-42.99 149.88,-49.97 146.71,-46.49 146.73,-49.99 146.73,-49.99 146.73,-49.99 146.71,-46.49 143.58,-50.01 146.68,-42.99 146.68,-42.99"/>
<text text-anchor="start" x="135.5" y="-65.4" font-family="Lato" font-size="12.00">a</text>
</g>
</g>
</svg>
