<?xml version="1.0" encoding="UTF-8" standalone="no"?>
<?xml-stylesheet href="spot.css" type="text/css"?>
<!DOCTYPE svg PUBLIC "-//W3C//DTD SVG 1.1//EN"
 "http://www.w3.org/Graphics/SVG/1.1/DTD/svg11.dtd">
<!-- Generated by graphviz version 2.43.0 (0)
 -->
<!-- Title: F(a W FGb) Pages: 1 -->
<svg width="476pt" height="213pt"
 viewBox="0.00 0.00 476.00 213.07" xmlns="http://www.w3.org/2000/svg" xmlns:xlink="http://www.w3.org/1999/xlink">
<g id="graph0" class="graph" transform="scale(1 1) rotate(0) translate(4 209.07)">
<title>F(a W FGb)</title>
<polygon fill="white" stroke="transparent" points="-4,4 -4,-209.07 472,-209.07 472,4 -4,4"/>
<text text-anchor="start" x="215" y="-192.47" font-family="Lato" font-size="12.00">Fin(</text>
<text text-anchor="start" x="235" y="-192.47" font-family="Lato" font-size="12.00" fill="#1f78b4">⓿</text>
<text text-anchor="start" x="249" y="-192.47" font-family="Lato" font-size="12.00">)</text>
<text text-anchor="start" x="207" y="-180.47" font-family="Lato" font-size="12.00">[co&#45;Büchi]</text>
<!-- I -->
<!-- 0 -->
<g id="node2" class="node">
<title>0</title>
<ellipse fill="#ffffa0" stroke="black" cx="56" cy="-80.07" rx="18" ry="18"/>
<text text-anchor="middle" x="56" y="-76.97" font-family="Lato" font-size="12.00">0</text>
</g>
<!-- I&#45;&gt;0 -->
<g id="edge1" class="edge">
<title>I&#45;&gt;0</title>
<path fill="none" stroke="black" d="M1.15,-80.07C2.79,-80.07 17.15,-80.07 30.63,-80.07"/>
<polygon fill="black" stroke="black" points="37.94,-80.07 30.94,-83.22 34.44,-80.07 30.94,-80.07 30.94,-80.07 30.94,-80.07 34.44,-80.07 30.94,-76.92 37.94,-80.07 37.94,-80.07"/>
</g>
<!-- 0&#45;&gt;0 -->
<g id="edge2" class="edge">
<title>0&#45;&gt;0</title>
<path fill="none" stroke="black" d="M52.76,-97.86C52.21,-107.39 53.29,-116.07 56,-116.07 57.99,-116.07 59.1,-111.39 59.33,-105.13"/>
<polygon fill="black" stroke="black" points="59.24,-97.86 62.48,-104.82 59.28,-101.36 59.33,-104.86 59.33,-104.86 59.33,-104.86 59.28,-101.36 56.18,-104.9 59.24,-97.86 59.24,-97.86"/>
<text text-anchor="start" x="40.5" y="-119.47" font-family="Lato" font-size="12.00">!a &amp; b</text>
</g>
<!-- 0&#45;&gt;0 -->
<g id="edge3" class="edge">
<title>0&#45;&gt;0</title>
<path fill="none" stroke="black" d="M50.68,-97.49C47.65,-114.87 49.43,-134.07 56,-134.07 61.7,-134.07 63.79,-119.63 62.27,-104.46"/>
<polygon fill="black" stroke="black" points="61.32,-97.49 65.39,-104 61.79,-100.96 62.26,-104.43 62.26,-104.43 62.26,-104.43 61.79,-100.96 59.14,-104.86 61.32,-97.49 61.32,-97.49"/>
<text text-anchor="start" x="39" y="-150.47" font-family="Lato" font-size="12.00">!a &amp; !b</text>
<text text-anchor="start" x="49" y="-137.47" font-family="Lato" font-size="12.00" fill="#1f78b4">⓿</text>
</g>
<!-- 1 -->
<g id="node3" class="node">
<title>1</title>
<ellipse fill="#ffffa0" stroke="black" cx="135" cy="-80.07" rx="18" ry="18"/>
<text text-anchor="middle" x="135" y="-76.97" font-family="Lato" font-size="12.00">1</text>
</g>
<!-- 0&#45;&gt;1 -->
<g id="edge4" class="edge">
<title>0&#45;&gt;1</title>
<path fill="none" stroke="black" d="M74.09,-80.07C84.56,-80.07 98.12,-80.07 109.69,-80.07"/>
<polygon fill="black" stroke="black" points="116.96,-80.07 109.96,-83.22 113.46,-80.07 109.96,-80.07 109.96,-80.07 109.96,-80.07 113.46,-80.07 109.96,-76.92 116.96,-80.07 116.96,-80.07"/>
<text text-anchor="start" x="92" y="-83.47" font-family="Lato" font-size="12.00">a</text>
</g>
<!-- 1&#45;&gt;1 -->
<g id="edge5" class="edge">
<title>1&#45;&gt;1</title>
<path fill="none" stroke="black" d="M128.27,-97.11C126.89,-106.93 129.14,-116.07 135,-116.07 139.4,-116.07 141.76,-110.93 142.09,-104.22"/>
<polygon fill="black" stroke="black" points="141.73,-97.11 145.23,-103.95 141.91,-100.61 142.08,-104.1 142.08,-104.1 142.08,-104.1 141.91,-100.61 138.93,-104.26 141.73,-97.11 141.73,-97.11"/>
<text text-anchor="start" x="131.5" y="-119.47" font-family="Lato" font-size="12.00">a</text>
</g>
<!-- 2 -->
<g id="node4" class="node">
<title>2</title>
<ellipse fill="#ffffa0" stroke="black" cx="241" cy="-31.07" rx="18" ry="18"/>
<text text-anchor="middle" x="241" y="-27.97" font-family="Lato" font-size="12.00">2</text>
</g>
<!-- 1&#45;&gt;2 -->
<g id="edge6" class="edge">
<title>1&#45;&gt;2</title>
<path fill="none" stroke="black" d="M151.8,-72.63C169.46,-64.31 198.19,-50.77 218.04,-41.42"/>
<polygon fill="black" stroke="black" points="224.4,-38.43 219.41,-44.26 221.23,-39.92 218.06,-41.41 218.06,-41.41 218.06,-41.41 221.23,-39.92 216.72,-38.56 224.4,-38.43 224.4,-38.43"/>
<text text-anchor="start" x="171" y="-65.47" font-family="Lato" font-size="12.00">!a &amp; !b</text>
</g>
<!-- 3 -->
<g id="node5" class="node">
<title>3</title>
<ellipse fill="#ffffa0" stroke="black" cx="347" cy="-88.07" rx="18" ry="18"/>
<text text-anchor="middle" x="347" y="-84.97" font-family="Lato" font-size="12.00">3</text>
</g>
<!-- 1&#45;&gt;3 -->
<g id="edge7" class="edge">
<title>1&#45;&gt;3</title>
<path fill="none" stroke="black" d="M151.69,-87.16C182.61,-100.15 253.42,-125.02 311,-109.07 316.16,-107.64 321.33,-105.23 326.05,-102.53"/>
<polygon fill="black" stroke="black" points="332.16,-98.74 327.87,-105.11 329.19,-100.59 326.21,-102.43 326.21,-102.43 326.21,-102.43 329.19,-100.59 324.55,-99.75 332.16,-98.74 332.16,-98.74"/>
<text text-anchor="start" x="225.5" y="-116.47" font-family="Lato" font-size="12.00">!a &amp; b</text>
</g>
<!-- 2&#45;&gt;2 -->
<g id="edge8" class="edge">
<title>2&#45;&gt;2</title>
<path fill="none" stroke="black" d="M232.02,-46.99C229.68,-57.22 232.67,-67.07 241,-67.07 247.38,-67.07 250.63,-61.3 250.75,-54"/>
<polygon fill="black" stroke="black" points="249.98,-46.99 253.87,-53.61 250.36,-50.47 250.74,-53.95 250.74,-53.95 250.74,-53.95 250.36,-50.47 247.61,-54.29 249.98,-46.99 249.98,-46.99"/>
<text text-anchor="start" x="224" y="-83.47" font-family="Lato" font-size="12.00">!a &amp; !b</text>
<text text-anchor="start" x="234" y="-70.47" font-family="Lato" font-size="12.00" fill="#1f78b4">⓿</text>
</g>
<!-- 2&#45;&gt;3 -->
<g id="edge9" class="edge">
<title>2&#45;&gt;3</title>
<path fill="none" stroke="black" d="M258.83,-34.1C273.41,-37.24 294.68,-43.13 311,-53.07 317.97,-57.32 324.58,-63.23 330.14,-68.98"/>
<polygon fill="black" stroke="black" points="334.94,-74.18 327.88,-71.17 332.56,-71.6 330.19,-69.03 330.19,-69.03 330.19,-69.03 332.56,-71.6 332.5,-66.9 334.94,-74.18 334.94,-74.18"/>
<text text-anchor="start" x="278.5" y="-56.47" font-family="Lato" font-size="12.00">!a &amp; b</text>
</g>
<!-- 4 -->
<g id="node6" class="node">
<title>4</title>
<ellipse fill="#ffffa0" stroke="black" cx="450" cy="-35.07" rx="18" ry="18"/>
<text text-anchor="middle" x="450" y="-31.97" font-family="Lato" font-size="12.00">4</text>
</g>
<!-- 2&#45;&gt;4 -->
<g id="edge10" class="edge">
<title>2&#45;&gt;4</title>
<path fill="none" stroke="black" d="M259.29,-31.41C296.14,-32.12 382.48,-33.79 424.78,-34.61"/>
<polygon fill="black" stroke="black" points="431.9,-34.74 424.84,-37.76 428.4,-34.68 424.9,-34.61 424.9,-34.61 424.9,-34.61 428.4,-34.68 424.96,-31.46 431.9,-34.74 431.9,-34.74"/>
<text text-anchor="start" x="343.5" y="-36.47" font-family="Lato" font-size="12.00">a</text>
</g>
<!-- 3&#45;&gt;2 -->
<g id="edge11" class="edge">
<title>3&#45;&gt;2</title>
<path fill="none" stroke="black" d="M329.17,-85.05C314.59,-81.91 293.32,-76.02 277,-66.07 270.03,-61.83 263.42,-55.92 257.86,-50.16"/>
<polygon fill="black" stroke="black" points="253.06,-44.97 260.12,-47.98 255.44,-47.54 257.81,-50.12 257.81,-50.12 257.81,-50.12 255.44,-47.54 255.5,-52.25 253.06,-44.97 253.06,-44.97"/>
<text text-anchor="start" x="277" y="-95.47" font-family="Lato" font-size="12.00">!a &amp; !b</text>
<text text-anchor="start" x="287" y="-82.47" font-family="Lato" font-size="12.00" fill="#1f78b4">⓿</text>
</g>
<!-- 3&#45;&gt;3 -->
<g id="edge12" class="edge">
<title>3&#45;&gt;3</title>
<path fill="none" stroke="black" d="M338.37,-103.99C336.11,-114.22 338.99,-124.07 347,-124.07 353.13,-124.07 356.25,-118.3 356.37,-111"/>
<polygon fill="black" stroke="black" points="355.63,-103.99 359.5,-110.62 356,-107.47 356.37,-110.95 356.37,-110.95 356.37,-110.95 356,-107.47 353.23,-111.28 355.63,-103.99 355.63,-103.99"/>
<text text-anchor="start" x="343.5" y="-127.47" font-family="Lato" font-size="12.00">b</text>
</g>
<!-- 3&#45;&gt;4 -->
<g id="edge13" class="edge">
<title>3&#45;&gt;4</title>
<path fill="none" stroke="black" d="M358.97,-74.02C365.28,-66.8 373.78,-58.42 383,-53.07 395.91,-45.58 412.06,-41.11 425.15,-38.49"/>
<polygon fill="black" stroke="black" points="432.07,-37.22 425.75,-41.58 428.63,-37.86 425.18,-38.49 425.18,-38.49 425.18,-38.49 428.63,-37.86 424.62,-35.39 432.07,-37.22 432.07,-37.22"/>
<text text-anchor="start" x="383" y="-69.47" font-family="Lato" font-size="12.00">a &amp; !b</text>
<text text-anchor="start" x="391.5" y="-56.47" font-family="Lato" font-size="12.00" fill="#1f78b4">⓿</text>
</g>
<!-- 4&#45;&gt;2 -->
<g id="edge14" class="edge">
<title>4&#45;&gt;2</title>
<path fill="none" stroke="black" d="M433.73,-27.05C417.29,-18.91 390.09,-6.83 365,-2.07 329.34,4.68 288.4,-9.41 263.9,-20.22"/>
<polygon fill="black" stroke="black" points="257.44,-23.16 262.5,-17.39 260.62,-21.71 263.81,-20.26 263.81,-20.26 263.81,-20.26 260.62,-21.71 265.12,-23.13 257.44,-23.16 257.44,-23.16"/>
<text text-anchor="start" x="330" y="-18.47" font-family="Lato" font-size="12.00">!a &amp; !b</text>
<text text-anchor="start" x="340" y="-5.47" font-family="Lato" font-size="12.00" fill="#1f78b4">⓿</text>
</g>
<!-- 4&#45;&gt;3 -->
<g id="edge15" class="edge">
<title>4&#45;&gt;3</title>
<path fill="none" stroke="black" d="M440.74,-50.69C434.7,-60.5 425.54,-72.51 414,-79.07 401.48,-86.2 385.52,-88.52 372.43,-89.03"/>
<polygon fill="black" stroke="black" points="365.1,-89.14 372.05,-85.88 368.6,-89.08 372.1,-89.03 372.1,-89.03 372.1,-89.03 368.6,-89.08 372.15,-92.18 365.1,-89.14 365.1,-89.14"/>
<text text-anchor="start" x="383" y="-104.47" font-family="Lato" font-size="12.00">!a &amp; b</text>
<text text-anchor="start" x="391.5" y="-91.47" font-family="Lato" font-size="12.00" fill="#1f78b4">⓿</text>
</g>
<!-- 4&#45;&gt;4 -->
<g id="edge16" class="edge">
<title>4&#45;&gt;4</title>
<path fill="none" stroke="black" d="M441.37,-50.99C439.11,-61.22 441.99,-71.07 450,-71.07 456.13,-71.07 459.25,-65.3 459.37,-58"/>
<polygon fill="black" stroke="black" points="458.63,-50.99 462.5,-57.62 459,-54.47 459.37,-57.95 459.37,-57.95 459.37,-57.95 459,-54.47 456.23,-58.28 458.63,-50.99 458.63,-50.99"/>
<text text-anchor="start" x="446.5" y="-74.47" font-family="Lato" font-size="12.00">a</text>
</g>
</g>
</svg>
