<?xml version="1.0" encoding="UTF-8" standalone="no"?>
<?xml-stylesheet href="spot.css" type="text/css"?>
<!DOCTYPE svg PUBLIC "-//W3C//DTD SVG 1.1//EN"
 "http://www.w3.org/Graphics/SVG/1.1/DTD/svg11.dtd">
<!-- Generated by graphviz version 2.43.0 (0)
 -->
<!-- Title: Fb | Gc Pages: 1 -->
<svg width="283pt" height="133pt"
 viewBox="0.00 0.00 283.00 133.00" xmlns="http://www.w3.org/2000/svg" xmlns:xlink="http://www.w3.org/1999/xlink">
<g id="graph0" class="graph" transform="scale(1 1) rotate(0) translate(4 129)">
<title>Fb | Gc</title>
<polygon fill="white" stroke="transparent" points="-4,4 -4,-129 279,-129 279,4 -4,4"/>
<text text-anchor="start" x="118.5" y="-111.4" font-family="Lato" font-size="12.00">[Büchi]</text>
<!-- I -->
<!-- 2 -->
<g id="node2" class="node">
<title>2</title>
<ellipse fill="#ffffa0" stroke="black" cx="60" cy="-22" rx="18" ry="18"/>
<ellipse fill="none" stroke="black" cx="60" cy="-22" rx="22" ry="22"/>
<text text-anchor="middle" x="60" y="-18.9" font-family="Lato" font-size="12.00">2</text>
</g>
<!-- I&#45;&gt;2 -->
<g id="edge1" class="edge">
<title>I&#45;&gt;2</title>
<path fill="none" stroke="black" d="M1.17,-22C2.84,-22 16.88,-22 30.71,-22"/>
<polygon fill="black" stroke="black" points="37.86,-22 30.86,-25.15 34.36,-22 30.86,-22 30.86,-22 30.86,-22 34.36,-22 30.86,-18.85 37.86,-22 37.86,-22"/>
</g>
<!-- 2&#45;&gt;2 -->
<g id="edge7" class="edge">
<title>2&#45;&gt;2</title>
<path fill="none" stroke="black" d="M52.68,-42.99C51.78,-53.09 54.22,-62 60,-62 64.34,-62 66.79,-56.99 67.37,-50.22"/>
<polygon fill="black" stroke="black" points="67.32,-42.99 70.52,-49.97 67.34,-46.49 67.37,-49.99 67.37,-49.99 67.37,-49.99 67.34,-46.49 64.22,-50.01 67.32,-42.99 67.32,-42.99"/>
<text text-anchor="start" x="44.5" y="-65.4" font-family="Lato" font-size="12.00">!b &amp; c</text>
</g>
<!-- 0 -->
<g id="node3" class="node">
<title>0</title>
<ellipse fill="#ffffa0" stroke="black" cx="170" cy="-55" rx="18" ry="18"/>
<text text-anchor="middle" x="170" y="-51.9" font-family="Lato" font-size="12.00">0</text>
</g>
<!-- 2&#45;&gt;0 -->
<g id="edge5" class="edge">
<title>2&#45;&gt;0</title>
<path fill="none" stroke="black" d="M81.31,-28.21C99.63,-33.8 126.55,-42.03 145.72,-47.89"/>
<polygon fill="black" stroke="black" points="152.66,-50.01 145.04,-50.97 149.31,-48.98 145.96,-47.96 145.96,-47.96 145.96,-47.96 149.31,-48.98 146.88,-44.95 152.66,-50.01 152.66,-50.01"/>
<text text-anchor="start" x="100" y="-46.4" font-family="Lato" font-size="12.00">!b &amp; !c</text>
</g>
<!-- 1 -->
<g id="node4" class="node">
<title>1</title>
<ellipse fill="#ffffa0" stroke="black" cx="253" cy="-22" rx="18" ry="18"/>
<ellipse fill="none" stroke="black" cx="253" cy="-22" rx="22" ry="22"/>
<text text-anchor="middle" x="253" y="-18.9" font-family="Lato" font-size="12.00">1</text>
</g>
<!-- 2&#45;&gt;1 -->
<g id="edge6" class="edge">
<title>2&#45;&gt;1</title>
<path fill="none" stroke="black" d="M82.12,-19.42C107.33,-16.67 150.74,-12.97 188,-15 199.81,-15.64 212.79,-16.95 223.96,-18.26"/>
<polygon fill="black" stroke="black" points="231.01,-19.12 223.68,-21.4 227.53,-18.7 224.06,-18.28 224.06,-18.28 224.06,-18.28 227.53,-18.7 224.44,-15.15 231.01,-19.12 231.01,-19.12"/>
<text text-anchor="start" x="166.5" y="-18.4" font-family="Lato" font-size="12.00">b</text>
</g>
<!-- 0&#45;&gt;0 -->
<g id="edge2" class="edge">
<title>0&#45;&gt;0</title>
<path fill="none" stroke="black" d="M163.27,-72.04C161.89,-81.86 164.14,-91 170,-91 174.4,-91 176.76,-85.86 177.09,-79.14"/>
<polygon fill="black" stroke="black" points="176.73,-72.04 180.23,-78.87 176.91,-75.53 177.08,-79.03 177.08,-79.03 177.08,-79.03 176.91,-75.53 173.93,-79.18 176.73,-72.04 176.73,-72.04"/>
<text text-anchor="start" x="165" y="-94.4" font-family="Lato" font-size="12.00">!b</text>
</g>
<!-- 0&#45;&gt;1 -->
<g id="edge3" class="edge">
<title>0&#45;&gt;1</title>
<path fill="none" stroke="black" d="M187,-48.48C197.97,-44.01 212.78,-37.98 225.5,-32.8"/>
<polygon fill="black" stroke="black" points="232.31,-30.02 227.01,-35.58 229.07,-31.34 225.82,-32.66 225.82,-32.66 225.82,-32.66 229.07,-31.34 224.64,-29.75 232.31,-30.02 232.31,-30.02"/>
<text text-anchor="start" x="206" y="-43.4" font-family="Lato" font-size="12.00">b</text>
</g>
<!-- 1&#45;&gt;1 -->
<g id="edge4" class="edge">
<title>1&#45;&gt;1</title>
<path fill="none" stroke="black" d="M245.32,-42.99C244.37,-53.09 246.93,-62 253,-62 257.55,-62 260.13,-56.99 260.74,-50.22"/>
<polygon fill="black" stroke="black" points="260.68,-42.99 263.88,-49.97 260.71,-46.49 260.73,-49.99 260.73,-49.99 260.73,-49.99 260.71,-46.49 257.58,-50.01 260.68,-42.99 260.68,-42.99"/>
<text text-anchor="middle" x="253" y="-65.4" font-family="Lato" font-size="12.00">1</text>
</g>
</g>
</svg>
