<?xml version="1.0" encoding="UTF-8" standalone="no"?>
<?xml-stylesheet href="spot.css" type="text/css"?>
<!DOCTYPE svg PUBLIC "-//W3C//DTD SVG 1.1//EN"
 "http://www.w3.org/Graphics/SVG/1.1/DTD/svg11.dtd">
<!-- Generated by graphviz version 2.43.0 (0)
 -->
<!-- Title: G(Fa &amp; Fb) Pages: 1 -->
<svg width="285pt" height="156pt"
 viewBox="0.00 0.00 285.00 156.01" xmlns="http://www.w3.org/2000/svg" xmlns:xlink="http://www.w3.org/1999/xlink">
<g id="graph0" class="graph" transform="scale(1 1) rotate(0) translate(4 152.01)">
<title>G(Fa &amp; Fb)</title>
<polygon fill="white" stroke="transparent" points="-4,4 -4,-152.01 281,-152.01 281,4 -4,4"/>
<text text-anchor="start" x="70" y="-135.41" font-family="Lato" font-size="12.00">Inf(</text>
<text text-anchor="start" x="88" y="-135.41" font-family="Lato" font-size="12.00" fill="#ff7f00">❷</text>
<text text-anchor="start" x="102" y="-135.41" font-family="Lato" font-size="12.00">) | (Fin(</text>
<text text-anchor="start" x="137" y="-135.41" font-family="Lato" font-size="12.00" fill="#ff4da0">❶</text>
<text text-anchor="start" x="151" y="-135.41" font-family="Lato" font-size="12.00">) &amp; Inf(</text>
<text text-anchor="start" x="186" y="-135.41" font-family="Lato" font-size="12.00" fill="#1f78b4">⓿</text>
<text text-anchor="start" x="200" y="-135.41" font-family="Lato" font-size="12.00">))</text>
<text text-anchor="start" x="88.5" y="-123.41" font-family="Lato" font-size="12.00">[parity max even 3]</text>
<!-- I -->
<!-- 2 -->
<g id="node2" class="node">
<title>2</title>
<path fill="#ffffa0" stroke="black" d="M62,-71.01C62,-71.01 50,-71.01 50,-71.01 44,-71.01 38,-65.01 38,-59.01 38,-59.01 38,-47.01 38,-47.01 38,-41.01 44,-35.01 50,-35.01 50,-35.01 62,-35.01 62,-35.01 68,-35.01 74,-41.01 74,-47.01 74,-47.01 74,-59.01 74,-59.01 74,-65.01 68,-71.01 62,-71.01"/>
<text text-anchor="start" x="52.5" y="-56.41" font-family="Lato" font-size="12.00">2</text>
<text text-anchor="start" x="49" y="-43.41" font-family="Lato" font-size="12.00" fill="#ff7f00">❷</text>
</g>
<!-- I&#45;&gt;2 -->
<g id="edge1" class="edge">
<title>I&#45;&gt;2</title>
<path fill="none" stroke="black" d="M1.15,-53.01C2.79,-53.01 17.15,-53.01 30.63,-53.01"/>
<polygon fill="black" stroke="black" points="37.94,-53.01 30.94,-56.16 34.44,-53.01 30.94,-53.01 30.94,-53.01 30.94,-53.01 34.44,-53.01 30.94,-49.86 37.94,-53.01 37.94,-53.01"/>
</g>
<!-- 2&#45;&gt;2 -->
<g id="edge7" class="edge">
<title>2&#45;&gt;2</title>
<path fill="none" stroke="black" d="M49.49,-71.16C48.49,-80.55 50.66,-89.01 56,-89.01 59.92,-89.01 62.14,-84.45 62.64,-78.31"/>
<polygon fill="black" stroke="black" points="62.51,-71.16 65.79,-78.11 62.57,-74.66 62.64,-78.16 62.64,-78.16 62.64,-78.16 62.57,-74.66 59.49,-78.22 62.51,-71.16 62.51,-71.16"/>
<text text-anchor="start" x="42" y="-92.41" font-family="Lato" font-size="12.00">a &amp; b</text>
</g>
<!-- 0 -->
<g id="node3" class="node">
<title>0</title>
<path fill="#ffffa0" stroke="black" d="M265,-61.01C265,-61.01 253,-61.01 253,-61.01 247,-61.01 241,-55.01 241,-49.01 241,-49.01 241,-37.01 241,-37.01 241,-31.01 247,-25.01 253,-25.01 253,-25.01 265,-25.01 265,-25.01 271,-25.01 277,-31.01 277,-37.01 277,-37.01 277,-49.01 277,-49.01 277,-55.01 271,-61.01 265,-61.01"/>
<text text-anchor="start" x="255.5" y="-46.41" font-family="Lato" font-size="12.00">0</text>
<text text-anchor="start" x="252" y="-33.41" font-family="Lato" font-size="12.00" fill="#ff4da0">❶</text>
</g>
<!-- 2&#45;&gt;0 -->
<g id="edge8" class="edge">
<title>2&#45;&gt;0</title>
<path fill="none" stroke="black" d="M74.1,-68.13C96.58,-86.12 137.53,-112.38 174,-101.01 197.05,-93.82 219.37,-77.86 235.19,-64.49"/>
<polygon fill="black" stroke="black" points="240.72,-59.7 237.49,-66.67 238.07,-61.99 235.43,-64.29 235.43,-64.29 235.43,-64.29 238.07,-61.99 233.37,-61.9 240.72,-59.7 240.72,-59.7"/>
<text text-anchor="start" x="140.5" y="-106.41" font-family="Lato" font-size="12.00">a &amp; !b</text>
</g>
<!-- 1 -->
<g id="node4" class="node">
<title>1</title>
<path fill="#ffffa0" stroke="black" d="M162,-61.01C162,-61.01 150,-61.01 150,-61.01 144,-61.01 138,-55.01 138,-49.01 138,-49.01 138,-37.01 138,-37.01 138,-31.01 144,-25.01 150,-25.01 150,-25.01 162,-25.01 162,-25.01 168,-25.01 174,-31.01 174,-37.01 174,-37.01 174,-49.01 174,-49.01 174,-55.01 168,-61.01 162,-61.01"/>
<text text-anchor="start" x="152.5" y="-46.41" font-family="Lato" font-size="12.00">1</text>
<text text-anchor="start" x="149" y="-33.41" font-family="Lato" font-size="12.00" fill="#ff4da0">❶</text>
</g>
<!-- 2&#45;&gt;1 -->
<g id="edge9" class="edge">
<title>2&#45;&gt;1</title>
<path fill="none" stroke="black" d="M74.16,-52.41C86.85,-51.85 104.54,-50.82 120,-49.01 123.58,-48.59 127.35,-48.05 131.04,-47.46"/>
<polygon fill="black" stroke="black" points="137.96,-46.31 131.58,-50.57 134.51,-46.88 131.06,-47.46 131.06,-47.46 131.06,-47.46 134.51,-46.88 130.54,-44.36 137.96,-46.31 137.96,-46.31"/>
<text text-anchor="start" x="101" y="-54.41" font-family="Lato" font-size="12.00">!a</text>
</g>
<!-- 0&#45;&gt;2 -->
<g id="edge2" class="edge">
<title>0&#45;&gt;2</title>
<path fill="none" stroke="black" d="M240.7,-30.5C217.54,-15.32 175.09,7.07 138,-3.01 116.6,-8.83 95.38,-22.28 80.03,-33.77"/>
<polygon fill="black" stroke="black" points="74.24,-38.22 77.87,-31.46 77.02,-36.09 79.79,-33.96 79.79,-33.96 79.79,-33.96 77.02,-36.09 81.71,-36.45 74.24,-38.22 74.24,-38.22"/>
<text text-anchor="start" x="152.5" y="-6.41" font-family="Lato" font-size="12.00">b</text>
</g>
<!-- 0&#45;&gt;0 -->
<g id="edge3" class="edge">
<title>0&#45;&gt;0</title>
<path fill="none" stroke="black" d="M249.95,-61.16C248.56,-70.55 251.58,-79.01 259,-79.01 264.45,-79.01 267.52,-74.45 268.22,-68.31"/>
<polygon fill="black" stroke="black" points="268.05,-61.16 271.37,-68.08 268.13,-64.66 268.22,-68.16 268.22,-68.16 268.22,-68.16 268.13,-64.66 265.07,-68.24 268.05,-61.16 268.05,-61.16"/>
<text text-anchor="start" x="254" y="-82.41" font-family="Lato" font-size="12.00">!b</text>
</g>
<!-- 1&#45;&gt;2 -->
<g id="edge4" class="edge">
<title>1&#45;&gt;2</title>
<path fill="none" stroke="black" d="M137.98,-38.06C125.2,-35.08 107.34,-32.48 92,-36.01 88.21,-36.88 84.36,-38.22 80.67,-39.77"/>
<polygon fill="black" stroke="black" points="74.23,-42.73 79.27,-36.94 77.41,-41.27 80.59,-39.8 80.59,-39.8 80.59,-39.8 77.41,-41.27 81.91,-42.67 74.23,-42.73 74.23,-42.73"/>
<text text-anchor="start" x="92" y="-39.41" font-family="Lato" font-size="12.00">a &amp; b</text>
</g>
<!-- 1&#45;&gt;0 -->
<g id="edge5" class="edge">
<title>1&#45;&gt;0</title>
<path fill="none" stroke="black" d="M174.13,-43.01C190.38,-43.01 214.98,-43.01 233.34,-43.01"/>
<polygon fill="black" stroke="black" points="240.78,-43.01 233.78,-46.16 237.28,-43.01 233.78,-43.01 233.78,-43.01 233.78,-43.01 237.28,-43.01 233.78,-39.86 240.78,-43.01 240.78,-43.01"/>
<text text-anchor="start" x="192" y="-46.41" font-family="Lato" font-size="12.00">a &amp; !b</text>
</g>
<!-- 1&#45;&gt;1 -->
<g id="edge6" class="edge">
<title>1&#45;&gt;1</title>
<path fill="none" stroke="black" d="M146.95,-61.16C145.56,-70.55 148.58,-79.01 156,-79.01 161.45,-79.01 164.52,-74.45 165.22,-68.31"/>
<polygon fill="black" stroke="black" points="165.05,-61.16 168.37,-68.08 165.13,-64.66 165.22,-68.16 165.22,-68.16 165.22,-68.16 165.13,-64.66 162.07,-68.24 165.05,-61.16 165.05,-61.16"/>
<text text-anchor="start" x="151" y="-82.41" font-family="Lato" font-size="12.00">!a</text>
</g>
</g>
</svg>
