<?xml version="1.0" encoding="UTF-8" standalone="no"?>
<?xml-stylesheet href="spot.css" type="text/css"?>
<!DOCTYPE svg PUBLIC "-//W3C//DTD SVG 1.1//EN"
 "http://www.w3.org/Graphics/SVG/1.1/DTD/svg11.dtd">
<!-- Generated by graphviz version 2.43.0 (0)
 -->
<!-- Pages: 1 -->
<svg width="107pt" height="106pt"
 viewBox="0.00 0.00 106.50 106.00" xmlns="http://www.w3.org/2000/svg" xmlns:xlink="http://www.w3.org/1999/xlink">
<g id="graph0" class="graph" transform="scale(1 1) rotate(0) translate(4 102)">
<polygon fill="white" stroke="transparent" points="-4,4 -4,-102 102.5,-102 102.5,4 -4,4"/>
<!-- I -->
<!-- 0 -->
<g id="node2" class="node">
<title>0</title>
<ellipse fill="#ffffa0" stroke="black" cx="56" cy="-18" rx="18" ry="18"/>
<text text-anchor="middle" x="56" y="-14.9" font-family="Lato" font-size="12.00">0</text>
</g>
<!-- I&#45;&gt;0 -->
<g id="edge1" class="edge">
<title>I&#45;&gt;0</title>
<path fill="none" stroke="black" d="M1.15,-18C2.79,-18 17.15,-18 30.63,-18"/>
<polygon fill="black" stroke="black" points="37.94,-18 30.94,-21.15 34.44,-18 30.94,-18 30.94,-18 30.94,-18 34.44,-18 30.94,-14.85 37.94,-18 37.94,-18"/>
</g>
<!-- 0&#45;&gt;0 -->
<g id="edge2" class="edge">
<title>0&#45;&gt;0</title>
<path fill="none" stroke="black" d="M52.76,-35.78C52.21,-45.31 53.29,-54 56,-54 57.99,-54 59.1,-49.32 59.33,-43.05"/>
<polygon fill="black" stroke="black" points="59.24,-35.78 62.48,-42.74 59.28,-39.28 59.33,-42.78 59.33,-42.78 59.33,-42.78 59.28,-39.28 56.18,-42.82 59.24,-35.78 59.24,-35.78"/>
<text text-anchor="start" x="13.5" y="-57.4" font-family="Lato" font-size="12.00">(!a &amp; !c) | (!b &amp; !c)</text>
</g>
<!-- 0&#45;&gt;0 -->
<g id="edge3" class="edge">
<title>0&#45;&gt;0</title>
<path fill="none" stroke="black" d="M50.68,-35.42C47.65,-52.79 49.43,-72 56,-72 61.7,-72 63.79,-57.55 62.27,-42.39"/>
<polygon fill="black" stroke="black" points="61.32,-35.42 65.39,-41.93 61.79,-38.89 62.26,-42.36 62.26,-42.36 62.26,-42.36 61.79,-38.89 59.14,-42.78 61.32,-35.42 61.32,-35.42"/>
<text text-anchor="start" x="32" y="-75.4" font-family="Lato" font-size="12.00">a &amp; b &amp; c</text>
</g>
</g>
</svg>
