<?xml version="1.0" encoding="UTF-8" standalone="no"?>
<?xml-stylesheet href="spot.css" type="text/css"?>
<!DOCTYPE svg PUBLIC "-//W3C//DTD SVG 1.1//EN"
 "http://www.w3.org/Graphics/SVG/1.1/DTD/svg11.dtd">
<!-- Generated by graphviz version 2.43.0 (0)
 -->
<!-- Title: (Xa &amp; Fb) | Gc Pages: 1 -->
<svg width="266pt" height="194pt"
 viewBox="0.00 0.00 266.00 194.00" xmlns="http://www.w3.org/2000/svg" xmlns:xlink="http://www.w3.org/1999/xlink">
<g id="graph0" class="graph" transform="scale(1 1) rotate(0) translate(4 190)">
<title>(Xa &amp; Fb) | Gc</title>
<polygon fill="white" stroke="transparent" points="-4,4 -4,-190 262,-190 262,4 -4,4"/>
<text text-anchor="start" x="126.5" y="-172.4" font-family="Lato" font-size="12.00">t</text>
<text text-anchor="start" x="119.5" y="-159.4" font-family="Lato" font-size="12.00">[all]</text>
<!-- I -->
<!-- 1 -->
<g id="node2" class="node">
<title>1</title>
<ellipse fill="#ffffa0" stroke="black" cx="56" cy="-76" rx="18" ry="18"/>
<text text-anchor="middle" x="56" y="-72.9" font-family="Lato" font-size="12.00">1</text>
</g>
<!-- I&#45;&gt;1 -->
<g id="edge1" class="edge">
<title>I&#45;&gt;1</title>
<path fill="none" stroke="black" d="M1.15,-76C2.79,-76 17.15,-76 30.63,-76"/>
<polygon fill="black" stroke="black" points="37.94,-76 30.94,-79.15 34.44,-76 30.94,-76 30.94,-76 30.94,-76 34.44,-76 30.94,-72.85 37.94,-76 37.94,-76"/>
</g>
<!-- 3 -->
<g id="node4" class="node">
<title>3</title>
<ellipse fill="#ffffa0" stroke="black" cx="138" cy="-103" rx="18" ry="18"/>
<text text-anchor="middle" x="138" y="-99.9" font-family="Lato" font-size="12.00">3</text>
</g>
<!-- 1&#45;&gt;3 -->
<g id="edge3" class="edge">
<title>1&#45;&gt;3</title>
<path fill="none" stroke="black" d="M73.19,-81.46C84.9,-85.42 100.89,-90.81 113.94,-95.22"/>
<polygon fill="black" stroke="black" points="120.83,-97.54 113.2,-98.29 117.52,-96.43 114.2,-95.31 114.2,-95.31 114.2,-95.31 117.52,-96.43 115.21,-92.32 120.83,-97.54 120.83,-97.54"/>
<text text-anchor="start" x="92" y="-94.4" font-family="Lato" font-size="12.00">!c</text>
</g>
<!-- 4 -->
<g id="node5" class="node">
<title>4</title>
<ellipse fill="#ffffa0" stroke="black" cx="138" cy="-49" rx="18" ry="18"/>
<text text-anchor="middle" x="138" y="-45.9" font-family="Lato" font-size="12.00">4</text>
</g>
<!-- 1&#45;&gt;4 -->
<g id="edge4" class="edge">
<title>1&#45;&gt;4</title>
<path fill="none" stroke="black" d="M73.19,-70.54C84.9,-66.58 100.89,-61.19 113.94,-56.78"/>
<polygon fill="black" stroke="black" points="120.83,-54.46 115.21,-59.68 117.52,-55.57 114.2,-56.69 114.2,-56.69 114.2,-56.69 117.52,-55.57 113.2,-53.71 120.83,-54.46 120.83,-54.46"/>
<text text-anchor="start" x="93.5" y="-67.4" font-family="Lato" font-size="12.00">c</text>
</g>
<!-- 0 -->
<g id="node3" class="node">
<title>0</title>
<ellipse fill="#ffffa0" stroke="black" cx="240" cy="-18" rx="18" ry="18"/>
<text text-anchor="middle" x="240" y="-14.9" font-family="Lato" font-size="12.00">0</text>
</g>
<!-- 0&#45;&gt;0 -->
<g id="edge2" class="edge">
<title>0&#45;&gt;0</title>
<path fill="none" stroke="black" d="M231.37,-33.92C229.11,-44.15 231.99,-54 240,-54 246.13,-54 249.25,-48.23 249.37,-40.93"/>
<polygon fill="black" stroke="black" points="248.63,-33.92 252.5,-40.55 249,-37.4 249.37,-40.88 249.37,-40.88 249.37,-40.88 249,-37.4 246.23,-41.21 248.63,-33.92 248.63,-33.92"/>
<text text-anchor="start" x="236.5" y="-57.4" font-family="Lato" font-size="12.00">c</text>
</g>
<!-- 2 -->
<g id="node6" class="node">
<title>2</title>
<ellipse fill="#ffffa0" stroke="black" cx="240" cy="-103" rx="18" ry="18"/>
<text text-anchor="middle" x="240" y="-99.9" font-family="Lato" font-size="12.00">2</text>
</g>
<!-- 3&#45;&gt;2 -->
<g id="edge6" class="edge">
<title>3&#45;&gt;2</title>
<path fill="none" stroke="black" d="M156.42,-103C172.48,-103 196.48,-103 214.48,-103"/>
<polygon fill="black" stroke="black" points="221.78,-103 214.78,-106.15 218.28,-103 214.78,-103 214.78,-103 214.78,-103 218.28,-103 214.78,-99.85 221.78,-103 221.78,-103"/>
<text text-anchor="start" x="185.5" y="-106.4" font-family="Lato" font-size="12.00">a</text>
</g>
<!-- 4&#45;&gt;0 -->
<g id="edge7" class="edge">
<title>4&#45;&gt;0</title>
<path fill="none" stroke="black" d="M153.43,-39.23C159.54,-35.5 166.88,-31.54 174,-29 187.15,-24.3 202.54,-21.58 215.04,-20.02"/>
<polygon fill="black" stroke="black" points="222.03,-19.23 215.42,-23.15 218.55,-19.62 215.07,-20.02 215.07,-20.02 215.07,-20.02 218.55,-19.62 214.72,-16.89 222.03,-19.23 222.03,-19.23"/>
<text text-anchor="start" x="174" y="-32.4" font-family="Lato" font-size="12.00">!a &amp; c</text>
</g>
<!-- 4&#45;&gt;2 -->
<g id="edge8" class="edge">
<title>4&#45;&gt;2</title>
<path fill="none" stroke="black" d="M154.19,-57.2C170.93,-66.24 198,-80.86 217.05,-91.15"/>
<polygon fill="black" stroke="black" points="223.67,-94.72 216.01,-94.17 220.59,-93.06 217.51,-91.4 217.51,-91.4 217.51,-91.4 220.59,-93.06 219.01,-88.62 223.67,-94.72 223.67,-94.72"/>
<text text-anchor="start" x="185.5" y="-86.4" font-family="Lato" font-size="12.00">a</text>
</g>
<!-- 2&#45;&gt;2 -->
<g id="edge5" class="edge">
<title>2&#45;&gt;2</title>
<path fill="none" stroke="black" d="M231.37,-118.92C229.11,-129.15 231.99,-139 240,-139 246.13,-139 249.25,-133.23 249.37,-125.93"/>
<polygon fill="black" stroke="black" points="248.63,-118.92 252.5,-125.55 249,-122.4 249.37,-125.88 249.37,-125.88 249.37,-125.88 249,-122.4 246.23,-126.21 248.63,-118.92 248.63,-118.92"/>
<text text-anchor="middle" x="240" y="-142.4" font-family="Lato" font-size="12.00">1</text>
</g>
</g>
</svg>
