<?xml version="1.0" encoding="UTF-8" standalone="no"?>
<?xml-stylesheet href="spot.css" type="text/css"?>
<!DOCTYPE svg PUBLIC "-//W3C//DTD SVG 1.1//EN"
 "http://www.w3.org/Graphics/SVG/1.1/DTD/svg11.dtd">
<!-- Generated by graphviz version 2.43.0 (0)
 -->
<!-- Title: (Xa &amp; Fb) | Gc Pages: 1 -->
<svg width="240pt" height="194pt"
 viewBox="0.00 0.00 240.00 194.00" xmlns="http://www.w3.org/2000/svg" xmlns:xlink="http://www.w3.org/1999/xlink">
<g id="graph0" class="graph" transform="scale(1 1) rotate(0) translate(4 190)">
<title>(Xa &amp; Fb) | Gc</title>
<polygon fill="white" stroke="transparent" points="-4,4 -4,-190 236,-190 236,4 -4,4"/>
<text text-anchor="start" x="113.5" y="-172.4" font-family="Lato" font-size="12.00">t</text>
<text text-anchor="start" x="106.5" y="-159.4" font-family="Lato" font-size="12.00">[all]</text>
<!-- I -->
<!-- 0 -->
<g id="node2" class="node">
<title>0</title>
<ellipse fill="#ffffa0" stroke="black" cx="56" cy="-60" rx="18" ry="18"/>
<text text-anchor="middle" x="56" y="-56.9" font-family="Lato" font-size="12.00">0</text>
</g>
<!-- I&#45;&gt;0 -->
<g id="edge1" class="edge">
<title>I&#45;&gt;0</title>
<path fill="none" stroke="black" d="M1.15,-60C2.79,-60 17.15,-60 30.63,-60"/>
<polygon fill="black" stroke="black" points="37.94,-60 30.94,-63.15 34.44,-60 30.94,-60 30.94,-60 30.94,-60 34.44,-60 30.94,-56.85 37.94,-60 37.94,-60"/>
</g>
<!-- 1 -->
<g id="node3" class="node">
<title>1</title>
<ellipse fill="#ffffa0" stroke="black" cx="135" cy="-103" rx="18" ry="18"/>
<text text-anchor="middle" x="135" y="-99.9" font-family="Lato" font-size="12.00">1</text>
</g>
<!-- 0&#45;&gt;1 -->
<g id="edge2" class="edge">
<title>0&#45;&gt;1</title>
<path fill="none" stroke="black" d="M72.21,-68.5C83.71,-74.91 99.64,-83.81 112.45,-90.96"/>
<polygon fill="black" stroke="black" points="118.82,-94.52 111.17,-93.86 115.76,-92.82 112.71,-91.11 112.71,-91.11 112.71,-91.11 115.76,-92.82 114.24,-88.36 118.82,-94.52 118.82,-94.52"/>
<text text-anchor="middle" x="95.5" y="-86.4" font-family="Lato" font-size="12.00">1</text>
</g>
<!-- 2 -->
<g id="node4" class="node">
<title>2</title>
<ellipse fill="#ffffa0" stroke="black" cx="135" cy="-18" rx="18" ry="18"/>
<text text-anchor="middle" x="135" y="-14.9" font-family="Lato" font-size="12.00">2</text>
</g>
<!-- 0&#45;&gt;2 -->
<g id="edge3" class="edge">
<title>0&#45;&gt;2</title>
<path fill="none" stroke="black" d="M72.21,-51.7C83.71,-45.43 99.64,-36.74 112.45,-29.76"/>
<polygon fill="black" stroke="black" points="118.82,-26.28 114.18,-32.4 115.75,-27.96 112.67,-29.63 112.67,-29.63 112.67,-29.63 115.75,-27.96 111.17,-26.87 118.82,-26.28 118.82,-26.28"/>
<text text-anchor="start" x="92" y="-44.4" font-family="Lato" font-size="12.00">c</text>
</g>
<!-- 3 -->
<g id="node5" class="node">
<title>3</title>
<ellipse fill="#ffffa0" stroke="black" cx="214" cy="-103" rx="18" ry="18"/>
<text text-anchor="middle" x="214" y="-99.9" font-family="Lato" font-size="12.00">3</text>
</g>
<!-- 1&#45;&gt;3 -->
<g id="edge4" class="edge">
<title>1&#45;&gt;3</title>
<path fill="none" stroke="black" d="M153.09,-103C163.56,-103 177.12,-103 188.69,-103"/>
<polygon fill="black" stroke="black" points="195.96,-103 188.96,-106.15 192.46,-103 188.96,-103 188.96,-103 188.96,-103 192.46,-103 188.96,-99.85 195.96,-103 195.96,-103"/>
<text text-anchor="start" x="171" y="-106.4" font-family="Lato" font-size="12.00">a</text>
</g>
<!-- 2&#45;&gt;2 -->
<g id="edge5" class="edge">
<title>2&#45;&gt;2</title>
<path fill="none" stroke="black" d="M128.27,-35.04C126.89,-44.86 129.14,-54 135,-54 139.4,-54 141.76,-48.86 142.09,-42.14"/>
<polygon fill="black" stroke="black" points="141.73,-35.04 145.23,-41.87 141.91,-38.53 142.08,-42.03 142.08,-42.03 142.08,-42.03 141.91,-38.53 138.93,-42.18 141.73,-35.04 141.73,-35.04"/>
<text text-anchor="start" x="131.5" y="-57.4" font-family="Lato" font-size="12.00">c</text>
</g>
<!-- 3&#45;&gt;3 -->
<g id="edge6" class="edge">
<title>3&#45;&gt;3</title>
<path fill="none" stroke="black" d="M207.27,-120.04C205.89,-129.86 208.14,-139 214,-139 218.4,-139 220.76,-133.86 221.09,-127.14"/>
<polygon fill="black" stroke="black" points="220.73,-120.04 224.23,-126.87 220.91,-123.53 221.08,-127.03 221.08,-127.03 221.08,-127.03 220.91,-123.53 217.93,-127.18 220.73,-120.04 220.73,-120.04"/>
<text text-anchor="middle" x="214" y="-142.4" font-family="Lato" font-size="12.00">1</text>
</g>
</g>
</svg>
