<?xml version="1.0" encoding="UTF-8" standalone="no"?>
<?xml-stylesheet href="spot.css" type="text/css"?>
<!DOCTYPE svg PUBLIC "-//W3C//DTD SVG 1.1//EN"
 "http://www.w3.org/Graphics/SVG/1.1/DTD/svg11.dtd">
<!-- Generated by graphviz version 2.43.0 (0)
 -->
<!-- Title: (Xa &amp; Fb) | Gc Pages: 1 -->
<svg width="372pt" height="252pt"
 viewBox="0.00 0.00 372.00 252.48" xmlns="http://www.w3.org/2000/svg" xmlns:xlink="http://www.w3.org/1999/xlink">
<g id="graph0" class="graph" transform="scale(1 1) rotate(0) translate(4 248.48)">
<title>(Xa &amp; Fb) | Gc</title>
<polygon fill="white" stroke="transparent" points="-4,4 -4,-248.48 368,-248.48 368,4 -4,4"/>
<text text-anchor="start" x="163" y="-230.88" font-family="Lato" font-size="12.00">[Büchi]</text>
<!-- I -->
<!-- 1 -->
<g id="node2" class="node">
<title>1</title>
<ellipse fill="#ffffa0" stroke="black" cx="60" cy="-98.48" rx="18" ry="18"/>
<ellipse fill="none" stroke="black" cx="60" cy="-98.48" rx="22" ry="22"/>
<text text-anchor="middle" x="60" y="-95.38" font-family="Lato" font-size="12.00">1</text>
</g>
<!-- I&#45;&gt;1 -->
<g id="edge1" class="edge">
<title>I&#45;&gt;1</title>
<path fill="none" stroke="black" d="M1.17,-98.48C2.84,-98.48 16.88,-98.48 30.71,-98.48"/>
<polygon fill="black" stroke="black" points="37.86,-98.48 30.86,-101.63 34.36,-98.48 30.86,-98.48 30.86,-98.48 30.86,-98.48 34.36,-98.48 30.86,-95.33 37.86,-98.48 37.86,-98.48"/>
</g>
<!-- 3 -->
<g id="node5" class="node">
<title>3</title>
<ellipse fill="#ffffa0" stroke="black" cx="150" cy="-141.48" rx="18" ry="18"/>
<ellipse fill="none" stroke="black" cx="150" cy="-141.48" rx="22" ry="22"/>
<text text-anchor="middle" x="150" y="-138.38" font-family="Lato" font-size="12.00">3</text>
</g>
<!-- 1&#45;&gt;3 -->
<g id="edge4" class="edge">
<title>1&#45;&gt;3</title>
<path fill="none" stroke="black" d="M80.09,-107.81C92.78,-114.01 109.58,-122.22 123.42,-128.98"/>
<polygon fill="black" stroke="black" points="129.94,-132.17 122.27,-131.93 126.8,-130.63 123.65,-129.1 123.65,-129.1 123.65,-129.1 126.8,-130.63 125.04,-126.27 129.94,-132.17 129.94,-132.17"/>
<text text-anchor="start" x="100" y="-123.88" font-family="Lato" font-size="12.00">!c</text>
</g>
<!-- 4 -->
<g id="node6" class="node">
<title>4</title>
<ellipse fill="#ffffa0" stroke="black" cx="150" cy="-67.48" rx="18" ry="18"/>
<ellipse fill="none" stroke="black" cx="150" cy="-67.48" rx="22" ry="22"/>
<text text-anchor="middle" x="150" y="-64.38" font-family="Lato" font-size="12.00">4</text>
</g>
<!-- 1&#45;&gt;4 -->
<g id="edge5" class="edge">
<title>1&#45;&gt;4</title>
<path fill="none" stroke="black" d="M80.97,-91.45C93.23,-87.13 109.09,-81.54 122.41,-76.85"/>
<polygon fill="black" stroke="black" points="129.11,-74.49 123.55,-79.78 125.81,-75.65 122.51,-76.81 122.51,-76.81 122.51,-76.81 125.81,-75.65 121.46,-73.84 129.11,-74.49 129.11,-74.49"/>
<text text-anchor="start" x="101.5" y="-86.88" font-family="Lato" font-size="12.00">c</text>
</g>
<!-- 0 -->
<g id="node3" class="node">
<title>0</title>
<ellipse fill="#ffffa0" stroke="black" cx="260" cy="-48.48" rx="18" ry="18"/>
<ellipse fill="none" stroke="black" cx="260" cy="-48.48" rx="22" ry="22"/>
<text text-anchor="middle" x="260" y="-45.38" font-family="Lato" font-size="12.00">0</text>
</g>
<!-- 0&#45;&gt;0 -->
<g id="edge2" class="edge">
<title>0&#45;&gt;0</title>
<path fill="none" stroke="black" d="M251.99,-69.06C250.89,-79.33 253.55,-88.48 260,-88.48 264.83,-88.48 267.54,-83.33 268.13,-76.43"/>
<polygon fill="black" stroke="black" points="268.01,-69.06 271.27,-76.01 268.06,-72.56 268.12,-76.06 268.12,-76.06 268.12,-76.06 268.06,-72.56 264.97,-76.11 268.01,-69.06 268.01,-69.06"/>
<text text-anchor="start" x="256.5" y="-91.88" font-family="Lato" font-size="12.00">c</text>
</g>
<!-- 5 -->
<g id="node4" class="node">
<title>5</title>
<ellipse fill="#ffffa0" stroke="black" cx="346" cy="-48.48" rx="18" ry="18"/>
<text text-anchor="middle" x="346" y="-45.38" font-family="Lato" font-size="12.00">5</text>
</g>
<!-- 0&#45;&gt;5 -->
<g id="edge3" class="edge">
<title>0&#45;&gt;5</title>
<path fill="none" stroke="black" d="M282.2,-48.48C293.87,-48.48 308.41,-48.48 320.56,-48.48"/>
<polygon fill="black" stroke="black" points="327.77,-48.48 320.77,-51.63 324.27,-48.48 320.77,-48.48 320.77,-48.48 320.77,-48.48 324.27,-48.48 320.77,-45.33 327.77,-48.48 327.77,-48.48"/>
<text text-anchor="start" x="300" y="-51.88" font-family="Lato" font-size="12.00">!c</text>
</g>
<!-- 5&#45;&gt;5 -->
<g id="edge12" class="edge">
<title>5&#45;&gt;5</title>
<path fill="none" stroke="black" d="M338.97,-65.15C337.41,-75.11 339.75,-84.48 346,-84.48 350.69,-84.48 353.18,-79.21 353.47,-72.37"/>
<polygon fill="black" stroke="black" points="353.03,-65.15 356.6,-71.94 353.24,-68.64 353.46,-72.13 353.46,-72.13 353.46,-72.13 353.24,-68.64 350.31,-72.32 353.03,-65.15 353.03,-65.15"/>
<text text-anchor="middle" x="346" y="-87.88" font-family="Lato" font-size="12.00">1</text>
</g>
<!-- 3&#45;&gt;5 -->
<g id="edge8" class="edge">
<title>3&#45;&gt;5</title>
<path fill="none" stroke="black" d="M165.51,-157.87C190.5,-184.08 242.76,-229.89 282,-203.48 325.31,-174.33 338.86,-109.72 343.09,-73.8"/>
<polygon fill="black" stroke="black" points="343.86,-66.6 346.25,-73.89 343.49,-70.08 343.11,-73.56 343.11,-73.56 343.11,-73.56 343.49,-70.08 339.98,-73.22 343.86,-66.6 343.86,-66.6"/>
<text text-anchor="start" x="255" y="-213.88" font-family="Lato" font-size="12.00">!a</text>
</g>
<!-- 2 -->
<g id="node7" class="node">
<title>2</title>
<ellipse fill="#ffffa0" stroke="black" cx="260" cy="-141.48" rx="18" ry="18"/>
<ellipse fill="none" stroke="black" cx="260" cy="-141.48" rx="22" ry="22"/>
<text text-anchor="middle" x="260" y="-138.38" font-family="Lato" font-size="12.00">2</text>
</g>
<!-- 3&#45;&gt;2 -->
<g id="edge7" class="edge">
<title>3&#45;&gt;2</title>
<path fill="none" stroke="black" d="M172.08,-141.48C188.88,-141.48 212.55,-141.48 230.95,-141.48"/>
<polygon fill="black" stroke="black" points="237.97,-141.48 230.97,-144.63 234.47,-141.48 230.97,-141.48 230.97,-141.48 230.97,-141.48 234.47,-141.48 230.97,-138.33 237.97,-141.48 237.97,-141.48"/>
<text text-anchor="start" x="201.5" y="-144.88" font-family="Lato" font-size="12.00">a</text>
</g>
<!-- 4&#45;&gt;0 -->
<g id="edge9" class="edge">
<title>4&#45;&gt;0</title>
<path fill="none" stroke="black" d="M171.82,-63.82C188.71,-60.85 212.65,-56.63 231.18,-53.38"/>
<polygon fill="black" stroke="black" points="238.24,-52.13 231.89,-56.45 234.79,-52.74 231.35,-53.35 231.35,-53.35 231.35,-53.35 234.79,-52.74 230.8,-50.24 238.24,-52.13 238.24,-52.13"/>
<text text-anchor="start" x="190" y="-63.88" font-family="Lato" font-size="12.00">!a &amp; c</text>
</g>
<!-- 4&#45;&gt;5 -->
<g id="edge11" class="edge">
<title>4&#45;&gt;5</title>
<path fill="none" stroke="black" d="M165.95,-52C182.06,-36.55 209.26,-13.79 238,-4.48 256.6,1.55 263.35,1.39 282,-4.48 298.84,-9.78 315.11,-21.36 326.89,-31.31"/>
<polygon fill="black" stroke="black" points="332.3,-36.03 324.95,-33.8 329.66,-33.73 327.03,-31.43 327.03,-31.43 327.03,-31.43 329.66,-33.73 329.1,-29.05 332.3,-36.03 332.3,-36.03"/>
<text text-anchor="start" x="243.5" y="-7.88" font-family="Lato" font-size="12.00">!a &amp; !c</text>
</g>
<!-- 4&#45;&gt;2 -->
<g id="edge10" class="edge">
<title>4&#45;&gt;2</title>
<path fill="none" stroke="black" d="M168.83,-79.7C187.08,-92.2 215.51,-111.68 235.56,-125.42"/>
<polygon fill="black" stroke="black" points="241.5,-129.49 233.94,-128.13 238.61,-127.51 235.72,-125.53 235.72,-125.53 235.72,-125.53 238.61,-127.51 237.5,-122.93 241.5,-129.49 241.5,-129.49"/>
<text text-anchor="start" x="201.5" y="-115.88" font-family="Lato" font-size="12.00">a</text>
</g>
<!-- 2&#45;&gt;2 -->
<g id="edge6" class="edge">
<title>2&#45;&gt;2</title>
<path fill="none" stroke="black" d="M251.99,-162.06C250.89,-172.33 253.55,-181.48 260,-181.48 264.83,-181.48 267.54,-176.33 268.13,-169.43"/>
<polygon fill="black" stroke="black" points="268.01,-162.06 271.27,-169.01 268.06,-165.56 268.12,-169.06 268.12,-169.06 268.12,-169.06 268.06,-165.56 264.97,-169.11 268.01,-162.06 268.01,-162.06"/>
<text text-anchor="middle" x="260" y="-184.88" font-family="Lato" font-size="12.00">1</text>
</g>
</g>
</svg>
