<?xml version="1.0" encoding="UTF-8" standalone="no"?>
<?xml-stylesheet href="spot.css" type="text/css"?>
<!DOCTYPE svg PUBLIC "-//W3C//DTD SVG 1.1//EN"
 "http://www.w3.org/Graphics/SVG/1.1/DTD/svg11.dtd">
<!-- Generated by graphviz version 2.43.0 (0)
 -->
<!-- Title: TGBA for a U b Pages: 1 -->
<svg width="170pt" height="117pt"
 viewBox="0.00 0.00 170.00 117.00" xmlns="http://www.w3.org/2000/svg" xmlns:xlink="http://www.w3.org/1999/xlink">
<g id="graph0" class="graph" transform="scale(1 1) rotate(0) translate(4 113)">
<title>TGBA for a U b</title>
<polygon fill="white" stroke="transparent" points="-4,4 -4,-113 166,-113 166,4 -4,4"/>
<text text-anchor="middle" x="81" y="-95.4" font-family="Times,serif" font-size="12.00">TGBA for a U b</text>
<text text-anchor="middle" x="81" y="-82.4" font-family="Times,serif" font-size="12.00">[Büchi]</text>
<!-- I -->
<!-- 1 -->
<g id="node2" class="node">
<title>1</title>
<ellipse fill="none" stroke="black" cx="56" cy="-22" rx="18" ry="18"/>
<text text-anchor="middle" x="56" y="-18.9" font-family="Times,serif" font-size="12.00">1</text>
</g>
<!-- I&#45;&gt;1 -->
<g id="edge1" class="edge">
<title>I&#45;&gt;1</title>
<path fill="none" stroke="black" d="M1.15,-22C2.79,-22 17.15,-22 30.63,-22"/>
<polygon fill="black" stroke="black" points="37.94,-22 30.94,-25.15 34.44,-22 30.94,-22 30.94,-22 30.94,-22 34.44,-22 30.94,-18.85 37.94,-22 37.94,-22"/>
</g>
<!-- 1&#45;&gt;1 -->
<g id="edge4" class="edge">
<title>1&#45;&gt;1</title>
<path fill="none" stroke="black" d="M49.62,-39.04C48.32,-48.86 50.45,-58 56,-58 60.17,-58 62.4,-52.86 62.71,-46.14"/>
<polygon fill="black" stroke="black" points="62.38,-39.04 65.85,-45.88 62.54,-42.53 62.71,-46.03 62.71,-46.03 62.71,-46.03 62.54,-42.53 59.56,-46.18 62.38,-39.04 62.38,-39.04"/>
<text text-anchor="middle" x="56" y="-61.4" font-family="Times,serif" font-size="12.00">a &amp; !b</text>
</g>
<!-- 0 -->
<g id="node3" class="node">
<title>0</title>
<ellipse fill="none" stroke="black" cx="140" cy="-22" rx="18" ry="18"/>
<ellipse fill="none" stroke="black" cx="140" cy="-22" rx="22" ry="22"/>
<text text-anchor="middle" x="140" y="-18.9" font-family="Times,serif" font-size="12.00">0</text>
</g>
<!-- 1&#45;&gt;0 -->
<g id="edge3" class="edge">
<title>1&#45;&gt;0</title>
<path fill="none" stroke="black" d="M74.39,-22C84.9,-22 98.55,-22 110.6,-22"/>
<polygon fill="black" stroke="black" points="117.85,-22 110.85,-25.15 114.35,-22 110.85,-22 110.85,-22 110.85,-22 114.35,-22 110.85,-18.85 117.85,-22 117.85,-22"/>
<text text-anchor="middle" x="96" y="-25.4" font-family="Times,serif" font-size="12.00">b</text>
</g>
<!-- 0&#45;&gt;0 -->
<g id="edge2" class="edge">
<title>0&#45;&gt;0</title>
<path fill="none" stroke="black" d="M131.99,-42.58C130.89,-52.84 133.55,-62 140,-62 144.83,-62 147.54,-56.85 148.13,-49.95"/>
<polygon fill="black" stroke="black" points="148.01,-42.58 151.27,-49.53 148.06,-46.08 148.12,-49.58 148.12,-49.58 148.12,-49.58 148.06,-46.08 144.97,-49.63 148.01,-42.58 148.01,-42.58"/>
<text text-anchor="middle" x="140" y="-65.4" font-family="Times,serif" font-size="12.00">1</text>
</g>
</g>
</svg>
