<?xml version="1.0" encoding="UTF-8" standalone="no"?>
<!DOCTYPE svg PUBLIC "-//W3C//DTD SVG 1.1//EN"
 "http://www.w3.org/Graphics/SVG/1.1/DTD/svg11.dtd">
<!-- Generated by graphviz version 2.43.0 (0)
 -->
<!-- Title: (Gb | F!a) W c Pages: 1 -->
<svg width="434pt" height="268pt"
 viewBox="0.00 0.00 434.00 268.00" xmlns="http://www.w3.org/2000/svg" xmlns:xlink="http://www.w3.org/1999/xlink">
<g id="graph0" class="graph" transform="scale(1 1) rotate(0) translate(4 264)">
<title>(Gb | F!a) W c</title>
<polygon fill="white" stroke="transparent" points="-4,4 -4,-264 430,-264 430,4 -4,4"/>
<text text-anchor="middle" x="213" y="-244.8" font-family="Times,serif" font-size="14.00">Inf(0)</text>
<text text-anchor="middle" x="213" y="-229.8" font-family="Times,serif" font-size="14.00">[Büchi]</text>
<!-- I -->
<!-- 0 -->
<g id="node2" class="node">
<title>0</title>
<ellipse fill="none" stroke="black" cx="56" cy="-127" rx="18" ry="18"/>
<text text-anchor="middle" x="56" y="-123.3" font-family="Times,serif" font-size="14.00">0</text>
</g>
<!-- I&#45;&gt;0 -->
<g id="edge1" class="edge">
<title>I&#45;&gt;0</title>
<path fill="none" stroke="black" d="M1.15,-127C2.67,-127 15.1,-127 27.63,-127"/>
<polygon fill="black" stroke="black" points="27.94,-130.5 37.94,-127 27.94,-123.5 27.94,-130.5"/>
</g>
<!-- 0&#45;&gt;0 -->
<g id="edge2" class="edge">
<title>0&#45;&gt;0</title>
<path fill="none" stroke="black" d="M49.62,-144.04C48.32,-153.86 50.45,-163 56,-163 59.47,-163 61.6,-159.43 62.4,-154.35"/>
<polygon fill="black" stroke="black" points="65.9,-154.03 62.38,-144.04 58.9,-154.04 65.9,-154.03"/>
<text text-anchor="middle" x="56" y="-181.8" font-family="Times,serif" font-size="14.00">!a &amp; !c</text>
<text text-anchor="middle" x="56" y="-166.8" font-family="Times,serif" font-size="14.00">{0}</text>
</g>
<!-- 1 -->
<g id="node3" class="node">
<title>1</title>
<ellipse fill="none" stroke="black" cx="408" cy="-156" rx="18" ry="18"/>
<text text-anchor="middle" x="408" y="-152.3" font-family="Times,serif" font-size="14.00">1</text>
</g>
<!-- 0&#45;&gt;1 -->
<g id="edge3" class="edge">
<title>0&#45;&gt;1</title>
<path fill="none" stroke="black" d="M70.23,-138.58C76.48,-143.59 84.27,-149.16 92,-153 130.55,-172.14 142.39,-173.94 185,-180 255.44,-190.02 338.98,-173.34 380.63,-163.09"/>
<polygon fill="black" stroke="black" points="381.69,-166.43 390.52,-160.58 379.97,-159.65 381.69,-166.43"/>
<text text-anchor="middle" x="258" y="-185.8" font-family="Times,serif" font-size="14.00">c</text>
</g>
<!-- 2 -->
<g id="node4" class="node">
<title>2</title>
<ellipse fill="none" stroke="black" cx="203" cy="-120" rx="18" ry="18"/>
<text text-anchor="middle" x="203" y="-116.3" font-family="Times,serif" font-size="14.00">2</text>
</g>
<!-- 0&#45;&gt;2 -->
<g id="edge4" class="edge">
<title>0&#45;&gt;2</title>
<path fill="none" stroke="black" d="M73.9,-129.95C95.61,-133.24 134.38,-137.44 167,-132 170.13,-131.48 173.36,-130.71 176.52,-129.81"/>
<polygon fill="black" stroke="black" points="177.84,-133.07 186.26,-126.63 175.67,-126.41 177.84,-133.07"/>
<text text-anchor="middle" x="129.5" y="-137.8" font-family="Times,serif" font-size="14.00">a &amp; !c</text>
</g>
<!-- 3 -->
<g id="node5" class="node">
<title>3</title>
<ellipse fill="none" stroke="black" cx="203" cy="-18" rx="18" ry="18"/>
<text text-anchor="middle" x="203" y="-14.3" font-family="Times,serif" font-size="14.00">3</text>
</g>
<!-- 0&#45;&gt;3 -->
<g id="edge5" class="edge">
<title>0&#45;&gt;3</title>
<path fill="none" stroke="black" d="M64.05,-110.8C70.03,-98.59 79.62,-82.09 92,-71 116.48,-49.07 151.66,-34.26 175.6,-25.99"/>
<polygon fill="black" stroke="black" points="177.02,-29.21 185.41,-22.75 174.82,-22.56 177.02,-29.21"/>
<text text-anchor="middle" x="129.5" y="-74.8" font-family="Times,serif" font-size="14.00">a &amp; b &amp; !c</text>
</g>
<!-- 1&#45;&gt;1 -->
<g id="edge6" class="edge">
<title>1&#45;&gt;1</title>
<path fill="none" stroke="black" d="M400.62,-172.66C398.98,-182.62 401.44,-192 408,-192 412.2,-192 414.72,-188.15 415.56,-182.77"/>
<polygon fill="black" stroke="black" points="419.06,-182.6 415.38,-172.66 412.06,-182.72 419.06,-182.6"/>
<text text-anchor="middle" x="408" y="-210.8" font-family="Times,serif" font-size="14.00">1</text>
<text text-anchor="middle" x="408" y="-195.8" font-family="Times,serif" font-size="14.00">{0}</text>
</g>
<!-- 2&#45;&gt;0 -->
<g id="edge7" class="edge">
<title>2&#45;&gt;0</title>
<path fill="none" stroke="black" d="M188.57,-109.06C182.39,-104.72 174.72,-100.23 167,-98 134.97,-88.77 123.36,-86.7 92,-98 86.43,-100.01 81.12,-103.33 76.4,-107.02"/>
<polygon fill="black" stroke="black" points="73.81,-104.64 68.6,-113.86 78.42,-109.9 73.81,-104.64"/>
<text text-anchor="middle" x="129.5" y="-116.8" font-family="Times,serif" font-size="14.00">!a &amp; !c</text>
<text text-anchor="middle" x="129.5" y="-101.8" font-family="Times,serif" font-size="14.00">{0}</text>
</g>
<!-- 2&#45;&gt;1 -->
<g id="edge8" class="edge">
<title>2&#45;&gt;1</title>
<path fill="none" stroke="black" d="M220.96,-123.01C256.27,-129.27 337.93,-143.75 380.35,-151.27"/>
<polygon fill="black" stroke="black" points="379.77,-154.73 390.23,-153.03 381,-147.83 379.77,-154.73"/>
<text text-anchor="middle" x="317" y="-146.8" font-family="Times,serif" font-size="14.00">!a &amp; c</text>
</g>
<!-- 2&#45;&gt;2 -->
<g id="edge9" class="edge">
<title>2&#45;&gt;2</title>
<path fill="none" stroke="black" d="M193.77,-135.54C191.17,-145.91 194.25,-156 203,-156 208.74,-156 212.04,-151.65 212.9,-145.74"/>
<polygon fill="black" stroke="black" points="216.38,-145.29 212.23,-135.54 209.39,-145.75 216.38,-145.29"/>
<text text-anchor="middle" x="203" y="-159.8" font-family="Times,serif" font-size="14.00">a &amp; !c</text>
</g>
<!-- 4 -->
<g id="node6" class="node">
<title>4</title>
<ellipse fill="none" stroke="black" cx="317" cy="-69" rx="18" ry="18"/>
<text text-anchor="middle" x="317" y="-65.3" font-family="Times,serif" font-size="14.00">4</text>
</g>
<!-- 2&#45;&gt;4 -->
<g id="edge10" class="edge">
<title>2&#45;&gt;4</title>
<path fill="none" stroke="black" d="M219.57,-112.91C238.02,-104.51 269.02,-90.39 290.87,-80.44"/>
<polygon fill="black" stroke="black" points="292.55,-83.53 300.2,-76.2 289.65,-77.15 292.55,-83.53"/>
<text text-anchor="middle" x="258" y="-106.8" font-family="Times,serif" font-size="14.00">a &amp; c</text>
</g>
<!-- 3&#45;&gt;3 -->
<g id="edge11" class="edge">
<title>3&#45;&gt;3</title>
<path fill="none" stroke="black" d="M193.77,-33.54C191.17,-43.91 194.25,-54 203,-54 208.74,-54 212.04,-49.65 212.9,-43.74"/>
<polygon fill="black" stroke="black" points="216.38,-43.29 212.23,-33.54 209.39,-43.75 216.38,-43.29"/>
<text text-anchor="middle" x="203" y="-72.8" font-family="Times,serif" font-size="14.00">b</text>
<text text-anchor="middle" x="203" y="-57.8" font-family="Times,serif" font-size="14.00">{0}</text>
</g>
<!-- 4&#45;&gt;1 -->
<g id="edge12" class="edge">
<title>4&#45;&gt;1</title>
<path fill="none" stroke="black" d="M330.38,-81.1C345.04,-95.43 369.66,-119.5 387.03,-136.48"/>
<polygon fill="black" stroke="black" points="384.85,-139.24 394.44,-143.73 389.74,-134.23 384.85,-139.24"/>
<text text-anchor="middle" x="364.5" y="-123.8" font-family="Times,serif" font-size="14.00">!a</text>
</g>
<!-- 4&#45;&gt;4 -->
<g id="edge13" class="edge">
<title>4&#45;&gt;4</title>
<path fill="none" stroke="black" d="M308.98,-85.29C307.05,-95.39 309.72,-105 317,-105 321.66,-105 324.43,-101.06 325.32,-95.57"/>
<polygon fill="black" stroke="black" points="328.81,-95.18 325.02,-85.29 321.81,-95.39 328.81,-95.18"/>
<text text-anchor="middle" x="317" y="-108.8" font-family="Times,serif" font-size="14.00">a</text>
</g>
</g>
</svg>
