<?xml version="1.0" encoding="UTF-8" standalone="no"?>
<!DOCTYPE svg PUBLIC "-//W3C//DTD SVG 1.1//EN"
 "http://www.w3.org/Graphics/SVG/1.1/DTD/svg11.dtd">
<!-- Generated by graphviz version 2.43.0 (0)
 -->
<!-- Pages: 1 -->
<svg width="598pt" height="374pt"
 viewBox="0.00 0.00 598.00 374.00" xmlns="http://www.w3.org/2000/svg" xmlns:xlink="http://www.w3.org/1999/xlink">
<g id="graph0" class="graph" transform="scale(1 1) rotate(0) translate(4 370)">
<polygon fill="white" stroke="transparent" points="-4,4 -4,-370 594,-370 594,4 -4,4"/>
<text text-anchor="middle" x="295" y="-350.8" font-family="Times,serif" font-size="14.00">(Inf(0)&amp;Inf(1)) &amp; Fin(2)</text>
<text text-anchor="middle" x="295" y="-335.8" font-family="Times,serif" font-size="14.00">[Streett&#45;like 3]</text>
<g id="clust1" class="cluster">
<title>cluster_0</title>
<polygon fill="none" stroke="grey" points="412,-153 412,-255 582,-255 582,-153 412,-153"/>
</g>
<g id="clust2" class="cluster">
<title>cluster_1</title>
<polygon fill="none" stroke="grey" points="312,-172 312,-320 364,-320 364,-172 312,-172"/>
</g>
<g id="clust3" class="cluster">
<title>cluster_2</title>
<polygon fill="none" stroke="green" points="412,-8 412,-125 582,-125 582,-8 412,-8"/>
</g>
<g id="clust4" class="cluster">
<title>cluster_3</title>
<polygon fill="none" stroke="green" points="312,-16 312,-164 364,-164 364,-16 312,-16"/>
</g>
<g id="clust5" class="cluster">
<title>cluster_4</title>
<polygon fill="none" stroke="black" points="230,-86 230,-138 282,-138 282,-86 230,-86"/>
</g>
<g id="clust6" class="cluster">
<title>cluster_5</title>
<polygon fill="none" stroke="red" points="148,-86 148,-186 200,-186 200,-86 148,-86"/>
</g>
<g id="clust7" class="cluster">
<title>cluster_6</title>
<polygon fill="none" stroke="green" points="30,-194 30,-296 200,-296 200,-194 30,-194"/>
</g>
<!-- I -->
<!-- 1 -->
<g id="node2" class="node">
<title>1</title>
<ellipse fill="none" stroke="black" cx="56" cy="-220" rx="18" ry="18"/>
<text text-anchor="middle" x="56" y="-216.3" font-family="Times,serif" font-size="14.00">1</text>
</g>
<!-- I&#45;&gt;1 -->
<g id="edge1" class="edge">
<title>I&#45;&gt;1</title>
<path fill="none" stroke="black" d="M1.15,-220C2.67,-220 15.1,-220 27.63,-220"/>
<polygon fill="black" stroke="black" points="27.94,-223.5 37.94,-220 27.94,-216.5 27.94,-223.5"/>
</g>
<!-- 4 -->
<g id="node10" class="node">
<title>4</title>
<ellipse fill="none" stroke="black" cx="174" cy="-112" rx="18" ry="18"/>
<text text-anchor="middle" x="174" y="-108.3" font-family="Times,serif" font-size="14.00">4</text>
</g>
<!-- 1&#45;&gt;4 -->
<g id="edge5" class="edge">
<title>1&#45;&gt;4</title>
<path fill="none" stroke="black" d="M69.86,-208.03C89.89,-189.38 128.73,-153.22 152.61,-130.99"/>
<polygon fill="black" stroke="black" points="155.15,-133.4 160.09,-124.02 150.38,-128.28 155.15,-133.4"/>
<text text-anchor="middle" x="115" y="-188.8" font-family="Times,serif" font-size="14.00">b</text>
</g>
<!-- 3 -->
<g id="node11" class="node">
<title>3</title>
<ellipse fill="none" stroke="black" cx="174" cy="-239" rx="18" ry="18"/>
<text text-anchor="middle" x="174" y="-235.3" font-family="Times,serif" font-size="14.00">3</text>
</g>
<!-- 1&#45;&gt;3 -->
<g id="edge6" class="edge">
<title>1&#45;&gt;3</title>
<path fill="none" stroke="black" d="M74.04,-217.97C90.64,-216.51 116.44,-215.64 138,-221 141.73,-221.93 145.52,-223.32 149.15,-224.92"/>
<polygon fill="black" stroke="black" points="147.76,-228.14 158.27,-229.5 150.91,-221.89 147.76,-228.14"/>
<text text-anchor="middle" x="115" y="-224.8" font-family="Times,serif" font-size="14.00">a &amp; !b</text>
</g>
<!-- 5 -->
<g id="node3" class="node">
<title>5</title>
<ellipse fill="none" stroke="black" cx="438" cy="-198" rx="18" ry="18"/>
<text text-anchor="middle" x="438" y="-194.3" font-family="Times,serif" font-size="14.00">5</text>
</g>
<!-- 6 -->
<g id="node4" class="node">
<title>6</title>
<ellipse fill="none" stroke="black" cx="556" cy="-204" rx="18" ry="18"/>
<text text-anchor="middle" x="556" y="-200.3" font-family="Times,serif" font-size="14.00">6</text>
</g>
<!-- 5&#45;&gt;6 -->
<g id="edge12" class="edge">
<title>5&#45;&gt;6</title>
<path fill="none" stroke="black" d="M453.72,-188.46C459.75,-185.08 466.96,-181.7 474,-180 493.87,-175.19 500.47,-173.95 520,-180 524.76,-181.48 529.45,-183.85 533.78,-186.54"/>
<polygon fill="black" stroke="black" points="531.85,-189.46 542.05,-192.33 535.86,-183.73 531.85,-189.46"/>
<text text-anchor="middle" x="497" y="-198.8" font-family="Times,serif" font-size="14.00">1</text>
<text text-anchor="middle" x="497" y="-183.8" font-family="Times,serif" font-size="14.00">{1}</text>
</g>
<!-- 6&#45;&gt;5 -->
<g id="edge13" class="edge">
<title>6&#45;&gt;5</title>
<path fill="none" stroke="black" d="M538.14,-207.57C521.68,-210.52 495.98,-213.66 474,-210 470.87,-209.48 467.64,-208.71 464.48,-207.81"/>
<polygon fill="black" stroke="black" points="465.33,-204.41 454.74,-204.63 463.16,-211.07 465.33,-204.41"/>
<text text-anchor="middle" x="497" y="-214.8" font-family="Times,serif" font-size="14.00">1</text>
</g>
<!-- 0 -->
<g id="node5" class="node">
<title>0</title>
<ellipse fill="none" stroke="black" cx="338" cy="-198" rx="18" ry="18"/>
<text text-anchor="middle" x="338" y="-194.3" font-family="Times,serif" font-size="14.00">0</text>
</g>
<!-- 0&#45;&gt;5 -->
<g id="edge4" class="edge">
<title>0&#45;&gt;5</title>
<path fill="none" stroke="black" d="M356.07,-198C370.88,-198 392.57,-198 409.77,-198"/>
<polygon fill="black" stroke="black" points="409.8,-201.5 419.8,-198 409.8,-194.5 409.8,-201.5"/>
<text text-anchor="middle" x="388" y="-216.8" font-family="Times,serif" font-size="14.00">a</text>
<text text-anchor="middle" x="388" y="-201.8" font-family="Times,serif" font-size="14.00">{2}</text>
</g>
<!-- 0&#45;&gt;0 -->
<g id="edge2" class="edge">
<title>0&#45;&gt;0</title>
<path fill="none" stroke="black" d="M334.4,-215.78C333.79,-225.31 334.99,-234 338,-234 339.83,-234 340.99,-230.77 341.48,-226.1"/>
<polygon fill="black" stroke="black" points="344.99,-225.82 341.6,-215.78 337.99,-225.74 344.99,-225.82"/>
<text text-anchor="middle" x="338" y="-252.8" font-family="Times,serif" font-size="14.00">a &amp; b</text>
<text text-anchor="middle" x="338" y="-237.8" font-family="Times,serif" font-size="14.00">{0,1,2}</text>
</g>
<!-- 0&#45;&gt;0 -->
<g id="edge3" class="edge">
<title>0&#45;&gt;0</title>
<path fill="none" stroke="black" d="M332.49,-215.25C328.59,-236.43 330.42,-264 338,-264 344.42,-264 346.72,-244.19 344.89,-225.26"/>
<polygon fill="black" stroke="black" points="348.34,-224.67 343.51,-215.25 341.41,-225.63 348.34,-224.67"/>
<text text-anchor="middle" x="338" y="-282.8" font-family="Times,serif" font-size="14.00">!a &amp; !b</text>
<text text-anchor="middle" x="338" y="-267.8" font-family="Times,serif" font-size="14.00">{2}</text>
</g>
<!-- 8 -->
<g id="node6" class="node">
<title>8</title>
<ellipse fill="none" stroke="black" cx="438" cy="-42" rx="18" ry="18"/>
<text text-anchor="middle" x="438" y="-38.3" font-family="Times,serif" font-size="14.00">8</text>
</g>
<!-- 8&#45;&gt;8 -->
<g id="edge17" class="edge">
<title>8&#45;&gt;8</title>
<path fill="none" stroke="black" d="M429.37,-57.92C427.11,-68.15 429.99,-78 438,-78 443.26,-78 446.3,-73.76 447.14,-67.95"/>
<polygon fill="black" stroke="black" points="450.63,-67.73 446.63,-57.92 443.64,-68.08 450.63,-67.73"/>
<text text-anchor="middle" x="438" y="-96.8" font-family="Times,serif" font-size="14.00">!a &amp; b</text>
<text text-anchor="middle" x="438" y="-81.8" font-family="Times,serif" font-size="14.00">{0,2}</text>
</g>
<!-- 9 -->
<g id="node7" class="node">
<title>9</title>
<ellipse fill="none" stroke="black" cx="556" cy="-42" rx="18" ry="18"/>
<text text-anchor="middle" x="556" y="-38.3" font-family="Times,serif" font-size="14.00">9</text>
</g>
<!-- 8&#45;&gt;9 -->
<g id="edge18" class="edge">
<title>8&#45;&gt;9</title>
<path fill="none" stroke="black" d="M455.63,-37.98C461.41,-36.76 467.96,-35.6 474,-35 494.34,-32.99 499.66,-32.99 520,-35 522.74,-35.27 525.58,-35.66 528.41,-36.11"/>
<polygon fill="black" stroke="black" points="527.89,-39.58 538.37,-37.98 529.18,-32.7 527.89,-39.58"/>
<text text-anchor="middle" x="497" y="-53.8" font-family="Times,serif" font-size="14.00">a &amp; b</text>
<text text-anchor="middle" x="497" y="-38.8" font-family="Times,serif" font-size="14.00">{0,1}</text>
</g>
<!-- 9&#45;&gt;8 -->
<g id="edge19" class="edge">
<title>9&#45;&gt;8</title>
<path fill="none" stroke="black" d="M541.64,-53.43C535.48,-57.97 527.8,-62.67 520,-65 500.41,-70.86 493.59,-70.86 474,-65 469.49,-63.65 465.02,-61.51 460.86,-59.07"/>
<polygon fill="black" stroke="black" points="462.63,-56.04 452.36,-53.43 458.76,-61.87 462.63,-56.04"/>
<text text-anchor="middle" x="497" y="-87.8" font-family="Times,serif" font-size="14.00">!a &amp; b</text>
<text text-anchor="middle" x="497" y="-72.8" font-family="Times,serif" font-size="14.00">{0,1}</text>
</g>
<!-- 9&#45;&gt;9 -->
<g id="edge20" class="edge">
<title>9&#45;&gt;9</title>
<path fill="none" stroke="black" d="M546.19,-57.17C543.21,-67.66 546.48,-78 556,-78 562.24,-78 565.8,-73.55 566.67,-67.52"/>
<polygon fill="black" stroke="black" points="570.12,-66.85 565.81,-57.17 563.15,-67.42 570.12,-66.85"/>
<text text-anchor="middle" x="556" y="-96.8" font-family="Times,serif" font-size="14.00">a &amp; b</text>
<text text-anchor="middle" x="556" y="-81.8" font-family="Times,serif" font-size="14.00">{0,2}</text>
</g>
<!-- 7 -->
<g id="node8" class="node">
<title>7</title>
<ellipse fill="none" stroke="black" cx="338" cy="-42" rx="18" ry="18"/>
<text text-anchor="middle" x="338" y="-38.3" font-family="Times,serif" font-size="14.00">7</text>
</g>
<!-- 7&#45;&gt;8 -->
<g id="edge16" class="edge">
<title>7&#45;&gt;8</title>
<path fill="none" stroke="black" d="M356.07,-42C370.88,-42 392.57,-42 409.77,-42"/>
<polygon fill="black" stroke="black" points="409.8,-45.5 419.8,-42 409.8,-38.5 409.8,-45.5"/>
<text text-anchor="middle" x="388" y="-45.8" font-family="Times,serif" font-size="14.00">1</text>
</g>
<!-- 7&#45;&gt;7 -->
<g id="edge14" class="edge">
<title>7&#45;&gt;7</title>
<path fill="none" stroke="black" d="M334.4,-59.78C333.79,-69.31 334.99,-78 338,-78 339.83,-78 340.99,-74.77 341.48,-70.1"/>
<polygon fill="black" stroke="black" points="344.99,-69.82 341.6,-59.78 337.99,-69.74 344.99,-69.82"/>
<text text-anchor="middle" x="338" y="-96.8" font-family="Times,serif" font-size="14.00">!a &amp; b</text>
<text text-anchor="middle" x="338" y="-81.8" font-family="Times,serif" font-size="14.00">{0,2}</text>
</g>
<!-- 7&#45;&gt;7 -->
<g id="edge15" class="edge">
<title>7&#45;&gt;7</title>
<path fill="none" stroke="black" d="M332.49,-59.25C328.59,-80.43 330.42,-108 338,-108 344.42,-108 346.72,-88.19 344.89,-69.26"/>
<polygon fill="black" stroke="black" points="348.34,-68.67 343.51,-59.25 341.41,-69.63 348.34,-68.67"/>
<text text-anchor="middle" x="338" y="-126.8" font-family="Times,serif" font-size="14.00">a &amp; b</text>
<text text-anchor="middle" x="338" y="-111.8" font-family="Times,serif" font-size="14.00">{0,1}</text>
</g>
<!-- 2 -->
<g id="node9" class="node">
<title>2</title>
<ellipse fill="none" stroke="black" cx="256" cy="-112" rx="18" ry="18"/>
<text text-anchor="middle" x="256" y="-108.3" font-family="Times,serif" font-size="14.00">2</text>
</g>
<!-- 2&#45;&gt;0 -->
<g id="edge7" class="edge">
<title>2&#45;&gt;0</title>
<path fill="none" stroke="black" d="M268.8,-124.69C281.8,-138.66 302.88,-161.32 318.17,-177.76"/>
<polygon fill="black" stroke="black" points="315.77,-180.32 325.15,-185.26 320.9,-175.55 315.77,-180.32"/>
<text text-anchor="middle" x="297" y="-163.8" font-family="Times,serif" font-size="14.00">a</text>
</g>
<!-- 2&#45;&gt;7 -->
<g id="edge8" class="edge">
<title>2&#45;&gt;7</title>
<path fill="none" stroke="black" d="M270.21,-100.44C282.72,-89.5 301.69,-72.9 316.22,-60.18"/>
<polygon fill="black" stroke="black" points="318.55,-62.8 323.77,-53.58 313.94,-57.53 318.55,-62.8"/>
<text text-anchor="middle" x="297" y="-84.8" font-family="Times,serif" font-size="14.00">b</text>
</g>
<!-- 4&#45;&gt;2 -->
<g id="edge11" class="edge">
<title>4&#45;&gt;2</title>
<path fill="none" stroke="black" d="M192.36,-112C202.7,-112 216.06,-112 227.78,-112"/>
<polygon fill="black" stroke="black" points="227.95,-115.5 237.95,-112 227.95,-108.5 227.95,-115.5"/>
<text text-anchor="middle" x="215" y="-115.8" font-family="Times,serif" font-size="14.00">b</text>
</g>
<!-- 4&#45;&gt;4 -->
<g id="edge10" class="edge">
<title>4&#45;&gt;4</title>
<path fill="none" stroke="black" d="M166.97,-128.66C165.41,-138.62 167.75,-148 174,-148 178,-148 180.4,-144.15 181.2,-138.77"/>
<polygon fill="black" stroke="black" points="184.7,-138.6 181.03,-128.66 177.7,-138.72 184.7,-138.6"/>
<text text-anchor="middle" x="174" y="-166.8" font-family="Times,serif" font-size="14.00">!b</text>
<text text-anchor="middle" x="174" y="-151.8" font-family="Times,serif" font-size="14.00">{1,2}</text>
</g>
<!-- 3&#45;&gt;1 -->
<g id="edge9" class="edge">
<title>3&#45;&gt;1</title>
<path fill="none" stroke="black" d="M155.99,-240.27C139.42,-241.07 113.63,-241.13 92,-236 88.51,-235.17 84.95,-233.99 81.5,-232.64"/>
<polygon fill="black" stroke="black" points="82.77,-229.37 72.21,-228.53 79.94,-235.78 82.77,-229.37"/>
<text text-anchor="middle" x="115" y="-258.8" font-family="Times,serif" font-size="14.00">a &amp; b</text>
<text text-anchor="middle" x="115" y="-243.8" font-family="Times,serif" font-size="14.00">{0,1}</text>
</g>
</g>
</svg>
