<?xml version="1.0" encoding="UTF-8" standalone="no"?>
<?xml-stylesheet href="spot.css" type="text/css"?>
<!DOCTYPE svg PUBLIC "-//W3C//DTD SVG 1.1//EN"
 "http://www.w3.org/Graphics/SVG/1.1/DTD/svg11.dtd">
<!-- Generated by graphviz version 2.43.0 (0)
 -->
<!-- Title: GFa &lt;&#45;&gt; XGb Pages: 1 -->
<svg width="243pt" height="151pt"
 viewBox="0.00 0.00 243.00 151.00" xmlns="http://www.w3.org/2000/svg" xmlns:xlink="http://www.w3.org/1999/xlink">
<g id="iddemo" class="graph" transform="scale(1 1) rotate(0) translate(4 147)">
<title>GFa &lt;&#45;&gt; XGb</title>
<polygon fill="white" stroke="transparent" points="-4,4 -4,-147 239,-147 239,4 -4,4"/>
<text text-anchor="start" x="23.5" y="-130.4" font-family="Lato" font-size="12.00">(Inf(</text>
<text text-anchor="start" x="44.5" y="-130.4" font-family="Lato" font-size="12.00" fill="#1f78b4">⓿</text>
<text text-anchor="start" x="58.5" y="-130.4" font-family="Lato" font-size="12.00">)&amp;Inf(</text>
<text text-anchor="start" x="87.5" y="-130.4" font-family="Lato" font-size="12.00" fill="#ff4da0">❶</text>
<text text-anchor="start" x="101.5" y="-130.4" font-family="Lato" font-size="12.00">)) | (Fin(</text>
<text text-anchor="start" x="139.5" y="-130.4" font-family="Lato" font-size="12.00" fill="#1f78b4">⓿</text>
<text text-anchor="start" x="153.5" y="-130.4" font-family="Lato" font-size="12.00">) &amp; Fin(</text>
<text text-anchor="start" x="190.5" y="-130.4" font-family="Lato" font-size="12.00" fill="#ff4da0">❶</text>
<text text-anchor="start" x="204.5" y="-130.4" font-family="Lato" font-size="12.00">))</text>
<!-- I -->
<!-- 0 -->
<g id="S0" class="node">
<title>0</title>
<ellipse fill="#ffffa0" stroke="black" cx="56" cy="-18" rx="18" ry="18"/>
<text text-anchor="middle" x="56" y="-14.9" font-family="Lato" font-size="12.00">0</text>
</g>
<!-- I&#45;&gt;0 -->
<g id="iddemo_edge1" class="edge">
<title>I&#45;&gt;0</title>
<path fill="none" stroke="black" d="M1.15,-18C2.79,-18 17.15,-18 30.63,-18"/>
<polygon fill="black" stroke="black" points="37.94,-18 30.94,-21.15 34.44,-18 30.94,-18 30.94,-18 30.94,-18 34.44,-18 30.94,-14.85 37.94,-18 37.94,-18"/>
</g>
<!-- 1 -->
<g id="S1" class="node">
<title>1</title>
<ellipse fill="#ffffa0" stroke="black" cx="135" cy="-18" rx="18" ry="18"/>
<text text-anchor="middle" x="135" y="-14.9" font-family="Lato" font-size="12.00">1</text>
</g>
<!-- 0&#45;&gt;1 -->
<g id="E1" class="edge">
<title>0&#45;&gt;1</title>
<g id="a_E1"><a xlink:title="0&#45;&gt;1&#10;#1">
<path fill="none" stroke="black" d="M74.09,-18C84.56,-18 98.12,-18 109.69,-18"/>
<polygon fill="black" stroke="black" points="116.96,-18 109.96,-21.15 113.46,-18 109.96,-18 109.96,-18 109.96,-18 113.46,-18 109.96,-14.85 116.96,-18 116.96,-18"/>
</a>
</g>
<text text-anchor="middle" x="95.5" y="-21.4" font-family="Lato" font-size="12.00">1</text>
</g>
<!-- 1&#45;&gt;1 -->
<g id="E2" class="edge">
<title>1&#45;&gt;1</title>
<g id="a_E2"><a xlink:title="1&#45;&gt;1&#10;#2">
<path fill="none" stroke="black" d="M131.58,-35.78C131,-45.31 132.14,-54 135,-54 137.1,-54 138.27,-49.32 138.51,-43.05"/>
<polygon fill="black" stroke="black" points="138.42,-35.78 141.66,-42.74 138.46,-39.28 138.51,-42.78 138.51,-42.78 138.51,-42.78 138.46,-39.28 135.36,-42.82 138.42,-35.78 138.42,-35.78"/>
</a>
</g>
<text text-anchor="start" x="119.5" y="-70.4" font-family="Lato" font-size="12.00">!a &amp; b</text>
<text text-anchor="start" x="128" y="-57.4" font-family="Lato" font-size="12.00" fill="#1f78b4">⓿</text>
</g>
<!-- 1&#45;&gt;1 -->
<g id="E3" class="edge">
<title>1&#45;&gt;1</title>
<g id="a_E3"><a xlink:title="1&#45;&gt;1&#10;#3">
<path fill="none" stroke="black" d="M129.66,-35.28C126.09,-55.25 127.88,-80 135,-80 141.29,-80 143.42,-60.71 141.38,-42.45"/>
<polygon fill="black" stroke="black" points="140.34,-35.28 144.46,-41.76 140.84,-38.75 141.34,-42.21 141.34,-42.21 141.34,-42.21 140.84,-38.75 138.22,-42.66 140.34,-35.28 140.34,-35.28"/>
</a>
</g>
<text text-anchor="start" x="121" y="-95.4" font-family="Lato" font-size="12.00">a &amp; b</text>
<text text-anchor="start" x="121" y="-83.4" font-family="Lato" font-size="12.00" fill="#1f78b4">⓿</text>
<text text-anchor="start" x="135" y="-83.4" font-family="Lato" font-size="12.00" fill="#ff4da0">❶</text>
</g>
<!-- 2 -->
<g id="S2" class="node">
<title>2</title>
<ellipse fill="#ffffa0" stroke="black" cx="217" cy="-18" rx="18" ry="18"/>
<text text-anchor="middle" x="217" y="-14.9" font-family="Lato" font-size="12.00">2</text>
</g>
<!-- 1&#45;&gt;2 -->
<g id="E4" class="edge">
<title>1&#45;&gt;2</title>
<g id="a_E4"><a xlink:title="1&#45;&gt;2&#10;#4">
<path fill="none" stroke="black" d="M153.36,-18C164.55,-18 179.26,-18 191.61,-18"/>
<polygon fill="black" stroke="black" points="198.95,-18 191.95,-21.15 195.45,-18 191.95,-18 191.95,-18 191.95,-18 195.45,-18 191.95,-14.85 198.95,-18 198.95,-18"/>
</a>
</g>
<text text-anchor="start" x="171" y="-21.4" font-family="Lato" font-size="12.00">!b</text>
</g>
<!-- 2&#45;&gt;2 -->
<g id="E5" class="edge">
<title>2&#45;&gt;2</title>
<g id="a_E5"><a xlink:title="2&#45;&gt;2&#10;#5">
<path fill="none" stroke="black" d="M213.4,-35.78C212.79,-45.31 213.99,-54 217,-54 219.21,-54 220.44,-49.32 220.7,-43.05"/>
<polygon fill="black" stroke="black" points="220.6,-35.78 223.85,-42.74 220.65,-39.28 220.7,-42.78 220.7,-42.78 220.7,-42.78 220.65,-39.28 217.55,-42.83 220.6,-35.78 220.6,-35.78"/>
</a>
</g>
<text text-anchor="start" x="212" y="-57.4" font-family="Lato" font-size="12.00">!a</text>
</g>
<!-- 2&#45;&gt;2 -->
<g id="E6" class="edge">
<title>2&#45;&gt;2</title>
<g id="a_E6"><a xlink:title="2&#45;&gt;2&#10;#6">
<path fill="none" stroke="black" d="M211.15,-35.14C207.71,-52.58 209.66,-72 217,-72 223.37,-72 225.68,-57.4 223.94,-42.15"/>
<polygon fill="black" stroke="black" points="222.85,-35.14 227.04,-41.58 223.39,-38.6 223.92,-42.06 223.92,-42.06 223.92,-42.06 223.39,-38.6 220.81,-42.54 222.85,-35.14 222.85,-35.14"/>
</a>
</g>
<text text-anchor="start" x="213.5" y="-88.4" font-family="Lato" font-size="12.00">a</text>
<text text-anchor="start" x="210" y="-75.4" font-family="Lato" font-size="12.00" fill="#ff4da0">❶</text>
</g>
</g>
</svg>
