<?xml version="1.0" encoding="UTF-8" standalone="no"?>
<!DOCTYPE svg PUBLIC "-//W3C//DTD SVG 1.1//EN"
 "http://www.w3.org/Graphics/SVG/1.1/DTD/svg11.dtd">
<!-- Generated by graphviz version 2.43.0 (0)
 -->
<!-- Title: (Gb | F!a) W c Pages: 1 -->
<svg width="300pt" height="427pt"
 viewBox="0.00 0.00 300.00 427.00" xmlns="http://www.w3.org/2000/svg" xmlns:xlink="http://www.w3.org/1999/xlink">
<g id="graph0" class="graph" transform="scale(1 1) rotate(0) translate(4 423)">
<title>(Gb | F!a) W c</title>
<polygon fill="white" stroke="transparent" points="-4,4 -4,-423 296,-423 296,4 -4,4"/>
<text text-anchor="middle" x="146" y="-403.8" font-family="Times,serif" font-size="14.00">(Gb | F!a) W c</text>
<text text-anchor="middle" x="146" y="-388.8" font-family="Times,serif" font-size="14.00">Inf(0)</text>
<text text-anchor="middle" x="146" y="-373.8" font-family="Times,serif" font-size="14.00">[Büchi]</text>
<g id="clust1" class="cluster">
<title>cluster_0</title>
<polygon fill="none" stroke="green" points="67,-8 67,-60 165,-60 165,-8 67,-8"/>
</g>
<g id="clust2" class="cluster">
<title>cluster_1</title>
<polygon fill="none" stroke="red" points="67,-95 67,-147 146,-147 146,-95 67,-95"/>
</g>
<g id="clust3" class="cluster">
<title>cluster_2</title>
<polygon fill="none" stroke="green" points="186,-182 186,-234 284,-234 284,-182 186,-182"/>
</g>
<g id="clust4" class="cluster">
<title>cluster_3</title>
<polygon fill="none" stroke="green" points="8,-182 8,-336 159,-336 159,-182 8,-182"/>
</g>
<!-- I -->
<!-- 0 -->
<g id="node2" class="node">
<title>0</title>
<ellipse fill="none" stroke="black" cx="65" cy="-310" rx="18" ry="18"/>
<text text-anchor="middle" x="65" y="-306.3" font-family="Times,serif" font-size="14.00">0</text>
</g>
<!-- I&#45;&gt;0 -->
<g id="edge1" class="edge">
<title>I&#45;&gt;0</title>
<path fill="none" stroke="black" d="M65,-364.85C65,-363.33 65,-350.9 65,-338.37"/>
<polygon fill="black" stroke="black" points="68.5,-338.06 65,-328.06 61.5,-338.06 68.5,-338.06"/>
</g>
<!-- 0&#45;&gt;0 -->
<g id="edge2" class="edge">
<title>0&#45;&gt;0</title>
<path fill="none" stroke="black" d="M82.04,-316.38C91.86,-317.68 101,-315.55 101,-310 101,-306.53 97.43,-304.4 92.35,-303.6"/>
<polygon fill="black" stroke="black" points="92.03,-300.1 82.04,-303.62 92.04,-307.1 92.03,-300.1"/>
<text text-anchor="middle" x="126" y="-313.8" font-family="Times,serif" font-size="14.00">!a &amp; !c</text>
<text text-anchor="middle" x="126" y="-298.8" font-family="Times,serif" font-size="14.00">{0}</text>
</g>
<!-- 1 -->
<g id="node3" class="node">
<title>1</title>
<ellipse fill="none" stroke="black" cx="93" cy="-34" rx="18" ry="18"/>
<text text-anchor="middle" x="93" y="-30.3" font-family="Times,serif" font-size="14.00">1</text>
</g>
<!-- 0&#45;&gt;1 -->
<g id="edge3" class="edge">
<title>0&#45;&gt;1</title>
<path fill="none" stroke="black" d="M82.5,-305.26C98.89,-300.78 122.66,-291.57 135,-274 167.67,-227.49 146.66,-203.74 150,-147 151.36,-123.93 158.57,-116.46 150,-95 143.01,-77.49 128.2,-62.16 115.43,-51.38"/>
<polygon fill="black" stroke="black" points="117.43,-48.5 107.44,-44.98 113.06,-53.96 117.43,-48.5"/>
<text text-anchor="middle" x="153" y="-160.8" font-family="Times,serif" font-size="14.00">c</text>
</g>
<!-- 3 -->
<g id="node5" class="node">
<title>3</title>
<ellipse fill="none" stroke="black" cx="212" cy="-208" rx="18" ry="18"/>
<text text-anchor="middle" x="212" y="-204.3" font-family="Times,serif" font-size="14.00">3</text>
</g>
<!-- 0&#45;&gt;3 -->
<g id="edge5" class="edge">
<title>0&#45;&gt;3</title>
<path fill="none" stroke="black" d="M83.05,-307.89C107.65,-305.49 151.85,-297.92 180,-274 191.76,-264 199.6,-248.66 204.57,-235.38"/>
<polygon fill="black" stroke="black" points="207.94,-236.35 207.84,-225.76 201.31,-234.11 207.94,-236.35"/>
<text text-anchor="middle" x="237.5" y="-255.3" font-family="Times,serif" font-size="14.00">a &amp; b &amp; !c</text>
</g>
<!-- 2 -->
<g id="node6" class="node">
<title>2</title>
<ellipse fill="none" stroke="black" cx="43" cy="-208" rx="18" ry="18"/>
<text text-anchor="middle" x="43" y="-204.3" font-family="Times,serif" font-size="14.00">2</text>
</g>
<!-- 0&#45;&gt;2 -->
<g id="edge4" class="edge">
<title>0&#45;&gt;2</title>
<path fill="none" stroke="black" d="M51.73,-297.8C45.36,-291.54 38.39,-283.16 35,-274 30.42,-261.63 31.64,-247.12 34.33,-234.95"/>
<polygon fill="black" stroke="black" points="37.8,-235.54 36.98,-224.98 31.03,-233.75 37.8,-235.54"/>
<text text-anchor="middle" x="57" y="-255.3" font-family="Times,serif" font-size="14.00">a &amp; !c</text>
</g>
<!-- 1&#45;&gt;1 -->
<g id="edge6" class="edge">
<title>1&#45;&gt;1</title>
<path fill="none" stroke="black" d="M109.66,-41.38C119.62,-43.02 129,-40.56 129,-34 129,-29.8 125.15,-27.28 119.77,-26.44"/>
<polygon fill="black" stroke="black" points="119.6,-22.94 109.66,-26.62 119.72,-29.94 119.6,-22.94"/>
<text text-anchor="middle" x="143" y="-37.8" font-family="Times,serif" font-size="14.00">1</text>
<text text-anchor="middle" x="143" y="-22.8" font-family="Times,serif" font-size="14.00">{0}</text>
</g>
<!-- 4 -->
<g id="node4" class="node">
<title>4</title>
<ellipse fill="none" stroke="black" cx="93" cy="-121" rx="18" ry="18"/>
<text text-anchor="middle" x="93" y="-117.3" font-family="Times,serif" font-size="14.00">4</text>
</g>
<!-- 4&#45;&gt;1 -->
<g id="edge12" class="edge">
<title>4&#45;&gt;1</title>
<path fill="none" stroke="black" d="M93,-102.8C93,-91.16 93,-75.55 93,-62.24"/>
<polygon fill="black" stroke="black" points="96.5,-62.18 93,-52.18 89.5,-62.18 96.5,-62.18"/>
<text text-anchor="middle" x="100.5" y="-73.8" font-family="Times,serif" font-size="14.00">!a</text>
</g>
<!-- 4&#45;&gt;4 -->
<g id="edge13" class="edge">
<title>4&#45;&gt;4</title>
<path fill="none" stroke="black" d="M109.66,-128.38C119.62,-130.02 129,-127.56 129,-121 129,-116.8 125.15,-114.28 119.77,-113.44"/>
<polygon fill="black" stroke="black" points="119.6,-109.94 109.66,-113.62 119.72,-116.94 119.6,-109.94"/>
<text text-anchor="middle" x="133.5" y="-117.3" font-family="Times,serif" font-size="14.00">a</text>
</g>
<!-- 3&#45;&gt;3 -->
<g id="edge11" class="edge">
<title>3&#45;&gt;3</title>
<path fill="none" stroke="black" d="M228.66,-215.38C238.62,-217.02 248,-214.56 248,-208 248,-203.8 244.15,-201.28 238.77,-200.44"/>
<polygon fill="black" stroke="black" points="238.6,-196.94 228.66,-200.62 238.72,-203.94 238.6,-196.94"/>
<text text-anchor="middle" x="262" y="-211.8" font-family="Times,serif" font-size="14.00">b</text>
<text text-anchor="middle" x="262" y="-196.8" font-family="Times,serif" font-size="14.00">{0}</text>
</g>
<!-- 2&#45;&gt;0 -->
<g id="edge7" class="edge">
<title>2&#45;&gt;0</title>
<path fill="none" stroke="black" d="M57.74,-218.79C65.66,-224.97 74.66,-233.72 79,-244 84.42,-256.84 81.62,-272.02 77.14,-284.49"/>
<polygon fill="black" stroke="black" points="73.87,-283.22 73.31,-293.8 80.35,-285.88 73.87,-283.22"/>
<text text-anchor="middle" x="106" y="-262.8" font-family="Times,serif" font-size="14.00">!a &amp; !c</text>
<text text-anchor="middle" x="106" y="-247.8" font-family="Times,serif" font-size="14.00">{0}</text>
</g>
<!-- 2&#45;&gt;1 -->
<g id="edge8" class="edge">
<title>2&#45;&gt;1</title>
<path fill="none" stroke="black" d="M34.04,-192.16C21.92,-170.03 3.51,-127.49 19,-95 29.09,-73.84 50.69,-57.71 67.97,-47.54"/>
<polygon fill="black" stroke="black" points="69.98,-50.42 77.02,-42.5 66.58,-44.31 69.98,-50.42"/>
<text text-anchor="middle" x="41" y="-117.3" font-family="Times,serif" font-size="14.00">!a &amp; c</text>
</g>
<!-- 2&#45;&gt;4 -->
<g id="edge10" class="edge">
<title>2&#45;&gt;4</title>
<path fill="none" stroke="black" d="M51.71,-192.19C59.26,-179.35 70.33,-160.54 79.11,-145.62"/>
<polygon fill="black" stroke="black" points="82.17,-147.32 84.22,-136.92 76.14,-143.77 82.17,-147.32"/>
<text text-anchor="middle" x="89" y="-160.8" font-family="Times,serif" font-size="14.00">a &amp; c</text>
</g>
<!-- 2&#45;&gt;2 -->
<g id="edge9" class="edge">
<title>2&#45;&gt;2</title>
<path fill="none" stroke="black" d="M59.66,-215.38C69.62,-217.02 79,-214.56 79,-208 79,-203.8 75.15,-201.28 69.77,-200.44"/>
<polygon fill="black" stroke="black" points="69.6,-196.94 59.66,-200.62 69.72,-203.94 69.6,-196.94"/>
<text text-anchor="middle" x="101" y="-204.3" font-family="Times,serif" font-size="14.00">a &amp; !c</text>
</g>
</g>
</svg>
