<?xml version="1.0" encoding="UTF-8" standalone="no"?>
<?xml-stylesheet href="spot.css" type="text/css"?>
<!DOCTYPE svg PUBLIC "-//W3C//DTD SVG 1.1//EN"
 "http://www.w3.org/Graphics/SVG/1.1/DTD/svg11.dtd">
<!-- Generated by graphviz version 2.43.0 (0)
 -->
<!-- Pages: 1 -->
<svg width="934pt" height="370pt"
 viewBox="0.00 0.00 934.00 370.00" xmlns="http://www.w3.org/2000/svg" xmlns:xlink="http://www.w3.org/1999/xlink">
<g id="graph0" class="graph" transform="scale(1 1) rotate(0) translate(4 366)">
<polygon fill="white" stroke="transparent" points="-4,4 -4,-366 930,-366 930,4 -4,4"/>
<text text-anchor="start" x="366" y="-349.4" font-family="Lato" font-size="12.00">Fin(</text>
<text text-anchor="start" x="386" y="-349.4" font-family="Lato" font-size="12.00" fill="#1f78b4">⓿</text>
<text text-anchor="start" x="400" y="-349.4" font-family="Lato" font-size="12.00">) &amp; (Inf(</text>
<text text-anchor="start" x="438" y="-349.4" font-family="Lato" font-size="12.00" fill="#ff4da0">❶</text>
<text text-anchor="start" x="452" y="-349.4" font-family="Lato" font-size="12.00">) | (Fin(</text>
<text text-anchor="start" x="487" y="-349.4" font-family="Lato" font-size="12.00" fill="#ff7f00">❷</text>
<text text-anchor="start" x="501" y="-349.4" font-family="Lato" font-size="12.00">) &amp; Inf(</text>
<text text-anchor="start" x="536" y="-349.4" font-family="Lato" font-size="12.00" fill="#6a3d9a">❸</text>
<text text-anchor="start" x="550" y="-349.4" font-family="Lato" font-size="12.00">)))</text>
<text text-anchor="start" x="416" y="-337.4" font-family="Lato" font-size="12.00">[parity min odd 4]</text>
<g id="clust1" class="cluster">
<title>cluster_0</title>
<polygon fill="none" stroke="green" points="554,-111 554,-287 918,-287 918,-111 554,-111"/>
</g>
<g id="clust2" class="cluster">
<title>cluster_1</title>
<polygon fill="none" stroke="black" points="451,-78 451,-130 503,-130 503,-78 451,-78"/>
</g>
<g id="clust3" class="cluster">
<title>cluster_2</title>
<polygon fill="none" stroke="red" points="345,-24 345,-120 397,-120 397,-24 345,-24"/>
</g>
<g id="clust4" class="cluster">
<title>cluster_3</title>
<polygon fill="none" stroke="green" points="136,-125 136,-234 291,-234 291,-125 136,-125"/>
</g>
<g id="clust5" class="cluster">
<title>cluster_4</title>
<polygon fill="none" stroke="green" points="30,-8 30,-117 188,-117 188,-8 30,-8"/>
</g>
<!-- I -->
<!-- 0 -->
<g id="node2" class="node">
<title>0</title>
<ellipse fill="#ffffa0" stroke="black" cx="56" cy="-87" rx="18" ry="18"/>
<text text-anchor="middle" x="56" y="-83.9" font-family="Lato" font-size="12.00">0</text>
</g>
<!-- I&#45;&gt;0 -->
<g id="edge1" class="edge">
<title>I&#45;&gt;0</title>
<path fill="none" stroke="black" d="M1.15,-87C2.79,-87 17.15,-87 30.63,-87"/>
<polygon fill="black" stroke="black" points="37.94,-87 30.94,-90.15 34.44,-87 30.94,-87 30.94,-87 30.94,-87 34.44,-87 30.94,-83.85 37.94,-87 37.94,-87"/>
</g>
<!-- 1 -->
<g id="node3" class="node">
<title>1</title>
<ellipse fill="#ffffa0" stroke="black" cx="580" cy="-250" rx="18" ry="18"/>
<text text-anchor="middle" x="580" y="-246.9" font-family="Lato" font-size="12.00">1</text>
</g>
<!-- 0&#45;&gt;1 -->
<g id="edge2" class="edge">
<title>0&#45;&gt;1</title>
<path fill="none" stroke="black" d="M57.35,-105.13C59.42,-157.28 73.06,-304 161,-304 161,-304 161,-304 478,-304 510.07,-304 541.83,-282.56 560.93,-266.7"/>
<polygon fill="black" stroke="black" points="566.44,-261.98 563.17,-268.93 563.78,-264.26 561.12,-266.54 561.12,-266.54 561.12,-266.54 563.78,-264.26 559.08,-264.14 566.44,-261.98 566.44,-261.98"/>
<text text-anchor="start" x="304" y="-320.4" font-family="Lato" font-size="12.00">a &amp; b</text>
<text text-anchor="start" x="311" y="-307.4" font-family="Lato" font-size="12.00" fill="#1f78b4">⓿</text>
</g>
<!-- 3 -->
<g id="node9" class="node">
<title>3</title>
<ellipse fill="#ffffa0" stroke="black" cx="162" cy="-183" rx="18" ry="18"/>
<text text-anchor="middle" x="162" y="-179.9" font-family="Lato" font-size="12.00">3</text>
</g>
<!-- 0&#45;&gt;3 -->
<g id="edge4" class="edge">
<title>0&#45;&gt;3</title>
<path fill="none" stroke="black" d="M69.75,-98.77C88.08,-115.69 121.94,-146.95 142.86,-166.26"/>
<polygon fill="black" stroke="black" points="148.14,-171.13 140.86,-168.7 145.57,-168.76 143,-166.38 143,-166.38 143,-166.38 145.57,-168.76 145.14,-164.07 148.14,-171.13 148.14,-171.13"/>
<text text-anchor="start" x="92" y="-165.4" font-family="Lato" font-size="12.00">!a &amp; !b</text>
<text text-anchor="start" x="102" y="-152.4" font-family="Lato" font-size="12.00" fill="#6a3d9a">❸</text>
</g>
<!-- 4 -->
<g id="node11" class="node">
<title>4</title>
<ellipse fill="#ffffa0" stroke="black" cx="162" cy="-34" rx="18" ry="18"/>
<text text-anchor="middle" x="162" y="-30.9" font-family="Lato" font-size="12.00">4</text>
</g>
<!-- 0&#45;&gt;4 -->
<g id="edge3" class="edge">
<title>0&#45;&gt;4</title>
<path fill="none" stroke="black" d="M63.21,-70.39C68.74,-58.2 78.13,-42.52 92,-35 105.72,-27.57 123.35,-27.44 137.35,-29.11"/>
<polygon fill="black" stroke="black" points="144.31,-30.12 136.93,-32.23 140.84,-29.61 137.38,-29.11 137.38,-29.11 137.38,-29.11 140.84,-29.61 137.83,-25.99 144.31,-30.12 144.31,-30.12"/>
<text text-anchor="start" x="93.5" y="-51.4" font-family="Lato" font-size="12.00">a &amp; !b</text>
<text text-anchor="start" x="102" y="-38.4" font-family="Lato" font-size="12.00" fill="#ff4da0">❶</text>
</g>
<!-- 7 -->
<g id="node4" class="node">
<title>7</title>
<ellipse fill="#ffffa0" stroke="black" cx="683" cy="-155" rx="18" ry="18"/>
<text text-anchor="middle" x="683" y="-151.9" font-family="Lato" font-size="12.00">7</text>
</g>
<!-- 1&#45;&gt;7 -->
<g id="edge5" class="edge">
<title>1&#45;&gt;7</title>
<path fill="none" stroke="black" d="M594.32,-238.23C607.77,-226.26 629.07,-207.1 647,-190 652.9,-184.37 659.24,-178.1 664.88,-172.44"/>
<polygon fill="black" stroke="black" points="669.83,-167.45 667.14,-174.64 667.37,-169.94 664.9,-172.42 664.9,-172.42 664.9,-172.42 667.37,-169.94 662.66,-170.21 669.83,-167.45 669.83,-167.45"/>
<text text-anchor="start" x="616" y="-234.4" font-family="Lato" font-size="12.00">a &amp; !b</text>
<text text-anchor="start" x="624.5" y="-221.4" font-family="Lato" font-size="12.00" fill="#ff4da0">❶</text>
</g>
<!-- 7&#45;&gt;7 -->
<g id="edge18" class="edge">
<title>7&#45;&gt;7</title>
<path fill="none" stroke="black" d="M674.37,-170.92C672.11,-181.15 674.99,-191 683,-191 689.13,-191 692.25,-185.23 692.37,-177.93"/>
<polygon fill="black" stroke="black" points="691.63,-170.92 695.5,-177.55 692,-174.4 692.37,-177.88 692.37,-177.88 692.37,-177.88 692,-174.4 689.23,-178.21 691.63,-170.92 691.63,-170.92"/>
<text text-anchor="start" x="669" y="-207.4" font-family="Lato" font-size="12.00">a &amp; b</text>
<text text-anchor="start" x="676" y="-194.4" font-family="Lato" font-size="12.00" fill="#ff7f00">❷</text>
</g>
<!-- 5 -->
<g id="node5" class="node">
<title>5</title>
<ellipse fill="#ffffa0" stroke="black" cx="786" cy="-137" rx="18" ry="18"/>
<text text-anchor="middle" x="786" y="-133.9" font-family="Lato" font-size="12.00">5</text>
</g>
<!-- 7&#45;&gt;5 -->
<g id="edge17" class="edge">
<title>7&#45;&gt;5</title>
<path fill="none" stroke="black" d="M700.13,-161.23C713.74,-165.55 733.58,-169.6 750,-164 756.16,-161.9 762.08,-158.23 767.24,-154.26"/>
<polygon fill="black" stroke="black" points="772.93,-149.53 769.56,-156.43 770.23,-151.77 767.54,-154.01 767.54,-154.01 767.54,-154.01 770.23,-151.77 765.53,-151.58 772.93,-149.53 772.93,-149.53"/>
<text text-anchor="start" x="720.5" y="-182.4" font-family="Lato" font-size="12.00">a &amp; b</text>
<text text-anchor="start" x="727.5" y="-169.4" font-family="Lato" font-size="12.00" fill="#ff7f00">❷</text>
</g>
<!-- 6 -->
<g id="node6" class="node">
<title>6</title>
<ellipse fill="#ffffa0" stroke="black" cx="892" cy="-191" rx="18" ry="18"/>
<text text-anchor="middle" x="892" y="-187.9" font-family="Lato" font-size="12.00">6</text>
</g>
<!-- 7&#45;&gt;6 -->
<g id="edge19" class="edge">
<title>7&#45;&gt;6</title>
<path fill="none" stroke="black" d="M692.97,-170.59C699.32,-180.68 708.55,-193.65 719,-203 737.69,-219.73 743.76,-224.56 768,-231 804.66,-240.73 846.49,-220.21 870.71,-205.12"/>
<polygon fill="black" stroke="black" points="876.76,-201.23 872.57,-207.66 873.82,-203.12 870.87,-205.01 870.87,-205.01 870.87,-205.01 873.82,-203.12 869.17,-202.36 876.76,-201.23 876.76,-201.23"/>
<text text-anchor="start" x="769" y="-249.4" font-family="Lato" font-size="12.00">!a &amp; !b</text>
<text text-anchor="start" x="779" y="-236.4" font-family="Lato" font-size="12.00" fill="#6a3d9a">❸</text>
</g>
<!-- 5&#45;&gt;1 -->
<g id="edge14" class="edge">
<title>5&#45;&gt;1</title>
<path fill="none" stroke="black" d="M778.05,-153.2C772.01,-165.93 762.29,-183.53 750,-196 713.99,-232.51 697.17,-237.38 647,-248 633.31,-250.9 617.67,-251.49 605.06,-251.31"/>
<polygon fill="black" stroke="black" points="598.02,-251.13 605.09,-248.16 601.51,-251.22 605.01,-251.31 605.01,-251.31 605.01,-251.31 601.51,-251.22 604.93,-254.46 598.02,-251.13 598.02,-251.13"/>
<text text-anchor="start" x="667.5" y="-259.4" font-family="Lato" font-size="12.00">!a &amp; b</text>
<text text-anchor="start" x="676" y="-246.4" font-family="Lato" font-size="12.00" fill="#ff7f00">❷</text>
</g>
<!-- 5&#45;&gt;7 -->
<g id="edge13" class="edge">
<title>5&#45;&gt;7</title>
<path fill="none" stroke="black" d="M767.93,-135.25C754.45,-134.35 735.28,-134.13 719,-138 714.43,-139.09 709.76,-140.84 705.38,-142.81"/>
<polygon fill="black" stroke="black" points="698.79,-146.04 703.7,-140.13 701.94,-144.5 705.08,-142.96 705.08,-142.96 705.08,-142.96 701.94,-144.5 706.46,-145.79 698.79,-146.04 698.79,-146.04"/>
<text text-anchor="start" x="719" y="-154.4" font-family="Lato" font-size="12.00">a &amp; !b</text>
<text text-anchor="start" x="727.5" y="-141.4" font-family="Lato" font-size="12.00" fill="#1f78b4">⓿</text>
</g>
<!-- 5&#45;&gt;6 -->
<g id="edge15" class="edge">
<title>5&#45;&gt;6</title>
<path fill="none" stroke="black" d="M803.68,-140.55C818.17,-144.1 839.38,-150.41 856,-160 862.2,-163.57 868.27,-168.36 873.58,-173.1"/>
<polygon fill="black" stroke="black" points="879,-178.17 871.74,-175.69 876.45,-175.78 873.89,-173.39 873.89,-173.39 873.89,-173.39 876.45,-175.78 876.04,-171.09 879,-178.17 879,-178.17"/>
<text text-anchor="start" x="822" y="-176.4" font-family="Lato" font-size="12.00">!a &amp; !b</text>
<text text-anchor="start" x="832" y="-163.4" font-family="Lato" font-size="12.00" fill="#1f78b4">⓿</text>
</g>
<!-- 6&#45;&gt;7 -->
<g id="edge16" class="edge">
<title>6&#45;&gt;7</title>
<path fill="none" stroke="black" d="M874.09,-193.37C836.3,-198.37 746.2,-208.54 719,-196 709.92,-191.81 702.33,-183.99 696.56,-176.29"/>
<polygon fill="black" stroke="black" points="692.51,-170.48 699.1,-174.42 694.51,-173.35 696.52,-176.22 696.52,-176.22 696.52,-176.22 694.51,-173.35 693.93,-178.02 692.51,-170.48 692.51,-170.48"/>
<text text-anchor="start" x="770.5" y="-218.4" font-family="Lato" font-size="12.00">!a &amp; b</text>
<text text-anchor="start" x="779" y="-205.4" font-family="Lato" font-size="12.00" fill="#6a3d9a">❸</text>
</g>
<!-- 2 -->
<g id="node7" class="node">
<title>2</title>
<ellipse fill="#ffffa0" stroke="black" cx="477" cy="-104" rx="18" ry="18"/>
<text text-anchor="middle" x="477" y="-100.9" font-family="Lato" font-size="12.00">2</text>
</g>
<!-- 2&#45;&gt;1 -->
<g id="edge6" class="edge">
<title>2&#45;&gt;1</title>
<path fill="none" stroke="black" d="M488.05,-118.53C506.13,-144.66 544.15,-199.62 564.85,-229.54"/>
<polygon fill="black" stroke="black" points="568.99,-235.53 562.41,-231.56 567,-232.65 565,-229.77 565,-229.77 565,-229.77 567,-232.65 567.6,-227.98 568.99,-235.53 568.99,-235.53"/>
<text text-anchor="start" x="514.5" y="-214.4" font-family="Lato" font-size="12.00">a &amp; b</text>
<text text-anchor="start" x="521.5" y="-201.4" font-family="Lato" font-size="12.00" fill="#1f78b4">⓿</text>
</g>
<!-- 2&#45;&gt;5 -->
<g id="edge7" class="edge">
<title>2&#45;&gt;5</title>
<path fill="none" stroke="black" d="M495.26,-105.04C538.38,-107.76 654.26,-115.89 750,-130 753.66,-130.54 757.52,-131.21 761.28,-131.92"/>
<polygon fill="black" stroke="black" points="768.33,-133.3 760.85,-135.04 764.89,-132.63 761.46,-131.95 761.46,-131.95 761.46,-131.95 764.89,-132.63 762.07,-128.86 768.33,-133.3 768.33,-133.3"/>
<text text-anchor="start" x="616" y="-133.4" font-family="Lato" font-size="12.00">a &amp; !b</text>
<text text-anchor="start" x="624.5" y="-120.4" font-family="Lato" font-size="12.00" fill="#ff4da0">❶</text>
</g>
<!-- 9 -->
<g id="node8" class="node">
<title>9</title>
<ellipse fill="#ffffa0" stroke="black" cx="371" cy="-50" rx="18" ry="18"/>
<text text-anchor="middle" x="371" y="-46.9" font-family="Lato" font-size="12.00">9</text>
</g>
<!-- 9&#45;&gt;2 -->
<g id="edge25" class="edge">
<title>9&#45;&gt;2</title>
<path fill="none" stroke="black" d="M387.35,-57.97C405.01,-67.14 434.16,-82.28 454.18,-92.67"/>
<polygon fill="black" stroke="black" points="460.59,-96 452.93,-95.57 457.49,-94.39 454.38,-92.77 454.38,-92.77 454.38,-92.77 457.49,-94.39 455.83,-89.98 460.59,-96 460.59,-96"/>
<text text-anchor="start" x="407" y="-100.4" font-family="Lato" font-size="12.00">!a &amp; !b</text>
<text text-anchor="start" x="417" y="-87.4" font-family="Lato" font-size="12.00" fill="#1f78b4">⓿</text>
</g>
<!-- 9&#45;&gt;9 -->
<g id="edge26" class="edge">
<title>9&#45;&gt;9</title>
<path fill="none" stroke="black" d="M362.02,-65.92C359.68,-76.15 362.67,-86 371,-86 377.38,-86 380.63,-80.23 380.75,-72.93"/>
<polygon fill="black" stroke="black" points="379.98,-65.92 383.87,-72.53 380.36,-69.4 380.74,-72.87 380.74,-72.87 380.74,-72.87 380.36,-69.4 377.61,-73.22 379.98,-65.92 379.98,-65.92"/>
<text text-anchor="start" x="357" y="-102.4" font-family="Lato" font-size="12.00">a &amp; b</text>
<text text-anchor="start" x="364" y="-89.4" font-family="Lato" font-size="12.00" fill="#ff7f00">❷</text>
</g>
<!-- 3&#45;&gt;1 -->
<g id="edge8" class="edge">
<title>3&#45;&gt;1</title>
<path fill="none" stroke="black" d="M174.12,-196.88C191.19,-216.51 225.91,-250 264,-250 264,-250 264,-250 478,-250 504.24,-250 534.31,-250 554.77,-250"/>
<polygon fill="black" stroke="black" points="561.84,-250 554.84,-253.15 558.34,-250 554.84,-250 554.84,-250 554.84,-250 558.34,-250 554.84,-246.85 561.84,-250 561.84,-250"/>
<text text-anchor="start" x="357" y="-266.4" font-family="Lato" font-size="12.00">a &amp; b</text>
<text text-anchor="start" x="364" y="-253.4" font-family="Lato" font-size="12.00" fill="#6a3d9a">❸</text>
</g>
<!-- 8 -->
<g id="node10" class="node">
<title>8</title>
<ellipse fill="#ffffa0" stroke="black" cx="265" cy="-151" rx="18" ry="18"/>
<text text-anchor="middle" x="265" y="-147.9" font-family="Lato" font-size="12.00">8</text>
</g>
<!-- 3&#45;&gt;8 -->
<g id="edge9" class="edge">
<title>3&#45;&gt;8</title>
<path fill="none" stroke="black" d="M174.14,-169.35C180.39,-162.79 188.77,-155.58 198,-152 211.22,-146.87 227.08,-146.47 239.93,-147.42"/>
<polygon fill="black" stroke="black" points="247.11,-148.11 239.84,-150.57 243.63,-147.77 240.15,-147.44 240.15,-147.44 240.15,-147.44 243.63,-147.77 240.45,-144.3 247.11,-148.11 247.11,-148.11"/>
<text text-anchor="start" x="198" y="-168.4" font-family="Lato" font-size="12.00">!a &amp; b</text>
<text text-anchor="start" x="206.5" y="-155.4" font-family="Lato" font-size="12.00" fill="#ff4da0">❶</text>
</g>
<!-- 8&#45;&gt;7 -->
<g id="edge21" class="edge">
<title>8&#45;&gt;7</title>
<path fill="none" stroke="black" d="M282.84,-154.87C298.75,-158.31 323.35,-163.1 345,-165 461.67,-175.26 601.83,-163.37 657.49,-157.69"/>
<polygon fill="black" stroke="black" points="664.77,-156.93 658.14,-160.79 661.29,-157.3 657.81,-157.66 657.81,-157.66 657.81,-157.66 661.29,-157.3 657.49,-154.52 664.77,-156.93 664.77,-156.93"/>
<text text-anchor="start" x="460" y="-185.4" font-family="Lato" font-size="12.00">!a &amp; !b</text>
<text text-anchor="start" x="470" y="-172.4" font-family="Lato" font-size="12.00" fill="#6a3d9a">❸</text>
</g>
<!-- 8&#45;&gt;5 -->
<g id="edge24" class="edge">
<title>8&#45;&gt;5</title>
<path fill="none" stroke="black" d="M270.72,-133.66C279.71,-104.39 302.3,-45.87 345,-20 375.27,-1.66 387.61,-4 423,-4 423,-4 423,-4 684,-4 738.04,-4 766.93,-74.51 778.65,-112.85"/>
<polygon fill="black" stroke="black" points="780.64,-119.61 775.64,-113.79 779.65,-116.25 778.66,-112.9 778.66,-112.9 778.66,-112.9 779.65,-116.25 781.68,-112.01 780.64,-119.61 780.64,-119.61"/>
<text text-anchor="start" x="513" y="-20.4" font-family="Lato" font-size="12.00">a &amp; !b</text>
<text text-anchor="start" x="521.5" y="-7.4" font-family="Lato" font-size="12.00" fill="#ff7f00">❷</text>
</g>
<!-- 8&#45;&gt;2 -->
<g id="edge22" class="edge">
<title>8&#45;&gt;2</title>
<path fill="none" stroke="black" d="M283,-147.9C314.41,-142.07 383.54,-128.73 441,-114 444.83,-113.02 448.87,-111.92 452.8,-110.82"/>
<polygon fill="black" stroke="black" points="459.67,-108.87 453.8,-113.81 456.3,-109.82 452.94,-110.78 452.94,-110.78 452.94,-110.78 456.3,-109.82 452.07,-107.75 459.67,-108.87 459.67,-108.87"/>
<text text-anchor="start" x="355.5" y="-151.4" font-family="Lato" font-size="12.00">a &amp; !b</text>
<text text-anchor="start" x="364" y="-138.4" font-family="Lato" font-size="12.00" fill="#6a3d9a">❸</text>
</g>
<!-- 8&#45;&gt;9 -->
<g id="edge23" class="edge">
<title>8&#45;&gt;9</title>
<path fill="none" stroke="black" d="M276.41,-136.88C283.06,-128.2 292.09,-117.06 301,-108 316.56,-92.19 336.04,-76.11 350.34,-64.9"/>
<polygon fill="black" stroke="black" points="356.12,-60.41 352.52,-67.19 353.35,-62.56 350.59,-64.7 350.59,-64.7 350.59,-64.7 353.35,-62.56 348.66,-62.22 356.12,-60.41 356.12,-60.41"/>
<text text-anchor="start" x="301" y="-124.4" font-family="Lato" font-size="12.00">!a &amp; !b</text>
<text text-anchor="start" x="311" y="-111.4" font-family="Lato" font-size="12.00" fill="#ff4da0">❶</text>
</g>
<!-- 8&#45;&gt;3 -->
<g id="edge20" class="edge">
<title>8&#45;&gt;3</title>
<path fill="none" stroke="black" d="M251.5,-163.53C245.28,-168.97 237.31,-174.81 229,-178 215.82,-183.06 200.08,-184.41 187.28,-184.45"/>
<polygon fill="black" stroke="black" points="180.13,-184.34 187.18,-181.3 183.63,-184.4 187.13,-184.45 187.13,-184.45 187.13,-184.45 183.63,-184.4 187.08,-187.6 180.13,-184.34 180.13,-184.34"/>
<text text-anchor="start" x="198" y="-200.4" font-family="Lato" font-size="12.00">!a &amp; b</text>
<text text-anchor="start" x="206.5" y="-187.4" font-family="Lato" font-size="12.00" fill="#ff4da0">❶</text>
</g>
<!-- 4&#45;&gt;0 -->
<g id="edge11" class="edge">
<title>4&#45;&gt;0</title>
<path fill="none" stroke="black" d="M148.02,-45.5C141.69,-50.71 133.77,-56.66 126,-61 111.53,-69.07 94.05,-75.63 80.31,-80.14"/>
<polygon fill="black" stroke="black" points="73.5,-82.31 79.21,-77.18 76.83,-81.24 80.17,-80.18 80.17,-80.18 80.17,-80.18 76.83,-81.24 81.12,-83.18 73.5,-82.31 73.5,-82.31"/>
<text text-anchor="start" x="93.5" y="-91.4" font-family="Lato" font-size="12.00">!a &amp; b</text>
<text text-anchor="start" x="102" y="-78.4" font-family="Lato" font-size="12.00" fill="#6a3d9a">❸</text>
</g>
<!-- 4&#45;&gt;2 -->
<g id="edge10" class="edge">
<title>4&#45;&gt;2</title>
<path fill="none" stroke="black" d="M179.06,-27.96C218.5,-14.18 322.3,15.77 397,-20 425.8,-33.79 449.38,-63 463.06,-83.07"/>
<polygon fill="black" stroke="black" points="466.99,-88.98 460.49,-84.89 465.05,-86.06 463.11,-83.14 463.11,-83.14 463.11,-83.14 465.05,-86.06 465.74,-81.4 466.99,-88.98 466.99,-88.98"/>
<text text-anchor="start" x="302.5" y="-20.4" font-family="Lato" font-size="12.00">!a &amp; b</text>
<text text-anchor="start" x="311" y="-7.4" font-family="Lato" font-size="12.00" fill="#ff4da0">❶</text>
</g>
<!-- 4&#45;&gt;9 -->
<g id="edge12" class="edge">
<title>4&#45;&gt;9</title>
<path fill="none" stroke="black" d="M180.29,-35.34C217.14,-38.18 303.48,-44.86 345.78,-48.13"/>
<polygon fill="black" stroke="black" points="352.9,-48.68 345.68,-51.28 349.41,-48.41 345.92,-48.14 345.92,-48.14 345.92,-48.14 349.41,-48.41 346.17,-45 352.9,-48.68 352.9,-48.68"/>
<text text-anchor="start" x="249.5" y="-59.4" font-family="Lato" font-size="12.00">a &amp; !b</text>
<text text-anchor="start" x="258" y="-46.4" font-family="Lato" font-size="12.00" fill="#1f78b4">⓿</text>
</g>
</g>
</svg>
