<?xml version="1.0" encoding="UTF-8" standalone="no"?>
<?xml-stylesheet href="spot.css" type="text/css"?>
<!DOCTYPE svg PUBLIC "-//W3C//DTD SVG 1.1//EN"
 "http://www.w3.org/Graphics/SVG/1.1/DTD/svg11.dtd">
<!-- Generated by graphviz version 2.43.0 (0)
 -->
<!-- Pages: 1 -->
<svg width="344pt" height="154pt"
 viewBox="0.00 0.00 344.00 154.03" xmlns="http://www.w3.org/2000/svg" xmlns:xlink="http://www.w3.org/1999/xlink">
<g id="graph0" class="graph" transform="scale(1 1) rotate(0) translate(4 150.03)">
<polygon fill="white" stroke="transparent" points="-4,4 -4,-150.03 340,-150.03 340,4 -4,4"/>
<text text-anchor="start" x="149" y="-132.43" font-family="Lato" font-size="12.00">[Büchi]</text>
<!-- I -->
<!-- 0 -->
<g id="node2" class="node">
<title>0</title>
<ellipse fill="#ffffa0" stroke="black" cx="56" cy="-55.03" rx="18" ry="18"/>
<text text-anchor="middle" x="56" y="-51.93" font-family="Lato" font-size="12.00">0</text>
</g>
<!-- I&#45;&gt;0 -->
<g id="edge1" class="edge">
<title>I&#45;&gt;0</title>
<path fill="none" stroke="black" d="M1.15,-55.03C2.79,-55.03 17.15,-55.03 30.63,-55.03"/>
<polygon fill="black" stroke="black" points="37.94,-55.03 30.94,-58.18 34.44,-55.03 30.94,-55.03 30.94,-55.03 30.94,-55.03 34.44,-55.03 30.94,-51.88 37.94,-55.03 37.94,-55.03"/>
</g>
<!-- 1 -->
<g id="node3" class="node">
<title>1</title>
<ellipse fill="#ffffa0" stroke="black" cx="312" cy="-47.03" rx="18" ry="18"/>
<ellipse fill="none" stroke="black" cx="312" cy="-47.03" rx="22" ry="22"/>
<text text-anchor="middle" x="312" y="-43.93" font-family="Lato" font-size="12.00">1</text>
</g>
<!-- 0&#45;&gt;1 -->
<g id="edge2" class="edge">
<title>0&#45;&gt;1</title>
<path fill="none" stroke="black" d="M70.73,-66.08C96.71,-85.61 155.04,-122.95 206,-109.03 237.23,-100.5 268.61,-80.04 288.82,-64.94"/>
<polygon fill="black" stroke="black" points="294.47,-60.65 290.81,-67.39 291.68,-62.77 288.9,-64.89 288.9,-64.89 288.9,-64.89 291.68,-62.77 286.99,-62.38 294.47,-60.65 294.47,-60.65"/>
<text text-anchor="start" x="158" y="-115.43" font-family="Lato" font-size="12.00">!p0 &amp; !p1</text>
</g>
<!-- 2 -->
<g id="node4" class="node">
<title>2</title>
<ellipse fill="#ffffa0" stroke="black" cx="182" cy="-47.03" rx="18" ry="18"/>
<ellipse fill="none" stroke="black" cx="182" cy="-47.03" rx="22" ry="22"/>
<text text-anchor="middle" x="182" y="-43.93" font-family="Lato" font-size="12.00">2</text>
</g>
<!-- 0&#45;&gt;2 -->
<g id="edge3" class="edge">
<title>0&#45;&gt;2</title>
<path fill="none" stroke="black" d="M74.18,-54.45C90.98,-53.82 117.27,-52.68 140,-51.03 144.11,-50.73 148.45,-50.36 152.71,-49.97"/>
<polygon fill="black" stroke="black" points="159.74,-49.3 153.07,-53.1 156.25,-49.63 152.77,-49.97 152.77,-49.97 152.77,-49.97 156.25,-49.63 152.47,-46.83 159.74,-49.3 159.74,-49.3"/>
<text text-anchor="start" x="92" y="-56.43" font-family="Lato" font-size="12.00">!p0 &amp; !p1</text>
</g>
<!-- 1&#45;&gt;0 -->
<g id="edge5" class="edge">
<title>1&#45;&gt;0</title>
<path fill="none" stroke="black" d="M292.38,-36.54C271.93,-25.68 237.78,-9.42 206,-3.03 185.09,1.18 179.01,0.67 158,-3.03 127.26,-8.44 119.21,-11.74 92,-27.03 86.34,-30.21 80.66,-34.28 75.56,-38.34"/>
<polygon fill="black" stroke="black" points="69.89,-43.03 73.28,-36.14 72.59,-40.8 75.29,-38.57 75.29,-38.57 75.29,-38.57 72.59,-40.8 77.29,-40.99 69.89,-43.03 69.89,-43.03"/>
<text text-anchor="start" x="161" y="-6.43" font-family="Lato" font-size="12.00">p0 &amp; p1</text>
</g>
<!-- 1&#45;&gt;1 -->
<g id="edge4" class="edge">
<title>1&#45;&gt;1</title>
<path fill="none" stroke="black" d="M300.66,-65.96C298.34,-76.87 302.12,-87.03 312,-87.03 319.56,-87.03 323.55,-81.07 323.96,-73.39"/>
<polygon fill="black" stroke="black" points="323.34,-65.96 327.06,-72.67 323.63,-69.45 323.93,-72.93 323.93,-72.93 323.93,-72.93 323.63,-69.45 320.79,-73.2 323.34,-65.96 323.34,-65.96"/>
<text text-anchor="start" x="288" y="-90.43" font-family="Lato" font-size="12.00">!p0 &amp; !p1</text>
</g>
<!-- 2&#45;&gt;0 -->
<g id="edge6" class="edge">
<title>2&#45;&gt;0</title>
<path fill="none" stroke="black" d="M161.26,-39.54C143.03,-33.7 115.33,-27.57 92,-34.03 86.84,-35.46 81.67,-37.88 76.95,-40.57"/>
<polygon fill="black" stroke="black" points="70.84,-44.36 75.13,-37.99 73.81,-42.52 76.79,-40.67 76.79,-40.67 76.79,-40.67 73.81,-42.52 78.45,-43.35 70.84,-44.36 70.84,-44.36"/>
<text text-anchor="start" x="95" y="-37.43" font-family="Lato" font-size="12.00">p0 &amp; p1</text>
</g>
<!-- 2&#45;&gt;1 -->
<g id="edge8" class="edge">
<title>2&#45;&gt;1</title>
<path fill="none" stroke="black" d="M204.14,-47.03C225.63,-47.03 259.06,-47.03 282.8,-47.03"/>
<polygon fill="black" stroke="black" points="289.83,-47.03 282.83,-50.18 286.33,-47.03 282.83,-47.03 282.83,-47.03 282.83,-47.03 286.33,-47.03 282.83,-43.88 289.83,-47.03 289.83,-47.03"/>
<text text-anchor="start" x="224" y="-50.43" font-family="Lato" font-size="12.00">!p0 &amp; !p1</text>
</g>
<!-- 2&#45;&gt;2 -->
<g id="edge7" class="edge">
<title>2&#45;&gt;2</title>
<path fill="none" stroke="black" d="M170.3,-65.96C167.92,-76.87 171.82,-87.03 182,-87.03 189.8,-87.03 193.91,-81.07 194.34,-73.39"/>
<polygon fill="black" stroke="black" points="193.7,-65.96 197.44,-72.66 194,-69.45 194.3,-72.93 194.3,-72.93 194.3,-72.93 194,-69.45 191.16,-73.2 193.7,-65.96 193.7,-65.96"/>
<text text-anchor="start" x="159.5" y="-90.43" font-family="Lato" font-size="12.00">p0 &amp; !p1</text>
</g>
</g>
</svg>
