<?xml version="1.0" encoding="UTF-8" standalone="no"?>
<?xml-stylesheet href="spot.css" type="text/css"?>
<!DOCTYPE svg PUBLIC "-//W3C//DTD SVG 1.1//EN"
 "http://www.w3.org/Graphics/SVG/1.1/DTD/svg11.dtd">
<!-- Generated by graphviz version 2.43.0 (0)
 -->
<!-- Pages: 1 -->
<svg width="337pt" height="156pt"
 viewBox="0.00 0.00 337.00 155.66" xmlns="http://www.w3.org/2000/svg" xmlns:xlink="http://www.w3.org/1999/xlink">
<g id="graph0" class="graph" transform="scale(1 1) rotate(0) translate(4 151.66)">
<polygon fill="white" stroke="transparent" points="-4,4 -4,-151.66 333,-151.66 333,4 -4,4"/>
<text text-anchor="start" x="162" y="-134.06" font-family="Lato" font-size="12.00">t</text>
<text text-anchor="start" x="155" y="-121.06" font-family="Lato" font-size="12.00">[all]</text>
<!-- I -->
<!-- 0 -->
<g id="node2" class="node">
<title>0</title>
<ellipse fill="#ffffa0" stroke="black" cx="56" cy="-21.66" rx="18" ry="18"/>
<text text-anchor="middle" x="56" y="-18.56" font-family="Lato" font-size="12.00">0</text>
</g>
<!-- I&#45;&gt;0 -->
<g id="edge1" class="edge">
<title>I&#45;&gt;0</title>
<path fill="none" stroke="black" d="M1.15,-21.66C2.79,-21.66 17.15,-21.66 30.63,-21.66"/>
<polygon fill="black" stroke="black" points="37.94,-21.66 30.94,-24.81 34.44,-21.66 30.94,-21.66 30.94,-21.66 30.94,-21.66 34.44,-21.66 30.94,-18.51 37.94,-21.66 37.94,-21.66"/>
</g>
<!-- 0&#45;&gt;0 -->
<g id="edge3" class="edge">
<title>0&#45;&gt;0</title>
<path fill="none" stroke="black" d="M49.62,-38.7C48.32,-48.52 50.45,-57.66 56,-57.66 60.17,-57.66 62.4,-52.52 62.71,-45.81"/>
<polygon fill="black" stroke="black" points="62.38,-38.7 65.85,-45.55 62.54,-42.2 62.71,-45.69 62.71,-45.69 62.71,-45.69 62.54,-42.2 59.56,-45.84 62.38,-38.7 62.38,-38.7"/>
<text text-anchor="start" x="32" y="-61.06" font-family="Lato" font-size="12.00">!p0 &amp; !p1</text>
</g>
<!-- 2 -->
<g id="node3" class="node">
<title>2</title>
<ellipse fill="#ffffa0" stroke="black" cx="182" cy="-64.66" rx="18" ry="18"/>
<text text-anchor="middle" x="182" y="-61.56" font-family="Lato" font-size="12.00">2</text>
</g>
<!-- 0&#45;&gt;2 -->
<g id="edge2" class="edge">
<title>0&#45;&gt;2</title>
<path fill="none" stroke="black" d="M68.33,-34.86C74.63,-41.31 83,-48.54 92,-52.66 112.34,-61.98 137.84,-64.62 156.33,-65.15"/>
<polygon fill="black" stroke="black" points="163.79,-65.25 156.74,-68.3 160.29,-65.2 156.79,-65.15 156.79,-65.15 156.79,-65.15 160.29,-65.2 156.83,-62 163.79,-65.25 163.79,-65.25"/>
<text text-anchor="start" x="92" y="-67.06" font-family="Lato" font-size="12.00">!p0 &amp; !p1</text>
</g>
<!-- 1 -->
<g id="node4" class="node">
<title>1</title>
<ellipse fill="#ffffa0" stroke="black" cx="308" cy="-21.66" rx="18" ry="18"/>
<text text-anchor="middle" x="308" y="-18.56" font-family="Lato" font-size="12.00">1</text>
</g>
<!-- 0&#45;&gt;1 -->
<g id="edge4" class="edge">
<title>0&#45;&gt;1</title>
<path fill="none" stroke="black" d="M74.08,-20.49C79.78,-20.15 86.16,-19.83 92,-19.66 161.09,-17.69 242.71,-19.62 282.59,-20.84"/>
<polygon fill="black" stroke="black" points="289.99,-21.07 282.9,-24 286.5,-20.96 283,-20.85 283,-20.85 283,-20.85 286.5,-20.96 283.1,-17.7 289.99,-21.07 289.99,-21.07"/>
<text text-anchor="start" x="158" y="-22.06" font-family="Lato" font-size="12.00">!p0 &amp; !p1</text>
</g>
<!-- 2&#45;&gt;0 -->
<g id="edge9" class="edge">
<title>2&#45;&gt;0</title>
<path fill="none" stroke="black" d="M167.88,-53.07C160.25,-46.95 150.15,-39.85 140,-35.66 121.26,-27.93 98.45,-24.47 81.49,-22.92"/>
<polygon fill="black" stroke="black" points="74.14,-22.33 81.37,-19.75 77.63,-22.61 81.12,-22.89 81.12,-22.89 81.12,-22.89 77.63,-22.61 80.87,-26.03 74.14,-22.33 74.14,-22.33"/>
<text text-anchor="start" x="93.5" y="-39.06" font-family="Lato" font-size="12.00">p0 &amp; !p1</text>
</g>
<!-- 2&#45;&gt;2 -->
<g id="edge10" class="edge">
<title>2&#45;&gt;2</title>
<path fill="none" stroke="black" d="M171.09,-79.08C167.28,-89.83 170.91,-100.66 182,-100.66 190.66,-100.66 194.78,-94.05 194.34,-86.03"/>
<polygon fill="black" stroke="black" points="192.91,-79.08 197.41,-85.3 193.62,-82.51 194.32,-85.94 194.32,-85.94 194.32,-85.94 193.62,-82.51 191.24,-86.57 192.91,-79.08 192.91,-79.08"/>
<text text-anchor="start" x="159.5" y="-104.06" font-family="Lato" font-size="12.00">p0 &amp; !p1</text>
</g>
<!-- 2&#45;&gt;1 -->
<g id="edge8" class="edge">
<title>2&#45;&gt;1</title>
<path fill="none" stroke="black" d="M200.21,-65.25C218.77,-65.24 248.75,-63.31 272,-52.66 278.75,-49.57 285.15,-44.73 290.58,-39.78"/>
<polygon fill="black" stroke="black" points="295.67,-34.86 292.83,-41.99 293.15,-37.3 290.64,-39.73 290.64,-39.73 290.64,-39.73 293.15,-37.3 288.45,-37.47 295.67,-34.86 295.67,-34.86"/>
<text text-anchor="start" x="224" y="-67.06" font-family="Lato" font-size="12.00">!p0 &amp; !p1</text>
</g>
<!-- 1&#45;&gt;0 -->
<g id="edge7" class="edge">
<title>1&#45;&gt;0</title>
<path fill="none" stroke="black" d="M290.27,-18.31C284.48,-17.15 277.96,-15.85 272,-14.66 221.98,-4.74 208.75,3.29 158,-1.66 131.22,-4.28 101.02,-10.73 80.67,-15.61"/>
<polygon fill="black" stroke="black" points="73.65,-17.32 79.7,-12.6 77.05,-16.49 80.45,-15.66 80.45,-15.66 80.45,-15.66 77.05,-16.49 81.2,-18.72 73.65,-17.32 73.65,-17.32"/>
<text text-anchor="start" x="159.5" y="-5.06" font-family="Lato" font-size="12.00">p0 &amp; !p1</text>
</g>
<!-- 1&#45;&gt;2 -->
<g id="edge6" class="edge">
<title>1&#45;&gt;2</title>
<path fill="none" stroke="black" d="M289.98,-23.66C272.85,-26.06 245.9,-30.9 224,-39.66 216.92,-42.5 209.66,-46.5 203.26,-50.47"/>
<polygon fill="black" stroke="black" points="197.18,-54.39 201.36,-47.95 200.12,-52.5 203.06,-50.6 203.06,-50.6 203.06,-50.6 200.12,-52.5 204.77,-53.25 197.18,-54.39 197.18,-54.39"/>
<text text-anchor="start" x="225.5" y="-43.06" font-family="Lato" font-size="12.00">p0 &amp; !p1</text>
</g>
<!-- 1&#45;&gt;1 -->
<g id="edge5" class="edge">
<title>1&#45;&gt;1</title>
<path fill="none" stroke="black" d="M297.85,-36.83C294.77,-47.33 298.16,-57.66 308,-57.66 315.54,-57.66 319.29,-51.61 319.25,-44.05"/>
<polygon fill="black" stroke="black" points="318.15,-36.83 322.32,-43.28 318.68,-40.29 319.2,-43.75 319.2,-43.75 319.2,-43.75 318.68,-40.29 316.09,-44.23 318.15,-36.83 318.15,-36.83"/>
<text text-anchor="start" x="287" y="-61.06" font-family="Lato" font-size="12.00">p0 &amp; p1</text>
</g>
</g>
</svg>
