<?xml version="1.0" encoding="UTF-8" standalone="no"?>
<?xml-stylesheet href="spot.css" type="text/css"?>
<!DOCTYPE svg PUBLIC "-//W3C//DTD SVG 1.1//EN"
 "http://www.w3.org/Graphics/SVG/1.1/DTD/svg11.dtd">
<!-- Generated by graphviz version 2.43.0 (0)
 -->
<!-- Pages: 1 -->
<svg width="330pt" height="164pt"
 viewBox="0.00 0.00 329.50 164.00" xmlns="http://www.w3.org/2000/svg" xmlns:xlink="http://www.w3.org/1999/xlink">
<g id="graph0" class="graph" transform="scale(1 1) rotate(0) translate(4 160)">
<polygon fill="white" stroke="transparent" points="-4,4 -4,-160 325.5,-160 325.5,4 -4,4"/>
<text text-anchor="start" x="99.75" y="-143.4" font-family="Lato" font-size="12.00">Inf(</text>
<text text-anchor="start" x="117.75" y="-143.4" font-family="Lato" font-size="12.00" fill="#1f78b4">⓿</text>
<text text-anchor="start" x="131.75" y="-143.4" font-family="Lato" font-size="12.00">)&amp;Inf(</text>
<text text-anchor="start" x="160.75" y="-143.4" font-family="Lato" font-size="12.00" fill="#ff4da0">❶</text>
<text text-anchor="start" x="174.75" y="-143.4" font-family="Lato" font-size="12.00">)&amp;Inf(</text>
<text text-anchor="start" x="203.75" y="-143.4" font-family="Lato" font-size="12.00" fill="#ff7f00">❷</text>
<text text-anchor="start" x="217.75" y="-143.4" font-family="Lato" font-size="12.00">)</text>
<text text-anchor="start" x="124.25" y="-131.4" font-family="Lato" font-size="12.00">[gen. Büchi 3]</text>
<!-- I -->
<!-- 0 -->
<g id="node2" class="node">
<title>0</title>
<ellipse fill="#ffffa0" stroke="black" cx="56" cy="-18" rx="18" ry="18"/>
<text text-anchor="middle" x="56" y="-14.9" font-family="Lato" font-size="12.00">0</text>
</g>
<!-- I&#45;&gt;0 -->
<g id="edge1" class="edge">
<title>I&#45;&gt;0</title>
<path fill="none" stroke="black" d="M1.15,-18C2.79,-18 17.15,-18 30.63,-18"/>
<polygon fill="black" stroke="black" points="37.94,-18 30.94,-21.15 34.44,-18 30.94,-18 30.94,-18 30.94,-18 34.44,-18 30.94,-14.85 37.94,-18 37.94,-18"/>
</g>
<!-- 0&#45;&gt;0 -->
<g id="edge3" class="edge">
<title>0&#45;&gt;0</title>
<path fill="none" stroke="black" d="M49.62,-35.04C48.32,-44.86 50.45,-54 56,-54 60.17,-54 62.4,-48.86 62.71,-42.14"/>
<polygon fill="black" stroke="black" points="62.38,-35.04 65.85,-41.88 62.54,-38.53 62.71,-42.03 62.71,-42.03 62.71,-42.03 62.54,-38.53 59.56,-42.18 62.38,-35.04 62.38,-35.04"/>
<text text-anchor="start" x="32" y="-70.4" font-family="Lato" font-size="12.00">!p0 &amp; !p1</text>
<text text-anchor="start" x="49" y="-57.4" font-family="Lato" font-size="12.00" fill="#ff7f00">❷</text>
</g>
<!-- 1 -->
<g id="node3" class="node">
<title>1</title>
<ellipse fill="#ffffa0" stroke="black" cx="179" cy="-64" rx="18" ry="18"/>
<text text-anchor="middle" x="179" y="-60.9" font-family="Lato" font-size="12.00">1</text>
</g>
<!-- 0&#45;&gt;1 -->
<g id="edge2" class="edge">
<title>0&#45;&gt;1</title>
<path fill="none" stroke="black" d="M73.32,-24.2C94.45,-32.24 131.41,-46.29 155.28,-55.36"/>
<polygon fill="black" stroke="black" points="161.94,-57.89 154.28,-58.35 158.67,-56.65 155.4,-55.41 155.4,-55.41 155.4,-55.41 158.67,-56.65 156.52,-52.46 161.94,-57.89 161.94,-57.89"/>
<text text-anchor="start" x="92" y="-52.4" font-family="Lato" font-size="12.00">!p0 &amp; !p1</text>
</g>
<!-- 1&#45;&gt;1 -->
<g id="edge4" class="edge">
<title>1&#45;&gt;1</title>
<path fill="none" stroke="black" d="M168.85,-79.17C165.77,-89.66 169.16,-100 179,-100 186.54,-100 190.29,-93.94 190.25,-86.39"/>
<polygon fill="black" stroke="black" points="189.15,-79.17 193.32,-85.61 189.68,-82.63 190.2,-86.09 190.2,-86.09 190.2,-86.09 189.68,-82.63 187.09,-86.56 189.15,-79.17 189.15,-79.17"/>
<text text-anchor="start" x="156.5" y="-115.4" font-family="Lato" font-size="12.00">!p0 &amp; p1</text>
<text text-anchor="start" x="165" y="-103.4" font-family="Lato" font-size="12.00" fill="#1f78b4">⓿</text>
<text text-anchor="start" x="179" y="-103.4" font-family="Lato" font-size="12.00" fill="#ff4da0">❶</text>
</g>
<!-- 2 -->
<g id="node4" class="node">
<title>2</title>
<ellipse fill="#ffffa0" stroke="black" cx="299" cy="-35" rx="18" ry="18"/>
<text text-anchor="middle" x="299" y="-31.9" font-family="Lato" font-size="12.00">2</text>
</g>
<!-- 1&#45;&gt;2 -->
<g id="edge5" class="edge">
<title>1&#45;&gt;2</title>
<path fill="none" stroke="black" d="M197.09,-66.62C214.27,-68.56 241.26,-69.7 263,-62 269.13,-59.83 275.05,-56.13 280.21,-52.16"/>
<polygon fill="black" stroke="black" points="285.89,-47.44 282.52,-54.33 283.2,-49.68 280.51,-51.91 280.51,-51.91 280.51,-51.91 283.2,-49.68 278.5,-49.49 285.89,-47.44 285.89,-47.44"/>
<text text-anchor="start" x="218" y="-84.4" font-family="Lato" font-size="12.00">!p0 &amp; p1</text>
<text text-anchor="start" x="233.5" y="-71.4" font-family="Lato" font-size="12.00" fill="#ff4da0">❶</text>
</g>
<!-- 2&#45;&gt;0 -->
<g id="edge7" class="edge">
<title>2&#45;&gt;0</title>
<path fill="none" stroke="black" d="M281.72,-29.51C275.85,-27.63 269.17,-25.6 263,-24 235.33,-16.82 228.44,-13.9 200,-11 181.43,-9.1 176.66,-10.35 158,-11 131.72,-11.91 101.65,-14.15 81.21,-15.85"/>
<polygon fill="black" stroke="black" points="74.14,-16.45 80.85,-12.72 77.62,-16.15 81.11,-15.86 81.11,-15.86 81.11,-15.86 77.62,-16.15 81.38,-19 74.14,-16.45 74.14,-16.45"/>
<text text-anchor="start" x="158" y="-27.4" font-family="Lato" font-size="12.00">p0 &amp; p1</text>
<text text-anchor="start" x="172" y="-14.4" font-family="Lato" font-size="12.00" fill="#1f78b4">⓿</text>
</g>
<!-- 2&#45;&gt;1 -->
<g id="edge6" class="edge">
<title>2&#45;&gt;1</title>
<path fill="none" stroke="black" d="M281.19,-30.77C264.59,-27.42 238.76,-24.42 218,-32 210.18,-34.85 202.86,-40.1 196.77,-45.53"/>
<polygon fill="black" stroke="black" points="191.55,-50.51 194.44,-43.4 194.08,-48.09 196.62,-45.68 196.62,-45.68 196.62,-45.68 194.08,-48.09 198.79,-47.96 191.55,-50.51 191.55,-50.51"/>
<text text-anchor="start" x="218" y="-48.4" font-family="Lato" font-size="12.00">!p0 &amp; p1</text>
<text text-anchor="start" x="233.5" y="-35.4" font-family="Lato" font-size="12.00" fill="#1f78b4">⓿</text>
</g>
<!-- 2&#45;&gt;2 -->
<g id="edge8" class="edge">
<title>2&#45;&gt;2</title>
<path fill="none" stroke="black" d="M289.19,-50.17C286.21,-60.66 289.48,-71 299,-71 306.29,-71 309.91,-64.94 309.87,-57.39"/>
<polygon fill="black" stroke="black" points="308.81,-50.17 312.95,-56.63 309.32,-53.63 309.83,-57.09 309.83,-57.09 309.83,-57.09 309.32,-53.63 306.71,-57.55 308.81,-50.17 308.81,-50.17"/>
<text text-anchor="start" x="276.5" y="-87.4" font-family="Lato" font-size="12.00">!p0 &amp; p1</text>
<text text-anchor="start" x="292" y="-74.4" font-family="Lato" font-size="12.00" fill="#1f78b4">⓿</text>
</g>
</g>
</svg>
