<?xml version="1.0" encoding="UTF-8" standalone="no"?>
<?xml-stylesheet href="spot.css" type="text/css"?>
<!DOCTYPE svg PUBLIC "-//W3C//DTD SVG 1.1//EN"
 "http://www.w3.org/Graphics/SVG/1.1/DTD/svg11.dtd">
<!-- Generated by graphviz version 2.43.0 (0)
 -->
<!-- Pages: 1 -->
<svg width="274pt" height="148pt"
 viewBox="0.00 0.00 273.50 148.30" xmlns="http://www.w3.org/2000/svg" xmlns:xlink="http://www.w3.org/1999/xlink">
<g id="graph0" class="graph" transform="scale(1 1) rotate(0) translate(4 144.3)">
<polygon fill="white" stroke="transparent" points="-4,4 -4,-144.3 269.5,-144.3 269.5,4 -4,4"/>
<text text-anchor="start" x="93.25" y="-127.7" font-family="Lato" font-size="12.00">Inf(</text>
<text text-anchor="start" x="111.25" y="-127.7" font-family="Lato" font-size="12.00" fill="#1f78b4">⓿</text>
<text text-anchor="start" x="125.25" y="-127.7" font-family="Lato" font-size="12.00">)&amp;Inf(</text>
<text text-anchor="start" x="154.25" y="-127.7" font-family="Lato" font-size="12.00" fill="#ff4da0">❶</text>
<text text-anchor="start" x="168.25" y="-127.7" font-family="Lato" font-size="12.00">)</text>
<text text-anchor="start" x="96.25" y="-115.7" font-family="Lato" font-size="12.00">[gen. Büchi 2]</text>
<!-- I -->
<!-- 0 -->
<g id="node2" class="node">
<title>0</title>
<ellipse fill="#ffffa0" stroke="black" cx="56" cy="-33.3" rx="18" ry="18"/>
<text text-anchor="middle" x="56" y="-30.2" font-family="Lato" font-size="12.00">0</text>
</g>
<!-- I&#45;&gt;0 -->
<g id="edge1" class="edge">
<title>I&#45;&gt;0</title>
<path fill="none" stroke="black" d="M1.15,-33.3C2.79,-33.3 17.15,-33.3 30.63,-33.3"/>
<polygon fill="black" stroke="black" points="37.94,-33.3 30.94,-36.45 34.44,-33.3 30.94,-33.3 30.94,-33.3 30.94,-33.3 34.44,-33.3 30.94,-30.15 37.94,-33.3 37.94,-33.3"/>
</g>
<!-- 1 -->
<g id="node3" class="node">
<title>1</title>
<ellipse fill="#ffffa0" stroke="black" cx="151" cy="-83.3" rx="18" ry="18"/>
<text text-anchor="middle" x="151" y="-80.2" font-family="Lato" font-size="12.00">1</text>
</g>
<!-- 0&#45;&gt;1 -->
<g id="edge2" class="edge">
<title>0&#45;&gt;1</title>
<path fill="none" stroke="black" d="M65.19,-49.04C71.21,-58.91 80.36,-70.93 92,-77.3 102.17,-82.87 114.86,-84.66 125.77,-84.93"/>
<polygon fill="black" stroke="black" points="132.98,-84.91 125.99,-88.08 129.48,-84.92 125.98,-84.93 125.98,-84.93 125.98,-84.93 129.48,-84.92 125.97,-81.78 132.98,-84.91 132.98,-84.91"/>
<text text-anchor="start" x="93.5" y="-85.7" font-family="Lato" font-size="12.00">p0</text>
</g>
<!-- 2 -->
<g id="node4" class="node">
<title>2</title>
<ellipse fill="#ffffa0" stroke="black" cx="243" cy="-33.3" rx="18" ry="18"/>
<text text-anchor="middle" x="243" y="-30.2" font-family="Lato" font-size="12.00">2</text>
</g>
<!-- 0&#45;&gt;2 -->
<g id="edge3" class="edge">
<title>0&#45;&gt;2</title>
<path fill="none" stroke="black" d="M74.07,-33.3C107.11,-33.3 179.88,-33.3 217.86,-33.3"/>
<polygon fill="black" stroke="black" points="224.97,-33.3 217.97,-36.45 221.47,-33.3 217.97,-33.3 217.97,-33.3 217.97,-33.3 221.47,-33.3 217.97,-30.15 224.97,-33.3 224.97,-33.3"/>
<text text-anchor="start" x="142.5" y="-36.7" font-family="Lato" font-size="12.00">!p0</text>
</g>
<!-- 1&#45;&gt;0 -->
<g id="edge5" class="edge">
<title>1&#45;&gt;0</title>
<path fill="none" stroke="black" d="M138.22,-70.3C130.58,-62.59 120.02,-53.21 109,-47.3 100.42,-42.7 90.21,-39.53 81.12,-37.38"/>
<polygon fill="black" stroke="black" points="74.12,-35.87 81.63,-34.27 77.55,-36.61 80.97,-37.35 80.97,-37.35 80.97,-37.35 77.55,-36.61 80.3,-40.43 74.12,-35.87 74.12,-35.87"/>
<text text-anchor="start" x="92" y="-63.7" font-family="Lato" font-size="12.00">!p0</text>
<text text-anchor="start" x="93.5" y="-50.7" font-family="Lato" font-size="12.00" fill="#1f78b4">⓿</text>
</g>
<!-- 1&#45;&gt;2 -->
<g id="edge4" class="edge">
<title>1&#45;&gt;2</title>
<path fill="none" stroke="black" d="M169.38,-84.74C180.75,-84.91 195.56,-83.61 207,-77.3 216.26,-72.19 223.96,-63.53 229.75,-55.23"/>
<polygon fill="black" stroke="black" points="233.8,-49.02 232.61,-56.6 231.89,-51.95 229.98,-54.88 229.98,-54.88 229.98,-54.88 231.89,-51.95 227.34,-53.16 233.8,-49.02 233.8,-49.02"/>
<text text-anchor="start" x="193" y="-98.7" font-family="Lato" font-size="12.00">p0</text>
<text text-anchor="start" x="193" y="-85.7" font-family="Lato" font-size="12.00" fill="#ff4da0">❶</text>
</g>
<!-- 2&#45;&gt;0 -->
<g id="edge7" class="edge">
<title>2&#45;&gt;0</title>
<path fill="none" stroke="black" d="M227.19,-24.47C214.01,-17.17 193.94,-7.35 175,-3.3 154.14,1.16 147.9,0.99 127,-3.3 109.86,-6.82 91.73,-14.72 78.22,-21.53"/>
<polygon fill="black" stroke="black" points="71.98,-24.76 76.75,-18.74 75.09,-23.15 78.2,-21.54 78.2,-21.54 78.2,-21.54 75.09,-23.15 79.65,-24.34 71.98,-24.76 71.98,-24.76"/>
<text text-anchor="start" x="127" y="-19.7" font-family="Lato" font-size="12.00">!p0 &amp; !p1</text>
<text text-anchor="start" x="144" y="-6.7" font-family="Lato" font-size="12.00" fill="#ff4da0">❶</text>
</g>
<!-- 2&#45;&gt;1 -->
<g id="edge8" class="edge">
<title>2&#45;&gt;1</title>
<path fill="none" stroke="black" d="M224.96,-36.23C215.19,-38.38 202.94,-41.88 193,-47.3 184.42,-51.98 176.1,-58.73 169.23,-65.13"/>
<polygon fill="black" stroke="black" points="163.81,-70.36 166.66,-63.23 166.33,-67.93 168.85,-65.49 168.85,-65.49 168.85,-65.49 166.33,-67.93 171.04,-67.76 163.81,-70.36 163.81,-70.36"/>
<text text-anchor="start" x="193" y="-63.7" font-family="Lato" font-size="12.00">p0</text>
<text text-anchor="start" x="193" y="-50.7" font-family="Lato" font-size="12.00" fill="#1f78b4">⓿</text>
</g>
<!-- 2&#45;&gt;2 -->
<g id="edge6" class="edge">
<title>2&#45;&gt;2</title>
<path fill="none" stroke="black" d="M235.62,-49.97C233.98,-59.93 236.44,-69.3 243,-69.3 247.92,-69.3 250.54,-64.03 250.84,-57.19"/>
<polygon fill="black" stroke="black" points="250.38,-49.97 253.97,-56.75 250.61,-53.46 250.83,-56.95 250.83,-56.95 250.83,-56.95 250.61,-53.46 247.69,-57.15 250.38,-49.97 250.38,-49.97"/>
<text text-anchor="start" x="220.5" y="-85.7" font-family="Lato" font-size="12.00">!p0 &amp; p1</text>
<text text-anchor="start" x="236" y="-72.7" font-family="Lato" font-size="12.00" fill="#1f78b4">⓿</text>
</g>
</g>
</svg>
