<?xml version="1.0" encoding="UTF-8" standalone="no"?>
<?xml-stylesheet href="spot.css" type="text/css"?>
<!DOCTYPE svg PUBLIC "-//W3C//DTD SVG 1.1//EN"
 "http://www.w3.org/Graphics/SVG/1.1/DTD/svg11.dtd">
<!-- Generated by graphviz version 2.43.0 (0)
 -->
<!-- Pages: 1 -->
<svg width="1018pt" height="590pt"
 viewBox="0.00 0.00 1018.00 590.00" xmlns="http://www.w3.org/2000/svg" xmlns:xlink="http://www.w3.org/1999/xlink">
<g id="graph0" class="graph" transform="scale(1 1) rotate(0) translate(4 586)">
<polygon fill="white" stroke="transparent" points="-4,4 -4,-586 1014,-586 1014,4 -4,4"/>
<text text-anchor="start" x="502.5" y="-568.4" font-family="Lato" font-size="12.00">t</text>
<text text-anchor="start" x="495.5" y="-555.4" font-family="Lato" font-size="12.00">[all]</text>
<!-- I -->
<!-- 0 -->
<g id="node2" class="node">
<title>0</title>
<ellipse fill="#ffffa0" stroke="black" cx="56" cy="-394" rx="18" ry="18"/>
<text text-anchor="middle" x="56" y="-390.9" font-family="Lato" font-size="12.00">0</text>
</g>
<!-- I&#45;&gt;0 -->
<g id="edge1" class="edge">
<title>I&#45;&gt;0</title>
<path fill="none" stroke="black" d="M1.15,-394C2.79,-394 17.15,-394 30.63,-394"/>
<polygon fill="black" stroke="black" points="37.94,-394 30.94,-397.15 34.44,-394 30.94,-394 30.94,-394 30.94,-394 34.44,-394 30.94,-390.85 37.94,-394 37.94,-394"/>
</g>
<!-- 8 -->
<g id="node3" class="node">
<title>8</title>
<ellipse fill="#ffffa0" stroke="black" cx="162" cy="-294" rx="18" ry="18"/>
<text text-anchor="middle" x="162" y="-290.9" font-family="Lato" font-size="12.00">8</text>
</g>
<!-- 0&#45;&gt;8 -->
<g id="edge2" class="edge">
<title>0&#45;&gt;8</title>
<path fill="none" stroke="black" d="M69.75,-381.74C88.18,-364.02 122.31,-331.2 143.2,-311.11"/>
<polygon fill="black" stroke="black" points="148.47,-306.05 145.61,-313.17 145.95,-308.48 143.42,-310.9 143.42,-310.9 143.42,-310.9 145.95,-308.48 141.24,-308.63 148.47,-306.05 148.47,-306.05"/>
<text text-anchor="start" x="92" y="-361.4" font-family="Lato" font-size="12.00">!a &amp; !b</text>
</g>
<!-- 3 -->
<g id="node4" class="node">
<title>3</title>
<ellipse fill="#ffffa0" stroke="black" cx="265" cy="-294" rx="18" ry="18"/>
<text text-anchor="middle" x="265" y="-290.9" font-family="Lato" font-size="12.00">3</text>
</g>
<!-- 0&#45;&gt;3 -->
<g id="edge3" class="edge">
<title>0&#45;&gt;3</title>
<path fill="none" stroke="black" d="M73.86,-390.66C88.09,-387.53 108.83,-382.25 126,-375 170.3,-356.28 217.8,-325.84 243.9,-308.09"/>
<polygon fill="black" stroke="black" points="249.76,-304.07 245.76,-310.63 246.87,-306.05 243.98,-308.03 243.98,-308.03 243.98,-308.03 246.87,-306.05 242.2,-305.43 249.76,-304.07 249.76,-304.07"/>
<text text-anchor="start" x="145" y="-369.4" font-family="Lato" font-size="12.00">!a &amp; !b</text>
</g>
<!-- 4 -->
<g id="node5" class="node">
<title>4</title>
<ellipse fill="#ffffa0" stroke="black" cx="992" cy="-426" rx="18" ry="18"/>
<text text-anchor="middle" x="992" y="-422.9" font-family="Lato" font-size="12.00">4</text>
</g>
<!-- 0&#45;&gt;4 -->
<g id="edge4" class="edge">
<title>0&#45;&gt;4</title>
<path fill="none" stroke="black" d="M57.47,-411.95C59.1,-437.3 65.76,-483.58 92,-511 114.45,-534.46 128.53,-535 161,-535 161,-535 161,-535 890,-535 921.21,-535 933.47,-532.6 956,-511 972.78,-494.91 981.79,-469.61 986.45,-450.79"/>
<polygon fill="black" stroke="black" points="988.08,-443.68 989.59,-451.2 987.3,-447.09 986.52,-450.5 986.52,-450.5 986.52,-450.5 987.3,-447.09 983.45,-449.8 988.08,-443.68 988.08,-443.68"/>
<text text-anchor="start" x="504" y="-538.4" font-family="Lato" font-size="12.00">!a &amp; !b</text>
</g>
<!-- 8&#45;&gt;3 -->
<g id="edge31" class="edge">
<title>8&#45;&gt;3</title>
<path fill="none" stroke="black" d="M180.13,-294C196.38,-294 220.98,-294 239.34,-294"/>
<polygon fill="black" stroke="black" points="246.78,-294 239.78,-297.15 243.28,-294 239.78,-294 239.78,-294 239.78,-294 243.28,-294 239.78,-290.85 246.78,-294 246.78,-294"/>
<text text-anchor="start" x="198" y="-297.4" font-family="Lato" font-size="12.00">!a &amp; b</text>
</g>
<!-- 1 -->
<g id="node6" class="node">
<title>1</title>
<ellipse fill="#ffffa0" stroke="black" cx="574" cy="-148" rx="18" ry="18"/>
<text text-anchor="middle" x="574" y="-144.9" font-family="Lato" font-size="12.00">1</text>
</g>
<!-- 8&#45;&gt;1 -->
<g id="edge30" class="edge">
<title>8&#45;&gt;1</title>
<path fill="none" stroke="black" d="M166.47,-276.39C175.25,-237.56 202.2,-148 264,-148 264,-148 264,-148 469,-148 496.3,-148 527.62,-148 548.7,-148"/>
<polygon fill="black" stroke="black" points="555.7,-148 548.7,-151.15 552.2,-148 548.7,-148 548.7,-148 548.7,-148 552.2,-148 548.7,-144.85 555.7,-148 555.7,-148"/>
<text text-anchor="start" x="351" y="-151.4" font-family="Lato" font-size="12.00">a &amp; b</text>
</g>
<!-- 3&#45;&gt;3 -->
<g id="edge14" class="edge">
<title>3&#45;&gt;3</title>
<path fill="none" stroke="black" d="M256.37,-309.92C254.11,-320.15 256.99,-330 265,-330 271.13,-330 274.25,-324.23 274.37,-316.93"/>
<polygon fill="black" stroke="black" points="273.63,-309.92 277.5,-316.55 274,-313.4 274.37,-316.88 274.37,-316.88 274.37,-316.88 274,-313.4 271.23,-317.21 273.63,-309.92 273.63,-309.92"/>
<text text-anchor="start" x="249.5" y="-333.4" font-family="Lato" font-size="12.00">a &amp; !b</text>
</g>
<!-- 2 -->
<g id="node9" class="node">
<title>2</title>
<ellipse fill="#ffffa0" stroke="black" cx="365" cy="-374" rx="18" ry="18"/>
<text text-anchor="middle" x="365" y="-370.9" font-family="Lato" font-size="12.00">2</text>
</g>
<!-- 3&#45;&gt;2 -->
<g id="edge12" class="edge">
<title>3&#45;&gt;2</title>
<path fill="none" stroke="black" d="M279.63,-305.12C296.59,-318.97 325.68,-342.72 344.87,-358.39"/>
<polygon fill="black" stroke="black" points="350.49,-362.97 343.07,-360.98 347.78,-360.76 345.07,-358.54 345.07,-358.54 345.07,-358.54 347.78,-360.76 347.06,-356.1 350.49,-362.97 350.49,-362.97"/>
<text text-anchor="start" x="301" y="-346.4" font-family="Lato" font-size="12.00">a &amp; b</text>
</g>
<!-- 9 -->
<g id="node11" class="node">
<title>9</title>
<ellipse fill="#ffffa0" stroke="black" cx="468" cy="-228" rx="18" ry="18"/>
<text text-anchor="middle" x="468" y="-224.9" font-family="Lato" font-size="12.00">9</text>
</g>
<!-- 3&#45;&gt;9 -->
<g id="edge13" class="edge">
<title>3&#45;&gt;9</title>
<path fill="none" stroke="black" d="M281.93,-287.33C287.88,-284.92 294.71,-282.24 301,-280 351.26,-262.11 411.19,-244.15 443.52,-234.73"/>
<polygon fill="black" stroke="black" points="450.37,-232.75 444.52,-237.72 447.01,-233.72 443.64,-234.7 443.64,-234.7 443.64,-234.7 447.01,-233.72 442.77,-231.67 450.37,-232.75 450.37,-232.75"/>
<text text-anchor="start" x="349.5" y="-267.4" font-family="Lato" font-size="12.00">a &amp; !b</text>
</g>
<!-- 4&#45;&gt;0 -->
<g id="edge15" class="edge">
<title>4&#45;&gt;0</title>
<path fill="none" stroke="black" d="M980.61,-440.03C963.98,-460.72 929.22,-497 890,-497 161,-497 161,-497 161,-497 115.64,-497 82.97,-446.92 67.35,-416.6"/>
<polygon fill="black" stroke="black" points="64.1,-410.09 70.05,-414.95 65.67,-413.23 67.23,-416.36 67.23,-416.36 67.23,-416.36 65.67,-413.23 64.41,-417.76 64.1,-410.09 64.1,-410.09"/>
<text text-anchor="start" x="504" y="-500.4" font-family="Lato" font-size="12.00">!a &amp; !b</text>
</g>
<!-- 7 -->
<g id="node7" class="node">
<title>7</title>
<ellipse fill="#ffffa0" stroke="black" cx="889" cy="-145" rx="18" ry="18"/>
<text text-anchor="middle" x="889" y="-141.9" font-family="Lato" font-size="12.00">7</text>
</g>
<!-- 4&#45;&gt;7 -->
<g id="edge16" class="edge">
<title>4&#45;&gt;7</title>
<path fill="none" stroke="black" d="M985.02,-409.35C967.83,-361.53 918.28,-223.67 898.4,-168.37"/>
<polygon fill="black" stroke="black" points="896.02,-161.74 901.35,-167.26 897.2,-165.03 898.38,-168.32 898.38,-168.32 898.38,-168.32 897.2,-165.03 895.42,-169.39 896.02,-161.74 896.02,-161.74"/>
<text text-anchor="start" x="925" y="-330.4" font-family="Lato" font-size="12.00">!a &amp; b</text>
</g>
<!-- 1&#45;&gt;0 -->
<g id="edge6" class="edge">
<title>1&#45;&gt;0</title>
<path fill="none" stroke="black" d="M571.36,-130C568.43,-108.79 560.33,-74.02 538,-55 514.18,-34.71 500.29,-41 469,-41 161,-41 161,-41 161,-41 92.61,-41 65.87,-287.89 58.95,-368.72"/>
<polygon fill="black" stroke="black" points="58.34,-376.01 55.78,-368.77 58.63,-372.52 58.92,-369.03 58.92,-369.03 58.92,-369.03 58.63,-372.52 62.06,-369.3 58.34,-376.01 58.34,-376.01"/>
<text text-anchor="start" x="301" y="-44.4" font-family="Lato" font-size="12.00">a &amp; b</text>
</g>
<!-- 1&#45;&gt;7 -->
<g id="edge5" class="edge">
<title>1&#45;&gt;7</title>
<path fill="none" stroke="black" d="M582.82,-131.71C588.79,-121.04 598.02,-107.69 610,-100 649.31,-74.75 666.52,-83.69 713,-79 775.6,-72.68 799.45,-66.97 853,-100 862.13,-105.63 869.8,-114.56 875.61,-122.98"/>
<polygon fill="black" stroke="black" points="879.69,-129.26 873.24,-125.11 877.79,-126.33 875.88,-123.39 875.88,-123.39 875.88,-123.39 877.79,-126.33 878.52,-121.68 879.69,-129.26 879.69,-129.26"/>
<text text-anchor="start" x="716" y="-82.4" font-family="Lato" font-size="12.00">a &amp; b</text>
</g>
<!-- 6 -->
<g id="node8" class="node">
<title>6</title>
<ellipse fill="#ffffa0" stroke="black" cx="677" cy="-334" rx="18" ry="18"/>
<text text-anchor="middle" x="677" y="-330.9" font-family="Lato" font-size="12.00">6</text>
</g>
<!-- 1&#45;&gt;6 -->
<g id="edge7" class="edge">
<title>1&#45;&gt;6</title>
<path fill="none" stroke="black" d="M578.36,-165.48C583.14,-187.76 593.22,-226.99 610,-257 622.85,-280 643.23,-302.41 657.94,-317.08"/>
<polygon fill="black" stroke="black" points="663.08,-322.11 655.88,-319.46 660.58,-319.66 658.08,-317.21 658.08,-317.21 658.08,-317.21 660.58,-319.66 660.29,-314.96 663.08,-322.11 663.08,-322.11"/>
<text text-anchor="start" x="610" y="-303.4" font-family="Lato" font-size="12.00">a &amp; !b</text>
</g>
<!-- 7&#45;&gt;0 -->
<g id="edge27" class="edge">
<title>7&#45;&gt;0</title>
<path fill="none" stroke="black" d="M884.21,-127.51C874.73,-88.94 846.11,0 784,0 161,0 161,0 161,0 117.94,0 110.72,-29.23 92,-68 66.38,-121.06 59.31,-301.49 57.54,-368.59"/>
<polygon fill="black" stroke="black" points="57.36,-375.83 54.38,-368.76 57.45,-372.33 57.53,-368.84 57.53,-368.84 57.53,-368.84 57.45,-372.33 60.68,-368.91 57.36,-375.83 57.36,-375.83"/>
<text text-anchor="start" x="452.5" y="-3.4" font-family="Lato" font-size="12.00">!a &amp; b</text>
</g>
<!-- 7&#45;&gt;8 -->
<g id="edge25" class="edge">
<title>7&#45;&gt;8</title>
<path fill="none" stroke="black" d="M883.61,-127.73C878.76,-112.39 869.39,-90.65 853,-79 833.94,-65.45 824.31,-72.78 801,-71 631.01,-58 587.98,-79 417.5,-79 264,-79 264,-79 264,-79 180.92,-79 166.05,-212.14 163.49,-268.88"/>
<polygon fill="black" stroke="black" points="163.21,-276.04 160.33,-268.92 163.35,-272.54 163.48,-269.04 163.48,-269.04 163.48,-269.04 163.35,-272.54 166.63,-269.17 163.21,-276.04 163.21,-276.04"/>
<text text-anchor="start" x="504" y="-81.4" font-family="Lato" font-size="12.00">!a &amp; !b</text>
</g>
<!-- 7&#45;&gt;4 -->
<g id="edge29" class="edge">
<title>7&#45;&gt;4</title>
<path fill="none" stroke="black" d="M902.73,-156.71C917.98,-171.52 943.09,-198.54 956,-227 982.43,-285.25 988.96,-361.48 990.54,-400.52"/>
<polygon fill="black" stroke="black" points="990.79,-407.82 987.4,-400.93 990.67,-404.32 990.55,-400.83 990.55,-400.83 990.55,-400.83 990.67,-404.32 993.7,-400.72 990.79,-407.82 990.79,-407.82"/>
<text text-anchor="start" x="926.5" y="-230.4" font-family="Lato" font-size="12.00">a &amp; b</text>
</g>
<!-- 7&#45;&gt;1 -->
<g id="edge28" class="edge">
<title>7&#45;&gt;1</title>
<path fill="none" stroke="black" d="M870.75,-144.74C827.09,-144.16 708.65,-143.01 610,-146 606.53,-146.11 602.87,-146.26 599.28,-146.44"/>
<polygon fill="black" stroke="black" points="592.08,-146.84 598.9,-143.31 595.58,-146.65 599.07,-146.46 599.07,-146.46 599.07,-146.46 595.58,-146.65 599.24,-149.6 592.08,-146.84 592.08,-146.84"/>
<text text-anchor="start" x="713" y="-148.4" font-family="Lato" font-size="12.00">!a &amp; !b</text>
</g>
<!-- 7&#45;&gt;9 -->
<g id="edge26" class="edge">
<title>7&#45;&gt;9</title>
<path fill="none" stroke="black" d="M876.33,-158.26C858.47,-177.01 822.37,-209 784,-209 573,-209 573,-209 573,-209 544.92,-209 513.27,-215.78 492.34,-221.24"/>
<polygon fill="black" stroke="black" points="485.4,-223.11 491.34,-218.25 488.78,-222.2 492.16,-221.29 492.16,-221.29 492.16,-221.29 488.78,-222.2 492.98,-224.33 485.4,-223.11 485.4,-223.11"/>
<text text-anchor="start" x="663" y="-212.4" font-family="Lato" font-size="12.00">a &amp; b</text>
</g>
<!-- 6&#45;&gt;8 -->
<g id="edge22" class="edge">
<title>6&#45;&gt;8</title>
<path fill="none" stroke="black" d="M664.28,-346.92C642.27,-370.09 592.06,-417.88 538,-435 479.95,-453.38 460.04,-449.9 401,-435 310.39,-412.14 220.02,-342.56 181.87,-310.5"/>
<polygon fill="black" stroke="black" points="176.21,-305.69 183.58,-307.82 178.88,-307.96 181.54,-310.22 181.54,-310.22 181.54,-310.22 178.88,-307.96 179.5,-312.62 176.21,-305.69 176.21,-305.69"/>
<text text-anchor="start" x="402.5" y="-445.4" font-family="Lato" font-size="12.00">a &amp; b</text>
</g>
<!-- 6&#45;&gt;2 -->
<g id="edge24" class="edge">
<title>6&#45;&gt;2</title>
<path fill="none" stroke="black" d="M658.88,-335.66C627.93,-338.7 560.6,-345.57 504,-353 464.03,-358.25 417.73,-365.54 390.21,-370.01"/>
<polygon fill="black" stroke="black" points="382.96,-371.19 389.37,-366.95 386.42,-370.63 389.87,-370.06 389.87,-370.06 389.87,-370.06 386.42,-370.63 390.38,-373.17 382.96,-371.19 382.96,-371.19"/>
<text text-anchor="start" x="505.5" y="-356.4" font-family="Lato" font-size="12.00">a &amp; !b</text>
</g>
<!-- 5 -->
<g id="node10" class="node">
<title>5</title>
<ellipse fill="#ffffa0" stroke="black" cx="783" cy="-277" rx="18" ry="18"/>
<text text-anchor="middle" x="783" y="-273.9" font-family="Lato" font-size="12.00">5</text>
</g>
<!-- 6&#45;&gt;5 -->
<g id="edge23" class="edge">
<title>6&#45;&gt;5</title>
<path fill="none" stroke="black" d="M694.04,-327.56C708.3,-321.61 729.54,-312.17 747,-302 752.17,-298.99 757.54,-295.41 762.47,-291.92"/>
<polygon fill="black" stroke="black" points="768.43,-287.59 764.62,-294.25 765.6,-289.65 762.77,-291.7 762.77,-291.7 762.77,-291.7 765.6,-289.65 760.92,-289.15 768.43,-287.59 768.43,-287.59"/>
<text text-anchor="start" x="714.5" y="-321.4" font-family="Lato" font-size="12.00">a &amp; !b</text>
</g>
<!-- 2&#45;&gt;0 -->
<g id="edge9" class="edge">
<title>2&#45;&gt;0</title>
<path fill="none" stroke="black" d="M347,-375.92C308.01,-380.22 209.06,-390.52 126,-394 111.19,-394.62 94.58,-394.64 81.37,-394.5"/>
<polygon fill="black" stroke="black" points="74.02,-394.4 81.06,-391.34 77.52,-394.44 81.02,-394.49 81.02,-394.49 81.02,-394.49 77.52,-394.44 80.98,-397.64 74.02,-394.4 74.02,-394.4"/>
<text text-anchor="start" x="198" y="-392.4" font-family="Lato" font-size="12.00">a &amp; !b</text>
</g>
<!-- 2&#45;&gt;4 -->
<g id="edge8" class="edge">
<title>2&#45;&gt;4</title>
<path fill="none" stroke="black" d="M380.82,-383.17C386.86,-386.49 394.06,-389.93 401,-392 541.47,-433.79 582.44,-426 729,-426 729,-426 729,-426 890,-426 916.24,-426 946.31,-426 966.77,-426"/>
<polygon fill="black" stroke="black" points="973.84,-426 966.84,-429.15 970.34,-426 966.84,-426 966.84,-426 966.84,-426 970.34,-426 966.84,-422.85 973.84,-426 973.84,-426"/>
<text text-anchor="start" x="660" y="-429.4" font-family="Lato" font-size="12.00">!a &amp; !b</text>
</g>
<!-- 2&#45;&gt;5 -->
<g id="edge10" class="edge">
<title>2&#45;&gt;5</title>
<path fill="none" stroke="black" d="M383.14,-375.64C403.21,-377.42 437.49,-380 467,-380 467,-380 467,-380 678,-380 723.36,-380 756.03,-329.92 771.65,-299.6"/>
<polygon fill="black" stroke="black" points="774.9,-293.09 774.59,-300.76 773.33,-296.23 771.77,-299.36 771.77,-299.36 771.77,-299.36 773.33,-296.23 768.95,-297.95 774.9,-293.09 774.9,-293.09"/>
<text text-anchor="start" x="558.5" y="-383.4" font-family="Lato" font-size="12.00">a &amp; !b</text>
</g>
<!-- 2&#45;&gt;9 -->
<g id="edge11" class="edge">
<title>2&#45;&gt;9</title>
<path fill="none" stroke="black" d="M376.05,-359.47C394.13,-333.34 432.15,-278.38 452.85,-248.46"/>
<polygon fill="black" stroke="black" points="456.99,-242.47 455.6,-250.02 455,-245.35 453,-248.23 453,-248.23 453,-248.23 455,-245.35 450.41,-246.44 456.99,-242.47 456.99,-242.47"/>
<text text-anchor="start" x="401" y="-325.4" font-family="Lato" font-size="12.00">!a &amp; b</text>
</g>
<!-- 5&#45;&gt;3 -->
<g id="edge17" class="edge">
<title>5&#45;&gt;3</title>
<path fill="none" stroke="black" d="M765.12,-279.53C738.72,-283.34 686.01,-290.39 641,-293 508.86,-300.65 350.09,-296.78 290.33,-294.86"/>
<polygon fill="black" stroke="black" points="283.21,-294.63 290.31,-291.71 286.71,-294.74 290.21,-294.86 290.21,-294.86 290.21,-294.86 286.71,-294.74 290.11,-298.01 283.21,-294.63 283.21,-294.63"/>
<text text-anchor="start" x="505.5" y="-301.4" font-family="Lato" font-size="12.00">a &amp; !b</text>
</g>
<!-- 5&#45;&gt;1 -->
<g id="edge18" class="edge">
<title>5&#45;&gt;1</title>
<path fill="none" stroke="black" d="M773.55,-261.66C760.08,-238.75 731.51,-195.95 695,-174 665.24,-156.1 624.76,-150.46 599.25,-148.71"/>
<polygon fill="black" stroke="black" points="592.16,-148.3 599.33,-145.56 595.66,-148.51 599.15,-148.71 599.15,-148.71 599.15,-148.71 595.66,-148.51 598.97,-151.85 592.16,-148.3 592.16,-148.3"/>
<text text-anchor="start" x="661.5" y="-177.4" font-family="Lato" font-size="12.00">!a &amp; b</text>
</g>
<!-- 5&#45;&gt;7 -->
<g id="edge19" class="edge">
<title>5&#45;&gt;7</title>
<path fill="none" stroke="black" d="M798.93,-268.35C814.21,-258.87 837.81,-242.4 853,-223 865.73,-206.74 874.96,-185.12 880.74,-168.76"/>
<polygon fill="black" stroke="black" points="883,-162.11 883.73,-169.75 881.87,-165.42 880.75,-168.73 880.75,-168.73 880.75,-168.73 881.87,-165.42 877.76,-167.72 883,-162.11 883,-162.11"/>
<text text-anchor="start" x="819" y="-257.4" font-family="Lato" font-size="12.00">!a &amp; !b</text>
</g>
<!-- 5&#45;&gt;5 -->
<g id="edge21" class="edge">
<title>5&#45;&gt;5</title>
<path fill="none" stroke="black" d="M774.02,-292.92C771.68,-303.15 774.67,-313 783,-313 789.38,-313 792.63,-307.23 792.75,-299.93"/>
<polygon fill="black" stroke="black" points="791.98,-292.92 795.87,-299.53 792.36,-296.4 792.74,-299.87 792.74,-299.87 792.74,-299.87 792.36,-296.4 789.61,-300.22 791.98,-292.92 791.98,-292.92"/>
<text text-anchor="start" x="766" y="-316.4" font-family="Lato" font-size="12.00">!a &amp; !b</text>
</g>
<!-- 5&#45;&gt;9 -->
<g id="edge20" class="edge">
<title>5&#45;&gt;9</title>
<path fill="none" stroke="black" d="M765.72,-271.66C739.69,-263.37 686.95,-247.56 641,-240 588.83,-231.41 526.76,-228.96 493.3,-228.27"/>
<polygon fill="black" stroke="black" points="486.21,-228.14 493.27,-225.12 489.71,-228.2 493.21,-228.27 493.21,-228.27 493.21,-228.27 489.71,-228.2 493.15,-231.42 486.21,-228.14 486.21,-228.14"/>
<text text-anchor="start" x="610" y="-243.4" font-family="Lato" font-size="12.00">!a &amp; b</text>
</g>
<!-- 9&#45;&gt;3 -->
<g id="edge33" class="edge">
<title>9&#45;&gt;3</title>
<path fill="none" stroke="black" d="M449.78,-226.66C425.98,-225.38 382.03,-225.14 347,-237 322.63,-245.25 299.08,-263.33 283.71,-276.93"/>
<polygon fill="black" stroke="black" points="278.43,-281.71 281.51,-274.67 281.03,-279.36 283.62,-277.01 283.62,-277.01 283.62,-277.01 281.03,-279.36 285.74,-279.34 278.43,-281.71 278.43,-281.71"/>
<text text-anchor="start" x="349.5" y="-240.4" font-family="Lato" font-size="12.00">a &amp; !b</text>
</g>
<!-- 9&#45;&gt;1 -->
<g id="edge32" class="edge">
<title>9&#45;&gt;1</title>
<path fill="none" stroke="black" d="M477.92,-212.87C484.25,-203.12 493.47,-190.68 504,-182 517.73,-170.69 535.85,-161.94 550.08,-156.16"/>
<polygon fill="black" stroke="black" points="556.71,-153.55 551.35,-159.04 553.46,-154.83 550.2,-156.11 550.2,-156.11 550.2,-156.11 553.46,-154.83 549.05,-153.18 556.71,-153.55 556.71,-153.55"/>
<text text-anchor="start" x="505.5" y="-185.4" font-family="Lato" font-size="12.00">!a &amp; b</text>
</g>
</g>
</svg>
