<?xml version="1.0" encoding="UTF-8" standalone="no"?>
<?xml-stylesheet href="spot.css" type="text/css"?>
<!DOCTYPE svg PUBLIC "-//W3C//DTD SVG 1.1//EN"
 "http://www.w3.org/Graphics/SVG/1.1/DTD/svg11.dtd">
<!-- Generated by graphviz version 2.43.0 (0)
 -->
<!-- Pages: 1 -->
<svg width="1087pt" height="353pt"
 viewBox="0.00 0.00 1087.00 353.00" xmlns="http://www.w3.org/2000/svg" xmlns:xlink="http://www.w3.org/1999/xlink">
<g id="graph0" class="graph" transform="scale(1 1) rotate(0) translate(4 349)">
<polygon fill="white" stroke="transparent" points="-4,4 -4,-349 1083,-349 1083,4 -4,4"/>
<text text-anchor="start" x="445" y="-332.4" font-family="Lato" font-size="12.00">Inf(</text>
<text text-anchor="start" x="463" y="-332.4" font-family="Lato" font-size="12.00" fill="#1f78b4">⓿</text>
<text text-anchor="start" x="477" y="-332.4" font-family="Lato" font-size="12.00">) | (Fin(</text>
<text text-anchor="start" x="512" y="-332.4" font-family="Lato" font-size="12.00" fill="#ff4da0">❶</text>
<text text-anchor="start" x="526" y="-332.4" font-family="Lato" font-size="12.00">) &amp; (Inf(</text>
<text text-anchor="start" x="564" y="-332.4" font-family="Lato" font-size="12.00" fill="#ff7f00">❷</text>
<text text-anchor="start" x="578" y="-332.4" font-family="Lato" font-size="12.00">) | Fin(</text>
<text text-anchor="start" x="610" y="-332.4" font-family="Lato" font-size="12.00" fill="#6a3d9a">❸</text>
<text text-anchor="start" x="624" y="-332.4" font-family="Lato" font-size="12.00">)))</text>
<text text-anchor="start" x="490.5" y="-320.4" font-family="Lato" font-size="12.00">[parity min even 4]</text>
<!-- I -->
<!-- 0 -->
<g id="node2" class="node">
<title>0</title>
<path fill="#ffffa0" stroke="black" d="M62,-139C62,-139 50,-139 50,-139 44,-139 38,-133 38,-127 38,-127 38,-115 38,-115 38,-109 44,-103 50,-103 50,-103 62,-103 62,-103 68,-103 74,-109 74,-115 74,-115 74,-127 74,-127 74,-133 68,-139 62,-139"/>
<text text-anchor="start" x="52.5" y="-124.4" font-family="Lato" font-size="12.00">0</text>
<text text-anchor="start" x="49" y="-111.4" font-family="Lato" font-size="12.00" fill="#ff4da0">❶</text>
</g>
<!-- I&#45;&gt;0 -->
<g id="edge1" class="edge">
<title>I&#45;&gt;0</title>
<path fill="none" stroke="black" d="M1.15,-121C2.79,-121 17.15,-121 30.63,-121"/>
<polygon fill="black" stroke="black" points="37.94,-121 30.94,-124.15 34.44,-121 30.94,-121 30.94,-121 30.94,-121 34.44,-121 30.94,-117.85 37.94,-121 37.94,-121"/>
</g>
<!-- 0&#45;&gt;0 -->
<g id="edge4" class="edge">
<title>0&#45;&gt;0</title>
<path fill="none" stroke="black" d="M49.49,-139.15C48.49,-148.54 50.66,-157 56,-157 59.92,-157 62.14,-152.44 62.64,-146.3"/>
<polygon fill="black" stroke="black" points="62.51,-139.15 65.79,-146.1 62.57,-142.65 62.64,-146.15 62.64,-146.15 62.64,-146.15 62.57,-142.65 59.49,-146.21 62.51,-139.15 62.51,-139.15"/>
<text text-anchor="start" x="33.5" y="-160.4" font-family="Lato" font-size="12.00">p0 &amp; !p1</text>
</g>
<!-- 2 -->
<g id="node3" class="node">
<title>2</title>
<path fill="#ffffa0" stroke="black" d="M188,-171C188,-171 176,-171 176,-171 170,-171 164,-165 164,-159 164,-159 164,-147 164,-147 164,-141 170,-135 176,-135 176,-135 188,-135 188,-135 194,-135 200,-141 200,-147 200,-147 200,-159 200,-159 200,-165 194,-171 188,-171"/>
<text text-anchor="start" x="178.5" y="-156.4" font-family="Lato" font-size="12.00">2</text>
<text text-anchor="start" x="175" y="-143.4" font-family="Lato" font-size="12.00" fill="#ff7f00">❷</text>
</g>
<!-- 0&#45;&gt;2 -->
<g id="edge2" class="edge">
<title>0&#45;&gt;2</title>
<path fill="none" stroke="black" d="M74.24,-125.45C95.8,-131.01 132.83,-140.57 157.11,-146.84"/>
<polygon fill="black" stroke="black" points="163.9,-148.59 156.34,-149.89 160.52,-147.71 157.13,-146.84 157.13,-146.84 157.13,-146.84 160.52,-147.71 157.91,-143.79 163.9,-148.59 163.9,-148.59"/>
<text text-anchor="start" x="92" y="-144.4" font-family="Lato" font-size="12.00">!p0 &amp; !p1</text>
</g>
<!-- 8 -->
<g id="node4" class="node">
<title>8</title>
<path fill="#ffffa0" stroke="black" d="M446,-297C446,-297 434,-297 434,-297 428,-297 422,-291 422,-285 422,-285 422,-273 422,-273 422,-267 428,-261 434,-261 434,-261 446,-261 446,-261 452,-261 458,-267 458,-273 458,-273 458,-285 458,-285 458,-291 452,-297 446,-297"/>
<text text-anchor="start" x="436.5" y="-282.4" font-family="Lato" font-size="12.00">8</text>
<text text-anchor="start" x="433" y="-269.4" font-family="Lato" font-size="12.00" fill="#1f78b4">⓿</text>
</g>
<!-- 0&#45;&gt;8 -->
<g id="edge3" class="edge">
<title>0&#45;&gt;8</title>
<path fill="none" stroke="black" d="M72.62,-139.12C78.42,-145.41 85.24,-152.3 92,-158 170.14,-223.89 191.08,-249.27 290,-275 332.71,-286.11 384.64,-284.19 414.55,-281.67"/>
<polygon fill="black" stroke="black" points="421.67,-281.03 414.98,-284.8 418.18,-281.35 414.69,-281.66 414.69,-281.66 414.69,-281.66 418.18,-281.35 414.41,-278.52 421.67,-281.03 421.67,-281.03"/>
<text text-anchor="start" x="224" y="-272.4" font-family="Lato" font-size="12.00">!p0 &amp; !p1</text>
</g>
<!-- 6 -->
<g id="node5" class="node">
<title>6</title>
<path fill="#ffffa0" stroke="black" d="M947,-110C947,-110 935,-110 935,-110 929,-110 923,-104 923,-98 923,-98 923,-86 923,-86 923,-80 929,-74 935,-74 935,-74 947,-74 947,-74 953,-74 959,-80 959,-86 959,-86 959,-98 959,-98 959,-104 953,-110 947,-110"/>
<text text-anchor="start" x="937.5" y="-95.4" font-family="Lato" font-size="12.00">6</text>
<text text-anchor="start" x="934" y="-82.4" font-family="Lato" font-size="12.00" fill="#1f78b4">⓿</text>
</g>
<!-- 0&#45;&gt;6 -->
<g id="edge5" class="edge">
<title>0&#45;&gt;6</title>
<path fill="none" stroke="black" d="M62.72,-102.86C68.26,-87.59 77.91,-65.91 92,-51 123.31,-17.86 135.41,0 181,0 181,0 181,0 820.5,0 865.05,0 903.16,-40.63 923.72,-67.89"/>
<polygon fill="black" stroke="black" points="928.08,-73.82 921.4,-70.05 926.01,-71 923.93,-68.18 923.93,-68.18 923.93,-68.18 926.01,-71 926.47,-66.32 928.08,-73.82 928.08,-73.82"/>
<text text-anchor="start" x="483.5" y="-3.4" font-family="Lato" font-size="12.00">!p0 &amp; p1</text>
</g>
<!-- 5 -->
<g id="node7" class="node">
<title>5</title>
<path fill="#ffffa0" stroke="black" d="M318.5,-171C318.5,-171 306.5,-171 306.5,-171 300.5,-171 294.5,-165 294.5,-159 294.5,-159 294.5,-147 294.5,-147 294.5,-141 300.5,-135 306.5,-135 306.5,-135 318.5,-135 318.5,-135 324.5,-135 330.5,-141 330.5,-147 330.5,-147 330.5,-159 330.5,-159 330.5,-165 324.5,-171 318.5,-171"/>
<text text-anchor="start" x="309" y="-156.4" font-family="Lato" font-size="12.00">5</text>
<text text-anchor="start" x="305.5" y="-143.4" font-family="Lato" font-size="12.00" fill="#1f78b4">⓿</text>
</g>
<!-- 2&#45;&gt;5 -->
<g id="edge9" class="edge">
<title>2&#45;&gt;5</title>
<path fill="none" stroke="black" d="M200.06,-153C222.43,-153 261.81,-153 287.26,-153"/>
<polygon fill="black" stroke="black" points="294.37,-153 287.37,-156.15 290.87,-153 287.37,-153 287.37,-153 287.37,-153 290.87,-153 287.37,-149.85 294.37,-153 294.37,-153"/>
<text text-anchor="start" x="224" y="-156.4" font-family="Lato" font-size="12.00">!p0 &amp; !p1</text>
</g>
<!-- 4 -->
<g id="node9" class="node">
<title>4</title>
<path fill="#ffffa0" stroke="black" d="M578,-255C578,-255 566,-255 566,-255 560,-255 554,-249 554,-243 554,-243 554,-231 554,-231 554,-225 560,-219 566,-219 566,-219 578,-219 578,-219 584,-219 590,-225 590,-231 590,-231 590,-243 590,-243 590,-249 584,-255 578,-255"/>
<text text-anchor="start" x="568.5" y="-240.4" font-family="Lato" font-size="12.00">4</text>
<text text-anchor="start" x="565" y="-227.4" font-family="Lato" font-size="12.00" fill="#1f78b4">⓿</text>
</g>
<!-- 2&#45;&gt;4 -->
<g id="edge8" class="edge">
<title>2&#45;&gt;4</title>
<path fill="none" stroke="black" d="M200.36,-160.81C207.59,-163.9 216.11,-167.34 224,-170 341.4,-209.61 489.49,-228.42 546.81,-234.6"/>
<polygon fill="black" stroke="black" points="553.97,-235.35 546.68,-237.75 550.49,-234.99 547.01,-234.62 547.01,-234.62 547.01,-234.62 550.49,-234.99 547.34,-231.49 553.97,-235.35 553.97,-235.35"/>
<text text-anchor="start" x="354.5" y="-215.4" font-family="Lato" font-size="12.00">p0 &amp; p1</text>
</g>
<!-- 8&#45;&gt;0 -->
<g id="edge24" class="edge">
<title>8&#45;&gt;0</title>
<path fill="none" stroke="black" d="M421.97,-288.36C414.8,-291.8 406.22,-295.28 398,-297 322.16,-312.91 297.2,-311.41 224,-286 155.96,-262.39 137.59,-247.75 92,-192 80.79,-178.29 71.99,-160.38 66.02,-145.98"/>
<polygon fill="black" stroke="black" points="63.32,-139.23 68.85,-144.56 64.62,-142.48 65.92,-145.73 65.92,-145.73 65.92,-145.73 64.62,-142.48 63,-146.9 63.32,-139.23 63.32,-139.23"/>
<text text-anchor="start" x="225.5" y="-303.4" font-family="Lato" font-size="12.00">!p0 &amp; p1</text>
</g>
<!-- 8&#45;&gt;2 -->
<g id="edge23" class="edge">
<title>8&#45;&gt;2</title>
<path fill="none" stroke="black" d="M421.89,-276.18C376.78,-268.49 255.89,-246.09 224,-222 209.25,-210.86 198.77,-192.73 192.11,-177.85"/>
<polygon fill="black" stroke="black" points="189.31,-171.28 194.95,-176.49 190.68,-174.5 192.05,-177.72 192.05,-177.72 192.05,-177.72 190.68,-174.5 189.15,-178.96 189.31,-171.28 189.31,-171.28"/>
<text text-anchor="start" x="290" y="-261.4" font-family="Lato" font-size="12.00">p0 &amp; !p1</text>
</g>
<!-- 8&#45;&gt;4 -->
<g id="edge22" class="edge">
<title>8&#45;&gt;4</title>
<path fill="none" stroke="black" d="M458.27,-270.15C465.48,-266.68 474.02,-262.85 482,-260 503.43,-252.34 528.61,-246.07 546.7,-242.03"/>
<polygon fill="black" stroke="black" points="553.99,-240.43 547.83,-245.01 550.58,-241.18 547.16,-241.93 547.16,-241.93 547.16,-241.93 550.58,-241.18 546.48,-238.85 553.99,-240.43 553.99,-240.43"/>
<text text-anchor="start" x="483.5" y="-263.4" font-family="Lato" font-size="12.00">p0 &amp; !p1</text>
</g>
<!-- 3 -->
<g id="node10" class="node">
<title>3</title>
<path fill="#ffffa0" stroke="black" d="M1067,-177C1067,-177 1055,-177 1055,-177 1049,-177 1043,-171 1043,-165 1043,-165 1043,-153 1043,-153 1043,-147 1049,-141 1055,-141 1055,-141 1067,-141 1067,-141 1073,-141 1079,-147 1079,-153 1079,-153 1079,-165 1079,-165 1079,-171 1073,-177 1067,-177"/>
<text text-anchor="start" x="1057.5" y="-162.4" font-family="Lato" font-size="12.00">3</text>
<text text-anchor="start" x="1054" y="-149.4" font-family="Lato" font-size="12.00" fill="#1f78b4">⓿</text>
</g>
<!-- 8&#45;&gt;3 -->
<g id="edge21" class="edge">
<title>8&#45;&gt;3</title>
<path fill="none" stroke="black" d="M458.22,-280.74C483.09,-283.09 530.52,-287 571,-287 571,-287 571,-287 942,-287 997.63,-287 1034.26,-220.84 1050.46,-183.65"/>
<polygon fill="black" stroke="black" points="1053.24,-177.07 1053.42,-184.74 1051.88,-180.29 1050.52,-183.51 1050.52,-183.51 1050.52,-183.51 1051.88,-180.29 1047.61,-182.29 1053.24,-177.07 1053.24,-177.07"/>
<text text-anchor="start" x="732.5" y="-290.4" font-family="Lato" font-size="12.00">!p0 &amp; p1</text>
</g>
<!-- 6&#45;&gt;2 -->
<g id="edge17" class="edge">
<title>6&#45;&gt;2</title>
<path fill="none" stroke="black" d="M922.98,-92C899.8,-92 857.01,-92 820.5,-92 635.5,-92 635.5,-92 635.5,-92 481.2,-92 442,-99.5 290,-126 261.17,-131.03 228.66,-139.67 207.11,-145.82"/>
<polygon fill="black" stroke="black" points="200.25,-147.8 206.1,-142.83 203.61,-146.83 206.98,-145.86 206.98,-145.86 206.98,-145.86 203.61,-146.83 207.85,-148.88 200.25,-147.8 200.25,-147.8"/>
<text text-anchor="start" x="548" y="-96.4" font-family="Lato" font-size="12.00">!p0 &amp; !p1</text>
</g>
<!-- 6&#45;&gt;3 -->
<g id="edge18" class="edge">
<title>6&#45;&gt;3</title>
<path fill="none" stroke="black" d="M959.08,-100.32C964.78,-103.09 971.16,-106.18 977,-109 998.31,-119.28 1004.86,-119.6 1025,-132 1029.04,-134.49 1033.17,-137.35 1037.11,-140.26"/>
<polygon fill="black" stroke="black" points="1042.71,-144.51 1035.23,-142.79 1039.93,-142.4 1037.14,-140.28 1037.14,-140.28 1037.14,-140.28 1039.93,-142.4 1039.04,-137.77 1042.71,-144.51 1042.71,-144.51"/>
<text text-anchor="start" x="977" y="-135.4" font-family="Lato" font-size="12.00">!p0 &amp; !p1</text>
</g>
<!-- 1 -->
<g id="node6" class="node">
<title>1</title>
<path fill="#ffffa0" stroke="black" d="M701,-177C701,-177 689,-177 689,-177 683,-177 677,-171 677,-165 677,-165 677,-153 677,-153 677,-147 683,-141 689,-141 689,-141 701,-141 701,-141 707,-141 713,-147 713,-153 713,-153 713,-165 713,-165 713,-171 707,-177 701,-177"/>
<text text-anchor="start" x="691.5" y="-162.4" font-family="Lato" font-size="12.00">1</text>
<text text-anchor="start" x="688" y="-149.4" font-family="Lato" font-size="12.00" fill="#6a3d9a">❸</text>
</g>
<!-- 1&#45;&gt;5 -->
<g id="edge6" class="edge">
<title>1&#45;&gt;5</title>
<path fill="none" stroke="black" d="M676.66,-154.83C671.06,-153.67 664.8,-152.57 659,-152 539.04,-140.12 394.49,-147.51 337.9,-151.23"/>
<polygon fill="black" stroke="black" points="330.82,-151.71 337.59,-148.1 334.31,-151.48 337.8,-151.24 337.8,-151.24 337.8,-151.24 334.31,-151.48 338.01,-154.38 330.82,-151.71 330.82,-151.71"/>
<text text-anchor="start" x="482" y="-148.4" font-family="Lato" font-size="12.00">!p0 &amp; !p1</text>
</g>
<!-- 9 -->
<g id="node8" class="node">
<title>9</title>
<path fill="#ffffa0" stroke="black" d="M825.5,-64C825.5,-64 813.5,-64 813.5,-64 807.5,-64 801.5,-58 801.5,-52 801.5,-52 801.5,-40 801.5,-40 801.5,-34 807.5,-28 813.5,-28 813.5,-28 825.5,-28 825.5,-28 831.5,-28 837.5,-34 837.5,-40 837.5,-40 837.5,-52 837.5,-52 837.5,-58 831.5,-64 825.5,-64"/>
<text text-anchor="start" x="816" y="-49.4" font-family="Lato" font-size="12.00">9</text>
<text text-anchor="start" x="812.5" y="-36.4" font-family="Lato" font-size="12.00" fill="#ff4da0">❶</text>
</g>
<!-- 1&#45;&gt;9 -->
<g id="edge7" class="edge">
<title>1&#45;&gt;9</title>
<path fill="none" stroke="black" d="M713.03,-143.29C734.67,-123.33 772.07,-88.83 796.02,-66.73"/>
<polygon fill="black" stroke="black" points="801.22,-61.94 798.21,-69 798.64,-64.32 796.07,-66.69 796.07,-66.69 796.07,-66.69 798.64,-64.32 793.94,-64.37 801.22,-61.94 801.22,-61.94"/>
<text text-anchor="start" x="732.5" y="-128.4" font-family="Lato" font-size="12.00">!p0 &amp; p1</text>
</g>
<!-- 5&#45;&gt;0 -->
<g id="edge14" class="edge">
<title>5&#45;&gt;0</title>
<path fill="none" stroke="black" d="M294.15,-144.17C273.69,-134.3 238.37,-118.93 206,-113 162.54,-105.04 110.86,-111.24 81.2,-116.26"/>
<polygon fill="black" stroke="black" points="74.15,-117.5 80.49,-113.18 77.59,-116.89 81.04,-116.29 81.04,-116.29 81.04,-116.29 77.59,-116.89 81.59,-119.39 74.15,-117.5 74.15,-117.5"/>
<text text-anchor="start" x="158" y="-116.4" font-family="Lato" font-size="12.00">!p0 &amp; !p1</text>
</g>
<!-- 5&#45;&gt;8 -->
<g id="edge15" class="edge">
<title>5&#45;&gt;8</title>
<path fill="none" stroke="black" d="M330.83,-160.03C354.04,-169.56 392.9,-185.97 398,-191 415.63,-208.4 426.53,-234.82 432.62,-254.17"/>
<polygon fill="black" stroke="black" points="434.65,-260.95 429.62,-255.15 433.64,-257.6 432.64,-254.24 432.64,-254.24 432.64,-254.24 433.64,-257.6 435.66,-253.34 434.65,-260.95 434.65,-260.95"/>
<text text-anchor="start" x="353" y="-194.4" font-family="Lato" font-size="12.00">p0 &amp; !p1</text>
</g>
<!-- 7 -->
<g id="node11" class="node">
<title>7</title>
<path fill="#ffffa0" stroke="black" d="M578,-197C578,-197 566,-197 566,-197 560,-197 554,-191 554,-185 554,-185 554,-173 554,-173 554,-167 560,-161 566,-161 566,-161 578,-161 578,-161 584,-161 590,-167 590,-173 590,-173 590,-185 590,-185 590,-191 584,-197 578,-197"/>
<text text-anchor="start" x="568.5" y="-182.4" font-family="Lato" font-size="12.00">7</text>
<text text-anchor="start" x="565" y="-169.4" font-family="Lato" font-size="12.00" fill="#ff7f00">❷</text>
</g>
<!-- 5&#45;&gt;7 -->
<g id="edge16" class="edge">
<title>5&#45;&gt;7</title>
<path fill="none" stroke="black" d="M330.8,-154.75C375.51,-159.26 495.02,-171.33 546.67,-176.54"/>
<polygon fill="black" stroke="black" points="553.78,-177.26 546.5,-179.69 550.3,-176.91 546.82,-176.56 546.82,-176.56 546.82,-176.56 550.3,-176.91 547.13,-173.42 553.78,-177.26 553.78,-177.26"/>
<text text-anchor="start" x="416" y="-171.4" font-family="Lato" font-size="12.00">!p0 &amp; !p1</text>
</g>
<!-- 9&#45;&gt;0 -->
<g id="edge25" class="edge">
<title>9&#45;&gt;0</title>
<path fill="none" stroke="black" d="M801.46,-46C777.79,-46 733.64,-46 696,-46 181,-46 181,-46 181,-46 140.47,-46 101.85,-75.7 78.78,-97.72"/>
<polygon fill="black" stroke="black" points="73.54,-102.84 76.34,-95.7 76.04,-100.4 78.55,-97.95 78.55,-97.95 78.55,-97.95 76.04,-100.4 80.75,-100.2 73.54,-102.84 73.54,-102.84"/>
<text text-anchor="start" x="419" y="-49.4" font-family="Lato" font-size="12.00">p0 &amp; p1</text>
</g>
<!-- 9&#45;&gt;6 -->
<g id="edge26" class="edge">
<title>9&#45;&gt;6</title>
<path fill="none" stroke="black" d="M837.72,-47.66C855.32,-49.85 883.09,-54.71 905,-65 909.1,-66.93 913.18,-69.4 917.01,-72.07"/>
<polygon fill="black" stroke="black" points="922.82,-76.37 915.32,-74.74 920.01,-74.29 917.2,-72.2 917.2,-72.2 917.2,-72.2 920.01,-74.29 919.07,-69.67 922.82,-76.37 922.82,-76.37"/>
<text text-anchor="start" x="860" y="-68.4" font-family="Lato" font-size="12.00">p0 &amp; !p1</text>
</g>
<!-- 4&#45;&gt;6 -->
<g id="edge12" class="edge">
<title>4&#45;&gt;6</title>
<path fill="none" stroke="black" d="M590.09,-239.76C633.74,-246.07 752.24,-258.56 842,-225 875.23,-212.58 883.47,-204.19 905,-176 918.55,-158.27 927.8,-134.53 933.37,-116.81"/>
<polygon fill="black" stroke="black" points="935.4,-110.1 936.39,-117.72 934.39,-113.45 933.37,-116.8 933.37,-116.8 933.37,-116.8 934.39,-113.45 930.36,-115.89 935.4,-110.1 935.4,-110.1"/>
<text text-anchor="start" x="731" y="-249.4" font-family="Lato" font-size="12.00">!p0 &amp; !p1</text>
</g>
<!-- 4&#45;&gt;1 -->
<g id="edge13" class="edge">
<title>4&#45;&gt;1</title>
<path fill="none" stroke="black" d="M590.08,-225.99C611.13,-212.42 647,-189.3 670.6,-174.08"/>
<polygon fill="black" stroke="black" points="676.62,-170.21 672.44,-176.65 673.67,-172.1 670.73,-174 670.73,-174 670.73,-174 673.67,-172.1 669.03,-171.35 676.62,-170.21 676.62,-170.21"/>
<text text-anchor="start" x="615.5" y="-212.4" font-family="Lato" font-size="12.00">p0 &amp; p1</text>
</g>
<!-- 3&#45;&gt;6 -->
<g id="edge10" class="edge">
<title>3&#45;&gt;6</title>
<path fill="none" stroke="black" d="M1055.27,-140.93C1050.34,-126.1 1041.05,-105.97 1025,-96 1007.63,-85.21 984.05,-85.14 966.46,-87.23"/>
<polygon fill="black" stroke="black" points="959.32,-88.23 965.82,-84.14 962.79,-87.75 966.26,-87.26 966.26,-87.26 966.26,-87.26 962.79,-87.75 966.69,-90.38 959.32,-88.23 959.32,-88.23"/>
<text text-anchor="start" x="978.5" y="-99.4" font-family="Lato" font-size="12.00">p0 &amp; !p1</text>
</g>
<!-- 3&#45;&gt;1 -->
<g id="edge11" class="edge">
<title>3&#45;&gt;1</title>
<path fill="none" stroke="black" d="M1042.97,-159C984.15,-159 789.42,-159 720.47,-159"/>
<polygon fill="black" stroke="black" points="713.07,-159 720.07,-155.85 716.57,-159 720.07,-159 720.07,-159 720.07,-159 716.57,-159 720.07,-162.15 713.07,-159 713.07,-159"/>
<text text-anchor="start" x="860" y="-162.4" font-family="Lato" font-size="12.00">!p0 &amp; p1</text>
</g>
<!-- 7&#45;&gt;1 -->
<g id="edge20" class="edge">
<title>7&#45;&gt;1</title>
<path fill="none" stroke="black" d="M590.05,-169.74C597.23,-166.32 605.81,-162.83 614,-161 632.3,-156.92 653.53,-156.59 669.52,-157.18"/>
<polygon fill="black" stroke="black" points="676.91,-157.54 669.77,-160.35 673.42,-157.37 669.92,-157.2 669.92,-157.2 669.92,-157.2 673.42,-157.37 670.07,-154.05 676.91,-157.54 676.91,-157.54"/>
<text text-anchor="start" x="614" y="-164.4" font-family="Lato" font-size="12.00">!p0 &amp; p1</text>
</g>
<!-- 7&#45;&gt;3 -->
<g id="edge19" class="edge">
<title>7&#45;&gt;3</title>
<path fill="none" stroke="black" d="M590.29,-196.01C597.11,-201.6 605.37,-207.1 614,-210 632.96,-216.36 639.03,-211.01 659,-210 822.29,-201.77 866.21,-211.96 1025,-173 1028.73,-172.08 1032.6,-170.85 1036.33,-169.49"/>
<polygon fill="black" stroke="black" points="1042.87,-166.96 1037.48,-172.43 1039.61,-168.23 1036.34,-169.49 1036.34,-169.49 1036.34,-169.49 1039.61,-168.23 1035.2,-166.55 1042.87,-166.96 1042.87,-166.96"/>
<text text-anchor="start" x="797" y="-208.4" font-family="Lato" font-size="12.00">!p0 &amp; p1</text>
</g>
</g>
</svg>
