<?xml version="1.0" encoding="UTF-8" standalone="no"?>
<?xml-stylesheet href="spot.css" type="text/css"?>
<!DOCTYPE svg PUBLIC "-//W3C//DTD SVG 1.1//EN"
 "http://www.w3.org/Graphics/SVG/1.1/DTD/svg11.dtd">
<!-- Generated by graphviz version 2.43.0 (0)
 -->
<!-- Pages: 1 -->
<svg width="590pt" height="266pt"
 viewBox="0.00 0.00 589.50 266.00" xmlns="http://www.w3.org/2000/svg" xmlns:xlink="http://www.w3.org/1999/xlink">
<g id="graph0" class="graph" transform="scale(1 1) rotate(0) translate(4 262)">
<polygon fill="white" stroke="transparent" points="-4,4 -4,-262 585.5,-262 585.5,4 -4,4"/>
<text text-anchor="start" x="196.25" y="-245.4" font-family="Lato" font-size="12.00">(Fin(</text>
<text text-anchor="start" x="219.25" y="-245.4" font-family="Lato" font-size="12.00" fill="#1f78b4">⓿</text>
<text text-anchor="start" x="233.25" y="-245.4" font-family="Lato" font-size="12.00">) | Inf(</text>
<text text-anchor="start" x="263.25" y="-245.4" font-family="Lato" font-size="12.00" fill="#ff4da0">❶</text>
<text text-anchor="start" x="277.25" y="-245.4" font-family="Lato" font-size="12.00">)) &amp; (Fin(</text>
<text text-anchor="start" x="320.25" y="-245.4" font-family="Lato" font-size="12.00" fill="#ff7f00">❷</text>
<text text-anchor="start" x="334.25" y="-245.4" font-family="Lato" font-size="12.00">) | Inf(</text>
<text text-anchor="start" x="364.25" y="-245.4" font-family="Lato" font-size="12.00" fill="#6a3d9a">❸</text>
<text text-anchor="start" x="378.25" y="-245.4" font-family="Lato" font-size="12.00">))</text>
<text text-anchor="start" x="264.75" y="-233.4" font-family="Lato" font-size="12.00">[Streett 2]</text>
<!-- I -->
<!-- 0 -->
<g id="node2" class="node">
<title>0</title>
<path fill="#ffffa0" stroke="black" d="M62,-81C62,-81 50,-81 50,-81 44,-81 38,-75 38,-69 38,-69 38,-57 38,-57 38,-51 44,-45 50,-45 50,-45 62,-45 62,-45 68,-45 74,-51 74,-57 74,-57 74,-69 74,-69 74,-75 68,-81 62,-81"/>
<text text-anchor="middle" x="56" y="-59.9" font-family="Lato" font-size="12.00">0</text>
</g>
<!-- I&#45;&gt;0 -->
<g id="edge1" class="edge">
<title>I&#45;&gt;0</title>
<path fill="none" stroke="black" d="M1.15,-63C2.79,-63 17.15,-63 30.63,-63"/>
<polygon fill="black" stroke="black" points="37.94,-63 30.94,-66.15 34.44,-63 30.94,-63 30.94,-63 30.94,-63 34.44,-63 30.94,-59.85 37.94,-63 37.94,-63"/>
</g>
<!-- 2 -->
<g id="node3" class="node">
<title>2</title>
<path fill="#ffffa0" stroke="black" d="M192,-116C192,-116 172,-116 172,-116 166,-116 160,-110 160,-104 160,-104 160,-92 160,-92 160,-86 166,-80 172,-80 172,-80 192,-80 192,-80 198,-80 204,-86 204,-92 204,-92 204,-104 204,-104 204,-110 198,-116 192,-116"/>
<text text-anchor="start" x="178.5" y="-101.4" font-family="Lato" font-size="12.00">2</text>
<text text-anchor="start" x="168" y="-89.4" font-family="Lato" font-size="12.00" fill="#1f78b4">⓿</text>
<text text-anchor="start" x="182" y="-89.4" font-family="Lato" font-size="12.00" fill="#ff7f00">❷</text>
</g>
<!-- 0&#45;&gt;2 -->
<g id="edge2" class="edge">
<title>0&#45;&gt;2</title>
<path fill="none" stroke="black" d="M74.24,-67.87C94.59,-73.61 128.72,-83.24 152.91,-90.07"/>
<polygon fill="black" stroke="black" points="159.75,-92 152.16,-93.13 156.39,-91.05 153.02,-90.1 153.02,-90.1 153.02,-90.1 156.39,-91.05 153.87,-87.07 159.75,-92 159.75,-92"/>
<text text-anchor="start" x="92" y="-88.4" font-family="Lato" font-size="12.00">!p0 &amp; !p1</text>
</g>
<!-- 1 -->
<g id="node4" class="node">
<title>1</title>
<path fill="#ffffa0" stroke="black" d="M317,-90C317,-90 305,-90 305,-90 299,-90 293,-84 293,-78 293,-78 293,-66 293,-66 293,-60 299,-54 305,-54 305,-54 317,-54 317,-54 323,-54 329,-60 329,-66 329,-66 329,-78 329,-78 329,-84 323,-90 317,-90"/>
<text text-anchor="middle" x="311" y="-68.9" font-family="Lato" font-size="12.00">1</text>
</g>
<!-- 0&#45;&gt;1 -->
<g id="edge3" class="edge">
<title>0&#45;&gt;1</title>
<path fill="none" stroke="black" d="M74.25,-56.88C111.02,-44.79 199.42,-20.88 269,-43 275.35,-45.02 281.55,-48.41 287.14,-52.18"/>
<polygon fill="black" stroke="black" points="292.94,-56.38 285.42,-54.83 290.1,-54.32 287.27,-52.27 287.27,-52.27 287.27,-52.27 290.1,-54.32 289.11,-49.72 292.94,-56.38 292.94,-56.38"/>
<text text-anchor="start" x="158" y="-40.4" font-family="Lato" font-size="12.00">!p0 &amp; !p1</text>
</g>
<!-- 3 -->
<g id="node5" class="node">
<title>3</title>
<path fill="#ffffa0" stroke="black" d="M565,-185C565,-185 553,-185 553,-185 547,-185 541,-179 541,-173 541,-173 541,-161 541,-161 541,-155 547,-149 553,-149 553,-149 565,-149 565,-149 571,-149 577,-155 577,-161 577,-161 577,-173 577,-173 577,-179 571,-185 565,-185"/>
<text text-anchor="middle" x="559" y="-163.9" font-family="Lato" font-size="12.00">3</text>
</g>
<!-- 0&#45;&gt;3 -->
<g id="edge4" class="edge">
<title>0&#45;&gt;3</title>
<path fill="none" stroke="black" d="M62.41,-81.09C75.56,-120.99 113.26,-213 181,-213 181,-213 181,-213 442,-213 476.06,-213 512.04,-195.65 534.73,-182.26"/>
<polygon fill="black" stroke="black" points="540.76,-178.61 536.41,-184.93 537.77,-180.42 534.78,-182.23 534.78,-182.23 534.78,-182.23 537.77,-180.42 533.14,-179.54 540.76,-178.61 540.76,-178.61"/>
<text text-anchor="start" x="287" y="-216.4" font-family="Lato" font-size="12.00">!p0 &amp; !p1</text>
</g>
<!-- 2&#45;&gt;2 -->
<g id="edge7" class="edge">
<title>2&#45;&gt;2</title>
<path fill="none" stroke="black" d="M170.42,-116.15C168.64,-125.54 172.5,-134 182,-134 188.98,-134 192.91,-129.44 193.8,-123.3"/>
<polygon fill="black" stroke="black" points="193.58,-116.15 196.95,-123.05 193.69,-119.65 193.8,-123.15 193.8,-123.15 193.8,-123.15 193.69,-119.65 190.65,-123.25 193.58,-116.15 193.58,-116.15"/>
<text text-anchor="start" x="158" y="-137.4" font-family="Lato" font-size="12.00">!p0 &amp; !p1</text>
</g>
<!-- 2&#45;&gt;1 -->
<g id="edge6" class="edge">
<title>2&#45;&gt;1</title>
<path fill="none" stroke="black" d="M204.26,-93.65C226.78,-89.04 262.29,-81.77 285.85,-76.94"/>
<polygon fill="black" stroke="black" points="292.76,-75.53 286.53,-80.02 289.33,-76.23 285.9,-76.93 285.9,-76.93 285.9,-76.93 289.33,-76.23 285.27,-73.85 292.76,-75.53 292.76,-75.53"/>
<text text-anchor="start" x="224" y="-92.4" font-family="Lato" font-size="12.00">!p0 &amp; p1</text>
</g>
<!-- 4 -->
<g id="node7" class="node">
<title>4</title>
<path fill="#ffffa0" stroke="black" d="M317,-36C317,-36 305,-36 305,-36 299,-36 293,-30 293,-24 293,-24 293,-12 293,-12 293,-6 299,0 305,0 305,0 317,0 317,0 323,0 329,-6 329,-12 329,-12 329,-24 329,-24 329,-30 323,-36 317,-36"/>
<text text-anchor="middle" x="311" y="-14.9" font-family="Lato" font-size="12.00">4</text>
</g>
<!-- 2&#45;&gt;4 -->
<g id="edge8" class="edge">
<title>2&#45;&gt;4</title>
<path fill="none" stroke="black" d="M202.3,-79.97C208.93,-74.21 216.56,-68.03 224,-63 243.97,-49.51 268.46,-37.04 286.2,-28.67"/>
<polygon fill="black" stroke="black" points="292.88,-25.56 287.86,-31.37 289.71,-27.04 286.53,-28.52 286.53,-28.52 286.53,-28.52 289.71,-27.04 285.2,-25.66 292.88,-25.56 292.88,-25.56"/>
<text text-anchor="start" x="225.5" y="-66.4" font-family="Lato" font-size="12.00">p0 &amp; p1</text>
</g>
<!-- 5 -->
<g id="node6" class="node">
<title>5</title>
<path fill="#ffffa0" stroke="black" d="M451,-116C451,-116 431,-116 431,-116 425,-116 419,-110 419,-104 419,-104 419,-92 419,-92 419,-86 425,-80 431,-80 431,-80 451,-80 451,-80 457,-80 463,-86 463,-92 463,-92 463,-104 463,-104 463,-110 457,-116 451,-116"/>
<text text-anchor="start" x="437.5" y="-101.4" font-family="Lato" font-size="12.00">5</text>
<text text-anchor="start" x="427" y="-89.4" font-family="Lato" font-size="12.00" fill="#ff4da0">❶</text>
<text text-anchor="start" x="441" y="-89.4" font-family="Lato" font-size="12.00" fill="#ff7f00">❷</text>
</g>
<!-- 1&#45;&gt;5 -->
<g id="edge5" class="edge">
<title>1&#45;&gt;5</title>
<path fill="none" stroke="black" d="M329.01,-65.82C347.38,-60.15 377.21,-53.89 401,-63 407.88,-65.64 414.31,-70.11 419.89,-74.99"/>
<polygon fill="black" stroke="black" points="425.17,-79.95 417.91,-77.45 422.62,-77.56 420.07,-75.16 420.07,-75.16 420.07,-75.16 422.62,-77.56 422.23,-72.86 425.17,-79.95 425.17,-79.95"/>
<text text-anchor="start" x="354.5" y="-66.4" font-family="Lato" font-size="12.00">!p0 &amp; p1</text>
</g>
<!-- 3&#45;&gt;2 -->
<g id="edge9" class="edge">
<title>3&#45;&gt;2</title>
<path fill="none" stroke="black" d="M540.81,-166.87C490.63,-166.02 340.52,-160.14 224,-121 219.43,-119.46 214.78,-117.41 210.33,-115.16"/>
<polygon fill="black" stroke="black" points="204,-111.76 211.66,-112.3 207.08,-113.42 210.17,-115.07 210.17,-115.07 210.17,-115.07 207.08,-113.42 208.68,-117.85 204,-111.76 204,-111.76"/>
<text text-anchor="start" x="353" y="-160.4" font-family="Lato" font-size="12.00">!p0 &amp; !p1</text>
</g>
<!-- 3&#45;&gt;3 -->
<g id="edge10" class="edge">
<title>3&#45;&gt;3</title>
<path fill="none" stroke="black" d="M548.87,-185.15C547.31,-194.54 550.69,-203 559,-203 565.1,-203 568.55,-198.44 569.33,-192.3"/>
<polygon fill="black" stroke="black" points="569.13,-185.15 572.47,-192.06 569.23,-188.65 569.32,-192.15 569.32,-192.15 569.32,-192.15 569.23,-188.65 566.18,-192.24 569.13,-185.15 569.13,-185.15"/>
<text text-anchor="start" x="536.5" y="-206.4" font-family="Lato" font-size="12.00">!p0 &amp; p1</text>
</g>
<!-- 5&#45;&gt;2 -->
<g id="edge14" class="edge">
<title>5&#45;&gt;2</title>
<path fill="none" stroke="black" d="M418.66,-103.19C412.96,-104.35 406.78,-105.41 401,-106 322.74,-113.94 302.3,-113.57 224,-106 219.84,-105.6 215.47,-104.97 211.2,-104.24"/>
<polygon fill="black" stroke="black" points="204.17,-102.94 211.62,-101.12 207.61,-103.57 211.05,-104.21 211.05,-104.21 211.05,-104.21 207.61,-103.57 210.47,-107.31 204.17,-102.94 204.17,-102.94"/>
<text text-anchor="start" x="287" y="-114.4" font-family="Lato" font-size="12.00">!p0 &amp; !p1</text>
</g>
<!-- 5&#45;&gt;1 -->
<g id="edge13" class="edge">
<title>5&#45;&gt;1</title>
<path fill="none" stroke="black" d="M418.76,-93.69C396.03,-89.07 360.05,-81.76 336.23,-76.92"/>
<polygon fill="black" stroke="black" points="329.26,-75.51 336.75,-73.81 332.69,-76.2 336.12,-76.9 336.12,-76.9 336.12,-76.9 332.69,-76.2 335.5,-79.99 329.26,-75.51 329.26,-75.51"/>
<text text-anchor="start" x="356" y="-92.4" font-family="Lato" font-size="12.00">p0 &amp; p1</text>
</g>
<!-- 5&#45;&gt;3 -->
<g id="edge15" class="edge">
<title>5&#45;&gt;3</title>
<path fill="none" stroke="black" d="M463.21,-107.71C479.9,-115.65 503.5,-127.56 523,-140 527.09,-142.61 531.29,-145.57 535.3,-148.56"/>
<polygon fill="black" stroke="black" points="541,-152.91 533.52,-151.16 538.22,-150.78 535.43,-148.66 535.43,-148.66 535.43,-148.66 538.22,-150.78 537.34,-146.16 541,-152.91 541,-152.91"/>
<text text-anchor="start" x="481" y="-143.4" font-family="Lato" font-size="12.00">p0 &amp; p1</text>
</g>
<!-- 4&#45;&gt;0 -->
<g id="edge11" class="edge">
<title>4&#45;&gt;0</title>
<path fill="none" stroke="black" d="M292.55,-15.97C264.17,-13.07 206.3,-8.84 158,-16 127.68,-20.49 119.25,-21.96 92,-36 87.97,-38.08 83.94,-40.63 80.12,-43.33"/>
<polygon fill="black" stroke="black" points="74.32,-47.65 78.05,-40.95 77.13,-45.56 79.93,-43.47 79.93,-43.47 79.93,-43.47 77.13,-45.56 81.81,-46 74.32,-47.65 74.32,-47.65"/>
<text text-anchor="start" x="158" y="-19.4" font-family="Lato" font-size="12.00">!p0 &amp; !p1</text>
</g>
<!-- 4&#45;&gt;5 -->
<g id="edge12" class="edge">
<title>4&#45;&gt;5</title>
<path fill="none" stroke="black" d="M329.22,-18.89C348.33,-20.63 379.31,-25.78 401,-41 412.76,-49.25 422.05,-62.26 428.62,-73.77"/>
<polygon fill="black" stroke="black" points="431.98,-79.97 425.87,-75.32 430.31,-76.9 428.64,-73.82 428.64,-73.82 428.64,-73.82 430.31,-76.9 431.41,-72.32 431.98,-79.97 431.98,-79.97"/>
<text text-anchor="start" x="354.5" y="-44.4" font-family="Lato" font-size="12.00">!p0 &amp; p1</text>
</g>
</g>
</svg>
