<?xml version="1.0" encoding="UTF-8" standalone="no"?>
<?xml-stylesheet href="spot.css" type="text/css"?>
<!DOCTYPE svg PUBLIC "-//W3C//DTD SVG 1.1//EN"
 "http://www.w3.org/Graphics/SVG/1.1/DTD/svg11.dtd">
<!-- Generated by graphviz version 2.43.0 (0)
 -->
<!-- Pages: 1 -->
<svg width="328pt" height="109pt"
 viewBox="0.00 0.00 328.00 109.00" xmlns="http://www.w3.org/2000/svg" xmlns:xlink="http://www.w3.org/1999/xlink">
<g id="graph0" class="graph" transform="scale(1 1) rotate(0) translate(4 105)">
<polygon fill="white" stroke="transparent" points="-4,4 -4,-105 324,-105 324,4 -4,4"/>
<text text-anchor="start" x="157.5" y="-87.4" font-family="Lato" font-size="12.00">t</text>
<text text-anchor="start" x="150.5" y="-74.4" font-family="Lato" font-size="12.00">[all]</text>
<!-- I -->
<!-- 0 -->
<g id="node2" class="node">
<title>0</title>
<ellipse fill="#ffffa0" stroke="black" cx="56" cy="-18" rx="18" ry="18"/>
<text text-anchor="middle" x="56" y="-14.9" font-family="Lato" font-size="12.00">0</text>
</g>
<!-- I&#45;&gt;0 -->
<g id="edge1" class="edge">
<title>I&#45;&gt;0</title>
<path fill="none" stroke="black" d="M1.15,-18C2.79,-18 17.15,-18 30.63,-18"/>
<polygon fill="black" stroke="black" points="37.94,-18 30.94,-21.15 34.44,-18 30.94,-18 30.94,-18 30.94,-18 34.44,-18 30.94,-14.85 37.94,-18 37.94,-18"/>
</g>
<!-- 2 -->
<g id="node3" class="node">
<title>2</title>
<ellipse fill="#ffffa0" stroke="black" cx="176" cy="-18" rx="18" ry="18"/>
<text text-anchor="middle" x="176" y="-14.9" font-family="Lato" font-size="12.00">2</text>
</g>
<!-- 0&#45;&gt;2 -->
<g id="edge2" class="edge">
<title>0&#45;&gt;2</title>
<path fill="none" stroke="black" d="M74.16,-18C94.26,-18 127.71,-18 150.52,-18"/>
<polygon fill="black" stroke="black" points="157.82,-18 150.82,-21.15 154.32,-18 150.82,-18 150.82,-18 150.82,-18 154.32,-18 150.82,-14.85 157.82,-18 157.82,-18"/>
<text text-anchor="start" x="92" y="-21.4" font-family="Lato" font-size="12.00">!p0 &amp; !p1</text>
</g>
<!-- 1 -->
<g id="node4" class="node">
<title>1</title>
<ellipse fill="#ffffa0" stroke="black" cx="296" cy="-18" rx="18" ry="18"/>
<text text-anchor="middle" x="296" y="-14.9" font-family="Lato" font-size="12.00">1</text>
</g>
<!-- 2&#45;&gt;1 -->
<g id="edge4" class="edge">
<title>2&#45;&gt;1</title>
<path fill="none" stroke="black" d="M194.16,-18C214.26,-18 247.71,-18 270.52,-18"/>
<polygon fill="black" stroke="black" points="277.82,-18 270.82,-21.15 274.32,-18 270.82,-18 270.82,-18 270.82,-18 274.32,-18 270.82,-14.85 277.82,-18 277.82,-18"/>
<text text-anchor="start" x="212" y="-21.4" font-family="Lato" font-size="12.00">!p0 &amp; !p1</text>
</g>
<!-- 1&#45;&gt;1 -->
<g id="edge3" class="edge">
<title>1&#45;&gt;1</title>
<path fill="none" stroke="black" d="M285.85,-33.17C282.77,-43.66 286.16,-54 296,-54 303.54,-54 307.29,-47.94 307.25,-40.39"/>
<polygon fill="black" stroke="black" points="306.15,-33.17 310.32,-39.61 306.68,-36.63 307.2,-40.09 307.2,-40.09 307.2,-40.09 306.68,-36.63 304.09,-40.56 306.15,-33.17 306.15,-33.17"/>
<text text-anchor="start" x="272" y="-57.4" font-family="Lato" font-size="12.00">!p0 &amp; !p1</text>
</g>
</g>
</svg>
