<?xml version="1.0" encoding="UTF-8" standalone="no"?>
<?xml-stylesheet href="spot.css" type="text/css"?>
<!DOCTYPE svg PUBLIC "-//W3C//DTD SVG 1.1//EN"
 "http://www.w3.org/Graphics/SVG/1.1/DTD/svg11.dtd">
<!-- Generated by graphviz version 2.43.0 (0)
 -->
<!-- Title: G(!press | (red U green)) Pages: 1 -->
<svg width="272pt" height="116pt"
 viewBox="0.00 0.00 271.50 115.77" xmlns="http://www.w3.org/2000/svg" xmlns:xlink="http://www.w3.org/1999/xlink">
<g id="graph0" class="graph" transform="scale(1 1) rotate(0) translate(4 111.77)">
<title>G(!press | (red U green))</title>
<polygon fill="white" stroke="transparent" points="-4,4 -4,-111.77 267.5,-111.77 267.5,4 -4,4"/>
<text text-anchor="start" x="129.25" y="-94.17" font-family="Lato" font-size="12.00">t</text>
<text text-anchor="start" x="122.25" y="-81.17" font-family="Lato" font-size="12.00">[all]</text>
<!-- I -->
<!-- 1 -->
<g id="node2" class="node">
<title>1</title>
<ellipse fill="#ffffa0" stroke="black" cx="56" cy="-24.77" rx="18" ry="18"/>
<text text-anchor="middle" x="56" y="-21.67" font-family="Lato" font-size="12.00">1</text>
</g>
<!-- I&#45;&gt;1 -->
<g id="edge1" class="edge">
<title>I&#45;&gt;1</title>
<path fill="none" stroke="black" d="M1.15,-24.77C2.79,-24.77 17.15,-24.77 30.63,-24.77"/>
<polygon fill="black" stroke="black" points="37.94,-24.77 30.94,-27.92 34.44,-24.77 30.94,-24.77 30.94,-24.77 30.94,-24.77 34.44,-24.77 30.94,-21.62 37.94,-24.77 37.94,-24.77"/>
</g>
<!-- 1&#45;&gt;1 -->
<g id="edge5" class="edge">
<title>1&#45;&gt;1</title>
<path fill="none" stroke="black" d="M49.62,-41.81C48.32,-51.63 50.45,-60.77 56,-60.77 60.17,-60.77 62.4,-55.63 62.71,-48.91"/>
<polygon fill="black" stroke="black" points="62.38,-41.81 65.85,-48.65 62.54,-45.3 62.71,-48.8 62.71,-48.8 62.71,-48.8 62.54,-45.3 59.56,-48.95 62.38,-41.81 62.38,-41.81"/>
<text text-anchor="start" x="22" y="-64.17" font-family="Lato" font-size="12.00">green | !press</text>
</g>
<!-- 0 -->
<g id="node3" class="node">
<title>0</title>
<ellipse fill="#ffffa0" stroke="black" cx="232" cy="-24.77" rx="18" ry="18"/>
<text text-anchor="middle" x="232" y="-21.67" font-family="Lato" font-size="12.00">0</text>
</g>
<!-- 1&#45;&gt;0 -->
<g id="edge4" class="edge">
<title>1&#45;&gt;0</title>
<path fill="none" stroke="black" d="M74,-24.77C105.06,-24.77 171.05,-24.77 206.79,-24.77"/>
<polygon fill="black" stroke="black" points="213.93,-24.77 206.93,-27.92 210.43,-24.77 206.93,-24.77 206.93,-24.77 206.93,-24.77 210.43,-24.77 206.93,-21.62 213.93,-24.77 213.93,-24.77"/>
<text text-anchor="start" x="92" y="-28.17" font-family="Lato" font-size="12.00">!green &amp; press &amp; red</text>
</g>
<!-- 0&#45;&gt;1 -->
<g id="edge3" class="edge">
<title>0&#45;&gt;1</title>
<path fill="none" stroke="black" d="M216.22,-15.75C210.18,-12.57 202.98,-9.38 196,-7.77 150.95,2.59 137.05,2.59 92,-7.77 87.42,-8.82 82.75,-10.56 78.36,-12.53"/>
<polygon fill="black" stroke="black" points="71.78,-15.75 76.68,-9.85 74.92,-14.22 78.07,-12.68 78.07,-12.68 78.07,-12.68 74.92,-14.22 79.45,-15.51 71.78,-15.75 71.78,-15.75"/>
<text text-anchor="start" x="129.5" y="-11.17" font-family="Lato" font-size="12.00">green</text>
</g>
<!-- 0&#45;&gt;0 -->
<g id="edge2" class="edge">
<title>0&#45;&gt;0</title>
<path fill="none" stroke="black" d="M218.66,-36.94C211.74,-48.37 216.19,-60.77 232,-60.77 244.72,-60.77 250.09,-52.74 248.09,-43.65"/>
<polygon fill="black" stroke="black" points="245.34,-36.94 250.91,-42.22 246.67,-40.18 248,-43.42 248,-43.42 248,-43.42 246.67,-40.18 245.09,-44.61 245.34,-36.94 245.34,-36.94"/>
<text text-anchor="start" x="200.5" y="-64.17" font-family="Lato" font-size="12.00">!green &amp; red</text>
</g>
</g>
</svg>
