<?xml version="1.0" encoding="UTF-8" standalone="no"?>
<?xml-stylesheet href="spot.css" type="text/css"?>
<!DOCTYPE svg PUBLIC "-//W3C//DTD SVG 1.1//EN"
 "http://www.w3.org/Graphics/SVG/1.1/DTD/svg11.dtd">
<!-- Generated by graphviz version 2.43.0 (0)
 -->
<!-- Title: (a U (alive &amp; b)) &amp; F(alive &amp; c) &amp; (alive U G!alive) Pages: 1 -->
<svg width="499pt" height="230pt"
 viewBox="0.00 0.00 499.00 230.00" xmlns="http://www.w3.org/2000/svg" xmlns:xlink="http://www.w3.org/1999/xlink">
<g id="graph0" class="graph" transform="scale(1 1) rotate(0) translate(4 226)">
<title>(a U (alive &amp; b)) &amp; F(alive &amp; c) &amp; (alive U G!alive)</title>
<polygon fill="white" stroke="transparent" points="-4,4 -4,-226 495,-226 495,4 -4,4"/>
<text text-anchor="start" x="226.5" y="-208.4" font-family="Lato" font-size="12.00">[Büchi]</text>
<!-- I -->
<!-- 3 -->
<g id="node2" class="node">
<title>3</title>
<ellipse fill="#ffffa0" stroke="black" cx="56" cy="-103" rx="18" ry="18"/>
<text text-anchor="middle" x="56" y="-99.9" font-family="Lato" font-size="12.00">3</text>
</g>
<!-- I&#45;&gt;3 -->
<g id="edge1" class="edge">
<title>I&#45;&gt;3</title>
<path fill="none" stroke="black" d="M1.15,-103C2.79,-103 17.15,-103 30.63,-103"/>
<polygon fill="black" stroke="black" points="37.94,-103 30.94,-106.15 34.44,-103 30.94,-103 30.94,-103 30.94,-103 34.44,-103 30.94,-99.85 37.94,-103 37.94,-103"/>
</g>
<!-- 3&#45;&gt;3 -->
<g id="edge9" class="edge">
<title>3&#45;&gt;3</title>
<path fill="none" stroke="black" d="M49.62,-120.04C48.32,-129.86 50.45,-139 56,-139 60.17,-139 62.4,-133.86 62.71,-127.14"/>
<polygon fill="black" stroke="black" points="62.38,-120.04 65.85,-126.88 62.54,-123.53 62.71,-127.03 62.71,-127.03 62.71,-127.03 62.54,-123.53 59.56,-127.18 62.38,-120.04 62.38,-120.04"/>
<text text-anchor="start" x="10" y="-142.4" font-family="Lato" font-size="12.00">a &amp; alive &amp; !b &amp; !c</text>
</g>
<!-- 1 -->
<g id="node4" class="node">
<title>1</title>
<ellipse fill="#ffffa0" stroke="black" cx="232" cy="-152" rx="18" ry="18"/>
<text text-anchor="middle" x="232" y="-148.9" font-family="Lato" font-size="12.00">1</text>
</g>
<!-- 3&#45;&gt;1 -->
<g id="edge7" class="edge">
<title>3&#45;&gt;1</title>
<path fill="none" stroke="black" d="M72.87,-109.87C78.8,-112.3 85.65,-114.94 92,-117 131.77,-129.9 179.2,-140.94 207.11,-147.01"/>
<polygon fill="black" stroke="black" points="214.11,-148.51 206.6,-150.12 210.68,-147.78 207.26,-147.04 207.26,-147.04 207.26,-147.04 210.68,-147.78 207.92,-143.96 214.11,-148.51 214.11,-148.51"/>
<text text-anchor="start" x="102" y="-144.4" font-family="Lato" font-size="12.00">alive &amp; b &amp; !c</text>
</g>
<!-- 2 -->
<g id="node5" class="node">
<title>2</title>
<ellipse fill="#ffffa0" stroke="black" cx="365" cy="-103" rx="18" ry="18"/>
<text text-anchor="middle" x="365" y="-99.9" font-family="Lato" font-size="12.00">2</text>
</g>
<!-- 3&#45;&gt;2 -->
<g id="edge8" class="edge">
<title>3&#45;&gt;2</title>
<path fill="none" stroke="black" d="M74.39,-103C126.2,-103 279.71,-103 339.64,-103"/>
<polygon fill="black" stroke="black" points="346.81,-103 339.81,-106.15 343.31,-103 339.81,-103 339.81,-103 339.81,-103 343.31,-103 339.81,-99.85 346.81,-103 346.81,-103"/>
<text text-anchor="start" x="199" y="-106.4" font-family="Lato" font-size="12.00">alive &amp; b &amp; c</text>
</g>
<!-- 4 -->
<g id="node6" class="node">
<title>4</title>
<ellipse fill="#ffffa0" stroke="black" cx="232" cy="-18" rx="18" ry="18"/>
<text text-anchor="middle" x="232" y="-14.9" font-family="Lato" font-size="12.00">4</text>
</g>
<!-- 3&#45;&gt;4 -->
<g id="edge10" class="edge">
<title>3&#45;&gt;4</title>
<path fill="none" stroke="black" d="M70.05,-91.62C76.39,-86.43 84.3,-80.47 92,-76 130.56,-53.6 179.44,-35.31 207.77,-25.59"/>
<polygon fill="black" stroke="black" points="214.51,-23.3 208.89,-28.53 211.19,-24.43 207.88,-25.55 207.88,-25.55 207.88,-25.55 211.19,-24.43 206.87,-22.57 214.51,-23.3 214.51,-23.3"/>
<text text-anchor="start" x="92" y="-79.4" font-family="Lato" font-size="12.00">a &amp; alive &amp; !b &amp; c</text>
</g>
<!-- 0 -->
<g id="node3" class="node">
<title>0</title>
<ellipse fill="#ffffa0" stroke="black" cx="469" cy="-103" rx="18" ry="18"/>
<ellipse fill="none" stroke="black" cx="469" cy="-103" rx="22" ry="22"/>
<text text-anchor="middle" x="469" y="-99.9" font-family="Lato" font-size="12.00">0</text>
</g>
<!-- 0&#45;&gt;0 -->
<g id="edge2" class="edge">
<title>0&#45;&gt;0</title>
<path fill="none" stroke="black" d="M459.29,-122.76C457.64,-133.35 460.88,-143 469,-143 475.22,-143 478.57,-137.34 479.06,-129.94"/>
<polygon fill="black" stroke="black" points="478.71,-122.76 482.2,-129.59 478.88,-126.25 479.05,-129.75 479.05,-129.75 479.05,-129.75 478.88,-126.25 475.91,-129.9 478.71,-122.76 478.71,-122.76"/>
<text text-anchor="start" x="455" y="-146.4" font-family="Lato" font-size="12.00">!alive</text>
</g>
<!-- 1&#45;&gt;1 -->
<g id="edge3" class="edge">
<title>1&#45;&gt;1</title>
<path fill="none" stroke="black" d="M220.08,-165.67C215.31,-176.66 219.28,-188 232,-188 241.94,-188 246.54,-181.08 245.8,-172.81"/>
<polygon fill="black" stroke="black" points="243.92,-165.67 248.75,-171.64 244.81,-169.05 245.7,-172.44 245.7,-172.44 245.7,-172.44 244.81,-169.05 242.65,-173.24 243.92,-165.67 243.92,-165.67"/>
<text text-anchor="start" x="208" y="-191.4" font-family="Lato" font-size="12.00">alive &amp; !c</text>
</g>
<!-- 1&#45;&gt;2 -->
<g id="edge4" class="edge">
<title>1&#45;&gt;2</title>
<path fill="none" stroke="black" d="M249.36,-146.21C268.52,-139.39 301.16,-127.64 329,-117 332.99,-115.47 337.23,-113.81 341.32,-112.19"/>
<polygon fill="black" stroke="black" points="348.01,-109.52 342.68,-115.04 344.76,-110.82 341.51,-112.11 341.51,-112.11 341.51,-112.11 344.76,-110.82 340.34,-109.19 348.01,-109.52 348.01,-109.52"/>
<text text-anchor="start" x="283.5" y="-136.4" font-family="Lato" font-size="12.00">alive &amp; c</text>
</g>
<!-- 2&#45;&gt;0 -->
<g id="edge5" class="edge">
<title>2&#45;&gt;0</title>
<path fill="none" stroke="black" d="M383.3,-103C398.62,-103 421.28,-103 439.31,-103"/>
<polygon fill="black" stroke="black" points="446.71,-103 439.71,-106.15 443.21,-103 439.71,-103 439.71,-103 439.71,-103 443.21,-103 439.71,-99.85 446.71,-103 446.71,-103"/>
<text text-anchor="start" x="401" y="-106.4" font-family="Lato" font-size="12.00">!alive</text>
</g>
<!-- 2&#45;&gt;2 -->
<g id="edge6" class="edge">
<title>2&#45;&gt;2</title>
<path fill="none" stroke="black" d="M356.37,-118.92C354.11,-129.15 356.99,-139 365,-139 371.13,-139 374.25,-133.23 374.37,-125.93"/>
<polygon fill="black" stroke="black" points="373.63,-118.92 377.5,-125.55 374,-122.4 374.37,-125.88 374.37,-125.88 374.37,-125.88 374,-122.4 371.23,-126.21 373.63,-118.92 373.63,-118.92"/>
<text text-anchor="start" x="352.5" y="-142.4" font-family="Lato" font-size="12.00">alive</text>
</g>
<!-- 4&#45;&gt;2 -->
<g id="edge11" class="edge">
<title>4&#45;&gt;2</title>
<path fill="none" stroke="black" d="M247.96,-26.34C267.13,-37.17 301.2,-56.97 329,-76 334.28,-79.61 339.83,-83.74 344.92,-87.66"/>
<polygon fill="black" stroke="black" points="350.64,-92.12 343.18,-90.29 347.88,-89.96 345.12,-87.81 345.12,-87.81 345.12,-87.81 347.88,-89.96 347.06,-85.33 350.64,-92.12 350.64,-92.12"/>
<text text-anchor="start" x="283" y="-79.4" font-family="Lato" font-size="12.00">alive &amp; b</text>
</g>
<!-- 4&#45;&gt;4 -->
<g id="edge12" class="edge">
<title>4&#45;&gt;4</title>
<path fill="none" stroke="black" d="M220.08,-31.67C215.31,-42.66 219.28,-54 232,-54 241.94,-54 246.54,-47.08 245.8,-38.81"/>
<polygon fill="black" stroke="black" points="243.92,-31.67 248.75,-37.64 244.81,-35.05 245.7,-38.44 245.7,-38.44 245.7,-38.44 244.81,-35.05 242.65,-39.24 243.92,-31.67 243.92,-31.67"/>
<text text-anchor="start" x="197.5" y="-57.4" font-family="Lato" font-size="12.00">a &amp; alive &amp; !b</text>
</g>
</g>
</svg>
