<?xml version="1.0" encoding="UTF-8" standalone="no"?>
<?xml-stylesheet href="spot.css" type="text/css"?>
<!DOCTYPE svg PUBLIC "-//W3C//DTD SVG 1.1//EN"
 "http://www.w3.org/Graphics/SVG/1.1/DTD/svg11.dtd">
<!-- Generated by graphviz version 2.43.0 (0)
 -->
<!-- Pages: 1 -->
<svg width="292pt" height="230pt"
 viewBox="0.00 0.00 292.00 230.00" xmlns="http://www.w3.org/2000/svg" xmlns:xlink="http://www.w3.org/1999/xlink">
<g id="graph0" class="graph" transform="scale(1 1) rotate(0) translate(4 226)">
<polygon fill="white" stroke="transparent" points="-4,4 -4,-226 288,-226 288,4 -4,4"/>
<text text-anchor="start" x="123" y="-208.4" font-family="Lato" font-size="12.00">[Büchi]</text>
<!-- I -->
<!-- 1 -->
<g id="node2" class="node">
<title>1</title>
<ellipse fill="#ffffa0" stroke="black" cx="56" cy="-103" rx="18" ry="18"/>
<text text-anchor="middle" x="56" y="-99.9" font-family="Lato" font-size="12.00">1</text>
</g>
<!-- I&#45;&gt;1 -->
<g id="edge1" class="edge">
<title>I&#45;&gt;1</title>
<path fill="none" stroke="black" d="M1.15,-103C2.79,-103 17.15,-103 30.63,-103"/>
<polygon fill="black" stroke="black" points="37.94,-103 30.94,-106.15 34.44,-103 30.94,-103 30.94,-103 30.94,-103 34.44,-103 30.94,-99.85 37.94,-103 37.94,-103"/>
</g>
<!-- 1&#45;&gt;1 -->
<g id="edge5" class="edge">
<title>1&#45;&gt;1</title>
<path fill="none" stroke="black" d="M49.62,-120.04C48.32,-129.86 50.45,-139 56,-139 60.17,-139 62.4,-133.86 62.71,-127.14"/>
<polygon fill="black" stroke="black" points="62.38,-120.04 65.85,-126.88 62.54,-123.53 62.71,-127.03 62.71,-127.03 62.71,-127.03 62.54,-123.53 59.56,-127.18 62.38,-120.04 62.38,-120.04"/>
<text text-anchor="start" x="29" y="-142.4" font-family="Lato" font-size="12.00">a &amp; !b &amp; !c</text>
</g>
<!-- 0 -->
<g id="node3" class="node">
<title>0</title>
<ellipse fill="#ffffa0" stroke="black" cx="179" cy="-152" rx="18" ry="18"/>
<text text-anchor="middle" x="179" y="-148.9" font-family="Lato" font-size="12.00">0</text>
</g>
<!-- 1&#45;&gt;0 -->
<g id="edge4" class="edge">
<title>1&#45;&gt;0</title>
<path fill="none" stroke="black" d="M73.32,-109.61C94.45,-118.17 131.41,-133.13 155.28,-142.8"/>
<polygon fill="black" stroke="black" points="161.94,-145.5 154.27,-145.79 158.7,-144.18 155.45,-142.87 155.45,-142.87 155.45,-142.87 158.7,-144.18 156.63,-139.95 161.94,-145.5 161.94,-145.5"/>
<text text-anchor="start" x="102" y="-140.4" font-family="Lato" font-size="12.00">b &amp; !c</text>
</g>
<!-- 3 -->
<g id="node4" class="node">
<title>3</title>
<ellipse fill="#ffffa0" stroke="black" cx="262" cy="-103" rx="18" ry="18"/>
<ellipse fill="none" stroke="black" cx="262" cy="-103" rx="22" ry="22"/>
<text text-anchor="middle" x="262" y="-99.9" font-family="Lato" font-size="12.00">3</text>
</g>
<!-- 1&#45;&gt;3 -->
<g id="edge7" class="edge">
<title>1&#45;&gt;3</title>
<path fill="none" stroke="black" d="M74.04,-103C109.17,-103 189.91,-103 232.89,-103"/>
<polygon fill="black" stroke="black" points="239.95,-103 232.95,-106.15 236.45,-103 232.95,-103 232.95,-103 232.95,-103 236.45,-103 232.95,-99.85 239.95,-103 239.95,-103"/>
<text text-anchor="start" x="165" y="-106.4" font-family="Lato" font-size="12.00">b &amp; c</text>
</g>
<!-- 2 -->
<g id="node5" class="node">
<title>2</title>
<ellipse fill="#ffffa0" stroke="black" cx="179" cy="-18" rx="18" ry="18"/>
<text text-anchor="middle" x="179" y="-14.9" font-family="Lato" font-size="12.00">2</text>
</g>
<!-- 1&#45;&gt;2 -->
<g id="edge6" class="edge">
<title>1&#45;&gt;2</title>
<path fill="none" stroke="black" d="M70.48,-92.28C76.92,-87.24 84.78,-81.21 92,-76 113.98,-60.14 139.84,-42.88 157.42,-31.35"/>
<polygon fill="black" stroke="black" points="163.5,-27.37 159.37,-33.84 160.57,-29.29 157.65,-31.2 157.65,-31.2 157.65,-31.2 160.57,-29.29 155.92,-28.57 163.5,-27.37 163.5,-27.37"/>
<text text-anchor="start" x="92" y="-79.4" font-family="Lato" font-size="12.00">a &amp; !b &amp; c</text>
</g>
<!-- 0&#45;&gt;0 -->
<g id="edge2" class="edge">
<title>0&#45;&gt;0</title>
<path fill="none" stroke="black" d="M172.27,-169.04C170.89,-178.86 173.14,-188 179,-188 183.4,-188 185.76,-182.86 186.09,-176.14"/>
<polygon fill="black" stroke="black" points="185.73,-169.04 189.23,-175.87 185.91,-172.53 186.08,-176.03 186.08,-176.03 186.08,-176.03 185.91,-172.53 182.93,-176.18 185.73,-169.04 185.73,-169.04"/>
<text text-anchor="start" x="174" y="-191.4" font-family="Lato" font-size="12.00">!c</text>
</g>
<!-- 0&#45;&gt;3 -->
<g id="edge3" class="edge">
<title>0&#45;&gt;3</title>
<path fill="none" stroke="black" d="M194.86,-143.01C206.58,-135.92 223.17,-125.88 236.81,-117.64"/>
<polygon fill="black" stroke="black" points="242.83,-113.99 238.48,-120.31 239.84,-115.8 236.85,-117.61 236.85,-117.61 236.85,-117.61 239.84,-115.8 235.21,-114.92 242.83,-113.99 242.83,-113.99"/>
<text text-anchor="start" x="215" y="-133.4" font-family="Lato" font-size="12.00">c</text>
</g>
<!-- 3&#45;&gt;3 -->
<g id="edge10" class="edge">
<title>3&#45;&gt;3</title>
<path fill="none" stroke="black" d="M254.32,-123.99C253.37,-134.09 255.93,-143 262,-143 266.55,-143 269.13,-137.99 269.74,-131.22"/>
<polygon fill="black" stroke="black" points="269.68,-123.99 272.88,-130.97 269.71,-127.49 269.73,-130.99 269.73,-130.99 269.73,-130.99 269.71,-127.49 266.58,-131.01 269.68,-123.99 269.68,-123.99"/>
<text text-anchor="middle" x="262" y="-146.4" font-family="Lato" font-size="12.00">1</text>
</g>
<!-- 2&#45;&gt;3 -->
<g id="edge9" class="edge">
<title>2&#45;&gt;3</title>
<path fill="none" stroke="black" d="M191.95,-30.54C204.92,-44.15 225.83,-66.1 241.25,-82.28"/>
<polygon fill="black" stroke="black" points="246.25,-87.52 239.14,-84.63 243.83,-84.99 241.42,-82.45 241.42,-82.45 241.42,-82.45 243.83,-84.99 243.7,-80.28 246.25,-87.52 246.25,-87.52"/>
<text text-anchor="start" x="215" y="-63.4" font-family="Lato" font-size="12.00">b</text>
</g>
<!-- 2&#45;&gt;2 -->
<g id="edge8" class="edge">
<title>2&#45;&gt;2</title>
<path fill="none" stroke="black" d="M172.27,-35.04C170.89,-44.86 173.14,-54 179,-54 183.4,-54 185.76,-48.86 186.09,-42.14"/>
<polygon fill="black" stroke="black" points="185.73,-35.04 189.23,-41.87 185.91,-38.53 186.08,-42.03 186.08,-42.03 186.08,-42.03 185.91,-38.53 182.93,-42.18 185.73,-35.04 185.73,-35.04"/>
<text text-anchor="start" x="163.5" y="-57.4" font-family="Lato" font-size="12.00">a &amp; !b</text>
</g>
</g>
</svg>
