<?xml version="1.0" encoding="UTF-8" standalone="no"?>
<?xml-stylesheet href="spot.css" type="text/css"?>
<!DOCTYPE svg PUBLIC "-//W3C//DTD SVG 1.1//EN"
 "http://www.w3.org/Graphics/SVG/1.1/DTD/svg11.dtd">
<!-- Generated by graphviz version 2.43.0 (0)
 -->
<!-- Title: G(!red | X!yellow) Pages: 1 -->
<svg width="243pt" height="113pt"
 viewBox="0.00 0.00 242.50 113.38" xmlns="http://www.w3.org/2000/svg" xmlns:xlink="http://www.w3.org/1999/xlink">
<g id="graph0" class="graph" transform="scale(1 1) rotate(0) translate(4 109.38)">
<title>G(!red | X!yellow)</title>
<polygon fill="white" stroke="transparent" points="-4,4 -4,-109.38 238.5,-109.38 238.5,4 -4,4"/>
<text text-anchor="start" x="114.75" y="-91.78" font-family="Lato" font-size="12.00">t</text>
<text text-anchor="start" x="107.75" y="-78.78" font-family="Lato" font-size="12.00">[all]</text>
<!-- I -->
<!-- 0 -->
<g id="node2" class="node">
<title>0</title>
<ellipse fill="#ffffa0" stroke="black" cx="56" cy="-22.38" rx="18" ry="18"/>
<text text-anchor="middle" x="56" y="-19.28" font-family="Lato" font-size="12.00">0</text>
</g>
<!-- I&#45;&gt;0 -->
<g id="edge1" class="edge">
<title>I&#45;&gt;0</title>
<path fill="none" stroke="black" d="M1.15,-22.38C2.79,-22.38 17.15,-22.38 30.63,-22.38"/>
<polygon fill="black" stroke="black" points="37.94,-22.38 30.94,-25.53 34.44,-22.38 30.94,-22.38 30.94,-22.38 30.94,-22.38 34.44,-22.38 30.94,-19.23 37.94,-22.38 37.94,-22.38"/>
</g>
<!-- 0&#45;&gt;0 -->
<g id="edge2" class="edge">
<title>0&#45;&gt;0</title>
<path fill="none" stroke="black" d="M49.62,-39.42C48.32,-49.24 50.45,-58.38 56,-58.38 60.17,-58.38 62.4,-53.24 62.71,-46.52"/>
<polygon fill="black" stroke="black" points="62.38,-39.42 65.85,-46.26 62.54,-42.91 62.71,-46.41 62.71,-46.41 62.71,-46.41 62.54,-42.91 59.56,-46.56 62.38,-39.42 62.38,-39.42"/>
<text text-anchor="start" x="46" y="-61.78" font-family="Lato" font-size="12.00">!red</text>
</g>
<!-- 1 -->
<g id="node3" class="node">
<title>1</title>
<ellipse fill="#ffffa0" stroke="black" cx="200" cy="-22.38" rx="18" ry="18"/>
<text text-anchor="middle" x="200" y="-19.28" font-family="Lato" font-size="12.00">1</text>
</g>
<!-- 0&#45;&gt;1 -->
<g id="edge3" class="edge">
<title>0&#45;&gt;1</title>
<path fill="none" stroke="black" d="M74.13,-22.38C99.18,-22.38 145.95,-22.38 174.59,-22.38"/>
<polygon fill="black" stroke="black" points="181.81,-22.38 174.81,-25.53 178.31,-22.38 174.81,-22.38 174.81,-22.38 174.81,-22.38 178.31,-22.38 174.81,-19.23 181.81,-22.38 181.81,-22.38"/>
<text text-anchor="start" x="119.5" y="-25.78" font-family="Lato" font-size="12.00">red</text>
</g>
<!-- 1&#45;&gt;0 -->
<g id="edge4" class="edge">
<title>1&#45;&gt;0</title>
<path fill="none" stroke="black" d="M184.22,-13.36C178.18,-10.18 170.98,-6.98 164,-5.38 132.81,1.79 123.19,1.79 92,-5.38 87.42,-6.43 82.75,-8.17 78.36,-10.14"/>
<polygon fill="black" stroke="black" points="71.78,-13.36 76.68,-7.46 74.92,-11.82 78.07,-10.29 78.07,-10.29 78.07,-10.29 74.92,-11.82 79.45,-13.11 71.78,-13.36 71.78,-13.36"/>
<text text-anchor="start" x="92" y="-8.78" font-family="Lato" font-size="12.00">!red &amp; !yellow</text>
</g>
<!-- 1&#45;&gt;1 -->
<g id="edge5" class="edge">
<title>1&#45;&gt;1</title>
<path fill="none" stroke="black" d="M188.24,-36.42C183.85,-47.29 187.77,-58.38 200,-58.38 209.56,-58.38 214.04,-51.61 213.45,-43.47"/>
<polygon fill="black" stroke="black" points="211.76,-36.42 216.45,-42.49 212.57,-39.82 213.39,-43.23 213.39,-43.23 213.39,-43.23 212.57,-39.82 210.33,-43.96 211.76,-36.42 211.76,-36.42"/>
<text text-anchor="start" x="165.5" y="-61.78" font-family="Lato" font-size="12.00">red &amp; !yellow</text>
</g>
</g>
</svg>
