<?xml version="1.0" encoding="UTF-8" standalone="no"?>
<?xml-stylesheet href="spot.css" type="text/css"?>
<!DOCTYPE svg PUBLIC "-//W3C//DTD SVG 1.1//EN"
 "http://www.w3.org/Graphics/SVG/1.1/DTD/svg11.dtd">
<!-- Generated by graphviz version 2.43.0 (0)
 -->
<!-- Pages: 1 -->
<svg width="284pt" height="120pt"
 viewBox="0.00 0.00 283.60 120.00" xmlns="http://www.w3.org/2000/svg" xmlns:xlink="http://www.w3.org/1999/xlink">
<g id="graph0" class="graph" transform="scale(1 1) rotate(0) translate(4 116)">
<polygon fill="white" stroke="transparent" points="-4,4 -4,-116 279.6,-116 279.6,4 -4,4"/>
<text text-anchor="start" x="118.8" y="-99.4" font-family="Lato" font-size="12.00">Fin(</text>
<text text-anchor="start" x="138.8" y="-99.4" font-family="Lato" font-size="12.00" fill="#1f78b4">⓿</text>
<text text-anchor="start" x="152.8" y="-99.4" font-family="Lato" font-size="12.00">)</text>
<text text-anchor="start" x="110.8" y="-87.4" font-family="Lato" font-size="12.00">[co&#45;Büchi]</text>
<!-- I -->
<!-- 0 -->
<g id="node2" class="node">
<title>0</title>
<ellipse fill="#ffffa0" stroke="black" cx="56" cy="-18" rx="18" ry="18"/>
<text text-anchor="middle" x="56" y="-14.9" font-family="Lato" font-size="12.00">0</text>
</g>
<!-- I&#45;&gt;0 -->
<g id="edge1" class="edge">
<title>I&#45;&gt;0</title>
<path fill="none" stroke="black" d="M1.15,-18C2.79,-18 17.15,-18 30.63,-18"/>
<polygon fill="black" stroke="black" points="37.94,-18 30.94,-21.15 34.44,-18 30.94,-18 30.94,-18 30.94,-18 34.44,-18 30.94,-14.85 37.94,-18 37.94,-18"/>
</g>
<!-- 0&#45;&gt;0 -->
<g id="edge2" class="edge">
<title>0&#45;&gt;0</title>
<path fill="none" stroke="black" d="M49.62,-35.04C48.32,-44.86 50.45,-54 56,-54 60.17,-54 62.4,-48.86 62.71,-42.14"/>
<polygon fill="black" stroke="black" points="62.38,-35.04 65.85,-41.88 62.54,-38.53 62.71,-42.03 62.71,-42.03 62.71,-42.03 62.54,-38.53 59.56,-42.18 62.38,-35.04 62.38,-35.04"/>
<text text-anchor="start" x="52.5" y="-57.4" font-family="Lato" font-size="12.00">a</text>
</g>
<!-- &#45;1 -->
<g id="node3" class="node">
<title>&#45;1</title>
<ellipse fill="#ffffa0" stroke="black" cx="121.8" cy="-18" rx="1.8" ry="1.8"/>
</g>
<!-- 0&#45;&gt;&#45;1 -->
<g id="edge3" class="edge">
<title>0&#45;&gt;&#45;1</title>
<path fill="none" stroke="black" d="M74.1,-18C86.5,-18 102.74,-18 112.43,-18"/>
<polygon fill="none" stroke="black" points="112.57,-20.45 119.57,-18 112.57,-15.55 112.57,-20.45"/>
<text text-anchor="start" x="92" y="-21.4" font-family="Lato" font-size="12.00">!a</text>
</g>
<!-- &#45;1&#45;&gt;0 -->
<g id="edge4" class="edge">
<title>&#45;1&#45;&gt;0</title>
<path fill="none" stroke="black" d="M119.78,-17.85C116.97,-17.46 108.82,-16.36 102,-16 95.23,-15.64 87.89,-15.75 81.14,-16.06"/>
<polygon fill="black" stroke="black" points="74.1,-16.46 80.91,-12.92 77.59,-16.26 81.09,-16.06 81.09,-16.06 81.09,-16.06 77.59,-16.26 81.26,-19.21 74.1,-16.46 74.1,-16.46"/>
</g>
<!-- 1 -->
<g id="node4" class="node">
<title>1</title>
<ellipse fill="#ffffa0" stroke="black" cx="178.6" cy="-18" rx="18" ry="18"/>
<text text-anchor="middle" x="178.6" y="-14.9" font-family="Lato" font-size="12.00">1</text>
</g>
<!-- &#45;1&#45;&gt;1 -->
<g id="edge5" class="edge">
<title>&#45;1&#45;&gt;1</title>
<path fill="none" stroke="black" d="M123.75,-18C127.39,-18 140.83,-18 153.37,-18"/>
<polygon fill="black" stroke="black" points="160.58,-18 153.58,-21.15 157.08,-18 153.58,-18 153.58,-18 153.58,-18 157.08,-18 153.58,-14.85 160.58,-18 160.58,-18"/>
</g>
<!-- 1&#45;&gt;1 -->
<g id="edge6" class="edge">
<title>1&#45;&gt;1</title>
<path fill="none" stroke="black" d="M172.22,-35.04C170.92,-44.86 173.05,-54 178.6,-54 182.77,-54 185,-48.86 185.31,-42.14"/>
<polygon fill="black" stroke="black" points="184.98,-35.04 188.45,-41.88 185.14,-38.53 185.31,-42.03 185.31,-42.03 185.31,-42.03 185.14,-38.53 182.16,-42.18 184.98,-35.04 184.98,-35.04"/>
<text text-anchor="start" x="173.6" y="-70.4" font-family="Lato" font-size="12.00">!a</text>
<text text-anchor="start" x="171.6" y="-57.4" font-family="Lato" font-size="12.00" fill="#1f78b4">⓿</text>
</g>
<!-- 2 -->
<g id="node5" class="node">
<title>2</title>
<ellipse fill="#ffffa0" stroke="black" cx="257.6" cy="-18" rx="18" ry="18"/>
<text text-anchor="middle" x="257.6" y="-14.9" font-family="Lato" font-size="12.00">2</text>
</g>
<!-- 1&#45;&gt;2 -->
<g id="edge7" class="edge">
<title>1&#45;&gt;2</title>
<path fill="none" stroke="black" d="M196.69,-18C207.16,-18 220.72,-18 232.29,-18"/>
<polygon fill="black" stroke="black" points="239.56,-18 232.56,-21.15 236.06,-18 232.56,-18 232.56,-18 232.56,-18 236.06,-18 232.56,-14.85 239.56,-18 239.56,-18"/>
<text text-anchor="start" x="214.6" y="-21.4" font-family="Lato" font-size="12.00">a</text>
</g>
<!-- 2&#45;&gt;2 -->
<g id="edge8" class="edge">
<title>2&#45;&gt;2</title>
<path fill="none" stroke="black" d="M250.87,-35.04C249.49,-44.86 251.74,-54 257.6,-54 262,-54 264.36,-48.86 264.69,-42.14"/>
<polygon fill="black" stroke="black" points="264.33,-35.04 267.83,-41.87 264.51,-38.53 264.68,-42.03 264.68,-42.03 264.68,-42.03 264.51,-38.53 261.53,-42.18 264.33,-35.04 264.33,-35.04"/>
<text text-anchor="middle" x="257.6" y="-57.4" font-family="Lato" font-size="12.00">1</text>
</g>
</g>
</svg>
