<?xml version="1.0" encoding="UTF-8" standalone="no"?>
<?xml-stylesheet href="spot.css" type="text/css"?>
<!DOCTYPE svg PUBLIC "-//W3C//DTD SVG 1.1//EN"
 "http://www.w3.org/Graphics/SVG/1.1/DTD/svg11.dtd">
<!-- Generated by graphviz version 2.43.0 (0)
 -->
<!-- Pages: 1 -->
<svg width="211pt" height="205pt"
 viewBox="0.00 0.00 210.60 205.00" xmlns="http://www.w3.org/2000/svg" xmlns:xlink="http://www.w3.org/1999/xlink">
<g id="graph0" class="graph" transform="scale(1 1) rotate(0) translate(4 201)">
<polygon fill="white" stroke="transparent" points="-4,4 -4,-201 206.6,-201 206.6,4 -4,4"/>
<text text-anchor="start" x="82.3" y="-184.4" font-family="Lato" font-size="12.00">Fin(</text>
<text text-anchor="start" x="102.3" y="-184.4" font-family="Lato" font-size="12.00" fill="#1f78b4">⓿</text>
<text text-anchor="start" x="116.3" y="-184.4" font-family="Lato" font-size="12.00">)</text>
<text text-anchor="start" x="74.3" y="-172.4" font-family="Lato" font-size="12.00">[co&#45;Büchi]</text>
<!-- I -->
<!-- &#45;1 -->
<g id="node2" class="node">
<title>&#45;1</title>
<ellipse fill="#ffffa0" stroke="black" cx="39.8" cy="-88" rx="1.8" ry="1.8"/>
</g>
<!-- I&#45;&gt;&#45;1 -->
<g id="edge1" class="edge">
<title>I&#45;&gt;&#45;1</title>
<path fill="none" stroke="black" d="M1.11,-88C2.65,-88 20.2,-88 30.8,-88"/>
<polygon fill="none" stroke="black" points="30.92,-90.45 37.92,-88 30.92,-85.55 30.92,-90.45"/>
</g>
<!-- 0 -->
<g id="node3" class="node">
<title>0</title>
<ellipse fill="#ffffa0" stroke="black" cx="105.6" cy="-116" rx="18" ry="18"/>
<text text-anchor="middle" x="105.6" y="-112.9" font-family="Lato" font-size="12.00">0</text>
</g>
<!-- &#45;1&#45;&gt;0 -->
<g id="edge2" class="edge">
<title>&#45;1&#45;&gt;0</title>
<path fill="none" stroke="black" d="M41.74,-88.89C44.36,-91.32 52.06,-98.16 59.6,-102 66.27,-105.4 73.92,-108.15 81,-110.29"/>
<polygon fill="black" stroke="black" points="87.83,-112.23 80.24,-113.35 84.46,-111.28 81.1,-110.32 81.1,-110.32 81.1,-110.32 84.46,-111.28 81.96,-107.29 87.83,-112.23 87.83,-112.23"/>
</g>
<!-- 1 -->
<g id="node4" class="node">
<title>1</title>
<ellipse fill="#ffffa0" stroke="black" cx="105.6" cy="-18" rx="18" ry="18"/>
<text text-anchor="middle" x="105.6" y="-14.9" font-family="Lato" font-size="12.00">1</text>
</g>
<!-- &#45;1&#45;&gt;1 -->
<g id="edge3" class="edge">
<title>&#45;1&#45;&gt;1</title>
<path fill="none" stroke="black" d="M41.52,-87.21C46.01,-82.29 70.64,-55.26 87.76,-36.47"/>
<polygon fill="black" stroke="black" points="92.81,-30.94 90.42,-38.24 90.45,-33.53 88.09,-36.11 88.09,-36.11 88.09,-36.11 90.45,-33.53 85.76,-33.99 92.81,-30.94 92.81,-30.94"/>
</g>
<!-- 0&#45;&gt;&#45;1 -->
<g id="edge5" class="edge">
<title>0&#45;&gt;&#45;1</title>
<path fill="none" stroke="black" d="M93.48,-102.3C87.24,-95.72 78.86,-88.51 69.6,-85 62.94,-82.47 54.82,-83.66 48.91,-85.23"/>
<polygon fill="none" stroke="black" points="47.83,-83.01 41.95,-87.52 49.36,-87.66 47.83,-83.01"/>
<text text-anchor="start" x="59.6" y="-88.4" font-family="Lato" font-size="12.00">!a</text>
</g>
<!-- 0&#45;&gt;0 -->
<g id="edge4" class="edge">
<title>0&#45;&gt;0</title>
<path fill="none" stroke="black" d="M98.87,-133.04C97.49,-142.86 99.74,-152 105.6,-152 110,-152 112.36,-146.86 112.69,-140.14"/>
<polygon fill="black" stroke="black" points="112.33,-133.04 115.83,-139.87 112.51,-136.53 112.68,-140.03 112.68,-140.03 112.68,-140.03 112.51,-136.53 109.53,-140.18 112.33,-133.04 112.33,-133.04"/>
<text text-anchor="start" x="102.1" y="-155.4" font-family="Lato" font-size="12.00">a</text>
</g>
<!-- 1&#45;&gt;1 -->
<g id="edge6" class="edge">
<title>1&#45;&gt;1</title>
<path fill="none" stroke="black" d="M98.87,-35.04C97.49,-44.86 99.74,-54 105.6,-54 110,-54 112.36,-48.86 112.69,-42.14"/>
<polygon fill="black" stroke="black" points="112.33,-35.04 115.83,-41.87 112.51,-38.53 112.68,-42.03 112.68,-42.03 112.68,-42.03 112.51,-38.53 109.53,-42.18 112.33,-35.04 112.33,-35.04"/>
<text text-anchor="start" x="100.6" y="-70.4" font-family="Lato" font-size="12.00">!a</text>
<text text-anchor="start" x="98.6" y="-57.4" font-family="Lato" font-size="12.00" fill="#1f78b4">⓿</text>
</g>
<!-- 2 -->
<g id="node5" class="node">
<title>2</title>
<ellipse fill="#ffffa0" stroke="black" cx="184.6" cy="-18" rx="18" ry="18"/>
<text text-anchor="middle" x="184.6" y="-14.9" font-family="Lato" font-size="12.00">2</text>
</g>
<!-- 1&#45;&gt;2 -->
<g id="edge7" class="edge">
<title>1&#45;&gt;2</title>
<path fill="none" stroke="black" d="M123.69,-18C134.16,-18 147.72,-18 159.29,-18"/>
<polygon fill="black" stroke="black" points="166.56,-18 159.56,-21.15 163.06,-18 159.56,-18 159.56,-18 159.56,-18 163.06,-18 159.56,-14.85 166.56,-18 166.56,-18"/>
<text text-anchor="start" x="141.6" y="-21.4" font-family="Lato" font-size="12.00">a</text>
</g>
<!-- 2&#45;&gt;2 -->
<g id="edge8" class="edge">
<title>2&#45;&gt;2</title>
<path fill="none" stroke="black" d="M177.87,-35.04C176.49,-44.86 178.74,-54 184.6,-54 189,-54 191.36,-48.86 191.69,-42.14"/>
<polygon fill="black" stroke="black" points="191.33,-35.04 194.83,-41.87 191.51,-38.53 191.68,-42.03 191.68,-42.03 191.68,-42.03 191.51,-38.53 188.53,-42.18 191.33,-35.04 191.33,-35.04"/>
<text text-anchor="middle" x="184.6" y="-57.4" font-family="Lato" font-size="12.00">1</text>
</g>
</g>
</svg>
