<?xml version="1.0" encoding="UTF-8" standalone="no"?>
<?xml-stylesheet href="spot.css" type="text/css"?>
<!DOCTYPE svg PUBLIC "-//W3C//DTD SVG 1.1//EN"
 "http://www.w3.org/Graphics/SVG/1.1/DTD/svg11.dtd">
<!-- Generated by graphviz version 2.43.0 (0)
 -->
<!-- Pages: 1 -->
<svg width="168pt" height="130pt"
 viewBox="0.00 0.00 168.00 130.41" xmlns="http://www.w3.org/2000/svg" xmlns:xlink="http://www.w3.org/1999/xlink">
<g id="graph0" class="graph" transform="scale(1 1) rotate(0) translate(4 126.41)">
<polygon fill="white" stroke="transparent" points="-4,4 -4,-126.41 164,-126.41 164,4 -4,4"/>
<text text-anchor="start" x="62" y="-109.81" font-family="Lato" font-size="12.00">Inf(</text>
<text text-anchor="start" x="80" y="-109.81" font-family="Lato" font-size="12.00" fill="#1f78b4">⓿</text>
<text text-anchor="start" x="94" y="-109.81" font-family="Lato" font-size="12.00">)</text>
<text text-anchor="start" x="61" y="-97.81" font-family="Lato" font-size="12.00">[Büchi]</text>
<!-- I -->
<!-- 0 -->
<g id="node2" class="node">
<title>0</title>
<ellipse fill="#ffffa0" stroke="black" cx="56" cy="-28.41" rx="18" ry="18"/>
<text text-anchor="middle" x="56" y="-25.31" font-family="Lato" font-size="12.00">0</text>
</g>
<!-- I&#45;&gt;0 -->
<g id="edge1" class="edge">
<title>I&#45;&gt;0</title>
<path fill="none" stroke="black" d="M1.15,-28.41C2.79,-28.41 17.15,-28.41 30.63,-28.41"/>
<polygon fill="black" stroke="black" points="37.94,-28.41 30.94,-31.56 34.44,-28.41 30.94,-28.41 30.94,-28.41 30.94,-28.41 34.44,-28.41 30.94,-25.26 37.94,-28.41 37.94,-28.41"/>
</g>
<!-- 0&#45;&gt;0 -->
<g id="edge2" class="edge">
<title>0&#45;&gt;0</title>
<path fill="none" stroke="black" d="M49.62,-45.45C48.32,-55.27 50.45,-64.41 56,-64.41 60.17,-64.41 62.4,-59.27 62.71,-52.56"/>
<polygon fill="black" stroke="black" points="62.38,-45.45 65.85,-52.29 62.54,-48.95 62.71,-52.44 62.71,-52.44 62.71,-52.44 62.54,-48.95 59.56,-52.59 62.38,-45.45 62.38,-45.45"/>
<text text-anchor="start" x="52.5" y="-80.81" font-family="Lato" font-size="12.00">a</text>
<text text-anchor="start" x="49" y="-67.81" font-family="Lato" font-size="12.00" fill="#1f78b4">⓿</text>
</g>
<!-- 1 -->
<g id="node3" class="node">
<title>1</title>
<ellipse fill="#ffffa0" stroke="black" cx="142" cy="-28.41" rx="18" ry="18"/>
<text text-anchor="middle" x="142" y="-25.31" font-family="Lato" font-size="12.00">1</text>
</g>
<!-- 0&#45;&gt;1 -->
<g id="edge3" class="edge">
<title>0&#45;&gt;1</title>
<path fill="none" stroke="black" d="M74.23,-30.34C83.61,-31.17 95.44,-31.86 106,-31.41 109.47,-31.26 113.13,-31.03 116.73,-30.76"/>
<polygon fill="black" stroke="black" points="123.93,-30.17 117.21,-33.88 120.44,-30.46 116.95,-30.75 116.95,-30.75 116.95,-30.75 120.44,-30.46 116.69,-27.61 123.93,-30.17 123.93,-30.17"/>
<text text-anchor="start" x="94" y="-34.81" font-family="Lato" font-size="12.00">!a</text>
</g>
<!-- 1&#45;&gt;0 -->
<g id="edge4" class="edge">
<title>1&#45;&gt;0</title>
<path fill="none" stroke="black" d="M129.07,-15.21C119.47,-6.26 105.42,3.16 92,-1.41 85.84,-3.51 79.92,-7.18 74.76,-11.16"/>
<polygon fill="black" stroke="black" points="69.07,-15.88 72.44,-8.98 71.77,-13.64 74.46,-11.41 74.46,-11.41 74.46,-11.41 71.77,-13.64 76.47,-13.83 69.07,-15.88 69.07,-15.88"/>
<text text-anchor="start" x="95.5" y="-17.81" font-family="Lato" font-size="12.00">a</text>
<text text-anchor="start" x="92" y="-4.81" font-family="Lato" font-size="12.00" fill="#1f78b4">⓿</text>
</g>
<!-- 1&#45;&gt;1 -->
<g id="edge5" class="edge">
<title>1&#45;&gt;1</title>
<path fill="none" stroke="black" d="M134.62,-45.08C132.98,-55.04 135.44,-64.41 142,-64.41 146.92,-64.41 149.54,-59.14 149.84,-52.3"/>
<polygon fill="black" stroke="black" points="149.38,-45.08 152.97,-51.86 149.61,-48.57 149.83,-52.06 149.83,-52.06 149.83,-52.06 149.61,-48.57 146.69,-52.26 149.38,-45.08 149.38,-45.08"/>
<text text-anchor="start" x="137" y="-67.81" font-family="Lato" font-size="12.00">!a</text>
</g>
</g>
</svg>
