<?xml version="1.0" encoding="UTF-8" standalone="no"?>
<?xml-stylesheet href="spot.css" type="text/css"?>
<!DOCTYPE svg PUBLIC "-//W3C//DTD SVG 1.1//EN"
 "http://www.w3.org/Graphics/SVG/1.1/DTD/svg11.dtd">
<!-- Generated by graphviz version 2.43.0 (0)
 -->
<!-- Pages: 1 -->
<svg width="570pt" height="132pt"
 viewBox="0.00 0.00 570.38 132.00" xmlns="http://www.w3.org/2000/svg" xmlns:xlink="http://www.w3.org/1999/xlink">
<g id="graph0" class="graph" transform="scale(1 1) rotate(0) translate(4 128)">
<polygon fill="white" stroke="transparent" points="-4,4 -4,-128 566.38,-128 566.38,4 -4,4"/>
<text text-anchor="start" x="278.69" y="-110.4" font-family="Lato" font-size="12.00">t</text>
<text text-anchor="start" x="271.69" y="-97.4" font-family="Lato" font-size="12.00">[all]</text>
<!-- I -->
<!-- 0 -->
<g id="node2" class="node">
<title>0</title>
<path fill="#ffffa0" stroke="#33a02c" stroke-width="2" d="M67,-63C67,-63 49,-63 49,-63 43,-63 37,-57 37,-51 37,-51 37,-39 37,-39 37,-33 43,-27 49,-27 49,-27 67,-27 67,-27 73,-27 79,-33 79,-39 79,-39 79,-51 79,-51 79,-57 73,-63 67,-63"/>
<text text-anchor="start" x="45" y="-41.9" font-family="Lato" font-size="12.00">(4, 0)</text>
</g>
<!-- I&#45;&gt;0 -->
<g id="edge1" class="edge">
<title>I&#45;&gt;0</title>
<path fill="none" stroke="black" d="M1.16,-45C2.77,-45 16.27,-45 29.59,-45"/>
<polygon fill="black" stroke="black" points="36.89,-45 29.89,-48.15 33.39,-45 29.89,-45 29.89,-45 29.89,-45 33.39,-45 29.89,-41.85 36.89,-45 36.89,-45"/>
</g>
<!-- 1 -->
<g id="node3" class="node">
<title>1</title>
<path fill="#ffffa0" stroke="#33a02c" stroke-width="2" d="M140.79,-57.71C140.79,-57.71 125.71,-50.29 125.71,-50.29 120.32,-47.65 120.32,-42.35 125.71,-39.71 125.71,-39.71 140.79,-32.29 140.79,-32.29 146.18,-29.65 156.95,-29.65 162.33,-32.29 162.33,-32.29 177.42,-39.71 177.42,-39.71 182.81,-42.35 182.81,-47.65 177.42,-50.29 177.42,-50.29 162.33,-57.71 162.33,-57.71 156.95,-60.35 146.18,-60.35 140.79,-57.71"/>
<text text-anchor="start" x="138.56" y="-41.9" font-family="Lato" font-size="12.00">(6, 0)</text>
</g>
<!-- 0&#45;&gt;1 -->
<g id="edge2" class="edge">
<title>0&#45;&gt;1</title>
<path fill="none" stroke="black" d="M79.32,-45C87.72,-45 97.78,-45 107.67,-45"/>
<polygon fill="black" stroke="black" points="114.81,-45 107.81,-48.15 111.31,-45 107.81,-45 107.81,-45 107.81,-45 111.31,-45 107.81,-41.85 114.81,-45 114.81,-45"/>
</g>
<!-- 2 -->
<g id="node4" class="node">
<title>2</title>
<path fill="#ffffa0" stroke="#33a02c" stroke-width="2" d="M254.13,-90C254.13,-90 236.13,-90 236.13,-90 230.13,-90 224.13,-84 224.13,-78 224.13,-78 224.13,-66 224.13,-66 224.13,-60 230.13,-54 236.13,-54 236.13,-54 254.13,-54 254.13,-54 260.13,-54 266.13,-60 266.13,-66 266.13,-66 266.13,-78 266.13,-78 266.13,-84 260.13,-90 254.13,-90"/>
<text text-anchor="start" x="232.13" y="-68.9" font-family="Lato" font-size="12.00">(5, 1)</text>
</g>
<!-- 1&#45;&gt;2 -->
<g id="edge3" class="edge">
<title>1&#45;&gt;2</title>
<path fill="none" stroke="#33a02c" stroke-width="2" d="M175.2,-51.67C187.92,-55.42 203.87,-60.13 217.22,-64.07"/>
<polygon fill="#33a02c" stroke="#33a02c" stroke-width="2" points="223.94,-66.05 216.33,-67.09 220.44,-65.54 217.08,-64.55 217.22,-64.07 217.36,-63.59 220.72,-64.58 218.11,-61.04 223.94,-66.05 223.94,-66.05"/>
</g>
<!-- 3 -->
<g id="node5" class="node">
<title>3</title>
<path fill="#ffffa0" stroke="#e31a1c" stroke-width="2" d="M254.13,-36C254.13,-36 236.13,-36 236.13,-36 230.13,-36 224.13,-30 224.13,-24 224.13,-24 224.13,-12 224.13,-12 224.13,-6 230.13,0 236.13,0 236.13,0 254.13,0 254.13,0 260.13,0 266.13,-6 266.13,-12 266.13,-12 266.13,-24 266.13,-24 266.13,-30 260.13,-36 254.13,-36"/>
<text text-anchor="start" x="232.13" y="-14.9" font-family="Lato" font-size="12.00">(5, 2)</text>
</g>
<!-- 1&#45;&gt;3 -->
<g id="edge4" class="edge">
<title>1&#45;&gt;3</title>
<path fill="none" stroke="black" d="M175.2,-38.33C187.92,-34.58 203.87,-29.87 217.22,-25.93"/>
<polygon fill="black" stroke="black" points="223.94,-23.95 218.11,-28.96 220.58,-24.94 217.22,-25.93 217.22,-25.93 217.22,-25.93 220.58,-24.94 216.33,-22.91 223.94,-23.95 223.94,-23.95"/>
</g>
<!-- 7 -->
<g id="node6" class="node">
<title>7</title>
<path fill="#ffffa0" stroke="#33a02c" stroke-width="2" d="M327.92,-84.71C327.92,-84.71 312.83,-77.29 312.83,-77.29 307.45,-74.65 307.45,-69.35 312.83,-66.71 312.83,-66.71 327.92,-59.29 327.92,-59.29 333.31,-56.65 344.08,-56.65 349.46,-59.29 349.46,-59.29 364.55,-66.71 364.55,-66.71 369.94,-69.35 369.94,-74.65 364.55,-77.29 364.55,-77.29 349.46,-84.71 349.46,-84.71 344.08,-87.35 333.31,-87.35 327.92,-84.71"/>
<text text-anchor="start" x="325.69" y="-68.9" font-family="Lato" font-size="12.00">(7, 1)</text>
</g>
<!-- 2&#45;&gt;7 -->
<g id="edge5" class="edge">
<title>2&#45;&gt;7</title>
<path fill="none" stroke="black" d="M266.45,-66.28C278.36,-65.2 293.65,-64.97 307.01,-65.59"/>
<polygon fill="black" stroke="black" points="314.19,-66.02 307.02,-68.74 310.7,-65.81 307.21,-65.6 307.21,-65.6 307.21,-65.6 310.7,-65.81 307.39,-62.45 314.19,-66.02 314.19,-66.02"/>
</g>
<!-- 4 -->
<g id="node7" class="node">
<title>4</title>
<path fill="#ffffa0" stroke="#e31a1c" stroke-width="2" d="M327.92,-30.71C327.92,-30.71 312.83,-23.29 312.83,-23.29 307.45,-20.65 307.45,-15.35 312.83,-12.71 312.83,-12.71 327.92,-5.29 327.92,-5.29 333.31,-2.65 344.08,-2.65 349.46,-5.29 349.46,-5.29 364.55,-12.71 364.55,-12.71 369.94,-15.35 369.94,-20.65 364.55,-23.29 364.55,-23.29 349.46,-30.71 349.46,-30.71 344.08,-33.35 333.31,-33.35 327.92,-30.71"/>
<text text-anchor="start" x="325.69" y="-14.9" font-family="Lato" font-size="12.00">(7, 2)</text>
</g>
<!-- 3&#45;&gt;4 -->
<g id="edge6" class="edge">
<title>3&#45;&gt;4</title>
<path fill="none" stroke="#e31a1c" stroke-width="2" d="M266.45,-18C274.84,-18 284.91,-18 294.8,-18"/>
<polygon fill="#e31a1c" stroke="#e31a1c" stroke-width="2" points="301.94,-18 294.94,-21.15 298.44,-18.5 294.94,-18.5 294.94,-18 294.94,-17.5 298.44,-17.5 294.94,-14.85 301.94,-18 301.94,-18"/>
</g>
<!-- 7&#45;&gt;2 -->
<g id="edge9" class="edge">
<title>7&#45;&gt;2</title>
<path fill="none" stroke="#33a02c" stroke-width="2" d="M314.19,-77.98C301.85,-78.91 286.65,-79 273.74,-78.25"/>
<polygon fill="#33a02c" stroke="#33a02c" stroke-width="2" points="266.45,-77.72 273.66,-75.09 269.98,-77.48 273.47,-77.73 273.43,-78.23 273.39,-78.73 269.9,-78.47 273.2,-81.37 266.45,-77.72 266.45,-77.72"/>
</g>
<!-- 5 -->
<g id="node8" class="node">
<title>5</title>
<path fill="#ffffa0" stroke="#e31a1c" stroke-width="2" d="M441.26,-36C441.26,-36 423.26,-36 423.26,-36 417.26,-36 411.26,-30 411.26,-24 411.26,-24 411.26,-12 411.26,-12 411.26,-6 417.26,0 423.26,0 423.26,0 441.26,0 441.26,0 447.26,0 453.26,-6 453.26,-12 453.26,-12 453.26,-24 453.26,-24 453.26,-30 447.26,-36 441.26,-36"/>
<text text-anchor="start" x="419.26" y="-14.9" font-family="Lato" font-size="12.00">(5, 3)</text>
</g>
<!-- 4&#45;&gt;5 -->
<g id="edge7" class="edge">
<title>4&#45;&gt;5</title>
<path fill="none" stroke="black" d="M375.36,-18C384.85,-18 394.95,-18 403.92,-18"/>
<polygon fill="black" stroke="black" points="411.15,-18 404.15,-21.15 407.65,-18 404.15,-18 404.15,-18 404.15,-18 407.65,-18 404.15,-14.85 411.15,-18 411.15,-18"/>
</g>
<!-- 6 -->
<g id="node9" class="node">
<title>6</title>
<path fill="#ffffa0" stroke="#e31a1c" stroke-width="2" d="M515.05,-30.71C515.05,-30.71 499.96,-23.29 499.96,-23.29 494.58,-20.65 494.58,-15.35 499.96,-12.71 499.96,-12.71 515.05,-5.29 515.05,-5.29 520.44,-2.65 531.2,-2.65 536.59,-5.29 536.59,-5.29 551.68,-12.71 551.68,-12.71 557.06,-15.35 557.06,-20.65 551.68,-23.29 551.68,-23.29 536.59,-30.71 536.59,-30.71 531.2,-33.35 520.44,-33.35 515.05,-30.71"/>
<text text-anchor="start" x="512.82" y="-14.9" font-family="Lato" font-size="12.00">(7, 3)</text>
</g>
<!-- 5&#45;&gt;6 -->
<g id="edge8" class="edge">
<title>5&#45;&gt;6</title>
<path fill="none" stroke="#e31a1c" stroke-width="2" d="M453.58,-18C461.97,-18 472.04,-18 481.93,-18"/>
<polygon fill="#e31a1c" stroke="#e31a1c" stroke-width="2" points="489.07,-18 482.07,-21.15 485.57,-18.5 482.07,-18.5 482.07,-18 482.07,-17.5 485.57,-17.5 482.07,-14.85 489.07,-18 489.07,-18"/>
</g>
</g>
</svg>
