<?xml version="1.0" encoding="UTF-8" standalone="no"?>
<?xml-stylesheet href="spot.css" type="text/css"?>
<!DOCTYPE svg PUBLIC "-//W3C//DTD SVG 1.1//EN"
 "http://www.w3.org/Graphics/SVG/1.1/DTD/svg11.dtd">
<!-- Generated by graphviz version 2.43.0 (0)
 -->
<!-- Pages: 1 -->
<svg width="281pt" height="201pt"
 viewBox="0.00 0.00 281.00 201.00" xmlns="http://www.w3.org/2000/svg" xmlns:xlink="http://www.w3.org/1999/xlink">
<g id="graph0" class="graph" transform="scale(1 1) rotate(0) translate(4 197)">
<polygon fill="white" stroke="transparent" points="-4,4 -4,-197 277,-197 277,4 -4,4"/>
<text text-anchor="start" x="118.5" y="-180.4" font-family="Lato" font-size="12.00">Inf(</text>
<text text-anchor="start" x="136.5" y="-180.4" font-family="Lato" font-size="12.00" fill="#1f78b4">⓿</text>
<text text-anchor="start" x="150.5" y="-180.4" font-family="Lato" font-size="12.00">)</text>
<text text-anchor="start" x="117.5" y="-168.4" font-family="Lato" font-size="12.00">[Büchi]</text>
<!-- I -->
<!-- 0 -->
<g id="node2" class="node">
<title>0</title>
<ellipse fill="#ffffa0" stroke="black" cx="97" cy="-45" rx="18" ry="18"/>
<text text-anchor="middle" x="97" y="-41.9" font-family="Lato" font-size="12.00">0</text>
</g>
<!-- I&#45;&gt;0 -->
<g id="edge1" class="edge">
<title>I&#45;&gt;0</title>
<path fill="none" stroke="black" d="M19.06,-45C20.5,-45 49.51,-45 71.49,-45"/>
<polygon fill="black" stroke="black" points="78.62,-45 71.62,-48.15 75.12,-45 71.62,-45 71.62,-45 71.62,-45 75.12,-45 71.62,-41.85 78.62,-45 78.62,-45"/>
</g>
<!-- 1 -->
<g id="node3" class="node">
<title>1</title>
<ellipse fill="#ffffa0" stroke="black" cx="176" cy="-72" rx="18" ry="18"/>
<text text-anchor="middle" x="176" y="-68.9" font-family="Lato" font-size="12.00">1</text>
</g>
<!-- 0&#45;&gt;1 -->
<g id="edge2" class="edge">
<title>0&#45;&gt;1</title>
<path fill="none" stroke="black" d="M114.33,-50.73C125.25,-54.56 139.79,-59.65 151.89,-63.9"/>
<polygon fill="black" stroke="black" points="158.69,-66.28 151.05,-66.94 155.39,-65.12 152.09,-63.97 152.09,-63.97 152.09,-63.97 155.39,-65.12 153.13,-60.99 158.69,-66.28 158.69,-66.28"/>
<text text-anchor="start" x="133" y="-63.4" font-family="Lato" font-size="12.00">b</text>
<text text-anchor="middle" x="121.33" y="-41.13" font-family="Lato" font-size="12.00">#1</text>
</g>
<!-- 2 -->
<g id="node4" class="node">
<title>2</title>
<ellipse fill="#ffffa0" stroke="black" cx="176" cy="-18" rx="18" ry="18"/>
<text text-anchor="middle" x="176" y="-14.9" font-family="Lato" font-size="12.00">2</text>
</g>
<!-- 0&#45;&gt;2 -->
<g id="edge3" class="edge">
<title>0&#45;&gt;2</title>
<path fill="none" stroke="black" d="M114.33,-39.27C125.25,-35.44 139.79,-30.35 151.89,-26.1"/>
<polygon fill="black" stroke="black" points="158.69,-23.72 153.13,-29.01 155.39,-24.88 152.09,-26.03 152.09,-26.03 152.09,-26.03 155.39,-24.88 151.05,-23.06 158.69,-23.72 158.69,-23.72"/>
<text text-anchor="start" x="133" y="-36.4" font-family="Lato" font-size="12.00">b</text>
<text text-anchor="middle" x="121.33" y="-29.67" font-family="Lato" font-size="12.00">#2</text>
</g>
<!-- 1&#45;&gt;1 -->
<g id="edge4" class="edge">
<title>1&#45;&gt;1</title>
<path fill="none" stroke="black" d="M169.27,-89.04C167.89,-98.86 170.14,-108 176,-108 180.4,-108 182.76,-102.86 183.09,-96.14"/>
<polygon fill="black" stroke="black" points="182.73,-89.04 186.23,-95.87 182.91,-92.53 183.08,-96.03 183.08,-96.03 183.08,-96.03 182.91,-92.53 179.93,-96.18 182.73,-89.04 182.73,-89.04"/>
<text text-anchor="start" x="162" y="-111.4" font-family="Lato" font-size="12.00">a &amp; b</text>
<text text-anchor="middle" x="162.27" y="-92.44" font-family="Lato" font-size="12.00">#3</text>
</g>
<!-- 3 -->
<g id="node5" class="node">
<title>3</title>
<ellipse fill="#ffffa0" stroke="black" cx="255" cy="-18" rx="18" ry="18"/>
<text text-anchor="middle" x="255" y="-14.9" font-family="Lato" font-size="12.00">3</text>
</g>
<!-- 2&#45;&gt;3 -->
<g id="edge5" class="edge">
<title>2&#45;&gt;3</title>
<path fill="none" stroke="black" d="M194.09,-18C204.56,-18 218.12,-18 229.69,-18"/>
<polygon fill="black" stroke="black" points="236.96,-18 229.96,-21.15 233.46,-18 229.96,-18 229.96,-18 229.96,-18 233.46,-18 229.96,-14.85 236.96,-18 236.96,-18"/>
<text text-anchor="start" x="212" y="-21.4" font-family="Lato" font-size="12.00">a</text>
<text text-anchor="middle" x="201.09" y="-8.4" font-family="Lato" font-size="12.00">#4</text>
</g>
<!-- 3&#45;&gt;3 -->
<g id="edge6" class="edge">
<title>3&#45;&gt;3</title>
<path fill="none" stroke="black" d="M248.27,-35.04C246.89,-44.86 249.14,-54 255,-54 259.4,-54 261.76,-48.86 262.09,-42.14"/>
<polygon fill="black" stroke="black" points="261.73,-35.04 265.23,-41.87 261.91,-38.53 262.08,-42.03 262.08,-42.03 262.08,-42.03 261.91,-38.53 258.93,-42.18 261.73,-35.04 261.73,-35.04"/>
<text text-anchor="start" x="251.5" y="-70.4" font-family="Lato" font-size="12.00">b</text>
<text text-anchor="start" x="248" y="-57.4" font-family="Lato" font-size="12.00" fill="#1f78b4">⓿</text>
<text text-anchor="middle" x="241.27" y="-38.44" font-family="Lato" font-size="12.00">#5</text>
</g>
<!-- 4 -->
<g id="node6" class="node">
<title>4</title>
<ellipse fill="#ffffa0" stroke="black" cx="18" cy="-99" rx="18" ry="18"/>
<text text-anchor="middle" x="18" y="-95.9" font-family="Lato" font-size="12.00">4</text>
</g>
<!-- 5 -->
<g id="node7" class="node">
<title>5</title>
<ellipse fill="#ffffa0" stroke="black" cx="97" cy="-99" rx="18" ry="18"/>
<text text-anchor="middle" x="97" y="-95.9" font-family="Lato" font-size="12.00">5</text>
</g>
<!-- 4&#45;&gt;5 -->
<g id="edge7" class="edge">
<title>4&#45;&gt;5</title>
<path fill="none" stroke="black" d="M36.09,-99C46.56,-99 60.12,-99 71.69,-99"/>
<polygon fill="black" stroke="black" points="78.96,-99 71.96,-102.15 75.46,-99 71.96,-99 71.96,-99 71.96,-99 75.46,-99 71.96,-95.85 78.96,-99 78.96,-99"/>
<text text-anchor="start" x="54" y="-102.4" font-family="Lato" font-size="12.00">b</text>
<text text-anchor="middle" x="43.09" y="-89.4" font-family="Lato" font-size="12.00">#6</text>
</g>
<!-- 5&#45;&gt;5 -->
<g id="edge8" class="edge">
<title>5&#45;&gt;5</title>
<path fill="none" stroke="black" d="M90.27,-116.04C88.89,-125.86 91.14,-135 97,-135 101.4,-135 103.76,-129.86 104.09,-123.14"/>
<polygon fill="black" stroke="black" points="103.73,-116.04 107.23,-122.87 103.91,-119.53 104.08,-123.03 104.08,-123.03 104.08,-123.03 103.91,-119.53 100.93,-123.18 103.73,-116.04 103.73,-116.04"/>
<text text-anchor="start" x="93.5" y="-151.4" font-family="Lato" font-size="12.00">a</text>
<text text-anchor="start" x="90" y="-138.4" font-family="Lato" font-size="12.00" fill="#1f78b4">⓿</text>
<text text-anchor="middle" x="83.27" y="-119.44" font-family="Lato" font-size="12.00">#7</text>
</g>
</g>
</svg>
