<?xml version="1.0" encoding="UTF-8" standalone="no"?><svg xmlns="http://www.w3.org/2000/svg" xmlns:xlink="http://www.w3.org/1999/xlink" contentScriptType="application/ecmascript" contentStyleType="text/css" height="776px" preserveAspectRatio="none" style="width:976px;height:776px;" version="1.1" viewBox="0 0 976 776" width="976px" zoomAndPan="magnify"><defs><filter height="300%" id="f4oh4d77nmjph" width="300%" x="-1" y="-1"><feGaussianBlur result="blurOut" stdDeviation="2.0"/><feColorMatrix in="blurOut" result="blurOut2" type="matrix" values="0 0 0 0 0 0 0 0 0 0 0 0 0 0 0 0 0 0 .4 0"/><feOffset dx="4.0" dy="4.0" in="blurOut2" result="blurOut3"/><feBlend in="SourceGraphic" in2="blurOut3" mode="normal"/></filter></defs><g><!--cluster spot--><polygon fill="#FFFFFF" filter="url(#f4oh4d77nmjph)" points="22,24,63,24,70,46.2969,954,46.2969,954,764,22,764,22,24" style="stroke: #000000; stroke-width: 1.5;"/><line style="stroke: #000000; stroke-width: 1.5;" x1="22" x2="70" y1="46.2969" y2="46.2969"/><text fill="#000000" font-family="sans-serif" font-size="14" font-weight="bold" lengthAdjust="spacingAndGlyphs" textLength="35" x="26" y="38.9951">spot</text><!--cluster internal--><polygon fill="#FFFFFF" filter="url(#f4oh4d77nmjph)" points="277,364,343,364,350,386.2969,529,386.2969,529,740,277,740,277,364" style="stroke: #000000; stroke-width: 1.5;"/><line style="stroke: #000000; stroke-width: 1.5;" x1="277" x2="350" y1="386.2969" y2="386.2969"/><text fill="#000000" font-family="sans-serif" font-size="14" font-weight="bold" lengthAdjust="spacingAndGlyphs" textLength="60" x="281" y="378.9951">internal</text><!--class acc_cond--><rect fill="#FEFECE" filter="url(#f4oh4d77nmjph)" height="32" id="acc_cond" style="stroke: #A80036; stroke-width: 1.5;" width="91" x="38.5" y="420"/><ellipse cx="53.5" cy="436" fill="#ADD1B2" rx="11" ry="11" style="stroke: #A80036; stroke-width: 1.0;"/><path d="M56.4688,441.6406 Q55.8906,441.9375 55.25,442.0859 Q54.6094,442.2344 53.9063,442.2344 Q51.4063,442.2344 50.0859,440.5859 Q48.7656,438.9375 48.7656,435.8125 Q48.7656,432.6875 50.0859,431.0313 Q51.4063,429.375 53.9063,429.375 Q54.6094,429.375 55.2578,429.5313 Q55.9063,429.6875 56.4688,429.9844 L56.4688,432.7031 Q55.8438,432.125 55.25,431.8516 Q54.6563,431.5781 54.0313,431.5781 Q52.6875,431.5781 52,432.6484 Q51.3125,433.7188 51.3125,435.8125 Q51.3125,437.9063 52,438.9766 Q52.6875,440.0469 54.0313,440.0469 Q54.6563,440.0469 55.25,439.7734 Q55.8438,439.5 56.4688,438.9219 L56.4688,441.6406 Z "/><text fill="#000000" font-family="sans-serif" font-size="12" lengthAdjust="spacingAndGlyphs" textLength="59" x="67.5" y="440.1543">acc_cond</text><!--class twa_graph--><rect fill="#FEFECE" filter="url(#f4oh4d77nmjph)" height="32" id="twa_graph" style="stroke: #A80036; stroke-width: 1.5;" width="97" x="164.5" y="420"/><ellipse cx="179.5" cy="436" fill="#ADD1B2" rx="11" ry="11" style="stroke: #A80036; stroke-width: 1.0;"/><path d="M182.4688,441.6406 Q181.8906,441.9375 181.25,442.0859 Q180.6094,442.2344 179.9063,442.2344 Q177.4063,442.2344 176.0859,440.5859 Q174.7656,438.9375 174.7656,435.8125 Q174.7656,432.6875 176.0859,431.0313 Q177.4063,429.375 179.9063,429.375 Q180.6094,429.375 181.2578,429.5313 Q181.9063,429.6875 182.4688,429.9844 L182.4688,432.7031 Q181.8438,432.125 181.25,431.8516 Q180.6563,431.5781 180.0313,431.5781 Q178.6875,431.5781 178,432.6484 Q177.3125,433.7188 177.3125,435.8125 Q177.3125,437.9063 178,438.9766 Q178.6875,440.0469 180.0313,440.0469 Q180.6563,440.0469 181.25,439.7734 Q181.8438,439.5 182.4688,438.9219 L182.4688,441.6406 Z "/><text fill="#000000" font-family="sans-serif" font-size="12" lengthAdjust="spacingAndGlyphs" textLength="65" x="193.5" y="440.1543">twa_graph</text><!--class twa_graph_state--><rect fill="#FEFECE" filter="url(#f4oh4d77nmjph)" height="32" id="twa_graph_state" style="stroke: #A80036; stroke-width: 1.5;" width="136" x="802" y="420"/><ellipse cx="817" cy="436" fill="#ADD1B2" rx="11" ry="11" style="stroke: #A80036; stroke-width: 1.0;"/><path d="M819.9688,441.6406 Q819.3906,441.9375 818.75,442.0859 Q818.1094,442.2344 817.4063,442.2344 Q814.9063,442.2344 813.5859,440.5859 Q812.2656,438.9375 812.2656,435.8125 Q812.2656,432.6875 813.5859,431.0313 Q814.9063,429.375 817.4063,429.375 Q818.1094,429.375 818.7578,429.5313 Q819.4063,429.6875 819.9688,429.9844 L819.9688,432.7031 Q819.3438,432.125 818.75,431.8516 Q818.1563,431.5781 817.5313,431.5781 Q816.1875,431.5781 815.5,432.6484 Q814.8125,433.7188 814.8125,435.8125 Q814.8125,437.9063 815.5,438.9766 Q816.1875,440.0469 817.5313,440.0469 Q818.1563,440.0469 818.75,439.7734 Q819.3438,439.5 819.9688,438.9219 L819.9688,441.6406 Z "/><text fill="#000000" font-family="sans-serif" font-size="12" lengthAdjust="spacingAndGlyphs" textLength="104" x="831" y="440.1543">twa_graph_state</text><!--class twa_graph_succ_iterator--><rect fill="#FEFECE" filter="url(#f4oh4d77nmjph)" height="32" id="twa_graph_succ_iterator" style="stroke: #A80036; stroke-width: 1.5;" width="185" x="544.5" y="420"/><ellipse cx="559.5" cy="436" fill="#ADD1B2" rx="11" ry="11" style="stroke: #A80036; stroke-width: 1.0;"/><path d="M562.4688,441.6406 Q561.8906,441.9375 561.25,442.0859 Q560.6094,442.2344 559.9063,442.2344 Q557.4063,442.2344 556.0859,440.5859 Q554.7656,438.9375 554.7656,435.8125 Q554.7656,432.6875 556.0859,431.0313 Q557.4063,429.375 559.9063,429.375 Q560.6094,429.375 561.2578,429.5313 Q561.9063,429.6875 562.4688,429.9844 L562.4688,432.7031 Q561.8438,432.125 561.25,431.8516 Q560.6563,431.5781 560.0313,431.5781 Q558.6875,431.5781 558,432.6484 Q557.3125,433.7188 557.3125,435.8125 Q557.3125,437.9063 558,438.9766 Q558.6875,440.0469 560.0313,440.0469 Q560.6563,440.0469 561.25,439.7734 Q561.8438,439.5 562.4688,438.9219 L562.4688,441.6406 Z "/><text fill="#000000" font-family="sans-serif" font-size="12" lengthAdjust="spacingAndGlyphs" textLength="153" x="573.5" y="440.1543">twa_graph_succ_iterator</text><!--class succ_iterable--><rect fill="#FEFECE" filter="url(#f4oh4d77nmjph)" height="73.6094" id="succ_iterable" style="stroke: #A80036; stroke-width: 1.5;" width="194" x="303" y="399"/><ellipse cx="354.25" cy="415" fill="#ADD1B2" rx="11" ry="11" style="stroke: #A80036; stroke-width: 1.0;"/><path d="M357.2188,420.6406 Q356.6406,420.9375 356,421.0859 Q355.3594,421.2344 354.6563,421.2344 Q352.1563,421.2344 350.8359,419.5859 Q349.5156,417.9375 349.5156,414.8125 Q349.5156,411.6875 350.8359,410.0313 Q352.1563,408.375 354.6563,408.375 Q355.3594,408.375 356.0078,408.5313 Q356.6563,408.6875 357.2188,408.9844 L357.2188,411.7031 Q356.5938,411.125 356,410.8516 Q355.4063,410.5781 354.7813,410.5781 Q353.4375,410.5781 352.75,411.6484 Q352.0625,412.7188 352.0625,414.8125 Q352.0625,416.9063 352.75,417.9766 Q353.4375,419.0469 354.7813,419.0469 Q355.4063,419.0469 356,418.7734 Q356.5938,418.5 357.2188,417.9219 L357.2188,420.6406 Z "/><text fill="#000000" font-family="sans-serif" font-size="12" lengthAdjust="spacingAndGlyphs" textLength="83" x="374.75" y="419.1543">succ_iterable</text><line style="stroke: #A80036; stroke-width: 1.5;" x1="304" x2="496" y1="431" y2="431"/><line style="stroke: #A80036; stroke-width: 1.5;" x1="304" x2="496" y1="439" y2="439"/><ellipse cx="314" cy="450.9023" fill="#84BE84" rx="3" ry="3" style="stroke: #038048; stroke-width: 1.0;"/><text fill="#000000" font-family="sans-serif" font-size="11" lengthAdjust="spacingAndGlyphs" textLength="168" x="323" y="453.2104">internal::succ_iterator begin()</text><ellipse cx="314" cy="463.707" fill="#84BE84" rx="3" ry="3" style="stroke: #038048; stroke-width: 1.0;"/><text fill="#000000" font-family="sans-serif" font-size="11" lengthAdjust="spacingAndGlyphs" textLength="158" x="323" y="466.0151">internal::succ_iterator end()</text><!--class succ_iterator--><rect fill="#FEFECE" filter="url(#f4oh4d77nmjph)" height="112.0234" id="succ_iterator" style="stroke: #A80036; stroke-width: 1.5;" width="220" x="293" y="612"/><ellipse cx="357.75" cy="628" fill="#ADD1B2" rx="11" ry="11" style="stroke: #A80036; stroke-width: 1.0;"/><path d="M360.7188,633.6406 Q360.1406,633.9375 359.5,634.0859 Q358.8594,634.2344 358.1563,634.2344 Q355.6563,634.2344 354.3359,632.5859 Q353.0156,630.9375 353.0156,627.8125 Q353.0156,624.6875 354.3359,623.0313 Q355.6563,621.375 358.1563,621.375 Q358.8594,621.375 359.5078,621.5313 Q360.1563,621.6875 360.7188,621.9844 L360.7188,624.7031 Q360.0938,624.125 359.5,623.8516 Q358.9063,623.5781 358.2813,623.5781 Q356.9375,623.5781 356.25,624.6484 Q355.5625,625.7188 355.5625,627.8125 Q355.5625,629.9063 356.25,630.9766 Q356.9375,632.0469 358.2813,632.0469 Q358.9063,632.0469 359.5,631.7734 Q360.0938,631.5 360.7188,630.9219 L360.7188,633.6406 Z "/><text fill="#000000" font-family="sans-serif" font-size="12" lengthAdjust="spacingAndGlyphs" textLength="82" x="378.25" y="632.1543">succ_iterator</text><line style="stroke: #A80036; stroke-width: 1.5;" x1="294" x2="512" y1="644" y2="644"/><line style="stroke: #A80036; stroke-width: 1.5;" x1="294" x2="512" y1="652" y2="652"/><text fill="#000000" font-family="sans-serif" font-size="11" lengthAdjust="spacingAndGlyphs" textLength="188" x="299" y="666.2104">succ_iterator(twa_succ_iterator*)</text><text fill="#000000" font-family="sans-serif" font-size="11" lengthAdjust="spacingAndGlyphs" textLength="177" x="299" y="679.0151">bool operator==(succ_iterator)</text><text fill="#000000" font-family="sans-serif" font-size="11" lengthAdjust="spacingAndGlyphs" textLength="171" x="299" y="691.8198">bool operator!=(succ_iterator)</text><text fill="#000000" font-family="sans-serif" font-size="11" lengthAdjust="spacingAndGlyphs" textLength="208" x="299" y="704.6245">const twa_succ_iterator* operator*()</text><text fill="#000000" font-family="sans-serif" font-size="11" lengthAdjust="spacingAndGlyphs" textLength="102" x="299" y="717.4292">void operator++()</text><!--class twa--><rect fill="#FEFECE" filter="url(#f4oh4d77nmjph)" height="216.0586" id="twa" style="stroke: #A80036; stroke-width: 1.5;" width="349" x="168.5" y="83"/><ellipse cx="327.25" cy="99" fill="#A9DCDF" rx="11" ry="11" style="stroke: #A80036; stroke-width: 1.0;"/><path d="M327.3594,94.3438 L326.2031,99.4219 L328.5313,99.4219 L327.3594,94.3438 Z M325.875,92.1094 L328.8594,92.1094 L332.2188,104.5 L329.7656,104.5 L329,101.4375 L325.7188,101.4375 L324.9688,104.5 L322.5313,104.5 L325.875,92.1094 Z "/><text fill="#000000" font-family="sans-serif" font-size="12" font-style="italic" lengthAdjust="spacingAndGlyphs" textLength="23" x="347.75" y="103.1543">twa</text><line style="stroke: #A80036; stroke-width: 1.5;" x1="169.5" x2="516.5" y1="115" y2="115"/><polygon fill="none" points="179.5,121.9023,183.5,125.9023,179.5,129.9023,175.5,125.9023" style="stroke: #B38D22; stroke-width: 1.0;"/><text fill="#000000" font-family="sans-serif" font-size="11" lengthAdjust="spacingAndGlyphs" textLength="174" x="188.5" y="129.2104">twa_succ_iterator* iter_cache_</text><polygon fill="none" points="179.5,134.707,183.5,138.707,179.5,142.707,175.5,138.707" style="stroke: #B38D22; stroke-width: 1.0;"/><text fill="#000000" font-family="sans-serif" font-size="11" lengthAdjust="spacingAndGlyphs" textLength="99" x="188.5" y="142.0151">bdd_dict_ptr dict_</text><line style="stroke: #A80036; stroke-width: 1.5;" x1="169.5" x2="516.5" y1="148.6094" y2="148.6094"/><polygon fill="#FFFF44" points="179.5,155.5117,183.5,159.5117,179.5,163.5117,175.5,159.5117" style="stroke: #B38D22; stroke-width: 1.0;"/><text fill="#000000" font-family="sans-serif" font-size="11" lengthAdjust="spacingAndGlyphs" textLength="142" x="188.5" y="162.8198">twa(const bdd_dict_ptr&amp;)</text><ellipse cx="179.5" cy="190.1211" fill="#84BE84" rx="3" ry="3" style="stroke: #038048; stroke-width: 1.0;"/><text fill="#000000" font-family="sans-serif" font-size="11" font-style="italic" lengthAdjust="spacingAndGlyphs" textLength="121" x="188.5" y="192.4292">state* get_init_state()</text><ellipse cx="179.5" cy="202.9258" fill="#84BE84" rx="3" ry="3" style="stroke: #038048; stroke-width: 1.0;"/><text fill="#000000" font-family="sans-serif" font-size="11" font-style="italic" lengthAdjust="spacingAndGlyphs" textLength="201" x="188.5" y="205.2339">twa_succ_iterator* succ_iter(state*)</text><ellipse cx="179.5" cy="215.7305" fill="#84BE84" rx="3" ry="3" style="stroke: #038048; stroke-width: 1.0;"/><text fill="#000000" font-family="sans-serif" font-size="11" lengthAdjust="spacingAndGlyphs" textLength="234" x="188.5" y="218.0386">internal::succ_iterable succ(const state*)</text><ellipse cx="179.5" cy="228.5352" fill="#84BE84" rx="3" ry="3" style="stroke: #038048; stroke-width: 1.0;"/><text fill="#000000" font-family="sans-serif" font-size="11" lengthAdjust="spacingAndGlyphs" textLength="209" x="188.5" y="230.8433">void release_iter(twa_succ_iterator*)</text><line style="stroke: #A80036; stroke-width: 1.0; stroke-dasharray: 1.0,2.0;" x1="169.5" x2="311.5" y1="175.8164" y2="175.8164"/><text fill="#000000" font-family="sans-serif" font-size="11" lengthAdjust="spacingAndGlyphs" textLength="63" x="311.5" y="179.1245">exploration</text><line style="stroke: #A80036; stroke-width: 1.0; stroke-dasharray: 1.0,2.0;" x1="374.5" x2="516.5" y1="175.8164" y2="175.8164"/><ellipse cx="179.5" cy="258.1445" fill="#84BE84" rx="3" ry="3" style="stroke: #038048; stroke-width: 1.0;"/><text fill="#000000" font-family="sans-serif" font-size="11" font-style="italic" lengthAdjust="spacingAndGlyphs" textLength="209" x="188.5" y="260.4526">std::string format_state(const state*)</text><ellipse cx="179.5" cy="270.9492" fill="#84BE84" rx="3" ry="3" style="stroke: #038048; stroke-width: 1.0;"/><text fill="#000000" font-family="sans-serif" font-size="11" lengthAdjust="spacingAndGlyphs" textLength="323" x="188.5" y="273.2573">state* project_state(const state*, const const_twa_ptr&amp;)</text><line style="stroke: #A80036; stroke-width: 1.0; stroke-dasharray: 1.0,2.0;" x1="169.5" x2="290" y1="243.8398" y2="243.8398"/><text fill="#000000" font-family="sans-serif" font-size="11" lengthAdjust="spacingAndGlyphs" textLength="106" x="290" y="247.1479">state manipulation</text><line style="stroke: #A80036; stroke-width: 1.0; stroke-dasharray: 1.0,2.0;" x1="396" x2="516.5" y1="243.8398" y2="243.8398"/><line style="stroke: #A80036; stroke-width: 1.0; stroke-dasharray: 1.0,2.0;" x1="169.5" x2="269.5" y1="286.2539" y2="286.2539"/><text fill="#000000" font-family="sans-serif" font-size="11" lengthAdjust="spacingAndGlyphs" textLength="147" x="269.5" y="289.562">other methods not shown</text><line style="stroke: #A80036; stroke-width: 1.0; stroke-dasharray: 1.0,2.0;" x1="416.5" x2="516.5" y1="286.2539" y2="286.2539"/><!--class twa_succ_iterator--><rect fill="#FEFECE" filter="url(#f4oh4d77nmjph)" height="150.4375" id="twa_succ_iterator" style="stroke: #A80036; stroke-width: 1.5;" width="156" x="553" y="116"/><ellipse cx="574.3" cy="132" fill="#A9DCDF" rx="11" ry="11" style="stroke: #A80036; stroke-width: 1.0;"/><path d="M574.4094,127.3438 L573.2531,132.4219 L575.5813,132.4219 L574.4094,127.3438 Z M572.925,125.1094 L575.9094,125.1094 L579.2688,137.5 L576.8156,137.5 L576.05,134.4375 L572.7688,134.4375 L572.0188,137.5 L569.5813,137.5 L572.925,125.1094 Z "/><text fill="#000000" font-family="sans-serif" font-size="12" font-style="italic" lengthAdjust="spacingAndGlyphs" textLength="110" x="589.7" y="136.1543">twa_succ_iterator</text><line style="stroke: #A80036; stroke-width: 1.5;" x1="554" x2="708" y1="148" y2="148"/><ellipse cx="564" cy="176.707" fill="#84BE84" rx="3" ry="3" style="stroke: #038048; stroke-width: 1.0;"/><text fill="#000000" font-family="sans-serif" font-size="11" font-style="italic" lengthAdjust="spacingAndGlyphs" textLength="58" x="573" y="179.0151">bool first()</text><ellipse cx="564" cy="189.5117" fill="#84BE84" rx="3" ry="3" style="stroke: #038048; stroke-width: 1.0;"/><text fill="#000000" font-family="sans-serif" font-size="11" font-style="italic" lengthAdjust="spacingAndGlyphs" textLength="61" x="573" y="191.8198">bool next()</text><ellipse cx="564" cy="202.3164" fill="#84BE84" rx="3" ry="3" style="stroke: #038048; stroke-width: 1.0;"/><text fill="#000000" font-family="sans-serif" font-size="11" font-style="italic" lengthAdjust="spacingAndGlyphs" textLength="64" x="573" y="204.6245">bool done()</text><line style="stroke: #A80036; stroke-width: 1.0; stroke-dasharray: 1.0,2.0;" x1="554" x2="607.5" y1="162.4023" y2="162.4023"/><text fill="#000000" font-family="sans-serif" font-size="11" lengthAdjust="spacingAndGlyphs" textLength="47" x="607.5" y="165.7104">iteration</text><line style="stroke: #A80036; stroke-width: 1.0; stroke-dasharray: 1.0,2.0;" x1="654.5" x2="708" y1="162.4023" y2="162.4023"/><ellipse cx="564" cy="231.9258" fill="#84BE84" rx="3" ry="3" style="stroke: #038048; stroke-width: 1.0;"/><text fill="#000000" font-family="sans-serif" font-size="11" font-style="italic" lengthAdjust="spacingAndGlyphs" textLength="97" x="573" y="234.2339">const state* dst()</text><ellipse cx="564" cy="244.7305" fill="#84BE84" rx="3" ry="3" style="stroke: #038048; stroke-width: 1.0;"/><text fill="#000000" font-family="sans-serif" font-size="11" font-style="italic" lengthAdjust="spacingAndGlyphs" textLength="60" x="573" y="247.0386">bdd cond()</text><ellipse cx="564" cy="257.5352" fill="#84BE84" rx="3" ry="3" style="stroke: #038048; stroke-width: 1.0;"/><text fill="#000000" font-family="sans-serif" font-size="11" font-style="italic" lengthAdjust="spacingAndGlyphs" textLength="130" x="573" y="259.8433">acc_cond::mark_t acc()</text><line style="stroke: #A80036; stroke-width: 1.0; stroke-dasharray: 1.0,2.0;" x1="554" x2="602" y1="217.6211" y2="217.6211"/><text fill="#000000" font-family="sans-serif" font-size="11" lengthAdjust="spacingAndGlyphs" textLength="58" x="602" y="220.9292">inspection</text><line style="stroke: #A80036; stroke-width: 1.0; stroke-dasharray: 1.0,2.0;" x1="660" x2="708" y1="217.6211" y2="217.6211"/><!--class state--><rect fill="#FEFECE" filter="url(#f4oh4d77nmjph)" height="112.0234" id="state" style="stroke: #A80036; stroke-width: 1.5;" width="170" x="744" y="135"/><ellipse cx="808.75" cy="151" fill="#A9DCDF" rx="11" ry="11" style="stroke: #A80036; stroke-width: 1.0;"/><path d="M808.8594,146.3438 L807.7031,151.4219 L810.0313,151.4219 L808.8594,146.3438 Z M807.375,144.1094 L810.3594,144.1094 L813.7188,156.5 L811.2656,156.5 L810.5,153.4375 L807.2188,153.4375 L806.4688,156.5 L804.0313,156.5 L807.375,144.1094 Z "/><text fill="#000000" font-family="sans-serif" font-size="12" font-style="italic" lengthAdjust="spacingAndGlyphs" textLength="32" x="829.25" y="155.1543">state</text><line style="stroke: #A80036; stroke-width: 1.5;" x1="745" x2="913" y1="167" y2="167"/><line style="stroke: #A80036; stroke-width: 1.5;" x1="745" x2="913" y1="175" y2="175"/><ellipse cx="755" cy="186.9023" fill="#84BE84" rx="3" ry="3" style="stroke: #038048; stroke-width: 1.0;"/><text fill="#000000" font-family="sans-serif" font-size="11" font-style="italic" lengthAdjust="spacingAndGlyphs" textLength="144" x="764" y="189.2104">int compare(const state*)</text><ellipse cx="755" cy="199.707" fill="#84BE84" rx="3" ry="3" style="stroke: #038048; stroke-width: 1.0;"/><text fill="#000000" font-family="sans-serif" font-size="11" font-style="italic" lengthAdjust="spacingAndGlyphs" textLength="71" x="764" y="202.0151">size_t hash()</text><ellipse cx="755" cy="212.5117" fill="#84BE84" rx="3" ry="3" style="stroke: #038048; stroke-width: 1.0;"/><text fill="#000000" font-family="sans-serif" font-size="11" font-style="italic" lengthAdjust="spacingAndGlyphs" textLength="76" x="764" y="214.8198">state* clone()</text><ellipse cx="755" cy="225.3164" fill="#84BE84" rx="3" ry="3" style="stroke: #038048; stroke-width: 1.0;"/><text fill="#000000" font-family="sans-serif" font-size="11" lengthAdjust="spacingAndGlyphs" textLength="78" x="764" y="227.6245">void destroy()</text><polygon fill="#FFFF44" points="755,233.1211,759,237.1211,755,241.1211,751,237.1211" style="stroke: #B38D22; stroke-width: 1.0;"/><text fill="#000000" font-family="sans-serif" font-size="11" lengthAdjust="spacingAndGlyphs" textLength="46" x="764" y="240.4292">~state()</text><!--link twa to twa_graph--><path d="M276.03,317.19 C254.05,358.27 232.37,398.79 221.06,419.94 " fill="none" id="twa-twa_graph" style="stroke: #A80036; stroke-width: 1.0;"/><polygon fill="none" points="270,313.62,285.6,299.29,282.34,320.23,270,313.62" style="stroke: #A80036; stroke-width: 1.0;"/><!--link twa to acc_cond--><path d="M198.7377,306.9647 C198.7377,306.9647 162.89,339.73 147,356 C130.73,372.66 114.39,393.29 102.43,409.29 " fill="none" id="twa-acc_cond" style="stroke: #A80036; stroke-width: 1.0;"/><polygon fill="#A80036" points="94.56,420,103.1142,415.1189,97.5221,415.9718,96.6692,410.3796,94.56,420" style="stroke: #A80036; stroke-width: 1.0;"/><line style="stroke: #A80036; stroke-width: 1.0;" x1="97.5221" x2="102.255" y1="415.9718" y2="409.525"/><polygon fill="#A80036" points="207.74,299.03,200.594,299.9966,198.7377,306.9647,205.8837,305.9981,207.74,299.03" style="stroke: #A80036; stroke-width: 1.0;"/><!--link twa_succ_iterator to twa_graph_succ_iterator--><path d="M633.33,286.46 C634.57,336.53 635.96,393.04 636.62,419.63 " fill="none" id="twa_succ_iterator-twa_graph_succ_iterator" style="stroke: #A80036; stroke-width: 1.0;"/><polygon fill="none" points="626.33,286.4,632.83,266.23,640.32,286.05,626.33,286.4" style="stroke: #A80036; stroke-width: 1.0;"/><!--link succ_iterable to twa--><path d="M371.4311,388.0874 C371.4311,388.0874 358.73,361.13 355,348 C351.75,336.58 349.27,324.52 347.37,312.36 " fill="none" id="succ_iterable-twa" style="stroke: #A80036; stroke-width: 1.0;"/><polygon fill="#A80036" points="345.54,299.16,342.8147,308.6243,346.2271,304.1126,350.7388,307.5249,345.54,299.16" style="stroke: #A80036; stroke-width: 1.0;"/><line style="stroke: #A80036; stroke-width: 1.0;" x1="346.2271" x2="347.325" y1="304.1126" y2="312.035"/><polygon fill="#FFFFFF" points="377.07,398.68,377.7814,391.5041,371.4311,388.0874,370.7197,395.2633,377.07,398.68" style="stroke: #A80036; stroke-width: 1.0;"/><!--link twa to succ_iterable--><path d="M368.17,299.29 C376.02,332.78 384.22,367.74 390.33,393.78 " fill="none" id="twa-succ_iterable" style="stroke: #A80036; stroke-width: 1.0; stroke-dasharray: 7.0,7.0;"/><polygon fill="#A80036" points="391.53,398.87,393.3686,389.1943,390.388,394.0022,385.5801,391.0215,391.53,398.87" style="stroke: #A80036; stroke-width: 1.0;"/><text fill="#000000" font-family="sans-serif" font-size="13" lengthAdjust="spacingAndGlyphs" textLength="41" x="379" y="344.0669">create</text><!--link twa_succ_iterator to succ_iterable--><path d="M573.68,276.69 C561.58,292.64 548.4,308.77 535,323 C512.17,347.25 458.8044,391.3844 458.8044,391.3844 " fill="none" id="twa_succ_iterator-succ_iterable" style="stroke: #A80036; stroke-width: 1.0;"/><polygon fill="#A80036" points="449.37,398.8,456.5591,398.237,458.8044,391.3844,451.6154,391.9474,449.37,398.8" style="stroke: #A80036; stroke-width: 1.0;"/><polygon fill="#A80036" points="581.46,266.25,572.8748,271.0764,578.4723,270.2592,579.2895,275.8567,581.46,266.25" style="stroke: #A80036; stroke-width: 1.0;"/><line style="stroke: #A80036; stroke-width: 1.0;" x1="578.4723" x2="573.69" y1="270.2592" y2="276.67"/><!--link twa_succ_iterator to succ_iterator--><path d="M679.61,276.99 C692.99,294.38 708.89,311.01 727,323 C739.94,331.57 751.36,318.83 761,331 C770.8,343.37 769.07,459.44 761,473 C710.34,558.07 524.4899,636.3928 524.4899,636.3928 " fill="none" id="twa_succ_iterator-succ_iterator" style="stroke: #A80036; stroke-width: 1.0;"/><polygon fill="#FFFFFF" points="513.09,640.14,520.039,642.0664,524.4899,636.3928,517.5409,634.4664,513.09,640.14" style="stroke: #A80036; stroke-width: 1.0;"/><polygon fill="#A80036" points="671.6,266.09,673.7029,275.7117,674.5594,270.1201,680.1511,270.9766,671.6,266.09" style="stroke: #A80036; stroke-width: 1.0;"/><line style="stroke: #A80036; stroke-width: 1.0;" x1="674.5594" x2="679.3" y1="270.1201" y2="276.565"/><!--link succ_iterable to succ_iterator--><path d="M400.47,473.19 C400.94,508.93 401.66,564.24 402.21,606.64 " fill="none" id="succ_iterable-succ_iterator" style="stroke: #A80036; stroke-width: 1.0; stroke-dasharray: 7.0,7.0;"/><polygon fill="#A80036" points="402.28,611.74,406.1769,602.6949,402.2229,606.7403,398.1774,602.7863,402.28,611.74" style="stroke: #A80036; stroke-width: 1.0;"/><text fill="#000000" font-family="sans-serif" font-size="13" lengthAdjust="spacingAndGlyphs" textLength="41" x="402" y="547.0669">create</text><!--link state to twa_graph_state--><path d="M841.66,267.06 C850.79,321.16 862.36,389.73 867.43,419.75 " fill="none" id="state-twa_graph_state" style="stroke: #A80036; stroke-width: 1.0;"/><polygon fill="none" points="834.73,268.03,838.3,247.14,848.53,265.7,834.73,268.03" style="stroke: #A80036; stroke-width: 1.0;"/><!--
@startuml
package spot {
  package internal {
    class succ_iterable {
      +internal::succ_iterator begin()
      +internal::succ_iterator end()
    }

    class succ_iterator {
      succ_iterator(twa_succ_iterator*)
      bool operator==(succ_iterator)
      bool operator!=(succ_iterator)
      const twa_succ_iterator* operator*()
      void operator++()
    }
  }

  class acc_cond
  hide acc_cond members

  together {
  abstract class twa {
    #twa_succ_iterator* iter_cache_
    #bdd_dict_ptr dict_
    __
    #twa(const bdd_dict_ptr&)
    .. exploration ..
    +{abstract}state* get_init_state()
    +{abstract}twa_succ_iterator* succ_iter(state*)
    +internal::succ_iterable succ(const state*)
    +void release_iter(twa_succ_iterator*)
    .. state manipulation ..
    +{abstract} std::string format_state(const state*)
    +state* project_state(const state*, const const_twa_ptr&)
    .. other methods not shown..
  }
  abstract class twa_succ_iterator {
    .. iteration ..
    {abstract}+bool first()
    {abstract}+bool next()
    {abstract}+bool done()
    .. inspection ..
    {abstract}+const state* dst()
    {abstract}+bdd cond()
    {abstract}+acc_cond::mark_t acc()
  }

  abstract class state {
    +{abstract}int compare(const state*)
    +{abstract}size_t hash()
    +{abstract}state* clone()
    +void destroy()
    #~state()
  }
  }



  class twa_graph

  twa <|- - twa_graph
  twa *- -> acc_cond

  class twa_graph_state

  hide twa_graph members
  hide twa_graph_state members
  hide twa_graph_succ_iterator members

  twa_succ_iterator <|- - twa_graph_succ_iterator
  succ_iterable o- -> twa
  twa_succ_iterator <- -* succ_iterable
  twa_succ_iterator <- -o succ_iterator
  twa ...> succ_iterable : "create"
  succ_iterable ...> succ_iterator : "create"
  state <|- - twa_graph_state
}
@enduml

PlantUML version 1.2019.08(Sat Jul 13 21:25:14 CEST 2019)
(GPL source distribution)
Java Runtime: Java(TM) SE Runtime Environment
JVM: Java HotSpot(TM) 64-Bit Server VM
Java Version: 1.8.0_261-b12
Operating System: Linux
OS Version: 5.4.0-139-generic
Default Encoding: UTF-8
Language: fr
Country: FR
--></g></svg>