<?xml version="1.0" encoding="UTF-8" standalone="no"?><svg xmlns="http://www.w3.org/2000/svg" xmlns:xlink="http://www.w3.org/1999/xlink" contentScriptType="application/ecmascript" contentStyleType="text/css" height="1038px" preserveAspectRatio="none" style="width:1368px;height:1038px;" version="1.1" viewBox="0 0 1368 1038" width="1368px" zoomAndPan="magnify"><defs><filter height="300%" id="f1le3uzlyjujbn" width="300%" x="-1" y="-1"><feGaussianBlur result="blurOut" stdDeviation="2.0"/><feColorMatrix in="blurOut" result="blurOut2" type="matrix" values="0 0 0 0 0 0 0 0 0 0 0 0 0 0 0 0 0 0 .4 0"/><feOffset dx="4.0" dy="4.0" in="blurOut2" result="blurOut3"/><feBlend in="SourceGraphic" in2="blurOut3" mode="normal"/></filter></defs><g><!--cluster stl--><polygon fill="#FFFFFF" filter="url(#f1le3uzlyjujbn)" points="22,690,47,690,54,712.2969,160,712.2969,160,779,22,779,22,690" style="stroke: #000000; stroke-width: 1.5;"/><line style="stroke: #000000; stroke-width: 1.5;" x1="22" x2="54" y1="712.2969" y2="712.2969"/><text fill="#000000" font-family="sans-serif" font-size="14" font-weight="bold" lengthAdjust="spacingAndGlyphs" textLength="19" x="26" y="704.9951">stl</text><!--cluster spot--><polygon fill="#FFFFFF" filter="url(#f1le3uzlyjujbn)" points="184,24,225,24,232,46.2969,1316,46.2969,1316,1026,184,1026,184,24" style="stroke: #000000; stroke-width: 1.5;"/><line style="stroke: #000000; stroke-width: 1.5;" x1="184" x2="232" y1="46.2969" y2="46.2969"/><text fill="#000000" font-family="sans-serif" font-size="14" font-weight="bold" lengthAdjust="spacingAndGlyphs" textLength="35" x="188" y="38.9951">spot</text><!--cluster internal--><polygon fill="#FFFFFF" filter="url(#f1le3uzlyjujbn)" points="208,522,274,522,281,544.2969,1279,544.2969,1279,1002,208,1002,208,522" style="stroke: #000000; stroke-width: 1.5;"/><line style="stroke: #000000; stroke-width: 1.5;" x1="208" x2="281" y1="544.2969" y2="544.2969"/><text fill="#000000" font-family="sans-serif" font-size="14" font-weight="bold" lengthAdjust="spacingAndGlyphs" textLength="60" x="212" y="536.9951">internal</text><!--class Forward Iterator--><rect fill="#FEFECE" filter="url(#f1le3uzlyjujbn)" height="37.9375" id="Forward Iterator" style="stroke: #A80036; stroke-width: 1.5;" width="107" x="37.5" y="725"/><text fill="#000000" font-family="sans-serif" font-size="12" font-style="italic" lengthAdjust="spacingAndGlyphs" textLength="66" x="58" y="741.1387">«Concept»</text><text fill="#000000" font-family="sans-serif" font-size="12" lengthAdjust="spacingAndGlyphs" textLength="101" x="40.5" y="755.1074">Forward Iterator</text><!--class twa_graph--><rect fill="#FEFECE" filter="url(#f1le3uzlyjujbn)" height="148.0352" id="twa_graph" style="stroke: #A80036; stroke-width: 1.5;" width="406" x="767" y="152"/><ellipse cx="933.25" cy="168" fill="#ADD1B2" rx="11" ry="11" style="stroke: #A80036; stroke-width: 1.0;"/><path d="M936.2188,173.6406 Q935.6406,173.9375 935,174.0859 Q934.3594,174.2344 933.6563,174.2344 Q931.1563,174.2344 929.8359,172.5859 Q928.5156,170.9375 928.5156,167.8125 Q928.5156,164.6875 929.8359,163.0313 Q931.1563,161.375 933.6563,161.375 Q934.3594,161.375 935.0078,161.5313 Q935.6563,161.6875 936.2188,161.9844 L936.2188,164.7031 Q935.5938,164.125 935,163.8516 Q934.4063,163.5781 933.7813,163.5781 Q932.4375,163.5781 931.75,164.6484 Q931.0625,165.7188 931.0625,167.8125 Q931.0625,169.9063 931.75,170.9766 Q932.4375,172.0469 933.7813,172.0469 Q934.4063,172.0469 935,171.7734 Q935.5938,171.5 936.2188,170.9219 L936.2188,173.6406 Z "/><text fill="#000000" font-family="sans-serif" font-size="12" lengthAdjust="spacingAndGlyphs" textLength="65" x="953.75" y="172.1543">twa_graph</text><line style="stroke: #A80036; stroke-width: 1.5;" x1="768" x2="1172" y1="184" y2="184"/><ellipse cx="778" cy="195.9023" fill="none" rx="3" ry="3" style="stroke: #038048; stroke-width: 1.0;"/><text fill="#000000" font-family="sans-serif" font-size="11" lengthAdjust="spacingAndGlyphs" textLength="380" x="787" y="198.2104">typedef digraph&lt;twa_graph_state, twa_graph_edge_data&gt; graph_t</text><line style="stroke: #A80036; stroke-width: 1.5;" x1="768" x2="1172" y1="204.8047" y2="204.8047"/><ellipse cx="778" cy="216.707" fill="#84BE84" rx="3" ry="3" style="stroke: #038048; stroke-width: 1.0;"/><text fill="#000000" font-family="sans-serif" font-size="11" lengthAdjust="spacingAndGlyphs" textLength="181" x="787" y="219.0151">twa_graph(const bdd_dict_ptr&amp;)</text><ellipse cx="778" cy="229.5117" fill="#84BE84" rx="3" ry="3" style="stroke: #038048; stroke-width: 1.0;"/><text fill="#000000" font-family="sans-serif" font-size="11" lengthAdjust="spacingAndGlyphs" textLength="122" x="787" y="231.8198">graph_t&amp; get_graph()</text><ellipse cx="778" cy="259.1211" fill="#84BE84" rx="3" ry="3" style="stroke: #038048; stroke-width: 1.0;"/><text fill="#000000" font-family="sans-serif" font-size="11" lengthAdjust="spacingAndGlyphs" textLength="190" x="787" y="261.4292">unsigned get_init_state_number()</text><ellipse cx="778" cy="271.9258" fill="#84BE84" rx="3" ry="3" style="stroke: #038048; stroke-width: 1.0;"/><text fill="#000000" font-family="sans-serif" font-size="11" lengthAdjust="spacingAndGlyphs" textLength="269" x="787" y="274.2339">internal::state_out&lt;graph_t&gt; out(unsigned src)</text><line style="stroke: #A80036; stroke-width: 1.0; stroke-dasharray: 1.0,2.0;" x1="768" x2="938.5" y1="244.8164" y2="244.8164"/><text fill="#000000" font-family="sans-serif" font-size="11" lengthAdjust="spacingAndGlyphs" textLength="63" x="938.5" y="248.1245">exploration</text><line style="stroke: #A80036; stroke-width: 1.0; stroke-dasharray: 1.0,2.0;" x1="1001.5" x2="1172" y1="244.8164" y2="244.8164"/><line style="stroke: #A80036; stroke-width: 1.0; stroke-dasharray: 1.0,2.0;" x1="768" x2="907" y1="287.2305" y2="287.2305"/><text fill="#000000" font-family="sans-serif" font-size="11" lengthAdjust="spacingAndGlyphs" textLength="126" x="907" y="290.5386">other methods hidden</text><line style="stroke: #A80036; stroke-width: 1.0; stroke-dasharray: 1.0,2.0;" x1="1033" x2="1172" y1="287.2305" y2="287.2305"/><!--class twa--><rect fill="#FEFECE" filter="url(#f1le3uzlyjujbn)" height="32" id="twa" style="stroke: #A80036; stroke-width: 1.5;" width="55" x="1084.5" y="59"/><ellipse cx="1099.5" cy="75" fill="#A9DCDF" rx="11" ry="11" style="stroke: #A80036; stroke-width: 1.0;"/><path d="M1099.6094,70.3438 L1098.4531,75.4219 L1100.7813,75.4219 L1099.6094,70.3438 Z M1098.125,68.1094 L1101.1094,68.1094 L1104.4688,80.5 L1102.0156,80.5 L1101.25,77.4375 L1097.9688,77.4375 L1097.2188,80.5 L1094.7813,80.5 L1098.125,68.1094 Z "/><text fill="#000000" font-family="sans-serif" font-size="12" font-style="italic" lengthAdjust="spacingAndGlyphs" textLength="23" x="1113.5" y="79.1543">twa</text><!--class digraph<twa_graph_state, twa_graph_edge_data>--><rect fill="#FEFECE" filter="url(#f1le3uzlyjujbn)" height="97.6211" id="digraph&lt;twa_graph_state, twa_graph_edge_data&gt;" style="stroke: #A80036; stroke-width: 1.5;" width="450" x="771" y="361"/><ellipse cx="832.75" cy="377" fill="#ADD1B2" rx="11" ry="11" style="stroke: #A80036; stroke-width: 1.0;"/><path d="M835.7188,382.6406 Q835.1406,382.9375 834.5,383.0859 Q833.8594,383.2344 833.1563,383.2344 Q830.6563,383.2344 829.3359,381.5859 Q828.0156,379.9375 828.0156,376.8125 Q828.0156,373.6875 829.3359,372.0313 Q830.6563,370.375 833.1563,370.375 Q833.8594,370.375 834.5078,370.5313 Q835.1563,370.6875 835.7188,370.9844 L835.7188,373.7031 Q835.0938,373.125 834.5,372.8516 Q833.9063,372.5781 833.2813,372.5781 Q831.9375,372.5781 831.25,373.6484 Q830.5625,374.7188 830.5625,376.8125 Q830.5625,378.9063 831.25,379.9766 Q831.9375,381.0469 833.2813,381.0469 Q833.9063,381.0469 834.5,380.7734 Q835.0938,380.5 835.7188,379.9219 L835.7188,382.6406 Z "/><text fill="#000000" font-family="sans-serif" font-size="12" lengthAdjust="spacingAndGlyphs" textLength="318" x="853.25" y="381.1543">digraph&lt;twa_graph_state, twa_graph_edge_data&gt;</text><line style="stroke: #A80036; stroke-width: 1.5;" x1="772" x2="1220" y1="393" y2="393"/><ellipse cx="782" cy="404.9023" fill="#84BE84" rx="3" ry="3" style="stroke: #038048; stroke-width: 1.0;"/><text fill="#000000" font-family="sans-serif" font-size="11" lengthAdjust="spacingAndGlyphs" textLength="424" x="791" y="407.2104">internal::edge_storage&lt;twa_graph_edge_data&gt; edge_storage(unsigned s)</text><ellipse cx="782" cy="417.707" fill="#84BE84" rx="3" ry="3" style="stroke: #038048; stroke-width: 1.0;"/><text fill="#000000" font-family="sans-serif" font-size="11" lengthAdjust="spacingAndGlyphs" textLength="406" x="791" y="420.0151">internal::distate_storage&lt;twa_graph_state&gt; state_storage(unsigned s)</text><ellipse cx="782" cy="430.5117" fill="#84BE84" rx="3" ry="3" style="stroke: #038048; stroke-width: 1.0;"/><text fill="#000000" font-family="sans-serif" font-size="11" lengthAdjust="spacingAndGlyphs" textLength="269" x="791" y="432.8198">internal::state_out&lt;graph_t&gt; out(unsigned src)</text><line style="stroke: #A80036; stroke-width: 1.0; stroke-dasharray: 1.0,2.0;" x1="772" x2="936.5" y1="445.8164" y2="445.8164"/><text fill="#000000" font-family="sans-serif" font-size="11" lengthAdjust="spacingAndGlyphs" textLength="119" x="936.5" y="449.1245">other details omitted</text><line style="stroke: #A80036; stroke-width: 1.0; stroke-dasharray: 1.0,2.0;" x1="1055.5" x2="1220" y1="445.8164" y2="445.8164"/><!--class twa_graph_edge_data--><rect fill="#FEFECE" filter="url(#f1le3uzlyjujbn)" height="73.6094" id="twa_graph_edge_data" style="stroke: #A80036; stroke-width: 1.5;" width="170" x="566" y="373"/><ellipse cx="581" cy="389" fill="#ADD1B2" rx="11" ry="11" style="stroke: #A80036; stroke-width: 1.0;"/><path d="M583.9688,394.6406 Q583.3906,394.9375 582.75,395.0859 Q582.1094,395.2344 581.4063,395.2344 Q578.9063,395.2344 577.5859,393.5859 Q576.2656,391.9375 576.2656,388.8125 Q576.2656,385.6875 577.5859,384.0313 Q578.9063,382.375 581.4063,382.375 Q582.1094,382.375 582.7578,382.5313 Q583.4063,382.6875 583.9688,382.9844 L583.9688,385.7031 Q583.3438,385.125 582.75,384.8516 Q582.1563,384.5781 581.5313,384.5781 Q580.1875,384.5781 579.5,385.6484 Q578.8125,386.7188 578.8125,388.8125 Q578.8125,390.9063 579.5,391.9766 Q580.1875,393.0469 581.5313,393.0469 Q582.1563,393.0469 582.75,392.7734 Q583.3438,392.5 583.9688,391.9219 L583.9688,394.6406 Z "/><text fill="#000000" font-family="sans-serif" font-size="12" lengthAdjust="spacingAndGlyphs" textLength="138" x="595" y="393.1543">twa_graph_edge_data</text><line style="stroke: #A80036; stroke-width: 1.5;" x1="567" x2="735" y1="405" y2="405"/><ellipse cx="577" cy="416.9023" fill="none" rx="3" ry="3" style="stroke: #038048; stroke-width: 1.0;"/><text fill="#000000" font-family="sans-serif" font-size="11" lengthAdjust="spacingAndGlyphs" textLength="52" x="586" y="419.2104">bdd cond</text><ellipse cx="577" cy="429.707" fill="none" rx="3" ry="3" style="stroke: #038048; stroke-width: 1.0;"/><text fill="#000000" font-family="sans-serif" font-size="11" lengthAdjust="spacingAndGlyphs" textLength="122" x="586" y="432.0151">acc_cond::mark_t acc</text><line style="stroke: #A80036; stroke-width: 1.5;" x1="567" x2="735" y1="438.6094" y2="438.6094"/><!--class twa_graph_state--><rect fill="#FEFECE" filter="url(#f1le3uzlyjujbn)" height="32" id="twa_graph_state" style="stroke: #A80036; stroke-width: 1.5;" width="136" x="284" y="394"/><ellipse cx="299" cy="410" fill="#ADD1B2" rx="11" ry="11" style="stroke: #A80036; stroke-width: 1.0;"/><path d="M301.9688,415.6406 Q301.3906,415.9375 300.75,416.0859 Q300.1094,416.2344 299.4063,416.2344 Q296.9063,416.2344 295.5859,414.5859 Q294.2656,412.9375 294.2656,409.8125 Q294.2656,406.6875 295.5859,405.0313 Q296.9063,403.375 299.4063,403.375 Q300.1094,403.375 300.7578,403.5313 Q301.4063,403.6875 301.9688,403.9844 L301.9688,406.7031 Q301.3438,406.125 300.75,405.8516 Q300.1563,405.5781 299.5313,405.5781 Q298.1875,405.5781 297.5,406.6484 Q296.8125,407.7188 296.8125,409.8125 Q296.8125,411.9063 297.5,412.9766 Q298.1875,414.0469 299.5313,414.0469 Q300.1563,414.0469 300.75,413.7734 Q301.3438,413.5 301.9688,412.9219 L301.9688,415.6406 Z "/><text fill="#000000" font-family="sans-serif" font-size="12" lengthAdjust="spacingAndGlyphs" textLength="104" x="313" y="414.1543">twa_graph_state</text><!--class acc_cond--><rect fill="#FEFECE" filter="url(#f1le3uzlyjujbn)" height="32" id="acc_cond" style="stroke: #A80036; stroke-width: 1.5;" width="91" x="1208.5" y="210"/><ellipse cx="1223.5" cy="226" fill="#ADD1B2" rx="11" ry="11" style="stroke: #A80036; stroke-width: 1.0;"/><path d="M1226.4688,231.6406 Q1225.8906,231.9375 1225.25,232.0859 Q1224.6094,232.2344 1223.9063,232.2344 Q1221.4063,232.2344 1220.0859,230.5859 Q1218.7656,228.9375 1218.7656,225.8125 Q1218.7656,222.6875 1220.0859,221.0313 Q1221.4063,219.375 1223.9063,219.375 Q1224.6094,219.375 1225.2578,219.5313 Q1225.9063,219.6875 1226.4688,219.9844 L1226.4688,222.7031 Q1225.8438,222.125 1225.25,221.8516 Q1224.6563,221.5781 1224.0313,221.5781 Q1222.6875,221.5781 1222,222.6484 Q1221.3125,223.7188 1221.3125,225.8125 Q1221.3125,227.9063 1222,228.9766 Q1222.6875,230.0469 1224.0313,230.0469 Q1224.6563,230.0469 1225.25,229.7734 Q1225.8438,229.5 1226.4688,228.9219 L1226.4688,231.6406 Z "/><text fill="#000000" font-family="sans-serif" font-size="12" lengthAdjust="spacingAndGlyphs" textLength="59" x="1237.5" y="230.1543">acc_cond</text><!--class state_out<digraph<twa_graph_state, twa_graph_edge_data>>--><rect fill="#FEFECE" filter="url(#f1le3uzlyjujbn)" height="86.4141" id="state_out&lt;digraph&lt;twa_graph_state, twa_graph_edge_data&gt;&gt;" style="stroke: #A80036; stroke-width: 1.5;" width="436" x="827" y="557"/><ellipse cx="844.7" cy="573" fill="#ADD1B2" rx="11" ry="11" style="stroke: #A80036; stroke-width: 1.0;"/><path d="M847.6688,578.6406 Q847.0906,578.9375 846.45,579.0859 Q845.8094,579.2344 845.1063,579.2344 Q842.6063,579.2344 841.2859,577.5859 Q839.9656,575.9375 839.9656,572.8125 Q839.9656,569.6875 841.2859,568.0313 Q842.6063,566.375 845.1063,566.375 Q845.8094,566.375 846.4578,566.5313 Q847.1063,566.6875 847.6688,566.9844 L847.6688,569.7031 Q847.0438,569.125 846.45,568.8516 Q845.8563,568.5781 845.2313,568.5781 Q843.8875,568.5781 843.2,569.6484 Q842.5125,570.7188 842.5125,572.8125 Q842.5125,574.9063 843.2,575.9766 Q843.8875,577.0469 845.2313,577.0469 Q845.8563,577.0469 846.45,576.7734 Q847.0438,576.5 847.6688,575.9219 L847.6688,578.6406 Z "/><text fill="#000000" font-family="sans-serif" font-size="12" lengthAdjust="spacingAndGlyphs" textLength="398" x="859.3" y="577.1543">state_out&lt;digraph&lt;twa_graph_state, twa_graph_edge_data&gt;&gt;</text><line style="stroke: #A80036; stroke-width: 1.5;" x1="828" x2="1262" y1="589" y2="589"/><text fill="#000000" font-family="sans-serif" font-size="11" lengthAdjust="spacingAndGlyphs" textLength="66" x="833" y="603.2104">unsigned t_</text><line style="stroke: #A80036; stroke-width: 1.5;" x1="828" x2="1262" y1="609.8047" y2="609.8047"/><text fill="#000000" font-family="sans-serif" font-size="11" lengthAdjust="spacingAndGlyphs" textLength="424" x="833" y="624.0151">edge_iterator&lt;digraph&lt;twa_graph_state, twa_graph_edge_data&gt;&gt; begin()</text><text fill="#000000" font-family="sans-serif" font-size="11" lengthAdjust="spacingAndGlyphs" textLength="414" x="833" y="636.8198">edge_iterator&lt;digraph&lt;twa_graph_state, twa_graph_edge_data&gt;&gt; end()</text><!--class edge_iterator<digraph<twa_graph_state, twa_graph_edge_data>>--><rect fill="#FEFECE" filter="url(#f1le3uzlyjujbn)" height="144.0352" id="edge_iterator&lt;digraph&lt;twa_graph_state, twa_graph_edge_data&gt;&gt;" style="stroke: #A80036; stroke-width: 1.5;" width="455" x="808.5" y="842"/><ellipse cx="823.5" cy="858" fill="#ADD1B2" rx="11" ry="11" style="stroke: #A80036; stroke-width: 1.0;"/><path d="M826.4688,863.6406 Q825.8906,863.9375 825.25,864.0859 Q824.6094,864.2344 823.9063,864.2344 Q821.4063,864.2344 820.0859,862.5859 Q818.7656,860.9375 818.7656,857.8125 Q818.7656,854.6875 820.0859,853.0313 Q821.4063,851.375 823.9063,851.375 Q824.6094,851.375 825.2578,851.5313 Q825.9063,851.6875 826.4688,851.9844 L826.4688,854.7031 Q825.8438,854.125 825.25,853.8516 Q824.6563,853.5781 824.0313,853.5781 Q822.6875,853.5781 822,854.6484 Q821.3125,855.7188 821.3125,857.8125 Q821.3125,859.9063 822,860.9766 Q822.6875,862.0469 824.0313,862.0469 Q824.6563,862.0469 825.25,861.7734 Q825.8438,861.5 826.4688,860.9219 L826.4688,863.6406 Z "/><text fill="#000000" font-family="sans-serif" font-size="12" lengthAdjust="spacingAndGlyphs" textLength="423" x="837.5" y="862.1543">edge_iterator&lt;digraph&lt;twa_graph_state, twa_graph_edge_data&gt;&gt;</text><line style="stroke: #A80036; stroke-width: 1.5;" x1="809.5" x2="1262.5" y1="874" y2="874"/><text fill="#000000" font-family="sans-serif" font-size="11" lengthAdjust="spacingAndGlyphs" textLength="66" x="814.5" y="888.2104">unsigned t_</text><line style="stroke: #A80036; stroke-width: 1.5;" x1="809.5" x2="1262.5" y1="894.8047" y2="894.8047"/><text fill="#000000" font-family="sans-serif" font-size="11" lengthAdjust="spacingAndGlyphs" textLength="179" x="814.5" y="909.0151">bool operator==(edge_iterator)</text><text fill="#000000" font-family="sans-serif" font-size="11" lengthAdjust="spacingAndGlyphs" textLength="173" x="814.5" y="921.8198">bool operator!=(edge_iterator)</text><text fill="#000000" font-family="sans-serif" font-size="11" lengthAdjust="spacingAndGlyphs" textLength="373" x="814.5" y="934.6245">edge_storage&lt;twa_graph_edge_data&gt;&amp; operator*(edge_iterator)</text><text fill="#000000" font-family="sans-serif" font-size="11" lengthAdjust="spacingAndGlyphs" textLength="376" x="814.5" y="947.4292">edge_storage&lt;twa_graph_edge_data&gt;* operator-&gt;(edge_iterator)</text><text fill="#000000" font-family="sans-serif" font-size="11" lengthAdjust="spacingAndGlyphs" textLength="155" x="814.5" y="960.2339">edge_iterator operator++()</text><line style="stroke: #A80036; stroke-width: 1.0; stroke-dasharray: 1.0,2.0;" x1="809.5" x2="973" y1="973.2305" y2="973.2305"/><text fill="#000000" font-family="sans-serif" font-size="11" lengthAdjust="spacingAndGlyphs" textLength="126" x="973" y="976.5386">other methods hidden</text><line style="stroke: #A80036; stroke-width: 1.0; stroke-dasharray: 1.0,2.0;" x1="1099" x2="1262.5" y1="973.2305" y2="973.2305"/><!--class edge_storage<twa_graph_edge_data>--><rect fill="#FEFECE" filter="url(#f1le3uzlyjujbn)" height="86.4141" id="edge_storage&lt;twa_graph_edge_data&gt;" style="stroke: #A80036; stroke-width: 1.5;" width="277" x="514.5" y="557"/><ellipse cx="529.5" cy="573" fill="#ADD1B2" rx="11" ry="11" style="stroke: #A80036; stroke-width: 1.0;"/><path d="M532.4688,578.6406 Q531.8906,578.9375 531.25,579.0859 Q530.6094,579.2344 529.9063,579.2344 Q527.4063,579.2344 526.0859,577.5859 Q524.7656,575.9375 524.7656,572.8125 Q524.7656,569.6875 526.0859,568.0313 Q527.4063,566.375 529.9063,566.375 Q530.6094,566.375 531.2578,566.5313 Q531.9063,566.6875 532.4688,566.9844 L532.4688,569.7031 Q531.8438,569.125 531.25,568.8516 Q530.6563,568.5781 530.0313,568.5781 Q528.6875,568.5781 528,569.6484 Q527.3125,570.7188 527.3125,572.8125 Q527.3125,574.9063 528,575.9766 Q528.6875,577.0469 530.0313,577.0469 Q530.6563,577.0469 531.25,576.7734 Q531.8438,576.5 532.4688,575.9219 L532.4688,578.6406 Z "/><text fill="#000000" font-family="sans-serif" font-size="12" lengthAdjust="spacingAndGlyphs" textLength="245" x="543.5" y="577.1543">edge_storage&lt;twa_graph_edge_data&gt;</text><line style="stroke: #A80036; stroke-width: 1.5;" x1="515.5" x2="790.5" y1="589" y2="589"/><ellipse cx="525.5" cy="600.9023" fill="none" rx="3" ry="3" style="stroke: #038048; stroke-width: 1.0;"/><text fill="#000000" font-family="sans-serif" font-size="11" lengthAdjust="spacingAndGlyphs" textLength="74" x="534.5" y="603.2104">unsigned src</text><ellipse cx="525.5" cy="613.707" fill="none" rx="3" ry="3" style="stroke: #038048; stroke-width: 1.0;"/><text fill="#000000" font-family="sans-serif" font-size="11" lengthAdjust="spacingAndGlyphs" textLength="74" x="534.5" y="616.0151">unsigned dst</text><ellipse cx="525.5" cy="626.5117" fill="none" rx="3" ry="3" style="stroke: #038048; stroke-width: 1.0;"/><text fill="#000000" font-family="sans-serif" font-size="11" lengthAdjust="spacingAndGlyphs" textLength="112" x="534.5" y="628.8198">unsigned next_succ</text><line style="stroke: #A80036; stroke-width: 1.5;" x1="515.5" x2="790.5" y1="635.4141" y2="635.4141"/><!--class distate_storage<twa_graph_state>--><rect fill="#FEFECE" filter="url(#f1le3uzlyjujbn)" height="73.6094" id="distate_storage&lt;twa_graph_state&gt;" style="stroke: #A80036; stroke-width: 1.5;" width="255" x="224.5" y="563"/><ellipse cx="239.5" cy="579" fill="#ADD1B2" rx="11" ry="11" style="stroke: #A80036; stroke-width: 1.0;"/><path d="M242.4688,584.6406 Q241.8906,584.9375 241.25,585.0859 Q240.6094,585.2344 239.9063,585.2344 Q237.4063,585.2344 236.0859,583.5859 Q234.7656,581.9375 234.7656,578.8125 Q234.7656,575.6875 236.0859,574.0313 Q237.4063,572.375 239.9063,572.375 Q240.6094,572.375 241.2578,572.5313 Q241.9063,572.6875 242.4688,572.9844 L242.4688,575.7031 Q241.8438,575.125 241.25,574.8516 Q240.6563,574.5781 240.0313,574.5781 Q238.6875,574.5781 238,575.6484 Q237.3125,576.7188 237.3125,578.8125 Q237.3125,580.9063 238,581.9766 Q238.6875,583.0469 240.0313,583.0469 Q240.6563,583.0469 241.25,582.7734 Q241.8438,582.5 242.4688,581.9219 L242.4688,584.6406 Z "/><text fill="#000000" font-family="sans-serif" font-size="12" lengthAdjust="spacingAndGlyphs" textLength="223" x="253.5" y="583.1543">distate_storage&lt;twa_graph_state&gt;</text><line style="stroke: #A80036; stroke-width: 1.5;" x1="225.5" x2="478.5" y1="595" y2="595"/><ellipse cx="235.5" cy="606.9023" fill="none" rx="3" ry="3" style="stroke: #038048; stroke-width: 1.0;"/><text fill="#000000" font-family="sans-serif" font-size="11" lengthAdjust="spacingAndGlyphs" textLength="82" x="244.5" y="609.2104">unsigned succ</text><ellipse cx="235.5" cy="619.707" fill="none" rx="3" ry="3" style="stroke: #038048; stroke-width: 1.0;"/><text fill="#000000" font-family="sans-serif" font-size="11" lengthAdjust="spacingAndGlyphs" textLength="105" x="244.5" y="622.0151">unsigned succ_tail</text><line style="stroke: #A80036; stroke-width: 1.5;" x1="225.5" x2="478.5" y1="628.6094" y2="628.6094"/><!--link Forward Iterator to edge_iterator<digraph<twa_graph_state, twa_graph_edge_data>>--><path d="M153.62,770 C171.02,776.25 190.06,782.46 208,787 C407.99,837.6 640.62,870.82 808.29,890.37 " fill="none" id="Forward Iterator-edge_iterator&lt;digraph&lt;twa_graph_state, twa_graph_edge_data&gt;&gt;" style="stroke: #A80036; stroke-width: 1.0; stroke-dasharray: 7.0,7.0;"/><polygon fill="none" points="151.13,776.54,134.82,763.01,156,763.42,151.13,776.54" style="stroke: #A80036; stroke-width: 1.0;"/><text fill="#000000" font-family="sans-serif" font-size="13" lengthAdjust="spacingAndGlyphs" textLength="56" x="297" y="808.0669">model of</text><!--link twa to twa_graph--><path d="M1083.7,105.69 C1070.95,119.07 1055.28,135.51 1039.69,151.87 " fill="none" id="twa-twa_graph" style="stroke: #A80036; stroke-width: 1.0;"/><polygon fill="none" points="1078.74,100.76,1097.6,91.11,1088.87,110.41,1078.74,100.76" style="stroke: #A80036; stroke-width: 1.0;"/><!--link twa_graph to digraph<twa_graph_state, twa_graph_edge_data>--><path d="M982.1478,312.1207 C982.1478,312.1207 985.67,336.72 987.26,347.81 " fill="none" id="twa_graph-digraph&lt;twa_graph_state, twa_graph_edge_data&gt;" style="stroke: #A80036; stroke-width: 1.0;"/><polygon fill="#A80036" points="989.14,360.96,991.8241,351.4839,988.4314,356.0105,983.9048,352.6178,989.14,360.96" style="stroke: #A80036; stroke-width: 1.0;"/><line style="stroke: #A80036; stroke-width: 1.0;" x1="988.4314" x2="987.295" y1="356.0105" y2="348.095"/><polygon fill="#A80036" points="980.46,300.24,977.3437,306.743,982.1478,312.1207,985.2641,305.6177,980.46,300.24" style="stroke: #A80036; stroke-width: 1.0;"/><text fill="#000000" font-family="sans-serif" font-size="13" lengthAdjust="spacingAndGlyphs" textLength="8" x="979.5449" y="349.7602">1</text><!--link digraph<twa_graph_state, twa_graph_edge_data> to edge_storage<twa_graph_edge_data>--><path d="M897.5848,464.9338 C897.5848,464.9338 788.85,524.54 741.37,550.57 " fill="none" id="digraph&lt;twa_graph_state, twa_graph_edge_data&gt;-edge_storage&lt;twa_graph_edge_data&gt;" style="stroke: #A80036; stroke-width: 1.0;"/><polygon fill="#A80036" points="729.86,556.87,739.6751,556.0556,734.2455,554.4684,735.8326,549.0388,729.86,556.87" style="stroke: #A80036; stroke-width: 1.0;"/><line style="stroke: #A80036; stroke-width: 1.0;" x1="734.2455" x2="741.265" y1="554.4684" y2="550.62"/><polygon fill="#A80036" points="908.11,459.17,900.9262,458.5435,897.5848,464.9338,904.7687,465.5603,908.11,459.17" style="stroke: #A80036; stroke-width: 1.0;"/><text fill="#000000" font-family="sans-serif" font-size="13" lengthAdjust="spacingAndGlyphs" textLength="7" x="734.5518" y="545.8453">*</text><!--link digraph<twa_graph_state, twa_graph_edge_data> to distate_storage<twa_graph_state>--><path d="M759.2071,458.1337 C759.2071,458.1337 510.27,508.9 497,514 C468.9,524.8 439.9,540.7 415.29,555.83 " fill="none" id="digraph&lt;twa_graph_state, twa_graph_edge_data&gt;-distate_storage&lt;twa_graph_state&gt;" style="stroke: #A80036; stroke-width: 1.0;"/><polygon fill="#A80036" points="403.95,562.94,413.7005,561.5518,408.1872,560.2856,409.4534,554.7722,403.95,562.94" style="stroke: #A80036; stroke-width: 1.0;"/><line style="stroke: #A80036; stroke-width: 1.0;" x1="408.1872" x2="414.965" y1="560.2856" y2="556.035"/><polygon fill="#A80036" points="770.97,455.76,764.2973,453.0259,759.2071,458.1337,765.8798,460.8678,770.97,455.76" style="stroke: #A80036; stroke-width: 1.0;"/><text fill="#000000" font-family="sans-serif" font-size="13" lengthAdjust="spacingAndGlyphs" textLength="7" x="405.883" y="551.8394">*</text><!--link twa_graph_edge_data to edge_storage<twa_graph_edge_data>--><path d="M651.6,467.46 C651.91,496.21 652.27,530.56 652.55,556.96 " fill="none" id="twa_graph_edge_data-edge_storage&lt;twa_graph_edge_data&gt;" style="stroke: #A80036; stroke-width: 1.0;"/><polygon fill="none" points="644.6,467.32,651.39,447.25,658.6,467.17,644.6,467.32" style="stroke: #A80036; stroke-width: 1.0;"/><!--link twa_graph_state to distate_storage<twa_graph_state>--><path d="M352,446.08 C352,479.38 352,529.21 352,562.86 " fill="none" id="twa_graph_state-distate_storage&lt;twa_graph_state&gt;" style="stroke: #A80036; stroke-width: 1.0;"/><polygon fill="none" points="345,446.07,352,426.07,359,446.07,345,446.07" style="stroke: #A80036; stroke-width: 1.0;"/><!--link twa to acc_cond--><path d="M1137.2593,99.17 C1137.2593,99.17 1173.93,133.98 1191,152 C1205.59,167.4 1221.17,185.44 1233.18,199.73 " fill="none" id="twa-acc_cond" style="stroke: #A80036; stroke-width: 1.0;"/><polygon fill="#A80036" points="1241.6,209.82,1238.9152,200.3441,1238.4007,205.9775,1232.7673,205.463,1241.6,209.82" style="stroke: #A80036; stroke-width: 1.0;"/><line style="stroke: #A80036; stroke-width: 1.0;" x1="1238.4007" x2="1233.275" y1="205.9775" y2="199.84"/><polygon fill="#A80036" points="1128.47,91,1130.1413,98.0147,1137.2593,99.17,1135.588,92.1552,1128.47,91" style="stroke: #A80036; stroke-width: 1.0;"/><!--link state_out<digraph<twa_graph_state, twa_graph_edge_data>> to digraph<twa_graph_state, twa_graph_edge_data>--><path d="M1047.5113,545.0006 C1047.5113,545.0006 1045,506.42 1040,489 C1038.29,483.05 1036.06,477.07 1033.49,471.21 " fill="none" id="state_out&lt;digraph&lt;twa_graph_state, twa_graph_edge_data&gt;&gt;-digraph&lt;twa_graph_state, twa_graph_edge_data&gt;" style="stroke: #A80036; stroke-width: 1.0;"/><polygon fill="#A80036" points="1027.84,459.4,1028.118,469.2449,1029.9988,463.9099,1035.3338,465.7908,1027.84,459.4" style="stroke: #A80036; stroke-width: 1.0;"/><line style="stroke: #A80036; stroke-width: 1.0;" x1="1029.9988" x2="1033.445" y1="463.9099" y2="471.125"/><polygon fill="#FFFFFF" points="1047.63,557,1051.5705,550.9607,1047.5113,545.0006,1043.5709,551.0399,1047.63,557" style="stroke: #A80036; stroke-width: 1.0;"/><!--link digraph<twa_graph_state, twa_graph_edge_data> to state_out<digraph<twa_graph_state, twa_graph_edge_data>>--><path d="M986.09,459.47 C984.68,474.59 984.88,491.18 989,506 C993.48,522.13 1001.59,538.26 1010.28,552.45 " fill="none" id="digraph&lt;twa_graph_state, twa_graph_edge_data&gt;-state_out&lt;digraph&lt;twa_graph_state, twa_graph_edge_data&gt;&gt;" style="stroke: #A80036; stroke-width: 1.0; stroke-dasharray: 7.0,7.0;"/><polygon fill="#A80036" points="1012.99,556.79,1011.6268,547.0359,1010.3464,552.546,1004.8364,551.2657,1012.99,556.79" style="stroke: #A80036; stroke-width: 1.0;"/><text fill="#000000" font-family="sans-serif" font-size="13" lengthAdjust="spacingAndGlyphs" textLength="41" x="990" y="502.0669">create</text><!--link state_out<digraph<twa_graph_state, twa_graph_edge_data>> to edge_iterator<digraph<twa_graph_state, twa_graph_edge_data>>--><path d="M1021.03,643.05 C1015.27,655.23 1009.94,668.81 1007,682 C995.61,733.1 1003.17,791.63 1013.42,836.99 " fill="none" id="state_out&lt;digraph&lt;twa_graph_state, twa_graph_edge_data&gt;&gt;-edge_iterator&lt;digraph&lt;twa_graph_state, twa_graph_edge_data&gt;&gt;" style="stroke: #A80036; stroke-width: 1.0; stroke-dasharray: 7.0,7.0;"/><polygon fill="#A80036" points="1014.55,841.89,1016.4155,832.2194,1013.4215,837.019,1008.622,834.025,1014.55,841.89" style="stroke: #A80036; stroke-width: 1.0;"/><text fill="#000000" font-family="sans-serif" font-size="13" lengthAdjust="spacingAndGlyphs" textLength="41" x="1008" y="748.5669">create</text><!--link edge_iterator<digraph<twa_graph_state, twa_graph_edge_data>> to digraph<twa_graph_state, twa_graph_edge_data>--><path d="M1142.1789,834.0861 C1142.1789,834.0861 1356.21,621.15 1281,514 C1267.36,494.56 1249.66,478.78 1229.77,465.96 " fill="none" id="edge_iterator&lt;digraph&lt;twa_graph_state, twa_graph_edge_data&gt;&gt;-digraph&lt;twa_graph_state, twa_graph_edge_data&gt;" style="stroke: #A80036; stroke-width: 1.0;"/><polygon fill="#A80036" points="1218.51,459.14,1224.1375,467.2228,1222.7872,461.7294,1228.2806,460.3792,1218.51,459.14" style="stroke: #A80036; stroke-width: 1.0;"/><line style="stroke: #A80036; stroke-width: 1.0;" x1="1222.7872" x2="1229.625" y1="461.7294" y2="465.87"/><polygon fill="#FFFFFF" points="1132.97,841.78,1140.1391,841.0027,1142.1789,834.0861,1135.0098,834.8634,1132.97,841.78" style="stroke: #A80036; stroke-width: 1.0;"/><!--
@startuml
package stl {
  class "Forward Iterator" <<Concept>>
  hide "Forward Iterator" members
  hide "Forward Iterator" circle
}
package spot {
  package internal {
    class "state_out<digraph<twa_graph_state, twa_graph_edge_data>>" {
       unsigned t_
       __
       edge_iterator<digraph<twa_graph_state, twa_graph_edge_data>> begin()
       edge_iterator<digraph<twa_graph_state, twa_graph_edge_data>> end()
    }

    class "edge_iterator<digraph<twa_graph_state, twa_graph_edge_data>>" {
      unsigned t_
      __
      bool operator==(edge_iterator)
      bool operator!=(edge_iterator)
      edge_storage<twa_graph_edge_data>& operator*(edge_iterator)
      edge_storage<twa_graph_edge_data>* operator->(edge_iterator)
      edge_iterator operator++()
      .. other methods hidden ..
    }

    "Forward Iterator" <|.. "edge_iterator<digraph<twa_graph_state, twa_graph_edge_data>>": model of

    class "edge_storage<twa_graph_edge_data>" {
      +unsigned src
      +unsigned dst
      +unsigned next_succ
    }

    class "distate_storage<twa_graph_state>" {
      +unsigned succ
      +unsigned succ_tail
    }

  }

  class twa_graph {
    +typedef digraph<twa_graph_state, twa_graph_edge_data> graph_t
    __
    +twa_graph(const bdd_dict_ptr&)
    +graph_t& get_graph()
    .. exploration ..
    +unsigned get_init_state_number()
    +internal::state_out<graph_t> out(unsigned src)
    .. other methods hidden ..
  }

  twa <|- - twa_graph
  abstract class twa
  hide twa members

  class "digraph<twa_graph_state, twa_graph_edge_data>" {
    +internal::edge_storage<twa_graph_edge_data> edge_storage(unsigned s)
    +internal::distate_storage<twa_graph_state> state_storage(unsigned s)
    +internal::state_out<graph_t> out(unsigned src)
    .. other details omitted ..
  }

  twa_graph *- -> "1" "digraph<twa_graph_state, twa_graph_edge_data>"

  class twa_graph_edge_data {
   +bdd cond
   +acc_cond::mark_t acc
  }

  "digraph<twa_graph_state, twa_graph_edge_data>" *- -> "*" "edge_storage<twa_graph_edge_data>"
  "digraph<twa_graph_state, twa_graph_edge_data>" *- -> "*" "distate_storage<twa_graph_state>"

  twa_graph_edge_data <|- - "edge_storage<twa_graph_edge_data>"
  twa_graph_state <|- - "distate_storage<twa_graph_state>"
  hide twa_graph_state members

  class acc_cond
  hide acc_cond members
  twa *- -> acc_cond

  "state_out<digraph<twa_graph_state, twa_graph_edge_data>>" o- -> "digraph<twa_graph_state, twa_graph_edge_data>"
  "digraph<twa_graph_state, twa_graph_edge_data>" ...> "state_out<digraph<twa_graph_state, twa_graph_edge_data>>" : "create"
  "state_out<digraph<twa_graph_state, twa_graph_edge_data>>" ...> "edge_iterator<digraph<twa_graph_state, twa_graph_edge_data>>" : "create"
  "edge_iterator<digraph<twa_graph_state, twa_graph_edge_data>>" o- -> "digraph<twa_graph_state, twa_graph_edge_data>"
}

@enduml

PlantUML version 1.2019.08(Sat Jul 13 21:25:14 CEST 2019)
(GPL source distribution)
Java Runtime: Java(TM) SE Runtime Environment
JVM: Java HotSpot(TM) 64-Bit Server VM
Java Version: 1.8.0_261-b12
Operating System: Linux
OS Version: 5.4.0-139-generic
Default Encoding: UTF-8
Language: fr
Country: FR
--></g></svg>